<?xml version="1.0" encoding="UTF-8"?>
<svg id="icon" xmlns="http://www.w3.org/2000/svg" viewBox="0 0 864 864">
  <path d="M585,324c-20.1,0-39.78,4.47-57.79,13.04-30.27-41.74-79.07-67.04-131.21-67.04-76.31,0-141.51,53.17-157.97,126.12-52.29,2.6-94.03,45.95-94.03,98.88s44.41,99,99,99h342c74.44,0,135-60.56,135-135s-60.56-135-135-135ZM585,558H243c-34.74,0-63-28.26-63-63s28.26-63,63-63c2.32,0,4.81.18,7.85.55,4.75.59,9.54-.74,13.31-3.69,3.77-2.95,6.21-7.28,6.78-12.03,7.57-63.19,61.34-110.83,125.06-110.83,45.21,0,87.21,24.47,109.6,63.87,2.45,4.31,6.58,7.43,11.4,8.6,4.82,1.17,9.92.3,14.07-2.41,16.11-10.5,34.76-16.05,53.93-16.05,54.59,0,99,44.41,99,99s-44.41,99-99,99Z" style="stroke-width: 0px;"/>
</svg>