<?xml version="1.0" encoding="UTF-8"?>
<svg id="icon" xmlns="http://www.w3.org/2000/svg" viewBox="0 0 864 864">
  <path d="M432,270c-89.33,0-162,72.67-162,162s72.67,162,162,162,162-72.67,162-162-72.67-162-162-162ZM432,558c-69.48,0-126-56.52-126-126s56.52-126,126-126,126,56.52,126,126-56.52,126-126,126Z" style="stroke-width: 0px;"/>
  <path d="M432,240c9.94,0,18-8.06,18-18v-60c0-9.94-8.06-18-18-18s-18,8.06-18,18v60c0,9.94,8.06,18,18,18Z" style="stroke-width: 0px;"/>
  <path d="M432,624c-9.94,0-18,8.06-18,18v60c0,9.94,8.06,18,18,18s18-8.06,18-18v-60c0-9.94-8.06-18-18-18Z" style="stroke-width: 0px;"/>
  <path d="M702,414h-60c-9.94,0-18,8.06-18,18s8.06,18,18,18h60c9.94,0,18-8.06,18-18s-8.06-18-18-18Z" style="stroke-width: 0px;"/>
  <path d="M240,432c0-9.94-8.06-18-18-18h-60c-9.94,0-18,8.06-18,18s8.06,18,18,18h60c9.94,0,18-8.06,18-18Z" style="stroke-width: 0px;"/>
  <path d="M580.49,301.51c4.61,0,9.21-1.76,12.73-5.27l42.43-42.43c7.03-7.03,7.03-18.43,0-25.46-7.03-7.03-18.43-7.03-25.46,0l-42.43,42.43c-7.03,7.03-7.03,18.43,0,25.46,3.51,3.51,8.12,5.27,12.73,5.27Z" style="stroke-width: 0px;"/>
  <path d="M270.78,567.76l-42.43,42.43c-7.03,7.03-7.03,18.43,0,25.46,3.51,3.51,8.12,5.27,12.73,5.27s9.21-1.76,12.73-5.27l42.43-42.43c7.03-7.03,7.03-18.43,0-25.46-7.03-7.03-18.43-7.03-25.46,0Z" style="stroke-width: 0px;"/>
  <path d="M593.22,567.76c-7.03-7.03-18.43-7.03-25.46,0-7.03,7.03-7.03,18.43,0,25.46l42.43,42.43c3.52,3.51,8.12,5.27,12.73,5.27s9.21-1.76,12.73-5.27c7.03-7.03,7.03-18.43,0-25.46l-42.43-42.43Z" style="stroke-width: 0px;"/>
  <path d="M270.78,296.24c3.52,3.51,8.12,5.27,12.73,5.27s9.21-1.76,12.73-5.27c7.03-7.03,7.03-18.43,0-25.46l-42.43-42.43c-7.03-7.03-18.43-7.03-25.46,0-7.03,7.03-7.03,18.43,0,25.46l42.43,42.43Z" style="stroke-width: 0px;"/>
</svg>