<svg viewBox="0 0 72 72" xmlns="http://www.w3.org/2000/svg" xmlns:xlink="http://www.w3.org/1999/xlink"><style>:root>svg{display:none}:root>svg:target{display:block}</style><svg viewBox="0 0 72 72" id="icon-pie_01" xmlns="http://www.w3.org/2000/svg"><path d="M61.6 61.28C68.03 54.77 72 45.84 72 36 72 16.15 55.85 0 36 0S0 16.15 0 36s16.15 36 36 36c9.84 0 18.78-3.98 25.28-10.4.06-.05.12-.09.17-.14s.1-.12.14-.17ZM40.35 37.8h28c-.42 7.58-3.45 14.47-8.21 19.79zm28-3.6H37.8V3.65c16.44.9 29.64 14.11 30.55 30.55M3.6 36c0-17.26 13.57-31.41 30.6-32.35V36c0 .12.01.24.04.35 0 .05.03.1.04.14.02.06.03.13.06.19.02.05.05.1.08.16.03.05.05.1.08.15.05.08.12.15.18.22.02.02.03.04.04.05l22.86 22.86c-5.74 5.14-13.3 8.27-21.59 8.27-17.87 0-32.4-14.53-32.4-32.4Z"/></svg><svg viewBox="0 0 72 72" id="icon-pie_02" xmlns="http://www.w3.org/2000/svg"><path d="M32.4 72C14.53 72 0 57.47 0 39.6S14.53 7.2 32.4 7.2h1.8v30.6h30.6v1.8C64.8 57.47 50.27 72 32.4 72m-1.8-61.14c-15.04.93-27 13.47-27 28.74s12.92 28.8 28.8 28.8 27.81-11.96 28.74-27H30.6z"/><path d="M72 34.2H37.8V0h1.8C57.47 0 72 14.53 72 32.4zm-30.6-3.6h26.94c-.9-14.45-12.5-26.05-26.94-26.94z"/></svg><svg viewBox="0 0 72 72" id="icon-pie_03" xmlns="http://www.w3.org/2000/svg"><path d="M71.95 30.6c-.04-.78-.12-1.56-.22-2.33-.09-.74-.21-1.47-.35-2.19-.14-.7-.3-1.38-.48-2.06a40 40 0 0 0-.59-1.95q-.315-.945-.69-1.86-.36-.9-.78-1.77-.405-.855-.87-1.68A34 34 0 0 0 66 13.64c-.35-.49-.72-.98-1.09-1.45-.38-.47-.76-.93-1.16-1.38s-.81-.89-1.23-1.31-.86-.83-1.31-1.23-.91-.79-1.38-1.16c-.47-.38-.96-.74-1.45-1.09-.5-.35-1-.7-1.52-1.02-.52-.33-1.05-.65-1.6-.95s-1.11-.6-1.68-.87c-.58-.28-1.17-.53-1.77-.78q-.915-.375-1.86-.69c-.64-.22-1.29-.42-1.95-.59-.68-.18-1.37-.34-2.06-.48-.72-.14-1.45-.26-2.19-.35-.77-.1-1.54-.18-2.33-.22-.6-.03-1.2-.05-1.8-.05h-1.8v34.2h34.2v-1.8c0-.6-.02-1.2-.05-1.8ZM41.4 3.66c.46.03.92.07 1.37.12.75.08 1.48.2 2.21.34L41.4 7.7zm0 9.12 7.6-7.6c.62.22 1.23.45 1.83.71q.885.375 1.74.81L41.39 17.88v-5.09Zm0 12.73v-2.55L55.78 8.58c.5.34.99.7 1.47 1.07s.94.76 1.39 1.16L41.4 28.05zm5.09 5.09h-2.55l17.24-17.24c.4.45.79.91 1.16 1.39s.73.97 1.07 1.47L49.03 30.6zm10.18 0h-2.55L65.3 19.42q.435.855.81 1.74c.26.6.5 1.21.71 1.83l-7.6 7.6h-2.54Zm10.19 0h-2.54l3.58-3.58c.14.73.25 1.46.34 2.21.05.45.09.91.12 1.37h-1.49Z"/><path d="M32.4 72C14.53 72 0 57.47 0 39.6S14.53 7.2 32.4 7.2h1.8v30.6h30.6v1.8C64.8 57.47 50.27 72 32.4 72m-1.8-61.14c-15.04.93-27 13.47-27 28.74s12.92 28.8 28.8 28.8 27.81-11.96 28.74-27H30.6z"/></svg><svg viewBox="0 0 72 72" id="icon-star" xmlns="http://www.w3.org/2000/svg"><path d="m71.1 34.44-13.09-7.56 3.91-14.6c.17-.62-.01-1.28-.47-1.74s-1.12-.63-1.74-.47l-14.6 3.91L37.56.9C37.24.34 36.64 0 36 0s-1.24.34-1.56.9l-7.56 13.09-14.6-3.91c-.62-.17-1.28.01-1.74.47s-.63 1.12-.47 1.74l3.91 14.6L.9 34.44c-.56.32-.9.92-.9 1.56s.34 1.24.9 1.56l13.09 7.56-3.91 14.6c-.17.62.01 1.28.47 1.74a1.8 1.8 0 0 0 1.74.47l14.6-3.91 7.56 13.09c.32.56.92.9 1.56.9s1.24-.34 1.56-.9l7.56-13.09 14.6 3.91a1.8 1.8 0 0 0 1.74-.47c.45-.46.63-1.12.47-1.74l-3.91-14.6 13.09-7.56c.56-.32.9-.92.9-1.56s-.34-1.24-.9-1.56Zm-14.05 7.08-3.23 1.86.96 3.6 2.86 10.66-10.66-2.86-3.6-.96-1.86 3.23L36 66.6l-5.52-9.55-1.86-3.23-3.6.96-10.66 2.86 2.86-10.66.96-3.6-3.23-1.86L5.4 36l9.55-5.52 3.23-1.86-.96-3.6-2.86-10.66 10.66 2.86 3.6.96 1.86-3.23L36 5.4l5.52 9.56 1.86 3.23 3.6-.96 10.66-2.86-2.86 10.66-.96 3.6 3.23 1.86 9.56 5.52-9.55 5.52Z"/></svg><svg viewBox="0 0 72 72" id="icon-swirl" xmlns="http://www.w3.org/2000/svg"><path d="M39.6 72H36C16.15 72 0 55.85 0 36S16.15 0 36 0h3.6C57.47 0 72 14.53 72 32.4S57.47 64.8 39.6 64.8H36C20.12 64.8 7.2 51.88 7.2 36S20.12 7.2 36 7.2h3.6c13.9 0 25.2 11.3 25.2 25.2S53.5 57.6 39.6 57.6H36c-11.91 0-21.6-9.69-21.6-21.6S24.09 14.4 36 14.4h3.6c9.93 0 18 8.07 18 18s-8.07 18-18 18H36c-7.94 0-14.4-6.46-14.4-14.4S28.06 21.6 36 21.6h3.6c5.96 0 10.8 4.84 10.8 10.8s-4.84 10.8-10.8 10.8H36c-3.97 0-7.2-3.23-7.2-7.2s3.23-7.2 7.2-7.2h1.8c2.98 0 5.4 2.42 5.4 5.4 0 .99-.81 1.8-1.8 1.8s-1.8-.81-1.8-1.8-.81-1.8-1.8-1.8H36c-1.98 0-3.6 1.62-3.6 3.6s1.62 3.6 3.6 3.6h3.6c3.97 0 7.2-3.23 7.2-7.2s-3.23-7.2-7.2-7.2H36c-5.96 0-10.8 4.85-10.8 10.8S30.05 46.8 36 46.8h3.6c7.94 0 14.4-6.46 14.4-14.4S47.54 18 39.6 18H36c-9.93 0-18 8.08-18 18s8.07 18 18 18h3.6c11.91 0 21.6-9.69 21.6-21.6s-9.69-21.6-21.6-21.6H36c-13.9 0-25.2 11.3-25.2 25.2S22.1 61.2 36 61.2h3.6c15.88 0 28.8-12.92 28.8-28.8S55.48 3.6 39.6 3.6H36C18.13 3.6 3.6 18.13 3.6 36S18.13 68.4 36 68.4h3.6c.99 0 1.8.81 1.8 1.8s-.81 1.8-1.8 1.8"/></svg></svg>