<?xml version="1.0" encoding="UTF-8"?>
<svg id="icon" xmlns="http://www.w3.org/2000/svg" viewBox="0 0 864 864">
  <path d="M448.1,153.95c-3.05-6.1-9.28-9.95-16.1-9.95s-13.05,3.85-16.1,9.95L145.9,693.95c-2.79,5.58-2.49,12.21.79,17.51,3.28,5.31,9.07,8.54,15.31,8.54h540c6.24,0,12.03-3.23,15.31-8.54,3.28-5.31,3.58-11.93.79-17.51L448.1,153.95ZM594.88,528h-325.75l72-144h181.75l72,144ZM432,202.25l78.88,157.75h-157.75l78.88-157.75ZM191.12,684l66-132h349.75l66,132H191.12Z" style="stroke-width: 0px;"/>
</svg>