<?xml version="1.0" encoding="UTF-8"?>
<svg id="icon" xmlns="http://www.w3.org/2000/svg" viewBox="0 0 864 864">
  <path d="M719.93,397.91c-2.79-138.73-115.12-251.06-253.85-253.85-1.76-.04-3.52-.07-5.28-.07,0,0,0,0,0,0h-14.4v273.6h273.6v-14.4h0c0-1.77-.03-3.53-.07-5.29ZM486.16,174.19s0,0,0,0c5.97.66,11.85,1.59,17.67,2.69l-28.63,28.63v-32.27c3.68.23,7.33.55,10.96.95ZM536.01,185.44c4.98,1.72,9.86,3.64,14.67,5.68,0,0,0,0,0,0,4.72,2.01,9.36,4.14,13.91,6.45l-89.4,89.4v-40.72l60.81-60.81ZM475.2,327.71l115-115c4.02,2.74,7.95,5.59,11.78,8.57,0,0,0,0,0,0,3.81,2.96,7.5,6.05,11.11,9.24l-137.9,137.9v-40.72ZM495.56,388.8l137.9-137.9c3.19,3.61,6.28,7.31,9.24,11.11,0,0,0,0,0,0,2.98,3.83,5.83,7.77,8.57,11.78l-115,115h-40.72ZM577.03,388.8l89.4-89.4c2.31,4.55,4.44,9.2,6.45,13.91,0,0,0,0,0,0,2.05,4.82,3.96,9.7,5.68,14.67l-60.81,60.81h-40.72ZM658.48,388.8l28.63-28.63c1.1,5.82,2.04,11.7,2.69,17.67,0,0,0,0,0,0,.4,3.63.72,7.28.95,10.96h-32.27Z" style="stroke-width: 0px;"/>
  <path d="M417.6,201.6h-14.4c-142.92,0-259.2,116.28-259.2,259.2s116.27,259.2,259.2,259.2,259.2-116.27,259.2-259.2v-14.4h-244.8v-244.8ZM633.16,475.2c-7.46,120.36-107.75,216-229.96,216s-230.4-103.36-230.4-230.4,95.64-222.49,216-229.96v244.36h244.36Z" style="stroke-width: 0px;"/>
</svg>