<?xml version="1.0" encoding="UTF-8"?>
<svg id="icon" xmlns="http://www.w3.org/2000/svg" viewBox="0 0 864 864">
  <path d="M448.1,153.95c-3.05-6.1-9.28-9.95-16.1-9.95s-13.05,3.85-16.1,9.95L145.9,693.95c-2.79,5.58-2.49,12.21.79,17.51,3.28,5.31,9.07,8.54,15.31,8.54h540c6.24,0,12.03-3.23,15.31-8.54,3.28-5.31,3.58-11.93.79-17.51L448.1,153.95ZM552.88,444h-241.75l48-96h145.75l48,96ZM564.88,468l48,96H251.12l48-96h265.75ZM432,202.25l60.88,121.75h-121.75l60.88-121.75ZM191.12,684l48-96h385.75l48,96H191.12Z" style="stroke-width: 0px;"/>
</svg>