<?xml version="1.0" encoding="UTF-8"?>
<svg id="icon" xmlns="http://www.w3.org/2000/svg" viewBox="0 0 864 864">
  <path d="M432,144c-159.06,0-288,128.94-288,288s128.94,288,288,288,288-128.94,288-288-128.94-288-288-288ZM432,684c-34.04,0-67.03-6.66-98.08-19.79-30-12.69-56.96-30.87-80.11-54.02-23.16-23.15-41.33-50.11-54.02-80.11-13.13-31.04-19.79-64.04-19.79-98.08s6.66-67.03,19.79-98.08c12.69-30,30.87-56.96,54.02-80.11,23.15-23.15,50.11-41.33,80.11-54.02,27.38-11.58,56.29-18.12,86.08-19.5v251.71s0,.03,0,.04c0,.38.02.76.06,1.14.02.18.05.36.08.55.03.21.05.41.09.61.04.2.1.4.15.6.05.18.08.36.14.54.06.2.13.39.2.58.06.18.12.35.19.53.07.18.16.35.25.53.08.18.16.36.26.54.09.17.19.33.29.49.1.17.2.35.31.52.12.18.25.34.38.52.11.14.21.29.32.43.24.3.5.58.77.86,0,0,.01.02.02.02l177.99,177.99c-21.12,19.24-45.1,34.6-71.43,45.73-31.04,13.13-64.04,19.79-98.08,19.79ZM618.48,601.51l-157.51-157.51h222.74c-1.38,29.79-7.92,58.7-19.5,86.08-11.14,26.33-26.5,50.3-45.73,71.43ZM683.71,420h-239.71v-239.71c29.79,1.38,58.7,7.92,86.08,19.5,30,12.69,56.96,30.87,80.11,54.02,23.16,23.15,41.33,50.11,54.02,80.11,11.58,27.38,18.12,56.29,19.5,86.08Z" style="stroke-width: 0px;"/>
</svg>