<?xml version="1.0" encoding="UTF-8"?>
<svg id="icon" xmlns="http://www.w3.org/2000/svg" viewBox="0 0 864 864">
  <g id="Layer_1_copy" data-name="Layer 1 copy">
    <path d="M630,489.27V194.73c0-27.97-22.76-50.73-50.73-50.73h-294.54c-27.97,0-50.73,22.76-50.73,50.73v294.54c0,27.97,22.76,50.73,50.73,50.73h103.64v-36h-103.64c-8.12,0-14.73-6.61-14.73-14.73V194.73c0-8.12,6.61-14.73,14.73-14.73h294.54c8.12,0,14.73,6.61,14.73,14.73v294.54c0,8.12-6.61,14.73-14.73,14.73h-103.64v36h103.64c27.97,0,50.73-22.76,50.73-50.73Z" style="stroke-width: 0px;"/>
    <path d="M432,714c9.94,0,18-8.06,18-18v-304.54l71.1,71.1c3.51,3.51,8.12,5.27,12.73,5.27s9.21-1.76,12.73-5.27,5.27-8.12,5.27-12.73-1.76-9.21-5.27-12.73l-101.81-101.81c-.42-.42-.87-.83-1.33-1.21-.18-.15-.38-.28-.57-.42-.28-.21-.55-.43-.85-.62-.24-.16-.49-.3-.73-.45-.26-.16-.51-.32-.78-.46-.25-.14-.51-.25-.77-.37-.27-.13-.54-.27-.83-.38-.25-.1-.51-.19-.76-.28-.3-.11-.6-.22-.9-.32-.25-.08-.51-.13-.77-.2-.31-.08-.62-.17-.94-.23-.29-.06-.59-.09-.88-.13-.29-.04-.57-.1-.86-.12-.53-.05-1.06-.08-1.59-.08-.06,0-.12,0-.18,0s-.12,0-.18,0c-.53,0-1.06.03-1.59.08-.29.03-.57.08-.86.12-.29.04-.59.08-.88.13-.32.06-.63.15-.94.23-.25.06-.51.12-.76.2-.31.09-.6.21-.9.32-.25.09-.51.18-.76.28-.28.12-.55.25-.83.38-.26.12-.52.24-.77.37-.27.14-.52.3-.78.46-.24.15-.49.29-.73.44-.29.2-.57.41-.85.62-.19.14-.38.27-.57.42-.46.38-.91.78-1.33,1.21l-101.81,101.81c-3.51,3.51-5.27,8.12-5.27,12.73s1.76,9.21,5.27,12.73,8.12,5.27,12.73,5.27,9.21-1.76,12.73-5.27l71.1-71.1v304.54c0,9.94,8.06,18,18,18Z" style="stroke-width: 0px;"/>
  </g>
</svg>