<?xml version="1.0" encoding="UTF-8"?>
<svg id="icon" xmlns="http://www.w3.org/2000/svg" viewBox="0 0 864 864">
  <g id="Layer_1_copy" data-name="Layer 1 copy">
    <path d="M471.53,237.93l49.57-49.57c3.51-3.51,5.27-8.12,5.27-12.73s-1.76-9.21-5.27-12.73c-7.03-7.03-18.43-7.03-25.46,0l-76.37,76.37c-3.51,3.51-5.27,8.12-5.27,12.73s1.76,9.21,5.27,12.73l76.37,76.37c3.51,3.51,8.12,5.27,12.73,5.27s9.21-1.76,12.73-5.27,5.27-8.12,5.27-12.73-1.76-9.21-5.27-12.73l-37.17-37.17c23.33,7.87,44.71,21.06,62.63,38.98,63.16,63.16,63.16,165.94,0,229.1-31.59,31.58-73.06,47.38-114.55,47.37-41.48,0-82.97-15.79-114.55-47.37-63.16-63.16-63.16-165.94,0-229.1l-25.46-25.46c-77.2,77.2-77.2,202.81,0,280.01,38.6,38.6,89.3,57.9,140.01,57.9s101.41-19.3,140.01-57.9c77.2-77.2,77.2-202.81,0-280.01-27.9-27.9-62.66-46.44-100.48-54.06Z" style="stroke-width: 0px;"/>
  </g>
</svg>