<?xml version="1.0" encoding="UTF-8"?>
<svg id="icon" xmlns="http://www.w3.org/2000/svg" viewBox="0 0 864 864">
  <g id="Layer_1_copy" data-name="Layer 1 copy">
    <path d="M432,720c159.06,0,288-128.94,288-288s-128.94-288-288-288S144,272.94,144,432s128.94,288,288,288ZM180,432c0-34.04,6.66-67.03,19.79-98.08,12.69-30,30.87-56.96,54.02-80.11s50.11-41.33,80.11-54.02c31.04-13.13,64.04-19.79,98.08-19.79s67.03,6.66,98.08,19.79c30,12.69,56.96,30.87,80.11,54.02s41.33,50.11,54.02,80.11c13.13,31.04,19.79,64.04,19.79,98.08s-6.66,67.03-19.79,98.08c-12.69,30-30.87,56.96-54.02,80.11-23.15,23.16-50.11,41.33-80.11,54.02-31.04,13.13-64.04,19.79-98.08,19.79s-67.03-6.66-98.08-19.79c-30-12.69-56.96-30.87-80.11-54.02-23.15-23.15-41.33-50.11-54.02-80.11-13.13-31.04-19.79-64.04-19.79-98.08Z" style="stroke-width: 0px;"/>
    <path d="M330.18,498.18c13.25,0,24-10.75,24-24v-86.06l162.68,162.68c4.69,4.69,10.83,7.03,16.97,7.03s12.28-2.34,16.97-7.03c4.69-4.69,7.03-10.83,7.03-16.97s-2.34-12.28-7.03-16.97l-162.68-162.68h86.06c13.25,0,24-10.75,24-24s-10.75-24-24-24h-144c-.75,0-1.49.04-2.22.11-.04,0-.07,0-.11,0-.73.07-1.46.18-2.17.31-.04,0-.08.01-.13.02-.71.14-1.42.31-2.11.51-.05.02-.11.03-.16.05-.68.2-1.35.44-2,.7-.07.03-.15.06-.22.09-.64.26-1.27.56-1.88.87-.09.05-.18.09-.27.14-.61.33-1.2.68-1.78,1.05-.08.05-.17.1-.25.16-.6.4-1.18.83-1.75,1.28-.05.04-.11.08-.16.12-.62.5-1.21,1.04-1.77,1.6,0,0,0,0,0,0s0,0,0,0c-.56.56-1.1,1.15-1.6,1.77-.04.05-.08.1-.12.16-.45.56-.88,1.14-1.28,1.75-.06.08-.11.17-.16.25-.37.58-.73,1.17-1.05,1.78-.05.09-.09.18-.14.27-.32.61-.61,1.24-.87,1.88-.03.08-.06.15-.09.23-.26.65-.49,1.32-.7,2-.02.06-.03.11-.05.17-.2.69-.37,1.39-.51,2.1,0,.05-.02.09-.02.14-.13.71-.24,1.43-.31,2.16,0,.04,0,.08,0,.12-.07.73-.11,1.47-.11,2.22v144c0,13.25,10.75,24,24,24Z" style="stroke-width: 0px;"/>
  </g>
</svg>