<?xml version="1.0" encoding="UTF-8"?>
<svg id="icon" xmlns="http://www.w3.org/2000/svg" viewBox="0 0 864 864">
  <g id="Layer_1_copy" data-name="Layer 1 copy">
    <path d="M587.65,300.35c0-6.14-2.34-12.28-7.03-16.97-9.37-9.37-24.57-9.37-33.94,0l-162.68,162.68v-86.06c0-13.25-10.75-24-24-24s-24,10.75-24,24v144c0,.75.04,1.48.11,2.21,0,.04,0,.08,0,.12.07.73.18,1.45.31,2.15,0,.05.02.09.03.14.14.71.31,1.41.51,2.09.02.06.03.12.05.18.2.68.44,1.34.7,1.99.03.08.06.16.09.24.26.64.55,1.26.87,1.87.05.09.09.19.14.28.32.61.67,1.2,1.05,1.77.06.09.11.17.17.26.4.6.83,1.18,1.28,1.74.04.05.08.11.13.16.5.62,1.04,1.21,1.6,1.77,0,0,0,0,0,0s0,0,0,0c.56.56,1.15,1.1,1.77,1.6.05.04.11.08.16.13.56.45,1.14.88,1.74,1.28.09.06.17.11.26.17.57.37,1.16.72,1.77,1.05.09.05.19.09.28.14.61.31,1.23.6,1.87.87.08.03.16.06.24.09.65.26,1.31.49,1.99.7.06.02.12.03.18.05.69.2,1.38.37,2.09.51.05,0,.09.02.14.03.71.13,1.43.24,2.15.31.04,0,.08,0,.12,0,.73.07,1.47.11,2.21.11h144c13.25,0,24-10.75,24-24s-10.75-24-24-24h-86.06l162.68-162.68c4.69-4.69,7.03-10.83,7.03-16.97Z" style="stroke-width: 0px;"/>
    <path d="M648,624H240V216c0-13.25-10.75-24-24-24s-24,10.75-24,24v432c0,13.25,10.75,24,24,24h432c13.25,0,24-10.75,24-24s-10.75-24-24-24Z" style="stroke-width: 0px;"/>
  </g>
</svg>