<?xml version="1.0" encoding="UTF-8"?>
<svg id="icon" xmlns="http://www.w3.org/2000/svg" viewBox="0 0 864 864">
  <g id="Layer_1_copy" data-name="Layer 1 copy">
    <path d="M504,408c-13.25,0-24,10.75-24,24s10.75,24,24,24h48c13.25,0,24-10.75,24-24s-10.75-24-24-24h-48Z" style="stroke-width: 0px;"/>
    <path d="M360,408c-13.25,0-24,10.75-24,24s10.75,24,24,24h48c13.25,0,24-10.75,24-24s-10.75-24-24-24h-48Z" style="stroke-width: 0px;"/>
    <path d="M696,408h-48c-13.25,0-24,10.75-24,24s10.75,24,24,24h48c13.25,0,24-10.75,24-24s-10.75-24-24-24Z" style="stroke-width: 0px;"/>
    <path d="M269.82,557.82c6.14,0,12.28-2.34,16.97-7.03,4.69-4.69,7.03-10.83,7.03-16.97s-2.34-12.28-7.03-16.97l-60.85-60.85h38.06c13.25,0,24-10.75,24-24s-10.75-24-24-24h-38.06l60.85-60.85c4.69-4.69,7.03-10.83,7.03-16.97s-2.34-12.28-7.03-16.97c-9.37-9.37-24.57-9.37-33.94,0l-101.82,101.82c-4.69,4.69-7.03,10.83-7.03,16.97s2.34,12.28,7.03,16.97l101.82,101.82c4.69,4.69,10.83,7.03,16.97,7.03Z" style="stroke-width: 0px;"/>
  </g>
</svg>