<?xml version="1.0" encoding="UTF-8"?>
<svg id="icon" xmlns="http://www.w3.org/2000/svg" viewBox="0 0 864 864">
  <g id="Layer_1_copy" data-name="Layer 1 copy">
    <path d="M432,144c-159.06,0-288,128.94-288,288s128.94,288,288,288,288-128.94,288-288-128.94-288-288-288ZM684,432c0,34.04-6.66,67.03-19.79,98.08-12.69,30-30.87,56.96-54.02,80.11-23.15,23.16-50.11,41.33-80.11,54.02-31.04,13.13-64.04,19.79-98.08,19.79s-67.03-6.66-98.08-19.79c-30-12.69-56.96-30.87-80.11-54.02-23.16-23.15-41.33-50.11-54.02-80.11-13.13-31.04-19.79-64.04-19.79-98.08s6.66-67.03,19.79-98.08c12.69-30,30.87-56.96,54.02-80.11,23.15-23.15,50.11-41.33,80.11-54.02,31.04-13.13,64.04-19.79,98.08-19.79s67.03,6.66,98.08,19.79c30,12.69,56.96,30.87,80.11,54.02,23.16,23.15,41.33,50.11,54.02,80.11,13.13,31.04,19.79,64.04,19.79,98.08Z" style="stroke-width: 0px;"/>
    <path d="M576,408h-230.06l60.85-60.85c4.69-4.69,7.03-10.83,7.03-16.97s-2.34-12.28-7.03-16.97c-9.37-9.37-24.57-9.37-33.94,0l-101.82,101.82s0,0,0,0c0,0,0,0,0,0-.56.56-1.1,1.15-1.6,1.77-.04.05-.08.11-.12.16-.45.56-.88,1.14-1.28,1.74-.06.08-.11.17-.16.25-.37.58-.73,1.17-1.05,1.78-.05.09-.09.18-.14.27-.31.61-.61,1.23-.87,1.87-.03.08-.06.15-.09.23-.26.65-.49,1.32-.7,1.99-.02.06-.03.11-.05.17-.2.69-.37,1.39-.51,2.1,0,.05-.02.09-.02.14-.13.71-.24,1.43-.31,2.16,0,.04,0,.08,0,.12-.07.73-.11,1.47-.11,2.21s.04,1.48.11,2.21c0,.04,0,.08,0,.12.07.73.18,1.45.31,2.16,0,.05.02.09.02.14.14.71.31,1.41.51,2.1.02.06.03.11.05.17.2.68.44,1.34.7,1.99.03.08.06.15.09.23.26.64.55,1.26.87,1.87.05.09.09.18.14.27.32.61.68,1.2,1.05,1.78.06.08.11.17.16.25.4.6.83,1.18,1.28,1.74.04.05.08.11.12.16.5.62,1.04,1.21,1.6,1.77,0,0,0,0,0,0,0,0,0,0,0,0l101.82,101.82c4.69,4.69,10.83,7.03,16.97,7.03s12.28-2.34,16.97-7.03c4.69-4.69,7.03-10.83,7.03-16.97s-2.34-12.28-7.03-16.97l-60.85-60.85h230.06c13.25,0,24-10.75,24-24s-10.75-24-24-24Z" style="stroke-width: 0px;"/>
  </g>
</svg>