<?xml version="1.0" encoding="UTF-8"?>
<svg id="icon" xmlns="http://www.w3.org/2000/svg" viewBox="0 0 864 864">
  <g id="Layer_1_copy" data-name="Layer 1 copy">
    <path d="M432,234v36c89.33,0,162,72.67,162,162s-72.67,162-162,162c-25.34,0-49.79-5.79-71.85-16.72h52.57c9.94,0,18-8.06,18-18s-8.06-18-18-18h-108c-9.94,0-18,8.06-18,18v108c0,9.94,8.06,18,18,18s18-8.06,18-18v-70.1c32.13,21.35,69.82,32.82,109.28,32.82,109.18,0,198-88.82,198-198s-88.82-198-198-198Z" style="stroke-width: 0px;"/>
  </g>
</svg>