<?xml version="1.0" encoding="UTF-8"?>
<svg id="icon" xmlns="http://www.w3.org/2000/svg" viewBox="0 0 864 864">
  <g id="Layer_1_copy" data-name="Layer 1 copy">
    <path d="M473.93,563.93h-216c-9.93,0-18-8.08-18-18v-288c0-9.92,8.07-18,18-18h288c9.93,0,18,8.08,18,18v216h36v-216c0-29.78-24.22-54-54-54h-288c-29.78,0-54,24.22-54,54v288c0,29.78,24.22,54,54,54h216v-36Z" style="stroke-width: 0px;"/>
    <path d="M649.78,665.91c.27-.03.53-.08.8-.12.31-.04.63-.08.94-.14.31-.06.6-.14.9-.22.27-.07.54-.13.8-.21.3-.09.58-.2.87-.3.26-.1.53-.18.79-.29.27-.11.53-.24.8-.37.27-.13.54-.25.8-.39.26-.14.5-.29.75-.44.26-.15.51-.3.76-.46.28-.18.54-.39.8-.59.2-.15.41-.3.61-.46.92-.75,1.76-1.6,2.51-2.51.17-.2.31-.42.47-.62.2-.26.4-.52.58-.79.17-.25.31-.51.47-.77.15-.25.3-.48.44-.74.14-.27.26-.54.39-.81.12-.26.25-.52.37-.79.11-.26.2-.53.29-.8.1-.29.21-.57.3-.86.08-.27.14-.54.21-.81.07-.3.16-.59.22-.89.06-.31.1-.63.15-.95.04-.26.09-.52.11-.79.06-.59.09-1.18.09-1.78v-144c0-9.94-8.06-18-18-18s-18,8.06-18,18v100.54l-215.35-215.35c-7.03-7.03-18.43-7.03-25.46,0-3.51,3.51-5.27,8.12-5.27,12.73s1.76,9.21,5.27,12.73l215.35,215.35h-100.54c-9.94,0-18,8.06-18,18s8.06,18,18,18h144c.59,0,1.19-.03,1.78-.09Z" style="stroke-width: 0px;"/>
  </g>
</svg>