<?xml version="1.0" encoding="UTF-8"?>
<svg id="icon" xmlns="http://www.w3.org/2000/svg" viewBox="0 0 864 864">
  <g id="Layer_1_copy" data-name="Layer 1 copy">
    <path d="M245.32,642.68c6.14,0,12.28-2.34,16.97-7.03l332.38-332.38v302.06c0,13.25,10.75,24,24,24s24-10.75,24-24V245.32c0-.75-.04-1.49-.11-2.22,0-.04,0-.08,0-.12-.07-.73-.18-1.45-.31-2.16,0-.05-.02-.09-.02-.14-.14-.71-.31-1.41-.51-2.1-.02-.06-.03-.11-.05-.17-.2-.68-.44-1.34-.7-2-.03-.08-.06-.15-.09-.23-.26-.64-.56-1.27-.87-1.88-.05-.09-.09-.18-.14-.27-.32-.61-.68-1.2-1.05-1.78-.05-.08-.1-.17-.16-.25-.4-.6-.83-1.19-1.29-1.75-.04-.05-.08-.1-.12-.15-.51-.62-1.04-1.21-1.61-1.78t0,0h0c-.56-.56-1.16-1.1-1.78-1.61-.05-.04-.1-.08-.15-.12-.56-.45-1.15-.88-1.75-1.29-.08-.05-.17-.11-.25-.16-.58-.38-1.17-.73-1.78-1.05-.09-.05-.18-.09-.27-.14-.61-.32-1.24-.61-1.88-.87-.07-.03-.15-.06-.22-.09-.65-.26-1.32-.5-2-.7-.05-.02-.11-.03-.16-.05-.69-.2-1.39-.37-2.1-.51-.04,0-.09-.02-.13-.02-.71-.13-1.43-.24-2.16-.31-.04,0-.08,0-.11,0-.73-.07-1.47-.11-2.22-.11h-360c-13.25,0-24,10.75-24,24s10.75,24,24,24h302.06l-332.38,332.38c-4.69,4.69-7.03,10.83-7.03,16.97s2.34,12.28,7.03,16.97c4.69,4.69,10.83,7.03,16.97,7.03Z" style="stroke-width: 0px;"/>
  </g>
</svg>