<?xml version="1.0" encoding="UTF-8"?>
<svg id="icon" xmlns="http://www.w3.org/2000/svg" viewBox="0 0 864 864">
  <g id="Layer_1_copy" data-name="Layer 1 copy">
    <path d="M476.96,308.96c0-13.25-10.75-24-24-24h-144c-.75,0-1.5.04-2.24.11-.03,0-.06,0-.09,0-.74.07-1.46.18-2.18.31-.04,0-.08.01-.11.02-.72.14-1.42.31-2.12.52-.05.01-.1.03-.15.04-.68.2-1.35.44-2.01.7-.07.03-.14.06-.22.09-.64.26-1.27.56-1.88.87-.09.04-.17.09-.26.13-.61.33-1.2.68-1.78,1.05-.08.05-.17.11-.25.16-.6.4-1.18.83-1.75,1.28-.05.04-.1.08-.16.12-.62.5-1.21,1.04-1.77,1.6,0,0,0,0,0,0s0,0,0,0c-.56.56-1.1,1.15-1.6,1.77-.04.05-.08.11-.13.16-.45.56-.88,1.14-1.28,1.74-.06.08-.11.17-.16.26-.37.57-.72,1.17-1.05,1.77-.05.09-.09.18-.14.28-.31.61-.6,1.23-.87,1.87-.03.08-.06.16-.09.23-.26.65-.49,1.31-.7,1.99-.02.06-.03.12-.05.17-.2.69-.37,1.38-.51,2.09,0,.05-.02.09-.03.14-.13.71-.24,1.43-.31,2.16,0,.04,0,.08,0,.12-.07.73-.11,1.47-.11,2.21v144c0,13.25,10.75,24,24,24s24-10.75,24-24v-86.06l164.13,164.13h-86.06c-13.25,0-24,10.75-24,24s10.75,24,24,24h144c.75,0,1.49-.04,2.22-.11.04,0,.08,0,.12,0,.73-.07,1.45-.18,2.16-.31.04,0,.09-.01.13-.02.71-.14,1.41-.31,2.1-.51.05-.02.11-.03.16-.05.68-.2,1.35-.44,2-.7.07-.03.15-.06.22-.09.64-.26,1.27-.56,1.88-.87.09-.05.18-.09.27-.14.61-.32,1.2-.68,1.78-1.05.08-.05.17-.11.25-.16.6-.4,1.18-.83,1.75-1.28.05-.04.11-.08.16-.12.62-.5,1.21-1.04,1.77-1.6,0,0,0,0,0,0s0,0,0,0c.56-.56,1.1-1.15,1.6-1.77.04-.05.08-.11.13-.16.45-.56.88-1.14,1.28-1.74.06-.08.11-.17.16-.26.37-.57.72-1.17,1.05-1.77.05-.09.09-.18.14-.28.31-.61.6-1.23.87-1.87.03-.08.06-.16.09-.23.26-.65.49-1.31.7-1.99.02-.06.03-.12.05-.17.2-.69.37-1.38.51-2.09,0-.05.02-.09.03-.14.13-.71.24-1.43.31-2.16,0-.04,0-.08,0-.12.07-.73.11-1.47.11-2.21v-144c0-13.25-10.75-24-24-24s-24,10.75-24,24v86.06l-164.13-164.13h86.06c13.25,0,24-10.75,24-24Z" style="stroke-width: 0px;"/>
  </g>
</svg>