<?xml version="1.0" encoding="UTF-8"?>
<svg id="icon" xmlns="http://www.w3.org/2000/svg" viewBox="0 0 864 864">
  <g id="Layer_1_copy" data-name="Layer 1 copy">
    <path d="M240,432c0-13.25-10.75-24-24-24h-48c-13.25,0-24,10.75-24,24s10.75,24,24,24h48c13.25,0,24-10.75,24-24Z" style="stroke-width: 0px;"/>
    <path d="M456,456h48c13.25,0,24-10.75,24-24s-10.75-24-24-24h-48c-13.25,0-24,10.75-24,24s10.75,24,24,24Z" style="stroke-width: 0px;"/>
    <path d="M312,408c-13.25,0-24,10.75-24,24s10.75,24,24,24h48c13.25,0,24-10.75,24-24s-10.75-24-24-24h-48Z" style="stroke-width: 0px;"/>
    <path d="M611.15,313.21c-9.37-9.37-24.57-9.37-33.94,0-4.69,4.69-7.03,10.83-7.03,16.97s2.34,12.28,7.03,16.97l60.85,60.85h-38.06c-13.25,0-24,10.75-24,24s10.75,24,24,24h38.06l-60.85,60.85c-4.69,4.69-7.03,10.83-7.03,16.97s2.34,12.28,7.03,16.97c4.69,4.69,10.83,7.03,16.97,7.03s12.28-2.34,16.97-7.03l101.82-101.82c4.69-4.69,7.03-10.83,7.03-16.97s-2.34-12.28-7.03-16.97l-101.82-101.82Z" style="stroke-width: 0px;"/>
  </g>
</svg>