<?xml version="1.0" encoding="UTF-8"?>
<svg id="icon" xmlns="http://www.w3.org/2000/svg" viewBox="0 0 864 864">
  <g id="Layer_1_copy" data-name="Layer 1 copy">
    <path d="M669.27,234h-294.54c-27.97,0-50.73,22.76-50.73,50.73v103.64h36v-103.64c0-8.12,6.61-14.73,14.73-14.73h294.54c8.12,0,14.73,6.61,14.73,14.73v294.54c0,8.12-6.61,14.73-14.73,14.73h-294.54c-8.12,0-14.73-6.61-14.73-14.73v-103.64h-36v103.64c0,27.97,22.76,50.73,50.73,50.73h294.54c27.97,0,50.73-22.76,50.73-50.73v-294.54c0-27.97-22.76-50.73-50.73-50.73Z" style="stroke-width: 0px;"/>
    <path d="M401.45,521.1c-3.51,3.51-5.27,8.12-5.27,12.73s1.76,9.21,5.27,12.73,8.12,5.27,12.73,5.27,9.21-1.76,12.73-5.27l101.81-101.81c.42-.42.83-.87,1.21-1.33.15-.19.28-.38.43-.57.21-.28.43-.55.62-.84.16-.24.3-.49.45-.74.15-.26.31-.51.46-.77.14-.26.25-.52.38-.78.13-.27.26-.53.38-.81.11-.26.19-.52.29-.78.11-.29.22-.58.31-.88.08-.26.14-.53.2-.8.08-.3.16-.6.22-.91.06-.31.1-.62.14-.94.04-.27.09-.53.12-.8.06-.59.09-1.18.09-1.78s-.03-1.19-.09-1.78c-.03-.27-.08-.53-.12-.8-.05-.31-.08-.63-.14-.94-.06-.31-.15-.61-.22-.91-.07-.27-.13-.53-.21-.8-.09-.3-.2-.59-.31-.88-.09-.26-.18-.52-.29-.78-.11-.28-.25-.54-.38-.81-.12-.26-.24-.53-.38-.78-.14-.26-.3-.51-.45-.77-.15-.25-.29-.5-.45-.74-.19-.29-.41-.56-.62-.84-.14-.19-.28-.39-.43-.57-.38-.46-.78-.91-1.21-1.33l-101.81-101.81c-7.03-7.03-18.43-7.03-25.46,0-3.51,3.51-5.27,8.12-5.27,12.73s1.76,9.21,5.27,12.73l71.1,71.1H168c-9.94,0-18,8.06-18,18s8.06,18,18,18h304.54l-71.1,71.1Z" style="stroke-width: 0px;"/>
  </g>
</svg>