<?xml version="1.0" encoding="UTF-8"?>
<svg id="icon" xmlns="http://www.w3.org/2000/svg" viewBox="0 0 864 864">
  <g id="Layer_1_copy" data-name="Layer 1 copy">
    <path d="M395.65,563.65c0,13.25,10.75,24,24,24h144c.75,0,1.48-.04,2.21-.11.04,0,.08,0,.12,0,.73-.07,1.45-.18,2.15-.31.05,0,.09-.02.14-.03.71-.14,1.41-.31,2.09-.51.06-.02.12-.03.18-.05.68-.2,1.34-.44,1.99-.7.08-.03.16-.06.24-.09.64-.26,1.26-.55,1.87-.87.09-.05.19-.09.28-.14.61-.32,1.2-.67,1.77-1.05.09-.06.17-.11.26-.17.6-.4,1.18-.83,1.74-1.28.05-.04.11-.08.16-.13.62-.5,1.21-1.04,1.77-1.6,0,0,0,0,0,0s0,0,0,0c.56-.56,1.1-1.15,1.6-1.77.04-.05.08-.11.13-.16.45-.56.88-1.14,1.28-1.74.06-.09.11-.17.17-.26.37-.57.72-1.16,1.05-1.77.05-.09.09-.19.14-.28.31-.61.6-1.23.87-1.87.03-.08.06-.16.09-.24.26-.65.49-1.31.7-1.99.02-.06.03-.12.05-.18.2-.69.37-1.38.51-2.09,0-.05.02-.09.03-.14.13-.71.24-1.43.31-2.15,0-.04,0-.08,0-.12.07-.73.11-1.47.11-2.21v-144c0-13.25-10.75-24-24-24s-24,10.75-24,24v86.06l-162.68-162.68c-9.37-9.37-24.57-9.37-33.94,0-4.69,4.69-7.03,10.83-7.03,16.97s2.34,12.28,7.03,16.97l162.68,162.68h-86.06c-13.25,0-24,10.75-24,24Z" style="stroke-width: 0px;"/>
    <path d="M648,192H216c-13.25,0-24,10.75-24,24v432c0,13.25,10.75,24,24,24s24-10.75,24-24V240h408c13.25,0,24-10.75,24-24s-10.75-24-24-24Z" style="stroke-width: 0px;"/>
  </g>
</svg>