<?xml version="1.0" encoding="UTF-8"?>
<svg id="icon" xmlns="http://www.w3.org/2000/svg" viewBox="0 0 864 864">
  <g id="Layer_1_copy" data-name="Layer 1 copy">
    <path d="M383.82,234.09c0-6.14-2.34-12.28-7.03-16.97-9.37-9.37-24.57-9.37-33.94,0l-101.82,101.82s0,0,0,0c-.56.56-1.09,1.15-1.59,1.76-.01.02-.03.03-.04.05-.03.04-.06.08-.09.12-.45.56-.88,1.14-1.28,1.74-.02.03-.04.06-.06.09-.04.06-.07.12-.1.17-.37.58-.72,1.17-1.05,1.77-.02.03-.04.07-.06.1-.03.06-.05.12-.08.18-.31.61-.61,1.23-.87,1.87-.01.03-.03.06-.04.09-.02.05-.03.1-.05.14-.26.65-.49,1.32-.7,1.99-.02.06-.03.11-.05.17-.2.69-.37,1.38-.51,2.1,0,.02,0,.03-.01.05,0,.03,0,.06-.01.1-.13.71-.24,1.42-.31,2.15,0,.01,0,.03,0,.04,0,.03,0,.07,0,.1-.07.72-.1,1.46-.1,2.2h0s0,.02,0,.03c0,.74.04,1.47.1,2.19,0,.03,0,.06,0,.09,0,.01,0,.02,0,.03.07.73.18,1.44.31,2.15,0,.03,0,.07.01.1,0,.01,0,.03.01.04.14.71.31,1.41.51,2.09.02.06.03.12.05.18.2.68.44,1.34.7,1.99.03.08.06.16.09.24.26.64.55,1.25.86,1.86.03.06.05.12.08.17.02.04.04.07.06.11.32.6.67,1.19,1.04,1.76.04.06.07.12.1.17.02.03.05.06.07.1.4.59.82,1.17,1.27,1.72.03.04.06.08.09.12.02.02.03.04.05.06.5.6,1.02,1.19,1.57,1.74,0,0,.01.01.02.02l78.99,79.13-78.99,79.13s-.01.01-.02.02c-.55.55-1.08,1.13-1.57,1.74-.02.02-.03.04-.05.06-.03.04-.06.08-.09.12-.45.56-.87,1.13-1.27,1.72-.02.03-.05.06-.07.1-.04.06-.07.12-.1.17-.37.57-.72,1.16-1.04,1.76-.02.04-.04.07-.06.11-.03.06-.05.11-.08.17-.31.61-.6,1.23-.86,1.86-.03.08-.06.16-.09.24-.26.65-.49,1.31-.7,1.99-.02.06-.03.12-.05.18-.2.69-.37,1.38-.51,2.09,0,.01,0,.03-.01.04,0,.03,0,.07-.01.1-.13.71-.24,1.42-.31,2.15,0,.01,0,.02,0,.03,0,.03,0,.06,0,.09-.07.72-.1,1.45-.1,2.19,0,0,0,.01,0,.02h0c0,.75.04,1.49.1,2.21,0,.03,0,.07,0,.1,0,.01,0,.03,0,.04.07.73.18,1.44.31,2.15,0,.03,0,.06.01.1,0,.02,0,.03.01.05.14.71.31,1.41.51,2.1.02.06.03.11.05.17.2.68.44,1.34.7,1.99.02.05.03.1.05.14.01.03.03.06.04.09.26.64.55,1.26.87,1.87.03.06.05.12.08.18.02.03.04.07.06.1.32.61.67,1.2,1.05,1.77.04.06.07.12.1.17.02.03.04.06.06.09.4.6.83,1.18,1.28,1.74.03.04.06.08.09.12.01.02.03.03.04.05.5.61,1.03,1.2,1.59,1.76,0,0,0,0,0,0l101.82,101.82c4.69,4.69,10.83,7.03,16.97,7.03s12.29-2.34,16.97-7.03,7.03-10.83,7.03-16.97-2.34-12.28-7.03-16.97l-60.85-60.85h290.06c13.25,0,24-10.75,24-24s-10.75-24-24-24h-290.13l55.03-55.13c.33-.33.62-.68.93-1.03.23-.26.48-.51.7-.78.32-.39.6-.81.9-1.22.17-.24.37-.48.53-.72.31-.47.57-.95.85-1.43.12-.21.25-.4.36-.61.29-.54.53-1.1.77-1.66.07-.16.15-.31.22-.47.29-.72.55-1.46.77-2.2.06-.2.09-.4.15-.59.15-.55.3-1.1.4-1.65.07-.38.11-.76.16-1.14.06-.38.13-.76.17-1.15.03-.35.03-.71.05-1.06.02-.41.06-.82.06-1.22,0,0,0,0,0-.01s0,0,0-.01c0-.41-.04-.82-.06-1.22-.02-.35-.02-.71-.05-1.06-.04-.38-.11-.76-.17-1.15-.05-.38-.09-.76-.16-1.14-.11-.56-.26-1.1-.4-1.65-.05-.2-.09-.4-.15-.59-.22-.74-.48-1.48-.77-2.2-.06-.16-.15-.31-.22-.47-.24-.56-.49-1.12-.77-1.66-.11-.21-.25-.41-.36-.61-.27-.48-.54-.96-.85-1.43-.16-.25-.36-.48-.53-.72-.29-.41-.57-.82-.9-1.22-.22-.27-.47-.52-.7-.78-.31-.34-.6-.7-.93-1.03l-55.03-55.13h290.13c13.25,0,24-10.75,24-24s-10.75-24-24-24h-290.06l60.85-60.85c4.69-4.69,7.03-10.83,7.03-16.97Z" style="stroke-width: 0px;"/>
  </g>
</svg>