<?xml version="1.0" encoding="UTF-8"?>
<svg id="icon" xmlns="http://www.w3.org/2000/svg" viewBox="0 0 864 864">
  <g id="Layer_1_copy" data-name="Layer 1 copy">
    <path d="M245.32,629.32c13.25,0,24-10.75,24-24v-302.06l332.38,332.38c4.69,4.69,10.83,7.03,16.97,7.03s12.28-2.34,16.97-7.03c4.69-4.69,7.03-10.83,7.03-16.97s-2.34-12.28-7.03-16.97l-332.38-332.38h302.06c13.25,0,24-10.75,24-24s-10.75-24-24-24H245.32c-.75,0-1.49.04-2.22.11-.04,0-.08,0-.11,0-.73.07-1.45.18-2.16.31-.04,0-.09.01-.13.02-.71.14-1.41.31-2.1.51-.05.02-.11.03-.16.05-.68.2-1.35.44-2,.7-.07.03-.15.06-.22.09-.64.26-1.27.56-1.88.87-.09.05-.18.09-.27.14-.61.33-1.2.68-1.78,1.05-.08.05-.17.1-.25.16-.6.4-1.19.83-1.75,1.29-.05.04-.1.08-.15.12-.62.51-1.21,1.04-1.78,1.61h0s0,0,0,0c-.56.56-1.1,1.16-1.61,1.78-.04.05-.08.1-.12.15-.45.56-.88,1.15-1.29,1.75-.05.08-.11.17-.16.25-.37.58-.73,1.17-1.05,1.78-.05.09-.09.18-.14.27-.32.61-.61,1.24-.87,1.88-.03.08-.06.15-.09.23-.26.65-.49,1.32-.7,2-.02.06-.03.11-.05.17-.2.69-.37,1.39-.51,2.1,0,.05-.02.09-.02.14-.13.71-.24,1.43-.31,2.16,0,.04,0,.08,0,.12-.07.73-.11,1.47-.11,2.22v360c0,13.25,10.75,24,24,24Z" style="stroke-width: 0px;"/>
  </g>
</svg>