<?xml version="1.0" encoding="UTF-8"?>
<svg id="icon" xmlns="http://www.w3.org/2000/svg" viewBox="0 0 864 864">
  <g id="Layer_1_copy" data-name="Layer 1 copy">
    <path d="M624.7,447.04c.45-.56.88-1.14,1.28-1.75.06-.08.11-.17.16-.25.37-.58.73-1.17,1.05-1.78.05-.09.09-.18.14-.27.32-.61.61-1.23.87-1.87.03-.08.06-.15.09-.23.26-.65.49-1.32.7-1.99.02-.06.03-.11.05-.17.2-.69.37-1.38.51-2.09,0-.05.02-.09.02-.14.13-.71.24-1.43.31-2.16,0-.04,0-.08,0-.12.07-.73.11-1.47.11-2.22s-.04-1.49-.11-2.22c0-.04,0-.08,0-.12-.07-.73-.18-1.45-.31-2.16,0-.05-.02-.09-.02-.14-.14-.71-.31-1.41-.51-2.09-.02-.06-.03-.11-.05-.17-.2-.68-.44-1.34-.7-1.99-.03-.08-.06-.15-.09-.23-.26-.64-.55-1.26-.87-1.87-.05-.09-.09-.18-.14-.27-.32-.61-.68-1.2-1.05-1.78-.05-.08-.11-.17-.16-.25-.4-.6-.83-1.18-1.28-1.75-.04-.05-.08-.11-.12-.16-.5-.62-1.04-1.21-1.6-1.77,0,0,0,0,0,0l-101.82-101.82c-9.37-9.37-24.57-9.37-33.94,0-4.69,4.69-7.03,10.83-7.03,16.97s2.34,12.28,7.03,16.97l60.85,60.85h-290.06c-13.25,0-24,10.75-24,24s10.75,24,24,24h348c.75,0,1.48-.04,2.21-.11.04,0,.08,0,.12,0,.73-.07,1.45-.18,2.16-.31.05,0,.09-.02.14-.03.71-.14,1.41-.31,2.09-.51.06-.02.12-.03.17-.05.68-.2,1.34-.44,1.99-.7.08-.03.16-.06.23-.09.64-.26,1.26-.55,1.87-.87.09-.05.18-.09.28-.14.61-.32,1.2-.67,1.77-1.05.09-.06.17-.11.26-.17.6-.4,1.18-.83,1.74-1.28.05-.04.11-.08.16-.13.62-.5,1.21-1.04,1.77-1.6,0,0,0,0,0,0s0,0,0,0c.56-.56,1.1-1.15,1.6-1.77.04-.05.08-.11.12-.16Z" style="stroke-width: 0px;"/>
  </g>
</svg>