<?xml version="1.0" encoding="UTF-8"?>
<svg id="icon" xmlns="http://www.w3.org/2000/svg" viewBox="0 0 864 864">
  <g id="Layer_1_copy" data-name="Layer 1 copy">
    <path d="M203.93,318.07v288c0,29.78,24.22,54,54,54h288c29.78,0,54-24.22,54-54v-216h-36v216c0,9.92-8.08,18-18,18h-288c-9.92,0-18-8.08-18-18v-288c0-9.92,8.08-18,18-18h216v-36h-216c-29.78,0-54,24.22-54,54Z" style="stroke-width: 0px;"/>
    <path d="M642,240c0-4.61-1.76-9.21-5.27-12.73-7.03-7.03-18.43-7.03-25.46,0l-215.35,215.35v-100.54c0-9.94-8.06-18-18-18s-18,8.06-18,18v144c0,.59.03,1.19.09,1.78.03.27.08.53.12.8.04.31.08.63.14.94.06.31.15.61.22.91.07.27.13.53.21.8.09.3.2.59.31.88.09.26.18.52.29.78.12.28.25.54.38.81.12.26.24.53.38.78.14.26.3.52.46.77.15.25.29.5.45.74.19.29.41.56.62.84.14.19.28.39.43.57.76.92,1.6,1.77,2.52,2.52.19.15.38.28.57.43.28.21.55.43.84.62.24.16.49.3.74.45.26.15.51.31.77.46.26.14.52.25.78.38.27.13.54.26.81.38.26.11.52.19.78.29.29.11.58.22.88.31.26.08.53.14.8.2.3.08.6.16.91.22.31.06.62.1.94.14.27.04.53.09.8.12.59.06,1.18.09,1.78.09h144c9.94,0,18-8.06,18-18s-8.06-18-18-18h-100.54l215.35-215.35c3.51-3.51,5.27-8.12,5.27-12.73Z" style="stroke-width: 0px;"/>
  </g>
</svg>