<?xml version="1.0" encoding="UTF-8"?>
<svg id="icon" xmlns="http://www.w3.org/2000/svg" viewBox="0 0 864 864">
  <g id="Layer_1_copy" data-name="Layer 1 copy">
    <path d="M455.89,255.66c-.07-.73-.18-1.45-.31-2.16,0-.05-.02-.09-.02-.14-.14-.71-.31-1.41-.51-2.09-.02-.06-.03-.11-.05-.17-.2-.68-.44-1.34-.7-1.99-.03-.08-.06-.15-.09-.23-.26-.64-.55-1.26-.87-1.87-.05-.09-.09-.18-.14-.27-.32-.61-.68-1.2-1.05-1.78-.05-.08-.11-.17-.16-.25-.4-.6-.83-1.18-1.28-1.75-.04-.05-.08-.1-.12-.15-.51-.62-1.04-1.21-1.6-1.78,0,0,0,0,0,0,0,0,0,0,0,0-.56-.56-1.16-1.1-1.78-1.61-.05-.04-.1-.08-.15-.12-.56-.46-1.15-.89-1.75-1.29-.08-.05-.16-.1-.24-.16-.58-.38-1.18-.73-1.79-1.06-.08-.04-.17-.09-.26-.13-.61-.32-1.24-.61-1.89-.88-.07-.03-.14-.06-.21-.08-.66-.26-1.33-.5-2.01-.7-.05-.01-.1-.03-.15-.04-.69-.2-1.4-.38-2.11-.52l-.12-.02c-.71-.14-1.44-.24-2.18-.31-.03,0-.07,0-.1,0-.73-.07-1.48-.11-2.23-.11s-1.49.04-2.22.11c-.04,0-.07,0-.11,0-.73.07-1.45.18-2.16.31-.04,0-.09.01-.13.02-.71.14-1.41.31-2.1.51-.06.02-.11.03-.17.05-.68.2-1.34.44-1.99.7-.08.03-.16.06-.23.09-.64.26-1.26.55-1.87.87-.09.05-.18.09-.27.14-.61.32-1.2.67-1.77,1.05-.08.05-.17.11-.26.16-.6.4-1.18.83-1.74,1.28-.05.04-.11.08-.16.12-.62.5-1.21,1.04-1.77,1.6,0,0,0,0,0,0l-101.82,101.82c-4.69,4.69-7.03,10.83-7.03,16.97,0,6.14,2.34,12.28,7.03,16.97s10.83,7.03,16.97,7.03,12.28-2.34,16.97-7.03l60.85-60.85v290.06c0,13.25,10.75,24,24,24s24-10.75,24-24v-348c0-.75-.04-1.49-.11-2.22,0-.04,0-.08,0-.12Z" style="stroke-width: 0px;"/>
  </g>
</svg>