<?xml version="1.0" encoding="UTF-8"?>
<svg id="icon" xmlns="http://www.w3.org/2000/svg" viewBox="0 0 864 864">
  <g id="Layer_1_copy" data-name="Layer 1 copy">
    <path d="M216,165.09c-13.25,0-24,10.75-24,24v312h0c0,52.91,43.02,95.96,95.92,96,.03,0,.05,0,.08,0h302.06l-60.85,60.85c-4.69,4.69-7.03,10.83-7.03,16.97s2.34,12.28,7.03,16.97c4.69,4.69,10.83,7.03,16.97,7.03s12.28-2.34,16.97-7.03l101.81-101.81c.57-.57,1.11-1.17,1.63-1.8.04-.04.07-.09.11-.14.46-.57.89-1.16,1.3-1.77.05-.08.1-.16.15-.23.38-.58.73-1.18,1.06-1.8.04-.08.09-.17.13-.25.32-.62.61-1.24.88-1.89.03-.07.06-.14.08-.21.26-.66.5-1.32.7-2.01.02-.05.03-.11.05-.16.2-.69.37-1.39.51-2.1,0-.04.02-.09.02-.13.13-.71.24-1.43.31-2.16,0-.04,0-.08,0-.12.07-.73.11-1.47.11-2.22h0c0-.75-.04-1.49-.11-2.21,0-.04,0-.08,0-.12-.07-.73-.18-1.44-.31-2.15,0-.03,0-.06-.01-.1,0-.02,0-.03-.01-.05-.14-.71-.31-1.4-.51-2.09-.02-.06-.03-.12-.05-.18-.2-.67-.43-1.33-.69-1.98-.03-.08-.06-.16-.1-.24-.26-.63-.55-1.25-.86-1.86-.05-.1-.1-.19-.15-.29-.32-.6-.67-1.19-1.04-1.76-.06-.09-.11-.18-.17-.27-.4-.59-.82-1.17-1.27-1.72-.05-.06-.09-.12-.14-.18-.5-.61-1.02-1.19-1.58-1.75,0,0-.01-.02-.02-.02l-101.82-101.82c-9.37-9.37-24.57-9.37-33.94,0-4.69,4.69-7.03,10.83-7.03,16.97s2.34,12.28,7.03,16.97l60.85,60.85h-302.02s-.03,0-.04,0c-26.47,0-48-21.53-48-48V189.09c0-13.25-10.75-24-24-24Z" style="stroke-width: 0px;"/>
  </g>
</svg>