<svg xmlns="http://www.w3.org/2000/svg" viewBox="0 0 864 864"><path d="M383.82 330.18c0-6.14-2.34-12.28-7.03-16.97-9.37-9.37-24.57-9.37-33.94 0L241.03 415.03c-.56.56-1.1 1.15-1.6 1.77-.04.05-.08.1-.12.16-.45.56-.88 1.14-1.28 1.75-.06.08-.11.17-.16.25-.37.58-.73 1.17-1.05 1.78-.05.09-.09.18-.14.27-.32.61-.61 1.24-.87 1.88-.03.08-.06.15-.09.23-.26.65-.49 1.32-.7 2-.02.06-.03.11-.05.17q-.3 1.035-.51 2.1c0 .05-.02.09-.02.14-.13.71-.24 1.43-.31 2.16v.12c-.07.73-.11 1.47-.11 2.22s.04 1.49.11 2.22v.12c.07.73.18 1.45.31 2.16 0 .05.02.09.02.14q.21 1.065.51 2.1c.02.06.03.11.05.17.2.68.44 1.34.7 2 .03.08.06.15.09.23.26.64.55 1.27.87 1.88.05.09.09.18.14.27.32.61.68 1.2 1.05 1.78.05.08.11.17.16.25.4.6.83 1.18 1.28 1.75.04.05.08.11.12.16.5.62 1.04 1.21 1.6 1.77l101.82 101.82c4.69 4.69 10.83 7.03 16.97 7.03s12.28-2.34 16.97-7.03 7.03-10.83 7.03-16.97-2.34-12.28-7.03-16.97l-60.85-60.85h232.12l-60.85 60.85c-4.69 4.69-7.03 10.83-7.03 16.97s2.34 12.28 7.03 16.97 10.83 7.03 16.97 7.03 12.28-2.34 16.97-7.03l101.82-101.82c.56-.56 1.1-1.15 1.6-1.77.04-.05.08-.1.12-.16.45-.56.88-1.14 1.28-1.75.06-.08.11-.17.16-.25.37-.58.73-1.17 1.05-1.78.05-.09.09-.18.14-.27.32-.61.61-1.24.87-1.88.03-.08.06-.15.09-.23.26-.65.49-1.32.7-2 .02-.06.03-.11.05-.17q.3-1.035.51-2.1c0-.05.02-.09.02-.14.13-.71.24-1.43.31-2.16v-.12c.07-.73.11-1.47.11-2.22s-.04-1.49-.11-2.22v-.12c-.07-.73-.18-1.45-.31-2.16 0-.05-.02-.09-.02-.14q-.21-1.065-.51-2.1c-.02-.06-.03-.11-.05-.17-.2-.68-.44-1.34-.7-2-.03-.08-.06-.15-.09-.23-.26-.64-.55-1.27-.87-1.88-.05-.09-.09-.18-.14-.27-.32-.61-.68-1.2-1.05-1.78-.05-.08-.11-.17-.16-.25-.4-.6-.83-1.18-1.28-1.75-.04-.05-.08-.11-.12-.16-.5-.62-1.04-1.21-1.6-1.77L521.15 313.21c-9.37-9.37-24.57-9.37-33.94 0-4.69 4.69-7.03 10.83-7.03 16.97s2.34 12.28 7.03 16.97L548.06 408H315.94l60.85-60.85a23.92 23.92 0 0 0 7.03-16.97"/></svg>