<svg xmlns="http://www.w3.org/2000/svg" viewBox="0 0 864 864"><path d="M240 432c0-13.25-10.75-24-24-24h-48c-13.25 0-24 10.75-24 24s10.75 24 24 24h48c13.25 0 24-10.75 24-24m216 24h48c13.25 0 24-10.75 24-24s-10.75-24-24-24h-48c-13.25 0-24 10.75-24 24s10.75 24 24 24m-144-48c-13.25 0-24 10.75-24 24s10.75 24 24 24h48c13.25 0 24-10.75 24-24s-10.75-24-24-24zm299.15-94.79c-9.37-9.37-24.57-9.37-33.94 0-4.69 4.69-7.03 10.83-7.03 16.97s2.34 12.28 7.03 16.97L638.06 408H600c-13.25 0-24 10.75-24 24s10.75 24 24 24h38.06l-60.85 60.85c-4.69 4.69-7.03 10.83-7.03 16.97s2.34 12.28 7.03 16.97 10.83 7.03 16.97 7.03 12.28-2.34 16.97-7.03l101.82-101.82c4.69-4.69 7.03-10.83 7.03-16.97s-2.34-12.28-7.03-16.97z"/></svg>