<svg xmlns="http://www.w3.org/2000/svg" viewBox="0 0 864 864"><path d="M234 374.73v294.54c0 27.97 22.76 50.73 50.73 50.73h294.55c27.97 0 50.73-22.76 50.73-50.73V374.73c0-27.97-22.76-50.73-50.73-50.73H475.64v36h103.64c8.12 0 14.73 6.61 14.73 14.73v294.54c0 8.12-6.61 14.73-14.73 14.73H284.73c-8.12 0-14.73-6.61-14.73-14.73V374.73c0-8.12 6.61-14.73 14.73-14.73h103.64v-36H284.73c-27.97 0-50.73 22.76-50.73 50.73"/><path d="M432 534c9.94 0 18-8.06 18-18V211.46l71.1 71.1c3.51 3.51 8.12 5.27 12.73 5.27s9.21-1.76 12.73-5.27 5.27-8.12 5.27-12.73-1.76-9.21-5.27-12.73L444.74 155.28c-.42-.42-.86-.82-1.33-1.2-.2-.16-.41-.31-.62-.46-.26-.2-.52-.4-.8-.59-.25-.17-.52-.32-.78-.47-.24-.15-.48-.3-.73-.43-.27-.14-.54-.26-.82-.39-.26-.12-.51-.25-.78-.36s-.54-.2-.81-.3c-.28-.1-.56-.21-.85-.3-.27-.08-.55-.14-.83-.21-.29-.07-.58-.16-.88-.21-.32-.06-.65-.1-.98-.15-.25-.04-.5-.08-.76-.11-1.18-.12-2.37-.12-3.56 0-.26.03-.51.07-.76.11-.33.05-.65.08-.98.15-.3.06-.59.14-.88.21-.28.07-.55.13-.83.21-.29.09-.57.2-.85.3-.27.1-.54.19-.81.3s-.52.24-.78.36c-.27.13-.55.25-.82.39-.25.13-.49.29-.73.43-.26.16-.52.3-.78.47-.27.18-.53.39-.8.59-.21.15-.42.3-.62.46-.46.38-.91.78-1.33 1.2L317.42 257.1c-3.51 3.51-5.27 8.12-5.27 12.73s1.76 9.21 5.27 12.73 8.12 5.27 12.73 5.27 9.21-1.76 12.73-5.27l71.1-71.1V516c0 9.94 8.06 18 18 18Z"/></svg>