<svg xmlns="http://www.w3.org/2000/svg" viewBox="0 0 864 864"><path d="M719.88 429.66c-.07-.73-.18-1.45-.31-2.15 0-.05-.02-.09-.03-.14a24 24 0 0 0-.51-2.09c-.02-.06-.03-.12-.05-.18a22 22 0 0 0-.7-1.99l-.09-.24c-.26-.64-.55-1.26-.87-1.87-.05-.09-.09-.19-.14-.28q-.48-.915-1.05-1.77l-.17-.26c-.4-.6-.83-1.18-1.28-1.74-.04-.05-.08-.11-.13-.16-.5-.62-1.04-1.21-1.6-1.77L611.13 313.2c-9.37-9.37-24.57-9.37-33.94 0-4.69 4.69-7.03 10.83-7.03 16.97s2.34 12.28 7.03 16.97l60.85 60.85h-412.1l60.85-60.85c4.69-4.69 7.03-10.83 7.03-16.97s-2.34-12.28-7.03-16.97c-9.37-9.37-24.57-9.37-33.94 0L151.03 415.02c-.56.56-1.1 1.15-1.6 1.77-.04.05-.08.11-.13.16-.45.56-.88 1.14-1.28 1.74l-.17.26q-.555.855-1.05 1.77c-.05.09-.09.19-.14.28-.31.61-.6 1.23-.87 1.87l-.09.24c-.26.65-.49 1.31-.7 1.99-.02.06-.03.12-.05.18-.2.69-.37 1.38-.51 2.09 0 .05-.02.09-.03.14-.13.71-.24 1.43-.31 2.15v.12c-.07.73-.11 1.47-.11 2.21s.04 1.48.11 2.21v.12c.07.73.18 1.45.31 2.15 0 .05.02.09.03.14.14.71.31 1.41.51 2.09.02.06.03.12.05.18.2.68.44 1.34.7 1.99l.09.24c.26.64.55 1.26.87 1.87.05.09.09.19.14.28q.48.915 1.05 1.77l.17.26c.4.6.83 1.18 1.28 1.74.04.05.08.11.13.16.5.62 1.04 1.21 1.6 1.77l101.82 101.82c4.69 4.69 10.83 7.03 16.97 7.03s12.28-2.34 16.97-7.03 7.03-10.83 7.03-16.97-2.34-12.28-7.03-16.97l-60.85-60.85h412.12l-60.85 60.85c-4.69 4.69-7.03 10.83-7.03 16.97s2.34 12.28 7.03 16.97 10.83 7.03 16.97 7.03 12.28-2.34 16.97-7.03l101.82-101.82c.56-.56 1.1-1.15 1.6-1.77.04-.05.08-.11.13-.16.45-.56.88-1.14 1.28-1.74l.17-.26q.555-.855 1.05-1.77c.05-.09.09-.19.14-.28.31-.61.6-1.23.87-1.87l.09-.24c.26-.65.49-1.31.7-1.99.02-.06.03-.12.05-.18.2-.69.37-1.38.51-2.09 0-.05.02-.09.03-.14.13-.71.24-1.43.31-2.15v-.12c.07-.73.11-1.47.11-2.21s-.04-1.48-.11-2.21v-.12Z"/></svg>