<svg xmlns="http://www.w3.org/2000/svg" viewBox="0 0 864 864"><path d="m471.49 237.96 49.6-49.6c3.51-3.51 5.27-8.12 5.27-12.73s-1.76-9.21-5.27-12.73c-7.03-7.03-18.43-7.03-25.46 0l-71.25 71.25C318.72 238.17 234 325.36 234 431.99s88.82 198 198 198 198-88.82 198-198c0-95.66-68.19-175.68-158.51-194.04ZM432 594c-89.33 0-162-72.67-162-162s68.76-158 154.72-161.83l70.92 70.92c3.51 3.51 8.12 5.27 12.73 5.27s9.21-1.76 12.73-5.27 5.27-8.12 5.27-12.73-1.76-9.21-5.27-12.73l-37.07-37.07c63.89 21.72 109.98 82.29 109.98 153.43 0 89.33-72.67 162-162 162Z"/></svg>