<svg xmlns="http://www.w3.org/2000/svg" viewBox="0 0 864 864"><path d="m408 470.06-60.85-60.85c-9.37-9.37-24.57-9.37-33.94 0-4.69 4.69-7.03 10.83-7.03 16.97s2.34 12.28 7.03 16.97l101.82 101.82c.56.56 1.15 1.1 1.77 1.6.05.04.11.08.16.13.56.45 1.14.88 1.74 1.28.08.06.17.11.26.16q.87.555 1.77 1.05c.09.05.18.09.28.14.61.31 1.23.6 1.87.87.08.03.16.06.23.09.65.26 1.31.49 1.99.7.06.02.12.03.17.05.69.2 1.38.37 2.09.51.05 0 .09.02.14.03.71.13 1.43.24 2.16.31h.12c.73.07 1.47.11 2.21.11s1.48-.04 2.21-.11h.12c.73-.07 1.45-.18 2.16-.31.05 0 .09-.02.14-.03a24 24 0 0 0 2.09-.51c.06-.02.12-.03.17-.05.68-.2 1.34-.44 1.99-.7a21 21 0 0 0 2.1-.96c.09-.05.18-.09.28-.14q.915-.48 1.77-1.05c.09-.06.17-.11.26-.16.6-.4 1.18-.83 1.74-1.28.05-.04.11-.08.16-.13.62-.5 1.21-1.04 1.77-1.6l101.82-101.82c4.69-4.69 7.03-10.83 7.03-16.97s-2.34-12.28-7.03-16.97c-9.37-9.37-24.57-9.37-33.94 0l-60.85 60.85V240c0-13.25-10.75-24-24-24s-24 10.75-24 24v230.06ZM648 600H216c-13.25 0-24 10.75-24 24s10.75 24 24 24h432c13.25 0 24-10.75 24-24s-10.75-24-24-24"/></svg>