<svg xmlns="http://www.w3.org/2000/svg" viewBox="0 0 864 864"><path d="M528 408H297.94l60.85-60.85c4.69-4.69 7.03-10.83 7.03-16.97s-2.34-12.28-7.03-16.97c-9.37-9.37-24.57-9.37-33.94 0L223.03 415.03c-.56.56-1.1 1.15-1.6 1.77-.04.05-.08.11-.12.16-.45.56-.88 1.14-1.28 1.74-.06.08-.11.17-.16.26q-.555.87-1.05 1.77c-.05.09-.09.18-.14.27-.31.61-.61 1.23-.87 1.87-.03.08-.06.15-.09.23-.26.65-.49 1.31-.7 1.99-.02.06-.03.12-.05.17-.2.69-.37 1.38-.51 2.09 0 .05-.02.09-.02.14-.13.71-.24 1.43-.31 2.16v.12c-.07.73-.11 1.47-.11 2.21s.04 1.48.11 2.21v.12c.07.73.18 1.45.31 2.16 0 .05.02.09.02.14.14.71.31 1.41.51 2.09.02.06.03.12.05.17.2.68.44 1.34.7 1.99.03.08.06.15.09.23.26.64.55 1.26.87 1.87.05.09.09.18.14.27.32.61.68 1.2 1.05 1.77.06.09.11.17.16.26.4.6.83 1.18 1.28 1.74.04.05.08.11.12.16.5.62 1.04 1.21 1.6 1.77l101.82 101.82c4.69 4.69 10.83 7.03 16.97 7.03s12.28-2.34 16.97-7.03 7.03-10.83 7.03-16.97-2.34-12.28-7.03-16.97l-60.85-60.85H528c13.25 0 24-10.75 24-24s-10.75-24-24-24Zm96-216c-13.25 0-24 10.75-24 24v432c0 13.25 10.75 24 24 24s24-10.75 24-24V216c0-13.25-10.75-24-24-24"/></svg>