<svg xmlns="http://www.w3.org/2000/svg" viewBox="0 0 864 864"><path d="M489.27 630c27.97 0 50.73-22.76 50.73-50.73V475.63h-36v103.64c0 8.12-6.61 14.73-14.73 14.73H194.73c-8.12 0-14.73-6.61-14.73-14.73V284.73c0-8.12 6.61-14.73 14.73-14.73h294.54c8.12 0 14.73 6.61 14.73 14.73v103.64h36V284.73c0-27.97-22.76-50.73-50.73-50.73H194.73c-27.97 0-50.73 22.76-50.73 50.73v294.54c0 27.97 22.76 50.73 50.73 50.73z"/><path d="M696 414H391.46l71.1-71.1c3.51-3.51 5.27-8.12 5.27-12.73s-1.76-9.21-5.27-12.73c-7.03-7.03-18.43-7.03-25.46 0L335.29 419.25c-.42.42-.83.87-1.21 1.33-.15.19-.28.38-.43.57-.21.28-.42.55-.62.84-.16.24-.3.49-.45.74-.15.26-.31.51-.45.77s-.25.52-.38.78c-.13.27-.26.53-.38.81-.11.26-.19.52-.29.78-.11.29-.22.58-.31.88-.08.26-.14.53-.21.8-.08.3-.16.6-.22.91s-.1.63-.14.94c-.04.27-.09.53-.12.8a17.5 17.5 0 0 0 0 3.56c.03.27.08.53.12.8.05.31.08.63.14.94s.15.61.22.91c.07.27.12.53.2.8.09.3.2.59.31.88.09.26.18.52.29.78.11.28.25.54.38.81.12.26.24.53.38.78.14.26.3.52.46.77.15.25.29.5.45.74.19.29.41.56.62.84.14.19.28.39.43.57.38.46.78.91 1.21 1.33L437.1 546.52c3.51 3.51 8.12 5.27 12.73 5.27s9.21-1.76 12.73-5.27 5.27-8.12 5.27-12.73-1.76-9.21-5.27-12.73l-71.1-71.1H696c9.94 0 18-8.06 18-18s-8.06-18-18-18Z"/></svg>