<svg xmlns="http://www.w3.org/2000/svg" viewBox="0 0 864 864"><path d="M221.44 621.01c.07.73.18 1.45.31 2.16 0 .05.02.09.02.14q.21 1.065.51 2.1c.02.06.03.11.05.17.2.68.44 1.34.7 2 .03.08.06.15.09.23.26.64.56 1.27.87 1.88.05.09.09.18.14.27.32.61.68 1.2 1.05 1.78.05.08.1.17.16.25.4.6.83 1.19 1.29 1.75l.12.15c.51.62 1.04 1.21 1.61 1.78.56.56 1.16 1.1 1.78 1.61l.15.12c.56.45 1.15.88 1.75 1.29.08.05.17.11.25.16.58.38 1.17.73 1.78 1.05.09.05.18.09.27.14.61.32 1.24.61 1.88.87.07.03.15.06.22.09.65.26 1.32.5 2 .7.06.02.11.03.17.05q1.035.3 2.1.51c.05 0 .09.02.14.02.71.13 1.43.24 2.16.31h.12c.73.07 1.47.11 2.22.11h360c13.25 0 24-10.75 24-24s-10.75-24-24-24H303.29l332.38-332.38c4.69-4.69 7.03-10.83 7.03-16.97s-2.34-12.28-7.03-16.97c-9.37-9.37-24.57-9.37-33.94 0L269.35 560.76V258.7c0-13.25-10.75-24-24-24s-24 10.75-24 24v360c0 .75.04 1.49.11 2.22v.12Z"/></svg>