<svg xmlns="http://www.w3.org/2000/svg" viewBox="0 0 864 864"><path d="M476.96 308.96c0-13.25-10.75-24-24-24h-144c-.75 0-1.5.04-2.23.11h-.1c-.74.07-1.46.18-2.18.31-.04 0-.08.01-.12.02-.72.14-1.42.31-2.11.52a1 1 0 0 1-.16.04c-.68.2-1.35.44-2.01.7-.07.03-.15.06-.22.09-.64.26-1.27.56-1.88.87-.09.05-.18.09-.26.13-.61.33-1.2.68-1.78 1.05-.08.05-.17.11-.25.16-.6.4-1.18.83-1.75 1.28-.05.04-.1.08-.16.12-.62.5-1.21 1.04-1.77 1.6s-1.1 1.15-1.6 1.77c-.04.05-.08.11-.13.16-.45.56-.88 1.14-1.28 1.74-.06.08-.11.17-.17.26q-.555.87-1.05 1.77c-.05.09-.09.18-.14.28-.31.61-.6 1.23-.87 1.87-.03.08-.06.16-.09.23-.26.65-.49 1.31-.7 1.99-.02.06-.03.12-.05.17-.2.69-.37 1.38-.51 2.09 0 .05-.02.09-.03.14-.13.71-.24 1.43-.31 2.16v.12c-.07.73-.11 1.47-.11 2.21v144c0 13.25 10.75 24 24 24s24-10.75 24-24v-86.06l205.1 205.1c4.69 4.69 10.83 7.03 16.97 7.03s12.29-2.34 16.97-7.03 7.03-10.83 7.03-16.97-2.34-12.28-7.03-16.97l-205.1-205.1h86.06c13.25 0 24-10.75 24-24Z"/></svg>