<svg xmlns="http://www.w3.org/2000/svg" viewBox="0 0 864 864"><path d="M660.07 545.93v-288c0-29.78-24.22-54-54-54h-288c-29.78 0-54 24.22-54 54v216h36v-216c0-9.92 8.07-18 18-18h288c9.93 0 18 8.08 18 18v288c0 9.92-8.07 18-18 18h-216v36h216c29.78 0 54-24.22 54-54"/><path d="M216 486c-9.94 0-18 8.06-18 18v144c0 .59.03 1.19.09 1.78.03.27.08.53.11.79.05.32.08.63.14.95.06.3.14.6.22.9.07.27.13.54.21.81.09.29.2.58.3.86.1.27.18.54.29.8.11.27.24.53.37.79.13.27.25.54.39.81.14.25.29.49.44.74.15.26.3.52.47.77.18.27.39.53.58.79.16.21.3.42.46.62.75.92 1.6 1.76 2.51 2.51.2.16.41.31.61.46.27.2.53.4.8.59.25.17.51.31.76.46s.49.3.75.44.53.26.8.39c.26.12.52.26.8.37.26.11.53.19.79.29.29.1.57.22.87.3.27.08.54.14.8.21.3.08.6.16.9.22.31.06.63.1.94.14.27.04.53.09.8.12.59.06 1.18.09 1.78.09h144c9.94 0 18-8.06 18-18s-8.06-18-18-18H259.44l215.35-215.35c3.51-3.51 5.27-8.12 5.27-12.73s-1.76-9.21-5.27-12.73c-7.03-7.03-18.43-7.03-25.46 0L233.98 604.54V504c0-9.94-8.06-18-18-18Z"/></svg>