<svg xmlns="http://www.w3.org/2000/svg" viewBox="0 0 864 864"><path d="M660.07 606.07v-288c0-29.78-24.22-54-54-54h-216v36h216c9.93 0 18 8.08 18 18v288c0 9.92-8.07 18-18 18h-288c-9.93 0-18-8.08-18-18v-216h-36v216c0 29.78 24.22 54 54 54h288c29.78 0 54-24.22 54-54"/><path d="M378 216c0-9.94-8.06-18-18-18H215.82c-.53 0-1.06.03-1.59.08-.29.03-.57.08-.85.12-.3.04-.59.08-.89.14-.32.06-.62.15-.93.23-.26.07-.52.12-.77.2-.3.09-.59.2-.89.31-.26.09-.52.18-.77.28-.28.11-.54.25-.81.38-.26.12-.53.24-.79.38s-.5.29-.75.44-.51.29-.76.46c-.28.19-.54.39-.8.59-.2.15-.41.29-.61.46-.92.75-1.76 1.6-2.52 2.51-.17.2-.31.41-.46.62-.2.26-.4.52-.58.79-.17.25-.31.51-.47.77-.15.25-.3.48-.44.74-.14.27-.26.54-.39.81-.12.26-.25.52-.37.79-.11.26-.2.53-.29.8-.1.29-.21.57-.3.86-.08.27-.14.54-.21.81-.08.3-.16.59-.22.9s-.1.63-.14.95c-.04.27-.09.53-.11.79-.06.59-.09 1.18-.09 1.78v144c0 9.94 8.06 18 18 18s18-8.06 18-18V259.45L449.37 474.8c3.51 3.51 8.12 5.27 12.73 5.27s9.21-1.76 12.73-5.27 5.27-8.12 5.27-12.73-1.76-9.21-5.27-12.73L259.48 233.99h100.54c9.94 0 18-8.06 18-18Z"/></svg>