<svg xmlns="http://www.w3.org/2000/svg" viewBox="0 0 864 864"><path d="M432 144c-159.06 0-288 128.94-288 288s128.94 288 288 288 288-128.94 288-288-128.94-288-288-288m252 288c0 34.04-6.66 67.03-19.79 98.08-12.69 30-30.87 56.96-54.02 80.11-23.15 23.16-50.11 41.33-80.11 54.02C499.04 677.34 466.04 684 432 684s-67.03-6.66-98.08-19.79c-30-12.69-56.96-30.87-80.11-54.02s-41.33-50.11-54.02-80.11C186.66 499.04 180 466.04 180 432s6.66-67.03 19.79-98.08c12.69-30 30.87-56.96 54.02-80.11s50.11-41.33 80.11-54.02C364.96 186.66 397.96 180 432 180s67.03 6.66 98.08 19.79c30 12.69 56.96 30.87 80.11 54.02s41.33 50.11 54.02 80.11C677.34 364.96 684 397.96 684 432"/><path d="M533.82 365.82c-13.25 0-24 10.75-24 24v86.06L347.14 313.2c-9.37-9.37-24.57-9.37-33.94 0-4.69 4.69-7.03 10.83-7.03 16.97s2.34 12.28 7.03 16.97l162.68 162.68h-86.06c-13.25 0-24 10.75-24 24s10.75 24 24 24h144c.75 0 1.49-.04 2.22-.11h.12c.73-.07 1.45-.18 2.16-.31.05 0 .09-.02.14-.02q1.065-.21 2.1-.51c.06-.02.11-.03.17-.05.68-.2 1.34-.44 2-.7.08-.03.15-.06.23-.09.64-.26 1.27-.56 1.88-.87.09-.05.18-.09.27-.14.61-.32 1.2-.68 1.78-1.05.08-.05.17-.11.25-.16.6-.4 1.18-.83 1.75-1.28.05-.04.11-.08.16-.12.62-.5 1.21-1.04 1.77-1.6s1.1-1.15 1.6-1.77c.04-.05.08-.1.12-.16.45-.56.88-1.14 1.28-1.75.06-.08.11-.17.16-.25.37-.58.73-1.17 1.05-1.78.05-.09.09-.18.14-.27.32-.61.61-1.24.87-1.88.03-.08.06-.15.09-.23.26-.65.49-1.32.7-2 .02-.06.03-.11.05-.17q.3-1.035.51-2.1c0-.05.02-.09.02-.14.13-.71.24-1.43.31-2.16v-.12c.07-.73.11-1.47.11-2.22v-144c0-13.25-10.75-24-24-24Z"/></svg>