<svg xmlns="http://www.w3.org/2000/svg" viewBox="0 0 864 864"><path d="M560.73 594.68h-86.06c-13.25 0-24 10.75-24 24s10.75 24 24 24h144c.75 0 1.49-.04 2.22-.11h.12c.73-.07 1.45-.18 2.16-.31.04 0 .09-.01.13-.02q1.065-.21 2.1-.51c.05-.02.11-.03.16-.05.68-.2 1.35-.44 2-.7.07-.03.15-.06.22-.09.64-.26 1.27-.56 1.88-.87.09-.05.18-.09.27-.14.61-.32 1.2-.68 1.78-1.05.08-.05.17-.11.25-.16.6-.4 1.18-.83 1.75-1.28.05-.04.11-.08.16-.12.62-.5 1.21-1.04 1.77-1.6s1.1-1.15 1.6-1.77c.04-.05.08-.11.13-.16.45-.56.88-1.14 1.28-1.74l.17-.26q.555-.855 1.05-1.77c.05-.09.09-.18.14-.28.31-.61.6-1.23.87-1.87.03-.08.06-.16.09-.23.26-.65.49-1.31.7-1.99.02-.06.03-.12.05-.17.2-.69.37-1.38.51-2.09 0-.05.02-.09.03-.14.13-.71.24-1.43.31-2.16v-.12c.07-.73.11-1.47.11-2.21v-144c0-13.25-10.75-24-24-24s-24 10.75-24 24v86.06L262.29 228.35c-9.37-9.37-24.57-9.37-33.94 0-4.69 4.69-7.03 10.83-7.03 16.97s2.34 12.28 7.03 16.97l332.38 332.38Z"/></svg>