<svg xmlns="http://www.w3.org/2000/svg" viewBox="0 0 864 864"><path d="M480.18 533.82c0 6.14 2.34 12.28 7.03 16.97s10.83 7.03 16.97 7.03 12.28-2.34 16.97-7.03l101.82-101.82c.56-.56 1.1-1.15 1.6-1.77.04-.05.08-.11.12-.16.45-.56.88-1.14 1.28-1.74.06-.08.11-.17.16-.26q.555-.87 1.05-1.77c.05-.09.09-.18.14-.27.31-.61.61-1.23.87-1.87.03-.08.06-.16.09-.23.26-.65.49-1.31.7-1.99.02-.06.03-.12.05-.17.2-.69.37-1.38.51-2.09 0-.05.02-.09.02-.14.13-.71.24-1.43.31-2.16v-.12c.07-.73.11-1.47.11-2.21s-.04-1.48-.11-2.21v-.12c-.07-.73-.18-1.45-.31-2.16 0-.05-.02-.09-.02-.14a24 24 0 0 0-.51-2.09c-.02-.06-.03-.12-.05-.17a22 22 0 0 0-.7-1.99 21 21 0 0 0-.96-2.1c-.05-.09-.09-.18-.14-.27-.32-.61-.68-1.2-1.05-1.77-.06-.09-.11-.17-.16-.26-.4-.6-.83-1.18-1.28-1.74-.04-.05-.08-.11-.12-.16-.5-.62-1.04-1.21-1.6-1.77L521.15 313.25c-9.37-9.37-24.57-9.37-33.94 0-4.69 4.69-7.03 10.83-7.03 16.97s2.34 12.28 7.03 16.97l60.85 60.85h-70.12l-94.79-94.79c-9.37-9.37-24.57-9.37-33.94 0-4.69 4.69-7.03 10.83-7.03 16.97s2.34 12.28 7.03 16.97l60.85 60.85H258c-13.25 0-24 10.75-24 24s10.75 24 24 24h152.06l-60.85 60.85c-4.69 4.69-7.03 10.83-7.03 16.97s2.34 12.28 7.03 16.97 10.83 7.03 16.97 7.03 12.28-2.34 16.97-7.03l94.79-94.79h70.12l-60.85 60.85a23.92 23.92 0 0 0-7.03 16.97Z"/></svg>