<svg xmlns="http://www.w3.org/2000/svg" viewBox="0 0 864 864"><path d="M432 552c13.25 0 24-10.75 24-24V297.94l60.85 60.85c4.69 4.69 10.83 7.03 16.97 7.03s12.28-2.34 16.97-7.03 7.03-10.83 7.03-16.97-2.34-12.28-7.03-16.97L448.97 223.03c-.56-.56-1.16-1.1-1.77-1.6-.05-.04-.11-.08-.16-.13-.56-.45-1.14-.88-1.73-1.27-.09-.06-.18-.12-.27-.17-.57-.37-1.15-.72-1.76-1.04l-.3-.15c-.6-.31-1.21-.6-1.84-.86-.09-.04-.18-.07-.26-.1-.64-.25-1.29-.48-1.96-.68l-.21-.06c-.67-.2-1.36-.36-2.05-.5l-.19-.03c-.69-.13-1.39-.23-2.11-.3-.06 0-.12 0-.18-.01-.7-.06-1.4-.1-2.12-.1h-.11c-.71 0-1.42.04-2.12.1-.06 0-.12 0-.18.01-.71.07-1.41.17-2.11.3l-.19.03c-.7.14-1.38.31-2.05.5l-.21.06c-.67.2-1.32.43-1.96.68-.09.03-.18.07-.26.1-.63.26-1.24.55-1.84.86l-.3.15c-.6.32-1.19.67-1.76 1.04-.09.06-.18.11-.27.17-.6.4-1.17.83-1.73 1.27-.05.04-.11.08-.17.13-.62.5-1.21 1.04-1.77 1.6L313.21 324.85c-4.69 4.69-7.03 10.83-7.03 16.97s2.34 12.28 7.03 16.97 10.83 7.03 16.97 7.03 12.28-2.34 16.97-7.03L408 297.94V528c0 13.25 10.75 24 24 24m216 48H216c-13.25 0-24 10.75-24 24s10.75 24 24 24h432c13.25 0 24-10.75 24-24s-10.75-24-24-24"/></svg>