<svg xmlns="http://www.w3.org/2000/svg" viewBox="0 0 864 864"><path d="M624.7 447.04c.45-.56.88-1.14 1.28-1.75.06-.08.11-.17.16-.25.37-.58.73-1.17 1.05-1.78.05-.09.09-.18.14-.27.32-.61.61-1.23.87-1.87.03-.08.06-.15.09-.23.26-.65.49-1.32.7-1.99.02-.06.03-.11.05-.17.2-.69.37-1.38.51-2.09 0-.05.02-.09.02-.14.13-.71.24-1.43.31-2.16v-.12c.07-.73.11-1.47.11-2.22s-.04-1.49-.11-2.22v-.12c-.07-.73-.18-1.45-.31-2.16 0-.05-.02-.09-.02-.14a24 24 0 0 0-.51-2.09c-.02-.06-.03-.11-.05-.17a22 22 0 0 0-.7-1.99c-.03-.08-.06-.15-.09-.23-.26-.64-.55-1.26-.87-1.87-.05-.09-.09-.18-.14-.27-.32-.61-.68-1.2-1.05-1.78-.05-.08-.11-.17-.16-.25-.4-.6-.83-1.18-1.28-1.75-.04-.05-.08-.11-.12-.16-.5-.62-1.04-1.21-1.6-1.77s-1.15-1.1-1.77-1.6c-.05-.04-.11-.08-.16-.13-.56-.45-1.14-.88-1.74-1.28l-.26-.17c-.57-.37-1.16-.72-1.77-1.04-.09-.05-.19-.1-.28-.14-.61-.31-1.23-.6-1.86-.86-.08-.03-.16-.06-.24-.1q-.975-.39-1.98-.69c-.06-.02-.12-.04-.19-.05-.68-.2-1.37-.37-2.08-.51l-.16-.03c-.7-.13-1.41-.24-2.14-.31-.05 0-.1 0-.14-.01-.72-.07-1.44-.1-2.18-.1H258.01c-13.25 0-24 10.75-24 24s10.75 24 24 24h290.06l-60.85 60.85c-4.69 4.69-7.03 10.83-7.03 16.97s2.34 12.28 7.03 16.97 10.83 7.03 16.97 7.03 12.28-2.34 16.97-7.03l101.82-101.82c.56-.56 1.1-1.15 1.6-1.77.04-.05.08-.11.12-.16Z"/></svg>