<svg xmlns="http://www.w3.org/2000/svg" viewBox="0 0 864 864"><path d="M719.93 397.91c-2.79-138.73-115.12-251.06-253.85-253.85-1.76-.04-3.52-.07-5.28-.07h-14.4v273.6H720v-14.4c0-1.77-.03-3.53-.07-5.29ZM486.16 174.19c5.97.66 11.85 1.59 17.67 2.69l-28.63 28.63v-32.27c3.68.23 7.33.55 10.96.95m49.85 11.25c4.98 1.72 9.86 3.64 14.67 5.68 4.72 2.01 9.36 4.14 13.91 6.45l-89.4 89.4v-40.72L536 185.44ZM475.2 327.71l115-115c4.02 2.74 7.95 5.59 11.78 8.57 3.81 2.96 7.5 6.05 11.11 9.24l-137.9 137.9V327.7Zm20.36 61.09 137.9-137.9c3.19 3.61 6.28 7.31 9.24 11.11 2.98 3.83 5.83 7.77 8.57 11.78l-115 115h-40.72Zm81.47 0 89.4-89.4c2.31 4.55 4.44 9.2 6.45 13.91 2.05 4.82 3.96 9.7 5.68 14.67l-60.81 60.81h-40.72Zm81.45 0 28.63-28.63c1.1 5.82 2.04 11.7 2.69 17.67.4 3.63.72 7.28.95 10.96z"/><path d="M417.6 201.6h-14.4C260.28 201.6 144 317.88 144 460.8S260.27 720 403.2 720s259.2-116.27 259.2-259.2v-14.4H417.6zm215.56 273.6c-7.46 120.36-107.75 216-229.96 216S172.8 587.84 172.8 460.8s95.64-222.49 216-229.96V475.2z"/></svg>