<svg xmlns="http://www.w3.org/2000/svg" width="16" height="16" fill="currentColor" class="igl igl-email" viewBox="0 0 16 16">
  <path d="m16.16 18.45-4.54-4.54 7.01-11.09zM8 11.72v6.05L17.08 3.4zm8.32-8.98L2.1 10.22l5.24.75zM19.79.09s-.07-.04-.1-.05a.526.526 0 0 0-.39 0c-.01 0-.03 0-.04.02l-18.99 10c-.19.1-.3.31-.26.53a.5.5 0 0 0 .42.4l6.57.94v7.57c0 .28.22.5.5.5.18 0 .34-.1.43-.24l3.15-4.98 5.07 5.07c.13.14.33.18.51.13.18-.06.31-.22.34-.4L19.99.59a.524.524 0 0 0-.16-.47c-.01 0-.03-.02-.04-.03" class="b"/>
</svg>