<svg xmlns="http://www.w3.org/2000/svg" viewBox="0 0 864 864"><path d="M223.92 665.23q10.98-3.6 17.1-12.33t6.12-20.97q0-11.34-4.77-19.98t-13.5-13.32-20.25-4.68h-51.48q-.9 0-1.53.63c-.63.63-.63.93-.63 1.53v121.68q0 .9.63 1.53t1.53.63h21.06q.9 0 1.53-.63c.63-.63.63-.93.63-1.53v-49.14q0-.9.9-.9H198q.72 0 1.08.72l22.5 49.86q.72 1.62 2.52 1.62h22.14q1.98 0 1.98-1.44 0-.36-.36-1.08l-24.48-50.94q-.36-.9.54-1.26m-6.75-21.42q-4.77 4.5-12.33 4.5h-23.58q-.9 0-.9-.9v-30.78q0-.9.9-.9h23.58q7.56 0 12.33 4.59t4.77 11.79c0 7.2-1.59 8.7-4.77 11.7m69.75 76.14q1.8 0 2.34-1.8l5.22-17.64q.36-.72.9-.72h44.28q.54 0 .9.72l5.4 17.64q.54 1.8 2.34 1.8h22.86q1.98 0 1.98-1.62 0-.54-.18-.9l-38.88-121.68q-.54-1.8-2.34-1.8h-28.26q-1.8 0-2.34 1.8l-38.88 121.68q-.36 1.26.18 1.89t1.62.63zm14.04-40.86 15.84-53.46q.18-.54.54-.63t.54.63l16.2 53.46q.36 1.08-.72 1.08h-31.68q-.9 0-.72-1.08m112.5 40.86h19.98q1.98 0 2.34-1.98l17.1-77.76q.18-.72.54-.72c.36 0 .42.24.54.72l18.36 77.94q.54 1.8 2.34 1.8h21.42q1.98 0 2.52-1.8l29.52-121.86q.54-2.34-1.98-2.34H504.9q-1.8 0-2.34 1.98L486 669.01q-.18.72-.54.63t-.54-.63l-18-73.26q-.54-1.8-2.52-1.8h-21.78q-1.8 0-2.34 1.98l-16.56 73.08q-.18.72-.54.72c-.36 0-.42-.24-.54-.72l-17.1-73.26q-.54-1.8-2.34-1.8h-22.32q-1.98 0-1.98 1.62l.18.72 31.86 121.86q.54 1.8 2.52 1.8m234.49-456.96c0-.1-.02-.21-.03-.31-.03-.32-.08-.63-.14-.94 0-.04-.01-.07-.02-.11-.07-.35-.16-.69-.26-1.03l-.09-.27c-.08-.26-.17-.51-.27-.76-.04-.09-.07-.18-.11-.27-.13-.31-.27-.61-.43-.91 0-.01-.01-.03-.02-.04-.17-.31-.35-.62-.55-.92-.05-.08-.11-.15-.16-.23-.15-.22-.31-.44-.48-.65-.07-.08-.13-.17-.2-.25-.19-.23-.39-.45-.6-.67-.04-.04-.07-.08-.1-.11l-108-108c-2.25-2.25-5.3-3.51-8.49-3.51H228c-6.63 0-12 5.37-12 12v420h24V168h274.55v96c0 6.63 5.37 12 12 12H624v300h24V263.82c0-.28-.02-.56-.04-.83ZM538.55 252v-67.3l68.2 67.3z"/></svg>