<svg xmlns="http://www.w3.org/2000/svg" viewBox="0 0 864 864"><path d="M235.26 593.95h-83.34q-.9 0-1.53.63c-.63.63-.63.93-.63 1.53v17.46q0 .9.63 1.53t1.53.63h56.16q.54 0 .81.36t-.09.72l-58.14 78.84q-.9 1.26-.9 2.7v19.44q0 .9.63 1.53t1.53.63h83.34q.9 0 1.53-.63c.63-.63.63-.93.63-1.53v-17.46q0-.9-.63-1.53t-1.53-.63H179.1q-.54 0-.72-.36a.77.77 0 0 1 0-.72l58.14-78.84q.9-1.26.9-2.7v-19.44q0-.9-.63-1.53t-1.53-.63m43.2 0H257.4q-.9 0-1.53.63t-.63 1.53v121.68q0 .9.63 1.53t1.53.63h21.06q.9 0 1.53-.63t.63-1.53V596.11q0-.9-.63-1.53t-1.53-.63m97.02 4.68q-9-4.86-20.88-4.86h-50.76q-.9 0-1.53.63t-.63 1.53v121.86q0 .9.63 1.53t1.53.63h21.06q.9 0 1.53-.63c.63-.63.63-.93.63-1.53v-45.9q0-.9.9-.9h25.56q12.06 0 21.33-4.77t14.4-13.41c5.13-8.64 5.13-12.42 5.13-19.98s-1.65-14.49-4.95-20.43q-4.95-8.91-13.95-13.77m-11.34 47.25q-5.04 4.77-13.32 4.77h-22.86q-.9 0-.9-.9v-33.12q0-.9.9-.9h22.86q8.28 0 13.32 4.86t5.04 12.78c0 7.92-1.68 9.33-5.04 12.51m283.81-382.89c0-.1-.02-.21-.03-.31-.03-.31-.08-.63-.14-.94 0-.04-.01-.08-.02-.12-.07-.34-.16-.69-.26-1.02l-.09-.27c-.08-.26-.17-.51-.27-.76-.04-.09-.07-.18-.11-.27-.13-.31-.27-.62-.43-.92 0-.01-.01-.03-.02-.04-.17-.32-.35-.62-.55-.92-.05-.08-.1-.15-.15-.22-.15-.22-.32-.44-.49-.66-.06-.08-.13-.16-.19-.24-.2-.23-.4-.46-.62-.68-.03-.03-.06-.07-.09-.1l-108-108c-2.25-2.25-5.3-3.51-8.49-3.51H228c-6.63 0-12 5.37-12 12v420h24V168h274.55v96c0 6.63 5.37 12 12 12H624v300h24V263.82c0-.28-.02-.56-.04-.83ZM538.55 252v-67.3l68.2 67.3z"/></svg>