<svg xmlns="http://www.w3.org/2000/svg" viewBox="0 0 864 864"><path d="M234.72 705.1q8.64-11.07 8.64-27.09v-40.32q0-13.5-5.76-23.76t-16.2-15.84-24.12-5.58c-13.68 0-16.98 1.89-23.94 5.67q-10.44 5.67-16.2 15.84t-5.76 23.67v40.32q0 16.02 8.82 27.18t23.94 14.76q.72.18.72.9v14.58q0 .9.63 1.53c.63.63.93.63 1.53.63h21.06q.9 0 1.53-.63t.63-1.53v-14.76q0-.72.72-.9 15.12-3.6 23.76-14.67m-16.74-27.63q0 9.9-5.67 16.02t-15.03 6.12c-9.36 0-11.07-2.04-14.85-6.12q-5.67-6.12-5.67-16.02v-41.04q0-9.9 5.67-16.02t14.85-6.12c9.18 0 11.25 2.04 15.03 6.12q5.67 6.12 5.67 16.02zm109.71-41.49q.63.63 1.53.63h21.06q.9 0 1.53-.63t.63-1.53v-1.26q0-11.34-5.85-20.61t-16.38-14.67c-10.53-5.4-15.09-5.4-24.21-5.4s-17.4 1.83-24.48 5.49q-10.62 5.49-16.47 15.57t-5.85 23.22v40.32q0 13.14 5.85 23.13t16.47 15.57 24.48 5.58c13.86 0 17.37-1.77 24.39-5.31q10.53-5.31 16.29-15.39t5.76-23.76v-23.76q0-.9-.63-1.53t-1.53-.63h-43.92q-.9 0-1.53.63t-.63 1.53v16.56q0 .9.63 1.53t1.53.63h20.16q.9 0 .9.9v8.1q0 8.82-5.58 13.77t-14.94 4.95c-9.36 0-11.82-2.01-16.02-6.03q-6.3-6.03-6.3-15.75v-41.76q0-9.72 5.85-15.75t15.57-6.03c9.72 0 11.46 1.89 15.3 5.67q5.76 5.67 5.76 13.95v.54q0 .9.63 1.53m63.9 42.3q-.63-.63-1.53-.63h-20.52q-.9 0-1.53.63c-.63.63-.63.93-.63 1.53v3.96q0 11.34 5.85 19.89t16.65 13.14 25.2 4.59q21.24 0 33.66-9.81t12.42-26.73q0-11.34-5.85-18.45t-13.14-10.71-20.07-8.28q-11.52-4.14-17.01-6.57t-8.28-5.49-2.79-7.56q0-6.3 4.77-9.9t13.23-3.6q10.8 0 17.01 5.31t6.21 12.87v1.44q0 .9.63 1.53t1.53.63h20.7q.9 0 1.53-.63t.63-1.53v-2.7q0-11.52-6.03-20.25t-16.74-13.59-24.39-4.86q-12.96 0-22.86 4.32t-15.48 12.42-5.58 18.9c0 10.8 1.89 13.47 5.67 18.45q5.67 7.47 14.04 11.79t20.43 8.46q10.8 3.96 15.75 6.21t7.83 5.22 2.88 7.29q0 5.94-4.68 9.99t-14.22 4.05q-11.34 0-18-4.95t-6.66-12.15v-2.7q0-.9-.63-1.53m256.36-415.29c0-.1-.02-.21-.03-.31-.03-.31-.08-.63-.14-.94 0-.04-.01-.08-.02-.12-.07-.34-.16-.69-.26-1.02l-.09-.27c-.08-.26-.17-.51-.27-.76-.04-.09-.07-.18-.11-.27-.13-.31-.27-.62-.43-.92 0-.01-.01-.03-.02-.04-.17-.32-.35-.62-.55-.92-.05-.08-.1-.15-.15-.22-.15-.22-.32-.44-.49-.66-.06-.08-.13-.16-.19-.24-.2-.23-.4-.46-.62-.68-.03-.03-.06-.07-.09-.1l-108-108c-2.25-2.25-5.3-3.51-8.49-3.51H228c-6.63 0-12 5.37-12 12v420h24V168h274.55v96c0 6.63 5.37 12 12 12H624v300h24V263.82c0-.28-.02-.56-.04-.83ZM538.55 252v-67.3l68.2 67.3z"/></svg>