<svg xmlns="http://www.w3.org/2000/svg" viewBox="0 0 864 864"><path d="M648 576V263.82c0-.27-.02-.55-.04-.82 0-.11-.02-.21-.03-.32-.03-.31-.08-.62-.14-.92 0-.04-.01-.09-.02-.13a13 13 0 0 0-.35-1.3q-.12-.375-.27-.75c-.04-.1-.07-.19-.12-.29q-.195-.45-.42-.9c0-.02-.02-.04-.03-.06-.17-.31-.35-.62-.55-.92-.05-.08-.11-.15-.16-.23-.15-.22-.31-.44-.48-.65-.07-.08-.13-.17-.2-.25-.2-.23-.4-.46-.62-.68-.03-.03-.06-.07-.09-.1l-108-108c-2.25-2.25-5.3-3.51-8.49-3.51H228c-6.63 0-12 5.37-12 12v420h24V168h274.55v96c0 6.63 5.37 12 12 12H624v300zM538.55 252v-67.3l68.2 67.3zM246.78 684.67q0-20.52-17.1-29.34-1.08-.54 0-1.08 15.3-7.74 15.3-25.74 0-34.56-42.66-34.56h-45.18q-.9 0-1.53.63c-.63.63-.63.93-.63 1.53v121.68q0 .9.63 1.53t1.53.63h46.62q19.26 0 31.14-8.91t11.88-26.37m-66.42-68.04q0-.9.9-.9h21.06q8.46 0 13.14 4.05t4.68 11.07c0 7.02-1.56 8.16-4.68 10.8q-4.68 3.96-13.14 3.96h-21.06q-.9 0-.9-.9zm36.36 77.13q-4.68 4.23-12.96 4.23h-22.5q-.9 0-.9-.9v-29.88q0-.9.9-.9h22.32q8.46 0 13.14 4.23t4.68 11.61c0 7.38-1.56 8.79-4.68 11.61m74.61-99.18q-.63-.63-1.53-.63h-21.06q-.9 0-1.53.63c-.63.63-.63.93-.63 1.53v121.68q0 .9.63 1.53t1.53.63h82.98q.9 0 1.53-.63c.63-.63.63-.93.63-1.53v-17.46q0-.9-.63-1.53t-1.53-.63h-58.86q-.9 0-.9-.9V596.11q0-.9-.63-1.53m104.49 21.15h59.04q.9 0 1.53-.63t.63-1.53v-17.46q0-.9-.63-1.53t-1.53-.63H371.7q-.9 0-1.53.63t-.63 1.53v121.68q0 .9.63 1.53t1.53.63h83.16q.9 0 1.53-.63c.63-.63.63-.93.63-1.53v-17.46q0-.9-.63-1.53t-1.53-.63h-59.04q-.9 0-.9-.9v-29.16q0-.9.9-.9h38.7q.9 0 1.53-.63c.63-.63.63-.93.63-1.53v-17.46q0-.9-.63-1.53t-1.53-.63h-38.7q-.9 0-.9-.9v-27.9q0-.9.9-.9m104.22 25.29q.36-.09.72.45l46.62 77.04q.72 1.44 2.52 1.44h20.34q.9 0 1.53-.63t.63-1.53V596.11q0-.9-.63-1.53t-1.53-.63h-21.06q-.9 0-1.53.63c-.63.63-.63.93-.63 1.53l.18 75.6q0 .72-.36.81t-.72-.45l-46.44-76.68q-.72-1.44-2.52-1.44h-20.34q-.9 0-1.53.63t-.63 1.53v121.68q0 .9.63 1.53t1.53.63h21.06q.9 0 1.53-.63c.63-.63.63-.93.63-1.53l-.36-75.96q0-.72.36-.81m164.07-42.3q-10.17-4.77-23.67-4.77h-45q-.9 0-1.53.63t-.63 1.53v121.68q0 .9.63 1.53t1.53.63h45q13.5 0 23.67-4.77t15.75-13.41 5.58-19.98v-49.68q0-11.34-5.58-19.98t-15.75-13.41m-4.05 78.93q-.18 9.36-5.31 14.94t-13.41 5.58h-21.78q-.9 0-.9-.9v-80.64q0-.9.9-.9h21.6q8.64 0 13.77 5.58t5.13 14.94z"/></svg>