<svg xmlns="http://www.w3.org/2000/svg" viewBox="0 0 864 864"><path d="M218.97 635.44q.63.63 1.53.63h20.7q.9 0 1.53-.63t.63-1.53v-2.7q0-11.52-6.03-20.25t-16.74-13.59-24.39-4.86q-12.96 0-22.86 4.32t-15.48 12.42-5.58 18.9c0 10.8 1.89 13.47 5.67 18.45q5.67 7.47 14.04 11.79c8.37 4.32 12.39 5.7 20.43 8.46q10.8 3.96 15.75 6.21t7.83 5.22 2.88 7.29q0 5.94-4.68 9.99t-14.22 4.05q-11.34 0-18-4.95t-6.66-12.15v-2.7q0-.9-.63-1.53t-1.53-.63h-20.52q-.9 0-1.53.63c-.63.63-.63.93-.63 1.53v3.96q0 11.34 5.85 19.89t16.65 13.14 25.2 4.59q21.24 0 33.66-9.81t12.42-26.73q0-11.34-5.85-18.45t-13.14-10.71-20.07-8.28q-11.52-4.14-17.01-6.57t-8.28-5.49-2.79-7.56q0-6.3 4.77-9.9t13.23-3.6q10.8 0 17.01 5.31t6.21 12.87v1.44q0 .9.63 1.53m73.62 101.52q.63.63 1.53.63h21.06q.9 0 1.53-.63t.63-1.53v-14.76q0-.72.72-.9 15.12-3.6 23.76-14.67c8.64-11.07 8.64-16.41 8.64-27.09v-40.32q0-13.5-5.76-23.76t-16.2-15.84-24.12-5.58c-13.68 0-16.98 1.89-23.94 5.67q-10.44 5.67-16.2 15.84t-5.76 23.67v40.32q0 16.02 8.82 27.18t23.94 14.76q.72.18.72.9v14.58q0 .9.63 1.53m-3.06-43.47q-5.67-6.12-5.67-16.02v-41.04q0-9.9 5.67-16.02t14.85-6.12c9.18 0 11.25 2.04 15.03 6.12q5.67 6.12 5.67 16.02v41.04q0 9.9-5.67 16.02t-15.03 6.12c-9.36 0-11.07-2.04-14.85-6.12m104.03-98.91q-.63-.63-1.53-.63h-21.06q-.9 0-1.53.63c-.63.63-.63.93-.63 1.53v121.68q0 .9.63 1.53t1.53.63h82.98q.9 0 1.53-.63t.63-1.53v-17.46q0-.9-.63-1.53t-1.53-.63h-58.86q-.9 0-.9-.9V596.11q0-.9-.63-1.53m254.39-331.59c0-.1-.02-.21-.03-.31-.03-.32-.08-.63-.14-.94 0-.04-.01-.07-.02-.11-.07-.35-.16-.69-.26-1.03l-.09-.27c-.08-.26-.17-.51-.27-.76-.04-.09-.07-.18-.11-.27-.13-.31-.27-.61-.43-.91 0-.01-.01-.03-.02-.04-.17-.31-.35-.62-.55-.92-.05-.08-.11-.15-.16-.23-.15-.22-.31-.44-.48-.65-.07-.08-.13-.17-.2-.25-.19-.23-.39-.45-.6-.67-.04-.04-.07-.08-.1-.11l-108-108c-2.25-2.25-5.3-3.51-8.49-3.51H228c-6.63 0-12 5.37-12 12v420h24V168h274.55v96c0 6.63 5.37 12 12 12H624v300h24V263.82c0-.28-.02-.56-.04-.83ZM538.55 252v-67.3l68.2 67.3z"/></svg>