<svg xmlns="http://www.w3.org/2000/svg" viewBox="0 0 864 864"><path d="M223.38 666.49q-.36-.9.54-1.26 10.98-3.6 17.1-12.33t6.12-20.97q0-11.34-4.77-19.98t-13.5-13.32-20.25-4.68h-51.48q-.9 0-1.53.63c-.63.63-.63.93-.63 1.53v121.68q0 .9.63 1.53t1.53.63h21.06q.9 0 1.53-.63c.63-.63.63-.93.63-1.53v-49.14q0-.9.9-.9H198q.72 0 1.08.72l22.5 49.86q.72 1.62 2.52 1.62h22.14q1.98 0 1.98-1.44 0-.36-.36-1.08zm-6.21-22.68q-4.77 4.5-12.33 4.5h-23.58q-.9 0-.9-.9v-30.78q0-.9.9-.9h23.58q7.56 0 12.33 4.59t4.77 11.79c0 7.2-1.59 8.7-4.77 11.7m135.09-49.86h-90.72q-.9 0-1.53.63c-.63.63-.63.93-.63 1.53v17.64q0 .9.63 1.53t1.53.63h31.32q.9 0 .9.9v100.98q0 .9.63 1.53t1.53.63h21.06q.9 0 1.53-.63t.63-1.53V616.81q0-.9.9-.9h32.22q.9 0 1.53-.63t.63-1.53v-17.64q0-.9-.63-1.53t-1.53-.63m103.5 0h-82.98q-.9 0-1.53.63c-.63.63-.63.93-.63 1.53v121.68q0 .9.63 1.53t1.53.63h21.06q.9 0 1.53-.63t.63-1.53v-49.68q0-.9.9-.9h38.7q.9 0 1.53-.63c.63-.63.63-.93.63-1.53v-17.46q0-.9-.63-1.53t-1.53-.63h-38.7q-.9 0-.9-.9v-27.9q0-.9.9-.9h58.86q.9 0 1.53-.63t.63-1.53v-17.46q0-.9-.63-1.53t-1.53-.63m192.19-330.96c0-.1-.02-.21-.03-.31-.03-.31-.08-.63-.14-.94 0-.04-.01-.08-.02-.12-.07-.34-.16-.69-.26-1.02l-.09-.27c-.08-.26-.17-.51-.27-.76-.04-.09-.07-.18-.11-.27-.13-.31-.27-.62-.43-.92 0-.01-.01-.03-.02-.04-.17-.32-.35-.62-.55-.92-.05-.08-.1-.15-.15-.22-.15-.22-.32-.44-.49-.66-.06-.08-.13-.16-.19-.24-.2-.23-.4-.46-.62-.68-.03-.03-.06-.07-.09-.1l-108-108c-2.25-2.25-5.3-3.51-8.49-3.51H228c-6.63 0-12 5.37-12 12v420h24V168h274.55v96c0 6.63 5.37 12 12 12H624v300h24V263.82c0-.28-.02-.56-.04-.83ZM538.55 252v-67.3l68.2 67.3z"/></svg>