<svg xmlns="http://www.w3.org/2000/svg" viewBox="0 0 864 864"><circle cx="426" cy="72" r="12"/><path d="M648 576V263.82c0-.28-.02-.56-.04-.83 0-.1-.02-.21-.03-.31-.04-.32-.08-.63-.14-.94 0-.04-.01-.07-.02-.11-.07-.35-.16-.69-.26-1.03l-.09-.27c-.08-.26-.17-.51-.27-.76-.04-.09-.07-.18-.11-.27-.13-.31-.27-.61-.43-.91 0-.01-.01-.03-.02-.04-.17-.31-.35-.62-.55-.92-.05-.08-.11-.15-.16-.23-.15-.22-.31-.44-.48-.65-.07-.08-.13-.17-.2-.25-.19-.23-.39-.45-.6-.67-.04-.04-.07-.08-.1-.11l-108-108c-2.25-2.25-5.3-3.51-8.49-3.51H228c-6.63 0-12 5.37-12 12v420h24V168h274.55v96c0 6.63 5.37 12 12 12H624v300zM538.55 252v-67.3l68.2 67.3zM182.88 719.95h19.98q1.98 0 2.34-1.98l17.1-77.76q.18-.72.54-.72c.36 0 .42.24.54.72l18.36 77.94q.54 1.8 2.34 1.8h21.42q1.98 0 2.52-1.8l29.52-121.86q.54-2.34-1.98-2.34h-21.24q-1.8 0-2.34 1.98l-16.56 73.08q-.18.72-.54.63t-.54-.63l-18-73.26q-.54-1.8-2.52-1.8h-21.78q-1.8 0-2.34 1.98l-16.56 73.08q-.18.72-.54.72c-.36 0-.42-.24-.54-.72l-17.1-73.26q-.54-1.8-2.34-1.8H150.3q-1.98 0-1.98 1.62l.18.72 31.86 121.86q.54 1.8 2.52 1.8m193.77-121.77q-10.71-5.67-24.93-5.67c-14.22 0-17.61 1.89-24.75 5.67q-10.71 5.67-16.65 15.93t-5.94 23.58v38.52q0 13.5 5.94 23.85t16.65 16.11 24.75 5.76c14.04 0 17.79-1.89 24.93-5.67q10.71-5.67 16.65-16.11t5.94-23.94v-38.52q0-13.32-5.94-23.58t-16.65-15.93m-2.79 78.93q0 10.44-6.12 16.74t-16.02 6.3c-9.9 0-11.91-2.1-15.93-6.3q-6.03-6.3-6.03-16.74v-39.6q0-10.44 6.03-16.83t15.93-6.39c9.9 0 12.09 2.13 16.11 6.39q6.03 6.39 6.03 16.83zm71.1-61.38h58.86q.9 0 1.53-.63t.63-1.53v-17.46q0-.9-.63-1.53t-1.53-.63h-82.98q-.9 0-1.53.63c-.63.63-.63.93-.63 1.53v121.68q0 .9.63 1.53t1.53.63h21.06q.9 0 1.53-.63c.63-.63.63-.93.63-1.53v-49.68q0-.9.9-.9h38.7q.9 0 1.53-.63t.63-1.53v-17.46q0-.9-.63-1.53t-1.53-.63h-38.7q-.9 0-.9-.9v-27.9q0-.9.9-.9m100.8 0h58.86q.9 0 1.53-.63t.63-1.53v-17.46q0-.9-.63-1.53t-1.53-.63h-82.98q-.9 0-1.53.63t-.63 1.53v121.68q0 .9.63 1.53t1.53.63h21.06q.9 0 1.53-.63c.63-.63.63-.93.63-1.53v-49.68q0-.9.9-.9h38.7q.9 0 1.53-.63t.63-1.53v-17.46q0-.9-.63-1.53t-1.53-.63h-38.7q-.9 0-.9-.9v-27.9q0-.9.9-.9m156.33 83.07q-.63-.63-1.53-.63h-48.78q-.54 0-.72-.36t.18-.72l2.7-2.7q12.78-12.96 19.26-19.8t12.06-13.86q7.56-9.18 11.34-17.1t3.78-15.48q0-9.9-5.13-18t-14.58-12.87-22.23-4.77q-11.52 0-20.79 3.96T622.8 607.9t-6.12 17.19v8.46q0 .9.63 1.53t1.53.63h21.24q.9 0 1.53-.63c.63-.63.63-.93.63-1.53v-4.5q0-6.66 4.5-10.71t11.7-4.05c7.2 0 8.7 1.35 11.7 4.05q4.5 4.05 4.5 10.35 0 8.82-16.38 27-5.22 5.4-10.26 11.34-2.34 2.52-11.52 12.69t-18 18.81q-1.08 1.08-1.08 2.7v16.56q0 .9.63 1.53t1.53.63h81q.9 0 1.53-.63t.63-1.53v-17.46q0-.9-.63-1.53"/></svg>