<svg xmlns="http://www.w3.org/2000/svg" viewBox="0 0 864 864"><path d="M182.88 719.95h19.98q1.98 0 2.34-1.98l17.1-77.76q.18-.72.54-.72c.36 0 .42.24.54.72l18.36 77.94q.54 1.8 2.34 1.8h21.42q1.98 0 2.52-1.8l29.52-121.86q.54-2.34-1.98-2.34h-21.24q-1.8 0-2.34 1.98l-16.56 73.08q-.18.72-.54.63t-.54-.63l-18-73.26q-.54-1.8-2.52-1.8h-21.78q-1.8 0-2.34 1.98l-16.56 73.08q-.18.72-.54.72c-.36 0-.42-.24-.54-.72l-17.1-73.26q-.54-1.8-2.34-1.8H150.3q-1.98 0-1.98 1.62l.18.72 31.86 121.86q.54 1.8 2.52 1.8m155.16-104.22h59.04q.9 0 1.53-.63c.63-.63.63-.93.63-1.53v-17.46q0-.9-.63-1.53t-1.53-.63h-83.16q-.9 0-1.53.63c-.63.63-.63.93-.63 1.53v121.68q0 .9.63 1.53t1.53.63h83.16q.9 0 1.53-.63c.63-.63.63-.93.63-1.53v-17.46q0-.9-.63-1.53t-1.53-.63h-59.04q-.9 0-.9-.9v-29.16q0-.9.9-.9h38.7q.9 0 1.53-.63c.63-.63.63-.93.63-1.53v-17.46q0-.9-.63-1.53t-1.53-.63h-38.7q-.9 0-.9-.9v-27.9q0-.9.9-.9m153.54 38.52q15.3-7.74 15.3-25.74 0-34.56-42.66-34.56h-45.18q-.9 0-1.53.63t-.63 1.53v121.68q0 .9.63 1.53t1.53.63h46.62q19.26 0 31.14-8.91c11.88-8.91 11.88-14.73 11.88-26.37q0-20.52-17.1-29.34-1.08-.54 0-1.08m-49.32-37.62q0-.9.9-.9h21.06q8.46 0 13.14 4.05t4.68 11.07c0 7.02-1.56 8.16-4.68 10.8q-4.68 3.96-13.14 3.96h-21.06q-.9 0-.9-.9zm36.36 77.13q-4.68 4.23-12.96 4.23h-22.5q-.9 0-.9-.9v-29.88q0-.9.9-.9h22.32q8.46 0 13.14 4.23t4.68 11.61c0 7.38-1.56 8.79-4.68 11.61m51.12 26.19h21.06q.9 0 1.53-.63t.63-1.53v-45.9q0-.9.9-.9h25.56q12.06 0 21.33-4.77t14.4-13.41 5.13-19.98c0-11.34-1.65-14.49-4.95-20.43q-4.95-8.91-13.95-13.77t-20.88-4.86h-50.76q-.9 0-1.53.63t-.63 1.53v121.86q0 .9.63 1.53t1.53.63m23.22-103.32q0-.9.9-.9h22.86q8.28 0 13.32 4.86t5.04 12.78c0 7.92-1.68 9.33-5.04 12.51q-5.04 4.77-13.32 4.77h-22.86q-.9 0-.9-.9zm94.99-353.64c0-.1-.02-.21-.03-.31-.03-.32-.08-.63-.14-.94 0-.04-.01-.07-.02-.11-.07-.35-.16-.69-.26-1.03l-.09-.27c-.08-.26-.17-.51-.27-.76-.04-.09-.07-.18-.11-.27-.13-.31-.27-.61-.43-.91 0-.01-.01-.03-.02-.04-.17-.31-.35-.62-.55-.92-.05-.08-.11-.15-.16-.23-.15-.22-.31-.44-.48-.65-.07-.08-.13-.17-.2-.25-.19-.23-.39-.45-.6-.67-.04-.04-.07-.08-.1-.11l-108-108c-2.25-2.25-5.3-3.51-8.49-3.51H228c-6.63 0-12 5.37-12 12v420h24V168h274.55v96c0 6.63 5.37 12 12 12H624v300h24V263.82c0-.28-.02-.56-.04-.83ZM538.55 252v-67.3l68.2 67.3z"/></svg>