<svg xmlns="http://www.w3.org/2000/svg" viewBox="0 0 864 864"><path d="M648 264v-.18c0-.28-.02-.55-.04-.82 0-.11-.02-.21-.03-.31-.03-.31-.08-.62-.14-.92 0-.04-.01-.09-.02-.13-.07-.34-.16-.68-.26-1.02-.03-.09-.06-.19-.09-.28q-.12-.375-.27-.75c-.04-.1-.07-.19-.12-.29-.13-.3-.27-.6-.42-.89l-.03-.06c-.17-.31-.35-.62-.55-.92-.05-.08-.11-.16-.16-.24-.15-.22-.31-.43-.48-.64-.07-.09-.14-.17-.21-.25q-.285-.345-.6-.66c-.04-.04-.07-.08-.1-.11l-108-108c-2.25-2.25-5.3-3.51-8.49-3.51H228c-6.63 0-12 5.37-12 12v420h24V168h274.55v96c0 6.63 5.37 12 12 12H624v300h24zm-109.45-12v-67.3l68.2 67.3zM172.98 716.8q10.8 4.59 25.2 4.59 21.24 0 33.66-9.81t12.42-26.73q0-11.34-5.85-18.45t-13.14-10.71-20.07-8.28q-11.52-4.14-17.01-6.57t-8.28-5.49-2.79-7.56q0-6.3 4.77-9.9t13.23-3.6q10.8 0 17.01 5.31t6.21 12.87v1.44q0 .9.63 1.53t1.53.63h20.7q.9 0 1.53-.63c.63-.63.63-.93.63-1.53v-2.7q0-11.52-6.03-20.25t-16.74-13.59-24.39-4.86q-12.96 0-22.86 4.32t-15.48 12.42-5.58 18.9c0 10.8 1.89 13.47 5.67 18.45q5.67 7.47 14.04 11.79c8.37 4.32 12.39 5.7 20.43 8.46q10.8 3.96 15.75 6.21t7.83 5.22 2.88 7.29q0 5.94-4.68 9.99t-14.22 4.05q-11.34 0-18-4.95t-6.66-12.15v-2.7q0-.9-.63-1.53t-1.53-.63h-20.52q-.9 0-1.53.63c-.63.63-.63.93-.63 1.53v3.96q0 11.34 5.85 19.89t16.65 13.14m107.82 3.15q1.8 0 2.34-1.8l5.22-17.64q.36-.72.9-.72h44.28q.54 0 .9.72l5.4 17.64q.54 1.8 2.34 1.8h22.86q1.98 0 1.98-1.62 0-.54-.18-.9l-38.88-121.68q-.54-1.8-2.34-1.8h-28.26q-1.8 0-2.34 1.8l-38.88 121.68q-.36 1.26.18 1.89t1.62.63zm14.04-40.86 15.84-53.46q.18-.54.54-.63t.54.63l16.2 53.46q.36 1.08-.72 1.08h-31.68q-.9 0-.72-1.08m99.81-.81q-.63-.63-1.53-.63H372.6q-.9 0-1.53.63t-.63 1.53v3.96q0 11.34 5.85 19.89t16.65 13.14c10.8 4.59 15.6 4.59 25.2 4.59q21.24 0 33.66-9.81t12.42-26.73q0-11.34-5.85-18.45t-13.14-10.71-20.07-8.28q-11.52-4.14-17.01-6.57t-8.28-5.49-2.79-7.56q0-6.3 4.77-9.9t13.23-3.6q10.8 0 17.01 5.31t6.21 12.87v1.44q0 .9.63 1.53t1.53.63h20.7q.9 0 1.53-.63t.63-1.53v-2.7q0-11.52-6.03-20.25t-16.74-13.59-24.39-4.86q-12.96 0-22.86 4.32t-15.48 12.42-5.58 18.9c0 10.8 1.89 13.47 5.67 18.45q5.67 7.47 14.04 11.79t20.43 8.46q10.8 3.96 15.75 6.21t7.83 5.22 2.88 7.29q0 5.94-4.68 9.99t-14.22 4.05q-11.34 0-18-4.95t-6.66-12.15v-2.7q0-.9-.63-1.53m107.09 0q-.63-.63-1.53-.63h-20.52q-.9 0-1.53.63t-.63 1.53v3.96q0 11.34 5.85 19.89t16.65 13.14c10.8 4.59 15.6 4.59 25.2 4.59q21.24 0 33.66-9.81t12.42-26.73q0-11.34-5.85-18.45t-13.14-10.71-20.07-8.28q-11.52-4.14-17.01-6.57t-8.28-5.49-2.79-7.56q0-6.3 4.77-9.9t13.23-3.6q10.8 0 17.01 5.31t6.21 12.87v1.44q0 .9.63 1.53t1.53.63h20.7q.9 0 1.53-.63t.63-1.53v-2.7q0-11.52-6.03-20.25t-16.74-13.59-24.39-4.86q-12.96 0-22.86 4.32t-15.48 12.42-5.58 18.9c0 10.8 1.89 13.47 5.67 18.45q5.67 7.47 14.04 11.79t20.43 8.46q10.8 3.96 15.75 6.21t7.83 5.22 2.88 7.29q0 5.94-4.68 9.99t-14.22 4.05q-11.34 0-18-4.95t-6.66-12.15v-2.7q0-.9-.63-1.53"/></svg>