<svg xmlns="http://www.w3.org/2000/svg" viewBox="0 0 864 864"><path d="M241.65 652.81q5.13-8.64 5.13-19.98c0-11.34-1.65-14.49-4.95-20.43q-4.95-8.91-13.95-13.77T207 593.77h-50.76q-.9 0-1.53.63t-.63 1.53v121.86q0 .9.63 1.53t1.53.63h21.06q.9 0 1.53-.63c.63-.63.63-.93.63-1.53v-45.9q0-.9.9-.9h25.56q12.06 0 21.33-4.77t14.4-13.41m-25.11-6.93q-5.04 4.77-13.32 4.77h-22.86q-.9 0-.9-.9v-33.12q0-.9.9-.9h22.86q8.28 0 13.32 4.86t5.04 12.78c0 7.92-1.68 9.33-5.04 12.51m118.08 26.64q-.36.09-.72-.45l-46.44-76.68q-.72-1.44-2.52-1.44H264.6q-.9 0-1.53.63c-.63.63-.63.93-.63 1.53v121.68q0 .9.63 1.53t1.53.63h21.06q.9 0 1.53-.63c.63-.63.63-.93.63-1.53l-.36-75.96q0-.72.36-.81t.72.45l46.62 77.04q.72 1.44 2.52 1.44h20.34q.9 0 1.53-.63t.63-1.53V596.11q0-.9-.63-1.53t-1.53-.63h-21.06q-.9 0-1.53.63c-.63.63-.63.93-.63 1.53l.18 75.6q0 .72-.36.81m113.49-36.54q.63.63 1.53.63h21.06q.9 0 1.53-.63c.63-.63.63-.93.63-1.53v-1.26q0-11.34-5.85-20.61t-16.38-14.67-24.21-5.4c-13.68 0-17.4 1.83-24.48 5.49q-10.62 5.49-16.47 15.57t-5.85 23.22v40.32q0 13.14 5.85 23.13t16.47 15.57 24.48 5.58c13.86 0 17.37-1.77 24.39-5.31q10.53-5.31 16.29-15.39t5.76-23.76v-23.76q0-.9-.63-1.53t-1.53-.63h-43.92q-.9 0-1.53.63t-.63 1.53v16.56q0 .9.63 1.53t1.53.63h20.16q.9 0 .9.9v8.1q0 8.82-5.58 13.77t-14.94 4.95c-9.36 0-11.82-2.01-16.02-6.03q-6.3-6.03-6.3-15.75v-41.76q0-9.72 5.85-15.75t15.57-6.03c9.72 0 11.46 1.89 15.3 5.67q5.76 5.67 5.76 13.95v.54q0 .9.63 1.53m199.84-372.99c0-.1-.02-.21-.03-.31-.03-.32-.08-.63-.14-.94 0-.04-.01-.07-.02-.11-.07-.35-.16-.69-.26-1.03l-.09-.27c-.08-.26-.17-.51-.27-.76-.04-.09-.07-.18-.11-.27-.13-.31-.27-.61-.43-.91 0-.01-.01-.03-.02-.04-.17-.31-.35-.62-.55-.92-.05-.08-.11-.15-.16-.23-.15-.22-.31-.44-.48-.65-.07-.08-.13-.17-.2-.25-.19-.23-.39-.45-.6-.67-.04-.04-.07-.08-.1-.11l-108-108c-2.25-2.25-5.3-3.51-8.49-3.51H228c-6.63 0-12 5.37-12 12v420h24V168h274.55v96c0 6.63 5.37 12 12 12H624v300h24V263.82c0-.28-.02-.56-.04-.83ZM538.55 252v-67.3l68.2 67.3z"/></svg>