<svg xmlns="http://www.w3.org/2000/svg" viewBox="0 0 864 864"><path d="M178.2 593.95h-21.06q-.9 0-1.53.63c-.63.63-.63.93-.63 1.53v121.68q0 .9.63 1.53t1.53.63h21.06q.9 0 1.53-.63t.63-1.53V596.11q0-.9-.63-1.53t-1.53-.63m119.7 0h-21.06q-.9 0-1.53.63t-.63 1.53l.18 75.6q0 .72-.36.81t-.72-.45l-46.44-76.68q-.72-1.44-2.52-1.44h-20.34q-.9 0-1.53.63c-.63.63-.63.93-.63 1.53v121.68q0 .9.63 1.53t1.53.63h21.06q.9 0 1.53-.63t.63-1.53l-.36-75.96q0-.72.36-.81t.72.45l46.62 77.04q.72 1.44 2.52 1.44h20.34q.9 0 1.53-.63c.63-.63.63-.93.63-1.53V596.11q0-.9-.63-1.53t-1.53-.63m47.34 0h-21.06q-.9 0-1.53.63t-.63 1.53v121.68q0 .9.63 1.53t1.53.63h21.06q.9 0 1.53-.63c.63-.63.63-.93.63-1.53V596.11q0-.9-.63-1.53t-1.53-.63m302.71-330.96c0-.1-.02-.21-.03-.31-.03-.31-.08-.62-.14-.93 0-.04-.01-.08-.02-.12-.07-.34-.16-.68-.26-1.02-.03-.09-.06-.19-.09-.28q-.12-.375-.27-.75c-.04-.1-.07-.19-.11-.28q-.195-.45-.42-.9c0-.02-.02-.04-.03-.06-.17-.31-.35-.62-.55-.92-.05-.08-.11-.15-.16-.23-.15-.22-.31-.44-.48-.65-.07-.08-.13-.17-.2-.25-.19-.23-.4-.45-.61-.67-.03-.03-.06-.07-.1-.11l-108-108c-2.25-2.25-5.3-3.51-8.49-3.51H228c-6.63 0-12 5.37-12 12v420h24V168h274.55v96c0 6.63 5.37 12 12 12H624v300h24V263.82c0-.28-.02-.55-.04-.83ZM538.55 252v-67.3l68.2 67.3z"/></svg>