<svg xmlns="http://www.w3.org/2000/svg" viewBox="0 0 864 864"><path d="M241.65 652.81q5.13-8.64 5.13-19.98c0-11.34-1.65-14.49-4.95-20.43q-4.95-8.91-13.95-13.77T207 593.77h-50.76q-.9 0-1.53.63t-.63 1.53v121.86q0 .9.63 1.53t1.53.63h21.06q.9 0 1.53-.63c.63-.63.63-.93.63-1.53v-45.9q0-.9.9-.9h25.56q12.06 0 21.33-4.77t14.4-13.41m-25.11-6.93q-5.04 4.77-13.32 4.77h-22.86q-.9 0-.9-.9v-33.12q0-.9.9-.9h22.86q8.28 0 13.32 4.86t5.04 12.78c0 7.92-1.68 9.33-5.04 12.51m68.22 74.07q.9 0 1.53-.63c.63-.63.63-.93.63-1.53v-45.9q0-.9.9-.9h25.56q12.06 0 21.33-4.77t14.4-13.41c5.13-8.64 5.13-12.42 5.13-19.98s-1.65-14.49-4.95-20.43q-4.95-8.91-13.95-13.77t-20.88-4.86H263.7q-.9 0-1.53.63t-.63 1.53v121.86q0 .9.63 1.53t1.53.63zm2.16-103.32q0-.9.9-.9h22.86q8.28 0 13.32 4.86t5.04 12.78c0 7.92-1.68 9.33-5.04 12.51q-5.04 4.77-13.32 4.77h-22.86q-.9 0-.9-.9zm112.04 102.69q.63.63 1.53.63h21.06q.9 0 1.53-.63t.63-1.53V616.81q0-.9.9-.9h32.22q.9 0 1.53-.63t.63-1.53v-17.64q0-.9-.63-1.53t-1.53-.63h-90.72q-.9 0-1.53.63t-.63 1.53v17.64q0 .9.63 1.53t1.53.63h31.32q.9 0 .9.9v100.98q0 .9.63 1.53m71.01-1.89q-.72 1.08-.18 1.8t1.8.72h22.68q1.8 0 2.7-1.44l23.58-41.04q.54-1.08 1.08 0l23.4 41.04q.9 1.44 2.7 1.44h22.68q1.98 0 1.98-1.44l-.36-1.08-34.92-59.94q-.18-.54 0-1.08l34.92-59.94q.72-1.08.18-1.8t-1.8-.72h-22.68q-1.8 0-2.7 1.44l-23.4 41.22q-.54 1.08-1.08 0l-23.4-41.22q-.9-1.44-2.7-1.44h-22.86q-1.98 0-1.98 1.44l.36 1.08 34.92 59.94q.36.54 0 1.08zm177.98-454.44c0-.1-.02-.21-.03-.31-.03-.32-.08-.63-.14-.94 0-.04-.01-.07-.02-.11-.07-.35-.16-.69-.26-1.03l-.09-.27c-.08-.26-.17-.51-.27-.76-.04-.09-.07-.18-.11-.27-.13-.31-.27-.61-.43-.91 0-.01-.01-.03-.02-.04-.17-.31-.35-.62-.55-.92-.05-.08-.11-.15-.16-.23-.15-.22-.31-.44-.48-.65-.07-.08-.13-.17-.2-.25-.19-.23-.39-.45-.6-.67-.04-.04-.07-.08-.1-.11l-108-108c-2.25-2.25-5.3-3.51-8.49-3.51H228c-6.63 0-12 5.37-12 12v420h24V168h274.55v96c0 6.63 5.37 12 12 12H624v300h24V263.82c0-.28-.02-.56-.04-.83ZM538.55 252v-67.3l68.2 67.3z"/></svg>