<svg xmlns="http://www.w3.org/2000/svg" viewBox="0 0 864 864"><path d="M186.66 670.99q.18.36.18 1.08v45.54q0 .9.63 1.53t1.53.63h20.88q.9 0 1.53-.63c.63-.63.63-.93.63-1.53v-45.54q0-.72.18-1.08l37.44-74.52q.54-1.26.09-1.89t-1.71-.63H225q-1.8 0-2.52 1.62l-22.5 47.88q-.54 1.08-1.08 0l-22.5-47.88q-.72-1.62-2.52-1.62H151.2q-1.98 0-1.98 1.44 0 .36.36 1.08zm161.37 48.33q.63.63 1.53.63h21.06q.9 0 1.53-.63t.63-1.53V596.11q0-.9-.63-1.53t-1.53-.63h-21.06q-1.62 0-2.52 1.44l-27.18 41.94q-.54 1.08-1.08 0l-27-41.94q-.9-1.44-2.52-1.44H268.2q-.9 0-1.53.63c-.63.63-.63.93-.63 1.53v121.68q0 .9.63 1.53t1.53.63h21.06q.9 0 1.53-.63c.63-.63.63-.93.63-1.53v-79.2q0-.72.36-.81t.72.45l19.08 29.88q.9 1.44 2.52 1.44h10.62q1.62 0 2.52-1.44l19.08-29.88q.36-.54.72-.54c.36 0 .36.24.36.72v79.38q0 .9.63 1.53m71.46-124.74q-.63-.63-1.53-.63H396.9q-.9 0-1.53.63t-.63 1.53v121.68q0 .9.63 1.53t1.53.63h82.98q.9 0 1.53-.63c.63-.63.63-.93.63-1.53v-17.46q0-.9-.63-1.53t-1.53-.63h-58.86q-.9 0-.9-.9V596.11q0-.9-.63-1.53m228.46-331.59c0-.11-.02-.21-.03-.31-.03-.31-.08-.62-.14-.92 0-.04-.01-.09-.02-.13-.07-.34-.16-.68-.26-1.02-.03-.09-.06-.19-.09-.28q-.12-.375-.27-.75c-.04-.1-.07-.19-.12-.29-.13-.3-.27-.6-.42-.89l-.03-.06c-.17-.31-.35-.62-.55-.92-.05-.08-.11-.16-.16-.24-.15-.22-.31-.43-.48-.64-.07-.09-.14-.17-.21-.26q-.285-.345-.6-.66c-.04-.04-.07-.08-.1-.11l-108-108c-2.25-2.25-5.3-3.51-8.49-3.51H228c-6.63 0-12 5.37-12 12v420h24V168h274.55v96c0 6.63 5.37 12 12 12H624v300h24V263.82c0-.28-.02-.55-.04-.82ZM538.55 252v-67.3l68.2 67.3z"/></svg>