<svg xmlns="http://www.w3.org/2000/svg" viewBox="0 0 864 864"><path d="M222.57 719.32q.63.63 1.53.63h21.06q.9 0 1.53-.63t.63-1.53V596.11q0-.9-.63-1.53t-1.53-.63H224.1q-.9 0-1.53.63c-.63.63-.63.93-.63 1.53v48.42q0 .9-.9.9h-39.78q-.9 0-.9-.9v-48.42q0-.9-.63-1.53t-1.53-.63h-21.06q-.9 0-1.53.63c-.63.63-.63.93-.63 1.53v121.68q0 .9.63 1.53t1.53.63h21.06q.9 0 1.53-.63c.63-.63.63-.93.63-1.53v-49.68q0-.9.9-.9h39.78q.9 0 .9.9v49.68q0 .9.63 1.53m120.15-65.07q15.3-7.74 15.3-25.74 0-34.56-42.66-34.56h-45.18q-.9 0-1.53.63c-.63.63-.63.93-.63 1.53v121.68q0 .9.63 1.53t1.53.63h46.62q19.26 0 31.14-8.91c11.88-8.91 11.88-14.73 11.88-26.37q0-20.52-17.1-29.34-1.08-.54 0-1.08m-49.32-37.62q0-.9.9-.9h21.06q8.46 0 13.14 4.05t4.68 11.07c0 7.02-1.56 8.16-4.68 10.8q-4.68 3.96-13.14 3.96H294.3q-.9 0-.9-.9zm36.36 77.13q-4.68 4.23-12.96 4.23h-22.5q-.9 0-.9-.9v-29.88q0-.9.9-.9h22.32q8.46 0 13.14 4.23t4.68 11.61c0 7.38-1.56 8.79-4.68 11.61m69.57-15.48q-.63-.63-1.53-.63h-20.52q-.9 0-1.53.63c-.63.63-.63.93-.63 1.53v3.96q0 11.34 5.85 19.89t16.65 13.14 25.2 4.59q21.24 0 33.66-9.81t12.42-26.73q0-11.34-5.85-18.45t-13.14-10.71-20.07-8.28q-11.52-4.14-17.01-6.57t-8.28-5.49-2.79-7.56q0-6.3 4.77-9.9t13.23-3.6q10.8 0 17.01 5.31t6.21 12.87v1.44q0 .9.63 1.53t1.53.63h20.7q.9 0 1.53-.63t.63-1.53v-2.7q0-11.52-6.03-20.25t-16.74-13.59-24.39-4.86q-12.96 0-22.86 4.32t-15.48 12.42-5.58 18.9c0 10.8 1.89 13.47 5.67 18.45q5.67 7.47 14.04 11.79t20.43 8.46q10.8 3.96 15.75 6.21t7.83 5.22 2.88 7.29q0 5.94-4.68 9.99t-14.22 4.05q-11.34 0-18-4.95t-6.66-12.15v-2.7q0-.9-.63-1.53m248.62-415.29c0-.1-.02-.21-.03-.31-.04-.31-.08-.63-.14-.94 0-.04-.01-.08-.02-.12-.07-.34-.16-.69-.26-1.02l-.09-.27c-.08-.26-.17-.51-.27-.76-.04-.09-.07-.18-.11-.27-.13-.31-.27-.62-.43-.92 0-.01-.01-.03-.02-.04-.17-.32-.36-.62-.55-.92-.05-.08-.1-.15-.15-.22-.16-.22-.32-.44-.49-.66a13 13 0 0 0-.82-.92c-.03-.03-.06-.07-.09-.1l-108-108c-2.25-2.25-5.3-3.51-8.49-3.51H228c-6.63 0-12 5.37-12 12v420h24V168h274.55v96c0 6.63 5.37 12 12 12H624v300h24V263.82c0-.28-.02-.56-.04-.83ZM538.55 252v-67.3l68.2 67.3z"/></svg>