<svg xmlns="http://www.w3.org/2000/svg" viewBox="0 0 864 864"><path d="M236.97 719.32q.63.63 1.53.63h21.06q.9 0 1.53-.63c.63-.63.63-.93.63-1.53V596.11q0-.9-.63-1.53t-1.53-.63H238.5q-1.62 0-2.52 1.44l-27.18 41.94q-.54 1.08-1.08 0l-27-41.94q-.9-1.44-2.52-1.44h-21.06q-.9 0-1.53.63c-.63.63-.63.93-.63 1.53v121.68q0 .9.63 1.53t1.53.63h21.06q.9 0 1.53-.63t.63-1.53v-79.2q0-.72.36-.81t.72.45l19.08 29.88q.9 1.44 2.52 1.44h10.62q1.62 0 2.52-1.44l19.08-29.88q.36-.54.72-.54c.36 0 .36.24.36.72v79.38q0 .9.63 1.53m69.03.63q.9 0 1.53-.63c.63-.63.63-.93.63-1.53v-45.9q0-.9.9-.9h25.56q12.06 0 21.33-4.77t14.4-13.41 5.13-19.98c0-11.34-1.65-14.49-4.95-20.43q-4.95-8.91-13.95-13.77t-20.88-4.86h-50.76q-.9 0-1.53.63t-.63 1.53v121.86q0 .9.63 1.53t1.53.63zm2.16-103.32q0-.9.9-.9h22.86q8.28 0 13.32 4.86t5.04 12.78c0 7.92-1.68 9.33-5.04 12.51q-5.04 4.77-13.32 4.77h-22.86q-.9 0-.9-.9zm119.52 82.98q-5.04 0-8.73-2.61t-5.31-7.29q-1.26-2.88-1.98-8.82 0-2.16-2.16-2.16h-21.24q-2.16 0-2.16 2.16.36 8.1 2.88 15.12 4.5 11.7 14.85 18.54t24.03 6.84c13.68 0 17.25-2.16 24.03-6.48q10.17-6.48 14.49-18 3.24-8.28 3.24-18 0-10.8-3.6-19.08-6.66-15.48-22.32-18.54-.72 0-.81-.36t.27-.72l23.58-21.6q1.26-1.26 1.26-2.7v-19.8q0-.9-.63-1.53t-1.53-.63h-75.06q-.9 0-1.53.63t-.63 1.53v17.46q0 .9.63 1.53t1.53.63h42.3q.54 0 .63.36t-.27.72l-28.62 25.02q-.72.72-.72 1.8 0 .72.36 1.26l10.62 14.94q.54 1.08 1.62 1.08.72 0 1.44-.54 3.06-2.16 5.22-3.33t4.14-1.17q9.72 0 13.86 8.46 2.7 5.4 2.7 13.86 0 7.2-2.52 12.6-3.78 8.82-13.86 8.82m220.27-436.62c0-.11-.02-.21-.03-.31-.03-.31-.08-.62-.14-.92 0-.04-.01-.09-.02-.13-.07-.34-.16-.68-.26-1.02-.03-.09-.06-.19-.09-.28q-.12-.375-.27-.75c-.04-.1-.07-.19-.12-.29-.13-.3-.27-.6-.42-.89l-.03-.06c-.17-.31-.35-.62-.55-.92-.05-.08-.11-.16-.16-.24-.15-.22-.31-.43-.48-.64-.07-.09-.14-.17-.21-.26q-.285-.345-.6-.66c-.04-.04-.07-.08-.1-.11l-108-108c-2.25-2.25-5.3-3.51-8.49-3.51H228c-6.63 0-12 5.37-12 12v420h24V168h274.55v96c0 6.63 5.37 12 12 12H624v300h24V263.82c0-.28-.02-.55-.04-.82ZM538.55 252v-67.3l68.2 67.3z"/></svg>