<svg xmlns="http://www.w3.org/2000/svg" viewBox="0 0 864 864"><path d="M150.84 719.95h22.86q1.8 0 2.34-1.8l5.22-17.64q.36-.72.9-.72h44.28q.54 0 .9.72l5.4 17.64q.54 1.8 2.34 1.8h22.86q1.98 0 1.98-1.62 0-.54-.18-.9l-38.88-121.68q-.54-1.8-2.34-1.8h-28.26q-1.8 0-2.34 1.8l-38.88 121.68q-.36 1.26.18 1.89t1.62.63m36.9-40.86 15.84-53.46q.18-.54.54-.63t.54.63l16.2 53.46q.36 1.08-.72 1.08h-31.68q-.9 0-.72-1.08m99.81-.81q-.63-.63-1.53-.63H265.5q-.9 0-1.53.63c-.63.63-.63.93-.63 1.53v3.96q0 11.34 5.85 19.89t16.65 13.14 25.2 4.59q21.24 0 33.66-9.81t12.42-26.73q0-11.34-5.85-18.45t-13.14-10.71-20.07-8.28q-11.52-4.14-17.01-6.57t-8.28-5.49-2.79-7.56q0-6.3 4.77-9.9t13.23-3.6q10.8 0 17.01 5.31t6.21 12.87v1.44q0 .9.63 1.53t1.53.63h20.7q.9 0 1.53-.63c.63-.63.63-.93.63-1.53v-2.7q0-11.52-6.03-20.25t-16.74-13.59-24.39-4.86q-12.96 0-22.86 4.32t-15.48 12.42-5.58 18.9c0 10.8 1.89 13.47 5.67 18.45q5.67 7.47 14.04 11.79t20.43 8.46q10.8 3.96 15.75 6.21t7.83 5.22 2.88 7.29q0 5.94-4.68 9.99t-14.22 4.05q-11.34 0-18-4.95t-6.66-12.15v-2.7q0-.9-.63-1.53m109.71 41.67q.9 0 1.53-.63t.63-1.53v-45.9q0-.9.9-.9h25.56q12.06 0 21.33-4.77t14.4-13.41c5.13-8.64 5.13-12.42 5.13-19.98s-1.65-14.49-4.95-20.43q-4.95-8.91-13.95-13.77t-20.88-4.86H376.2q-.9 0-1.53.63t-.63 1.53v121.86q0 .9.63 1.53t1.53.63zm2.16-103.32q0-.9.9-.9h22.86q8.28 0 13.32 4.86t5.04 12.78c0 7.92-1.68 9.33-5.04 12.51q-5.04 4.77-13.32 4.77h-22.86q-.9 0-.9-.9zm71.46 100.8q-.72 1.08-.18 1.8t1.8.72h22.68q1.8 0 2.7-1.44l23.58-41.04q.54-1.08 1.08 0l23.4 41.04q.9 1.44 2.7 1.44h22.68q1.98 0 1.98-1.44l-.36-1.08-34.92-59.94q-.18-.54 0-1.08l34.92-59.94q.72-1.08.18-1.8t-1.8-.72h-22.68q-1.8 0-2.7 1.44l-23.4 41.22q-.54 1.08-1.08 0l-23.4-41.22q-.9-1.44-2.7-1.44H472.5q-1.98 0-1.98 1.44l.36 1.08 34.92 59.94q.36.54 0 1.08zm177.07-454.44c0-.1-.02-.21-.03-.31-.03-.31-.08-.63-.14-.94 0-.04-.01-.08-.02-.12-.07-.34-.16-.69-.26-1.02l-.09-.27c-.08-.26-.17-.51-.27-.76-.04-.09-.07-.18-.11-.27-.13-.31-.27-.62-.43-.92 0-.01-.01-.03-.02-.04-.17-.32-.35-.62-.55-.92-.05-.08-.1-.15-.15-.22-.15-.22-.32-.44-.49-.66-.06-.08-.13-.16-.19-.24-.2-.23-.4-.46-.62-.68-.03-.03-.06-.07-.09-.1l-108-108c-2.25-2.25-5.3-3.51-8.49-3.51H228c-6.63 0-12 5.37-12 12v420h24V168h274.55v96c0 6.63 5.37 12 12 12H624v300h24V263.82c0-.28-.02-.56-.04-.83ZM538.55 252v-67.3l68.2 67.3z"/></svg>