<svg xmlns="http://www.w3.org/2000/svg" viewBox="0 0 864 864"><path d="M157.14 593.95q-.9 0-1.53.63c-.63.63-.63.93-.63 1.53v121.68q0 .9.63 1.53t1.53.63h45q13.5 0 23.67-4.77t15.75-13.41 5.58-19.98v-49.68q0-11.34-5.58-19.98t-15.75-13.41-23.67-4.77zm59.49 27.36q5.13 5.58 5.13 14.94v41.4q-.18 9.36-5.31 14.94t-13.41 5.58h-21.78q-.9 0-.9-.9v-80.64q0-.9.9-.9h21.6q8.64 0 13.77 5.58m69.48 94.86q10.71 5.76 24.75 5.76c14.04 0 17.79-1.89 24.93-5.67q10.71-5.67 16.65-16.11t5.94-23.94v-38.52q0-13.32-5.94-23.58t-16.65-15.93-24.93-5.67c-14.22 0-17.61 1.89-24.75 5.67q-10.71 5.67-16.65 15.93t-5.94 23.58v38.52q0 13.5 5.94 23.85t16.65 16.11m2.79-78.66q0-10.44 6.03-16.83t15.93-6.39c9.9 0 12.09 2.13 16.11 6.39q6.03 6.39 6.03 16.83v39.6q0 10.44-6.12 16.74t-16.02 6.3c-9.9 0-11.91-2.1-15.93-6.3q-6.03-6.3-6.03-16.74zm117.63-17.46q5.85-5.76 15.57-5.76c9.72 0 11.49 1.92 15.39 5.76q5.85 5.76 5.85 15.3 0 1.98 1.8 1.98h.36l21.06-1.26q2.16-.36 2.16-1.98 0-12.42-5.85-21.87t-16.38-14.58c-10.53-5.13-15.15-5.13-24.39-5.13s-17.58 1.8-24.66 5.4q-10.62 5.4-16.38 15.3t-5.76 22.86v41.58q0 12.96 5.76 22.86t16.38 15.39 24.66 5.49c14.04 0 17.37-1.74 24.39-5.22q10.53-5.22 16.38-14.76t5.85-21.96q0-.72-.63-1.26t-1.53-.54l-21.06-.9q-2.16 0-2.16 1.98 0 9.36-5.85 15.12t-15.39 5.76c-9.54 0-11.67-1.92-15.57-5.76q-5.85-5.76-5.85-15.12v-43.38q0-9.54 5.85-15.3m241.42-357.06c0-.1-.02-.21-.03-.31-.03-.31-.08-.62-.14-.93 0-.04-.01-.08-.02-.12-.07-.34-.16-.68-.26-1.02-.03-.09-.06-.19-.09-.28q-.12-.375-.27-.75c-.04-.09-.07-.19-.11-.28q-.195-.45-.42-.9l-.03-.06c-.17-.31-.35-.62-.55-.92-.05-.08-.11-.16-.16-.24-.15-.22-.31-.43-.47-.64-.07-.09-.14-.17-.21-.26-.19-.22-.39-.44-.59-.66-.04-.04-.07-.08-.11-.12l-108-108c-2.25-2.25-5.3-3.51-8.49-3.51H228c-6.63 0-12 5.37-12 12v420h24V168h274.55v96c0 6.63 5.37 12 12 12H624v300h24V263.82c0-.28-.02-.55-.04-.83ZM538.55 252v-67.3l68.2 67.3z"/></svg>