<svg xmlns="http://www.w3.org/2000/svg" viewBox="0 0 864 864"><path d="M174.78 715.81q10.62 5.58 24.48 5.58c13.86 0 17.37-1.77 24.39-5.31q10.53-5.31 16.29-15.39t5.76-23.76v-23.76q0-.9-.63-1.53t-1.53-.63h-43.92q-.9 0-1.53.63t-.63 1.53v16.56q0 .9.63 1.53t1.53.63h20.16q.9 0 .9.9v8.1q0 8.82-5.58 13.77t-14.94 4.95c-9.36 0-11.82-2.01-16.02-6.03q-6.3-6.03-6.3-15.75v-41.76q0-9.72 5.85-15.75t15.57-6.03c9.72 0 11.46 1.89 15.3 5.67q5.76 5.67 5.76 13.95v.54q0 .9.63 1.53t1.53.63h21.06q.9 0 1.53-.63t.63-1.53v-1.26q0-11.34-5.85-20.61t-16.38-14.67-24.21-5.4c-13.68 0-17.4 1.83-24.48 5.49q-10.62 5.49-16.47 15.57t-5.85 23.22v40.32q0 13.14 5.85 23.13t16.47 15.57m113.58 4.14q.9 0 1.53-.63c.63-.63.63-.93.63-1.53V596.11q0-.9-.63-1.53t-1.53-.63H267.3q-.9 0-1.53.63t-.63 1.53v121.68q0 .9.63 1.53t1.53.63zm53.19-.63q.63.63 1.53.63h21.06q.9 0 1.53-.63c.63-.63.63-.93.63-1.53V616.81q0-.9.9-.9h32.22q.9 0 1.53-.63c.63-.63.63-.93.63-1.53v-17.64q0-.9-.63-1.53t-1.53-.63H308.7q-.9 0-1.53.63c-.63.63-.63.93-.63 1.53v17.64q0 .9.63 1.53t1.53.63h31.32q.9 0 .9.9v100.98q0 .9.63 1.53m306.4-456.33c0-.1-.02-.21-.03-.31-.03-.31-.08-.63-.14-.94 0-.04-.01-.08-.02-.12-.07-.34-.16-.69-.26-1.02l-.09-.27c-.08-.26-.17-.51-.27-.76-.04-.09-.07-.18-.11-.27-.13-.31-.27-.62-.43-.92 0-.01-.01-.03-.02-.04-.17-.32-.35-.62-.55-.92-.05-.08-.1-.15-.15-.22-.15-.22-.32-.44-.49-.66-.06-.08-.13-.16-.19-.24-.2-.23-.4-.46-.62-.68-.03-.03-.06-.07-.09-.1l-108-108c-2.25-2.25-5.3-3.51-8.49-3.51H228c-6.63 0-12 5.37-12 12v420h24V168h274.55v96c0 6.63 5.37 12 12 12H624v300h24V263.82c0-.28-.02-.56-.04-.83ZM538.55 252v-67.3l68.2 67.3z"/></svg>