<svg xmlns="http://www.w3.org/2000/svg" viewBox="0 0 864 864"><path d="M236.97 719.32q.63.63 1.53.63h21.06q.9 0 1.53-.63c.63-.63.63-.93.63-1.53V596.11q0-.9-.63-1.53t-1.53-.63H238.5q-1.62 0-2.52 1.44l-27.18 41.94q-.54 1.08-1.08 0l-27-41.94q-.9-1.44-2.52-1.44h-21.06q-.9 0-1.53.63c-.63.63-.63.93-.63 1.53v121.68q0 .9.63 1.53t1.53.63h21.06q.9 0 1.53-.63t.63-1.53v-79.2q0-.72.36-.81t.72.45l19.08 29.88q.9 1.44 2.52 1.44h10.62q1.62 0 2.52-1.44l19.08-29.88q.36-.54.72-.54c.36 0 .36.24.36.72v79.38q0 .9.63 1.53m71.46-124.74q-.63-.63-1.53-.63h-21.06q-.9 0-1.53.63c-.63.63-.63.93-.63 1.53v121.68q0 .9.63 1.53t1.53.63h21.06q.9 0 1.53-.63t.63-1.53v-35.82q0-.36.36-1.08l11.34-14.22q.36-.36.72-.36c.36 0 .42.12.54.36l32.04 51.84q.72 1.44 2.52 1.44h23.76q1.8 0 1.8-1.26 0-.18-.36-1.26l-42.48-68.22q-.36-.54.18-1.26l40.14-51.3q.72-1.08.36-1.89t-1.8-.81h-23.76q-1.62 0-2.7 1.26l-41.58 51.66q-.36.36-.72.27t-.36-.63v-50.4q0-.9-.63-1.53m121.41 125.37h22.68q1.8 0 2.34-1.8l37.62-121.68q.36-1.08-.18-1.8t-1.62-.72h-22.14q-1.98 0-2.52 1.8l-23.58 87.84q-.18.54-.54.54c-.36 0-.42-.18-.54-.54l-23.94-87.84q-.54-1.8-2.52-1.8h-22.68q-1.98 0-1.98 1.8l.18.72 37.08 121.68q.54 1.8 2.34 1.8m218.11-456.96c0-.11-.02-.21-.03-.32-.03-.31-.08-.62-.14-.92 0-.04-.01-.09-.02-.13a13 13 0 0 0-.35-1.3q-.12-.375-.27-.75c-.04-.1-.07-.19-.12-.29q-.195-.45-.42-.9c0-.02-.02-.04-.03-.06-.17-.31-.35-.62-.55-.92-.05-.08-.11-.15-.16-.23-.15-.22-.31-.44-.48-.65-.07-.08-.13-.17-.2-.25-.2-.23-.4-.46-.62-.68-.03-.03-.06-.07-.09-.1l-108-108c-2.25-2.25-5.3-3.51-8.49-3.51H228c-6.63 0-12 5.37-12 12v420h24V168h274.55v96c0 6.63 5.37 12 12 12H624v300h24V263.82c0-.27-.02-.55-.04-.82ZM538.55 252v-67.3l68.2 67.3z"/></svg>