<svg xmlns="http://www.w3.org/2000/svg" viewBox="0 0 864 864"><path d="M172.98 716.8q10.8 4.59 25.2 4.59 21.24 0 33.66-9.81t12.42-26.73q0-11.34-5.85-18.45t-13.14-10.71-20.07-8.28q-11.52-4.14-17.01-6.57t-8.28-5.49-2.79-7.56q0-6.3 4.77-9.9t13.23-3.6q10.8 0 17.01 5.31t6.21 12.87v1.44q0 .9.63 1.53t1.53.63h20.7q.9 0 1.53-.63c.63-.63.63-.93.63-1.53v-2.7q0-11.52-6.03-20.25t-16.74-13.59-24.39-4.86q-12.96 0-22.86 4.32t-15.48 12.42-5.58 18.9c0 10.8 1.89 13.47 5.67 18.45q5.67 7.47 14.04 11.79t20.43 8.46q10.8 3.96 15.75 6.21t7.83 5.22 2.88 7.29q0 5.94-4.68 9.99t-14.22 4.05q-11.34 0-18-4.95t-6.66-12.15v-2.7q0-.9-.63-1.53t-1.53-.63h-20.52q-.9 0-1.53.63c-.63.63-.63.93-.63 1.53v3.96q0 11.34 5.85 19.89t16.65 13.14m113.85-122.22q-.63-.63-1.53-.63h-21.06q-.9 0-1.53.63t-.63 1.53v121.68q0 .9.63 1.53t1.53.63h21.06q.9 0 1.53-.63c.63-.63.63-.93.63-1.53v-35.82q0-.36.36-1.08l11.34-14.22q.36-.36.72-.36c.36 0 .42.12.54.36l32.04 51.84q.72 1.44 2.52 1.44h23.76q1.8 0 1.8-1.26 0-.18-.36-1.26l-42.48-68.22q-.36-.54.18-1.26l40.14-51.3q.72-1.08.36-1.89t-1.8-.81h-23.76q-1.62 0-2.7 1.26l-41.58 51.66q-.36.36-.72.27t-.36-.63v-50.4q0-.9-.63-1.53m110.25 125.37q.9 0 1.53-.63t.63-1.53v-45.9q0-.9.9-.9h25.56q12.06 0 21.33-4.77t14.4-13.41c5.13-8.64 5.13-12.42 5.13-19.98s-1.65-14.49-4.95-20.43q-4.95-8.91-13.95-13.77t-20.88-4.86h-50.76q-.9 0-1.53.63t-.63 1.53v121.86q0 .9.63 1.53t1.53.63zm2.16-103.32q0-.9.9-.9H423q8.28 0 13.32 4.86t5.04 12.78c0 7.92-1.68 9.33-5.04 12.51q-5.04 4.77-13.32 4.77h-22.86q-.9 0-.9-.9zm248.71-353.64c0-.1-.02-.21-.03-.31-.03-.31-.08-.63-.14-.94 0-.04-.01-.08-.02-.12-.07-.34-.16-.69-.26-1.02l-.09-.27c-.08-.26-.17-.51-.27-.76-.04-.09-.07-.18-.11-.27-.13-.31-.27-.62-.43-.92 0-.01-.01-.03-.02-.04-.17-.32-.35-.62-.55-.92-.05-.08-.1-.15-.15-.22-.15-.22-.32-.44-.49-.66-.06-.08-.13-.16-.19-.24-.2-.23-.4-.46-.62-.68-.03-.03-.06-.07-.09-.1l-108-108c-2.25-2.25-5.3-3.51-8.49-3.51H228c-6.63 0-12 5.37-12 12v420h24V168h274.55v96c0 6.63 5.37 12 12 12H624v300h24V263.82c0-.28-.02-.56-.04-.83ZM538.55 252v-67.3l68.2 67.3z"/></svg>