<svg xmlns="http://www.w3.org/2000/svg" width="16" height="16" fill="currentColor" class="igl igl-home" viewBox="0 0 16 16">
  <path d="M13.5 0c-.28 0-.5.22-.5.5v2c0 .28.22.5.5.5s.5-.22.5-.5v-2c0-.28-.22-.5-.5-.5M17 6.5c0 .28.22.5.5.5h2c.28 0 .5-.22.5-.5s-.22-.5-.5-.5h-2c-.28 0-.5.22-.5.5M8.9 2.61c-.2-.19-.2-.51 0-.71.19-.19.51-.19.71 0l1.41 1.41c.19.19.19.51 0 .71-.2.19-.51.19-.71 0zm7.07 6.37c-.2.19-.2.51 0 .71l1.41 1.41c.19.19.51.19.71 0 .19-.19.19-.51 0-.71l-1.41-1.41a.513.513 0 0 0-.71 0m.71-4.96c-.19.19-.51.19-.71 0s-.19-.51 0-.71l1.41-1.41c.2-.19.51-.19.71 0 .2.19.2.51 0 .71zM16 6.5c0 .85-.43 1.61-1.08 2.06l-.73-.73a1.499 1.499 0 1 0-2.02-2.02l-.73-.73A2.5 2.5 0 0 1 16 6.5"/>
  <path d="M5 14c0-.55.45-1 1-1h4c.55 0 1 .45 1 1v3c0 .55-.45 1-1 1H6c-.55 0-1-.45-1-1zm1 0h4v3H6z" class="b"/>
  <path d="m9.22 4.51 6.66 6.74c.27.28.08.75-.3.75h-.57v7c0 .55-.45 1-1 1H2c-.55 0-1-.45-1-1v-7H.43c-.38 0-.58-.47-.3-.75l.87-.88V6c0-.55.45-1 1-1h1c.55 0 1 .45 1 1v1.33l2.78-2.82c.67-.68 1.76-.68 2.43 0ZM2 12v7h12v-7zm0-6v3.36l1-1.01V6.01H2Zm6.51-.79L14.22 11H1.78l5.71-5.79c.28-.28.73-.28 1.01 0Z" class="b"/>
</svg>