<svg xmlns="http://www.w3.org/2000/svg" viewBox="0 0 864 864"><path d="M432 180c34.04 0 67.03 6.66 98.08 19.79 30 12.69 56.96 30.87 80.11 54.02s41.33 50.11 54.02 80.11C677.34 364.96 684 397.96 684 432s-6.66 67.03-19.79 98.08c-12.69 30-30.87 56.96-54.02 80.11-23.15 23.16-50.11 41.33-80.11 54.02C499.04 677.34 466.04 684 432 684s-67.03-6.66-98.08-19.79c-30-12.69-56.96-30.87-80.11-54.02s-41.33-50.11-54.02-80.11C186.66 499.04 180 466.04 180 432s6.66-67.03 19.79-98.08c12.69-30 30.87-56.96 54.02-80.11 23.15-23.16 50.11-41.33 80.11-54.02C364.96 186.66 397.96 180 432 180m0-36c-159.06 0-288 128.94-288 288s128.94 288 288 288 288-128.94 288-288-128.94-288-288-288"/><text font-family="Barlow-SemiBold,Barlow" font-size="360" font-weight="600" transform="translate(324.9 558)"><tspan x="0" y="0">P</tspan></text></svg>