<svg xmlns="http://www.w3.org/2000/svg" viewBox="0 0 864 864"><path d="M620.26 434.83c4.99-8.93 8.77-18.65 11.11-28.59 6.58-27.21 2.27-56.67-11.83-80.84-9.41-16.61-23.48-30.6-40.68-40.44-16.06-9.19-33.84-14.19-51.66-14.56-.24-.41-.48-.83-.72-1.24l-1.97-3.1-.03-.05c-8.66-13.17-20.25-24.56-33.55-32.94-.89-.59-2.24-1.44-3.19-1.96-1.87-1.1-4.54-2.58-6.38-3.46l-1.51-.77-4.96-2.24-.15-.06c-.59-.24-1.73-.68-2.84-1.11-.85-.33-1.66-.64-2.08-.81l-.19-.07c-.81-.28-1.68-.57-2.54-.85-.83-.27-1.66-.55-2.44-.82l-3.58-1.03h-.04a108.7 108.7 0 0 0-36.44-3.64c-11.98.83-23.7 3.59-34.84 8.21a110.2 110.2 0 0 0-30.39 18.89c-8.36 7.32-15.5 15.82-21.25 25.28-1.7.04-3.4.11-5.11.23h-.11c-.73.08-1.57.16-2.41.24l-2.38.23h-.06c-.78.09-1.95.27-3.08.44-.82.12-1.66.25-2.19.32l-.22.03c-1.68.3-3.53.67-5.15.99l-.16.03c-.76.17-1.93.46-3.06.74-.79.19-1.55.38-2.08.51l-.24.06c-.4.12-1.05.31-1.77.51-1.31.38-2.66.77-3.36.99l-.07.02c-.41.14-.84.29-1.27.43-1.26.43-2.57.88-3.77 1.32l-.21.08c-.34.15-1.06.43-1.75.7-1.48.58-2.51.99-3.18 1.31-.76.33-1.64.74-2.49 1.14-.66.3-1.3.6-1.85.85l-.14.07c-8.36 4.12-16.11 9.2-23.06 15.11-.78.65-1.76 1.52-2.63 2.29-.26.24-.51.46-.74.65l-.09.08c-.87.81-2.97 2.86-3.85 3.74l-.08.08c-3.01 3.17-6.16 6.62-8.88 10.31l-.03.04c-.2.28-.51.69-.82 1.09-.47.62-.96 1.26-1.32 1.79l-.02.03c-.29.43-.63.93-.99 1.46-1.02 1.49-2.17 3.17-2.95 4.54-10.48 16.59-16.15 36.16-16.37 56.59-.21 19.04 4.31 37.45 13.12 53.51-4.75 8.69-8.37 18.11-10.63 27.73-6.58 27.21-2.27 56.67 11.83 80.84 9.41 16.61 23.48 30.59 40.68 40.44 16.02 9.17 33.75 14.16 51.52 14.55 2.47 4.08 5.47 8.31 9.31 13.08l.13.15c.53.59 1.11 1.27 1.7 1.94.6.7 1.21 1.39 1.75 2l.08.09c.16.17.54.57.99 1.03.67.7 1.69 1.75 1.95 2.05.56.62 1.19 1.21 1.79 1.77.33.3.64.59.88.83l.03.03c1.6 1.58 3.74 3.41 5.46 4.88l.28.24.14.11c.58.45 1.24.97 1.9 1.49.65.51 1.31 1.02 1.88 1.47l.1.08c1.08.8 3.24 2.32 4.35 3.1l.11.07c1.64 1.07 3.15 2.03 4.49 2.87l.16.1c.52.29 1.29.74 2.08 1.19.9.52 1.83 1.06 2.48 1.41l.21.11c.44.21 1.41.72 2.28 1.17.97.5 1.88.98 2.38 1.22l.19.08c.51.22 1.43.64 2.32 1.04.94.43 1.83.83 2.44 1.09l.16.07c.38.14 1.12.44 1.9.75 1.45.58 2.46.98 3.04 1.19 12.07 4.4 24.84 6.56 37.59 6.56 19.18 0 38.31-4.91 54.95-14.51 15.81-9.09 29.09-21.9 38.59-37.19 13.68-.24 27.64-3.18 40.51-8.53 13.47-5.61 25.87-13.93 35.86-24.04 8.61-8.61 15.66-18.57 20.97-29.62 5.17-10.76 8.55-22.25 10.05-34.17s1.07-23.89-1.28-35.58a107.7 107.7 0 0 0-10.59-29.54Zm-18.38-94.57.55 1.33c.86 2.08 1.54 3.88 2.02 5.36v.03c.13.35.22.63.32.89.21.61.35 1.01.57 1.8l.9 2.95.06.19c.02.07.03.14.05.22l.57 2.28.05.17c.25.86.57 2.45.82 3.73.14.69.26 1.33.37 1.83l.06.26.13.9c.07.49.15 1.01.23 1.53.14.91.29 1.86.35 2.65.05.62.12 1.24.19 1.84.1.86.19 1.67.22 2.43l.16 2.92v1.37l.05 2.94c0 .32-.02.64-.03.96-.04 1.56-.08 3.17-.21 4.64-.08.94-.16 1.91-.22 2.89-.1.7-.19 1.47-.27 2.22-.08.67-.16 1.37-.24 1.97-.09.52-.18 1.06-.26 1.59-.14.86-.28 1.74-.44 2.56-.14.61-.27 1.27-.41 1.94-.11.52-.22 1.06-.34 1.6-3.01 12.7-8.66 24.68-16.34 34.64l-.02.03c-5.63 7.44-12.61 14.08-20.75 19.74l-.05.03c-1.12.72-2.5 1.61-3.62 2.37-.41.25-1.11.66-1.78 1.05-.72.42-1.4.82-1.86 1.1-.09.05-.19.1-.29.16-.07.04-.13.08-.17.1-.7.34-1.4.72-2.08 1.08-.64.34-1.24.67-1.81.94-.52.25-1.43.67-2.28 1.06-.62.29-1.22.57-1.61.75-1.08.42-2.2.89-3.28 1.34l-.73.3c-.33.12-.83.3-1.37.49-1.01.35-2.04.72-2.67.95-.76.23-1.56.47-2.32.71-.6.19-1.21.37-1.78.55-.37.1-.94.24-1.56.4-.97.25-1.97.5-2.58.67-.63.11-1.49.3-2.41.49-.69.15-1.4.3-1.81.38-.41.07-1.08.17-1.78.28-.98.15-2 .31-2.59.41-.51.07-1.39.16-2.24.26-.77.08-1.5.17-2.03.23-.38.02-.89.06-1.47.11-.84.07-2.26.18-2.7.18s-1.01.01-1.62.03c-.53.01-1.09.03-1.42.03h-.07c-7.31.13-14.98-.67-22.77-2.36l-2.19-.56-.15-.03c-1.31-.28-2.64-.68-4.04-1.09-.67-.2-1.36-.4-2.06-.6-.5-.17-1.06-.36-1.64-.56-.78-.27-1.59-.55-2.3-.78-1.63-.62-4.64-1.79-7.05-2.88l-.16-.07c-.73-.29-1.89-.83-2.49-1.15l-2.91-1.44-4.08-2.27-4.04-2.46-2.63-1.78-.09-.06c-.89-.57-1.98-1.39-3.03-2.18-.69-.52-1.41-1.06-2.09-1.54-.4-.3-1.28-1.04-2-1.64-.7-.58-1.31-1.08-1.69-1.39-.43-.36-1.11-.98-1.78-1.57-.68-.61-1.33-1.19-1.81-1.6-.48-.47-1.03-1-1.61-1.56-1.05-1.01-2.25-2.16-2.95-2.94l-.02-.02c1.25-.12 2.59-.28 3.75-.42.46-.05.89-.11 1.27-.15.33-.03.74-.07 1.18-.15l.84-.14c.62-.11 1.38-.24 2.13-.37.77-.13 1.53-.26 2.17-.37l.25-.05c.54-.13 1.54-.35 2.49-.56 1.04-.23 2.02-.44 2.63-.59l.11-.03c.78-.21 1.68-.46 2.57-.71.86-.24 1.72-.48 2.47-.68l.26-.08c.55-.19 1.49-.49 2.43-.8 1.01-.33 1.97-.64 2.56-.84l1.06-.4c1.31-.5 2.8-1.06 4.04-1.56l.16-.07c.38-.17.94-.41 1.55-.68 1.2-.53 2.56-1.13 3.35-1.5l.79-.38 1.58-.8c1.6-.76 3.73-1.97 5.44-2.94q.48-.27.9-.51c.61-.34 1.35-.82 2.07-1.29.4-.26.77-.5 1.02-.65l.15-.09c.29-.19.53-.34.76-.49.41-.25.87-.54 1.5-.99 1.9-1.33 4.5-3.14 6.52-4.78 1.09-.81 2.37-1.92 3.61-2.99.68-.59 1.33-1.15 1.85-1.57l.16-.13.14-.14c.38-.38 1.01-.97 1.62-1.53.81-.75 1.64-1.52 2.23-2.13l.06-.06c.49-.53 1.02-1.07 1.57-1.63.7-.72 1.42-1.46 2.12-2.22 5.67-6.27 10.67-13.2 14.83-20.58.34-.57.7-1.27 1.04-1.94.23-.44.46-.91.62-1.19l.14-.27c.13-.29.33-.66.54-1.05.36-.68.76-1.45 1.07-2.19 5.37-11.33 8.83-24 10.02-36.63v-.12c.08-1.17.22-3.02.33-4.29l.02-.26c.02-.62.04-1.3.06-2 .07-1.97.15-4.19.05-6.1 0-2.75-.25-5.86-.48-8.6l-.03-.38-.03-.25c-.08-.55-.21-1.61-.33-2.63s-.24-1.99-.33-2.59V310c-.15-.94-.51-2.97-.84-4.8l-.09-.5-.06-.27c-.12-.49-.31-1.35-.49-2.18-.24-1.11-.49-2.25-.7-3.03-.33-1.24-.7-2.54-1.06-3.81-.13-.45-.25-.89-.38-1.32l-.02-.07c-.26-.87-.76-2.31-1.19-3.59-.2-.58-.38-1.11-.51-1.51l-.06-.16c-.6-1.59-1.29-3.33-1.9-4.86l-.08-.19c-.12-.28-.28-.64-.45-1.03 30.76 8.34 55.66 28.8 67.8 56.23l.62 1.35ZM262.12 524.9l-.55-1.33c-.86-2.08-1.54-3.88-2.02-5.36v-.03c-.13-.35-.22-.63-.32-.9-.21-.61-.35-1.01-.57-1.8l-.9-2.96-.06-.19c-.02-.07-.03-.14-.05-.22l-.57-2.28-.05-.17c-.25-.86-.56-2.45-.82-3.73-.14-.69-.26-1.33-.37-1.83l-.06-.26-.13-.89c-.07-.49-.15-1.01-.23-1.53-.14-.91-.29-1.86-.35-2.65-.05-.62-.12-1.24-.19-1.83-.1-.86-.19-1.67-.22-2.43l-.16-2.92v-1.37l-.05-2.94c0-.32.02-.63.03-.95.04-1.56.08-3.18.21-4.66.08-.93.16-1.9.22-2.87.1-.7.19-1.47.27-2.22.08-.67.16-1.37.24-1.96.09-.52.18-1.06.26-1.6.14-.86.28-1.74.44-2.55.14-.61.27-1.27.41-1.95.11-.52.22-1.06.34-1.6 3.01-12.7 8.66-24.68 16.34-34.64l.02-.03c5.63-7.44 12.61-14.08 20.76-19.74l.09-.06c1.11-.71 2.47-1.59 3.58-2.34.41-.25 1.1-.65 1.77-1.05.72-.42 1.41-.83 1.87-1.11.09-.05.19-.11.3-.16.07-.04.13-.08.17-.09.7-.34 1.4-.72 2.08-1.08.64-.34 1.24-.67 1.81-.94.52-.25 1.43-.67 2.28-1.06.62-.29 1.22-.57 1.61-.75 1.08-.42 2.2-.89 3.29-1.35l.72-.3c.33-.12.83-.3 1.38-.49 1-.35 2.04-.72 2.66-.95.76-.23 1.56-.47 2.32-.71.6-.19 1.21-.37 1.78-.55.37-.1.94-.24 1.55-.4.97-.25 1.97-.5 2.59-.67.63-.11 1.49-.3 2.4-.49.69-.15 1.4-.3 1.82-.38.41-.07 1.08-.17 1.79-.28.98-.15 2-.31 2.59-.41.51-.07 1.39-.16 2.24-.26.77-.08 1.5-.17 2.03-.23.39-.02.9-.06 1.48-.11.84-.07 2.25-.18 2.69-.18s1.01-.01 1.62-.03c.54-.01 1.09-.03 1.42-.03h.07c7.31-.13 14.98.67 22.77 2.36l2.19.56.15.03c1.31.28 2.64.68 4.04 1.1.67.2 1.35.4 2.05.6.5.17 1.06.36 1.64.56.78.27 1.59.55 2.31.78 1.64.62 4.64 1.8 7.05 2.88l.16.07c.72.29 1.89.83 2.49 1.15l2.91 1.44 4.08 2.27 4.04 2.46 2.63 1.78.09.06c.89.57 1.98 1.38 3.03 2.17.67.51 1.37 1.03 2.03 1.5.31.25.79.64 1.31 1.07.89.72 2 1.62 2.38 1.94.42.36 1.14 1 1.84 1.63.68.61 1.32 1.19 1.81 1.6.48.47 1.03 1 1.61 1.56.66.63 1.37 1.31 1.98 1.92-8.42.77-16.58 2.46-24.39 5.08l-2.46.82-.23.08c-.54.22-1.47.57-2.39.93-.95.37-1.9.73-2.45.96l-.08.03c-.58.25-1.33.58-2.06.91-.69.31-1.4.63-1.91.84l-.11.05c-16.22 7.49-30.63 19.16-41.68 33.76l-.08.11c-.4.57-.82 1.15-1.24 1.73-.61.84-1.24 1.7-1.83 2.56l-1.91 2.95c-.54.76-1.14 1.81-1.63 2.67-.1.18-.2.35-.29.5-1.05 1.69-2.33 4.14-3.46 6.31-.69 1.28-1.33 2.69-1.94 4.05-.25.56-.5 1.11-.74 1.62-.19.4-.76 1.84-1.7 4.26l-.08.19c-.2.48-.45 1.06-.65 1.71-.2.59-.44 1.31-.68 2.02-.24.73-.49 1.45-.69 2.05l-.02.06c-.26.81-.69 2.31-1.06 3.64-.17.6-.32 1.13-.43 1.49l-.03.11c-.08.32-.21.85-.33 1.4-.1.42-.22.95-.27 1.16-.69 2.66-1.23 5.75-1.7 8.47l-.07.41-.03.18c-.04.33-.11.86-.18 1.45-.15 1.24-.36 2.93-.46 3.64l-.31 3.79c-1.3 18.04 1.96 36.44 9.24 52.86-30.61-8.4-55.39-28.81-67.48-56.15l-.62-1.35Zm350.51-24.95c-3.38 12.64-9.07 24.22-16.92 34.44-15.16 19.74-37.09 32.34-61.74 35.48-11.07 1.43-22.28.73-33.32-2.06a92 92 0 0 1-30.42-13.95c-10.95-7.62-20.39-17.97-27.31-29.94-6.83-11.82-11.21-25.21-12.67-38.72v-.03c-1.53-13.22-.38-26.84 3.4-40.63 4.66 6.65 10.04 12.74 16.07 18.2l2.6 2.33.22.19c.52.4 1.28 1.02 2.01 1.62.73.59 1.48 1.21 2.06 1.66l.08.06c.31.23.99.72 1.72 1.25.94.68 2.12 1.53 2.48 1.81l.14.11.15.1c.56.35 1.25.81 1.98 1.3.83.55 1.68 1.12 2.42 1.59l.08.05c.37.22.74.44 1.12.67 1.13.68 2.31 1.38 3.48 2.03l.18.1c.48.24 1.08.56 1.72.9 1.05.56 2.13 1.14 3.06 1.57l.06.03c.54.24 1.23.56 1.89.88.68.32 1.37.65 1.99.92l.45.22.55.22c2.98 1.23 5.78 2.29 8.32 3.16 1.1.41 2.58.84 4.01 1.26.76.22 1.48.43 1.99.59l2.86.72c.3.07.62.15.94.24.83.21 1.76.46 2.67.6h.02c2.05.42 4.85.99 7.02 1.25 2.72.45 5.4.68 8.01.9l.26.02c1.23.05 3.09.13 4.27.21h.19c1.11.03 2.36.05 3.65.05 1.8 0 3.68-.04 5.4-.16 1.49-.05 3.41-.23 5.11-.4.73-.07 1.42-.14 2.01-.19l5.46-.8.13-.02c.55-.1 1.49-.29 2.49-.49.99-.2 2.11-.43 2.64-.52l3.62-.89c1.49-.33 3.37-.91 5.04-1.42.7-.21 1.35-.42 1.91-.58l.3-.1c.46-.17 1.33-.48 2.17-.78 1.08-.38 2.19-.77 2.82-1.02l.05-.02c.73-.29 2.05-.85 3.21-1.34.66-.28 1.27-.54 1.68-.71l.07-.03c1.06-.46 2.12-.98 3.15-1.48.73-.35 1.41-.69 2.08-.99l.19-.09c1-.52 2.68-1.44 4.03-2.17l1.05-.57 2.43-1.47c.14-.09.36-.22.6-.37.77-.46 1.38-.83 1.73-1.06l.1-.06c.54-.37 1.08-.73 1.62-1.1 1.67-1.13 3.4-2.3 5.07-3.61.32-.25.71-.55 1.12-.86.59-.45 1.21-.91 1.7-1.32l2.7-2.26c.8-.66 1.95-1.68 2.8-2.5l1.83-1.7c.41-.36.99-.95 2.09-2.11.39-.4.92-.96 1.06-1.1l.08-.08c.99-.99 2.04-2.19 2.97-3.24.24-.27.47-.54.7-.79.92-.99 2.06-2.44 3.07-3.72.36-.45.69-.87.97-1.22l.04-.05c.29-.36.58-.76.89-1.18 1.15 4.53 2.01 9.01 2.57 13.41 1.81 13.44.98 26.82-2.49 39.78ZM410.47 239.14c12.97-1.91 25.9-1.23 38.45 2.01.85.26 1.89.56 2.89.84.47.14.93.27 1.35.39l4.07 1.36c.45.18.95.37 1.46.57 1.27.49 2.71 1.05 3.73 1.53l2.75 1.21 2.56 1.29 1.27.62 1.17.67 2.56 1.43 2.44 1.51.13.08c.66.38 1.57 1.01 2.37 1.57q.555.39 1.05.72c3.14 2.16 6.46 4.85 9.89 7.99l.09.08c.49.42 1.11 1.05 1.71 1.66.43.43.87.88 1.29 1.28l.4.4c.48.53.97 1.06 1.46 1.59.46.5.93 1 1.38 1.51l.4.49 1.03 1.21.08.09c.82.91 1.59 1.92 2.41 2.99.34.44.68.89 1.02 1.32.24.34.6.84.93 1.32.27.39.53.76.71 1.01l.08.11c.56.73 1.35 1.99 2.05 3.09.34.54.67 1.05.95 1.49.32.54.65 1.13 1 1.75.35.63.72 1.28 1.08 1.89l.44.85c.53 1.03 1.18 2.3 1.52 2.93.59 1.25 1.36 2.91 1.7 3.7.35.91 1.27 3.18 1.61 3.99l.92 2.65.06.16c.22.55.56 1.64.78 2.42l.83 2.76c.11.45.26 1.03.42 1.64.22.86.48 1.84.59 2.37.16.86.62 3.25.84 4.26.08.51.15 1.04.23 1.58.13.88.25 1.79.4 2.66.06.49.15 1.43.24 2.26.07.72.14 1.41.19 1.87.03.73.08 1.44.12 2.13.07 1.19.14 2.32.15 3.42-.02.5-.02 1.47 0 3.11v.5c-.03.4-.05.9-.08 1.57 0 .25-.02.47-.03.62-.02.39-.08 1.57-.09 2.25-.05.52-.1 1.14-.15 1.78-.08 1.08-.18 2.31-.28 3.04v.05c-.38 2.98-.88 6.48-1.7 9.84l-.03.13c-.4 1.93-1.2 4.7-1.43 5.5l-.02.09c-.24.91-.58 1.89-.93 2.93-.2.59-.41 1.19-.6 1.8-.18.48-.47 1.23-.75 1.98-.3.79-.6 1.57-.79 2.07l-1.45 3.35c-2.35 5.16-4.98 9.88-7.82 14.02l-.34.52c-.39.6-.93 1.41-1.24 1.81l-.14.18c-.99 1.4-2.52 3.4-3.57 4.66l-.13.16c-.61.81-1.53 1.85-2.43 2.86-.5.57-.98 1.11-1.42 1.62-3.87 4.13-7.47 7.49-11 10.27l-.06.05c-2.57 2.11-5.5 4.23-8.7 6.31l-.06.04c-.65.43-1.74 1.08-2.7 1.64-.69.4-1.34.79-1.9 1.13-.61.32-1.31.71-2 1.09-.52.29-1.02.57-1.46.8l-.03.02c-.88.48-2.4 1.21-3.62 1.8-.45.22-.87.42-1.23.6-.68.28-1.39.6-2.07.9-.55.24-1.09.49-1.62.71l-.06.03c-.87.39-2.31.93-3.59 1.41-.56.21-1.1.41-1.55.59-1.37.44-3.02 1-4.62 1.54-.15.04-.36.11-.62.18-.73.21-2.67.78-3.07.87l-.17.04-.17.05c-.16.05-.32.1-.49.14 3.18-6.97 5.6-14.16 7.22-21.48 2.24-10.09 3.07-20.35 2.45-30.5-.02-.65-.11-1.48-.19-2.3-.05-.47-.1-.96-.11-1.24-.09-1.62-.39-3.73-.65-5.6-.08-.59-.16-1.14-.22-1.61l-.02-.14c-.15-.9-.33-1.86-.51-2.78-.17-.85-.32-1.65-.44-2.38l-.03-.16c-.13-.61-.39-1.7-.67-2.86-.22-.9-.44-1.83-.54-2.26l-.07-.28c-.13-.45-.3-1.03-.47-1.65-.33-1.17-.71-2.5-.99-3.41l-.38-1.12c-.45-1.33-.91-2.7-1.38-4.01l-.07-.19c-.2-.49-.47-1.18-.76-1.92-.43-1.09-.87-2.22-1.22-3.03l-.17-.37c-.35-.76-1-2.16-1.27-2.79l-.07-.15c-.08-.17-.14-.32-.21-.47-.14-.33-.32-.74-.59-1.24-4.53-9.26-10.27-17.79-17.09-25.35-.51-.62-1.29-1.42-2.4-2.55-.51-.52-1.03-1.05-1.28-1.33l-.03-.03c-.55-.59-1.28-1.27-1.93-1.87-.28-.26-.54-.5-.77-.72-2.88-2.75-6.2-5.52-10.46-8.7l-.05-.04c-1.41-1.02-3.91-2.73-5.17-3.57l-.12-.08c-.94-.58-3.49-2.14-4.48-2.75l-3.2-1.75c-1.55-.9-3.54-1.84-5.29-2.67-.56-.27-1.1-.52-1.58-.76l-.25-.11c-.29-.12-.68-.29-1.09-.46-.59-.25-1.2-.51-1.68-.7-1.82-.81-3.64-1.46-5.4-2.09-.44-.16-.88-.31-1.32-.47-.92-.34-2.11-.7-3.06-.99l-.57-.17c-.23-.06-.6-.18-1-.31-.74-.23-1.25-.39-1.61-.49-1.09-.29-3.96-1.02-5.18-1.31l-.18-.04c-.69-.13-1.95-.38-2.43-.49l-.08-.02c-3.4-.7-6.87-1.23-10.39-1.59 6.83-6.79 14.08-12.42 21.98-17.06 11.28-6.71 23.56-11.08 36.49-12.98Zm-144.94 94.04.09-.13c.59-.88 1.57-2.13 2.44-3.24.44-.56.85-1.08 1.21-1.56l1.67-1.94.05-.06c.96-1.16 2-2.26 3.11-3.43.25-.26.49-.52.74-.78.68-.69 1.49-1.46 2.27-2.21.44-.42.87-.83 1.28-1.23.44-.38 1.04-.91 1.67-1.46.57-.51 1.21-1.08 1.55-1.37l1.7-1.35.03-.02c10.08-8.12 22.21-14.14 35.08-17.41 1.41-.29 2.8-.61 4.16-.93.73-.11 1.45-.25 2.14-.38s1.34-.25 1.97-.35c.45-.06 1.04-.14 1.65-.23.88-.13 1.88-.27 2.49-.33.55-.04 1.2-.11 1.86-.17.61-.06 1.22-.12 1.73-.16 17.15-1.2 34.33 2.55 49.68 10.83a93.96 93.96 0 0 1 36.61 35.46c.22.4.46.84.72 1.29.43.77.88 1.57 1.24 2.24l1.99 3.98c.7 1.56 1.28 2.87 1.77 4.02.13.35.33.83.53 1.35.38.95.85 2.13 1.09 2.78l.97 2.89.02.06c1.2 3.44 2.08 7.01 2.79 10.07.14.73.31 1.59.48 2.42.12.61.24 1.21.35 1.73.79 4.73 1.25 8.82 1.42 12.51v.16c.05.5.06 1.19.06 1.86 0 .4 0 .79.02 1.15v.14c.02.28.05 1.67.05 2.13-.01.55-.03 1.44-.05 2.34s-.04 1.81-.05 2.38c-.03.45-.07.94-.11 1.44-.09 1.13-.18 2.3-.24 3.35-.06.57-.17 1.53-.27 2.46-.1.86-.2 1.71-.25 2.26-.05.3-.1.63-.15.96-.15.97-.32 2.08-.48 2.93l-.04.3c-.02.18-.1.72-.14.94l-.06.25c-.14.64-.27 1.28-.4 1.93-.31 1.53-.6 2.98-.99 4.38l-.04.14c-.15.64-.5 2.03-.67 2.72 0 .03-.02.05-.02.08-4.63-6.57-9.96-12.6-15.93-18l-2.6-2.33-.22-.19c-.52-.41-1.28-1.02-2.02-1.62-.73-.59-1.48-1.2-2.05-1.66l-.08-.06c-.31-.23-.99-.72-1.72-1.25-.94-.68-2.12-1.54-2.48-1.81l-.14-.11-.15-.1c-.56-.35-1.25-.81-1.98-1.3-.83-.55-1.68-1.12-2.42-1.59l-.08-.05c-.37-.22-.74-.44-1.12-.67-1.13-.68-2.31-1.38-3.48-2.04l-.18-.1c-.48-.24-1.08-.56-1.72-.9-1.05-.56-2.13-1.14-3.06-1.57l-.06-.03c-.54-.24-1.23-.56-1.9-.88s-1.37-.65-1.99-.92l-.45-.22-.55-.22c-3.02-1.25-5.74-2.28-8.32-3.16-1.1-.41-2.58-.84-4.01-1.26-.76-.22-1.47-.43-1.99-.59l-2.86-.72c-.3-.07-.62-.15-.94-.24-.83-.21-1.76-.46-2.67-.6h-.02c-2.05-.42-4.85-.99-7.02-1.25-2.71-.45-5.4-.68-8-.9l-.26-.02c-1.23-.05-3.09-.13-4.27-.21h-.19c-2.67-.06-6.1-.1-9.05.1-1.49.05-3.41.23-5.11.4-.73.07-1.42.14-2.01.19l-5.46.8-.13.02c-.55.1-1.49.29-2.49.49-.99.2-2.11.43-2.64.52l-3.62.89c-1.49.33-3.37.91-5.04 1.42-.7.21-1.35.42-1.91.58l-.3.1c-.46.17-1.33.48-2.17.78-1.08.38-2.19.77-2.82 1.02l-.05.02c-.73.29-2.05.85-3.22 1.34-.66.28-1.27.54-1.68.7l-.07.03c-1.06.46-2.12.98-3.15 1.48-.73.35-1.41.69-2.08.99l-.19.09c-1 .52-2.67 1.43-4.02 2.17l-1.06.58-2.43 1.47c-.14.09-.36.22-.61.37-.76.46-1.38.83-1.73 1.06l-.1.06c-.54.37-1.08.73-1.62 1.1-1.67 1.13-3.4 2.3-5.07 3.61-.32.25-.71.55-1.12.86-.59.45-1.21.91-1.7 1.32l-2.7 2.26c-.8.66-1.95 1.68-2.8 2.5l-1.83 1.7c-.41.36-.99.95-2.1 2.11-.39.4-.92.96-1.06 1.09l-.08.08c-.99.99-2.04 2.19-2.97 3.24-.24.27-.47.54-.7.79-.92.99-2.06 2.44-3.07 3.72-.36.45-.69.88-.97 1.22l-.04.05c-.5.64-1.03 1.38-1.56 2.12-1.27-4.88-2.22-9.7-2.82-14.42-3.37-25.66 3.03-51.81 17.57-71.73Zm154.29 290.95-.17-.03c-.86-.14-2.38-.51-3.61-.8-.68-.16-1.32-.32-1.86-.44-.44-.13-.94-.27-1.46-.41-.9-.25-1.82-.52-2.58-.74l-1.3-.46-2.81-.93c-.99-.38-2.71-1.04-3.89-1.52l-3.96-1.76c-18.74-8.91-34.08-23.99-43.2-42.46l-.04-.07c-.17-.33-.42-.89-.65-1.39-.19-.42-.37-.83-.52-1.14-.5-1.05-1.09-2.5-1.61-3.79-.24-.59-.47-1.15-.68-1.67-.1-.29-.24-.68-.37-1.06-.16-.47-.33-.94-.44-1.25l-.02-.05c-.43-1.13-.78-2.34-1.16-3.62-.17-.57-.33-1.14-.51-1.7l-.04-.13c-.12-.34-.27-.98-.4-1.5-.09-.37-.17-.73-.26-1.04l-.02-.07c-.33-1.17-.63-2.7-.91-4.19q-.18-.96-.36-1.83c-.18-1.29-.42-2.89-.63-4.18-.05-.52-.11-1.08-.17-1.65-.16-1.5-.35-3.21-.37-4.47v-.21q-.03-.315-.06-.69c-.05-.68-.11-1.52-.11-2v-.11c-.03-.92-.03-3.22-.03-4.21.05-.94.08-1.93.11-2.88.02-.48.03-.95.05-1.41.02-.23.05-.53.08-.87.13-1.43.25-2.68.29-3.4l.11-.79c.28-2.14.55-4.16.94-6.19l.27-1.45.05-.34.21-.89c.14-.57.27-1.14.39-1.68.2-.88.38-1.71.6-2.48l.41-1.42.05-.19c.29-1.2.69-2.42 1.13-3.7.21-.63.43-1.28.64-1.94.46-1.16 1.01-2.61 1.44-3.78.27-.7.59-1.4.92-2.15.26-.58.52-1.19.78-1.81.58-1.21 1.25-2.59 1.88-3.89.34-.64.68-1.26 1.03-1.89.35-.64.7-1.29 1.05-1.94.67-1.1 1.42-2.36 2.25-3.75.4-.59 1.01-1.51 1.57-2.35.32-.49.63-.95.86-1.3.32-.42.79-1.06 1.28-1.75.5-.69 1.07-1.46 1.33-1.81.46-.57.95-1.18 1.43-1.78s.96-1.2 1.41-1.76c11.62-13.79 26.99-24.39 44.44-30.65 3.62-1.26 7.18-2.34 10.63-3.22a109.9 109.9 0 0 0-9.66 32.23c-1.98 14.36-1.07 29.2 2.61 42.91 5.93 23.22 19.92 44.24 39.38 59.19 16.15 12.41 35.41 20.13 55.22 22.31-10.83 10.5-23.46 18.65-37.02 23.81-17.36 6.62-36.03 8.22-53.97 4.62Z"/></svg>