<svg xmlns="http://www.w3.org/2000/svg" viewBox="0 0 864 864"><path d="M432 720c76.93 0 149.25-29.96 203.65-84.35C690.05 581.25 720 508.93 720 432s-29.96-149.25-84.35-203.65C581.25 173.95 508.93 144 432 144s-149.25 29.96-203.65 84.35C173.95 282.75 144 355.07 144 432s29.96 149.25 84.35 203.65C282.75 690.05 355.07 720 432 720M180.29 444h104.85c1.48 69.46 15.78 134.51 40.67 184.29 8.4 16.79 17.73 31.28 27.79 43.33-37.21-12.13-71.31-32.95-99.79-61.43-44.76-44.76-70.6-103.39-73.52-166.19m222.35-262.3c5.75-.66 11.53-1.14 17.36-1.41V420H309.14c1.46-65.77 14.86-127.01 38.14-173.55 15.91-31.83 34.96-53.91 55.37-64.75Zm114.09 64.75C540 292.99 553.41 354.24 554.87 420H444.01V180.29c5.83.27 11.61.75 17.36 1.41 20.41 10.84 39.45 32.92 55.37 64.75ZM461.36 682.3c-5.75.66-11.53 1.14-17.36 1.41V444h110.86c-1.46 65.77-14.86 127.01-38.14 173.55-15.91 31.83-34.96 53.91-55.37 64.75ZM420 444v239.71c-5.83-.27-11.61-.75-17.36-1.41-20.41-10.84-39.45-32.92-55.37-64.75C324 571.01 310.59 509.76 309.13 444h110.86Zm190.19 166.19c-28.48 28.48-62.58 49.29-99.79 61.43 10.06-12.05 19.39-26.54 27.79-43.33 24.89-49.77 39.19-114.82 40.67-184.29h104.85c-2.92 62.8-28.77 121.43-73.52 166.19M683.71 420H578.86c-1.48-69.46-15.78-134.51-40.67-184.29-8.4-16.79-17.73-31.28-27.79-43.33 37.21 12.13 71.31 32.95 99.79 61.43 44.76 44.76 70.6 103.39 73.52 166.19m-429.9-166.19c28.48-28.48 62.58-49.29 99.79-61.43-10.06 12.05-19.39 26.54-27.79 43.33-24.89 49.77-39.19 114.82-40.67 184.29H180.29c2.92-62.8 28.77-121.43 73.52-166.19"/></svg>