<svg xmlns="http://www.w3.org/2000/svg" viewBox="0 0 864 864"><path d="M432 144c-73.71 0-147.41 28.12-203.65 84.35-112.47 112.47-112.47 294.82 0 407.29 56.24 56.24 129.94 84.35 203.65 84.35s147.41-28.12 203.65-84.35c112.47-112.47 112.47-294.82 0-407.29C579.41 172.11 505.71 144 432 144m252 288c0 32.75-6.21 64.66-18.45 94.85-12.67 31.24-31.29 59.28-55.36 83.35s-52.11 42.69-83.35 55.36c-30.19 12.24-62.1 18.45-94.85 18.45s-64.66-6.21-94.85-18.45c-31.24-12.67-59.28-31.29-83.35-55.36s-42.69-52.11-55.36-83.35c-12.24-30.19-18.45-62.1-18.45-94.85s6.21-64.66 18.45-94.85c12.67-31.24 31.29-59.28 55.36-83.34s52.11-42.69 83.35-55.36c30.19-12.24 62.1-18.45 94.85-18.45s64.66 6.21 94.85 18.45c31.24 12.67 59.28 31.29 83.35 55.36s42.69 52.11 55.36 83.35c12.24 30.19 18.45 62.1 18.45 94.85Z"/><path d="M491.9 239.62a11.99 11.99 0 0 0-10.02-8.79c-4.81-.63-9.53 1.69-11.96 5.9L277.36 570.26c-2.72 4.7-1.93 10.64 1.91 14.49 2.31 2.31 5.38 3.51 8.49 3.51 2.05 0 4.12-.53 6-1.61l333.53-192.56a12.02 12.02 0 0 0 5.9-11.96 11.98 11.98 0 0 0-8.79-10.02l-104.48-28-28-104.48Z"/></svg>