<svg xmlns="http://www.w3.org/2000/svg" viewBox="0 0 864 864"><path d="M576 182.56c-66.62-38.47-144.24-48.69-218.55-28.77-74.31 19.91-136.42 67.57-174.88 134.2s-48.68 144.25-28.77 218.56 67.57 136.42 134.19 174.89c44.38 25.62 93.63 38.71 143.54 38.71 25.01 0 50.2-3.29 75.01-9.94 74.31-19.91 136.42-67.57 174.88-134.2s48.68-144.25 28.77-218.56S642.62 221.03 576 182.56m-58.04 486.35-.28-.4c-.49-.72-.99-1.43-1.49-2.15-.61-.87-1.21-1.74-1.83-2.61-.51-.72-1.03-1.43-1.55-2.15-.63-.87-1.27-1.74-1.91-2.61-.53-.71-1.06-1.43-1.6-2.14-.66-.87-1.32-1.75-2-2.62-.54-.7-1.09-1.41-1.64-2.11-.69-.88-1.38-1.75-2.09-2.63-.56-.7-1.12-1.39-1.68-2.09-.72-.88-1.45-1.77-2.18-2.65-.57-.69-1.14-1.37-1.71-2.06-.75-.89-1.52-1.78-2.28-2.67-.58-.67-1.15-1.34-1.73-2.01-.79-.91-1.6-1.81-2.4-2.72-.58-.65-1.15-1.3-1.73-1.95q-1.26-1.395-2.55-2.79c-.57-.62-1.13-1.24-1.7-1.85-.91-.98-1.84-1.96-2.77-2.94l-1.59-1.68c-1.05-1.09-2.12-2.18-3.19-3.27l-1.29-1.32c-1.01-1.02-2.04-2.03-3.06-3.05 28.91-27.7 56.08-61.99 79.49-100.62l90.81 52.43c-30.03 46.84-73.97 81.85-126.04 100.65Zm-54.36-28.6c1.38 1.43 2.74 2.87 4.08 4.31.33.35.65.71.98 1.06.99 1.07 1.98 2.15 2.96 3.23.46.51.91 1.02 1.37 1.53.82.92 1.65 1.85 2.46 2.77.5.57.99 1.14 1.48 1.71.75.87 1.5 1.74 2.24 2.61.51.6 1.01 1.2 1.51 1.8.7.85 1.41 1.69 2.1 2.54.5.62 1 1.23 1.5 1.85.67.84 1.34 1.67 2 2.51.49.62.98 1.24 1.46 1.87.65.84 1.29 1.68 1.93 2.53.47.62.94 1.23 1.4 1.85.64.86 1.27 1.72 1.9 2.58l.9 1.23c-37.83 9.59-76.56 10.3-113.74 2.44 14.74-5.41 30.06-13.29 45.73-23.64 10.11-6.68 20.15-14.25 30.04-22.59l2.27 2.24c.44.44.88.87 1.32 1.31 1.28 1.29 2.54 2.58 3.79 3.87.12.12.24.25.37.37ZM346.04 195.09c.09.14.19.27.28.41.48.71.97 1.41 1.47 2.12.61.88 1.23 1.76 1.85 2.64l1.53 2.13c.64.88 1.28 1.75 1.92 2.63.52.71 1.05 1.42 1.59 2.12.66.88 1.33 1.75 2 2.63.54.7 1.09 1.41 1.64 2.11.69.88 1.39 1.76 2.09 2.64.56.7 1.11 1.39 1.68 2.09.72.88 1.45 1.77 2.18 2.65.57.69 1.14 1.37 1.71 2.06.75.89 1.52 1.78 2.28 2.68.58.67 1.15 1.34 1.73 2.01.79.91 1.59 1.81 2.4 2.72.58.65 1.15 1.3 1.74 1.95.84.93 1.7 1.86 2.55 2.79l1.7 1.85c.91.98 1.84 1.96 2.77 2.94.53.56 1.06 1.12 1.6 1.68 1.04 1.08 2.1 2.16 3.15 3.24.44.45.88.91 1.33 1.36 1.01 1.02 2.03 2.03 3.06 3.04-28.91 27.7-56.08 61.99-79.49 100.62l-90.81-52.43c30.03-46.84 73.96-81.85 126.04-100.65Zm54.37 28.61c-1.39-1.44-2.76-2.89-4.11-4.34-.29-.31-.56-.61-.85-.92-1.04-1.12-2.07-2.24-3.08-3.36-.44-.49-.87-.98-1.31-1.47-.84-.95-1.69-1.89-2.52-2.84-.48-.55-.96-1.11-1.44-1.66-.77-.89-1.53-1.77-2.28-2.66-.5-.59-.98-1.17-1.47-1.76q-1.08-1.29-2.13-2.58c-.49-.6-.98-1.21-1.47-1.81-.68-.85-1.36-1.7-2.03-2.56-.48-.61-.96-1.22-1.43-1.82-.66-.85-1.31-1.71-1.96-2.57-.46-.61-.92-1.21-1.37-1.82-.65-.87-1.28-1.74-1.92-2.61l-.89-1.22c20.62-5.23 41.5-7.82 62.26-7.82 17.34 0 34.58 1.81 51.51 5.39-14.74 5.41-30.07 13.29-45.74 23.64-10.11 6.68-20.15 14.25-30.04 22.59-.79-.77-1.57-1.55-2.34-2.32-.41-.41-.82-.81-1.23-1.22q-2.01-2.025-3.96-4.05c-.06-.07-.13-.13-.19-.2Zm55.77 376.33c-.13-.11-.25-.22-.38-.33-1.04-.92-2.07-1.84-3.12-2.75-.68-.59-1.37-1.19-2.06-1.78-1.01-.87-2.03-1.74-3.05-2.61-.72-.61-1.45-1.22-2.18-1.83-1-.84-2.01-1.68-3.02-2.51l-2.28-1.86c-1-.82-2.01-1.63-3.02-2.44-.78-.62-1.56-1.24-2.35-1.87-1.01-.8-2.02-1.6-3.04-2.39-.8-.62-1.61-1.25-2.42-1.87-1.02-.78-2.04-1.56-3.07-2.34-.82-.62-1.64-1.24-2.47-1.86-1.03-.77-2.06-1.54-3.1-2.3-.84-.62-1.67-1.23-2.52-1.84-1.04-.76-2.09-1.51-3.15-2.27-.85-.61-1.69-1.21-2.55-1.81-1.06-.75-2.13-1.5-3.2-2.24-.85-.6-1.71-1.19-2.57-1.78-1.08-.75-2.18-1.48-3.27-2.22l-2.58-1.74c-1.11-.74-2.23-1.48-3.35-2.21-.86-.56-1.71-1.13-2.57-1.69-1.15-.75-2.31-1.49-3.47-2.23-.84-.54-1.68-1.08-2.52-1.61-1.21-.77-2.44-1.52-3.66-2.28-.8-.5-1.6-1-2.4-1.49-.66-.4-1.33-.8-1.99-1.21l55.57-96.26 96.01 55.44c-22.54 37.13-48.62 69.94-76.23 96.2Zm-160.43 43.98a262 262 0 0 1-14.33-9.9c-12.25-19.6-17.71-48.24-15.57-83.77.62-10.26 1.85-20.83 3.68-31.62.39.13.78.26 1.17.4.87.3 1.75.6 2.62.9 1.11.39 2.23.79 3.34 1.19.85.3 1.7.61 2.55.92 1.16.42 2.33.86 3.49 1.29.81.3 1.61.6 2.42.91 1.28.49 2.57.99 3.85 1.49.69.27 1.37.53 2.06.8q2.94 1.155 5.88 2.37c.32.13.64.27.96.4 1.66.69 3.32 1.38 4.97 2.08.71.3 1.42.62 2.13.92 1.27.55 2.53 1.09 3.8 1.65.8.35 1.61.72 2.41 1.08 1.18.53 2.35 1.05 3.53 1.59.84.38 1.68.78 2.52 1.16 1.14.53 2.28 1.06 3.41 1.6.85.4 1.71.81 2.56 1.22 1.13.54 2.25 1.08 3.38 1.63.85.42 1.71.84 2.56 1.26 1.13.56 2.26 1.12 3.38 1.69.85.43 1.69.85 2.53 1.29 1.15.59 2.29 1.18 3.43 1.77.82.43 1.64.85 2.46 1.29 1.19.63 2.37 1.26 3.56 1.9.77.41 1.54.82 2.31 1.24l1.2.66-52.29 90.57Zm-50.19-157.46c-1.51-.39-3.03-.78-4.54-1.15-.73-.18-1.45-.35-2.17-.52-1.34-.32-2.68-.64-4.01-.95-.8-.18-1.59-.35-2.38-.53-1.26-.28-2.52-.56-3.77-.83-.83-.18-1.66-.34-2.49-.52-1.21-.25-2.42-.5-3.62-.73-.85-.17-1.7-.32-2.55-.48-1.18-.22-2.35-.44-3.53-.65-.86-.15-1.72-.3-2.57-.45-1.15-.2-2.3-.39-3.44-.57-.87-.14-1.73-.27-2.6-.4-1.13-.17-2.26-.34-3.38-.5l-2.59-.36c-1.11-.15-2.22-.29-3.33-.43-.86-.11-1.73-.21-2.59-.31-1.1-.13-2.19-.24-3.28-.36-.86-.09-1.71-.18-2.57-.26-1.09-.1-2.17-.2-3.25-.29l-2.53-.21c-.17-.01-.34-.03-.51-.04-9.76-54.5-1.41-110.06 24.14-159.49l90.81 52.43c-21.74 39.59-37.86 80.27-47.39 119.15-1.39-.38-2.79-.76-4.18-1.13-.56-.15-1.12-.28-1.68-.43Zm162.26-222.58c.14.12.28.24.41.37 1.02.91 2.04 1.81 3.07 2.71.7.61 1.4 1.21 2.11 1.82 1 .86 1.99 1.72 3 2.57.74.62 1.48 1.25 2.23 1.87.99.83 1.98 1.66 2.98 2.48.77.63 1.54 1.26 2.31 1.88.99.81 1.99 1.61 2.99 2.41.79.64 1.59 1.27 2.39 1.9 1 .79 1.99 1.57 3 2.36.81.63 1.63 1.26 2.45 1.9l3.03 2.31c.83.63 1.67 1.26 2.51 1.89 1.02.76 2.04 1.52 3.06 2.27.85.62 1.7 1.25 2.55 1.87 1.03.75 2.07 1.5 3.11 2.24.86.61 1.72 1.23 2.58 1.84 1.05.74 2.11 1.48 3.17 2.22.87.6 1.73 1.2 2.6 1.8 1.07.74 2.16 1.47 3.24 2.2l2.6 1.76c1.1.74 2.22 1.47 3.33 2.2.86.57 1.73 1.14 2.59 1.7 1.14.74 2.29 1.47 3.44 2.21.85.54 1.7 1.09 2.55 1.63 1.2.76 2.42 1.51 3.63 2.26.81.5 1.61 1.01 2.43 1.51.66.4 1.33.8 1.99 1.2l-55.57 96.26-96.01-55.44c22.54-37.13 48.62-69.94 76.23-96.2m160.43-43.98c4.91 3.15 9.68 6.46 14.33 9.9 12.25 19.6 17.71 48.24 15.57 83.77-.62 10.26-1.85 20.83-3.68 31.62l-1.14-.39c-.89-.3-1.78-.61-2.67-.92-1.09-.38-2.19-.77-3.29-1.17-.87-.31-1.74-.62-2.62-.94-1.13-.41-2.27-.84-3.4-1.26-.84-.31-1.67-.62-2.51-.94-1.25-.47-2.49-.96-3.74-1.45-.72-.28-1.45-.56-2.17-.84-1.95-.77-3.9-1.56-5.85-2.36-.39-.16-.77-.33-1.16-.49-1.59-.66-3.17-1.32-4.76-1.99-.75-.32-1.5-.65-2.25-.98-1.23-.53-2.45-1.06-3.68-1.6-.83-.37-1.65-.74-2.48-1.11-1.15-.51-2.3-1.03-3.44-1.55-.86-.4-1.73-.8-2.59-1.2-1.11-.52-2.23-1.04-3.34-1.56-.87-.41-1.75-.83-2.62-1.25-1.11-.53-2.22-1.07-3.32-1.61-.87-.43-1.74-.85-2.61-1.28-1.11-.55-2.22-1.11-3.33-1.67-.86-.44-1.73-.87-2.59-1.31-1.13-.58-2.25-1.16-3.38-1.75-.84-.43-1.67-.87-2.5-1.31-1.18-.62-2.35-1.25-3.53-1.88-.78-.42-1.56-.83-2.34-1.26-.4-.22-.8-.44-1.19-.66l52.29-90.57Zm-152.64 216.4-55.57 96.26c-.68-.37-1.36-.75-2.04-1.12-.82-.45-1.65-.88-2.47-1.32-1.27-.68-2.55-1.37-3.82-2.04-.88-.46-1.76-.92-2.65-1.37-1.22-.64-2.45-1.27-3.67-1.9-.91-.46-1.82-.92-2.74-1.38-1.2-.6-2.4-1.21-3.6-1.8-.93-.46-1.86-.91-2.8-1.36-1.19-.58-2.37-1.15-3.56-1.72-.94-.45-1.88-.89-2.82-1.33-1.19-.56-2.37-1.11-3.56-1.66-.94-.43-1.89-.86-2.83-1.29-1.18-.54-2.37-1.07-3.55-1.6-.95-.42-1.89-.84-2.84-1.25-1.19-.52-2.37-1.03-3.56-1.54-.94-.4-1.89-.81-2.83-1.2a543 543 0 0 0-6.39-2.64c-1.2-.49-2.4-.97-3.61-1.45-.93-.37-1.85-.74-2.78-1.1-1.21-.47-2.43-.94-3.64-1.4-.91-.35-1.82-.7-2.73-1.04-1.24-.46-2.48-.92-3.71-1.37-.88-.32-1.77-.65-2.65-.97-1.27-.46-2.54-.9-3.81-1.34-.85-.3-1.7-.6-2.55-.89-1.33-.46-2.66-.9-3.98-1.34-.15-.05-.29-.1-.44-.15 8.94-37.05 24.31-76.03 45.19-114.12l96.01 55.44Zm32.78-8.78 55.57-96.26c.68.37 1.36.75 2.04 1.12.83.45 1.66.89 2.49 1.34 1.26.68 2.53 1.36 3.8 2.03.89.47 1.78.93 2.67 1.39 1.22.63 2.43 1.26 3.65 1.88.92.47 1.84.93 2.76 1.39 1.19.6 2.38 1.2 3.58 1.79.94.46 1.87.92 2.81 1.37 1.18.57 2.36 1.15 3.54 1.71l2.85 1.35c1.17.55 2.34 1.1 3.51 1.64.96.44 1.91.87 2.87 1.31 1.17.53 2.35 1.06 3.52 1.58.95.42 1.91.84 2.86 1.26 1.18.52 2.35 1.03 3.53 1.53.95.41 1.91.81 2.86 1.22a532 532 0 0 0 6.39 2.65c1.19.48 2.38.96 3.57 1.43.94.37 1.87.74 2.81 1.11 1.21.47 2.41.93 3.62 1.39l2.76 1.05c1.23.46 2.45.91 3.68 1.36.9.33 1.8.66 2.69.98 1.25.45 2.51.89 3.76 1.33.87.3 1.73.61 2.6.91 1.31.45 2.61.88 3.91 1.32.17.06.34.11.5.17-8.94 37.05-24.31 76.03-45.19 114.12l-96.01-55.44Zm164.19-51.72c1.39.38 2.78.76 4.16 1.13.6.16 1.2.3 1.79.46 1.48.38 2.95.76 4.42 1.12l2.24.54c1.32.32 2.64.63 3.95.94.81.19 1.62.36 2.43.54 1.24.28 2.48.55 3.72.82.85.18 1.69.35 2.54.52q1.785.375 3.57.72c.87.17 1.73.33 2.59.49 1.16.22 2.32.43 3.47.64.88.16 1.75.3 2.62.45 1.14.19 2.27.38 3.4.57a382 382 0 0 0 5.97.9q1.32.195 2.64.36c1.09.15 2.19.29 3.28.42.88.11 1.76.21 2.64.31 1.08.12 2.16.24 3.23.35.87.09 1.75.18 2.62.26 1.07.1 2.13.19 3.19.28.87.07 1.73.15 2.6.21.16.01.32.03.49.04 9.76 54.5 1.41 110.06-24.14 159.49l-90.81-52.43c21.74-39.59 37.86-80.27 47.39-119.15Zm60.41-12.64c-1.07-.11-2.13-.23-3.21-.35-.77-.09-1.54-.19-2.31-.28-1.04-.13-2.08-.27-3.13-.41-.79-.11-1.59-.22-2.38-.34-1.04-.15-2.07-.3-3.12-.47-.81-.12-1.61-.25-2.42-.38-1.04-.17-2.09-.35-3.14-.53-.81-.14-1.62-.28-2.43-.43q-1.605-.285-3.21-.6c-.8-.15-1.6-.3-2.4-.46-1.11-.22-2.23-.45-3.34-.68-.77-.16-1.53-.31-2.3-.48-1.25-.27-2.5-.55-3.76-.83-.64-.14-1.28-.28-1.92-.43-1.88-.43-3.76-.88-5.65-1.35-.49-.12-.99-.25-1.48-.38-1.42-.36-2.84-.72-4.27-1.09-.76-.2-1.52-.41-2.29-.62-.89-.24-1.77-.48-2.66-.73 2.28-12.74 3.82-25.22 4.54-37.32 1.13-18.75.29-35.96-2.4-51.43 25.4 28.27 44.16 62.18 54.76 99.74-.5-.05-.99-.1-1.49-.16ZM547.47 207.98l-52.29 90.57c-.39-.24-.79-.47-1.18-.71-.74-.45-1.47-.91-2.21-1.37-1.15-.71-2.3-1.43-3.45-2.15-.77-.49-1.54-.98-2.32-1.47-1.1-.7-2.2-1.4-3.29-2.11-.78-.51-1.56-1.01-2.33-1.52-1.07-.7-2.14-1.41-3.21-2.12-.78-.52-1.55-1.03-2.32-1.55l-3.18-2.16c-.75-.52-1.51-1.03-2.26-1.55-1.07-.74-2.14-1.49-3.21-2.24-.72-.5-1.44-1.01-2.15-1.52-1.11-.79-2.21-1.59-3.31-2.38-.65-.47-1.31-.94-1.96-1.42-1.22-.89-2.44-1.79-3.65-2.7-.52-.38-1.04-.76-1.55-1.15-3.46-2.6-6.87-5.23-10.22-7.89-.41-.32-.8-.65-1.21-.97-1.25-1-2.51-2.01-3.74-3.02-.56-.45-1.11-.91-1.66-1.37-1.07-.88-2.15-1.77-3.21-2.66-.61-.51-1.2-1.02-1.81-1.53-1-.85-2-1.69-2.98-2.54-.62-.53-1.23-1.07-1.85-1.6-.36-.32-.72-.63-1.08-.95 8.43-6.98 16.96-13.34 25.54-19 28.54-18.84 55.08-28.45 77.6-28.45.92 0 1.84.02 2.75.05 5.3 2.3 10.54 4.79 15.72 7.46ZM190.98 500.75c1.08.11 2.16.23 3.25.36.76.09 1.52.19 2.28.28 1.05.13 2.1.27 3.16.41l2.36.33c1.04.15 2.09.31 3.14.47.8.12 1.6.25 2.4.38 1.05.17 2.11.35 3.17.53.8.14 1.6.28 2.41.42 1.07.19 2.15.4 3.23.6.79.15 1.58.3 2.38.46 1.13.22 2.26.46 3.39.69.75.16 1.5.31 2.25.47 1.27.27 2.54.56 3.82.85.62.14 1.24.27 1.86.42 1.88.44 3.77.89 5.66 1.35.45.11.91.23 1.36.35 1.46.37 2.92.74 4.38 1.12l2.22.6c.9.24 1.81.49 2.72.74-2.28 12.74-3.82 25.22-4.54 37.32-1.12 18.75-.29 35.96 2.4 51.43-25.4-28.27-44.15-62.18-54.76-99.74l1.46.15Zm125.55 155.26 52.29-90.57c.39.24.78.47 1.16.7.75.46 1.5.93 2.25 1.39 1.14.7 2.27 1.41 3.4 2.12.79.49 1.57.99 2.35 1.49 1.09.69 2.17 1.39 3.25 2.09.79.51 1.58 1.03 2.37 1.54 1.06.7 2.12 1.39 3.18 2.1.79.52 1.57 1.05 2.35 1.57 1.05.71 2.1 1.42 3.14 2.13.77.53 1.54 1.05 2.3 1.58 1.06.73 2.1 1.47 3.15 2.2.74.52 1.47 1.03 2.2 1.55 1.09.77 2.17 1.55 3.24 2.33.68.49 1.36.98 2.03 1.47 1.19.87 2.36 1.74 3.54 2.62.55.41 1.11.82 1.66 1.23 1.63 1.23 3.26 2.46 4.87 3.7.08.06.16.12.25.19 1.7 1.31 3.39 2.64 5.07 3.97.46.36.91.73 1.36 1.09 1.2.96 2.4 1.92 3.59 2.89.59.48 1.18.97 1.76 1.45 1.04.86 2.08 1.71 3.11 2.57.63.53 1.25 1.06 1.88 1.59.97.83 1.95 1.65 2.91 2.48.64.55 1.27 1.1 1.91 1.65.35.3.7.61 1.04.92-8.43 6.98-16.96 13.34-25.54 19-29.7 19.61-57.23 29.21-80.33 28.39-5.31-2.3-10.56-4.78-15.74-7.46Z"/></svg>