<svg xmlns="http://www.w3.org/2000/svg" viewBox="0 0 864 864"><path d="M569.5 440.83c-2.14-5.93-8.19-7.18-13.79-6.13-8.23 1.49-16.41 3.67-24.8 2.02-4.31-.85-7.18-2.42-11.09-4.19-9.84-4.48-20.48-4.15-31.05-4.15-12.14 0-63.1 1.37-75.6-2.22-9.07-2.58-18.1-9.39-18.91-19.35 5.08-4.76 6.13-15.69 6.53-21.37.24-3.51.48-7.02.69-10.52 8.02-.36 16.21-2.34 22.7-7.18 6.57-4.88 11.13-11.98 12.34-20.16.44-3.06-.73-6.69-4.23-7.46-4.6-.97-9.35-1.49-14.07-1.77-7.86-.48-16.37-.2-23.79 2.7-.2-.2-1.85-1.61-2.5-2.1 22.34-10.97 44.35-27.3 51.85-51.61 3.1-10.08 2.9-20.77.44-30.97-1.81-7.58-13.51-4.35-11.65 3.23 5.36 22.3-5.97 40.12-22.02 53.31 3.63-9.92 4.84-20.64 5.24-31.09.12-3.27-2.86-6.05-6.05-6.05-3.39 0-5.93 2.78-6.05 6.05-.2 5.77-.81 11.45-1.9 17.02-6.73.65-11.01-1.45-15.89-7.06-2.1-2.38-6.49-2.26-8.55 0-2.38 2.58-2.18 5.97 0 8.55 4.23 5.08 10.12 9.11 16.73 10.2 1.45.24 2.86.36 4.27.4-1.77 6.21-6.85 13.19-9.96 16.21-4.07 2.1-6.57 3.19-12.98 6.21-2.22-.2-9.72-.32-11.33-.24-5.48-2.62-8.99-4.03-12.46-5.81-.12-.16-6.94-8.87-10.12-16.41 1.41-.08 2.86-.2 4.27-.4 6.65-1.09 12.5-5.12 16.73-10.2 1.05-1.25 1.77-2.58 1.77-4.27 0-1.49-.65-3.27-1.77-4.27-2.22-2.06-6.53-2.7-8.55 0-4.4 5.81-10.48 8.63-15.89 7.06-1.09-5.6-1.65-11.25-1.9-17.02-.12-3.27-2.7-6.05-6.05-6.05s-6.17 2.78-6.05 6.05c.4 10.73 1.65 21.77 5.52 31.85-9.6-7.58-17.54-16.81-21.41-28.27-2.86-8.43-2.94-17.18-.89-25.81 1.81-7.58-9.84-10.81-11.65-3.23-4.19 17.42-.77 35.08 9.92 49.47 9.27 12.5 21.93 22.02 35.48 29.52 2.22 1.21 4.44 2.34 6.69 3.47-.97.89-1.81 1.85-2.54 2.86-6.53-2.86-17.22-3.79-25.2-3.31-4.68.28-9.44.81-14.07 1.77-3.47.73-4.68 4.4-4.23 7.46 1.21 8.19 5.77 15.28 12.34 20.16 6.9 5.12 15.69 7.06 24.11 7.22 0 2.3.04 4.64.24 6.94.56 7.58 2.94 21.09 9.03 25.44-12.34 17.02-17.42 46.29-8.75 67.1 3.19 7.66 8.87 12.58 14.92 17.42 4.56 17.06 7.3 34.72 8.95 52.26 1.81 19.39 3.43 40.44-4.4 58.79-1.73 4.03.2 9.11 5.24 9.11h22.18c3.15 0 6.25-2.78 6.05-6.05-.65-11.01 3.35-48.59 4.52-56.21 1.98 5.48 12.1 28.43 14.56 34.68 2.22 5.65 4.35 12.3 1.45 18.06-2.02 4.03.44 9.07 5.24 9.11 8.63.08 17.22.36 25.85.4 3.87 0 6.94-3.87 5.85-7.66-6.05-20.52-11.65-41.17-17.66-61.69-1.57-5.32-2.1-8.67.16-13.83 1.33-3.1 2.5-6.25 3.51-9.48 13.71 2.82 27.66 3.75 41.49 2.78 1.53 6.49 19.07 22.9 24.19 24.52-.28 8.35-6.01 26.57-9.92 35.89-3.27 7.74-8.91 14.64-8.87 23.43 0 3.27 2.74 6.05 6.05 6.05h30.93c8.31-.12 16.65 0 24.96 0 3.71 0 7.18-3.91 5.85-7.66-6.57-18.43-4.6-39.56-4.6-58.79 0-10.64.24-20.69-4.19-30.52-4.6-10.2-1.53-21.25.2-31.89 11.05-5.32 20.32-15.73 25.56-26.53 2.3-4.72 4.48-10.48 2.58-15.69l.16-.08ZM351 364.42c.52-5.44.81-13.51 5.52-17.18 3.39-2.66 10.28-2.14 12.42-2.14 5.28 0 11.77.44 15.93 3.55 1.45 1.09 3.67 3.47 4.35 8.99.28 2.14-.16 24.27-.4 27.42-3.23-2.86-7.06-5.04-11.41-6.21-8.87-2.42-20.64-1.05-26.65 6.01-.93-6.9-.36-14.31.2-20.4zm4.76 33.67c5.36-6.25 8.91-8.23 14.56-8.23 6.17 0 11.77 4.56 14.56 9.19-3.06 3.95-8.06 5.36-13.19 5.77-5.93.44-11.69-.69-15.93-6.73m67.21-47.25s-5.69 10.6-21.33 11.98c-.08-1.94-.16-3.83-.32-5.77-.16-1.77-.48-3.55-.93-5.24 10.48-3.1 18.87-2.22 22.62-.93zm-107.62 0c4.07-1.21 16.65-2.34 25.28 1.81-.28 1.21-.52 2.42-.73 3.63-.32 2.18-.65 4.35-.89 6.57-10.28 1.81-20.48-4.23-23.71-12.02h.04Zm73.23 176.2c-3.63 14.48-5.56 29.43-7.02 44.23-.93 9.39-1.98 19.03-1.98 28.59h-7.62c5.2-17.54 4.6-35.97 2.98-54.27-1.17-13.39-3.02-26.85-5.65-40.12 6.77 6.85 13.02 14.15 19.27 21.53v.04Zm49.27-19.43c.52-3.87.65-7.78.56-11.69 18.51 7.5 39.15 8.91 58.51 3.67.4 2.34.89 4.64 1.41 6.94-19.64 4.8-43.55 5.6-60.48 1.09Zm66.05 75.04c3.87-9.84 6.85-20.16 8.59-30.6.77-4.68.85-9.15-2.26-13.02-2.3-2.86-5.6-4.56-8.59-6.57-4.6-3.02-9.8-6.77-12.46-11.81 4.23-.65 8.43-1.49 12.62-2.5 0 6.81 12.94 17.26 12.7 26.57-.48 18.39-2.34 36.81-3.75 55.2h-15.04c.81-1.77 1.81-3.47 2.74-5.16 2.14-3.87 3.83-7.94 5.44-12.06v-.04Zm30.36-109.6c-2.78 1.01-4.11 2.98-4.44 5.85-1.37 11.85-5.48 24.07-1.77 35.93 1.85 5.81 4.64 10.2 4.92 16.49.24 5.24.24 10.48.24 15.73 0 17.14-1.29 35.77 2.78 52.74h-13.14c.6-8.55 3.95-46.49 3.79-56.77-.08-4.52-1.09-8.83-3.47-12.7-2.34-3.75-5.4-6.98-7.58-10.85-4.96-8.87-6.45-19.39-8.02-29.27-.48-3.06-4.6-5.2-7.46-4.23-21.57 7.62-45.28 5.93-65.4-5.12-5-2.74-9.64 1.77-8.87 6.81 1.49 10 .52 20.28-2.62 29.88-1.49 4.48-4.07 8.67-5.04 13.31-1.09 5.16.32 10.08 1.77 15 5.24 17.94 10.24 35.97 15.4 53.91-3.31-.04-6.61-.08-9.92-.16 1.25-10.73-4.03-21.25-8.59-31.25-6.45-14.15-11.73-28.83-16.01-43.79-4.72-15.93-12.54-30.81-14.39-47.5-.36-3.27-2.54-6.05-6.05-6.05-2.98 0-6.41 2.78-6.05 6.05.77 7.02 2.18 13.83 4.23 20.56-1.29-1.29-14.11-12.98-19.56-17.1-3.51-2.62-6.17-5-8.19-8.99-8.71-17.14-3.31-41.37 6.41-56.93 2.98 1.37 6.25 2.26 9.72 2.46 5.36.32 11.29-.4 16.57-2.42 4.56 13.87 19.03 22.5 33.47 24.72 11.05 1.69 55.68 1.17 66.85 1.13 9.88 0 21.09-1.29 30.4 2.74 3.91 1.69 7.58 3.71 11.73 4.76 7.14 1.81 19.92 2.42 31.65-1.33-3.06 10.16-12.66 22.58-23.35 26.41h-.04Z"/><path d="M361.36 364.18c7.78 0 7.78-12.1 0-12.1s-7.78 12.1 0 12.1m16.77.57c7.78 0 7.78-12.1 0-12.1s-7.78 12.1 0 12.1"/></svg>