<svg xmlns="http://www.w3.org/2000/svg" viewBox="0 0 864 864"><path d="M610.02 461.27c-9.65-7.65-15.57-17.53-16.45-29.94-.88-12.53 1.4-25.06-.24-37.59-1.44-10.97-5.84-21.22-14.81-28.06-8.57-6.53-19.54-9.05-30.18-8.53-15.57-12.09-41.15-11.49-58.09-6.65-23.7 6.81-49.72 16.33-74.86 13.05-2.16-3.4.16-8.37.12-12.13-.08-6-4.72-9.13-6.24-14.57-2.84-10.25.92-23.14-11.93-27.7-3.88-1.36-9.73-.68-12.93-3.48-3.6-3.16-5.48-9.25-7.81-13.33-5.16-9.09-12.97-13.85-23.5-13.01-2.88.24-5.8.52-8.61-.2-3.28-.84-5.88-3.04-9.29-3.56-6.77-1.04-12.89 2.64-18.61 5.8-2.56-2.56-5.48-4.8-8.81-6.49-4.36-2.24-8.53.6-9.05 5.2-.8 7.33-1.64 14.61-2.44 21.94-3.88 1.36-7.17 3.96-10.09 7.17-4.32 4.76-8.65 8.85-13.57 12.97-9.41 7.89-23.22 18.41-20.22 32.31 1.16 5.44 2 11.97 4.68 16.89 2.8 5.12 8.13 7.13 13.77 6.97 12.73-.32 34.71-6.57 43.31-10.93 2 6.45 3.96 12.93 5.96 19.38 2.44 7.97 5.28 15.89 5.36 24.3.16 14.53-4.2 29.18.84 43.35 2 5.64 5.16 10.89 9.89 14.65 2.52 2 5.24 3.04 7.97 4.6 3.28 1.88 3.48 4.88 4.28 8.41 3.52 15.77 5.68 31.79 7.69 47.84 1.04 8.41 2.88 17.21 2.12 25.7-.8 8.45-5.76 17.25-9.21 24.86-1.8 4 .28 9.09 5.2 9.05 7.25-.08 14.49-.04 21.74-.24 5.28-.16 8.57-1.24 10.53-6.53 3.56-9.57 4.4-22.1 3.28-32.19-1-8.73-3.64-17.17-4.48-25.94-.84-9.13-.52-18.33-.24-27.5.12-3.76.24-7.57.32-11.33 9.01 15.29 11.65 33.87 12.57 51.56.32 5.92.68 11.85.64 17.77 0 3.64-.12 6.24-2.6 8.85-5.52 5.8-8.13 11.17-7.41 19.42.28 3.36 2.52 5.8 6 6 8.57.44 17.13-.44 25.74 0 2.52.12 5.24-1.96 5.8-4.4 2.24-9.69 1.68-19.14.92-28.94-.84-10.97-.32-21.98.36-32.95 1.04-17.05 3.88-36.31-1.32-53.08 12.89-1.64 25.74-4.76 38.27-8.41 8.13 10.61 16.73 20.86 25.18 31.18 4.4 5.4 8.89 10.81 12.97 16.45 4.6 6.36 2.52 16.17 2.24 23.7-.16 4.2-.88 16.53-1.04 18.49-.2 2.72 0 3.96-1.76 5.8-2.12 2.2-4.56 3.76-6.41 6.28-2.04 2.8-3.6 6.08-4.4 9.45-1.12 4.72-1.84 11.49 2.72 14.61 2.64 1.8 5.88 1.72 8.97 1.76 4.4.04 8.85 0 13.25 0 2.8 0 4.88-1.88 5.8-4.4 6.12-16.97 11.21-34.51 14.85-52.24 1.84 4.56 1.84 11.09.28 22.14-.64 4.48-.2 8.61-1.72 10.69-4.12 5.64-6.53 13.01-2.12 19.82 4.4 6.81 16.25 3.88 23.3 4 3.24.04 5.52-2.84 6-6 1.16-7.49 3.48-13.05 5.12-19.74 2.24-9.05 3.16-18.45 3.4-27.74.52-19.78-.68-38.55-8.45-56.92-3.4-8.09-7.81-16.45-8.61-25.3-.68-7.65 2.04-24.18 8.85-41.35 1.68 10.37 1.52 21.54 3.48 31.14 1.52 7.57 4.36 15.13 10.41 20.26 8.57 7.25 19.82 10.21 30.78 7.49 4.04-1 6.24-7.21 2.64-10.05l-.16.12ZM339.93 290.26c6 1.96 11.49.24 17.45.88 5.32.6 7.65 4.88 9.93 9.21 2.84 5.32 5.56 11.93 10.69 15.49 2.32 1.6 5 2.56 7.77 3.12 2.36.48 6.45.28 8.45 1.76 3.68 2.76 2.2 11.93 2.84 15.97.52 3.28 1.56 6.45 3.16 9.41 1.6 2.92 3.56 3.92 3.2 7.29-.24 2.44-.6 4.84-.72 7.21-18.17-6.24-23.9-25.82-34.95-39.71-10.93-13.69-26.86-25.54-44.11-29.86 2.48-1.44 5.04-3 7.77-3.6 3-.64 5.72 1.8 8.57 2.72l-.04.12Zm75.46 232.94c-.6 10.13-1.08 20.26-.52 30.38.44 8.01 1.4 15.89.44 23.78-4.8 0-9.65.2-14.45.2.88-4.44 6.08-7.37 7.49-9.97 2.56-4.76 2.36-10.65 2.2-15.89-.2-6.69-.44-13.37-.92-20.06-1.6-22.14-6.57-44.72-20.94-61.97 8.33 1.4 16.69 1.84 25.06 1.44 5.76 16.25 2.64 35.31 1.64 52.04v.04Zm96.39 54.28c-2.68 0-8.93 0-9.33-.08.4-2.76 1.6-5.48 3.4-7.61 1.96-2.32 4.8-3.56 6.73-5.92 4.24-5.28 3.28-14.65 3.64-21.02.48-8.13.76-16.21.8-24.34.04-7.25-1.68-11.85-6.04-17.53-4.24-5.6-8.61-11.05-13.05-16.49-7.17-8.81-14.49-17.45-21.5-26.42 2.76-.88 8.45-2.76 8.57-2.8 3.44 10.21 20.34 27.3 25.86 32.39 5.64 5.16 16.05 13.93 17.97 19.86-2.92 23.78-9.21 47.44-17.13 70.1l.08-.12Zm44.96-78.38c2.36 10.29 2.32 21.06 2.28 31.54 0 10.05-2.6 34.43-8.01 46.84h-7.89c-.52-5.92 4.68-11.65 5.04-14.53.6-4.84 1-9.73 1.36-14.57.96-13.49-1.12-28.58-7.29-40.55-6.77-13.21-20.26-25.5-30.22-36.03-11.41-12.01-20.34-26.18-24.1-42.43-1.72-7.53-13.33-4.32-11.57 3.2.92 4.04 2.16 7.93 3.64 11.73-29.74 9.69-62.41 19.7-93.75 12.73.2-6.24.36-12.53.56-18.77.24-7.73-11.77-7.73-12.01 0-.52 17.29-1 34.63-1.52 51.92-.48 16.77-1.08 33.27 2.44 49.76 2.4 11.33 3.96 29.66-.32 37.31-.6.08-8.33.2-11.85.24 1.84-4.2 3.64-8.49 5.08-12.77 2.44-7.33 1.92-15.13 1.04-22.66-2-16.81-3.92-33.67-6.97-50.32-1.28-7.05-1.96-15.81-5.6-22.14-3.52-6.12-10.89-6.61-15.29-11.61-9.69-11.01-5.12-28.34-4.4-41.35 1.08-19.14-7.09-37.95-12.69-56 6.04-5.4 9.73-12.65 7.37-21.98-1.88-7.49-13.49-4.32-11.57 3.2 3.16 12.49-17.21 17.13-25.46 20.02-14.85 5.24-26.14 6.37-27.78 2.6-2.72-6.24-3.52-12.73-3.36-14.61.48-5.6 7.97-10.89 11.73-14.33 4.84-4.36 10.37-8.17 14.77-12.93 2.92-3.16 6.49-9.49 11.33-9.57 3.52-.08 5.64-2.72 6-6 .56-5.2 1.16-10.41 1.72-15.61 5.92 5.64 5.84 12.73 5.84 15.81 0 7.73 11.21 9.61 11.85-2.28 12.17 4.76 22.98 13.45 31.1 23.38 10.09 12.29 15.17 27.86 28.38 37.59 13.17 9.69 31.34 10.61 47.12 10.01 13.53-.52 27.22-4.52 40.19-8.09 14.65-4.04 30.3-11.13 45.76-9.25 14.69 1.76 27.7 9.53 31.74 24.46 3.88 14.29-.28 28.38-4.64 41.99-4.92 15.25-6.93 29.38-1.16 44.72 3.68 9.85 8.73 19.14 11.09 29.42v-.08Zm19.81-66.97c-1.72-14.85.88-35.47-12.41-46.68-.92-5.48-2.68-10.81-5.32-15.65 6.16 1.2 11.97 3.88 16.17 8.81 6.85 8.01 7.29 19.62 7.01 29.62-.32 11.85-1.68 23.94 1.6 35.51 1.52 5.44 4.12 10.49 7.41 15.01-11.09-5.6-13.69-20.22-14.45-26.66v.04Z"/><path d="M306.38 322.8c-7.73 0-7.73 12.01 0 12.01s7.73-12.01 0-12.01"/></svg>