<svg xmlns="http://www.w3.org/2000/svg" viewBox="0 0 864 864"><path d="M366.84 435.91c12.09-.73 24.31-7.58 25.19-21.08.12-1.81-.52-4.15-.08-5.89.56-2.22 2.46-3.35 4.11-4.76 2.98-2.54 5.93-4.96 8.34-8.06 4.51-5.72 6.69-12.66 7.18-19.83.4-5.89-.44-11.41-2.22-16.57 6.97-3.39 12.01-10 12.38-18.06.2-4.11-1.17-8.1-3.87-11.17-1.77-2.06-4.47-3.35-6.93-4.31-2.66-1.05-5.52-1.29-8.34-.89-5.4.73-9.76 3.75-13.3 7.62-6.69-4.68-14.23-6.69-22.94-7.3a40 40 0 0 0-4.39 0c-8.26.4-15.48 2.38-21.97 6.61-2.9-3.02-6.33-5.48-10.48-6.57-5.93-1.53-12.38.2-16.93 4.23-6.09 5.48-5.4 15.8-1.13 22.09 2.02 2.98 4.72 5.32 7.78 7.01-1.93 5.36-2.9 11.09-2.5 17.25.48 6.93 2.5 13.67 6.69 19.23 2.54 3.35 5.64 5.97 8.83 8.67 1.69 1.41 3.55 2.54 4.11 4.76.4 1.53-.16 3.67-.12 5.28.56 13.83 12.9 20.84 25.23 21.69 1.09.08 4.03.08 5.16 0l.2.04Zm1.73-59.14v.12h-9.67c-.44-4.51-1.85-8.79-5.16-12.17-5.8-5.97-13.62-7.3-21.16-5.89 2.06-3.99 4.8-7.7 8.06-11.21 6.81-7.3 13.83-9.8 23.66-10.04 9.51.2 16.53 2.54 23.22 9.59 2.62 2.78 4.96 5.72 6.85 8.83-6.21-1.17-12.78 0-17.86 4.23-4.96 4.15-7.58 10.16-7.9 16.53h-.04Zm-.16 12.22c-.56 1.93-1.65 3.43-3.87 3.91-3.31.73-4.68-1.25-5.24-3.91zm40.68-50.23c2.3 2.74.2 7.46-5 10.16a68 68 0 0 0-5.97-7.9c4.27-4.07 8.26-5.44 10.92-2.3l.04.04Zm-87.52-.44c1.45-1.57 5.36-1.69 9.47 1.89a67 67 0 0 0-6.29 8.1c-5.44-4.39-5.16-7.86-3.18-10Zm26.69 67.48c-1.53-6.81-7.86-10.12-12.5-14.67-4.11-4.03-6.33-9.07-6.81-14.83-.08-1.21-.08-2.38-.04-3.55 7.26-3.31 17.62-4.03 18.06 6.29.28 6.37-.77 12.74 2.74 18.5 2.94 4.8 8.67 7.7 14.23 7.58 5.68-.12 10.96-3.39 14.03-8.1 3.71-5.8 2.58-12.34 2.66-18.82.04-4.68 2.42-9.84 7.58-10.6 4.19-.6 8.51 1.53 11.37 4.51.08 1.37.04 2.78-.08 4.19-.44 5.36-2.38 10.36-6.21 14.23-4.51 4.6-11.13 7.9-12.94 14.55-1.29 4.76 1.01 10.04-2.54 14.07-3.31 3.75-8.83 4.72-13.62 4.88-4.64-.2-9.88-1.05-13.22-4.47-3.87-3.95-1.65-8.87-2.74-13.75h.04Z"/><path d="M321.01 338.72s.04-.08.08-.08c0 0-.04 0-.08.04 0 0-.04.08-.08.08l.04-.04z"/><path d="M610.52 486.94c-2.54-5.4-7.09-9.51-10.12-14.59.2-1.25.44-2.46.56-3.75 2.58-25.4-4.31-66.67-35.8-69.62-7.74-8.38-18.66-12.82-30.43-14.23-9.8-1.17-19.71-.6-29.55-.36-10.84.28-21.65.56-32.49.85-7.46-18.38-18.18-35.72-34.79-46.72 4.11-3.06 11.09-2.94 15.56-3.02 6.49-.12 7.54-7.78 3.06-11.29-9.88-7.62-20.92-13.54-32.61-17.7 3.14-2.42 3.67-8.22-.44-10.08-18.02-8.18-37.17-12.62-57-12.98h-2.86c-19.79.32-38.98 4.8-57 12.98-4.07 1.85-3.59 7.66-.44 10.08-11.69 4.15-22.74 10.08-32.61 17.7-4.51 3.47-3.47 11.17 3.06 11.29 4.51.08 11.45-.04 15.56 3.02-20.92 13.83-32.45 37.73-39.95 61.11-1.33 4.11 3.14 9.11 7.46 7.46 8.38-3.27 16.77-6.57 25.11-9.84a125.3 125.3 0 0 0-2.66 37.21c.52 6.53 10.04 8.55 11.89 1.61.97-3.63 2.54-6.85 4.72-9.63 2.02 17.17 7.38 33.74 16 48.86 2.54 4.43 9.84 3.63 11.05-1.45 1.37-5.8 2.78-11.65 4.15-17.45 5.12 7.38 18.1 20.92 18.18 21.24 3.51 20.76 7.22 41.52 13.14 61.76-9.35 7.01-18.06 14.35-21.53 26.2-1.09 3.79 1.93 7.66 5.85 7.66h27.21c.2 1.61.85 3.22 2.22 4.64 2.82 2.9 6.73 2.66 10.48 2.66 5.12 0 35.92-.08 46.16 0 3.39 0 5.89-2.78 6.05-6.05.52-11.65 2.02-23.22 4.56-34.63 1.29-5.8 2.86-11.53 4.64-17.21 1.53-4.88 2.98-10.4 6.29-14.47 3.02-3.75 7.74-4.64 12.29-4.96 5.85-.4 25.23-.73 29.02-.77.12.73 15.4 36.32 15.6 36.72-4.15 2.34-11.77 6.65-14.79 8.95-5.97 4.56-11.65 10-13.83 17.41-1.13 3.79 1.98 7.66 5.85 7.66h24.11c-.48 3.91 2.86 7.3 5.85 7.3h54.18c3.43 0 5.85-2.78 6.05-6.05 2.54-39.58 3.18-79.25 1.81-118.88-.48-13.75-.64-28.26-5.32-41.32 10.76 7.42 13.75 25.56 14.79 37.17.77 8.51.69 17.21-1.57 25.48-1.69 6.29-4.72 11.29-4.07 18.02.56 5.56 2.9 11.25 7.94 14.07 5.93 3.31 13.14 1.25 17.13-3.95 3.95-5.16 5-12.29 2.22-18.18l.08.08Zm-276.93-48.82c-1.98-5.2-10.16-6.29-11.65 0-1.29 5.36-2.58 10.72-3.83 16.08-5.04-12.66-7.78-26.12-8.1-39.91-.12-4.64-5.04-7.46-9.11-5.24-2.3 1.25-4.43 2.74-6.41 4.39.81-8.34 2.54-16.57 5.2-24.67 1.33-4.11-3.14-9.11-7.46-7.46-8.02 3.14-16.04 6.29-24.03 9.39 7.22-18.34 17.86-35.67 35.67-45.19 2.14-1.17 3.71-4.43 2.78-6.81-2.66-6.93-7.62-10.8-13.58-12.94 10.28-5.85 21.36-10 33.14-12.33 5.24-1.05 5.72-8.55 1.45-11.05-.44-.28-.93-.48-1.41-.77 12.05-3.87 24.67-5.93 37.41-6.13h2.86c12.74.2 25.31 2.26 37.41 6.13-.48.24-.93.48-1.41.77-4.27 2.46-3.79 10 1.45 11.05 11.77 2.34 22.86 6.53 33.14 12.33-5.93 2.14-10.88 6.01-13.58 12.94-.93 2.38.6 5.64 2.78 6.81 17.78 9.51 28.42 26.85 35.67 45.19-8.02-3.14-16.04-6.29-24.03-9.39-4.27-1.69-8.79 3.35-7.46 7.46 2.66 8.1 4.35 16.33 5.2 24.67a37.4 37.4 0 0 0-6.41-4.39c-4.07-2.22-8.99.56-9.11 5.24-.32 13.79-3.1 27.25-8.1 39.91-1.29-5.36-2.58-10.72-3.83-16.08-1.49-6.25-9.71-5.2-11.65 0-5.6 15-17.25 28.42-29.39 39.06-6.05-5.12-11.89-10.44-17.33-16.2-6.29-6.65-12.94-14.15-16.25-22.86h-.04Zm143.66 52.57c-11.25.32-24.47-.32-32.61 8.95-7.86 8.95-10.68 22.98-13.38 34.26-2.7 11.33-4.39 22.9-5.24 34.51-11.25-.08-36.48-.2-38.17-.32 2.82-2.9 6.61-4.92 10.64-5.4 3.75-.4 7.09-3.55 5.85-7.66l-13.18-43.45c-2.26-7.42-13.95-4.27-11.65 3.22 3.79 12.5 7.58 25.03 11.41 37.53-4.92 1.69-9.35 4.43-12.9 8.55-.08.08-.12.16-.2.24h-22.57c4.11-5.76 10.28-9.96 16.04-14.23 2.14-1.57 3.63-4.07 2.78-6.81-5.16-16.73-8.67-33.86-11.77-51.11 4.23 3.51 8.06 1.29 9.59 0 10.68-8.83 20.84-19.71 28.34-31.89 1.33 5.56 2.66 11.17 3.99 16.73 1.21 5.08 8.51 5.89 11.05 1.45 8.63-15.12 13.99-31.68 16-48.86 2.18 2.74 3.75 5.97 4.72 9.63 1.81 6.89 11.37 4.96 11.89-1.61 1.01-12.5.08-25.03-2.66-37.21 8.38 3.27 16.77 6.57 25.11 9.84 4.31 1.69 8.75-3.35 7.46-7.46-.24-.81-.52-1.61-.81-2.46 15.52-.48 31.04-1.25 46.56-1.05 14.67.2 29.63 3.14 37 17.25 6.73 12.94 6.25 29.02 6.69 43.17.6 18.54-.44 93.16-1.57 111.86H526.2c2.9-3.27 7.46-5.4 11.41-5.4s6.69-3.83 5.85-7.66c-2.78-12.13-11.29-49.14-12.74-55.51-1.17-5.16-1.73-11.41-5.4-15.48-3.06-3.39-7.13-4.43-11.17-6.21a28.7 28.7 0 0 1-10.24-7.58c-5.76-6.57-8.79-15.76-7.3-24.43 1.29-7.62-10.36-10.88-11.65-3.22-3.27 19.31 6.97 39.18 25.36 46.6.56.24 1.17.44 1.81.64q-17.475 0-34.95.48l.08.08Zm21.2 70.42c3.39-4.11 16.08-10.2 21.12-13.71 3.87-2.7 4.27-6.81 2.54-10.88-1.77-4.19-11.69-27.01-14.83-34.26 3.91 0 7.78-.04 11.69 0 1.29 5.68 8.91 38.86 11.41 49.74-5.32 1.57-10 4.84-13.46 9.07h-18.46v.04Zm101.91-64.94c-.24 1.85-1.85 2.9-3.31 2.34-2.78-1.05-2.26-8.63-.69-11.37.85 1.13 4.27 6.69 3.99 9.03Z"/></svg>