<svg xmlns="http://www.w3.org/2000/svg" viewBox="0 0 864 864"><path d="M580.2 548.46c-1.09-5.35-4.75-9.66-8.25-13.64-2.7-3.06-6.52-6.44-6.44-10.78 2.58-8.61 3.02-17.75 2.41-26.68-.56-8.73-1.61-17.71-4.43-26-5.11-15.09-17.59-28.57-34.49-28.29a38.2 38.2 0 0 0-5.67-6c-6.96-5.83-15.53-9.3-24.39-10.99-20.2-3.86-40.72 1.49-60.88-1.89-20.64-3.5-32.23-18.99-39.92-37.3-8.93-21.33-15.33-43.9-22.78-65.83-1.65-4.91-3.22-9.94-4.83-14.93.12-.08.28-.12.4-.2 10.22-5.75 26.52-12.64 25.31-26.92-.56-6.48-4.35-12.64-11.15-13.88-6.24-1.17-12.35.76-17.59 4.14-3.98 2.58-7.53 5.75-10.7 9.3-2.37-2.29-5.07-4.1-8.17-5.27 2.86-3.66 5.67-7.32 8.53-10.99 1.05-1.33 1.77-2.54 1.77-4.27 0-1.49-.64-3.26-1.77-4.27-1.17-1.05-2.66-1.85-4.27-1.77-1.49.08-3.3.52-4.27 1.77-3.1 3.98-6.16 7.93-9.26 11.91-3.38-3.98-6.76-7.93-10.18-11.91-.97-1.13-2.86-1.77-4.27-1.77s-3.26.64-4.27 1.77c-1.05 1.17-1.85 2.66-1.77 4.27.08 1.69.68 2.98 1.77 4.27 3.14 3.66 6.28 7.32 9.38 10.99-5.75 1.81-11.27 4.87-15.9 8.33-7.2 5.35-11.03 13.44-15.13 21.17-2.45 4.63-5.11 8.49-8.53 12.39-3.5 3.98-6.2 8.57-6.8 13.88-.93 8.25 3.86 15.94 11.39 19.28 8.65 3.86 17.75 1.61 24.95-4.02 6.64-5.19 12.72-10.5 21.13-9.78 10.5 35.89 15.45 73.24 28.41 108.41 6.4 17.38 15.01 33.16 23.5 49.54 3.94 7.65 7.89 15.37 10.58 23.54 2.49 7.61 3.02 15.61 3.62 23.58 1.69 22.05 1.37 44.26 1.57 66.36 0 3.26 2.74 6.04 6.04 6.04h46.36c3.26 0 6.04-2.78 6.04-6.04-.16-30.5-1.29-60.96-2.17-91.43 7.08-.76 14.73-1.05 21.41 1.01-.08 30.14-.12 60.28.04 90.42 0 3.26 2.74 6.04 6.04 6.04h43.46c3.3 0 5.96-2.78 6.04-6.04.52-24.22.24-48.45.6-72.63.36-23.54 1.17-47.93-4.79-70.94a64 64 0 0 0-1.89-6.08c10.22 3.78 15.73 15.73 17.91 26.32 1.61 7.89 2.29 16.1 2.05 24.14-.24 8.37-2.74 15.57-5.43 23.38-2.17 6.32-3.78 13.28-1.41 19.8 1.89 5.23 6.2 9.38 11.07 11.99 4.71 2.49 10.7 3.74 15.33.36 4.19-3.1 5.55-8.85 4.59-13.76l.08-.08Zm-57.39-52.03c-.08-.8-.52-6.32-.48-8.25 0-1.25.08-2.74 1.69-3.1.64-.16 3.58-.56 5.63-.72.28 2.94.85 12.39.93 14.16-1.93.32-3.34.64-5.79.64-1.49 0-1.85-1.45-1.97-2.74Zm-5.43-48.17c-7.4.8-25.47 2.13-30.3 2.09-2.54 0-2.54-2.74-2.49-4.47 0-1.53.12-7.81.36-9.34 12.11.6 24.31 3.54 32.43 11.71Zm-118.27-35.13s-5.67.4-7.77.32c-2.62-7.24-5.96-17.14-6.8-20.08-.56-1.97-2.13-6.88-2.54-9.38-.28-1.77.36-2.05 1.33-2.05 2.13 5.59 4.39 11.15 6.96 16.5a88.3 88.3 0 0 0 8.85 14.69h-.04Zm-15.29-135.37c3.9 5.83-3.54 14.53-17.34 16.86-.8-1.97-1.57-3.98-2.45-5.92 3.62-6.72 16.86-15.29 19.8-10.95Zm2.66 174.93c5.71-2.41 10.78-1.89 13.52.8 1.85 1.81 8.85 10.46 9.74 15.69.76 4.39-1.21 8.13-8.53 12.64-5.15-9.62-10.42-19.15-14.73-29.17zm72.55 50.5c-3.5.85-6.12 2.66-6.04 6.04.85 30.22 1.97 60.44 2.25 90.7H444.9c0-29.5-1.17-58.99-2.54-88.41-.36-7.73-12.43-7.77-12.07 0 1.37 29.46 2.58 58.95 2.54 88.41H421c-.12-18.31 0-36.62-1.17-54.89-.52-8.49-.93-17.3-2.62-25.67-1.61-7.89-7.32-22.25-10.46-26.8 6.16-3.34 11.71-8.01 14.16-14.73 2.05-5.51 1.05-11.39-1.33-16.62-1.41-3.1-3.54-5.63-5.31-8.53-2.58-4.14-5.35-8.25-9.7-10.7-6.92-3.94-15.17-2.98-22.49-.56-5.79-15.61-10.42-31.59-14.04-47.89-4.95-22.13-9.54-44.26-16.14-65.95 0-.08-.08-.12-.08-.2-.44-1.81-1.73-3.38-4.14-3.98-8.41-2.13-16.54-1.09-24.02 3.34-5.51 3.26-10.58 10.06-17.06 11.35-4.63.89-10.62-1.45-10.82-6.8-.16-3.74 2.74-6.76 5.07-9.3 2.78-3.06 5.11-6.44 7.12-10.02 3.78-6.68 6.64-14.97 12.68-20 6.04-5.07 17.18-10.95 25.03-7 7.93 3.98 10.18 15.81 12.76 23.38 3.7 10.99 7.44 21.93 11.15 32.92 3.3 9.7 6.32 19.6 9.66 29.42-3.26 1.01-6.16 2.74-7.85 6-3.02 5.83-.8 12.31.97 18.15 2.13 7.16 4.35 14.29 7.08 21.25 1.21 3.02 2.21 5.75 5.03 7.57 2.01 1.29 4.39 1.69 6.72 1.93 5.79.6 11.91-.6 17.71-1.81 4.95 4.23 10.62 7.65 17.14 9.9 15.13 5.23 31.03 3.42 46.72 2.94-.64 4.99-.64 10.1.56 14.85 1.97 7.81 8.73 11.31 16.34 11.15 11.51-.2 28.53-2.29 34.89-2.98 1.57 4.14 2.66 8.45 3.5 12.88-3.54.36-7.12.93-10.3 2.62-3.7 1.97-6.24 5.75-7 9.82-.97 5.15-.64 10.91.76 15.94 1.25 4.51 4.14 8.57 8.89 9.74 3.5.89 7.04.24 10.58 0 .04 6.6-.32 66.2-.72 89.37h-10.14c.48-12.47 1.33-24.95 1.01-37.46-.28-13.12-1.41-27.36-7.85-39.11-3.58-6.52-9.78-13.2-16.42-16.66-11.51-6-25.63-6.44-37.83-3.54Zm39.68 20.4c2.09 2.37 3.9 5.11 5.19 7.85 4.95 10.82 5.19 23.7 5.23 35.37 0 11.03-.64 22.05-1.09 33.08h-9.3c-.12-25.43-.08-50.86-.04-76.3Zm61.49 15.98c3.14 2.86 8.77 5.79 8.25 12.6-6.96-2.29-8.77-9.66-8.25-12.6"/><path d="M335.45 297.6c-7.77 0-7.77 12.07 0 12.07s7.77-12.07 0-12.07m136.22 163.54c-1.61-1.61-3.78-2.62-6-3.02-5.15-.93-10.54-.72-15.77-.64-5.19.08-10.46 1.13-13.48 5.83-1.69 2.62-2.13 6-2.09 9.05.08 4.63.68 9.13 1.45 13.64.64 3.78 4.06 4.51 6.4 4.51 3.46 0 24.35-.12 25.39-.12 3.42 0 5.83-2.78 6.04-6.04.2-3.22 1.13-13.76.97-15.77-.24-2.74-.93-5.39-2.94-7.4l.04-.04Zm-10.1 8.61c.72 0 1.05 0 .97 1.05-.08 1.53-.28 4.39-.4 6.16-.04.8-.68 1.37-1.49 1.37h-11.87c-.93.04-1.69-.64-1.81-1.57-.2-2.09-.52-5.59-.48-6.4 0-.6.44-.8 1.29-.8.6 0 10.5.04 13.76.12l.04.08Z"/></svg>