<svg xmlns="http://www.w3.org/2000/svg" viewBox="0 0 864 864"><path d="M411.03 313.4c-7.75 0-7.75 12.05 0 12.05s7.75-12.05 0-12.05"/><path d="M592.12 400.41c-16.86-20.4-55.45-18.43-67.22 6.46-6.42 13.57-2.41 28.55 2.69 41.8 5.5 14.25 11.04 28.59 15.94 43.09 2.85 8.47 5.1 17.19 4.86 26.22-.28 9.8-3.49 19.6-7.51 28.47-4.7 10.48-13.37 22.45-24.41 28.11 6.91-21.72 8.03-43.81 6.87-66.58-1.33-26.14-7.63-52.4-22.53-74.29-12.57-18.43-30.68-30.56-51.76-36.5 3.37-3.89 6.46-8.07 9.2-12.33 4.1-6.34 7.55-13.09 10.52-20 1.2-2.77 2.05-6.83 4.06-9.16 2.13-2.53 6.26-3.21 8.99-5.1 10.2-6.95 15.5-19.96 12.77-32-2.93-12.93-15.42-22.25-28.39-22.73-7.31-13.09-17.43-24.53-30.44-32.2-14.13-8.31-30.48-11.56-46.7-11.68h-.32c-16.26.12-32.57 3.37-46.7 11.68-13.05 7.67-23.13 19.15-30.48 32.24-11.36.4-22.21 7.51-26.78 18.07-4.9 11.32-1.65 25.26 7.35 33.61 4.54 4.22 11.73 5.22 14.25 11 3.13 7.19 6.06 14.34 10 21.16 5.3 9.2 11.81 17.79 19.68 24.9-26.14 47.58-15.34 101.11-10.64 152.43-11.81 7.79-32.57 13.01-43.21 15.94-8.27 2.33-15.62 6.06-18.35 14.82-2.09 6.63-.92 14.9 4.82 19.03 5.22 3.77 21.36 3.33 29.43 3.33 18.55-.08 134.48 2.17 163.07 1.73 19.23-.28 38.35-7.07 48.79-22.77 23.97-4.82 39.39-28.03 46.58-49.99 4.46-13.69 4.9-27.51 1.37-41.48-3.37-13.33-9.16-26.06-13.61-39.07-3.81-11.12-9.88-22-10.64-33.93-.68-11.2 5.26-21.08 16.14-24.45 10.52-3.25 22.53-2.05 30.88 5.54 8.15 7.43 10.68 20.96 7.31 31.32-2.49 7.59-11.81 13.33-18.95 7.75-8.19-6.42-4.42-17.03 3.49-21.44 6.79-3.77.72-14.17-6.06-10.4-10.2 5.66-16.34 16.62-13.33 28.35 2.57 9.96 11.64 17.63 22 17.71 29.75.16 31.76-40.76 16.99-58.63v-.04Zm-203.26 9.12c-12.93 0-33.13-4.14-44.49-13.41 1.69-15.34 7.23-31.4 16.46-43.81 1.49-2.01.92-5.7-.92-7.31-8.23-7.11-17.99-19.39-15.34-30.96 4.26-18.47 28.15-17.91 39.15-6.5 1.57 1.65 3.37 2.57 5.1 2.57s3.53-.92 5.1-2.57c11-11.4 34.85-11.97 39.15 6.5 2.69 11.56-7.11 23.85-15.34 30.96-1.81 1.57-2.45 5.3-.92 7.31 9.24 12.45 14.82 28.59 16.46 43.97-5.86 7.99-22.85 13.25-44.33 13.25zm-79.62-65.62c-5.94-3.33-11-5.3-13.61-12.17-4.9-12.97 6.3-24.94 19.39-23.77 1.97.16 4.3-1.24 5.22-2.97 6.5-12.61 15.46-23.65 27.79-30.92 12.41-7.31 26.58-9.96 40.84-10.04 14.25.12 28.43 2.77 40.84 10.04 12.33 7.27 21.28 18.35 27.79 30.92.88 1.73 3.21 3.17 5.22 2.97 13.09-1.16 24.33 10.76 19.39 23.77-2.61 6.87-7.71 8.83-13.61 12.17-6.83 3.89-8.43 11.36-11.52 18.07-3.65 8.03-8.07 15.94-13.49 23.05-2.49-12.33-6.95-24.53-13.73-34.93 11.28-11.32 20-28.43 13.25-43.89-9.52-21.68-37.3-23.93-54.25-10.36-16.95-13.57-44.73-11.32-54.25 10.36-6.75 15.42 1.97 32.52 13.25 43.89-6.75 10.36-11.2 22.45-13.69 34.69-5.34-7.03-9.72-14.86-13.33-22.81-3.05-6.67-4.62-14.25-11.52-18.07h.04Zm171.82 253.05c-11.6 4.3-24.86 3.17-36.94 2.65-18.47-.84-24.69-9.76-20.84-22.21.92-3.01.84-6.67-2.17-8.23-2.73-1.45-6.75-.84-8.23 2.17-3.13 6.26-4.58 13.45-2.61 20.32.72 2.53 1.89 4.94 3.37 7.07-2.21-.08-49.47-.32-60.19-.44-2.65 0-6.22.04-8.19-1.97-2.25-2.33-2.13-6.59.2-8.75 2.57-2.41 7.03-2.45 10.32-2.81 9.52-1 17.95-4.86 26.18-9.72 13.53-7.99 22.57-18.87 29.47-32.65 3.05-6.14 10.44-17.23 16.66-20.28 8.31-4.02 20.64-3.73 29.35-1.24 7.87 2.25 13.49 8.35 17.19 15.46 2.53 4.94 4.46 11.12 4.5 15.62.12 7.75 12.17 7.75 12.05 0-.2-14.38-8.47-29.75-20.2-37.87-8.59-5.94-19.51-6.95-29.67-6.71-9.72.24-19.11 2.81-26.38 9.36.4-12.53 1.12-25.06 2.21-37.5.28-3.25-2.97-6.02-6.02-6.02-3.49 0-5.74 2.77-6.02 6.02-1.53 17.95-2.37 36.02-2.57 54.01-5.18 8.91-9.84 18.27-17.83 25.18-6.95 6.02-17.51 12.57-26.7 13.97-9.16 1.41-18.91 1.49-24.13 10.56-2.69 4.66-2.81 10.36-1 15.3-8.51-.04-48.47 2.73-55.13 0-3.77-1.53-3.61-7.39-1.08-9.4 5.5-4.34 18.95-7.07 24.01-8.51 12.97-3.61 31.84-12.17 36.94-18.51 7.47-9.24 11.93-20.8 15.5-32.4 6.06-19.84 11.04-39.47 14.09-59.99 1.12-7.59-10.48-10.84-11.6-3.21-2.85 19.31-7.35 37.91-13.05 56.62-1.97 6.46-3.77 13.25-6.55 19.56-4.86-43.97-11.68-89.91 9.8-130.34 9.6 5.38 27.3 9.24 43.77 9.36 25.42.16 42.52-7.51 49.51-14.38 18.51 3.94 35.05 12.37 47.3 27.1 12.09 14.54 19.35 33.57 22.73 51.96 2.17 11.81 3.37 50.27.4 67.98-1.45 8.47-3.81 17.23-7.23 25.14-3.65 8.43-12.73 14.58-21.08 17.67l-.12.08Z"/><path d="M366.42 313.4c-7.75 0-7.75 12.05 0 12.05s7.75-12.05 0-12.05m36.74 57.54h-27.22c-3.13 0-6.18 2.77-6.02 6.02s2.65 6.02 6.02 6.02h27.22c3.13 0 6.18-2.77 6.02-6.02s-2.65-6.02-6.02-6.02"/></svg>