<svg xmlns="http://www.w3.org/2000/svg" viewBox="0 0 864 864"><path fill="none" d="M180 180v504h504V180z"/><path d="M684 144H180c-19.88 0-36 16.12-36 36v504c0 19.88 16.12 36 36 36h504c19.88 0 36-16.12 36-36V180c0-19.88-16.12-36-36-36m0 540H180V180h504z"/><path d="M330.66 556.74q1.26 1.26 3.06 1.26h33.12q1.8 0 3.06-1.26t1.26-3.06V310.32q0-1.8-1.26-3.06t-3.06-1.26h-34.56q-2.52 0-5.4 1.08L288 326.52q-2.88 1.44-2.88 5.04l1.08 23.76q0 1.8.9 2.88t2.34 1.08q1.08 0 1.8-.36l36-11.16q.72-.36 1.44.18t.72 1.26v204.48q0 1.8 1.26 3.06m245.88 0q1.26-1.26 1.26-3.06v-27.36q0-1.8-1.26-3.06t-3.06-1.26h-102.6q-1.08 0-1.26-.72t.54-1.44l13.68-15.12q39.6-43.2 56.88-64.8 31.32-38.52 31.32-68.04 0-19.44-9.72-35.1t-27.72-24.66-42.12-9q-21.96 0-39.78 7.92t-28.26 22.32-11.16 33.84v15.48q0 1.8 1.26 3.06t3.06 1.26h33.48q1.8 0 3.06-1.26t1.26-3.06v-9.36q0-15.48 10.26-24.84t26.82-9.36c16.56 0 20.04 3.12 27 9.36q10.44 9.36 10.44 24.12 0 19.8-33.12 58.32l-16.92 19.8q-36 42.48-63.36 71.64-2.16 2.16-2.16 5.4v25.92q0 1.8 1.26 3.06t3.06 1.26h154.8q1.8 0 3.06-1.26"/></svg>