<svg xmlns="http://www.w3.org/2000/svg" viewBox="0 0 864 864"><path fill="none" d="M530.08 199.79C499.04 186.66 466.04 180 432 180s-67.03 6.66-98.08 19.79c-30 12.69-56.96 30.87-80.11 54.02-23.16 23.15-41.33 50.11-54.02 80.11C186.66 364.96 180 397.96 180 432s6.66 67.03 19.79 98.08c12.69 30 30.87 56.96 54.02 80.11 23.15 23.16 50.11 41.33 80.11 54.02C364.96 677.34 397.96 684 432 684s67.03-6.66 98.08-19.79c30-12.69 56.96-30.87 80.11-54.02s41.33-50.11 54.02-80.11C677.34 499.04 684 466.04 684 432s-6.66-67.03-19.79-98.08c-12.69-30-30.87-56.96-54.02-80.11-23.15-23.16-50.11-41.33-80.11-54.02"/><path d="M432 144c-159.06 0-288 128.94-288 288s128.94 288 288 288 288-128.94 288-288-128.94-288-288-288m252 288c0 34.04-6.66 67.03-19.79 98.08-12.69 30-30.87 56.96-54.02 80.11-23.15 23.16-50.11 41.33-80.11 54.02C499.04 677.34 466.04 684 432 684s-67.03-6.66-98.08-19.79c-30-12.69-56.96-30.87-80.11-54.02-23.16-23.15-41.33-50.11-54.02-80.11C186.66 499.04 180 466.04 180 432s6.66-67.03 19.79-98.08c12.69-30 30.87-56.96 54.02-80.11 23.15-23.16 50.11-41.33 80.11-54.02C364.96 186.66 397.96 180 432 180s67.03 6.66 98.08 19.79c30 12.69 56.96 30.87 80.11 54.02s41.33 50.11 54.02 80.11C677.34 364.96 684 397.96 684 432"/><path d="M292.14 387h33.48q1.8 0 3.06-1.26c1.26-1.26 1.26-1.86 1.26-3.06v-9.36q0-15.48 10.26-24.84t26.82-9.36c16.56 0 20.04 3.12 27 9.36q10.44 9.36 10.44 24.12 0 19.8-33.12 58.32l-16.92 19.8q-36 42.48-63.36 71.64-2.16 2.16-2.16 5.4v25.92q0 1.8 1.26 3.06t3.06 1.26h154.8q1.8 0 3.06-1.26t1.26-3.06v-27.36q0-1.8-1.26-3.06t-3.06-1.26h-102.6q-1.08 0-1.26-.72t.54-1.44l13.68-15.12q39.6-43.2 56.88-64.8 31.32-38.52 31.32-68.04 0-19.44-9.72-35.1t-27.72-24.66-42.12-9q-21.96 0-39.78 7.92t-28.26 22.32-11.16 33.84v15.48q0 1.8 1.26 3.06t3.06 1.26m231.48-79.92-38.88 19.44q-2.88 1.44-2.88 5.04l1.08 23.76q0 1.8.9 2.88t2.34 1.08q1.08 0 1.8-.36l36-11.16q.72-.36 1.44.18t.72 1.26v204.48q0 1.8 1.26 3.06t3.06 1.26h33.12q1.8 0 3.06-1.26t1.26-3.06V310.32q0-1.8-1.26-3.06t-3.06-1.26h-34.56q-2.52 0-5.4 1.08"/></svg>