<svg xmlns="http://www.w3.org/2000/svg" viewBox="0 0 864 864"><path d="M431.64 339.12q-18.36 0-29.34 10.98t-10.98 29.7v105.12q0 18.72 10.98 29.7t29.34 10.98c18.36 0 22.44-3.66 29.88-10.98q11.16-10.98 11.16-29.7V379.8q0-18.72-11.16-29.7t-29.88-10.98"/><path d="M684 144H180c-19.88 0-36 16.12-36 36v504c0 19.88 16.12 36 36 36h504c19.88 0 36-16.12 36-36V180c0-19.88-16.12-36-36-36M514.44 482.76q0 36.36-22.5 57.78t-60.3 21.42c-37.8 0-45.18-7.14-59.94-21.42q-22.14-21.42-22.14-57.78V381.24q0-36 22.14-57.06t59.94-21.06c37.8 0 45.3 7.02 60.3 21.06q22.5 21.06 22.5 57.06z"/></svg>