<svg xmlns="http://www.w3.org/2000/svg" viewBox="0 0 864 864"><path fill="none" d="M530.08 199.79C499.04 186.66 466.04 180 432 180s-67.03 6.66-98.08 19.79c-30 12.69-56.96 30.87-80.11 54.02s-41.33 50.11-54.02 80.11C186.66 364.96 180 397.96 180 432s6.66 67.03 19.79 98.08c12.69 30 30.87 56.96 54.02 80.11 23.15 23.16 50.11 41.33 80.11 54.02C364.96 677.34 397.96 684 432 684s67.03-6.66 98.08-19.79c30-12.69 56.96-30.87 80.11-54.02s41.33-50.11 54.02-80.11C677.34 499.04 684 466.04 684 432s-6.66-67.03-19.79-98.08c-12.69-30-30.87-56.96-54.02-80.11-23.15-23.16-50.11-41.33-80.11-54.02"/><path d="M432 144c-159.06 0-288 128.94-288 288s128.94 288 288 288 288-128.94 288-288-128.94-288-288-288m252 288c0 34.04-6.66 67.03-19.79 98.08-12.69 30-30.87 56.96-54.02 80.11-23.15 23.16-50.11 41.33-80.11 54.02C499.04 677.34 466.04 684 432 684s-67.03-6.66-98.08-19.79c-30-12.69-56.96-30.87-80.11-54.02s-41.33-50.11-54.02-80.11C186.66 499.04 180 466.04 180 432s6.66-67.03 19.79-98.08c12.69-30 30.87-56.96 54.02-80.11 23.15-23.16 50.11-41.33 80.11-54.02C364.96 186.66 397.96 180 432 180s67.03 6.66 98.08 19.79c30 12.69 56.96 30.87 80.11 54.02s41.33 50.11 54.02 80.11C677.34 364.96 684 397.96 684 432"/><path d="M333.72 524.88q-12.6 0-21.42-6.66t-12.06-18.18q-2.88-6.84-3.6-18.36 0-4.32-4.32-4.32h-33.48q-4.32 0-4.32 4.32.72 18 5.04 29.16 8.28 23.04 27.9 36.54t46.26 13.5c26.64 0 33.36-4.14 46.08-12.42q19.08-12.42 27.36-35.1 6.12-15.48 6.12-35.64 0-22.32-7.2-39.6-14.04-32.4-47.52-37.08-2.88-.72-1.44-2.16l51.48-51.84q2.16-2.16 2.16-5.4v-31.32q0-1.8-1.26-3.06t-3.06-1.26H262.8q-1.8 0-3.06 1.26c-1.26 1.26-1.26 1.86-1.26 3.06v27.36q0 1.8 1.26 3.06t3.06 1.26h90q1.08 0 1.44.72t-.36 1.44l-59.4 58.32q-1.44 1.44-1.44 3.24 0 1.08 1.08 2.88l16.56 23.04q1.8 2.16 3.6 2.16 1.08 0 2.52-.72 10.44-7.2 16.56-7.2 23.04 0 32.4 20.16 5.4 11.88 5.4 30.24 0 16.56-4.68 27-9 21.6-32.76 21.6m259.92-118.44q9.72-14.76 9.72-34.56 0-22.32-12.6-40.68-9.72-14.04-25.74-21.78t-37.26-7.74c-21.24 0-26.04 2.58-37.08 7.74q-16.56 7.74-26.28 21.78-13.32 18-13.32 40.68 0 18.36 9.36 33.48 7.2 11.52 16.2 18 1.44 1.44-.36 2.52-13.32 7.56-20.52 22.32-8.28 17.28-8.28 36.72 0 21.6 9.36 38.52 9.36 18.36 28.08 27.9t42.84 9.54c24.12 0 30.48-3.24 42.48-9.72q18-9.72 27.36-26.64 9.36-17.64 9.36-39.24c0-21.6-2.64-25.8-7.92-36.36q-7.56-15.48-21.24-23.4-1.44-1.08 0-2.52 9-6.48 15.84-16.56m-96.84-50.4q4.32-8.64 12.24-13.5t18-4.86q10.8 0 18.72 4.86t12.6 13.14q3.96 8.64 3.96 16.56 0 14.04-5.4 21.96-10.08 15.12-29.52 15.12c-19.44 0-23.04-4.92-28.8-14.76q-6.12-9.72-6.12-21.96 0-7.2 4.32-16.56m60.48 154.08q-9.36 14.76-29.52 14.76-21.24 0-30.96-15.84-6.48-10.44-6.48-27c0-16.56 2.04-20.52 6.12-27q9.72-15.84 30.96-15.84 22.68 0 31.68 16.56 5.76 9.36 5.76 25.92 0 18-7.56 28.44"/></svg>