<svg xmlns="http://www.w3.org/2000/svg" viewBox="0 0 864 864"><path d="M432 144c-159.06 0-288 128.94-288 288s128.94 288 288 288 288-128.94 288-288-128.94-288-288-288m86.94 343.44q0 1.8-1.26 3.06t-3.06 1.26H499.5q-1.8 0-1.8 1.8v60.12q0 1.8-1.26 3.06t-3.06 1.26h-33.12q-1.8 0-3.06-1.26t-1.26-3.06v-60.12q0-1.8-1.8-1.8H344.7q-1.8 0-3.06-1.26t-1.26-3.06V464.4q0-2.16 1.08-5.4l68.04-149.76q1.44-3.24 5.04-3.24h35.28q2.52 0 3.42 1.26t-.18 3.78l-64.08 141.12q-.36.72 0 1.44t1.08.72h64.08q1.8 0 1.8-1.8v-48.96q0-1.8 1.26-3.06c1.26-1.26 1.86-1.26 3.06-1.26h33.12q1.8 0 3.06 1.26t1.26 3.06v48.96q0 1.8 1.8 1.8h15.12q1.8 0 3.06 1.26t1.26 3.06z"/></svg>