<svg xmlns="http://www.w3.org/2000/svg" viewBox="0 0 864 864"><path fill="none" d="M180 180h504v504H180z"/><path d="M684 144H180c-19.88 0-36 16.12-36 36v504c0 19.88 16.12 36 36 36h504c19.88 0 36-16.12 36-36V180c0-19.88-16.12-36-36-36m0 540H180V180h504z"/><path d="M327.6 556.74q1.26 1.26 3.06 1.26h33.12q1.8 0 3.06-1.26t1.26-3.06V310.32q0-1.8-1.26-3.06t-3.06-1.26h-34.56q-2.52 0-5.4 1.08l-38.88 19.44q-2.88 1.44-2.88 5.04l1.08 23.76q0 1.8.9 2.88t2.34 1.08q1.08 0 1.8-.36l36-11.16q.72-.36 1.44.18t.72 1.26v204.48q0 1.8 1.26 3.06m227.88-16.2q22.5-21.42 22.5-57.78V381.24q0-36-22.5-57.06t-60.3-21.06c-37.8 0-45.18 7.02-59.94 21.06q-22.14 21.06-22.14 57.06v101.52q0 36.36 22.14 57.78t59.94 21.42c37.8 0 45.3-7.14 60.3-21.42m-100.62-55.62V379.8q0-18.72 10.98-29.7t29.34-10.98c18.36 0 22.44 3.66 29.88 10.98q11.16 10.98 11.16 29.7v105.12q0 18.72-11.16 29.7t-29.88 10.98c-18.72 0-22.02-3.66-29.34-10.98q-10.98-10.98-10.98-29.7"/></svg>