<svg xmlns="http://www.w3.org/2000/svg" viewBox="0 0 864 864"><path d="M430.06 376.27c.75.76 1.67 1.13 2.75 1.13h29.81c1.08 0 2-.37 2.75-1.13s1.13-1.67 1.13-2.75V154.5c0-1.08-.38-2-1.13-2.75a3.78 3.78 0 0 0-2.75-1.13h-31.1c-1.51 0-3.13.32-4.86.97l-34.99 17.5c-1.73.87-2.59 2.38-2.59 4.54l.97 21.38c0 1.08.27 1.94.81 2.59s1.24.97 2.11.97c.65 0 1.18-.11 1.62-.32l32.4-10.04c.43-.21.86-.16 1.3.16.43.32.65.7.65 1.13v184.03c0 1.08.38 2 1.13 2.75ZM370.6 486.6h-31.1c-1.51 0-3.13.32-4.86.97l-34.99 17.5c-1.73.87-2.59 2.38-2.59 4.54l.97 21.38c0 1.08.27 1.94.81 2.59s1.24.97 2.11.97c.65 0 1.18-.11 1.62-.32l32.4-10.04c.43-.21.86-.16 1.3.16.43.32.65.7.65 1.13v184.03c0 1.08.38 2 1.13 2.75.75.76 1.67 1.13 2.75 1.13h29.81c1.08 0 1.99-.37 2.75-1.13s1.13-1.67 1.13-2.75V490.49c0-1.08-.38-2-1.13-2.75a3.78 3.78 0 0 0-2.75-1.13Zm172.53 211.09c13.5-12.85 20.25-30.18 20.25-52v-91.37c0-21.6-6.75-38.72-20.25-51.35-13.5-12.64-31.59-18.95-54.27-18.95s-40.66 6.32-53.95 18.95c-13.28 12.64-19.93 29.76-19.93 51.35v91.37c0 21.82 6.64 39.15 19.93 52 13.28 12.85 31.27 19.28 53.95 19.28s40.77-6.42 54.27-19.28m-90.56-50.06v-94.61c0-11.23 3.29-20.14 9.88-26.73s15.39-9.88 26.41-9.88 20.19 3.3 26.89 9.88c6.69 6.59 10.04 15.5 10.04 26.73v94.61c0 11.23-3.35 20.14-10.04 26.73-6.7 6.59-15.66 9.88-26.89 9.88s-19.82-3.29-26.41-9.88-9.88-15.5-9.88-26.73M624 414H240c-9.94 0-18 8.06-18 18s8.06 18 18 18h384c9.94 0 18-8.06 18-18s-8.06-18-18-18"/></svg>