<svg xmlns="http://www.w3.org/2000/svg" viewBox="0 0 864 864"><path fill="none" d="M530.08 199.79C499.04 186.66 466.04 180 432 180s-67.03 6.66-98.08 19.79c-30 12.69-56.96 30.87-80.11 54.02s-41.33 50.11-54.02 80.11C186.66 364.96 180 397.96 180 432s6.66 67.03 19.79 98.08c12.69 30 30.87 56.96 54.02 80.11s50.11 41.33 80.11 54.02C364.96 677.34 397.96 684 432 684s67.03-6.66 98.08-19.79c30-12.69 56.96-30.87 80.11-54.02s41.33-50.11 54.02-80.11C677.34 499.04 684 466.04 684 432s-6.66-67.03-19.79-98.08c-12.69-30-30.87-56.96-54.02-80.11s-50.11-41.33-80.11-54.02"/><path d="M432 144c-159.06 0-288 128.94-288 288s128.94 288 288 288 288-128.94 288-288-128.94-288-288-288m252 288c0 34.04-6.66 67.03-19.79 98.08-12.69 30-30.87 56.96-54.02 80.11s-50.11 41.33-80.11 54.02C499.04 677.34 466.04 684 432 684s-67.03-6.66-98.08-19.79c-30-12.69-56.96-30.87-80.11-54.02s-41.33-50.11-54.02-80.11C186.66 499.04 180 466.04 180 432s6.66-67.03 19.79-98.08c12.69-30 30.87-56.96 54.02-80.11s50.11-41.33 80.11-54.02C364.96 186.66 397.96 180 432 180s67.03 6.66 98.08 19.79c30 12.69 56.96 30.87 80.11 54.02s41.33 50.11 54.02 80.11C677.34 364.96 684 397.96 684 432"/><path d="M455.04 517.5q-9 7.02-21.6 7.02c-12.6 0-15.12-2.16-20.88-6.48s-9.96-10.44-12.6-18.36q-1.44-4.32-1.8-6.48-1.08-3.96-4.68-3.96h-34.2q-4.32 0-4.32 3.96v.72q1.8 10.08 4.68 18 7.92 22.32 27.72 35.46t46.44 13.14c26.64 0 33.71-4.5 47.16-13.5q20.16-13.5 27.72-36.54 4.68-15.12 4.68-32.04c0-16.92-1.56-22.68-4.68-33.48q-6.84-22.32-25.38-35.1t-43.74-12.78q-23.76 0-40.68 12.6-.72.72-1.44.54t-.72-1.62l.36-64.8q0-1.8 1.8-1.8h100.8q1.8 0 3.06-1.26t1.26-3.06v-27.36q0-1.8-1.26-3.06t-3.06-1.26H359.64q-1.8 0-3.06 1.26c-1.26 1.26-1.26 1.86-1.26 3.06v142.56q0 1.8 1.26 3.06t3.06 1.26h34.92q3.6 0 5.04-3.6 2.88-9 12.78-14.58t22.14-5.58q12.96 0 21.96 6.3T468 457.92a74.3 74.3 0 0 1 2.88 20.52q0 11.16-3.24 19.8-3.6 12.24-12.6 19.26"/></svg>