<svg xmlns="http://www.w3.org/2000/svg" viewBox="0 0 864 864"><path d="M363.6 423.84q-17.76 10.08-27.36 29.76c-7.37 15.36-11.04 31.68-11.04 48.96 0 19.2 4.15 36.32 12.48 51.36 8.32 16.32 20.8 28.73 37.44 37.2 16.63 8.48 35.68 12.72 57.12 12.72s40.63-4.32 56.64-12.96c16-8.64 28.15-20.48 36.48-35.52 8.32-15.67 12.48-33.12 12.48-52.32s-3.52-34.4-10.56-48.48c-6.72-13.75-16.16-24.16-28.32-31.2q-1.92-1.44 0-3.36c7.99-5.76 15.04-13.12 21.12-22.08q12.96-19.68 12.96-46.08 0-29.76-16.8-54.24-12.96-18.72-34.32-29.04t-49.68-10.32c-28.32 0-34.72 3.44-49.44 10.32q-22.08 10.32-35.04 29.04-17.76 24-17.76 54.24 0 24.48 12.48 44.64c6.4 10.25 13.6 18.24 21.6 24q1.92 1.92-.48 3.36m27.36-93.12q5.76-11.52 16.32-18c7.03-4.32 15.04-6.48 24-6.48q14.4 0 24.96 6.48t16.8 17.52q5.28 11.52 5.28 22.08c0 12.48-2.4 22.25-7.2 29.28q-13.44 20.16-39.36 20.16c-25.92 0-30.72-6.55-38.4-19.68q-8.16-12.96-8.16-29.28c0-6.4 1.92-13.75 5.76-22.08m-.48 132c8.64-14.08 22.39-21.12 41.28-21.12q30.24 0 42.24 22.08 7.68 12.48 7.68 34.56 0 24-10.08 37.92c-8.33 13.12-21.44 19.68-39.36 19.68-18.88 0-32.64-7.03-41.28-21.12q-8.64-13.92-8.64-36c0-22.08 2.71-27.36 8.16-36"/></svg>