<svg xmlns="http://www.w3.org/2000/svg" viewBox="0 0 864 864"><path fill="none" d="M530.08 199.79C499.04 186.66 466.04 180 432 180s-67.03 6.66-98.08 19.79c-30 12.69-56.96 30.87-80.11 54.02s-41.33 50.11-54.02 80.11C186.66 364.96 180 397.96 180 432s6.66 67.03 19.79 98.08c12.69 30 30.87 56.96 54.02 80.11s50.11 41.33 80.11 54.02C364.96 677.34 397.96 684 432 684s67.03-6.66 98.08-19.79c30-12.69 56.96-30.87 80.11-54.02s41.33-50.11 54.02-80.11C677.34 499.04 684 466.04 684 432s-6.66-67.03-19.79-98.08c-12.69-30-30.87-56.96-54.02-80.11s-50.11-41.33-80.11-54.02"/><path d="M432 144c-159.06 0-288 128.94-288 288s128.94 288 288 288 288-128.94 288-288-128.94-288-288-288m252 288c0 34.04-6.66 67.03-19.79 98.08-12.69 30-30.87 56.96-54.02 80.11s-50.11 41.33-80.11 54.02C499.04 677.34 466.04 684 432 684s-67.03-6.66-98.08-19.79c-30-12.69-56.96-30.87-80.11-54.02s-41.33-50.11-54.02-80.11C186.66 499.04 180 466.04 180 432s6.66-67.03 19.79-98.08c12.69-30 30.87-56.96 54.02-80.11s50.11-41.33 80.11-54.02C364.96 186.66 397.96 180 432 180s67.03 6.66 98.08 19.79c30 12.69 56.96 30.87 80.11 54.02s41.33 50.11 54.02 80.11C677.34 364.96 684 397.96 684 432"/><path d="M514.44 381.24q0-36-22.5-57.06t-60.3-21.06c-37.8 0-45.18 7.02-59.94 21.06q-22.14 21.06-22.14 57.06v101.52q0 36.36 22.14 57.78t59.94 21.42c37.8 0 45.3-7.14 60.3-21.42q22.5-21.42 22.5-57.78zm-41.76 103.68q0 18.72-11.16 29.7t-29.88 10.98c-18.72 0-22.02-3.66-29.34-10.98q-10.98-10.98-10.98-29.7V379.8q0-18.72 10.98-29.7t29.34-10.98c18.36 0 22.44 3.66 29.88 10.98q11.16 10.98 11.16 29.7z"/></svg>