<svg xmlns="http://www.w3.org/2000/svg" viewBox="0 0 864 864"><path d="M452.74 340.95c-5.4 4.21-11.88 6.32-19.44 6.32s-13.61-1.94-18.79-5.83-8.97-9.4-11.34-16.52c-.87-2.59-1.41-4.54-1.62-5.83-.65-2.38-2.06-3.56-4.21-3.56h-30.78c-2.59 0-3.89 1.19-3.89 3.56v.65c1.08 6.05 2.48 11.45 4.21 16.2 4.75 13.39 13.07 24.03 24.95 31.91 11.88 7.89 25.81 11.83 41.8 11.83s30.34-4.05 42.44-12.15c12.09-8.1 20.41-19.06 24.95-32.89 2.8-9.07 4.21-18.68 4.21-28.84s-1.41-20.41-4.21-30.13c-4.11-13.39-11.72-23.92-22.84-31.59-11.13-7.67-24.25-11.5-39.37-11.5-14.26 0-26.46 3.78-36.61 11.34-.44.43-.87.6-1.3.49-.44-.11-.65-.59-.65-1.46l.32-58.32q0-1.62 1.62-1.62h90.72c1.08 0 1.99-.38 2.75-1.13.75-.75 1.13-1.67 1.13-2.75v-24.62c0-1.08-.38-2-1.13-2.75a3.78 3.78 0 0 0-2.75-1.13H366.87c-1.08 0-2 .38-2.75 1.13-.76.76-1.13 1.68-1.13 2.75v128.3c0 1.08.37 2 1.13 2.75.75.76 1.67 1.13 2.75 1.13h31.43c2.16 0 3.67-1.08 4.54-3.24 1.73-5.4 5.56-9.77 11.5-13.12s12.58-5.02 19.93-5.02c7.78 0 14.36 1.89 19.76 5.67s8.85 9.23 10.37 16.36a67 67 0 0 1 2.59 18.47c0 6.7-.97 12.64-2.92 17.82-2.16 7.35-5.94 13.12-11.34 17.33Zm20.73 237.34c-9.61-5.4-20.79-8.1-33.53-8.1-15.99 0-28.51 4.43-37.58 13.28-.44.43-.87.54-1.3.32-.44-.21-.65-.65-.65-1.29v-35.32c0-9.07 2.97-16.47 8.91-22.19s13.45-8.59 22.52-8.59 16.14 2.75 21.87 8.26c5.72 5.51 8.59 12.58 8.59 21.22v2.27c0 1.08.38 2 1.13 2.75.75.76 1.67 1.13 2.75 1.13h29.81c1.08 0 1.99-.37 2.75-1.13.75-.75 1.13-1.67 1.13-2.75v-7.13c0-11.23-2.87-21.17-8.59-29.81-5.73-8.64-13.72-15.33-23.98-20.09-10.26-4.75-21.98-7.13-35.15-7.13s-25.65 2.43-36.13 7.29-18.63 11.72-24.46 20.57c-5.83 8.86-8.75 19.12-8.75 30.78v98.82c0 12.1 1.73 22.68 5.18 31.75 4.97 13.4 13.17 23.81 24.62 31.27 11.45 7.45 25.27 11.18 41.47 11.18s28.89-3.4 40.01-10.21c11.12-6.8 19.28-16.47 24.46-29 4.32-9.93 6.48-21.49 6.48-34.67 0-15.76-2.92-29.16-8.75-40.18-5.62-10.15-13.23-17.93-22.84-23.33Zm-10.85 87.16c-5.62 11.66-15.23 17.5-28.84 17.5s-23.98-5.94-29.16-17.82c-2.81-5.61-4.21-12.85-4.21-21.71 0-10.37 1.62-18.79 4.86-25.27 5.61-10.8 15.12-16.2 28.51-16.2s22.14 5.18 28.19 15.55c3.67 6.91 5.51 15.23 5.51 24.95 0 8.86-1.62 16.52-4.86 23M624 414H240c-9.94 0-18 8.06-18 18s8.06 18 18 18h384c9.94 0 18-8.06 18-18s-8.06-18-18-18"/></svg>