<svg xmlns="http://www.w3.org/2000/svg" viewBox="0 0 864 864"><path fill="none" d="M530.08 199.79C499.04 186.66 466.04 180 432 180s-67.03 6.66-98.08 19.79c-30 12.69-56.96 30.87-80.11 54.02s-41.33 50.11-54.02 80.11C186.66 364.96 180 397.96 180 432s6.66 67.03 19.79 98.08c12.69 30 30.87 56.96 54.02 80.11 23.15 23.16 50.11 41.33 80.11 54.02C364.96 677.34 397.96 684 432 684s67.03-6.66 98.08-19.79c30-12.69 56.96-30.87 80.11-54.02s41.33-50.11 54.02-80.11C677.34 499.04 684 466.04 684 432s-6.66-67.03-19.79-98.08c-12.69-30-30.87-56.96-54.02-80.11-23.15-23.16-50.11-41.33-80.11-54.02"/><path d="M432 144c-159.06 0-288 128.94-288 288s128.94 288 288 288 288-128.94 288-288-128.94-288-288-288m252 288c0 34.04-6.66 67.03-19.79 98.08-12.69 30-30.87 56.96-54.02 80.11-23.15 23.16-50.11 41.33-80.11 54.02C499.04 677.34 466.04 684 432 684s-67.03-6.66-98.08-19.79c-30-12.69-56.96-30.87-80.11-54.02s-41.33-50.11-54.02-80.11C186.66 499.04 180 466.04 180 432s6.66-67.03 19.79-98.08c12.69-30 30.87-56.96 54.02-80.11 23.15-23.16 50.11-41.33 80.11-54.02C364.96 186.66 397.96 180 432 180s67.03 6.66 98.08 19.79c30 12.69 56.96 30.87 80.11 54.02s41.33 50.11 54.02 80.11C677.34 364.96 684 397.96 684 432"/><path d="M334.44 524.88q-12.6 0-21.42-6.66t-12.06-18.18q-2.88-6.84-3.6-18.36 0-4.32-4.32-4.32h-33.48q-4.32 0-4.32 4.32.72 18 5.04 29.16 8.28 23.04 27.9 36.54t46.26 13.5c26.64 0 33.36-4.14 46.08-12.42q19.08-12.42 27.36-35.1 6.12-15.48 6.12-35.64 0-22.32-7.2-39.6-14.04-32.4-47.52-37.08-2.88-.72-1.44-2.16l51.48-51.84q2.16-2.16 2.16-5.4v-31.32q0-1.8-1.26-3.06t-3.06-1.26H263.52q-1.8 0-3.06 1.26c-1.26 1.26-1.26 1.86-1.26 3.06v27.36q0 1.8 1.26 3.06t3.06 1.26h90q1.08 0 1.44.72t-.36 1.44l-59.4 58.32q-1.44 1.44-1.44 3.24 0 1.08 1.08 2.88l16.56 23.04q1.8 2.16 3.6 2.16 1.08 0 2.52-.72 10.44-7.2 16.56-7.2 23.04 0 32.4 20.16 5.4 11.88 5.4 30.24 0 16.56-4.68 27-9 21.6-32.76 21.6M562.5 377.46q1.26 1.26 3.06 1.26h33.12q1.8 0 3.06-1.26c1.26-1.26 1.26-1.86 1.26-3.06v-7.92q0-18.72-9.54-33.12t-26.64-22.32-39.06-7.92c-21.96 0-28.5 2.7-40.14 8.1q-17.46 8.1-27.18 22.86t-9.72 34.2v109.8q0 20.16 5.76 35.28 8.28 22.32 27.36 34.74t46.08 12.42c27 0 32.1-3.78 44.46-11.34q18.54-11.34 27.18-32.22 7.2-16.56 7.2-38.52 0-26.28-9.72-44.64-9.36-16.92-25.38-25.92t-37.26-9q-26.64 0-41.76 14.76-.72.72-1.44.36t-.72-1.44v-39.24c0-10.08 3.29-18.3 9.9-24.66q9.9-9.54 25.02-9.54c15.12 0 17.94 3.06 24.3 9.18q9.54 9.18 9.54 23.58v2.52q0 1.8 1.26 3.06m-64.62 74.7q9.36-18 31.68-18c22.32 0 24.6 5.76 31.32 17.28q6.12 11.52 6.12 27.72 0 14.76-5.4 25.56-9.36 19.44-32.04 19.44c-22.68 0-26.64-6.6-32.4-19.8q-4.68-9.36-4.68-24.12 0-17.28 5.4-28.08"/></svg>