<svg xmlns="http://www.w3.org/2000/svg" viewBox="0 0 864 864"><path fill="none" d="M180 180h504v504H180z"/><path d="M684 144H180c-19.88 0-36 16.12-36 36v504c0 19.88 16.12 36 36 36h504c19.88 0 36-16.12 36-36V180c0-19.88-16.12-36-36-36m0 540H180V180h504z"/><path d="M432.18 560.88q24.48 0 42.48-9.72t27.36-26.64q9.36-17.64 9.36-39.24c0-21.6-2.64-25.8-7.92-36.36q-7.56-15.48-21.24-23.4-1.44-1.08 0-2.52 9-6.48 15.84-16.56 9.72-14.76 9.72-34.56 0-22.32-12.6-40.68-9.72-14.04-25.74-21.78t-37.26-7.74c-21.24 0-26.04 2.58-37.08 7.74q-16.56 7.74-26.28 21.78-13.32 18-13.32 40.68 0 18.36 9.36 33.48 7.2 11.52 16.2 18 1.44 1.44-.36 2.52-13.32 7.56-20.52 22.32-8.28 17.28-8.28 36.72 0 21.6 9.36 38.52 9.36 18.36 28.08 27.9t42.84 9.54m-30.96-204.84q4.32-8.64 12.24-13.5t18-4.86q10.8 0 18.72 4.86t12.6 13.14q3.96 8.64 3.96 16.56 0 14.04-5.4 21.96-10.08 15.12-29.52 15.12c-19.44 0-23.04-4.92-28.8-14.76q-6.12-9.72-6.12-21.96 0-7.2 4.32-16.56m-.36 99q9.72-15.84 30.96-15.84 22.68 0 31.68 16.56 5.76 9.36 5.76 25.92 0 18-7.56 28.44-9.36 14.76-29.52 14.76-21.24 0-30.96-15.84-6.48-10.44-6.48-27c0-16.56 2.04-20.52 6.12-27"/></svg>