<svg xmlns="http://www.w3.org/2000/svg" viewBox="0 0 864 864"><path fill="none" d="M530.08 199.79C499.04 186.66 466.04 180 432 180s-67.03 6.66-98.08 19.79c-30 12.69-56.96 30.87-80.11 54.02s-41.33 50.11-54.02 80.11C186.66 364.96 180 397.96 180 432s6.66 67.03 19.79 98.08c12.69 30 30.87 56.96 54.02 80.11 23.15 23.16 50.11 41.33 80.11 54.02C364.96 677.34 397.96 684 432 684s67.03-6.66 98.08-19.79c30-12.69 56.96-30.87 80.11-54.02s41.33-50.11 54.02-80.11C677.34 499.04 684 466.04 684 432s-6.66-67.03-19.79-98.08c-12.69-30-30.87-56.96-54.02-80.11-23.15-23.16-50.11-41.33-80.11-54.02"/><path d="M432 144c-159.06 0-288 128.94-288 288s128.94 288 288 288 288-128.94 288-288-128.94-288-288-288m252 288c0 34.04-6.66 67.03-19.79 98.08-12.69 30-30.87 56.96-54.02 80.11-23.15 23.16-50.11 41.33-80.11 54.02C499.04 677.34 466.04 684 432 684s-67.03-6.66-98.08-19.79c-30-12.69-56.96-30.87-80.11-54.02s-41.33-50.11-54.02-80.11C186.66 499.04 180 466.04 180 432s6.66-67.03 19.79-98.08c12.69-30 30.87-56.96 54.02-80.11 23.15-23.16 50.11-41.33 80.11-54.02C364.96 186.66 397.96 180 432 180s67.03 6.66 98.08 19.79c30 12.69 56.96 30.87 80.11 54.02s41.33 50.11 54.02 80.11C677.34 364.96 684 397.96 684 432"/><path d="M258.84 387h33.48q1.8 0 3.06-1.26t1.26-3.06v-9.36q0-15.48 10.26-24.84t26.82-9.36c16.56 0 20.04 3.12 27 9.36q10.44 9.36 10.44 24.12 0 19.8-33.12 58.32l-16.92 19.8q-36 42.48-63.36 71.64-2.16 2.16-2.16 5.4v25.92q0 1.8 1.26 3.06t3.06 1.26h154.8q1.8 0 3.06-1.26t1.26-3.06v-27.36q0-1.8-1.26-3.06t-3.06-1.26h-102.6q-1.08 0-1.26-.72t.54-1.44l13.68-15.12q39.6-43.2 56.88-64.8 31.32-38.52 31.32-68.04 0-19.44-9.72-35.1t-27.72-24.66-42.12-9q-21.96 0-39.78 7.92t-28.26 22.32-11.16 33.84v15.48q0 1.8 1.26 3.06t3.06 1.26m272.52-83.88q-22.68 0-40.14 8.1t-27.18 22.86-9.72 34.2v109.8q0 20.16 5.76 35.28 8.28 22.32 27.36 34.74t46.08 12.42c27 0 32.1-3.78 44.46-11.34q18.54-11.34 27.18-32.22 7.2-16.56 7.2-38.52 0-26.28-9.72-44.64-9.36-16.92-25.38-25.92t-37.26-9q-26.64 0-41.76 14.76-.72.72-1.44.36t-.72-1.44v-39.24q0-15.12 9.9-24.66t25.02-9.54c15.12 0 17.94 3.06 24.3 9.18q9.54 9.18 9.54 23.58v2.52q0 1.8 1.26 3.06t3.06 1.26h33.12q1.8 0 3.06-1.26t1.26-3.06v-7.92q0-18.72-9.54-33.12t-26.64-22.32-39.06-7.92m-29.88 149.04q9.36-18 31.68-18c22.32 0 24.6 5.76 31.32 17.28q6.12 11.52 6.12 27.72 0 14.76-5.4 25.56-9.36 19.44-32.04 19.44c-22.68 0-26.64-6.6-32.4-19.8q-4.68-9.36-4.68-24.12 0-17.28 5.4-28.08"/></svg>