<svg xmlns="http://www.w3.org/2000/svg" viewBox="0 0 864 864"><path d="M684 144H180c-19.88 0-36 16.12-36 36v504c0 19.88 16.12 36 36 36h504c19.88 0 36-16.12 36-36V180c0-19.88-16.12-36-36-36m-19.79 386.08c-12.69 30-30.87 56.96-54.02 80.11s-50.11 41.33-80.11 54.02C499.04 677.34 466.04 684 432 684s-67.03-6.66-98.08-19.79c-30-12.69-56.96-30.87-80.11-54.02s-41.33-50.11-54.02-80.11C186.66 499.04 180 466.04 180 432s6.66-67.03 19.79-98.08c12.69-30 30.87-56.96 54.02-80.11s50.11-41.33 80.11-54.02C364.96 186.66 397.96 180 432 180s67.03 6.66 98.08 19.79c30 12.69 56.96 30.87 80.11 54.02s41.33 50.11 54.02 80.11C677.34 364.96 684 397.96 684 432s-6.66 67.03-19.79 98.08"/><path d="M255.6 364.32h25.92q1.8 0 3.06-1.26t1.26-3.06v-16.2q0-1.8 1.8-1.8h77.4q2.16 0 1.44 2.16l-79.56 208.8q-1.8 5.04 3.6 5.04h35.64q3.96 0 5.04-3.6l79.2-209.88q1.08-3.24 1.08-5.4v-28.8q0-1.8-1.26-3.06t-3.06-1.26H255.6q-1.8 0-3.06 1.26c-1.26 1.26-1.26 1.86-1.26 3.06V360q0 1.8 1.26 3.06t3.06 1.26m346.68 118.44V381.24q0-36-22.5-57.06t-60.3-21.06c-37.8 0-45.18 7.02-59.94 21.06q-22.14 21.06-22.14 57.06v101.52q0 36.36 22.14 57.78t59.94 21.42c37.8 0 45.3-7.14 60.3-21.42q22.5-21.42 22.5-57.78m-41.76 2.16q0 18.72-11.16 29.7t-29.88 10.98c-18.72 0-22.02-3.66-29.34-10.98q-10.98-10.98-10.98-29.7V379.8q0-18.72 10.98-29.7t29.34-10.98c18.36 0 22.44 3.66 29.88 10.98q11.16 10.98 11.16 29.7z"/></svg>