<svg xmlns="http://www.w3.org/2000/svg" viewBox="0 0 864 864"><path d="M328.08 372h44.64q2.4 0 4.08-1.68c1.12-1.12 1.68-2.47 1.68-4.08v-12.48q0-20.625 13.68-33.12 13.68-12.48 35.76-12.48c22.08 0 26.71 4.16 36 12.48q13.92 12.48 13.92 32.16 0 26.4-44.16 77.76l-22.56 26.4c-32 37.76-60.17 69.6-84.48 95.52q-2.88 2.88-2.88 7.2v34.56q0 2.4 1.68 4.08c1.12 1.12 2.47 1.68 4.08 1.68h206.4q2.4 0 4.08-1.68c1.68-1.68 1.68-2.47 1.68-4.08v-36.48c0-1.6-.56-2.95-1.68-4.08q-1.68-1.68-4.08-1.68h-136.8c-.96 0-1.52-.31-1.68-.96-.17-.64.07-1.27.72-1.92l18.24-20.16q52.8-57.6 75.84-86.4Q534 391.2 534 351.84q0-25.92-12.96-46.8t-36.96-32.88-56.16-12q-29.28 0-53.04 10.56t-37.68 29.76c-9.29 12.8-14.24 27.84-14.88 45.12v20.64c0 1.6.55 2.96 1.68 4.08q1.68 1.68 4.08 1.68"/></svg>