<svg xmlns="http://www.w3.org/2000/svg" viewBox="0 0 864 864"><path d="M189 393c0 18.39 7.38 38.78 19.73 54.55C222.4 464.99 239.9 474.6 258 474.6s35.6-9.61 49.27-27.05C319.62 431.78 327 411.39 327 393c0-38.05-30.95-69-69-69s-69 30.95-69 69m114 0c0 13.01-5.6 28.24-14.62 39.75S268.57 450.6 258 450.6s-21.36-6.34-30.38-17.85S213 406.01 213 393c0-24.81 20.19-45 45-45s45 20.19 45 45m69 213c0-30.45-11.86-59.08-33.39-80.61S288.45 492 258 492s-59.08 11.86-80.61 33.39S144 575.55 144 606v6h228zm-202.21-18c3.47-17.18 11.9-32.97 24.57-45.64 17-17 39.6-26.36 63.64-26.36s46.64 9.36 63.64 26.36c12.67 12.67 21.1 28.46 24.57 45.64zM577.5 440.25c22.63 0 44.5-12.01 61.59-33.81 15.44-19.71 24.66-45.2 24.66-68.19 0-47.56-38.69-86.25-86.25-86.25s-86.25 38.69-86.25 86.25c0 22.99 9.22 48.48 24.66 68.19 17.09 21.81 38.96 33.81 61.59 33.81m-62.25-102c0-34.32 27.93-62.25 62.25-62.25s62.25 27.93 62.25 62.25c0 17.53-7.49 37.99-19.55 53.38-12.44 15.87-27.6 24.62-42.7 24.62s-30.26-8.74-42.7-24.62c-12.06-15.39-19.55-35.85-19.55-53.38M577.5 462c-38.06 0-73.85 14.82-100.76 41.74C449.83 530.65 435 566.44 435 604.5v7.5h285v-7.5c0-38.06-14.82-73.85-41.74-100.76C651.35 476.83 615.56 462 577.5 462M460.13 588c3.52-25.4 15.13-48.85 33.58-67.29C516.09 498.33 545.85 486 577.5 486s61.41 12.33 83.79 34.71c18.44 18.45 30.06 41.9 33.58 67.29z"/></svg>