<svg xmlns="http://www.w3.org/2000/svg" viewBox="0 0 864 864"><path d="M576 432c-42.83 0-81.28 18.7-107.66 48.38C433.4 451.01 389.68 435 343.5 435c-51.93 0-100.74 20.22-137.46 56.94S149.1 577.48 149.1 629.4V651h303.95c25.3 41.38 70.9 69 122.95 69 79.53 0 144-64.47 144-144s-64.47-144-144-144M173.12 627c.61-44.62 18.27-86.47 49.89-118.09S297.99 459 343.5 459c40.92 0 79.63 14.33 110.42 40.61C440.04 521.75 432 547.93 432 576c0 17.96 3.3 35.15 9.3 51zm487.73 33.85C638.18 683.52 608.05 696 576 696s-62.19-12.48-84.85-35.15S456 608.05 456 576s12.48-62.19 35.15-84.85S543.95 456 576 456s62.19 12.48 84.85 35.15S696 543.95 696 576s-12.48 62.19-35.15 84.85M343.5 407.55c31.68 0 62.3-16.81 86.22-47.34 21.62-27.59 34.53-63.28 34.53-95.46 0-66.58-54.17-120.75-120.75-120.75s-120.75 54.17-120.75 120.75c0 32.18 12.91 67.87 34.53 95.46 23.92 30.53 54.54 47.34 86.22 47.34m-96.75-142.8c0-53.35 43.4-96.75 96.75-96.75s96.75 43.4 96.75 96.75c0 26.99-11 57.15-29.42 80.66-19.27 24.6-43.18 38.14-67.33 38.14s-48.06-13.55-67.33-38.14c-18.42-23.51-29.42-53.66-29.42-80.66"/><path d="M648 564H504c-6.63 0-12 5.37-12 12s5.37 12 12 12h144c6.63 0 12-5.37 12-12s-5.37-12-12-12"/></svg>