<svg xmlns="http://www.w3.org/2000/svg" viewBox="0 0 864 864"><path d="M201 507.3c9.05 0 17.8-4.8 24.64-13.53 6.18-7.88 9.86-18.08 9.86-27.27 0-19.02-15.48-34.5-34.5-34.5s-34.5 15.48-34.5 34.5c0 9.19 3.69 19.39 9.86 27.27 6.83 8.72 15.58 13.53 24.64 13.53m0-57.3c9.1 0 16.5 7.4 16.5 16.5 0 5.15-2.37 11.49-6.03 16.17-3.3 4.21-7.11 6.63-10.47 6.63s-7.17-2.42-10.47-6.63c-3.67-4.68-6.03-11.03-6.03-16.17 0-9.1 7.4-16.5 16.5-16.5m57 123c0-15.23-5.93-29.54-16.69-40.31C230.54 521.92 216.23 516 201 516s-29.54 5.93-40.31 16.69C149.92 543.46 144 557.77 144 573v3h114zm-93.02-15c1.93-4.65 4.78-8.91 8.45-12.58 7.37-7.37 17.16-11.42 27.58-11.42s20.21 4.06 27.58 11.42c3.67 3.67 6.51 7.93 8.45 12.58h-72.05ZM378 472.95c13.58 0 26.7-7.21 36.95-20.29 9.27-11.83 14.8-27.12 14.8-40.91 0-28.53-23.22-51.75-51.75-51.75s-51.75 23.22-51.75 51.75c0 13.79 5.53 29.09 14.8 40.91 10.25 13.08 23.37 20.29 36.95 20.29m0-94.95c18.61 0 33.75 15.14 33.75 33.75 0 9.75-4.2 21.18-10.97 29.81-6.77 8.64-14.86 13.39-22.78 13.39s-16.02-4.76-22.78-13.39-10.97-20.06-10.97-29.81c0-18.61 15.14-33.75 33.75-33.75m85.5 193.5c0-22.84-8.89-44.31-25.04-60.46S400.84 486 378 486s-44.31 8.89-60.46 25.04-25.04 37.62-25.04 60.46v4.5h171zM311.84 558c2.6-12.88 8.92-24.72 18.43-34.23C343.02 511.02 359.97 504 378 504s34.98 7.02 47.73 19.77c9.51 9.51 15.83 21.35 18.43 34.23zM537 357c0 18.39 7.38 38.78 19.73 54.55C570.4 428.99 587.9 438.6 606 438.6s35.6-9.61 49.27-27.05C667.62 395.78 675 375.39 675 357c0-38.05-30.95-69-69-69s-69 30.95-69 69m69-51c28.12 0 51 22.88 51 51 0 14.28-6.09 30.93-15.9 43.45-10.18 13-22.65 20.15-35.1 20.15s-24.92-7.16-35.1-20.15C561.09 387.93 555 371.29 555 357c0-28.12 22.88-51 51-51m0 150c-30.45 0-59.08 11.86-80.61 33.39S492 539.55 492 570v6h228v-6c0-30.45-11.86-59.08-33.39-80.61S636.45 456 606 456m-95.26 102c2.61-21.1 12.11-40.61 27.38-55.88C556.25 483.99 580.36 474 606 474s49.75 9.99 67.88 28.12c15.27 15.27 24.77 34.78 27.38 55.88z"/></svg>