<svg xmlns="http://www.w3.org/2000/svg" viewBox="0 0 864 864"><path d="M432 438.6c18.1 0 35.6-9.61 49.27-27.05C493.62 395.78 501 375.39 501 357c0-38.05-30.95-69-69-69s-69 30.95-69 69c0 18.39 7.38 38.78 19.73 54.55C396.4 428.99 413.9 438.6 432 438.6m0-132.6c28.12 0 51 22.88 51 51 0 14.28-6.09 30.93-15.9 43.45-10.18 13-22.65 20.15-35.1 20.15s-24.92-7.16-35.1-20.15C387.09 387.93 381 371.29 381 357c0-28.12 22.88-51 51-51m114 264c0-30.45-11.86-59.08-33.39-80.61S462.45 456 432 456s-59.08 11.86-80.61 33.39S318 539.55 318 570v6h228zm-209.26-12c2.61-21.1 12.11-40.61 27.38-55.88C382.25 483.99 406.36 474 432 474s49.75 9.99 67.88 28.12c15.27 15.27 24.77 34.79 27.38 55.88z"/></svg>