<svg xmlns="http://www.w3.org/2000/svg" viewBox="0 0 72 72"><path d="M71.95 30.6c-.04-.78-.12-1.56-.22-2.33-.09-.74-.21-1.47-.35-2.19-.14-.7-.3-1.38-.48-2.06a40 40 0 0 0-.59-1.95q-.315-.945-.69-1.86-.36-.9-.78-1.77-.405-.855-.87-1.68A34 34 0 0 0 66 13.64c-.35-.49-.72-.98-1.09-1.45-.38-.47-.76-.93-1.16-1.38s-.81-.89-1.23-1.31-.86-.83-1.31-1.23-.91-.79-1.38-1.16c-.47-.38-.96-.74-1.45-1.09-.5-.35-1-.7-1.52-1.02-.52-.33-1.05-.65-1.6-.95s-1.11-.6-1.68-.87c-.58-.28-1.17-.53-1.77-.78q-.915-.375-1.86-.69c-.64-.22-1.29-.42-1.95-.59-.68-.18-1.37-.34-2.06-.48-.72-.14-1.45-.26-2.19-.35-.77-.1-1.54-.18-2.33-.22-.6-.03-1.2-.05-1.8-.05h-1.8v34.2h34.2v-1.8c0-.6-.02-1.2-.05-1.8ZM41.4 3.66c.46.03.92.07 1.37.12.75.08 1.48.2 2.21.34L41.4 7.7zm0 9.12 7.6-7.6c.62.22 1.23.45 1.83.71q.885.375 1.74.81L41.39 17.88v-5.09Zm0 12.73v-2.55L55.78 8.58c.5.34.99.7 1.47 1.07s.94.76 1.39 1.16L41.4 28.05zm5.09 5.09h-2.55l17.24-17.24c.4.45.79.91 1.16 1.39s.73.97 1.07 1.47L49.03 30.6zm10.18 0h-2.55L65.3 19.42q.435.855.81 1.74c.26.6.5 1.21.71 1.83l-7.6 7.6h-2.54Zm10.19 0h-2.54l3.58-3.58c.14.73.25 1.46.34 2.21.05.45.09.91.12 1.37h-1.49Z"/><path d="M32.4 72C14.53 72 0 57.47 0 39.6S14.53 7.2 32.4 7.2h1.8v30.6h30.6v1.8C64.8 57.47 50.27 72 32.4 72m-1.8-61.14c-15.04.93-27 13.47-27 28.74s12.92 28.8 28.8 28.8 27.81-11.96 28.74-27H30.6z"/></svg>