<svg xmlns="http://www.w3.org/2000/svg" viewBox="0 0 864 864"><path d="M414 715.18c5.57 3.22 11.78 4.82 18 4.82s12.43-1.61 18-4.82l218.24-126c11.14-6.43 18-18.32 18-31.18V306c0-12.86-6.86-24.75-18-31.18L450 148.82c-5.57-3.22-11.78-4.82-18-4.82s-12.43 1.61-18 4.82l-218.24 126a36 36 0 0 0-18 31.18v252c0 12.86 6.86 24.75 18 31.18zM556.71 252H307.29l41.57-24h166.28zm41.57 24 41.57 24h-415.7l41.57-24zm51.96 48v24H213.76v-24zm0 48v24H213.76v-24zm0 48v24H213.76v-24zm0 48v24H213.76v-24zm0 48v24H213.76v-24zm-10.39 48-41.57 24H265.73l-41.57-24zm-332.56 48H556.7l-41.57 24H348.86zM432 684l-41.57-24h83.13l-41.57 24Zm0-504 41.57 24h-83.15l41.57-24Z"/></svg>