<svg xmlns="http://www.w3.org/2000/svg" viewBox="0 0 864 864"><path d="M432 144c-76.93 0-149.25 29.96-203.65 84.35C173.95 282.75 144 355.07 144 432s29.96 149.25 84.35 203.65C282.75 690.05 355.07 720 432 720s149.25-29.96 203.65-84.35C690.05 581.25 720 508.93 720 432s-29.96-149.25-84.35-203.65C581.25 173.95 508.93 144 432 144m251.36 270H450V180.64c60.53 4.24 116.86 29.84 160.19 73.17s68.93 99.66 73.17 160.19m-73.17 196.19C562.59 657.79 499.31 684 432 684s-130.59-26.21-178.19-73.81S180 499.31 180 432s26.21-130.59 73.81-178.19c43.33-43.33 99.66-68.93 160.19-73.17V414c0 19.85 16.15 36 36 36h233.36c-4.24 60.53-29.84 116.86-73.17 160.19"/></svg>