<svg xmlns="http://www.w3.org/2000/svg" viewBox="0 0 864 864"><path d="M432 792c198.82 0 360-161.18 360-360S630.82 72 432 72 72 233.18 72 432s161.18 360 360 360M108 432c0-43.76 8.56-86.18 25.45-126.1 16.32-38.58 39.68-73.23 69.45-103s64.42-53.13 103-69.45C345.82 116.56 388.25 108 432 108s86.18 8.56 126.1 25.45c38.58 16.32 73.23 39.68 103 69.45s53.13 64.42 69.45 103C747.44 345.82 756 388.25 756 432s-8.56 86.18-25.45 126.1c-16.32 38.58-39.68 73.23-69.45 103s-64.42 53.13-103 69.45C518.18 747.44 475.75 756 432 756s-86.18-8.56-126.1-25.45c-38.58-16.32-73.23-39.68-103-69.45s-53.13-64.42-69.45-103C116.56 518.18 108 475.75 108 432"/></svg>