<svg xmlns="http://www.w3.org/2000/svg" viewBox="0 0 864 864"><path d="M463.17 195.96c-6.93-11.99-19.05-17.99-31.17-17.99s-24.24 6-31.17 17.99L148.88 632.01c-13.87 24 3.45 54.01 31.17 54.01h503.89c27.72 0 45.04-30.01 31.17-54.01L463.16 195.96ZM180.05 650.03 432 213.98l251.95 436.05z"/><path d="M400.83 359.99 291.16 549.8c-13.87 24 3.45 54.01 31.17 54.01h219.33c27.72 0 45.04-30.01 31.17-54.01L463.16 359.99C456.23 348 444.11 342 431.99 342s-24.24 6-31.17 17.99ZM541.67 567.8H322.34L432.01 378l109.67 189.8Z"/></svg>