<svg xmlns="http://www.w3.org/2000/svg" viewBox="0 0 864 864"><path d="M432 240c-159.06 0-288 85.96-288 192s128.94 192 288 192 288-85.96 288-192-128.94-192-288-192m183.68 297.81c-23.31 15.54-50.68 27.81-81.35 36.45C502 583.38 467.57 588 432 588s-70.01-4.62-102.33-13.74c-30.67-8.65-58.03-20.91-81.35-36.45C204.26 508.44 180 470.86 180 432s24.26-76.44 68.32-105.81c23.31-15.54 50.68-27.81 81.35-36.45C362 280.62 396.43 276 432 276s70.01 4.62 102.33 13.74c30.67 8.65 58.03 20.91 81.35 36.45C659.74 355.56 684 393.14 684 432s-24.26 76.44-68.32 105.81"/></svg>