<svg xmlns="http://www.w3.org/2000/svg" viewBox="0 0 864 864"><path fill="none" d="M449.5 684 180 414.5v33.94L415.56 684zM684 646.97 217.03 180h-33.94L684 680.91zm-504-28.82v33.94L211.91 684h33.94zM684 180h-25.74L684 205.74zm0 127.56L556.44 180H522.5L684 341.5zM585.26 684 180 278.74v33.94L551.32 684zm67.88 0L180 210.85v33.94L619.2 684zm-135.76 0L180 346.62v33.94L483.44 684zM684 579.09 284.91 180h-33.94L684 613.03zm0-135.77L420.68 180h-33.95L684 477.27zm0-67.88L488.56 180h-33.94L684 409.38zm0-135.76L624.32 180h-33.94L684 273.62zM381.61 684 180 482.38v33.94L347.67 684zm-67.88 0L180 550.26v33.95L279.79 684zM684 511.21 352.79 180h-33.94L684 545.15z"/><path d="M684 613.03 250.97 180h-33.94L684 646.97zm0-67.88L318.85 180h-33.94L684 579.09zm0-67.88L386.73 180h-33.94L684 511.21zm0-67.89L454.62 180h-33.94L684 443.32zm0-67.88L522.5 180h-33.94L684 375.44zm0-67.88L590.38 180h-33.94L684 307.56zm0-67.88L658.26 180h-33.94L684 239.68zM180 684h31.91L180 652.09zm99.79 0L180 584.21v33.94L245.85 684zm67.88 0L180 516.32v33.94L313.73 684zm67.89 0L180 448.44v33.94L381.61 684zm67.88 0L180 380.56v33.94L449.5 684zm67.88 0L180 312.68v33.94L517.38 684zm67.88 0L180 244.79v33.95L585.26 684zm64.8 0v-3.09L183.09 180H180v30.85L653.14 684z"/><path d="M684 144H180c-19.88 0-36 16.12-36 36v504c0 19.88 16.12 36 36 36h504c19.88 0 36-16.12 36-36V180c0-19.88-16.12-36-36-36m0 540H180V180h504z"/></svg>