<svg xmlns="http://www.w3.org/2000/svg" viewBox="0 0 864 864"><path d="M432 720c159.06 0 288-128.94 288-288S591.06 144 432 144 144 272.94 144 432s128.94 288 288 288M276 234.06a251 251 0 0 1 24-16.78v429.44a251 251 0 0 1-24-16.78zm96 442.76V187.18a249 249 0 0 1 24-4.63v498.9a249 249 0 0 1-24-4.63m96 4.63v-498.9c8.09 1.15 16.09 2.7 24 4.63v489.63a249 249 0 0 1-24 4.63Zm120-51.51a251 251 0 0 1-24 16.78V217.28a251 251 0 0 1 24 16.78v395.87ZM684 432c0 34.04-6.66 67.03-19.79 98.08-1.34 3.16-2.75 6.29-4.21 9.38V324.54c1.46 3.1 2.87 6.22 4.21 9.38C677.34 364.96 684 397.96 684 432m-48-147.99v295.98a253 253 0 0 1-24 28.35V255.66c8.74 8.91 16.75 18.38 24 28.35m-96-79.76v455.5c-3.27 1.55-6.57 3.05-9.92 4.46-4.65 1.97-9.35 3.77-14.08 5.44V194.34c4.73 1.68 9.43 3.48 14.08 5.44 3.35 1.42 6.65 2.91 9.92 4.46Zm-96-23.96v503.43c-3.98.19-7.98.29-12 .29s-8.02-.1-12-.29V180.29c3.98-.19 7.98-.29 12-.29s8.02.1 12 .29m-96 14.05v475.31c-4.73-1.68-9.43-3.48-14.08-5.44-3.35-1.42-6.65-2.91-9.92-4.46v-455.5c3.27-1.55 6.57-3.05 9.92-4.46 4.65-1.97 9.35-3.77 14.08-5.44Zm-96 61.32v352.68a253 253 0 0 1-24-28.35V284.01c7.25-9.97 15.26-19.44 24-28.35M180 432c0-34.04 6.66-67.03 19.79-98.08 1.34-3.16 2.75-6.29 4.21-9.38v214.92c-1.46-3.1-2.87-6.22-4.21-9.38C186.66 499.04 180 466.04 180 432"/></svg>