<svg xmlns="http://www.w3.org/2000/svg" viewBox="0 0 864 864"><path d="M432 144c-76.93 0-149.25 29.96-203.65 84.35C173.95 282.75 144 355.07 144 432s29.96 149.25 84.35 203.65C282.75 690.05 355.07 720 432 720s149.25-29.96 203.65-84.35C690.05 581.25 720 508.93 720 432s-29.96-149.25-84.35-203.65C581.25 173.95 508.93 144 432 144M180 432c0-67.31 26.21-130.59 73.81-178.19S364.69 180 432 180s130.59 26.21 178.19 73.81c43.33 43.33 68.93 99.66 73.17 160.19H450c-19.85 0-36 16.15-36 36v233.36c-60.53-4.24-116.86-29.84-160.19-73.17C206.21 562.59 180 499.31 180 432m430.19 178.19c-43.33 43.33-99.66 68.93-160.19 73.17V450h233.36c-4.24 60.53-29.84 116.86-73.17 160.19"/></svg>