<svg xmlns="http://www.w3.org/2000/svg" viewBox="0 0 864 864"><path d="M720 664.97v-465.7c.07-30.46-24.57-55.21-55.03-55.27h-465.7c-30.46-.07-55.21 24.57-55.27 55.03v465.7c-.07 30.46 24.57 55.21 55.03 55.27h465.7c30.46.07 55.21-24.57 55.27-55.03m-304.94-88.39c16.3 0 77.52-9.12 136.13-33.84l28.66 59.9c-10.44 6.5-87.29 43.63-184.32 43.63-26.69 0-111.36-5.86-111.36-111.36v-205.8c0-105.53 84.67-111.36 111.36-111.36v-.02c98.35 0 168.67 34.51 184.32 42.34l-28.66 61.2c-58.61-25.37-119.83-33.84-136.13-33.84-37.78 0-52.08 22.13-52.08 42.31V533.6c0 20.86 14.3 42.98 52.08 42.98"/></svg>