<svg xmlns="http://www.w3.org/2000/svg" viewBox="0 0 864 864"><path d="M432 151.13c-159.12 0-288 128.95-288 288 0 127.27 82.51 235.2 196.92 273.24 14.4 2.71 19.68-6.19 19.68-13.85 0-6.84-.24-24.96-.36-48.96-80.11 17.38-97.01-38.64-97.01-38.64-13.1-33.24-32.04-42.12-32.04-42.12-26.09-17.86 2.02-17.5 2.02-17.5 28.92 2.02 44.11 29.66 44.11 29.66C303 625 344.74 612.28 361.2 604.91c2.59-18.62 10.01-31.32 18.24-38.52-63.96-7.2-131.18-31.97-131.18-142.32 0-31.44 11.16-57.12 29.64-77.28-3.24-7.27-12.96-36.55 2.52-76.22 0 0 24.12-7.73 79.2 29.52 23.04-6.41 47.52-9.58 72-9.72 24.48.14 48.96 3.31 72 9.72 54.72-37.25 78.84-29.52 78.84-29.52 15.48 39.67 5.76 68.95 2.88 76.22 18.36 20.16 29.52 45.84 29.52 77.28 0 110.64-67.32 135-131.4 142.08 10.08 8.64 19.44 26.3 19.44 53.28 0 38.54-.36 69.5-.36 78.86 0 7.56 5.04 16.56 19.8 13.68C637.56 674.19 720 566.19 720 439.11c0-159.05-128.95-288-288-288Z"/></svg>