<svg xmlns="http://www.w3.org/2000/svg" viewBox="0 0 864 864"><path d="M681.98 144h-499.1c-21.07 1.44-37.44 17.86-38.88 38.3v498.82c1.44 20.98 17.09 37.01 37.32 38.81.36.07.72.07 1.08.07h500.28c21.12-2.11 37.2-19.82 37.32-41.04V185.04c0-21.36-16.68-39.36-38.02-41.04M259.01 519.02h-45.72V342.24h45.72zm156.98-.04h-39.91V399.7L360 518.96h-28.51l-16.75-116.64-.17 116.64h-40.01V342.25h59.23c1.99 12.55 3.84 25.15 5.52 37.78l6.48 44.88 10.61-82.66h59.59v176.74Zm119.45-52.35-.02.02c0 15.72-1.06 26.26-2.5 31.68-1.49 5.28-4.08 9.6-7.82 12.48-3.6 3.12-8.16 5.23-13.68 6.38-5.35 1.08-13.68 1.8-24.48 1.8l-.1-.05h-55.32V342.23h34.22c21.94 0 34.8 1.13 42.48 3.07 7.8 2.16 13.8 5.4 17.88 10.08 3.96 4.32 6.55 9.7 7.51 15.48 1.2 5.64 1.82 16.92 1.82 33.65v62.11Zm116.47 35.19c-1.44 5.38-4.68 9.7-9.72 13.63-5.42 3.98-11.52 5.76-18.72 5.76-5.28 0-12-1.44-16.32-3.26-4.56-2.26-8.59-5.69-12.36-10.25l-2.78 11.28H550.8V342.24l-.48-.07h43.2v57.6c3.6-4.2 7.56-7.44 12.24-9.6 4.7-1.99 11.18-3.05 16.56-3.05 5.42-.07 10.8.86 15.84 2.76 4.08 1.68 7.68 4.44 10.46 7.92 2.16 3 3.6 6.48 4.32 10.08.72 3.31 1.06 10.32 1.06 20.88v49.3h.07c0 10.8-1.08 18.34-2.16 23.76"/><path d="M487.49 374.11h-.05v.12c-1.85-1.15-5.45-1.68-10.08-1.68v115.56c6.48 0 10.56-1.44 12-3.96 1.49-2.5 2.28-9.72 2.28-21.24v-68.78c0-7.92-.1-12.96-.79-15.12-.53-2.3-1.61-3.91-3.36-4.9m114.48 38.76-.05.05c-2.88 0-4.66.96-5.4 2.88-.72 1.92-1.44 6.96-1.44 14.98v46.7c0 7.78.72 12.79 1.44 14.95a5.63 5.63 0 0 0 5.42 3.22c2.88 0 6.53-1.13 7.2-3.36.72-2.33 1.1-7.68 1.1-16.18l.72-.05V430.7c0-7.27-.36-12.19-1.44-14.47-1.06-2.4-4.68-3.36-7.56-3.36Z"/></svg>