<svg xmlns="http://www.w3.org/2000/svg" viewBox="0 0 864 864"><path d="m631.36 409.89.08-.15s-.05-.06-.08-.09zM362.03 600.21c14.89-4.01 28.57-10.06 40.1-18.42 11.76-8.4 21.13-19.21 27.85-32.41 6.72-12.96 9.84-28.33 9.84-46.34 0-21.85-5.21-40.82-15.97-56.66-10.71-15.61-26.79-26.65-48.55-32.89 15.97-7.68 27.95-17.29 36.06-29.29 8.09-12 12.17-26.89 12.17-44.66 0-16.33-2.76-30.25-8.16-41.54-5.45-11.28-13.21-20.17-23.05-26.89-9.96-6.72-21.8-11.52-35.65-14.65-13.93-3.07-29.24-4.51-46.1-4.51v.17H143.99V606.3h172.17c15.8 0 31.21-2.14 45.86-6.1ZM221.55 312.17h72.72c6.72 0 13.69.5 20.17 1.78 6.48 1.13 12.24 3.19 17.29 6.17 4.8 2.93 8.88 7.01 12 12.29 2.64 5.31 4.32 12.05 4.32 20.31 0 14.84-4.32 25.64-13.3 32.12-9 6.67-20.43 9.89-34.21 9.89v.02h-78.99v-82.59Zm83.31 233.32h-83.07v-97.24h84.25c16.81 0 30.25 3.84 40.58 11.52 10.08 7.92 15.37 20.89 15.37 38.89 0 9.36-1.44 17.29-4.56 23.05-3.12 6.12-7.44 10.76-12.48 14-5.16 3.24-11.36 5.76-18.32 7.2-6.87 1.51-14.14 2.23-21.75 2.23v.34ZM518.98 275.7h143.29v34.91H518.98z"/><path d="M498.38 575.07c11.52 11.76 25.14 20.89 41.3 27.37 16.52 6.48 34.45 9.6 54.55 9.6 28.72 0 53.54-6.48 73.95-19.93 20.46-13.21 35.94-35.29 45.62-66.03h-62.14c-2.4 7.92-8.55 15.61-18.73 22.57-10.32 7.18-22.57 10.73-36.73 10.73-19.5 0-34.57-5.06-45.12-15.11l1.06-.4c-10.32-10.4-17.05-29.41-17.05-49.58h184.63c.96-20.17-.48-39.14-5.04-57.14-4.56-18.25-12-34.43-22.57-48.5-10.56-13.93-23.77-25.45-39.86-33.61-16.57-8.62-35.29-12.56-57.14-12.56-19.69 0-37.14 3.22-53.3 10.4s-29.8 16.42-41.68 28.67c-11.43 12.24-20.41 26.17-26.89 42.98-6.43 16.57-9.68 34.26-9.68 53.54s2.88 37.93 8.96 54.5c6.1 16.57 14.72 30.73 25.86 42.5m38.22-141.89c1.8-6.48 4.85-12.24 9.41-18.01s10.52-10.56 17.77-14.17c7.47-3.94 16.76-5.71 27.99-5.71 17.21 0 31.33 4.97 39.78 14.21l-.12.23c8.36 9.36 14.57 22.54 16.25 40.49H533.35c.36-5.04 1.44-10.8 3.24-17.05Z"/></svg>