<svg xmlns="http://www.w3.org/2000/svg" viewBox="0 0 864 864"><path d="M575.11 413c-13.92-11.76-32.66-18.96-53.06-18.96A82.18 82.18 0 0 0 468.96 413c-14.21 12-23.62 28.94-24.72 48.14h.02c-1.08 19.73 6.84 38.04 20.76 51.65a81.42 81.42 0 0 0 57.02 22.51c21.2.21 41.64-7.87 56.98-22.51 13.92-13.61 21.84-31.92 20.76-51.67-1.08-19.18-10.46-36.12-24.67-48.12"/><path d="M693.93 392.4a186.1 186.1 0 0 0-44.45-49.03h.05L469.58 205.2l-.48-.36c-11.81-9.07-31.66-9.02-44.64.05-13.13 9.17-14.62 24.36-2.95 33.96l-.02.02 75.02 61.03-228.72.24h-.31c-18.91.02-37.08 12.43-40.68 28.13-3.7 15.96 9.12 29.21 28.8 29.28v.05l115.92-.24-206.88 158.81-.82.6c-19.51 14.93-25.8 39.79-13.51 55.51 12.48 16.01 39 16.03 58.73.1L321.94 480s-1.66 12.48-1.51 19.94h-.02c.14 7.54 2.54 22.13 6.14 33.55a176.9 176.9 0 0 0 38.23 66.17 197.2 197.2 0 0 0 66.89 48.02c27.67 12.2 57.6 18.41 87.84 18.24 30.23.06 60.14-6.25 87.77-18.53a198.8 198.8 0 0 0 66.84-48.24 178.4 178.4 0 0 0 38.21-66.29c7.49-23.83 9.54-49.04 6-73.78a171.1 171.1 0 0 0-24.38-66.7Zm-58.51 110.31a108.9 108.9 0 0 1-24.84 39.02h-.02c-23.28 23.71-55.82 37.15-91.08 37.2-35.28.1-67.85-13.25-91.13-36.91a108.25 108.25 0 0 1-24.86-38.93 102.78 102.78 0 0 1 6.77-84.46 112.7 112.7 0 0 1 27.67-32.9c22.61-18.43 51.38-28.39 81.5-28.44 30.14-.05 58.92 9.84 81.55 28.2 11.52 9.38 20.88 20.5 27.65 32.81a102.8 102.8 0 0 1 12.53 40.94c1.27 14.73-.69 29.57-5.74 43.46Z"/></svg>