<svg xmlns="http://www.w3.org/2000/svg" viewBox="0 0 864 864"><path d="M155.29 361.59v149.89h39.65V452h44.73v59.5h39.66V361.59H239.7v55.8h-44.76v-55.8zm285.47 0v149.89h96.39v-33.21h-56.74V361.59zm267.95 0h-41.05l-22.59 62.27-8.3 24.45h-.91l-8.3-24.45-23.53-62.27h-41.05v149.88h36.43V467.2c0-3.85-.19-8.06-.58-12.68s-.82-9.34-1.28-14.17c-.46-4.84-1.01-9.58-1.61-14.17-.63-4.62-1.15-8.76-1.61-12.44h.91l11.98 35.06 20.77 50.51h14.75l20.74-50.51 12.44-35.06h.91c-.46 3.68-1.01 7.84-1.61 12.46-.63 4.62-1.15 9.34-1.61 14.17-.46 4.84-.89 9.58-1.28 14.17-.39 4.62-.58 8.83-.58 12.68v44.27h36.96V361.58Zm-299.3 33.19v-33.21l-96.85.02v149.89h99.16v-33.21h-59.51v-26.76h48.89v-33.2h-48.89v-23.53zm189.75 156.14-27.07-18.77c-32.36 46.68-85.56 74.54-142.35 74.54s-109.8-27.77-142.16-74.3l-27.05 18.82c9.17 13.19 19.78 25.07 31.5 35.59-6.04 5.49-12.2 12.34-17.88 20.45-16.94 24.18-23.1 49.06-13.79 55.58s30.58-7.8 47.52-31.98c5.39-7.72 9.55-15.42 12.61-22.67 28.37 17.73 60.88 28.51 94.9 30.9-1.88 8.06-3.01 17.37-3.01 27.48 0 29.52 9.22 53.44 20.6 53.44s20.6-23.92 20.6-53.44c0-10.32-1.18-19.88-3.13-28.06a206.2 206.2 0 0 0 93.79-33.69c3.08 8.13 7.82 17.13 14.05 26.04 16.94 24.18 38.21 38.5 47.52 31.98s3.15-31.4-13.79-55.58c-6.79-9.67-14.22-17.66-21.34-23.46 10.49-9.84 20.09-20.79 28.47-32.87ZM307.89 233.15c-16.92-24.18-38.19-38.48-47.5-31.95-9.31 6.52-3.15 31.4 13.79 55.58 6.38 9.1 13.38 16.8 20.12 22.52-14.32 12.51-27.05 27.02-37.68 43.48l27.67 17.88c32.05-49.62 86.43-79.24 145.48-79.24s116.34 31.14 148.01 83.28l28.15-17.11c-10.47-17.23-23.17-32.46-37.54-45.6 7.8-5.9 16.15-14.51 23.65-25.24 16.94-24.18 23.1-49.06 13.79-55.58s-30.58 7.8-47.52 31.98c-7.07 10.08-12.13 20.21-15.09 29.16-27.72-18.31-59.79-29.64-93.84-32.82 2.6-8.95 4.21-19.97 4.21-32.07 0-29.5-9.22-53.42-20.6-53.42s-20.6 23.92-20.6 53.44c0 11.81 1.52 22.64 4.02 31.47-34 2.17-66.34 12.63-94.56 30.01-3.08-8.08-7.77-16.96-13.96-25.77"/></svg>