<svg xmlns="http://www.w3.org/2000/svg" viewBox="0 0 864 864"><path d="m600.51 234-8.51 1.44v11.31c0 1.33 4.06 2.44 5.19 3.27 1.08.9 3.99 1.38 5.19 1.38l10.79.53c12.24.57 15.96 3.19 20.72 7.62 4.69 4.58 5.45 12.36 1.8 23.29L530.45 554.33l-4.01-1.18-66.86-148.6c.97-2.23 56.29-114.64 56.29-114.64 6.36-11.73 12.52-22.2 15.66-27.09 5.71-8.9 8.5-10.58 24.08-11.36 3.19 0 4.4-1.54 4.4-4.67v-11.25l-.8-1.21s-65.42-.22-95.22 0l.02 12.42c0 1.37-.76 2.46.29 3.29 1.13.9 1.6 1.36 2.81 1.36l4.46.56c12.19.57 17.62 4.02 19.29 6.19 2.91 3.89 4.26 8.04-2.77 24.73l-42.15 91.19-38.09-84.59c-12.49-27.03-15.58-35.39 3.25-36.96l5.06-1.15c3.63 0 3.05-1.41 3.05-4.11l-.37-12.8s-69.76 0-101.59.02l-.44 1.16v11.86c0 2.66 2.66 3.35 7.59 4.08 17.63 2.51 17.32 4.51 34.74 42.03 2.61 5.62 54.51 118.13 61.56 135.02L363 553.61l-3.3-.91s-89.54-205.01-115.44-273.6c-2.73-7.06-3.91-12.35-3.91-15.61 0-6.97 5.79-10.75 17.36-11.25l17.6-.62c3.6 0 9.5-1.49 9.5-4.59v-11.25l-5.3-1.16s-109.7-.13-131.85 0l-3.65 1.16v11.84c0 2.12 2.88 3.45 7.85 4.01 13.63.81 22.78 3.16 27.08 7.1 4.28 3.97 8.91 14.01 14.92 29.65 32.56 84.89 101.78 236.38 135.46 322.68 9.69 23.54 21.91 27.21 36.7-.74 15.23-30.66 45.94-98.71 68.34-148.94 20.96 50.11 49.5 117.9 63.26 148.62 10.96 24.58 23.46 27.01 36.14.74 33.16-80.02 130.05-320.85 130.05-320.85 4.19-11.82 10.04-20.92 17.58-27.54 7.48-6.53 18.61-10.23 34.22-10.95 3.16 0 4.4-1.57 4.4-4.63v-11.31l-.4-1.44H600.52Z"/></svg>