<svg xmlns="http://www.w3.org/2000/svg" viewBox="0 0 864 864"><path d="M606.37 414.93v-.18c-1.85 0-3.87 0-5.72.27-1.36 0-2.53 1-3.05 2.34l-8.11 28.19c-3.54 12.16-2.2 23.3 3.7 31.59 5.41 7.59 14.53 11.95 25.5 12.47l44.25 2.72c1.34 0 2.53.63 3.19 1.69.68 1.03.84 2.58.51 3.75-.68 2.02-2.72 3.56-4.9 3.73l-46.1 2.69c-24.98 1.17-51.8 21.28-61.26 45.94l-3.37 8.6c-.68 1.71.52 3.4 2.37 3.4h158.34c1.85 0 3.54-1.17 4.06-3.02 2.69-9.8 4.22-20.09 4.22-30.73 0-62.46-51-113.45-113.63-113.45M148.9 562.24h383.55c2.18 0 4.22-1.55 4.88-3.73l2.88-10.24c3.54-12.16 2.18-23.3-3.73-31.57-5.39-7.59-14.51-11.98-25.48-12.49l-207.82-2.69a3.75 3.75 0 0 1-3.2-1.71c-.68-1.01-.84-2.37-.5-3.73.67-2.02 2.7-3.56 4.89-3.75l209.66-2.69c24.84-1.17 51.84-21.28 61.29-45.93l11.98-31.23c.52-1.35.7-2.71.35-4.03-13.5-61.11-68.04-106.69-133.2-106.69-60.09 0-111.08 38.82-129.3 92.67-11.82-8.78-26.85-13.5-43.06-11.98-28.86 2.86-52 25.99-54.87 54.85-.68 7.44-.17 14.71 1.52 21.46-47.11 1.34-84.75 39.84-84.75 87.28 0 4.2.34 8.44.84 12.66.34 1.99 2.03 3.54 4.05 3.54Z"/></svg>