<svg xmlns="http://www.w3.org/2000/svg" viewBox="0 0 72 72"><path d="m71.1 34.44-13.09-7.56 3.91-14.6c.17-.62-.01-1.28-.47-1.74s-1.12-.63-1.74-.47l-14.6 3.91L37.56.9C37.24.34 36.64 0 36 0s-1.24.34-1.56.9l-7.56 13.09-14.6-3.91c-.62-.17-1.28.01-1.74.47s-.63 1.12-.47 1.74l3.91 14.6L.9 34.44c-.56.32-.9.92-.9 1.56s.34 1.24.9 1.56l13.09 7.56-3.91 14.6c-.17.62.01 1.28.47 1.74a1.8 1.8 0 0 0 1.74.47l14.6-3.91 7.56 13.09c.32.56.92.9 1.56.9s1.24-.34 1.56-.9l7.56-13.09 14.6 3.91a1.8 1.8 0 0 0 1.74-.47c.45-.46.63-1.12.47-1.74l-3.91-14.6 13.09-7.56c.56-.32.9-.92.9-1.56s-.34-1.24-.9-1.56Zm-14.05 7.08-3.23 1.86.96 3.6 2.86 10.66-10.66-2.86-3.6-.96-1.86 3.23L36 66.6l-5.52-9.55-1.86-3.23-3.6.96-10.66 2.86 2.86-10.66.96-3.6-3.23-1.86L5.4 36l9.55-5.52 3.23-1.86-.96-3.6-2.86-10.66 10.66 2.86 3.6.96 1.86-3.23L36 5.4l5.52 9.56 1.86 3.23 3.6-.96 10.66-2.86-2.86 10.66-.96 3.6 3.23 1.86 9.56 5.52-9.55 5.52Z"/></svg>