<svg xmlns="http://www.w3.org/2000/svg" viewBox="0 0 864 864"><path d="M427.34 719.05c.12.05.24.1.35.14q.345.135.69.24c.1.03.19.06.28.09.33.09.65.17.98.24.07.01.14.02.21.04.28.05.56.09.85.12h.01c.04 0 .09.01.13.02h.12c.34.03.69.05 1.03.05s.69-.02 1.03-.05h.12c.04 0 .09-.01.13-.02h.02q.42-.045.84-.12c.07-.01.14-.02.22-.04.33-.07.65-.15.98-.24l.29-.09c.23-.07.45-.15.68-.24.12-.05.24-.09.36-.14.25-.1.49-.22.73-.34l.39-.21c.18-.1.35-.19.52-.3.04-.03.08-.06.12-.08.15-.09.29-.19.44-.3.18-.12.35-.25.51-.38.12-.09.23-.19.35-.28.2-.17.39-.34.58-.52.06-.06.12-.1.18-.16l276-276s.05-.06.08-.09c.12-.12.23-.24.34-.37l.26-.29c.1-.12.21-.25.31-.38.08-.11.17-.21.24-.32.09-.13.18-.25.26-.38.08-.12.16-.24.23-.36.08-.12.15-.25.22-.38s.15-.26.22-.4c.06-.12.12-.25.18-.38.07-.14.13-.28.2-.43.02-.04.04-.08.05-.12.04-.09.07-.18.1-.28.06-.14.11-.29.16-.43s.09-.28.13-.42.08-.28.12-.41c.04-.15.07-.3.11-.45.03-.13.06-.27.08-.4.03-.15.05-.31.07-.46.02-.13.04-.27.05-.41.02-.15.03-.31.04-.46 0-.14.02-.28.02-.42v-.88c0-.14-.01-.28-.02-.42-.01-.15-.02-.31-.04-.46-.02-.14-.03-.27-.05-.41-.02-.15-.05-.31-.07-.46-.03-.14-.05-.27-.08-.4-.03-.15-.07-.3-.11-.45-.04-.14-.08-.28-.12-.41-.04-.14-.09-.28-.13-.42-.05-.15-.1-.29-.16-.43-.04-.09-.06-.18-.1-.28-.02-.04-.04-.08-.05-.12a8 8 0 0 0-.2-.43c-.06-.13-.12-.26-.18-.38-.07-.13-.14-.26-.22-.4-.07-.13-.14-.26-.22-.38a7 7 0 0 1-.23-.36c-.09-.13-.17-.26-.26-.38-.08-.11-.16-.21-.24-.32-.1-.13-.2-.26-.31-.38-.08-.1-.17-.19-.26-.29-.11-.12-.22-.25-.34-.37-.03-.03-.05-.06-.08-.09l-92-92s-.09-.08-.13-.12q-.3-.3-.63-.57c-.08-.07-.16-.14-.24-.2-.27-.21-.54-.42-.82-.61-.09-.06-.19-.12-.29-.18-.2-.12-.4-.25-.61-.36-.13-.07-.27-.14-.4-.21-.19-.09-.38-.18-.57-.26-.13-.06-.25-.11-.38-.17-.3-.12-.61-.23-.92-.32l-.32-.09c-.23-.06-.47-.12-.71-.17-.12-.03-.25-.05-.37-.07-.23-.04-.47-.08-.71-.1-.11-.01-.22-.03-.33-.04-.34-.03-.68-.05-1.02-.05H247.97c-.34 0-.68.02-1.02.05-.11 0-.22.02-.33.04-.24.03-.48.06-.71.1-.12.02-.25.04-.37.07-.24.05-.47.11-.71.17-.11.03-.21.05-.32.09-.31.09-.62.2-.92.32-.13.05-.26.11-.38.17-.19.08-.38.17-.57.26-.14.07-.27.14-.4.21-.21.11-.41.23-.61.36-.09.06-.19.11-.29.18-.28.19-.56.39-.83.61-.08.07-.16.14-.24.2q-.33.27-.63.57c-.04.04-.09.08-.13.12l-92 92s-.05.06-.08.09c-.12.12-.23.24-.34.37-.09.1-.18.19-.26.29-.1.12-.2.25-.3.38-.08.11-.17.21-.25.32-.09.12-.18.25-.26.38-.08.12-.16.24-.23.36-.08.12-.15.25-.22.38s-.15.26-.22.4c-.06.12-.12.25-.18.38-.07.14-.13.28-.2.43-.02.04-.04.08-.05.12-.04.09-.07.18-.1.28-.06.14-.11.29-.16.43s-.09.28-.13.42-.08.28-.12.41c-.04.15-.07.3-.11.45-.03.13-.06.27-.08.4-.03.15-.05.31-.07.46-.02.13-.04.27-.05.41-.02.15-.03.31-.04.46 0 .14-.02.28-.02.42v.88c0 .14.01.28.02.42.01.15.02.31.04.46.02.14.03.27.05.41.02.15.05.31.07.46.03.14.05.27.08.4.03.15.07.3.11.45.04.14.08.28.12.41.04.14.09.28.13.42.05.15.1.29.16.43.04.09.06.18.1.28.02.04.04.08.05.12.06.14.13.29.2.43.06.13.12.26.18.38.07.13.14.26.22.4.07.13.14.26.22.38s.16.24.23.36c.09.13.17.26.26.38.08.11.16.21.25.32.1.13.2.26.3.38.08.1.17.19.26.29.11.12.22.25.34.37.03.03.05.06.08.09l276 276c.06.06.12.1.18.16.19.18.38.35.58.52.11.1.23.19.35.28.17.13.34.26.52.38.14.1.29.2.44.3.04.03.08.06.12.08.17.11.35.2.53.3.12.07.25.14.38.2.24.12.49.24.74.34ZM432 356.97 495.03 420H368.97zM507.35 444 432 670.05 356.65 444zm-47.89 219.57L532.65 444h146.38zM552.97 420 616 356.97 679.03 420zm34.06-68L524 415.03 460.97 352zm-184 0L340 415.03 276.97 352zM248 356.97 311.03 420H184.97zM184.97 444h146.38l73.19 219.57zM432 276c6.63 0 12-5.37 12-12v-60c0-6.63-5.37-12-12-12s-12 5.37-12 12v60c0 6.63 5.37 12 12 12m99.42 22.39a11.95 11.95 0 0 0 5.99 1.61c4.15 0 8.18-2.15 10.4-6l30-51.96c3.31-5.74 1.35-13.08-4.39-16.39s-13.08-1.35-16.39 4.39l-30 51.96c-3.31 5.74-1.35 13.08 4.39 16.39M316.18 294a11.993 11.993 0 0 0 16.39 4.39c5.74-3.31 7.71-10.65 4.39-16.39l-30-51.96c-3.31-5.74-10.65-7.71-16.39-4.39-5.74 3.31-7.71 10.65-4.39 16.39z"/></svg>