<svg xmlns="http://www.w3.org/2000/svg" viewBox="0 0 864 864"><path d="M711 416.41 610.17 358.2l30.13-112.46c1.66-6.21-.11-12.84-4.66-17.39a18 18 0 0 0-12.73-5.27c-1.55 0-3.12.2-4.66.61l-112.46 30.13-58.21-100.83c-3.22-5.57-9.16-9-15.59-9s-12.37 3.43-15.59 9l-58.21 100.83-112.46-30.13c-1.54-.41-3.1-.61-4.66-.61-4.71 0-9.31 1.85-12.73 5.27a18.01 18.01 0 0 0-4.66 17.39l30.13 112.46-100.83 58.21c-5.57 3.22-9 9.16-9 15.59s3.43 12.37 9 15.59l100.83 58.21-30.13 112.46c-1.66 6.21.11 12.84 4.66 17.39 3.42 3.42 8.02 5.27 12.73 5.27 1.55 0 3.12-.2 4.66-.61l112.46-30.13 58.21 100.83c3.22 5.57 9.16 9 15.59 9s12.37-3.43 15.59-9l58.21-100.83 112.46 30.13c1.54.41 3.1.61 4.66.61 4.71 0 9.31-1.85 12.73-5.27a18.01 18.01 0 0 0 4.66-17.39L610.17 505.8 711 447.59c5.57-3.22 9-9.16 9-15.59s-3.43-12.37-9-15.59m-124.83 47.82-31.9 18.42 9.53 35.58 16.68 62.27-62.27-16.68-35.58-9.53-18.42 31.9-32.23 55.83-32.23-55.83-18.42-31.9-35.58 9.53-62.27 16.68 16.68-62.27 9.53-35.58-31.9-18.42L221.96 432l55.83-32.23 31.9-18.42-9.53-35.58-16.68-62.27 62.27 16.68 35.58 9.53 18.42-31.9 32.23-55.83 32.23 55.83 18.42 31.9 35.58-9.53 62.27-16.68-16.68 62.27-9.53 35.58 31.9 18.42L642 432z"/></svg>