<svg xmlns="http://www.w3.org/2000/svg" viewBox="0 0 864 864"><path d="M468 144h-36c-76.93 0-149.25 29.96-203.65 84.35C173.95 282.75 144 355.07 144 432s29.96 149.25 84.35 203.65C282.75 690.05 355.07 720 432 720h36c9.94 0 18-8.06 18-18s-8.06-18-18-18h-36c-67.31 0-130.59-26.21-178.19-73.81S180 499.31 180 432s26.21-130.59 73.81-178.19S364.69 180 432 180h36c57.7 0 111.94 22.47 152.74 63.26C661.54 284.06 684 338.3 684 396s-22.47 111.94-63.26 152.74C579.94 589.54 525.7 612 468 612h-36c-99.25 0-180-80.75-180-180s80.75-180 180-180h36c79.4 0 144 64.6 144 144s-64.6 144-144 144h-36c-59.55 0-108-48.45-108-108s48.45-108 108-108h36c39.7 0 72 32.3 72 72s-32.3 72-72 72h-36c-19.85 0-36-16.15-36-36s16.15-36 36-36h36c-9.94 0-18 8.06-18 18s8.06 18 18 18c19.85 0 36-16.15 36-36s-16.15-36-36-36h-36c-39.7 0-72 32.3-72 72s32.3 72 72 72h36c59.55 0 108-48.45 108-108s-48.45-108-108-108h-36c-79.4 0-144 64.6-144 144s64.6 144 144 144h36c99.25 0 180-80.75 180-180s-80.75-180-180-180h-36c-57.7 0-111.94 22.47-152.73 63.27C238.47 320.07 216 374.31 216 432s22.47 111.94 63.27 152.73C320.07 625.53 374.31 648 432 648h36c67.31 0 130.59-26.21 178.19-73.81S720 463.31 720 396s-26.21-130.59-73.81-178.19S535.31 144 468 144"/></svg>