<svg xmlns="http://www.w3.org/2000/svg" viewBox="0 0 864 864"><path d="M432 144h-36c-67.31 0-130.59 26.21-178.19 73.81S144 328.69 144 396s26.21 130.59 73.81 178.19S328.69 648 396 648h36c57.7 0 111.94-22.47 152.73-63.27C625.53 543.93 648 489.69 648 432s-22.47-111.94-63.27-152.73C543.93 238.47 489.69 216 432 216h-36c-99.25 0-180 80.75-180 180s80.75 180 180 180h36c79.4 0 144-64.6 144-144s-64.6-144-144-144h-36c-59.55 0-108 48.45-108 108s48.45 108 108 108h36c39.7 0 72-32.3 72-72s-32.3-72-72-72h-36c-19.85 0-36 16.15-36 36s16.15 36 36 36c9.94 0 18-8.05 18-17.99s-8.06-17.99-18-17.99V396h36c19.85 0 36 16.15 36 36s-16.15 36-36 36h-36c-39.7 0-72-32.3-72-72s32.3-72 72-72h36c59.55 0 108 48.45 108 108s-48.45 108-108 108h-36c-79.4 0-144-64.6-144-144s64.6-144 144-144h36c99.25 0 180 80.75 180 180s-80.75 180-180 180h-36c-57.7 0-111.94-22.47-152.74-63.26C202.46 507.94 180 453.7 180 396s22.47-111.94 63.26-152.74C284.06 202.46 338.3 180 396 180h36c67.31 0 130.59 26.21 178.19 73.81S684 364.69 684 432s-26.21 130.59-73.81 178.19S499.31 684 432 684h-36c-9.94 0-18 8.06-18 18s8.06 18 18 18h36c76.93 0 149.25-29.96 203.65-84.35C690.05 581.25 720 508.93 720 432s-29.96-149.25-84.35-203.65C581.25 173.95 508.93 144 432 144"/></svg>