<svg xmlns="http://www.w3.org/2000/svg" viewBox="0 0 864 864"><path d="m221.57 397.46 117.22 85.16-44.77 137.8c-1.81 5.56.17 11.66 4.9 15.09a13.49 13.49 0 0 0 15.87 0l117.22-85.16 117.22 85.16c2.37 1.72 5.15 2.58 7.94 2.58 2.78 0 5.57-.86 7.93-2.58 4.73-3.44 6.71-9.53 4.9-15.09l-44.77-137.8 117.22-85.16c4.73-3.44 6.71-9.53 4.9-15.09a13.51 13.51 0 0 0-12.84-9.33H489.62l-44.77-137.8c-1.81-5.56-6.99-9.33-12.84-9.33s-11.03 3.77-12.84 9.33l-44.77 137.8H229.51c-5.85 0-11.03 3.77-12.84 9.33s.17 11.66 4.9 15.09"/></svg>