<svg xmlns="http://www.w3.org/2000/svg" viewBox="0 0 864 864"><path d="m641.25 420.31-75.62-43.66 22.6-84.34a13.494 13.494 0 0 0-16.53-16.53l-84.34 22.6-43.66-75.62c-2.41-4.18-6.87-6.75-11.69-6.75s-9.28 2.57-11.69 6.75l-43.66 75.62-84.34-22.6a13.494 13.494 0 0 0-16.53 16.53l22.6 84.34-75.62 43.66c-4.18 2.41-6.75 6.87-6.75 11.69s2.57 9.28 6.75 11.69l75.62 43.66-22.6 84.34a13.494 13.494 0 0 0 16.53 16.53l84.34-22.6 43.66 75.62c2.41 4.18 6.87 6.75 11.69 6.75s9.28-2.57 11.69-6.75l43.66-75.62 84.34 22.6a13.494 13.494 0 0 0 16.53-16.53l-22.6-84.34 75.62-43.66c4.18-2.41 6.75-6.87 6.75-11.69s-2.57-9.28-6.75-11.69"/></svg>