<svg xmlns="http://www.w3.org/2000/svg" viewBox="0 0 864 864"><path d="m641.25 420.31-75.62-43.66 22.6-84.34c1.25-4.66-.08-9.63-3.49-13.04a13.52 13.52 0 0 0-13.04-3.49l-84.34 22.6-43.66-75.62c-2.41-4.18-6.87-6.75-11.69-6.75s-9.28 2.57-11.69 6.75l-43.66 75.62-84.34-22.6a13.4 13.4 0 0 0-3.49-.46c-3.53 0-6.98 1.39-9.55 3.95a13.5 13.5 0 0 0-3.49 13.04l22.6 84.34-75.62 43.66c-4.18 2.41-6.75 6.87-6.75 11.69s2.57 9.28 6.75 11.69l75.62 43.66-22.6 84.34c-1.25 4.66.08 9.63 3.49 13.04a13.5 13.5 0 0 0 13.04 3.49l84.34-22.6 43.66 75.62c2.41 4.18 6.87 6.75 11.69 6.75s9.28-2.57 11.69-6.75l43.66-75.62 84.34 22.6c1.15.31 2.33.46 3.49.46 3.53 0 6.98-1.39 9.55-3.95 3.41-3.41 4.74-8.38 3.49-13.04l-22.6-84.34 75.62-43.66c4.18-2.41 6.75-6.87 6.75-11.69s-2.57-9.28-6.75-11.69m-93.62 35.86-23.92 13.81 7.15 26.68 12.51 46.7-46.7-12.51-26.68-7.15-13.81 23.92-24.17 41.87-24.17-41.87-13.81-23.92-26.68 7.15-46.7 12.51 12.51-46.7 7.15-26.68-23.92-13.81L274.52 432l41.87-24.17 23.92-13.81-7.15-26.68-12.51-46.7 46.7 12.51 26.68 7.15 13.81-23.92 24.17-41.87 24.17 41.87 13.81 23.92 26.68-7.15 46.7-12.51-12.51 46.7-7.15 26.68 23.92 13.81L589.5 432z"/></svg>