<svg xmlns="http://www.w3.org/2000/svg" viewBox="0 0 864 864"><path d="m501.75 428.1-25.21-14.55 7.53-28.11c.42-1.55-.03-3.21-1.16-4.35a4.5 4.5 0 0 0-4.34-1.17l-28.11 7.53-14.55-25.21c-.8-1.39-2.29-2.25-3.9-2.25s-3.09.86-3.9 2.25l-14.55 25.21-28.11-7.53c-.38-.1-.78-.15-1.16-.15-1.18 0-2.33.46-3.18 1.32a4.49 4.49 0 0 0-1.16 4.35l7.53 28.11-25.21 14.55c-1.39.8-2.25 2.29-2.25 3.9s.86 3.09 2.25 3.9l25.21 14.55-7.53 28.11c-.42 1.55.03 3.21 1.16 4.35a4.5 4.5 0 0 0 4.34 1.17l28.11-7.53 14.55 25.21c.8 1.39 2.29 2.25 3.9 2.25s3.09-.86 3.9-2.25l14.55-25.21 28.11 7.53c.38.1.78.15 1.16.15 1.18 0 2.33-.46 3.18-1.32a4.49 4.49 0 0 0 1.16-4.35l-7.53-28.11 25.21-14.55c1.39-.8 2.25-2.29 2.25-3.9s-.86-3.09-2.25-3.9m-31.21 11.96-7.97 4.6 2.38 8.89 4.17 15.57-15.57-4.17-8.89-2.38-4.6 7.97L432 484.5l-8.06-13.96-4.6-7.97-8.89 2.38-15.57 4.17 4.17-15.57 2.38-8.89-7.97-4.6L379.5 432l13.96-8.06 7.97-4.6-2.38-8.89-4.17-15.57 15.57 4.17 8.89 2.38 4.6-7.97L432 379.5l8.06 13.96 4.6 7.97 8.89-2.38 15.57-4.17-4.17 15.57-2.38 8.89 7.97 4.6L484.5 432z"/></svg>