<svg xmlns="http://www.w3.org/2000/svg" viewBox="0 0 864 864"><path fill="#1b1919" d="M664.36 198.1c-33.84-33.44-80.32-54.09-131.56-54.09s-98.5 20.97-132.36 54.84c-33.87 33.87-54.84 80.67-54.84 132.36 0 13.39 1.47 26.61 4.2 39.4 2.07 9.76 4.95 19.21 8.47 28.31L148.2 609.02c-2.79 2.79-4.2 6.48-4.2 10.17v86.4c0 7.95 6.45 14.4 14.4 14.4h91.84c3.98 0 7.55-1.61 10.17-4.2l23.36-23.36c2.82-2.79 4.23-6.51 4.23-10.2v-48.64h43.2c7.95 0 14.37-6.45 14.37-14.4v-43.2h43.2c3.97 0 7.57-1.61 10.2-4.23l66.07-66.04c9.13 3.57 18.58 6.39 28.34 8.5 12.81 2.74 26.01 4.2 39.43 4.2 51.64 0 98.41-20.97 132.31-54.84l.08-.08c33.84-33.9 54.81-80.67 54.81-132.28s-20.97-98.5-54.84-132.36l-.81-.75Zm-19.53 245.15c-28.66 28.65-68.26 46.34-112.03 46.34-11.58 0-22.75-1.21-33.47-3.51-10.74-2.3-21.11-5.7-30.9-10.08-5.47-2.88-12.36-2.02-16.93 2.53l-68.66 68.66H331.2c-7.95 0-14.43 6.48-14.43 14.43v43.2h-43.2c-7.95 0-14.4 6.42-14.4 14.37v57.08l-14.89 14.95h-71.51v-66.07l212.69-212.66c4.06-4.12 5.44-10.52 2.91-16.1a159 159 0 0 1-10.43-31.74c-2.3-10.68-3.51-21.89-3.51-33.44 0-43.75 17.71-83.35 46.4-112.03 28.62-28.63 68.26-46.4 111.97-46.4s82.74 17.45 111.34 45.68l.69.72c28.63 28.68 46.39 68.28 46.39 112.03s-17.74 83.38-46.39 112.04"/><path fill="#1b1919" d="M561.6 230.41c-19.85 0-37.84 8.06-50.92 21.14s-21.08 31.02-21.08 50.83 8.06 37.9 21.14 50.92c13.02 13.02 31.01 21.08 50.86 21.08s37.87-8.06 50.86-21.08c13.05-13.02 21.11-31.02 21.11-50.92s-8.06-37.87-21.11-50.89c-12.99-13.02-31.02-21.08-50.86-21.08m30.53 102.53c-7.83 7.8-18.63 12.62-30.53 12.62s-22.78-4.78-30.56-12.62c-7.8-7.8-12.64-18.63-12.64-30.56s4.81-22.72 12.64-30.59c7.8-7.78 18.6-12.59 30.56-12.59s22.69 4.84 30.53 12.64c7.8 7.83 12.64 18.63 12.64 30.53s-4.84 22.75-12.64 30.56Z"/></svg>