<svg xmlns="http://www.w3.org/2000/svg" viewBox="0 0 864 864"><path fill="#1b1919" d="M722.08 381.31c5.1-.59 9.71-3.34 12.66-7.55s3.96-9.48 2.77-14.48c-7.73-32.57-20.53-63.49-38.04-91.89a17.99 17.99 0 0 0-26.49-4.66c-20.3 16.07-49.42 14.37-67.75-3.95-18.32-18.32-20.02-47.45-3.95-67.75a17.99 17.99 0 0 0-4.66-26.49c-28.4-17.52-59.32-30.31-91.89-38.04-5-1.19-10.27-.18-14.48 2.77a18 18 0 0 0-7.55 12.66c-3 25.71-24.79 45.1-50.69 45.1s-47.7-19.39-50.69-45.1c-.59-5.1-3.34-9.71-7.55-12.66a17.98 17.98 0 0 0-14.48-2.77c-32.58 7.73-63.49 20.53-91.89 38.04-4.37 2.7-7.39 7.14-8.28 12.2s.42 10.26 3.62 14.29c16.07 20.3 14.37 49.42-3.95 67.75s-47.45 20.02-67.75 3.95a17.99 17.99 0 0 0-26.49 4.66c-17.51 28.4-30.31 59.32-38.04 91.89-1.19 5-.18 10.27 2.77 14.48s7.56 6.96 12.66 7.55c25.71 3 45.1 24.79 45.1 50.69s-19.39 47.7-45.1 50.69c-5.1.6-9.71 3.34-12.66 7.55s-3.96 9.48-2.77 14.48c7.73 32.57 20.53 63.49 38.04 91.89a18 18 0 0 0 12.2 8.28c5.06.89 10.26-.42 14.29-3.61 20.3-16.07 49.42-14.37 67.75 3.95 18.32 18.32 20.02 47.45 3.95 67.75a17.96 17.96 0 0 0-3.61 14.29c.89 5.06 3.9 9.5 8.28 12.2 28.4 17.51 59.31 30.31 91.89 38.04 1.37.33 2.77.49 4.15.49 3.66 0 7.27-1.12 10.33-3.26 4.21-2.95 6.96-7.56 7.55-12.66 3-25.71 24.79-45.1 50.69-45.1s47.7 19.39 50.69 45.1c.59 5.1 3.34 9.71 7.55 12.66a17.98 17.98 0 0 0 14.48 2.77c32.58-7.73 63.49-20.53 91.89-38.04 4.37-2.7 7.39-7.14 8.28-12.2s-.42-10.26-3.62-14.29c-16.07-20.3-14.37-49.42 3.95-67.75 18.32-18.32 47.45-20.02 67.75-3.95a17.96 17.96 0 0 0 14.29 3.61c5.06-.89 9.5-3.9 12.2-8.28 17.51-28.4 30.31-59.32 38.04-91.89 1.19-5 .18-10.27-2.77-14.48s-7.56-6.96-12.66-7.55c-25.71-3-45.1-24.79-45.1-50.69s19.39-47.7 45.1-50.69Zm-24.27 132.34a276 276 0 0 1-20.1 48.58c-32.42-14.94-71.68-8.7-97.93 17.55s-32.49 65.51-17.55 97.93a275.6 275.6 0 0 1-48.58 20.1c-12.36-33.48-44.53-56.82-81.65-56.82s-69.28 23.35-81.65 56.82a275.6 275.6 0 0 1-48.58-20.1c14.94-32.42 8.71-71.68-17.55-97.93-26.25-26.25-65.51-32.49-97.93-17.55a275.6 275.6 0 0 1-20.1-48.58c33.47-12.36 56.82-44.53 56.82-81.65s-23.35-69.28-56.82-81.65a276 276 0 0 1 20.1-48.58 86.85 86.85 0 0 0 36.35 7.96c22.38 0 44.68-8.61 61.58-25.5 26.25-26.25 32.49-65.51 17.55-97.93a275.6 275.6 0 0 1 48.58-20.1c12.36 33.48 44.53 56.82 81.65 56.82s69.28-23.35 81.65-56.82a276 276 0 0 1 48.58 20.1c-14.94 32.42-8.71 71.68 17.55 97.93 26.25 26.25 65.51 32.49 97.93 17.55a275.6 275.6 0 0 1 20.1 48.58c-33.48 12.36-56.82 44.53-56.82 81.65s23.35 69.28 56.82 81.65Z"/><path fill="#1b1919" d="M432 315.31c-64.34 0-116.69 52.35-116.69 116.69S367.66 548.69 432 548.69 548.69 496.34 548.69 432 496.34 315.31 432 315.31m0 197.38c-44.49 0-80.69-36.2-80.69-80.69s36.2-80.69 80.69-80.69 80.69 36.2 80.69 80.69-36.2 80.69-80.69 80.69"/></svg>