<svg xmlns="http://www.w3.org/2000/svg" viewBox="0 0 864 864"><path fill="none" d="M180 684h504V180H180zm79.13-131.41a17.86 17.86 0 0 1-8.98 2.41c-6.22 0-12.27-3.23-15.6-9-4.97-8.61-2.02-19.62 6.59-24.59 2.83-1.64 5.93-2.41 8.98-2.41 6.22 0 12.27 3.23 15.6 9 4.97 8.61 2.02 19.62-6.59 24.59M660 432c0 9.94-8.06 18-18 18s-18-8.06-18-18 8.06-18 18-18 18 8.06 18 18m-55.13-120.59c2.83-1.64 5.93-2.41 8.98-2.41 6.22 0 12.27 3.23 15.6 9 4.97 8.61 2.02 19.62-6.59 24.59a17.86 17.86 0 0 1-8.98 2.41c-6.22 0-12.27-3.23-15.6-9-4.97-8.61-2.02-19.62 6.59-24.59M598.28 528c3.33-5.77 9.38-9 15.6-9 3.05 0 6.15.78 8.98 2.41 8.61 4.97 11.56 15.98 6.59 24.59-3.33 5.77-9.38 9-15.6 9-3.05 0-6.15-.78-8.98-2.41-8.61-4.97-11.56-15.98-6.59-24.59m-76.87-286.87c3.33-5.77 9.38-9 15.6-9 3.05 0 6.15.78 8.98 2.41 8.61 4.97 11.56 15.98 6.59 24.59-3.33 5.77-9.38 9-15.6 9-3.05 0-6.15-.78-8.98-2.41-8.61-4.97-11.56-15.98-6.59-24.59M528 598.28c2.83-1.64 5.93-2.41 8.98-2.41 6.22 0 12.27 3.23 15.61 9 4.97 8.61 2.02 19.62-6.59 24.59a17.86 17.86 0 0 1-8.98 2.41c-6.22 0-12.27-3.23-15.6-9-4.97-8.61-2.02-19.62 6.59-24.59ZM450 639c0 .51-.03 1-.08 1.5.04.5.08.99.08 1.5 0 9.94-8.06 18-18 18s-18-8.06-18-18c0-.51.03-1 .08-1.5-.04-.5-.08-.99-.08-1.5V475.46l-71.1 71.1c-3.51 3.51-8.12 5.27-12.73 5.27s-9.21-1.76-12.73-5.27c-7.03-7.03-7.03-18.43 0-25.46l101.82-101.82q.63-.63 1.32-1.2c.2-.17.42-.31.62-.47.26-.2.52-.4.79-.58.25-.17.51-.31.77-.47.25-.15.48-.3.74-.44.27-.14.54-.26.81-.39.26-.12.52-.25.79-.37.26-.11.53-.2.8-.29.29-.1.57-.21.86-.3.27-.08.54-.14.81-.21.3-.07.59-.16.89-.22.31-.06.63-.1.95-.15.26-.04.52-.09.79-.11a17.5 17.5 0 0 1 3.56 0c.27.03.53.08.79.11.32.05.64.08.95.15.3.06.6.14.89.22.27.07.54.13.81.21.29.09.58.2.86.3.27.1.54.18.8.29.27.11.53.24.79.37.27.13.54.25.81.39.25.13.49.29.74.43.26.16.52.3.77.47.27.18.53.38.79.58.21.16.42.3.62.47.92.75 1.76 1.6 2.51 2.51.17.2.31.42.47.63.19.26.4.51.58.78.17.26.32.52.48.78.14.24.3.48.43.72.14.27.27.55.4.82.12.26.25.51.36.77.11.27.2.54.3.82s.21.56.3.84c.08.28.14.55.21.83.07.29.15.58.21.88.06.32.1.65.15.98.04.25.08.5.11.76.06.59.09 1.19.09 1.78v206.99Zm-18-435c9.94 0 18 8.06 18 18s-8.06 18-18 18-18-8.06-18-18 8.06-18 18-18m-114 30.55c2.83-1.64 5.93-2.41 8.98-2.41 6.22 0 12.27 3.23 15.6 9 4.97 8.61 2.02 19.62-6.59 24.59a17.86 17.86 0 0 1-8.98 2.41c-6.22 0-12.27-3.23-15.61-9-4.97-8.61-2.02-19.62 6.59-24.59Zm-6.59 370.32c3.33-5.77 9.38-9 15.6-9 3.05 0 6.15.78 8.98 2.41 8.61 4.97 11.56 15.98 6.59 24.59-3.33 5.77-9.38 9-15.6 9-3.05 0-6.15-.78-8.98-2.41-8.61-4.97-11.56-15.98-6.59-24.59M234.55 318c3.33-5.77 9.38-9 15.6-9 3.05 0 6.15.78 8.98 2.41 8.61 4.97 11.56 15.98 6.59 24.59-3.33 5.77-9.38 9-15.6 9-3.05 0-6.15-.78-8.98-2.41-8.61-4.97-11.56-15.98-6.59-24.59M222 414c9.94 0 18 8.06 18 18s-8.06 18-18 18-18-8.06-18-18 8.06-18 18-18"/><path d="M684 144H180c-19.88 0-36 16.12-36 36v504c0 19.88 16.12 36 36 36h504c19.88 0 36-16.12 36-36V180c0-19.88-16.12-36-36-36m0 540H180V180h504z"/><path d="M432 657c-9.44 0-17.16-7.26-17.92-16.5-.04.5-.08.99-.08 1.5 0 9.94 8.06 18 18 18s18-8.06 18-18c0-.51-.03-1-.08-1.5-.76 9.24-8.49 16.5-17.92 16.5"/><circle cx="432" cy="222" r="18"/><circle cx="642" cy="432" r="18"/><circle cx="222" cy="432" r="18"/><path d="M318 629.45c2.83 1.64 5.93 2.41 8.98 2.41 6.22 0 12.27-3.23 15.6-9 4.97-8.61 2.02-19.62-6.59-24.59a17.86 17.86 0 0 0-8.98-2.41c-6.22 0-12.27 3.23-15.6 9-4.97 8.61-2.02 19.62 6.59 24.59m210-363.73c2.83 1.64 5.93 2.41 8.98 2.41 6.22 0 12.27-3.23 15.6-9 4.97-8.61 2.02-19.62-6.59-24.59a17.86 17.86 0 0 0-8.98-2.41c-6.22 0-12.27 3.23-15.6 9-4.97 8.61-2.02 19.62 6.59 24.59m76.87 286.87c2.83 1.64 5.93 2.41 8.98 2.41 6.22 0 12.27-3.23 15.6-9 4.97-8.61 2.02-19.62-6.59-24.59a17.86 17.86 0 0 0-8.98-2.41c-6.22 0-12.27 3.23-15.6 9-4.97 8.61-2.02 19.62 6.59 24.59m-363.74-210c2.83 1.64 5.93 2.41 8.98 2.41 6.22 0 12.27-3.23 15.6-9 4.97-8.61 2.02-19.62-6.59-24.59a17.86 17.86 0 0 0-8.98-2.41c-6.22 0-12.27 3.23-15.6 9-4.97 8.61-2.02 19.62 6.59 24.59M250.12 519c-3.05 0-6.15.78-8.98 2.41-8.61 4.97-11.56 15.98-6.59 24.59 3.33 5.77 9.38 9 15.6 9 3.05 0 6.15-.78 8.98-2.41 8.61-4.97 11.56-15.98 6.59-24.59-3.33-5.77-9.38-9-15.6-9m363.76-174c3.05 0 6.15-.78 8.98-2.41 8.61-4.97 11.56-15.98 6.59-24.59-3.33-5.77-9.38-9-15.6-9-3.05 0-6.15.78-8.98 2.41-8.61 4.97-11.56 15.98-6.59 24.59 3.33 5.77 9.38 9 15.6 9m-76.86 286.87c3.05 0 6.15-.78 8.98-2.41 8.61-4.97 11.56-15.98 6.59-24.59-3.33-5.77-9.38-9-15.61-9-3.05 0-6.15.78-8.98 2.41-8.61 4.97-11.56 15.98-6.59 24.59 3.33 5.77 9.38 9 15.6 9Zm-210-363.73c3.05 0 6.15-.78 8.98-2.41 8.61-4.97 11.56-15.98 6.59-24.59-3.33-5.77-9.38-9-15.6-9-3.05 0-6.15.78-8.98 2.41-8.61 4.97-11.56 15.98-6.59 24.59 3.33 5.77 9.38 9 15.61 9Zm106.76 145.95c.26.03.53.08.79.11-.26-.04-.52-.09-.79-.11m5.11 1.28c.27.11.53.24.79.37-.26-.12-.52-.25-.79-.37m1.59.76c.25.13.49.29.74.43-.24-.15-.48-.3-.74-.43m-3.26-1.35c.29.09.58.2.86.3-.29-.1-.57-.21-.86-.3m-7.79-.58c.26-.04.53-.09.79-.11-.27.03-.53.08-.79.11m-6.65 2.36c.25-.15.49-.3.74-.44-.25.14-.49.29-.74.44m1.55-.82c.26-.12.52-.26.79-.37-.27.11-.53.24-.79.37m1.58-.66c.29-.1.57-.21.86-.3-.29.09-.58.2-.86.3m1.68-.51c.3-.07.59-.16.89-.22-.3.06-.6.14-.89.22m20.68 9.77c.12.26.25.51.36.77-.11-.26-.24-.52-.36-.77m-1.88-3.12c.19.26.4.52.58.78-.18-.27-.38-.52-.58-.78m-25.8-3.14q-.69.57-1.32 1.2c.42-.43.87-.82 1.32-1.2m25.33 2.51c-.75-.92-1.6-1.76-2.51-2.51.45.37.9.77 1.32 1.19s.82.87 1.19 1.32M414 475.46V639c0 .51.03 1 .08 1.5.76-9.24 8.49-16.5 17.92-16.5s17.16 7.26 17.92 16.5c.04-.5.08-.99.08-1.5V432.01c0 4.6-1.76 9.21-5.27 12.72zm35.8-46c.04.25.08.51.11.76-.03-.26-.07-.51-.11-.76m-.36-1.85c.07.29.16.58.21.88-.06-.3-.14-.58-.21-.88m-2-4.82c.14.24.3.48.43.72-.13-.25-.28-.48-.43-.72m-26.23-5.18c.26-.2.52-.4.79-.58-.27.18-.53.39-.79.58m27.72 8.32c.1.28.21.56.3.84-.09-.29-.19-.56-.3-.84m-13.41-11.58c.3.06.6.14.89.22-.3-.07-.59-.16-.89-.22"/><path d="M432 624c-9.43 0-17.16 7.26-17.92 16.5.76 9.24 8.49 16.5 17.92 16.5s17.16-7.26 17.92-16.5c-.76-9.24-8.49-16.5-17.92-16.5m-12.73-204.72L317.45 521.1c-7.03 7.03-7.03 18.43 0 25.46 3.51 3.51 8.12 5.27 12.73 5.27s9.21-1.76 12.73-5.27l71.1-71.1V432a17.9 17.9 0 0 1 5.27-12.72Zm20.4-3.54c.27.13.55.25.81.39-.27-.14-.54-.26-.81-.39m1.55.82c.26.16.52.3.77.47-.25-.17-.52-.32-.77-.47m-4.81-1.99c.27.07.55.13.81.21-.27-.08-.54-.14-.81-.21m6.37 3.04c.21.16.42.3.62.47-.2-.17-.42-.31-.62-.47m-17.67-2.24c.26-.11.53-.2.8-.29-.27.1-.54.18-.8.29m1.67-.59c.27-.08.54-.14.81-.21-.27.07-.54.13-.81.21m-4.77 2.25c.25-.17.51-.31.77-.47-.26.15-.52.3-.77.47m1.51-.9c.26-.14.54-.26.81-.39-.27.13-.54.25-.81.39m4.96-1.78c.31-.06.63-.1.95-.15-.32.05-.64.08-.95.15m21.17 14.13c.06.32.1.65.15.98-.05-.33-.08-.66-.15-.98m-1.78-4.96c.14.27.27.55.4.82-.13-.28-.25-.55-.4-.82m.76 1.59c.11.27.2.54.3.82-.1-.27-.19-.55-.3-.82m-28.04-7.03c.2-.16.42-.31.62-.47-.21.16-.42.3-.62.47m28.63 8.69c.08.27.14.55.21.83-.07-.28-.13-.56-.21-.83m-2.25-4.76c.17.25.32.52.48.78-.16-.26-.31-.53-.48-.78m-1.05-1.42c.17.2.31.42.47.63-.16-.21-.3-.43-.47-.63m-7.83-5.51c.27.1.54.18.8.29-.26-.11-.53-.2-.8-.29m-3.52-.88c.32.05.64.08.95.15-.31-.06-.63-.1-.95-.15"/><path d="M449.91 430.22c-.03-.25-.07-.51-.11-.76-.05-.33-.09-.66-.15-.98-.06-.29-.14-.58-.21-.88-.07-.28-.13-.56-.21-.83q-.135-.42-.3-.84c-.1-.27-.19-.55-.3-.82-.11-.26-.24-.52-.36-.77-.13-.28-.25-.55-.4-.82-.13-.25-.28-.48-.43-.72-.16-.26-.31-.53-.48-.78-.18-.27-.38-.52-.58-.78-.16-.21-.3-.43-.47-.63-.37-.45-.77-.9-1.19-1.32s-.87-.82-1.32-1.19c-.2-.16-.42-.31-.62-.47-.26-.2-.52-.4-.79-.58-.25-.17-.52-.32-.77-.47-.24-.15-.49-.3-.74-.43-.26-.14-.54-.26-.81-.39-.26-.12-.52-.26-.79-.37-.26-.11-.53-.2-.8-.29-.29-.1-.57-.21-.86-.3-.27-.08-.54-.14-.81-.21-.3-.07-.59-.16-.89-.22-.31-.06-.63-.1-.95-.15-.26-.04-.53-.09-.79-.11a17.5 17.5 0 0 0-3.56 0c-.26.03-.53.08-.79.11-.32.05-.64.08-.95.15-.3.06-.6.14-.89.22-.27.07-.55.13-.81.21-.29.09-.58.2-.86.3-.27.1-.54.18-.8.29-.27.11-.53.24-.79.37-.27.13-.55.25-.81.39-.25.13-.49.29-.74.44-.26.16-.52.3-.77.47-.27.18-.53.39-.79.58-.21.16-.42.3-.62.47a17.94 17.94 0 0 0-6.59 13.92v43.46l30.73-30.73a17.95 17.95 0 0 0 5.18-14.5Z"/></svg>