<svg xmlns="http://www.w3.org/2000/svg" viewBox="0 0 864 864"><path fill="none" d="M530.08 199.79C499.04 186.66 466.04 180 432 180s-67.03 6.66-98.08 19.79c-30 12.69-56.96 30.87-80.11 54.02s-41.33 50.11-54.02 80.11C186.66 364.96 180 397.96 180 432s6.66 67.03 19.79 98.08c12.69 30 30.87 56.96 54.02 80.11 23.15 23.16 50.11 41.33 80.11 54.02C364.96 677.34 397.96 684 432 684s67.03-6.66 98.08-19.79c30-12.69 56.96-30.87 80.11-54.02s41.33-50.11 54.02-80.11C677.34 499.04 684 466.04 684 432s-6.66-67.03-19.79-98.08c-12.69-30-30.87-56.96-54.02-80.11-23.15-23.16-50.11-41.33-80.11-54.02m58.4 274.14c-2.15 8.04-9.43 13.35-17.38 13.35-1.54 0-3.11-.2-4.67-.62L450 455.46V630c0 9.94-8.06 18-18 18s-18-8.06-18-18V432c0-.14.02-.28.02-.42 0-.36.02-.71.05-1.07.02-.29.06-.57.09-.86.04-.29.08-.57.13-.86.06-.35.14-.7.22-1.04.03-.14.05-.27.09-.41.02-.09.06-.18.09-.27.1-.36.22-.72.35-1.07.08-.22.15-.44.24-.66.13-.32.27-.62.41-.93.11-.25.23-.49.35-.73.13-.26.28-.5.42-.75.16-.27.32-.54.49-.8.13-.2.28-.4.42-.6.2-.28.4-.56.61-.82.14-.18.3-.35.45-.52.23-.26.46-.52.7-.77.17-.17.35-.34.52-.5.24-.22.48-.45.72-.66.21-.18.43-.34.65-.51.23-.18.46-.35.69-.52.26-.18.52-.34.79-.51.22-.13.43-.27.65-.4.29-.16.59-.31.89-.46.22-.11.43-.22.65-.31a25 25 0 0 1 1.64-.63c.29-.09.58-.17.87-.25s.57-.16.86-.22c.25-.06.51-.1.77-.15.34-.06.68-.12 1.03-.16.22-.03.45-.04.68-.06.38-.03.76-.05 1.15-.06.09 0 .18-.01.27-.01.14 0 .27.02.41.02.36 0 .72.02 1.08.05.29.02.57.06.85.09.29.04.58.08.86.13.35.06.7.14 1.04.22.14.03.28.05.41.09l139.09 37.27c9.6 2.57 15.3 12.44 12.73 22.05Z"/><path d="M432 144c-159.06 0-288 128.94-288 288s128.94 288 288 288 288-128.94 288-288-128.94-288-288-288m252 288c0 34.04-6.66 67.03-19.79 98.08-12.69 30-30.87 56.96-54.02 80.11-23.15 23.16-50.11 41.33-80.11 54.02C499.04 677.34 466.04 684 432 684s-67.03-6.66-98.08-19.79c-30-12.69-56.96-30.87-80.11-54.02s-41.33-50.11-54.02-80.11C186.66 499.04 180 466.04 180 432s6.66-67.03 19.79-98.08c12.69-30 30.87-56.96 54.02-80.11 23.15-23.16 50.11-41.33 80.11-54.02C364.96 186.66 397.96 180 432 180s67.03 6.66 98.08 19.79c30 12.69 56.96 30.87 80.11 54.02s41.33 50.11 54.02 80.11C677.34 364.96 684 397.96 684 432"/><path d="M435.2 414.3c.35.06.69.14 1.04.22-.34-.08-.69-.16-1.04-.22m-14.81 3.96c.21-.18.43-.34.65-.51-.22.17-.44.33-.65.51m1.35-1.04c.26-.18.52-.34.79-.51-.27.17-.53.33-.79.51m-5.69 6.46c.13-.26.28-.5.42-.75-.15.25-.29.49-.42.75m3.09-4.26c.17-.17.35-.34.52-.5-.18.17-.35.33-.52.5m-2.18 2.71c.13-.21.28-.4.42-.6-.14.2-.29.4-.42.6m-1.67 3.21a20 20 0 0 1 .41-.93c-.14.31-.28.62-.41.93m2.7-4.63c.14-.18.3-.35.45-.52-.15.17-.3.34-.45.52m11.91-6.58c.22-.03.45-.04.68-.06-.23.02-.45.03-.68.06m2.1-.13c-.09 0-.18.01-.27.01h.69c-.14 0-.27-.02-.41-.02Zm-17.92 16.51c.02-.29.06-.57.09-.86-.04.28-.07.57-.09.86m9.1-14.19c.29-.16.59-.31.89-.46-.3.15-.6.3-.89.46m-9.16 15.26c0 .14-.02.28-.02.42v198c0 9.94 8.06 18 18 18s18-8.06 18-18V455.46l-22.66-6.07c-8.19-2.19-13.51-9.69-13.32-17.81m19.47-17.5c.28.02.56.06.85.09-.28-.04-.56-.07-.85-.09M414.3 428.8c.06-.35.14-.7.22-1.04-.08.35-.16.69-.22 1.04m13.8-14.36c.25-.06.51-.1.77-.15-.26.05-.52.09-.77.15m-3.37 1.1c.3-.13.61-.25.92-.37-.31.12-.62.23-.92.37m-10.03 11.53c.1-.36.22-.72.35-1.07-.13.35-.24.71-.35 1.07m12.54-12.41c.29-.08.57-.16.86-.22-.29.06-.58.14-.86.22m-6.2 3.08c.23-.18.46-.35.69-.52-.24.16-.46.34-.69.52m11.37-3.72c.36 0 .72.03 1.08.05-.36-.03-.72-.05-1.08-.05m1.93.15c.29.04.58.08.86.13-.29-.05-.58-.09-.86-.13m-14.67 4.74c.24-.22.48-.45.72-.66q-.375.315-.72.66"/><path d="m575.75 451.88-139.09-37.27c-.14-.04-.28-.06-.41-.09 7.89 1.91 13.75 9 13.75 17.48v23.46l116.43 31.2c1.56.42 3.13.62 4.67.62 7.95 0 15.22-5.3 17.38-13.35 2.57-9.6-3.13-19.47-12.73-22.05m-145.17-37.81c.38-.03.76-.05 1.15-.06-.39 0-.77.03-1.15.06m-4.93 1.11c.24-.09.48-.18.72-.26-.24.08-.48.17-.72.26m-9.95 9.23c.11-.24.23-.49.35-.73-.12.24-.24.48-.35.73m-.65 1.59c.08-.22.15-.44.24-.66-.09.22-.16.44-.24.66m1.42-3.07c.16-.27.32-.54.49-.8-.17.26-.33.53-.49.8m.91-1.4c.2-.28.4-.56.61-.82-.21.27-.41.54-.61.82m-2.77 5.81c-.04.14-.06.27-.09.41.06-.23.11-.46.17-.68l-.09.27Zm14.26-13.05c.34-.06.68-.12 1.03-.16-.35.04-.69.1-1.03.16m-10.43 5.9c.23-.26.46-.52.7-.77-.24.25-.47.51-.7.77m5.63-4.33c.22-.11.43-.22.65-.31-.22.1-.43.21-.65.31m-1.54.85c.22-.13.43-.27.65-.4-.22.13-.44.26-.65.4m-8.36 12.94"/><path d="M436.25 414.52c-.35-.08-.69-.16-1.04-.22-.29-.05-.57-.09-.86-.13-.28-.04-.57-.07-.85-.09-.36-.03-.72-.05-1.08-.05-.23 0-.46-.01-.69 0-.39 0-.77.03-1.15.06-.23.02-.45.03-.68.06-.35.04-.69.1-1.03.16-.26.05-.52.09-.77.15-.29.06-.58.14-.86.22-.29.08-.58.16-.87.25-.24.08-.48.17-.72.26-.31.12-.62.23-.92.37-.22.1-.44.21-.65.31-.3.15-.6.3-.89.46-.22.13-.44.26-.65.4-.27.17-.53.33-.79.51-.24.17-.47.34-.69.52-.22.17-.44.33-.65.51q-.375.315-.72.66c-.18.17-.35.33-.52.5-.24.25-.47.51-.7.77-.15.17-.3.34-.45.52-.21.27-.42.54-.61.82-.14.2-.29.4-.42.6-.17.26-.33.53-.49.8-.14.25-.29.49-.42.75-.12.24-.24.48-.35.73-.14.31-.28.61-.41.93-.09.22-.16.44-.24.66-.12.35-.24.71-.35 1.07-.06.22-.12.45-.17.68-.08.35-.16.7-.22 1.04-.05.28-.09.57-.13.86s-.07.57-.09.86c-.03.35-.05.71-.05 1.07-.19 8.11 5.13 15.61 13.32 17.81l22.66 6.07v-23.46c0-8.48-5.87-15.56-13.75-17.48Z"/></svg>