<svg xmlns="http://www.w3.org/2000/svg" viewBox="0 0 864 864"><path d="M432 144c-159.06 0-288 128.94-288 288s128.94 288 288 288 288-128.94 288-288-128.94-288-288-288m18 486c0 9.94-8.06 18-18 18s-18-8.06-18-18V455.46l-116.43 31.2c-1.56.42-3.13.62-4.67.62-7.95 0-15.22-5.3-17.38-13.35-2.57-9.6 3.13-19.47 12.73-22.05l139.09-37.27c.14-.04.27-.05.41-.09.35-.08.69-.16 1.05-.22.28-.05.56-.09.84-.13.29-.04.58-.07.87-.1.35-.03.7-.04 1.05-.05.15 0 .29-.02.43-.02.1 0 .19.01.29.01.37 0 .74.03 1.1.06l.72.06c.33.04.65.09.98.15.28.05.55.1.82.16q.405.09.81.21c.31.08.62.17.92.27.23.07.45.16.67.25.33.12.65.25.97.39.21.09.4.19.6.29.32.15.63.31.94.48.21.12.41.25.61.37.28.17.56.34.83.53.23.16.45.33.67.5.23.17.46.35.68.53.24.2.47.42.7.64.18.17.37.34.54.52.24.24.46.5.69.76.15.18.31.35.46.53.21.26.41.54.61.81.15.2.29.4.43.61.17.26.33.53.48.79.15.25.29.5.43.76.12.24.24.48.35.72.14.31.28.62.41.94.08.21.16.43.24.65.13.36.24.71.35 1.08l.09.27c.04.14.05.27.09.41.08.35.16.69.22 1.05.05.29.09.57.13.86.04.28.07.57.09.85.03.36.05.72.05 1.08 0 .14.02.28.02.42v198Z"/></svg>