<svg xmlns="http://www.w3.org/2000/svg" viewBox="0 0 864 864"><path fill="none" d="M684 180H180v504h504zm-79.13 131.41c2.83-1.64 5.93-2.41 8.98-2.41 6.22 0 12.27 3.23 15.61 9 4.97 8.61 2.02 19.62-6.59 24.59a17.86 17.86 0 0 1-8.98 2.41c-6.22 0-12.27-3.23-15.61-9-4.97-8.61-2.02-19.62 6.59-24.59M432 204c9.94 0 18 8.06 18 18s-8.06 18-18 18-18-8.06-18-18 8.06-18 18-18M204 432c0-9.94 8.06-18 18-18s18 8.06 18 18-8.06 18-18 18-18-8.06-18-18m55.13 120.59a17.86 17.86 0 0 1-8.98 2.41c-6.22 0-12.27-3.23-15.61-9-4.97-8.61-2.02-19.62 6.59-24.59 2.83-1.64 5.93-2.41 8.98-2.41 6.22 0 12.27 3.23 15.61 9 4.97 8.61 2.02 19.62-6.59 24.59M265.72 336c-3.33 5.77-9.38 9-15.6 9-3.05 0-6.15-.78-8.98-2.41-8.61-4.97-11.56-15.98-6.59-24.59 3.33-5.77 9.38-9 15.6-9 3.05 0 6.15.78 8.98 2.41 8.61 4.97 11.56 15.98 6.59 24.59m76.87 286.87c-3.33 5.77-9.38 9-15.6 9-3.05 0-6.15-.78-8.98-2.41-8.61-4.97-11.56-15.98-6.59-24.59 3.33-5.77 9.38-9 15.6-9 3.05 0 6.15.78 8.98 2.41 8.61 4.97 11.56 15.98 6.59 24.59M336 265.72a17.86 17.86 0 0 1-8.98 2.41c-6.22 0-12.27-3.23-15.61-9-4.97-8.61-2.02-19.62 6.59-24.59 2.83-1.64 5.93-2.41 8.98-2.41 6.22 0 12.27 3.23 15.6 9 4.97 8.61 2.02 19.62-6.59 24.59ZM450 642c0 9.94-8.06 18-18 18s-18-8.06-18-18c0-.51.03-1 .08-1.5-.04-.5-.08-.99-.08-1.5V432c0-.59.03-1.19.09-1.78.03-.27.08-.53.11-.79.05-.32.08-.64.15-.95.06-.3.14-.59.22-.89.07-.27.13-.55.21-.82.09-.29.2-.57.3-.85.1-.27.19-.55.3-.81s.24-.51.36-.77c.13-.28.25-.56.4-.83.13-.24.28-.48.42-.71.16-.27.31-.54.48-.8s.37-.5.55-.75c.17-.22.32-.45.5-.66.36-.43.73-.85 1.13-1.25.02-.02.04-.05.06-.07s.05-.04.07-.06c.4-.39.81-.77 1.25-1.13.22-.18.44-.33.67-.5.25-.19.49-.38.75-.55s.53-.33.8-.49c.24-.14.47-.29.71-.42.27-.15.55-.27.83-.4.26-.12.51-.25.77-.36.27-.11.54-.2.81-.3.28-.1.56-.21.85-.3.27-.08.55-.14.82-.21.29-.07.59-.16.89-.22.32-.06.64-.1.96-.15.26-.04.52-.09.79-.11a17.5 17.5 0 0 1 3.56 0c.27.03.52.08.79.11.32.05.64.08.96.15.3.06.59.14.89.22.27.07.55.13.82.21.29.09.57.2.85.3.27.1.55.19.81.3s.51.24.77.36c.28.13.56.25.83.4.24.13.47.28.71.42.27.16.54.31.8.49.26.17.5.37.75.55.22.17.45.32.67.5.43.36.85.73 1.25 1.13.02.02.05.04.07.06L546.6 521.09c7.03 7.03 7.03 18.43 0 25.46-3.51 3.51-8.12 5.27-12.73 5.27s-9.21-1.76-12.73-5.27l-71.1-71.1v163.54c0 .51-.03 1-.08 1.5.04.5.08.99.08 1.5Zm96-12.55a17.86 17.86 0 0 1-8.98 2.41c-6.22 0-12.27-3.23-15.6-9-4.97-8.61-2.02-19.62 6.59-24.59 2.83-1.64 5.93-2.41 8.98-2.41 6.22 0 12.27 3.23 15.61 9 4.97 8.61 2.02 19.62-6.59 24.59Zm6.59-370.32c-3.33 5.77-9.38 9-15.6 9-3.05 0-6.15-.78-8.98-2.41-8.61-4.97-11.56-15.98-6.59-24.59 3.33-5.77 9.38-9 15.6-9 3.05 0 6.15.78 8.98 2.41 8.61 4.97 11.56 15.98 6.59 24.59M629.45 546c-3.33 5.77-9.38 9-15.6 9-3.05 0-6.15-.78-8.98-2.41-8.61-4.97-11.56-15.98-6.59-24.59 3.33-5.77 9.38-9 15.6-9 3.05 0 6.15.78 8.98 2.41 8.61 4.97 11.56 15.98 6.59 24.59M642 450c-9.94 0-18-8.06-18-18s8.06-18 18-18 18 8.06 18 18-8.06 18-18 18"/><path d="M180 720h504c19.88 0 36-16.12 36-36V180c0-19.88-16.12-36-36-36H180c-19.88 0-36 16.12-36 36v504c0 19.88 16.12 36 36 36m0-540h504v504H180z"/><path d="M432 657c-9.43 0-17.16-7.26-17.92-16.5-.04.5-.08.99-.08 1.5 0 9.94 8.06 18 18 18s18-8.06 18-18c0-.51-.03-1-.08-1.5-.76 9.24-8.49 16.5-17.92 16.5"/><circle cx="432" cy="222" r="18"/><circle cx="642" cy="432" r="18"/><circle cx="222" cy="432" r="18"/><path d="M336 598.28a17.86 17.86 0 0 0-8.98-2.41c-6.22 0-12.27 3.23-15.6 9-4.97 8.61-2.02 19.62 6.59 24.59 2.83 1.64 5.93 2.41 8.98 2.41 6.22 0 12.27-3.23 15.6-9 4.97-8.61 2.02-19.62-6.59-24.59m210-363.73a17.86 17.86 0 0 0-8.98-2.41c-6.22 0-12.27 3.23-15.6 9-4.97 8.61-2.02 19.62 6.59 24.59 2.83 1.64 5.93 2.41 8.98 2.41 6.22 0 12.27-3.23 15.6-9 4.97-8.61 2.02-19.62-6.59-24.59m76.87 286.86a17.86 17.86 0 0 0-8.98-2.41c-6.22 0-12.27 3.23-15.6 9-4.97 8.61-2.02 19.62 6.59 24.59 2.83 1.64 5.93 2.41 8.98 2.41 6.22 0 12.27-3.23 15.6-9 4.97-8.61 2.02-19.62-6.59-24.59m-363.74-210a17.86 17.86 0 0 0-8.98-2.41c-6.22 0-12.27 3.23-15.6 9-4.97 8.61-2.02 19.62 6.59 24.59 2.83 1.64 5.93 2.41 8.98 2.41 6.22 0 12.27-3.23 15.6-9 4.97-8.61 2.02-19.62-6.59-24.59M250.12 519c-3.05 0-6.15.78-8.98 2.41-8.61 4.97-11.56 15.98-6.59 24.59 3.33 5.77 9.38 9 15.61 9 3.05 0 6.15-.78 8.98-2.41 8.61-4.97 11.56-15.98 6.59-24.59-3.33-5.77-9.38-9-15.61-9m363.76-174c3.05 0 6.15-.78 8.98-2.41 8.61-4.97 11.56-15.98 6.59-24.59-3.33-5.77-9.38-9-15.61-9-3.05 0-6.15.78-8.98 2.41-8.61 4.97-11.56 15.98-6.59 24.59 3.33 5.77 9.38 9 15.61 9m-76.9 250.86c-3.05 0-6.15.78-8.98 2.41-8.61 4.97-11.56 15.98-6.59 24.59 3.33 5.77 9.38 9 15.6 9 3.05 0 6.15-.78 8.98-2.41 8.61-4.97 11.56-15.98 6.59-24.59-3.33-5.77-9.38-9-15.61-9Zm-210-363.73c-3.05 0-6.15.78-8.98 2.41-8.61 4.97-11.56 15.98-6.59 24.59 3.33 5.77 9.38 9 15.61 9 3.05 0 6.15-.78 8.98-2.41 8.61-4.97 11.56-15.98 6.59-24.59-3.33-5.77-9.38-9-15.6-9Zm95.82 184.42c.24-.14.47-.29.71-.42-.24.13-.47.28-.71.42m3.12-1.48c.28-.1.56-.21.85-.3-.29.09-.57.2-.85.3m-4.67 2.51c.25-.19.49-.38.75-.55-.26.17-.5.37-.75.55m3.09-1.85c.26-.12.51-.25.77-.36-.26.11-.51.24-.77.36m-7.31 6.27c.17-.26.37-.5.55-.75-.19.25-.38.49-.55.75m-1.66 3.11c.11-.26.24-.51.36-.77-.12.26-.25.51-.36.77m-.59 1.66c.09-.29.2-.57.3-.85-.1.28-.21.56-.3.85m1.35-3.26c.13-.24.28-.48.42-.71-.14.24-.29.47-.42.71m1.95-2.92c.35-.43.73-.85 1.13-1.25-.39.4-.77.81-1.13 1.25m-3.73 7.89c.06-.3.14-.59.22-.89-.07.3-.16.59-.22.89m-.26 1.74c.03-.26.08-.53.11-.79-.04.26-.09.52-.11.79m13.51-15.65c.29-.07.59-.16.89-.22-.3.06-.59.14-.89.22m6.18-.48c.26.03.52.08.79.11-.26-.04-.52-.09-.79-.11m1.74.26c.3.06.59.14.89.22-.29-.07-.59-.16-.89-.22M450 475.46l-30.73-30.73A17.95 17.95 0 0 1 414 432v207c0 .51.03 1 .08 1.5.76-9.24 8.49-16.5 17.92-16.5s17.16 7.26 17.92 16.5c.04-.5.08-.99.08-1.5zm-11.11-60.09c.26.11.51.24.77.36-.26-.12-.51-.25-.77-.36m-1.66-.59c.29.09.57.2.85.3-.28-.1-.56-.21-.85-.3m6.18 3.3c.43.35.85.73 1.25 1.13-.4-.39-.81-.77-1.25-1.13m-13.97-3.88c.26-.04.52-.09.79-.11-.27.03-.52.08-.79.11m12.56 2.83c.26.17.5.36.75.55-.25-.19-.49-.38-.75-.55m-1.51-.9c.24.13.47.28.71.42-.24-.14-.47-.29-.71-.42"/><path d="M432 624c-9.43 0-17.16 7.26-17.92 16.5.76 9.24 8.49 16.5 17.92 16.5s17.16-7.26 17.92-16.5c-.76-9.24-8.49-16.5-17.92-16.5m-17.8-194.57c.05-.32.08-.64.15-.95-.06.32-.1.63-.15.95m6.39-11.35c.21-.18.44-.33.67-.5-.22.17-.45.32-.67.5m-5.52 7.84c.1-.27.19-.55.3-.81-.11.27-.2.54-.3.81m.66-1.58c.13-.28.25-.56.4-.83-.15.27-.27.55-.4.83m-1.16 3.25c.07-.27.13-.55.21-.82-.08.27-.14.55-.21.82m3.02-6.34c.17-.22.32-.45.5-.66-.18.22-.33.44-.5.66m-1.04 1.55c.16-.27.31-.54.48-.8-.17.26-.33.53-.48.8m2.79-3.59s-.05.04-.07.06-.04.05-.06.07zm23.41-1.63c.22.17.45.32.67.5-.22-.18-.44-.33-.67-.5m-8.19-3.38c.32.05.64.08.96.15-.32-.06-.64-.1-.96-.15M450 432v43.46l71.1 71.1c3.51 3.51 8.12 5.27 12.73 5.27s9.21-1.76 12.73-5.27c7.03-7.03 7.03-18.43 0-25.46L444.74 419.28s-.05-.04-.07-.06c3.3 3.26 5.34 7.79 5.34 12.79Zm-13.6-17.43c.27.07.55.13.82.21-.27-.08-.55-.14-.82-.21m-14.4 2.46c.26-.17.53-.33.8-.49-.27.16-.54.31-.8.49m16.08-1.96c.27.1.55.19.81.3-.27-.11-.54-.2-.81-.3m3.12 1.48c.27.16.54.31.8.49-.26-.17-.53-.33-.8-.49m-16.09-1.18c.27-.11.54-.2.81-.3-.27.1-.54.19-.81.3m-1.6.76c.27-.14.55-.27.83-.4-.28.13-.56.25-.83.4m16.15-.4c.28.13.56.25.83.4-.27-.15-.55-.27-.83-.4m-12.89-.95c.27-.08.55-.14.82-.21-.27.07-.55.13-.82.21m1.71-.43c.31-.06.64-.1.96-.15-.32.05-.64.08-.96.15"/><path d="M450 475.46V432c0-5-2.05-9.53-5.34-12.79-.4-.4-.82-.77-1.25-1.13-.21-.18-.44-.33-.67-.5-.25-.19-.49-.38-.75-.55s-.53-.33-.8-.49c-.24-.14-.47-.29-.71-.42-.27-.14-.55-.27-.83-.4-.26-.12-.51-.25-.77-.36-.27-.11-.54-.2-.81-.3-.28-.1-.56-.21-.85-.3-.27-.08-.55-.14-.82-.21-.29-.07-.59-.16-.89-.22-.31-.06-.64-.1-.96-.15-.26-.04-.52-.09-.79-.11a17.5 17.5 0 0 0-3.56 0c-.26.03-.52.08-.79.11-.32.05-.64.08-.96.15-.3.06-.59.14-.89.22-.27.07-.55.13-.82.21-.29.09-.57.2-.85.3-.27.1-.55.19-.81.3s-.51.24-.77.36c-.28.13-.56.25-.83.4-.24.13-.47.28-.71.42-.27.16-.54.31-.8.49-.26.17-.5.36-.75.55-.22.17-.45.32-.67.5-.43.35-.85.73-1.25 1.13l-.13.13c-.4.4-.77.82-1.13 1.25-.17.21-.33.44-.5.66-.19.25-.38.49-.55.75s-.33.53-.48.8c-.14.24-.29.47-.42.71-.14.27-.27.55-.4.83-.12.26-.25.51-.36.77-.11.27-.2.54-.3.81-.1.28-.21.56-.3.85-.08.27-.14.55-.21.82-.07.3-.16.59-.22.89-.06.31-.1.63-.15.95-.04.26-.09.52-.11.79a17.97 17.97 0 0 0 5.18 14.51l30.73 30.73Z"/></svg>