<svg xmlns="http://www.w3.org/2000/svg" viewBox="0 0 864 864"><path fill="none" d="M530.08 199.79C499.04 186.66 466.04 180 432 180s-67.03 6.66-98.08 19.79c-30 12.69-56.96 30.87-80.11 54.02s-41.33 50.11-54.02 80.11C186.66 364.96 180 397.96 180 432s6.66 67.03 19.79 98.08c12.69 30 30.87 56.96 54.02 80.11 23.15 23.16 50.11 41.33 80.11 54.02C364.96 677.34 397.96 684 432 684s67.03-6.66 98.08-19.79c30-12.69 56.96-30.87 80.11-54.02s41.33-50.11 54.02-80.11C677.34 499.04 684 466.04 684 432s-6.66-67.03-19.79-98.08c-12.69-30-30.87-56.96-54.02-80.11-23.15-23.16-50.11-41.33-80.11-54.02M450 630c0 9.94-8.06 18-18 18s-18-8.06-18-18V455.46l-116.43 31.2c-1.56.42-3.13.62-4.67.62-7.95 0-15.22-5.3-17.38-13.35-2.57-9.6 3.13-19.47 12.73-22.05l139.09-37.27c.14-.04.28-.06.41-.09.34-.08.69-.16 1.04-.22.29-.05.57-.09.85-.13s.57-.07.86-.1c.36-.03.71-.05 1.07-.05.14 0 .28-.02.42-.02.09 0 .19.01.28.01.38 0 .75.03 1.13.06l.7.06c.34.04.67.09 1.01.15.27.05.53.09.79.15.28.06.56.14.84.22.3.08.6.16.89.26.24.08.47.17.7.26.32.12.63.24.94.38.21.09.42.2.63.3.31.15.62.3.91.47.22.12.42.25.63.38.27.17.55.34.81.52.23.16.45.34.68.51.22.17.45.34.67.52.24.21.48.43.71.65l.54.51c.24.24.46.5.69.76.15.18.31.35.46.53.21.26.41.54.61.81a13 13 0 0 1 .91 1.4c.15.25.29.5.43.76.12.24.24.48.35.72.14.31.28.62.41.94.08.21.16.43.24.65.13.36.24.71.35 1.08l.09.27c.04.14.05.27.09.41.08.35.16.69.22 1.05.05.29.09.57.13.86.04.28.07.57.09.85.03.36.05.72.05 1.08 0 .14.02.28.02.42v198Z"/><path d="M432 144c-159.06 0-288 128.94-288 288s128.94 288 288 288 288-128.94 288-288-128.94-288-288-288m252 288c0 34.04-6.66 67.03-19.79 98.08-12.69 30-30.87 56.96-54.02 80.11-23.15 23.16-50.11 41.33-80.11 54.02C499.04 677.34 466.04 684 432 684s-67.03-6.66-98.08-19.79c-30-12.69-56.96-30.87-80.11-54.02s-41.33-50.11-54.02-80.11C186.66 499.04 180 466.04 180 432s6.66-67.03 19.79-98.08c12.69-30 30.87-56.96 54.02-80.11 23.15-23.16 50.11-41.33 80.11-54.02C364.96 186.66 397.96 180 432 180s67.03 6.66 98.08 19.79c30 12.69 56.96 30.87 80.11 54.02s41.33 50.11 54.02 80.11C677.34 364.96 684 397.96 684 432"/><path d="M445.55 420.18c.15.18.31.35.46.53-.15-.18-.3-.36-.46-.53m-1.23-1.28.54.51c-.17-.18-.36-.34-.54-.51m3.21 4.02c.15.25.29.5.43.76-.13-.26-.28-.51-.43-.76m1.95 4.83c.08.35.16.7.22 1.05-.06-.35-.14-.7-.22-1.05m-12.82 21.64L414 455.46V630c0 9.94 8.06 18 18 18s18-8.06 18-18V432c0-.14-.02-.28-.02-.42.19 8.11-5.14 15.61-13.32 17.8Zm11.64-24.98c.14.31.28.62.41.94-.13-.32-.27-.63-.41-.94m.65 1.59c.12.35.24.71.35 1.08-.1-.37-.22-.72-.35-1.08m.88 3.66c.04.28.07.57.09.85-.02-.29-.06-.57-.09-.85M432 414c-.14 0-.28.02-.42.02.23 0 .47-.01.7 0-.09 0-.19-.01-.28-.01Zm3.11.29c.27.05.53.09.79.15-.26-.06-.53-.1-.79-.15m-1.7-.22c.23.02.46.03.7.06-.23-.03-.46-.04-.7-.06m-3.76.1c.29-.04.57-.07.86-.1-.29.02-.57.06-.86.1m8.69 1c.32.12.63.24.94.38-.31-.14-.63-.26-.94-.38m-1.59-.52c.3.08.6.16.89.26-.29-.1-.59-.18-.89-.26m4.71 2.06c.27.17.55.34.81.52-.26-.18-.54-.35-.81-.52m-1.55-.86c.31.15.62.3.91.47-.3-.17-.61-.32-.91-.47m3.04 1.88c.22.17.45.34.67.52-.22-.18-.44-.35-.67-.52m4.09 4.4c.17.26.33.53.48.79-.16-.27-.31-.53-.48-.79m-1.03-1.42c.21.26.41.54.61.81-.2-.28-.4-.55-.61-.81m1.94 2.97c.12.24.23.48.35.72-.11-.24-.23-.49-.35-.72m-3.09-4.26c.24.24.46.5.69.76-.23-.26-.45-.51-.69-.76m4.53 7.92c-.02-.09-.06-.18-.09-.27.06.22.12.45.17.68-.03-.14-.05-.27-.09-.41Zm-21.64-12.82c-.14.03-.28.05-.41.09l-139.09 37.27c-9.6 2.57-15.3 12.44-12.73 22.05 2.16 8.04 9.43 13.35 17.38 13.35 1.54 0 3.11-.2 4.67-.62L414 455.46V432c0-8.48 5.87-15.56 13.75-17.48m20.96 10.82c.09.21.16.43.24.65-.08-.22-.15-.44-.24-.65m-16.43-11.33c.38 0 .76.03 1.13.06-.38-.03-.75-.05-1.13-.06m1.82.12c.34.04.67.1 1.01.15-.33-.06-.67-.11-1.01-.15m-5.3.17c.28-.05.57-.09.85-.13-.29.04-.57.08-.85.13m10.48 1.25c.21.09.42.2.63.3-.21-.1-.42-.21-.63-.3m1.54.77c.22.12.42.25.63.38-.21-.13-.42-.26-.63-.38m-4.91-1.88c.28.06.56.14.84.22-.28-.08-.56-.15-.84-.22m6.36 2.79c.23.16.46.34.68.51-.22-.17-.45-.35-.68-.51m-4.63-2.32c.24.08.47.17.7.26-.23-.09-.46-.18-.7-.26"/><path d="M449.98 431.58c0-.36-.02-.72-.05-1.08-.02-.28-.06-.57-.09-.85-.04-.29-.08-.57-.13-.86-.06-.35-.14-.7-.22-1.05-.06-.23-.11-.45-.17-.68-.1-.37-.22-.72-.35-1.08-.08-.22-.15-.44-.24-.65-.13-.32-.27-.63-.41-.94-.11-.24-.22-.49-.35-.72-.13-.26-.28-.51-.43-.76-.16-.27-.31-.53-.48-.79-.14-.21-.28-.41-.43-.61-.2-.27-.4-.55-.61-.81-.15-.18-.3-.36-.46-.53-.22-.26-.45-.51-.69-.76-.17-.18-.36-.34-.54-.51-.23-.22-.47-.44-.71-.65-.22-.18-.44-.35-.67-.52-.22-.17-.45-.35-.68-.51-.26-.18-.54-.35-.81-.52-.21-.13-.42-.26-.63-.38-.3-.17-.61-.32-.91-.47-.21-.1-.42-.21-.63-.3-.31-.14-.63-.26-.94-.38-.23-.09-.46-.18-.7-.26-.29-.1-.59-.18-.89-.26-.28-.08-.56-.15-.84-.22-.26-.06-.53-.1-.79-.15-.33-.06-.67-.11-1.01-.15-.23-.03-.46-.04-.7-.06-.37-.03-.75-.05-1.13-.06h-.7c-.36 0-.71.02-1.07.05-.29.02-.57.06-.86.1s-.57.08-.85.13c-.35.06-.7.14-1.04.22-7.89 1.91-13.75 9-13.75 17.48v23.46l22.66-6.07c8.18-2.19 13.51-9.69 13.32-17.8Z"/></svg>