<svg xmlns="http://www.w3.org/2000/svg" viewBox="0 0 864 864"><path d="M684 144H180c-19.88 0-36 16.12-36 36v504c0 19.88 16.12 36 36 36h504c19.88 0 36-16.12 36-36V180c0-19.88-16.12-36-36-36M265.72 336c-3.33 5.77-9.38 9-15.6 9-3.05 0-6.15-.78-8.98-2.41-8.61-4.97-11.56-15.98-6.59-24.59 3.33-5.77 9.38-9 15.6-9 3.05 0 6.15.78 8.98 2.41 8.61 4.97 11.56 15.98 6.59 24.59m-6.59 216.59a17.86 17.86 0 0 1-8.98 2.41c-6.22 0-12.27-3.23-15.6-9-4.97-8.61-2.02-19.62 6.59-24.59 2.83-1.64 5.93-2.41 8.98-2.41 6.22 0 12.27 3.23 15.6 9 4.97 8.61 2.02 19.62-6.59 24.59M240 432c0 9.94-8.06 18-18 18s-18-8.06-18-18 8.06-18 18-18 18 8.06 18 18m196.66-17.39c.09.02.17.06.26.08.37.1.73.22 1.09.35.22.08.43.15.64.24.32.13.64.27.95.42.24.11.48.22.71.34.26.14.52.29.77.44.26.15.52.31.78.47.21.14.42.29.63.44.27.19.54.39.8.6.19.15.37.31.55.47.25.22.5.44.74.68.18.18.35.37.53.55.21.23.43.46.63.7.19.22.36.45.54.68.17.22.34.44.5.66.19.27.36.54.53.82.13.21.26.41.38.62.17.3.32.61.48.92.1.21.21.41.3.62.14.31.26.63.38.95.09.23.18.46.26.7.1.29.18.59.26.89.08.28.15.56.22.84.06.26.1.52.15.79.06.34.12.67.16 1.02.03.23.04.46.06.69q.045.57.06 1.14c0 .09.01.18.01.28v207c0 .51-.03 1-.08 1.5.04.5.08.99.08 1.5 0 9.94-8.06 18-18 18s-18-8.06-18-18c0-.51.03-1 .08-1.5-.04-.5-.08-.99-.08-1.5V445.82l-125.75-33.69c-9.6-2.57-15.3-12.44-12.73-22.04s12.45-15.3 22.04-12.73l139.09 37.27ZM318 234.55c2.83-1.64 5.93-2.41 8.98-2.41 6.22 0 12.27 3.23 15.6 9 4.97 8.61 2.02 19.62-6.59 24.59a17.86 17.86 0 0 1-8.98 2.41c-6.22 0-12.27-3.23-15.61-9-4.97-8.61-2.02-19.62 6.59-24.59ZM414 222c0-9.94 8.06-18 18-18s18 8.06 18 18-8.06 18-18 18-18-8.06-18-18m-71.41 400.87c-3.33 5.77-9.38 9-15.6 9-3.05 0-6.15-.78-8.98-2.41-8.61-4.97-11.56-15.98-6.59-24.59 3.33-5.77 9.38-9 15.6-9 3.05 0 6.15.78 8.98 2.41 8.61 4.97 11.56 15.98 6.59 24.59M528 598.28c2.83-1.64 5.93-2.41 8.98-2.41 6.22 0 12.27 3.23 15.61 9 4.97 8.61 2.02 19.62-6.59 24.59a17.86 17.86 0 0 1-8.98 2.41c-6.22 0-12.27-3.23-15.6-9-4.97-8.61-2.02-19.62 6.59-24.59Zm-6.59-357.15c3.33-5.77 9.38-9 15.6-9 3.05 0 6.15.78 8.98 2.41 8.61 4.97 11.56 15.98 6.59 24.59-3.33 5.77-9.38 9-15.6 9-3.05 0-6.15-.78-8.98-2.41-8.61-4.97-11.56-15.98-6.59-24.59M598.28 528c3.33-5.77 9.38-9 15.6-9 3.05 0 6.15.78 8.98 2.41 8.61 4.97 11.56 15.98 6.59 24.59-3.33 5.77-9.38 9-15.6 9-3.05 0-6.15-.78-8.98-2.41-8.61-4.97-11.56-15.98-6.59-24.59m6.59-216.59c2.83-1.64 5.93-2.41 8.98-2.41 6.22 0 12.27 3.23 15.6 9 4.97 8.61 2.02 19.62-6.59 24.59a17.86 17.86 0 0 1-8.98 2.41c-6.22 0-12.27-3.23-15.6-9-4.97-8.61-2.02-19.62 6.59-24.59M642 450c-9.94 0-18-8.06-18-18s8.06-18 18-18 18 8.06 18 18-8.06 18-18 18"/></svg>