<svg xmlns="http://www.w3.org/2000/svg" viewBox="0 0 864 864"><path fill="none" d="M180 684h504V180H180zm79.13-131.41a17.86 17.86 0 0 1-8.98 2.41c-6.22 0-12.27-3.23-15.6-9-4.97-8.61-2.02-19.62 6.59-24.59 2.83-1.64 5.93-2.41 8.98-2.41 6.22 0 12.27 3.23 15.6 9 4.97 8.61 2.02 19.62-6.59 24.59m83.46 70.28c-3.33 5.77-9.38 9-15.6 9-3.05 0-6.15-.78-8.98-2.41-8.61-4.97-11.56-15.98-6.59-24.59 3.33-5.77 9.38-9 15.6-9 3.05 0 6.15.78 8.98 2.41 8.61 4.97 11.56 15.98 6.59 24.59M432 660c-9.94 0-18-8.06-18-18s8.06-18 18-18 18 8.06 18 18-8.06 18-18 18m228-228c0 9.94-8.06 18-18 18s-18-8.06-18-18 8.06-18 18-18 18 8.06 18 18m-55.13-120.59c2.83-1.64 5.93-2.41 8.98-2.41 6.22 0 12.27 3.23 15.6 9 4.97 8.61 2.02 19.62-6.59 24.59a17.86 17.86 0 0 1-8.98 2.41c-6.22 0-12.27-3.23-15.6-9-4.97-8.61-2.02-19.62 6.59-24.59M598.28 528c3.33-5.77 9.38-9 15.6-9 3.05 0 6.15.78 8.98 2.41 8.61 4.97 11.56 15.98 6.59 24.59-3.33 5.77-9.38 9-15.6 9-3.05 0-6.15-.78-8.98-2.41-8.61-4.97-11.56-15.98-6.59-24.59m-76.87-286.87c3.33-5.77 9.38-9 15.6-9 3.05 0 6.15.78 8.98 2.41 8.61 4.97 11.56 15.98 6.59 24.59-3.33 5.77-9.38 9-15.6 9-3.05 0-6.15-.78-8.98-2.41-8.61-4.97-11.56-15.98-6.59-24.59M528 598.28c2.83-1.64 5.93-2.41 8.98-2.41 6.22 0 12.27 3.23 15.61 9 4.97 8.61 2.02 19.62-6.59 24.59a17.86 17.86 0 0 1-8.98 2.41c-6.22 0-12.27-3.23-15.6-9-4.97-8.61-2.02-19.62 6.59-24.59ZM318 234.55c2.83-1.64 5.93-2.41 8.98-2.41 6.22 0 12.27 3.23 15.6 9 4.97 8.61 2.02 19.62-6.59 24.59a17.86 17.86 0 0 1-8.98 2.41c-6.22 0-12.27-3.23-15.61-9-4.97-8.61-2.02-19.62 6.59-24.59Zm-19.71 253.86L414 421.61V225c0-.51.03-1 .08-1.5-.04-.5-.08-.99-.08-1.5 0-9.94 8.06-18 18-18s18 8.06 18 18c0 .51-.03 1-.08 1.5.04.5.08.99.08 1.5v207c0 .17-.02.33-.02.49-.01.36-.02.72-.05 1.07-.02.28-.06.56-.1.84-.04.29-.08.58-.13.86-.06.32-.13.64-.21.95l-.18.72c-.09.33-.2.66-.31.98-.08.23-.16.45-.25.67-.12.31-.25.61-.39.91-.11.24-.22.47-.34.71-.14.27-.28.53-.43.79s-.3.51-.46.77c-.14.22-.29.43-.44.65-.19.27-.39.53-.59.79-.15.19-.3.37-.46.55-.22.26-.45.51-.69.76-.17.18-.35.35-.53.52-.24.22-.47.44-.72.66-.22.19-.45.37-.68.55-.22.17-.44.34-.67.5-.29.21-.6.4-.91.59-.14.09-.27.18-.41.27l-124.71 72a17.86 17.86 0 0 1-8.98 2.41c-6.22 0-12.27-3.23-15.61-9-4.97-8.61-2.02-19.62 6.59-24.59ZM234.55 318c3.33-5.77 9.38-9 15.6-9 3.05 0 6.15.78 8.98 2.41 8.61 4.97 11.56 15.98 6.59 24.59-3.33 5.77-9.38 9-15.6 9-3.05 0-6.15-.78-8.98-2.41-8.61-4.97-11.56-15.98-6.59-24.59M222 414c9.94 0 18 8.06 18 18s-8.06 18-18 18-18-8.06-18-18 8.06-18 18-18"/><path d="M684 144H180c-19.88 0-36 16.12-36 36v504c0 19.88 16.12 36 36 36h504c19.88 0 36-16.12 36-36V180c0-19.88-16.12-36-36-36m0 540H180V180h504z"/><circle cx="432" cy="642" r="18"/><path d="M432 207c9.44 0 17.16 7.26 17.92 16.5.04-.5.08-.99.08-1.5 0-9.94-8.06-18-18-18s-18 8.06-18 18c0 .51.03 1 .08 1.5.76-9.24 8.49-16.5 17.92-16.5"/><circle cx="642" cy="432" r="18"/><circle cx="222" cy="432" r="18"/><path d="M336 598.28a17.86 17.86 0 0 0-8.98-2.41c-6.22 0-12.27 3.23-15.6 9-4.97 8.61-2.02 19.62 6.59 24.59 2.83 1.64 5.93 2.41 8.98 2.41 6.22 0 12.27-3.23 15.6-9 4.97-8.61 2.02-19.62-6.59-24.59m192-332.56c2.83 1.64 5.93 2.41 8.98 2.41 6.22 0 12.27-3.23 15.6-9 4.97-8.61 2.02-19.62-6.59-24.59a17.86 17.86 0 0 0-8.98-2.41c-6.22 0-12.27 3.23-15.6 9-4.97 8.61-2.02 19.62 6.59 24.59m76.87 286.87c2.83 1.64 5.93 2.41 8.98 2.41 6.22 0 12.27-3.23 15.6-9 4.97-8.61 2.02-19.62-6.59-24.59a17.86 17.86 0 0 0-8.98-2.41c-6.22 0-12.27 3.23-15.6 9-4.97 8.61-2.02 19.62 6.59 24.59m-363.74-210c2.83 1.64 5.93 2.41 8.98 2.41 6.22 0 12.27-3.23 15.6-9 4.97-8.61 2.02-19.62-6.59-24.59a17.86 17.86 0 0 0-8.98-2.41c-6.22 0-12.27 3.23-15.6 9-4.97 8.61-2.02 19.62 6.59 24.59M250.12 519c-3.05 0-6.15.78-8.98 2.41-8.61 4.97-11.56 15.98-6.59 24.59 3.33 5.77 9.38 9 15.6 9 3.05 0 6.15-.78 8.98-2.41 8.61-4.97 11.56-15.98 6.59-24.59-3.33-5.77-9.38-9-15.6-9m363.76-174c3.05 0 6.15-.78 8.98-2.41 8.61-4.97 11.56-15.98 6.59-24.59-3.33-5.77-9.38-9-15.6-9-3.05 0-6.15.78-8.98 2.41-8.61 4.97-11.56 15.98-6.59 24.59 3.33 5.77 9.38 9 15.6 9m-76.86 286.87c3.05 0 6.15-.78 8.98-2.41 8.61-4.97 11.56-15.98 6.59-24.59-3.33-5.77-9.38-9-15.61-9-3.05 0-6.15.78-8.98 2.41-8.61 4.97-11.56 15.98-6.59 24.59 3.33 5.77 9.38 9 15.6 9Zm-210-363.73c3.05 0 6.15-.78 8.98-2.41 8.61-4.97 11.56-15.98 6.59-24.59-3.33-5.77-9.38-9-15.6-9-3.05 0-6.15.78-8.98 2.41-8.61 4.97-11.56 15.98-6.59 24.59 3.33 5.77 9.38 9 15.61 9Zm122.9 165.43c-.02.28-.06.56-.1.84.04-.28.08-.56.1-.84m-6.25 12.12c-.22.19-.45.37-.68.55.23-.18.46-.36.68-.55m3.44-3.93c-.14.22-.29.43-.44.65.15-.21.3-.43.44-.65m.48-18.76c1.73 2.99 2.48 6.27 2.39 9.49 0-.17.02-.33.02-.49V225c0-.51-.03-1-.08-1.5-.76 9.24-8.49 16.5-17.92 16.5s-17.16-7.26-17.92-16.5c-.04.5-.08.99-.08 1.5v196.61l9-5.2c8.61-4.97 19.62-2.02 24.59 6.59m-2.67 21.51c-.17.18-.35.35-.53.52.18-.17.36-.34.53-.52m3.82-5.92"/><path d="M432 240c9.43 0 17.16-7.26 17.92-16.5-.76-9.24-8.49-16.5-17.92-16.5s-17.16 7.26-17.92 16.5c.76 9.24 8.49 16.5 17.92 16.5m17.98 192.49c0 .36-.02.72-.05 1.07.03-.36.04-.71.05-1.07M307.31 522c3.05 0 6.15-.78 8.98-2.41l124.71-72c.14-.08.27-.18.41-.27A17.87 17.87 0 0 1 432 450c-9.94 0-18-8.06-18-18v-10.39l-115.71 66.8c-8.61 4.97-11.56 15.98-6.59 24.59 3.33 5.77 9.38 9 15.61 9m141.04-82.5c-.11.24-.22.47-.34.71.12-.23.23-.47.34-.71m1.13-3.28-.18.72q.105-.36.18-.72m-.5 1.7c-.08.23-.16.45-.25.67.09-.22.17-.45.25-.67m-5.99 8.31c-.22.17-.44.34-.67.5.23-.16.45-.33.67-.5m3.68-3.82c-.19.27-.39.54-.59.79.21-.26.4-.53.59-.79m.91-1.42c-.15.26-.3.51-.46.77.16-.25.32-.51.46-.77m-3.19 4.04c-.24.22-.47.44-.72.66q.375-.315.72-.66"/><path d="M432 450c3.45 0 6.67-.99 9.41-2.68.31-.19.61-.38.91-.59.23-.16.45-.33.67-.5.23-.18.46-.36.68-.55q.375-.315.72-.66c.18-.17.36-.34.53-.52.24-.25.47-.5.69-.76a15 15 0 0 0 1.05-1.34c.15-.21.3-.43.44-.65.16-.25.31-.51.46-.77s.29-.52.43-.79c.12-.23.23-.47.34-.71.14-.3.27-.6.39-.91.09-.22.17-.45.25-.67.11-.32.22-.65.31-.98q.105-.36.18-.72c.08-.32.15-.63.21-.95.05-.28.09-.57.13-.86.04-.28.08-.56.1-.84.03-.35.04-.71.05-1.07.09-3.22-.66-6.5-2.39-9.49-4.97-8.61-15.98-11.56-24.59-6.59l-9 5.2v10.39c0 9.94 8.06 18 18 18Z"/></svg>