<svg xmlns="http://www.w3.org/2000/svg" viewBox="0 0 864 864"><path fill="none" d="M180 684h504V180H180zm79.13-131.41a17.86 17.86 0 0 1-8.98 2.41c-6.22 0-12.27-3.23-15.61-9-4.97-8.61-2.02-19.62 6.59-24.59 2.83-1.64 5.93-2.41 8.98-2.41 6.22 0 12.27 3.23 15.6 9 4.97 8.61 2.02 19.62-6.59 24.59ZM660 432c0 9.94-8.06 18-18 18s-18-8.06-18-18 8.06-18 18-18 18 8.06 18 18m-55.13-120.59c2.83-1.64 5.93-2.41 8.98-2.41 6.22 0 12.27 3.23 15.61 9 4.97 8.61 2.02 19.62-6.59 24.59a17.86 17.86 0 0 1-8.98 2.41c-6.22 0-12.27-3.23-15.6-9-4.97-8.61-2.02-19.62 6.59-24.59ZM598.28 528c3.33-5.77 9.38-9 15.6-9 3.05 0 6.15.78 8.98 2.41 8.61 4.97 11.56 15.98 6.59 24.59-3.33 5.77-9.38 9-15.61 9-3.05 0-6.15-.78-8.98-2.41-8.61-4.97-11.56-15.98-6.59-24.59Zm-76.87-286.87c3.33-5.77 9.38-9 15.6-9 3.05 0 6.15.78 8.98 2.41 8.61 4.97 11.56 15.98 6.59 24.59-3.33 5.77-9.38 9-15.61 9-3.05 0-6.15-.78-8.98-2.41-8.61-4.97-11.56-15.98-6.59-24.59ZM528 598.28c2.83-1.64 5.93-2.41 8.98-2.41 6.22 0 12.27 3.23 15.61 9 4.97 8.61 2.02 19.62-6.59 24.59a17.86 17.86 0 0 1-8.98 2.41c-6.22 0-12.27-3.23-15.61-9-4.97-8.61-2.02-19.62 6.59-24.59M432 204c9.94 0 18 8.06 18 18s-8.06 18-18 18-18-8.06-18-18 8.06-18 18-18m-54.66 362.43 37.27-139.09c.02-.09.06-.18.09-.27.1-.36.22-.72.35-1.08.08-.22.15-.44.24-.66.13-.32.27-.63.41-.94.11-.24.23-.49.35-.72.14-.26.28-.51.43-.76.16-.27.31-.53.48-.79.14-.21.29-.42.44-.62.19-.27.39-.54.59-.8.15-.19.32-.37.48-.56.22-.25.44-.5.67-.73.18-.19.38-.37.57-.55.22-.21.44-.42.67-.61.23-.2.48-.38.72-.57.21-.16.41-.32.62-.47.28-.2.58-.38.88-.56.19-.11.37-.23.56-.34.32-.18.66-.35.99-.51.18-.09.36-.18.55-.26.33-.15.68-.28 1.02-.41.21-.08.41-.16.62-.23.32-.11.64-.19.97-.28.25-.07.51-.14.77-.2.28-.06.57-.11.86-.16.31-.05.63-.11.95-.15.25-.03.5-.05.75-.07.36-.03.72-.05 1.08-.05.1 0 .2-.01.3-.01.15 0 .29.02.44.02.34 0 .69.02 1.04.05.3.02.59.06.88.1.28.04.56.08.84.13.36.06.71.14 1.06.23.14.03.27.05.41.09.09.02.17.06.27.09.37.1.73.22 1.08.35.22.08.44.15.65.24.32.13.63.27.94.41.24.11.48.22.72.35.26.14.51.28.76.43.27.16.53.31.79.48.21.14.41.29.61.43.27.2.55.39.81.6.18.15.36.3.53.46.26.23.51.45.76.69.18.17.35.36.52.54.22.23.44.46.64.71.18.22.35.44.53.67.17.22.35.45.51.68.18.26.35.54.52.81l.39.63c.17.3.32.6.47.91.1.21.21.42.3.63.14.31.26.62.38.94.09.23.18.47.26.7.1.29.18.59.26.89.08.28.15.56.22.85.06.26.1.52.15.78.06.34.11.68.16 1.02.03.23.04.46.06.69q.045.57.06 1.14c0 .09.01.18.01.28v207c0 .51-.03 1-.08 1.5.04.5.08.99.08 1.5 0 9.94-8.06 18-18 18s-18-8.06-18-18c0-.51.03-1 .08-1.5-.04-.5-.08-.99-.08-1.5v-70.27l-1.88 7.03c-2.15 8.04-9.43 13.35-17.38 13.35-1.54 0-3.11-.2-4.67-.62-9.6-2.57-15.3-12.44-12.73-22.05ZM318 234.55c2.83-1.64 5.93-2.41 8.98-2.41 6.22 0 12.27 3.23 15.61 9 4.97 8.61 2.02 19.62-6.59 24.59a17.86 17.86 0 0 1-8.98 2.41c-6.22 0-12.27-3.23-15.61-9-4.97-8.61-2.02-19.62 6.59-24.59m-6.59 370.32c3.33-5.77 9.38-9 15.61-9 3.05 0 6.15.78 8.98 2.41 8.61 4.97 11.56 15.98 6.59 24.59-3.33 5.77-9.38 9-15.6 9-3.05 0-6.15-.78-8.98-2.41-8.61-4.97-11.56-15.98-6.59-24.59ZM234.55 318c3.33-5.77 9.38-9 15.61-9 3.05 0 6.15.78 8.98 2.41 8.61 4.97 11.56 15.98 6.59 24.59-3.33 5.77-9.38 9-15.6 9-3.05 0-6.15-.78-8.98-2.41-8.61-4.97-11.56-15.98-6.59-24.59ZM222 414c9.94 0 18 8.06 18 18s-8.06 18-18 18-18-8.06-18-18 8.06-18 18-18"/><path d="M684 144H180c-19.88 0-36 16.12-36 36v504c0 19.88 16.12 36 36 36h504c19.88 0 36-16.12 36-36V180c0-19.88-16.12-36-36-36m0 540H180V180h504z"/><path d="M432 657c-9.44 0-17.16-7.26-17.92-16.5-.04.5-.08.99-.08 1.5 0 9.94 8.06 18 18 18s18-8.06 18-18c0-.51-.03-1-.08-1.5-.76 9.24-8.49 16.5-17.92 16.5"/><circle cx="432" cy="222" r="18"/><circle cx="642" cy="432" r="18"/><circle cx="222" cy="432" r="18"/><path d="M318 629.45c2.83 1.64 5.93 2.41 8.98 2.41 6.22 0 12.27-3.23 15.6-9 4.97-8.61 2.02-19.62-6.59-24.59a17.86 17.86 0 0 0-8.98-2.41c-6.22 0-12.27 3.23-15.61 9-4.97 8.61-2.02 19.62 6.59 24.59Zm210-363.73c2.83 1.64 5.93 2.41 8.98 2.41 6.22 0 12.27-3.23 15.61-9 4.97-8.61 2.02-19.62-6.59-24.59a17.86 17.86 0 0 0-8.98-2.41c-6.22 0-12.27 3.23-15.6 9-4.97 8.61-2.02 19.62 6.59 24.59Zm76.87 286.87c2.83 1.64 5.93 2.41 8.98 2.41 6.22 0 12.27-3.23 15.61-9 4.97-8.61 2.02-19.62-6.59-24.59a17.86 17.86 0 0 0-8.98-2.41c-6.22 0-12.27 3.23-15.6 9-4.97 8.61-2.02 19.62 6.59 24.59Zm-363.74-210c2.83 1.64 5.93 2.41 8.98 2.41 6.22 0 12.27-3.23 15.6-9 4.97-8.61 2.02-19.62-6.59-24.59a17.86 17.86 0 0 0-8.98-2.41c-6.22 0-12.27 3.23-15.61 9-4.97 8.61-2.02 19.62 6.59 24.59ZM250.12 519c-3.05 0-6.15.78-8.98 2.41-8.61 4.97-11.56 15.98-6.59 24.59 3.33 5.77 9.38 9 15.61 9 3.05 0 6.15-.78 8.98-2.41 8.61-4.97 11.56-15.98 6.59-24.59-3.33-5.77-9.38-9-15.6-9Zm363.76-174c3.05 0 6.15-.78 8.98-2.41 8.61-4.97 11.56-15.98 6.59-24.59-3.33-5.77-9.38-9-15.61-9-3.05 0-6.15.78-8.98 2.41-8.61 4.97-11.56 15.98-6.59 24.59 3.33 5.77 9.38 9 15.6 9Zm-76.86 286.87c3.05 0 6.15-.78 8.98-2.41 8.61-4.97 11.56-15.98 6.59-24.59-3.33-5.77-9.38-9-15.61-9-3.05 0-6.15.78-8.98 2.41-8.61 4.97-11.56 15.98-6.59 24.59 3.33 5.77 9.38 9 15.61 9m-210-363.73c3.05 0 6.15-.78 8.98-2.41 8.61-4.97 11.56-15.98 6.59-24.59-3.33-5.77-9.38-9-15.61-9-3.05 0-6.15.78-8.98 2.41-8.61 4.97-11.56 15.98-6.59 24.59 3.33 5.77 9.38 9 15.61 9m97.68 147.42c.33-.15.68-.28 1.02-.41-.34.13-.69.26-1.02.41m13.95-.27c.32.13.63.27.94.41-.31-.15-.62-.29-.94-.41M432 414c-.1 0-.2.01-.3.01h.74c-.15 0-.29-.02-.44-.02Zm1.48.07c.29.02.59.06.88.1-.29-.04-.58-.07-.88-.1m1.72.23c.35.06.7.14 1.06.23-.35-.08-.7-.16-1.06-.23m6.67 2.65c.21.14.41.29.61.43-.2-.15-.4-.29-.61-.43m1.42 1.04c.18.15.36.3.53.46-.18-.15-.35-.31-.53-.46m3.48 3.74c.18.26.35.54.52.81-.17-.27-.34-.55-.52-.81m-1.03-1.34c.18.22.35.44.53.67-.17-.23-.34-.45-.53-.67m-1.16-1.25c.18.17.35.36.52.54-.17-.18-.34-.37-.52-.54m-14.7-5c.25-.03.5-.05.75-.07-.25.02-.5.04-.75.07m-11.89 6.58c.15-.19.32-.37.48-.56-.16.18-.32.36-.48.56m-1.94 2.96c.13-.26.28-.51.43-.76-.15.25-.29.5-.43.76m-1.35 3.39c.1-.37.22-.72.35-1.08-.13.35-.24.71-.35 1.08m.59-1.73c.13-.32.27-.63.41-.94-.14.31-.28.62-.41.94m1.66-3.21c.14-.21.29-.42.44-.62-.15.21-.3.41-.44.62m2.18-2.7c.19-.19.38-.37.57-.55-.19.18-.39.36-.57.55m1.25-1.16c.23-.2.48-.38.72-.57-.24.19-.49.37-.72.57m5.96-3.35c.32-.11.64-.19.97-.28-.33.09-.65.18-.97.28M414 568.73V639c0 .51.03 1 .08 1.5.76-9.24 8.49-16.5 17.92-16.5s17.16 7.26 17.92 16.5c.04-.5.08-.99.08-1.5V432c0-.09-.01-.18-.01-.28.02 1.63-.16 3.29-.6 4.94zm35.87-138.83c.03.23.04.46.06.69zm-.31-1.8c.06.26.1.52.15.78-.05-.26-.09-.53-.15-.78m-.47-1.74"/><path d="M432 624c-9.43 0-17.16 7.26-17.92 16.5.76 9.24 8.49 16.5 17.92 16.5s17.16-7.26 17.92-16.5c-.76-9.24-8.49-16.5-17.92-16.5m-16.3-199.59c.11-.24.22-.49.35-.72-.12.24-.24.48-.35.72m16.74-10.39c.35 0 .69.02 1.04.05-.35-.03-.69-.04-1.04-.05m-1.82.05c.36-.03.72-.05 1.08-.05-.36 0-.72.03-1.08.05m10.46 2.4c.27.16.53.31.79.48-.26-.17-.52-.32-.79-.48m-13.78-1.83c.25-.07.51-.14.77-.2-.26.06-.51.13-.77.2m7.06-.47c.28.04.56.08.84.13-.28-.05-.56-.09-.84-.13m5.24 1.53c.24.11.48.22.72.35-.23-.12-.48-.23-.72-.35m-1.59-.65c.22.08.44.15.65.24-.21-.08-.43-.16-.65-.24m-12.29.1c.21-.08.41-.16.62-.23-.21.07-.41.15-.62.23m10.94-.54c-.14-.04-.27-.05-.41-.09.23.05.45.11.67.17-.09-.03-.17-.06-.27-.09Zm-7.73-.33c.31-.05.63-.11.95-.15-.32.04-.63.09-.95.15m-11.54 7.23c.19-.27.39-.54.59-.8-.21.26-.4.53-.59.8m6.76-5.69c.18-.09.36-.18.55-.26-.19.08-.37.18-.55.26m-5.68 4.34c.22-.25.44-.5.67-.73-.23.24-.45.48-.67.73m-3.42 5.84c.08-.22.15-.44.24-.66-.09.22-.16.44-.24.66m1.42-3.08c.16-.27.31-.53.48-.79-.17.26-.32.52-.48.79m6.12-6.25c.19-.12.37-.23.56-.34-.19.11-.38.23-.56.34m-1.5 1.03c.21-.16.41-.32.62-.47-.21.15-.42.31-.62.47m-1.39 1.18c.22-.21.44-.42.67-.61-.23.2-.45.4-.67.61m22.78-1.49c.27.2.55.39.81.6q-.39-.315-.81-.6m6.87 9.86c.08.28.15.56.22.85-.06-.29-.14-.57-.22-.85m-.52-1.59c.09.23.18.47.26.7-.08-.24-.17-.47-.26-.7m.88 3.22c.06.34.12.67.16 1.02-.04-.34-.1-.68-.16-1.02m.22 1.71c.03.38.05.75.06 1.14 0-.38-.03-.76-.06-1.14m-3.66-9.54c.17.22.35.45.51.68-.16-.23-.33-.45-.51-.68m1.88 3.04c.1.21.21.42.3.63-.09-.21-.2-.42-.3-.63m-58.08 164.39c1.56.42 3.13.62 4.67.62 7.95 0 15.22-5.3 17.38-13.35l1.88-7.03V431.99c0-1.71.25-3.36.7-4.93l-.09.27-37.27 139.09c-2.57 9.6 3.13 19.47 12.73 22.05Zm53.75-170.03c.26.22.51.45.76.69-.24-.24-.5-.46-.76-.69m1.28 1.23c.22.23.44.46.64.71-.21-.24-.43-.48-.64-.71m2.19 2.86.39.63c-.12-.22-.26-.42-.39-.63"/><path d="m414 568.73 35.39-132.07c.44-1.65.62-3.31.6-4.94 0-.38-.03-.76-.06-1.14-.02-.23-.03-.46-.06-.69-.04-.34-.1-.68-.16-1.02-.05-.26-.09-.53-.15-.78-.06-.29-.14-.57-.22-.85-.08-.3-.16-.6-.26-.89-.08-.24-.17-.47-.26-.7-.12-.32-.24-.63-.38-.94-.09-.21-.2-.42-.3-.63-.15-.31-.3-.61-.47-.91-.12-.22-.25-.42-.39-.63-.17-.27-.34-.55-.52-.81-.16-.23-.33-.45-.51-.68-.17-.23-.34-.45-.53-.67-.21-.24-.43-.48-.64-.71-.17-.18-.34-.37-.52-.54-.24-.24-.5-.46-.76-.69-.18-.15-.35-.31-.53-.46-.26-.21-.54-.41-.81-.6-.2-.15-.4-.29-.61-.43-.26-.17-.52-.32-.79-.48-.25-.15-.5-.29-.76-.43-.24-.12-.48-.23-.72-.35-.31-.14-.62-.29-.94-.41-.21-.09-.43-.16-.65-.24-.36-.13-.71-.24-1.08-.35-.22-.06-.45-.12-.67-.17-.35-.09-.7-.16-1.06-.23-.28-.05-.56-.09-.84-.13-.29-.04-.59-.07-.88-.1-.34-.03-.69-.04-1.04-.05-.25 0-.49-.01-.74 0-.36 0-.72.03-1.08.05-.25.02-.5.04-.75.07-.32.04-.63.09-.95.15-.29.05-.57.1-.86.16-.26.06-.51.13-.77.2-.32.09-.65.18-.97.28-.21.07-.41.15-.62.23-.34.13-.69.26-1.02.41-.19.08-.37.18-.55.26-.33.16-.67.33-.99.51-.19.11-.38.23-.56.34-.3.18-.59.36-.88.56-.21.15-.42.31-.62.47a13 13 0 0 0-1.39 1.18c-.19.18-.39.36-.57.55-.23.24-.45.48-.67.73-.16.18-.32.36-.48.56-.21.26-.4.53-.59.8-.15.21-.3.41-.44.62-.17.26-.32.52-.48.79-.15.25-.29.5-.43.76-.12.24-.24.48-.35.72-.14.31-.28.62-.41.94-.09.22-.16.44-.24.66-.12.35-.24.71-.35 1.08-.45 1.57-.7 3.22-.7 4.93v136.73Z"/></svg>