<svg xmlns="http://www.w3.org/2000/svg" viewBox="0 0 864 864"><path fill="none" d="M516.07 268.96C489.46 257.71 461.18 252 432 252s-57.46 5.71-84.07 16.96c-25.72 10.88-48.82 26.46-68.67 46.3s-35.43 42.95-46.3 68.67C221.71 410.54 216 438.82 216 468s5.71 57.46 16.96 84.07c10.88 25.72 26.46 48.82 46.3 68.67s42.95 35.43 68.67 46.3C374.54 678.29 402.82 684 432 684s57.46-5.71 84.07-16.96c25.72-10.88 48.82-26.46 68.67-46.3s35.43-42.95 46.3-68.67C642.29 525.46 648 497.18 648 468s-5.71-57.46-16.96-84.07c-10.88-25.72-26.46-48.82-46.3-68.67s-42.95-35.43-68.67-46.3m-15.49 304.16q-17.64 18.36-48.96 22.32c-1.21.48-1.8 1.2-1.8 2.16l.36 23.76q0 1.8-1.26 3.06t-3.06 1.26h-28.08q-1.8 0-3.06-1.26c-1.26-1.26-1.26-1.86-1.26-3.06l.36-24.12q0-1.44-1.8-2.16-31.32-5.04-49.14-23.58t-17.82-46.98v-9q0-1.8 1.26-3.06c1.26-1.26 1.86-1.26 3.06-1.26h30.24q1.8 0 3.06 1.26t1.26 3.06v6.84q0 16.56 14.04 27.54t38.16 10.98q21.24 0 31.86-9.36t10.62-24.12q0-10.08-5.76-17.1t-16.74-12.6-32.58-14.58q-24.12-9.36-39.24-17.64t-25.2-22.5-10.08-35.46q0-27.36 16.74-45t45.54-21.96q1.8-.72 1.8-2.16l-.72-26.64q0-1.8 1.26-3.06c1.26-1.26 1.86-1.26 3.06-1.26h28.08q1.8 0 3.06 1.26t1.26 3.06l-.72 27q0 1.44 1.8 2.16 30.6 5.04 48.42 24.48c17.82 19.44 17.82 28.92 17.82 47.88v6.12q0 1.8-1.26 3.06c-1.26 1.26-1.86 1.26-3.06 1.26h-30.6q-1.8 0-3.06-1.26t-1.26-3.06v-3.96q0-16.92-13.14-28.62t-36.18-11.7q-19.08 0-29.52 8.28t-10.44 23.4q0 10.8 5.58 17.64t16.56 12.42 33.66 14.22q24.48 9.72 39.06 17.64t25.02 22.14 10.44 35.46q0 28.44-17.64 46.8"/><path d="m582.61 291.93 14.4-14.4c-34.18-29.64-76.43-50.22-123.01-58.03v8.5h-84v-8.5c-119.18 20-210 123.63-210 248.5 0 139.18 112.82 252 252 252s252-112.82 252-252c0-63.11-23.2-120.8-61.53-165.01l-14.4 14.4zM648 468c0 29.18-5.71 57.46-16.96 84.07-10.88 25.72-26.46 48.82-46.3 68.67s-42.95 35.43-68.67 46.3C489.46 678.29 461.18 684 432 684s-57.46-5.71-84.07-16.96c-25.72-10.88-48.82-26.46-68.67-46.3s-35.43-42.95-46.3-68.67C221.71 525.46 216 497.18 216 468s5.71-57.46 16.96-84.07c10.88-25.72 26.46-48.82 46.3-68.67s42.95-35.43 68.67-46.3C374.54 257.71 402.82 252 432 252s57.46 5.71 84.07 16.96c25.72 10.88 48.82 26.46 68.67 46.3s35.43 42.95 46.3 68.67C642.29 410.54 648 438.82 648 468"/><path d="M482.76 468.72q-14.58-7.92-39.06-17.64-22.68-8.64-33.66-14.22t-16.56-12.42-5.58-17.64q0-15.12 10.44-23.4t29.52-8.28q23.04 0 36.18 11.7t13.14 28.62v3.96q0 1.8 1.26 3.06t3.06 1.26h30.6q1.8 0 3.06-1.26c1.26-1.26 1.26-1.86 1.26-3.06v-6.12q0-28.44-17.82-47.88c-17.82-19.44-28.02-21.12-48.42-24.48q-1.8-.72-1.8-2.16l.72-27q0-1.8-1.26-3.06t-3.06-1.26H416.7q-1.8 0-3.06 1.26c-1.26 1.26-1.26 1.86-1.26 3.06l.72 26.64q0 1.44-1.8 2.16-28.8 4.32-45.54 21.96t-16.74 45q0 21.24 10.08 35.46t25.2 22.5 39.24 17.64q21.6 9 32.58 14.58t16.74 12.6 5.76 17.1q0 14.76-10.62 24.12t-31.86 9.36q-24.12 0-38.16-10.98t-14.04-27.54v-6.84q0-1.8-1.26-3.06t-3.06-1.26h-30.24q-1.8 0-3.06 1.26c-1.26 1.26-1.26 1.86-1.26 3.06v9q0 28.44 17.82 46.98t49.14 23.58q1.8.72 1.8 2.16l-.36 24.12q0 1.8 1.26 3.06c1.26 1.26 1.86 1.26 3.06 1.26h28.08q1.8 0 3.06-1.26t1.26-3.06l-.36-23.76q0-1.44 1.8-2.16 31.32-3.96 48.96-22.32t17.64-46.8q0-21.24-10.44-35.46t-25.02-22.14M384 192h6v36h84v-36h6c9.94 0 18-8.06 18-18s-8.06-18-18-18h-96c-9.94 0-18 8.06-18 18s8.06 18 18 18m302.56 89.32-67.88-67.88c-7.03-7.03-18.43-7.03-25.46 0s-7.03 18.43 0 25.46l21.21 21.21-17.42 17.42-14.4 14.4 25.46 25.46 14.4-14.4 17.42-17.42 21.21 21.21c3.51 3.52 8.12 5.27 12.73 5.27s9.21-1.76 12.73-5.27c7.03-7.03 7.03-18.43 0-25.46"/></svg>