<svg xmlns="http://www.w3.org/2000/svg" viewBox="0 0 864 864"><path fill="none" d="M180 684h504V180H180zm79.13-131.41a17.86 17.86 0 0 1-8.98 2.41c-6.22 0-12.27-3.23-15.61-9-4.97-8.61-2.02-19.62 6.59-24.59 2.83-1.64 5.93-2.41 8.98-2.41 6.22 0 12.27 3.23 15.6 9 4.97 8.61 2.02 19.62-6.59 24.59ZM660 432c0 9.94-8.06 18-18 18s-18-8.06-18-18 8.06-18 18-18 18 8.06 18 18m-55.13-120.59c2.83-1.64 5.93-2.41 8.98-2.41 6.22 0 12.27 3.23 15.61 9 4.97 8.61 2.02 19.62-6.59 24.59a17.86 17.86 0 0 1-8.98 2.41c-6.22 0-12.27-3.23-15.6-9-4.97-8.61-2.02-19.62 6.59-24.59ZM598.28 528c3.33-5.77 9.38-9 15.61-9 3.05 0 6.15.78 8.98 2.41 8.61 4.97 11.56 15.98 6.59 24.59-3.33 5.77-9.38 9-15.61 9-3.05 0-6.15-.78-8.98-2.41-8.61-4.97-11.56-15.98-6.59-24.59m-76.87-286.87c3.33-5.77 9.38-9 15.61-9 3.05 0 6.15.78 8.98 2.41 8.61 4.97 11.56 15.98 6.59 24.59-3.33 5.77-9.38 9-15.61 9-3.05 0-6.15-.78-8.98-2.41-8.61-4.97-11.56-15.98-6.59-24.59M528 598.28c2.83-1.64 5.93-2.41 8.98-2.41 6.22 0 12.27 3.23 15.61 9 4.97 8.61 2.02 19.62-6.59 24.59a17.86 17.86 0 0 1-8.98 2.41c-6.22 0-12.27-3.23-15.61-9-4.97-8.61-2.02-19.62 6.59-24.59M432 204c9.94 0 18 8.06 18 18s-8.06 18-18 18-18-8.06-18-18 8.06-18 18-18m-41.93 71.52c9.6-2.57 19.47 3.12 22.04 12.73l37.27 139.09c.04.14.05.27.09.41.08.35.16.69.22 1.05.05.29.09.57.13.86.04.28.07.57.09.85.03.36.05.72.05 1.08 0 .14.02.28.02.42v207c0 .51-.04 1-.08 1.5.04.5.08.99.08 1.5 0 9.94-8.06 18-18 18s-18-8.06-18-18c0-.51.04-1 .08-1.5-.04-.5-.08-.99-.08-1.5V434.38l-36.66-136.8c-2.57-9.6 3.13-19.47 12.73-22.05ZM318 234.55c2.83-1.64 5.93-2.41 8.98-2.41 6.22 0 12.27 3.23 15.61 9 4.97 8.61 2.02 19.62-6.59 24.59a17.86 17.86 0 0 1-8.98 2.41c-6.22 0-12.27-3.23-15.61-9-4.97-8.61-2.02-19.62 6.59-24.59m-6.59 370.32c3.33-5.77 9.38-9 15.61-9 3.05 0 6.15.78 8.98 2.41 8.61 4.97 11.56 15.98 6.59 24.59-3.33 5.77-9.38 9-15.61 9-3.05 0-6.15-.78-8.98-2.41-8.61-4.97-11.56-15.98-6.59-24.59M234.55 318c3.33-5.77 9.38-9 15.61-9 3.05 0 6.15.78 8.98 2.41 8.61 4.97 11.56 15.98 6.59 24.59-3.33 5.77-9.38 9-15.61 9-3.05 0-6.15-.78-8.98-2.41-8.61-4.97-11.56-15.98-6.59-24.59M222 414c9.94 0 18 8.06 18 18s-8.06 18-18 18-18-8.06-18-18 8.06-18 18-18"/><path d="M684 144H180c-19.88 0-36 16.12-36 36v504c0 19.88 16.12 36 36 36h504c19.88 0 36-16.12 36-36V180c0-19.88-16.12-36-36-36m0 540H180V180h504z"/><path d="M432 657c-9.43 0-17.16-7.26-17.92-16.5-.04.5-.08.99-.08 1.5 0 9.94 8.06 18 18 18s18-8.06 18-18c0-.51-.04-1-.08-1.5-.76 9.24-8.49 16.5-17.92 16.5"/><circle cx="432" cy="222" r="18"/><circle cx="642" cy="432" r="18"/><circle cx="222" cy="432" r="18"/><path d="M318 629.45c2.83 1.64 5.93 2.41 8.98 2.41 6.22 0 12.27-3.23 15.61-9 4.97-8.61 2.02-19.62-6.59-24.59a17.86 17.86 0 0 0-8.98-2.41c-6.22 0-12.27 3.23-15.61 9-4.97 8.61-2.02 19.62 6.59 24.59m210-363.73c2.83 1.64 5.93 2.41 8.98 2.41 6.22 0 12.27-3.23 15.61-9 4.97-8.61 2.02-19.62-6.59-24.59a17.86 17.86 0 0 0-8.98-2.41c-6.22 0-12.27 3.23-15.61 9-4.97 8.61-2.02 19.62 6.59 24.59m76.87 286.87c2.83 1.64 5.93 2.41 8.98 2.41 6.22 0 12.27-3.23 15.61-9 4.97-8.61 2.02-19.62-6.59-24.59a17.86 17.86 0 0 0-8.98-2.41c-6.22 0-12.27 3.23-15.61 9-4.97 8.61-2.02 19.62 6.59 24.59m-363.74-210c2.83 1.64 5.93 2.41 8.98 2.41 6.22 0 12.27-3.23 15.61-9 4.97-8.61 2.02-19.62-6.59-24.59a17.86 17.86 0 0 0-8.98-2.41c-6.22 0-12.27 3.23-15.61 9-4.97 8.61-2.02 19.62 6.59 24.59M250.12 519c-3.05 0-6.15.78-8.98 2.41-8.61 4.97-11.56 15.98-6.59 24.59 3.33 5.77 9.38 9 15.61 9 3.05 0 6.15-.78 8.98-2.41 8.61-4.97 11.56-15.98 6.59-24.59-3.33-5.77-9.38-9-15.6-9Zm363.76-174c3.05 0 6.15-.78 8.98-2.41 8.61-4.97 11.56-15.98 6.59-24.59-3.33-5.77-9.38-9-15.61-9-3.05 0-6.15.78-8.98 2.41-8.61 4.97-11.56 15.98-6.59 24.59 3.33 5.77 9.38 9 15.6 9Zm-76.86 286.87c3.05 0 6.15-.78 8.98-2.41 8.61-4.97 11.56-15.98 6.59-24.59-3.33-5.77-9.38-9-15.61-9-3.05 0-6.15.78-8.98 2.41-8.61 4.97-11.56 15.98-6.59 24.59 3.33 5.77 9.38 9 15.61 9m-210-363.73c3.05 0 6.15-.78 8.98-2.41 8.61-4.97 11.56-15.98 6.59-24.59-3.33-5.77-9.38-9-15.61-9-3.05 0-6.15.78-8.98 2.41-8.61 4.97-11.56 15.98-6.59 24.59 3.33 5.77 9.38 9 15.61 9m109.64 181.25c-1.56.42-3.13.62-4.67.62-7.95 0-15.22-5.3-17.38-13.35l-.61-2.29V639c0 .51.04 1 .08 1.5.76-9.24 8.49-16.5 17.92-16.5s17.16 7.26 17.92 16.5c.04-.5.08-.99.08-1.5V432c0-.14-.02-.28-.02-.42.19 8.11-5.13 15.61-13.32 17.8Zm13.17-19.73c.04.28.07.57.09.85-.02-.29-.06-.57-.09-.85m-.36-1.91c.08.35.16.7.22 1.05-.06-.35-.14-.7-.22-1.05"/><path d="M432 624c-9.43 0-17.16 7.26-17.92 16.5.76 9.24 8.49 16.5 17.92 16.5s17.16-7.26 17.92-16.5c-.76-9.24-8.49-16.5-17.92-16.5m-18-189.63V432c0-9.94 8.06-18 18-18 8.48 0 15.56 5.87 17.47 13.75-.03-.14-.05-.27-.09-.41l-37.27-139.09c-2.57-9.6-12.45-15.3-22.04-12.73-9.6 2.57-15.3 12.44-12.73 22.05zm35.7-5.57"/><path d="M432 414c-9.94 0-18 8.06-18 18v2.37l.61 2.29c2.16 8.04 9.43 13.35 17.38 13.35 1.54 0 3.11-.2 4.67-.62 8.19-2.19 13.51-9.69 13.32-17.8 0-.36-.02-.72-.05-1.08-.02-.28-.06-.57-.09-.85-.04-.29-.08-.57-.13-.86-.06-.35-.14-.7-.22-1.05-1.91-7.89-9-13.75-17.47-13.75Z"/></svg>