<svg xmlns="http://www.w3.org/2000/svg" viewBox="0 0 864 864"><path d="M684 144H180c-19.88 0-36 16.12-36 36v504c0 19.88 16.12 36 36 36h504c19.88 0 36-16.12 36-36V180c0-19.88-16.12-36-36-36M265.72 336c-3.33 5.77-9.38 9-15.61 9-3.05 0-6.15-.78-8.98-2.41-8.61-4.97-11.56-15.98-6.59-24.59 3.33-5.77 9.38-9 15.61-9 3.05 0 6.15.78 8.98 2.41 8.61 4.97 11.56 15.98 6.59 24.59m-6.59 216.59a17.86 17.86 0 0 1-8.98 2.41c-6.22 0-12.27-3.23-15.61-9-4.97-8.61-2.02-19.62 6.59-24.59 2.83-1.64 5.93-2.41 8.98-2.41 6.22 0 12.27 3.23 15.61 9 4.97 8.61 2.02 19.62-6.59 24.59M240 432c0 9.94-8.06 18-18 18s-18-8.06-18-18 8.06-18 18-18 18 8.06 18 18m71.41 172.87c3.33-5.77 9.38-9 15.6-9 3.05 0 6.15.78 8.98 2.41 8.61 4.97 11.56 15.98 6.59 24.59-3.33 5.77-9.38 9-15.61 9-3.05 0-6.15-.78-8.98-2.41-8.61-4.97-11.56-15.98-6.59-24.59ZM318 234.55c2.83-1.64 5.93-2.41 8.98-2.41 6.22 0 12.27 3.23 15.61 9 4.97 8.61 2.02 19.62-6.59 24.59a17.86 17.86 0 0 1-8.98 2.41c-6.22 0-12.27-3.23-15.61-9-4.97-8.61-2.02-19.62 6.59-24.59M414 222c0-9.94 8.06-18 18-18s18 8.06 18 18c0 .51-.03 1-.08 1.5.04.5.08.99.08 1.5v189h126c9.94 0 18 8.06 18 18s-8.06 18-18 18H432c-9.94 0-18-8.06-18-18V225c0-.51.03-1 .08-1.5-.04-.5-.08-.99-.08-1.5m107.41 19.13c3.33-5.77 9.38-9 15.61-9 3.05 0 6.15.78 8.98 2.41 8.61 4.97 11.56 15.98 6.59 24.59-3.33 5.77-9.38 9-15.6 9-3.05 0-6.15-.78-8.98-2.41-8.61-4.97-11.56-15.98-6.59-24.59ZM546 629.45a17.86 17.86 0 0 1-8.98 2.41c-6.22 0-12.27-3.23-15.6-9-4.97-8.61-2.02-19.62 6.59-24.59 2.83-1.64 5.93-2.41 8.98-2.41 6.22 0 12.27 3.23 15.61 9 4.97 8.61 2.02 19.62-6.59 24.59ZM432 624c9.94 0 18 8.06 18 18s-8.06 18-18 18-18-8.06-18-18 8.06-18 18-18m166.28-96c3.33-5.77 9.38-9 15.61-9 3.05 0 6.15.78 8.98 2.41 8.61 4.97 11.56 15.98 6.59 24.59-3.33 5.77-9.38 9-15.6 9-3.05 0-6.15-.78-8.98-2.41-8.61-4.97-11.56-15.98-6.59-24.59Zm6.59-216.59c2.83-1.64 5.93-2.41 8.98-2.41 6.22 0 12.27 3.23 15.61 9 4.97 8.61 2.02 19.62-6.59 24.59a17.86 17.86 0 0 1-8.98 2.41c-6.22 0-12.27-3.23-15.61-9-4.97-8.61-2.02-19.62 6.59-24.59M642 450c-9.94 0-18-8.06-18-18s8.06-18 18-18 18 8.06 18 18-8.06 18-18 18"/></svg>