<svg xmlns="http://www.w3.org/2000/svg" viewBox="0 0 864 864"><path fill="none" d="M333.92 664.21C364.96 677.34 397.96 684 432 684s67.03-6.66 98.08-19.79c30-12.69 56.96-30.87 80.11-54.02s41.33-50.11 54.02-80.11C677.34 499.04 684 466.04 684 432s-6.66-67.03-19.79-98.08c-12.69-30-30.87-56.96-54.02-80.11-23.15-23.16-50.11-41.33-80.11-54.02C499.04 186.66 466.04 180 432 180s-67.03 6.66-98.08 19.79c-30 12.69-56.96 30.87-80.11 54.02s-41.33 50.11-54.02 80.11C186.66 364.96 180 397.96 180 432s6.66 67.03 19.79 98.08c12.69 30 30.87 56.96 54.02 80.11 23.15 23.16 50.11 41.33 80.11 54.02M414 432c0-.59.03-1.19.09-1.78.03-.27.08-.53.11-.79.05-.32.08-.64.15-.95.06-.3.14-.59.22-.89.07-.27.13-.55.21-.82.09-.29.2-.57.3-.85.1-.27.19-.54.3-.81.11-.26.24-.52.36-.78.13-.27.25-.55.39-.82.13-.25.28-.48.43-.72.16-.26.31-.53.48-.79.18-.26.37-.51.56-.77.16-.22.31-.44.48-.65.37-.45.75-.87 1.16-1.28.01-.01.02-.02.03-.04l101.82-101.82c7.03-7.03 18.43-7.03 25.46 0s7.03 18.43 0 25.46L450 439.45v190.54c0 9.94-8.06 18-18 18s-18-8.06-18-18v-198Z"/><path d="M432 720c159.06 0 288-128.94 288-288S591.06 144 432 144 144 272.94 144 432s128.94 288 288 288M180 432c0-34.04 6.66-67.03 19.79-98.08 12.69-30 30.87-56.96 54.02-80.11 23.15-23.16 50.11-41.33 80.11-54.02C364.96 186.66 397.96 180 432 180s67.03 6.66 98.08 19.79c30 12.69 56.96 30.87 80.11 54.02s41.33 50.11 54.02 80.11C677.34 364.96 684 397.96 684 432s-6.66 67.03-19.79 98.08c-12.69 30-30.87 56.96-54.02 80.11-23.15 23.16-50.11 41.33-80.11 54.02C499.04 677.34 466.04 684 432 684s-67.03-6.66-98.08-19.79c-30-12.69-56.96-30.87-80.11-54.02s-41.33-50.11-54.02-80.11C186.66 499.04 180 466.04 180 432"/><path d="M414.35 428.48c.06-.3.14-.59.22-.89-.07.3-.16.59-.22.89m1.78-4.96c.13-.25.28-.48.43-.72-.14.24-.29.48-.43.72m1.95-2.93c.36-.44.75-.87 1.16-1.28-.41.41-.79.84-1.16 1.28m-1.05 1.41c.18-.26.37-.51.56-.77-.19.25-.39.5-.56.77m-1.66 3.11c.11-.26.24-.52.36-.78-.12.26-.25.51-.36.78m-.59 1.66c.09-.29.2-.57.3-.85-.1.28-.21.56-.3.85m-.69 3.45c.03-.26.08-.53.11-.79-.04.26-.09.52-.11.79M432 648c9.94 0 18-8.06 18-18V439.46l-5.27 5.27c-3.51 3.51-8.12 5.27-12.73 5.27s-9.21-1.76-12.73-5.27A17.95 17.95 0 0 1 414 432v198c0 9.94 8.06 18 18 18m-16.27-223.66c.13-.27.25-.55.39-.82-.14.27-.27.55-.39.82m-.65 1.58c.1-.27.19-.55.3-.81-.11.27-.2.54-.3.81m-.51 1.67c.07-.27.13-.55.21-.82-.08.27-.14.54-.21.82m-.37 1.84c.05-.32.08-.64.15-.95-.06.31-.1.63-.15.95m2.35-6.64c.16-.26.31-.53.48-.79-.17.26-.32.52-.48.79m1.05-1.55c.16-.22.31-.44.48-.65-.17.21-.32.43-.48.65M432 414c9.94 0 18 8.06 18 18v7.46l96.55-96.55c7.03-7.03 7.03-18.43 0-25.46s-18.43-7.03-25.46 0L419.27 419.27s-.02.02-.03.04c3.26-3.28 7.77-5.31 12.76-5.31"/><path d="M432 450c4.61 0 9.21-1.76 12.73-5.27l5.27-5.27V432c0-9.94-8.06-18-18-18-4.99 0-9.5 2.03-12.76 5.31-.41.41-.8.84-1.16 1.28-.17.21-.32.43-.48.65-.19.25-.39.5-.56.77-.17.25-.32.52-.48.79-.14.24-.3.48-.43.72-.14.27-.27.55-.39.82-.12.26-.25.51-.36.78-.11.26-.2.54-.3.81-.1.28-.21.57-.3.85-.08.27-.14.54-.21.82-.07.3-.16.59-.22.89-.06.31-.1.63-.15.95-.04.26-.09.53-.11.79a17.97 17.97 0 0 0 5.18 14.51c3.51 3.51 8.12 5.27 12.73 5.27Z"/></svg>