<svg xmlns="http://www.w3.org/2000/svg" viewBox="0 0 864 864"><path d="M347.93 196.96c-25.72 10.88-48.82 26.46-68.67 46.31s-35.43 42.95-46.31 68.67c-11.25 26.61-16.96 54.89-16.96 84.07s5.71 57.46 16.96 84.07c10.88 25.72 26.46 48.82 46.31 68.67s42.95 35.43 68.67 46.31c26.61 11.25 54.89 16.96 84.07 16.96s57.46-5.71 84.07-16.96c25.72-10.88 48.82-26.46 68.67-46.31s35.43-42.95 46.31-68.67c11.25-26.61 16.96-54.89 16.96-84.07s-5.71-57.46-16.96-84.07c-10.88-25.72-26.46-48.82-46.31-68.67s-42.95-35.43-68.67-46.31C489.46 185.71 461.18 180 432 180s-57.46 5.71-84.07 16.96M450 222.75v165.79l83.82 83.82c7.03 7.03 7.03 18.43 0 25.46-3.51 3.51-8.12 5.27-12.73 5.27s-9.21-1.76-12.73-5.27l-89.09-89.09q-.63-.63-1.2-1.32c-.17-.2-.31-.41-.46-.62-.2-.26-.4-.52-.58-.79-.17-.25-.31-.51-.47-.77-.15-.25-.3-.49-.44-.74-.14-.27-.26-.54-.39-.81-.12-.26-.25-.52-.37-.79-.11-.26-.2-.53-.29-.8-.1-.29-.21-.57-.3-.86-.08-.27-.14-.54-.21-.81-.08-.3-.16-.59-.22-.9s-.1-.63-.14-.95c-.04-.27-.09-.53-.11-.79-.06-.59-.09-1.18-.09-1.78V222.75c0-9.94 8.06-18 18-18s18 8.06 18 18"/><path d="M180 396c0 139.18 112.82 252 252 252s252-112.82 252-252-112.82-252-252-252-252 112.82-252 252m486 0c0 62.5-24.34 121.27-68.54 165.46C553.26 605.66 494.5 630 432 630s-121.27-24.34-165.46-68.54C222.34 517.26 198 458.5 198 396s24.34-121.27 68.54-165.46C310.74 186.34 369.5 162 432 162s121.27 24.34 165.46 68.54C641.66 274.74 666 333.5 666 396"/><path d="M266.54 230.54C222.34 274.74 198 333.5 198 396s24.34 121.27 68.54 165.46C310.74 605.66 369.5 630 432 630s121.27-24.34 165.46-68.54C641.66 517.26 666 458.5 666 396s-24.34-121.27-68.54-165.46C553.26 186.34 494.5 162 432 162s-121.27 24.34-165.46 68.54m318.2 12.72c19.85 19.85 35.43 42.95 46.31 68.67 11.25 26.61 16.96 54.89 16.96 84.07s-5.71 57.46-16.96 84.07c-10.88 25.72-26.46 48.82-46.31 68.67s-42.95 35.43-68.67 46.31c-26.61 11.25-54.89 16.96-84.07 16.96s-57.46-5.71-84.07-16.96c-25.72-10.88-48.82-26.46-68.67-46.31s-35.43-42.95-46.31-68.67c-11.25-26.61-16.96-54.89-16.96-84.07s5.71-57.46 16.96-84.07c10.88-25.72 26.46-48.82 46.31-68.67s42.95-35.43 68.67-46.31c26.61-11.25 54.89-16.96 84.07-16.96s57.46 5.71 84.07 16.96c25.72 10.88 48.82 26.46 68.67 46.31M218.45 609.55c-15.3-15.3-28.78-31.99-40.35-49.92A64.2 64.2 0 0 0 176 576v112h178.61c-13.65-3.61-27.06-8.2-40.18-13.75-35.97-15.21-68.26-36.98-95.98-64.7m467.45-49.92c-11.57 17.93-25.05 34.62-40.35 49.92-27.72 27.72-60.01 49.49-95.98 64.7A301 301 0 0 1 509.39 688h178.62V576c0-5.61-.72-11.1-2.1-16.37Z"/><path d="M681.54 499.22c-.26.63-.5 1.25-.77 1.88-13.6 32.15-33.07 61.03-57.86 85.82s-53.66 44.26-85.82 57.86c-33.3 14.08-68.66 21.23-105.1 21.23s-71.8-7.14-105.1-21.23c-32.15-13.6-61.03-33.07-85.82-57.86s-44.26-53.66-57.86-85.82c-.27-.64-.52-1.28-.79-1.92a98 98 0 0 0-10.32 8.94c-18.13 18.13-28.12 42.24-28.12 67.88v144h576V576c0-31.36-15.13-59.25-38.46-76.78ZM160 704V576c0-18.29 6.09-35.63 17.32-49.73 13.57 26.53 31.15 50.67 52.45 71.96 26.25 26.25 56.84 46.87 90.9 61.28C355.95 674.43 393.41 682 432 682s76.05-7.57 111.33-22.49c34.06-14.41 64.64-35.03 90.9-61.28 21.29-21.29 38.87-45.42 52.44-71.94C697.84 540.27 704 557.6 704 576v128z"/><path d="M686.67 526.29c-13.57 26.52-31.15 50.66-52.44 71.94-26.25 26.25-56.84 46.87-90.9 61.28C508.05 674.43 470.59 682 432 682s-76.05-7.57-111.33-22.49c-34.06-14.41-64.64-35.03-90.9-61.28-21.29-21.29-38.88-45.43-52.45-71.96C166.09 540.36 160 557.71 160 576v128h544V576c0-18.4-6.16-35.74-17.33-49.71M176 688V576c0-5.6.72-11.09 2.1-16.37 11.57 17.93 25.05 34.62 40.35 49.92 27.72 27.72 60.01 49.49 95.98 64.7A301 301 0 0 0 354.61 688zm333.38 0c13.65-3.61 27.06-8.2 40.18-13.75 35.97-15.21 68.26-36.98 95.98-64.7 15.3-15.3 28.78-31.99 40.35-49.92 1.39 5.27 2.1 10.76 2.1 16.37v112H509.37Z"/></svg>