<svg xmlns="http://www.w3.org/2000/svg" viewBox="0 0 864 864"><path fill="none" d="M180 684h504V180H180zm79.13-131.41a17.86 17.86 0 0 1-8.98 2.41c-6.22 0-12.27-3.23-15.6-9-4.97-8.61-2.02-19.62 6.59-24.59 2.83-1.64 5.93-2.41 8.98-2.41 6.22 0 12.27 3.23 15.6 9 4.97 8.61 2.02 19.62-6.59 24.59M660 432c0 9.94-8.06 18-18 18s-18-8.06-18-18 8.06-18 18-18 18 8.06 18 18m-55.13-120.59c2.83-1.64 5.93-2.41 8.98-2.41 6.22 0 12.27 3.23 15.6 9 4.97 8.61 2.02 19.62-6.59 24.59a17.86 17.86 0 0 1-8.98 2.41c-6.22 0-12.27-3.23-15.6-9-4.97-8.61-2.02-19.62 6.59-24.59M598.28 528c3.33-5.77 9.38-9 15.6-9 3.05 0 6.15.78 8.98 2.41 8.61 4.97 11.56 15.98 6.59 24.59-3.33 5.77-9.38 9-15.6 9-3.05 0-6.15-.78-8.98-2.41-8.61-4.97-11.56-15.98-6.59-24.59m-76.87-286.87c3.33-5.77 9.38-9 15.6-9 3.05 0 6.15.78 8.98 2.41 8.61 4.97 11.56 15.98 6.59 24.59-3.33 5.77-9.38 9-15.6 9-3.05 0-6.15-.78-8.98-2.41-8.61-4.97-11.56-15.98-6.59-24.59M528 598.28c2.83-1.64 5.93-2.41 8.98-2.41 6.22 0 12.27 3.23 15.61 9 4.97 8.61 2.02 19.62-6.59 24.59a17.86 17.86 0 0 1-8.98 2.41c-6.22 0-12.27-3.23-15.6-9-4.97-8.61-2.02-19.62 6.59-24.59ZM450 639c0 .51-.04 1-.08 1.5.04.5.08.99.08 1.5 0 9.94-8.06 18-18 18s-18-8.06-18-18c0-.51.04-1 .08-1.5-.04-.5-.08-.99-.08-1.5V439.46l-96.55-96.55c-7.03-7.03-7.03-18.43 0-25.46s18.43-7.03 25.46 0l101.82 101.82q.63.63 1.2 1.32c.17.2.31.42.47.63.2.26.4.51.58.78.17.26.32.52.48.78.14.24.29.48.43.72.14.27.27.55.4.82.12.26.25.51.36.77.11.27.2.54.3.82s.21.56.29.84.14.55.21.83c.07.29.15.58.21.88.06.32.1.65.15.98.04.25.08.5.11.76.06.59.09 1.19.09 1.78v206.99Zm-18-435c9.94 0 18 8.06 18 18s-8.06 18-18 18-18-8.06-18-18 8.06-18 18-18m-114 30.55c2.83-1.64 5.93-2.41 8.98-2.41 6.22 0 12.27 3.23 15.6 9 4.97 8.61 2.02 19.62-6.59 24.59a17.86 17.86 0 0 1-8.98 2.41c-6.22 0-12.27-3.23-15.61-9-4.97-8.61-2.02-19.62 6.59-24.59Zm-6.59 370.32c3.33-5.77 9.38-9 15.6-9 3.05 0 6.15.78 8.98 2.41 8.61 4.97 11.56 15.98 6.59 24.59-3.33 5.77-9.38 9-15.6 9-3.05 0-6.15-.78-8.98-2.41-8.61-4.97-11.56-15.98-6.59-24.59M234.55 318c3.33-5.77 9.38-9 15.6-9 3.05 0 6.15.78 8.98 2.41 8.61 4.97 11.56 15.98 6.59 24.59-3.33 5.77-9.38 9-15.6 9-3.05 0-6.15-.78-8.98-2.41-8.61-4.97-11.56-15.98-6.59-24.59M222 414c9.94 0 18 8.06 18 18s-8.06 18-18 18-18-8.06-18-18 8.06-18 18-18"/><path d="M684 144H180c-19.88 0-36 16.12-36 36v504c0 19.88 16.12 36 36 36h504c19.88 0 36-16.12 36-36V180c0-19.88-16.12-36-36-36m0 540H180V180h504z"/><path d="M432 657c-9.43 0-17.16-7.26-17.92-16.5-.04.5-.08.99-.08 1.5 0 9.94 8.06 18 18 18s18-8.06 18-18c0-.51-.04-1-.08-1.5-.76 9.24-8.49 16.5-17.92 16.5"/><circle cx="432" cy="222" r="18"/><circle cx="642" cy="432" r="18"/><circle cx="222" cy="432" r="18"/><path d="M318 629.45c2.83 1.64 5.93 2.41 8.98 2.41 6.22 0 12.27-3.23 15.6-9 4.97-8.61 2.02-19.62-6.59-24.59a17.86 17.86 0 0 0-8.98-2.41c-6.22 0-12.27 3.23-15.6 9-4.97 8.61-2.02 19.62 6.59 24.59m210-363.73c2.83 1.64 5.93 2.41 8.98 2.41 6.22 0 12.27-3.23 15.6-9 4.97-8.61 2.02-19.62-6.59-24.59a17.86 17.86 0 0 0-8.98-2.41c-6.22 0-12.27 3.23-15.6 9-4.97 8.61-2.02 19.62 6.59 24.59m76.87 286.87c2.83 1.64 5.93 2.41 8.98 2.41 6.22 0 12.27-3.23 15.6-9 4.97-8.61 2.02-19.62-6.59-24.59a17.86 17.86 0 0 0-8.98-2.41c-6.22 0-12.27 3.23-15.6 9-4.97 8.61-2.02 19.62 6.59 24.59m-363.74-210c2.83 1.64 5.93 2.41 8.98 2.41 6.22 0 12.27-3.23 15.6-9 4.97-8.61 2.02-19.62-6.59-24.59a17.86 17.86 0 0 0-8.98-2.41c-6.22 0-12.27 3.23-15.6 9-4.97 8.61-2.02 19.62 6.59 24.59M250.12 519c-3.05 0-6.15.78-8.98 2.41-8.61 4.97-11.56 15.98-6.59 24.59 3.33 5.77 9.38 9 15.6 9 3.05 0 6.15-.78 8.98-2.41 8.61-4.97 11.56-15.98 6.59-24.59-3.33-5.77-9.38-9-15.6-9m363.76-174c3.05 0 6.15-.78 8.98-2.41 8.61-4.97 11.56-15.98 6.59-24.59-3.33-5.77-9.38-9-15.6-9-3.05 0-6.15.78-8.98 2.41-8.61 4.97-11.56 15.98-6.59 24.59 3.33 5.77 9.38 9 15.6 9m-76.86 286.87c3.05 0 6.15-.78 8.98-2.41 8.61-4.97 11.56-15.98 6.59-24.59-3.33-5.77-9.38-9-15.61-9-3.05 0-6.15.78-8.98 2.41-8.61 4.97-11.56 15.98-6.59 24.59 3.33 5.77 9.38 9 15.6 9Zm-210-363.73c3.05 0 6.15-.78 8.98-2.41 8.61-4.97 11.56-15.98 6.59-24.59-3.33-5.77-9.38-9-15.6-9-3.05 0-6.15.78-8.98 2.41-8.61 4.97-11.56 15.98-6.59 24.59 3.33 5.77 9.38 9 15.61 9Zm119.37 153.08c.2.26.4.52.58.78-.18-.27-.38-.52-.58-.78m1.88 3.12c.12.26.25.51.36.77-.11-.26-.24-.52-.36-.77m-.82-1.55c.14.24.3.48.43.72-.13-.25-.28-.48-.43-.72m-1.53-2.2q-.57-.69-1.2-1.32c.42.43.82.87 1.19 1.32ZM432 450c-4.61 0-9.21-1.76-12.73-5.27l-5.27-5.27V639c0 .51.04 1 .08 1.5.76-9.24 8.49-16.5 17.92-16.5s17.16 7.26 17.92 16.5c.04-.5.08-.99.08-1.5V432.01c0 4.6-1.76 9.21-5.27 12.72A17.95 17.95 0 0 1 432 450m17.44-22.39c.07.29.16.58.21.88-.06-.3-.14-.58-.21-.88m.36 1.85c.04.25.08.51.11.76-.03-.26-.07-.51-.11-.76m-.87-3.53c.1.28.21.56.29.84-.09-.29-.19-.56-.29-.84"/><path d="M432 624c-9.43 0-17.16 7.26-17.92 16.5.76 9.24 8.49 16.5 17.92 16.5s17.16-7.26 17.92-16.5c-.76-9.24-8.49-16.5-17.92-16.5m0-210a17.9 17.9 0 0 1 12.72 5.27L342.9 317.45c-7.03-7.03-18.43-7.03-25.46 0s-7.03 18.43 0 25.46l96.55 96.55V432c0-9.94 8.06-18 18-18Zm15.87 9.52c.14.27.27.55.4.82-.13-.28-.25-.55-.4-.82m.76 1.59c.11.27.2.54.3.82-.1-.27-.19-.55-.3-.82m-1.66-3.1c.17.25.32.52.48.78-.16-.26-.31-.53-.48-.78m-1.05-1.42c.17.2.31.42.47.63-.16-.21-.3-.43-.47-.63m3.3 6.18c.08.27.14.55.21.83-.07-.28-.13-.56-.21-.83m.43 1.71c.06.32.1.65.15.98-.05-.33-.09-.66-.15-.98"/><path d="M449.91 430.22c-.03-.25-.07-.51-.11-.76-.05-.33-.09-.66-.15-.98-.06-.29-.14-.58-.21-.88-.07-.28-.13-.56-.21-.83-.09-.28-.19-.56-.29-.84-.1-.27-.19-.55-.3-.82-.11-.26-.24-.52-.36-.77-.13-.28-.25-.55-.4-.82-.13-.25-.28-.48-.43-.72-.16-.26-.31-.53-.48-.78-.18-.27-.38-.52-.58-.78-.16-.21-.3-.43-.47-.63a17.93 17.93 0 0 0-13.91-6.59c-9.94 0-18 8.06-18 18v7.46l5.27 5.27c3.51 3.51 8.12 5.27 12.73 5.27s9.21-1.76 12.73-5.27a17.95 17.95 0 0 0 5.18-14.5Z"/></svg>