<svg xmlns="http://www.w3.org/2000/svg" viewBox="0 0 864 864"><path fill="none" d="M180 684h504V180H180zm79.13-131.41a17.86 17.86 0 0 1-8.98 2.41c-6.22 0-12.27-3.23-15.61-9-4.97-8.61-2.02-19.62 6.59-24.59 2.83-1.64 5.93-2.41 8.98-2.41 6.22 0 12.27 3.23 15.6 9 4.97 8.61 2.02 19.62-6.59 24.59ZM660 432c0 9.94-8.06 18-18 18s-18-8.06-18-18 8.06-18 18-18 18 8.06 18 18m-55.13-120.59c2.83-1.64 5.93-2.41 8.98-2.41 6.22 0 12.27 3.23 15.61 9 4.97 8.61 2.02 19.62-6.59 24.59a17.86 17.86 0 0 1-8.98 2.41c-6.22 0-12.27-3.23-15.6-9-4.97-8.61-2.02-19.62 6.59-24.59ZM598.28 528c3.33-5.77 9.38-9 15.6-9 3.05 0 6.15.78 8.98 2.41 8.61 4.97 11.56 15.98 6.59 24.59-3.33 5.77-9.38 9-15.61 9-3.05 0-6.15-.78-8.98-2.41-8.61-4.97-11.56-15.98-6.59-24.59Zm-76.87-286.87c3.33-5.77 9.38-9 15.6-9 3.05 0 6.15.78 8.98 2.41 8.61 4.97 11.56 15.98 6.59 24.59-3.33 5.77-9.38 9-15.61 9-3.05 0-6.15-.78-8.98-2.41-8.61-4.97-11.56-15.98-6.59-24.59ZM528 598.28c2.83-1.64 5.93-2.41 8.98-2.41 6.22 0 12.27 3.23 15.61 9 4.97 8.61 2.02 19.62-6.59 24.59a17.86 17.86 0 0 1-8.98 2.41c-6.22 0-12.27-3.23-15.61-9-4.97-8.61-2.02-19.62 6.59-24.59M414 432V225c0-.51.03-1 .08-1.5-.04-.5-.08-.99-.08-1.5 0-9.94 8.06-18 18-18s18 8.06 18 18c0 .51-.03 1-.08 1.5.04.5.08.99.08 1.5v351c0 9.94-8.06 18-18 18s-18-8.06-18-18zm18 192c9.94 0 18 8.06 18 18s-8.06 18-18 18-18-8.06-18-18 8.06-18 18-18M318 234.55c2.83-1.64 5.93-2.41 8.98-2.41 6.22 0 12.27 3.23 15.61 9 4.97 8.61 2.02 19.62-6.59 24.59a17.86 17.86 0 0 1-8.98 2.41c-6.22 0-12.27-3.23-15.61-9-4.97-8.61-2.02-19.62 6.59-24.59m-6.59 370.32c3.33-5.77 9.38-9 15.61-9 3.05 0 6.15.78 8.98 2.41 8.61 4.97 11.56 15.98 6.59 24.59-3.33 5.77-9.38 9-15.6 9-3.05 0-6.15-.78-8.98-2.41-8.61-4.97-11.56-15.98-6.59-24.59ZM234.55 318c3.33-5.77 9.38-9 15.61-9 3.05 0 6.15.78 8.98 2.41 8.61 4.97 11.56 15.98 6.59 24.59-3.33 5.77-9.38 9-15.6 9-3.05 0-6.15-.78-8.98-2.41-8.61-4.97-11.56-15.98-6.59-24.59ZM222 414c9.94 0 18 8.06 18 18s-8.06 18-18 18-18-8.06-18-18 8.06-18 18-18"/><path d="M684 144H180c-19.88 0-36 16.12-36 36v504c0 19.88 16.12 36 36 36h504c19.88 0 36-16.12 36-36V180c0-19.88-16.12-36-36-36m0 540H180V180h504z"/><circle cx="432" cy="642" r="18"/><path d="M432 207c9.44 0 17.16 7.26 17.92 16.5.04-.5.08-.99.08-1.5 0-9.94-8.06-18-18-18s-18 8.06-18 18c0 .51.03 1 .08 1.5.76-9.24 8.49-16.5 17.92-16.5"/><circle cx="642" cy="432" r="18"/><circle cx="222" cy="432" r="18"/><path d="M318 629.45c2.83 1.64 5.93 2.41 8.98 2.41 6.22 0 12.27-3.23 15.6-9 4.97-8.61 2.02-19.62-6.59-24.59a17.86 17.86 0 0 0-8.98-2.41c-6.22 0-12.27 3.23-15.61 9-4.97 8.61-2.02 19.62 6.59 24.59Zm210-363.73c2.83 1.64 5.93 2.41 8.98 2.41 6.22 0 12.27-3.23 15.61-9 4.97-8.61 2.02-19.62-6.59-24.59a17.86 17.86 0 0 0-8.98-2.41c-6.22 0-12.27 3.23-15.6 9-4.97 8.61-2.02 19.62 6.59 24.59Zm76.87 286.87c2.83 1.64 5.93 2.41 8.98 2.41 6.22 0 12.27-3.23 15.61-9 4.97-8.61 2.02-19.62-6.59-24.59a17.86 17.86 0 0 0-8.98-2.41c-6.22 0-12.27 3.23-15.6 9-4.97 8.61-2.02 19.62 6.59 24.59Zm-363.74-210c2.83 1.64 5.93 2.41 8.98 2.41 6.22 0 12.27-3.23 15.6-9 4.97-8.61 2.02-19.62-6.59-24.59a17.86 17.86 0 0 0-8.98-2.41c-6.22 0-12.27 3.23-15.61 9-4.97 8.61-2.02 19.62 6.59 24.59ZM250.12 519c-3.05 0-6.15.78-8.98 2.41-8.61 4.97-11.56 15.98-6.59 24.59 3.33 5.77 9.38 9 15.61 9 3.05 0 6.15-.78 8.98-2.41 8.61-4.97 11.56-15.98 6.59-24.59-3.33-5.77-9.38-9-15.6-9Zm363.76-174c3.05 0 6.15-.78 8.98-2.41 8.61-4.97 11.56-15.98 6.59-24.59-3.33-5.77-9.38-9-15.61-9-3.05 0-6.15.78-8.98 2.41-8.61 4.97-11.56 15.98-6.59 24.59 3.33 5.77 9.38 9 15.6 9Zm-76.86 286.87c3.05 0 6.15-.78 8.98-2.41 8.61-4.97 11.56-15.98 6.59-24.59-3.33-5.77-9.38-9-15.61-9-3.05 0-6.15.78-8.98 2.41-8.61 4.97-11.56 15.98-6.59 24.59 3.33 5.77 9.38 9 15.61 9m-210-363.73c3.05 0 6.15-.78 8.98-2.41 8.61-4.97 11.56-15.98 6.59-24.59-3.33-5.77-9.38-9-15.61-9-3.05 0-6.15.78-8.98 2.41-8.61 4.97-11.56 15.98-6.59 24.59 3.33 5.77 9.38 9 15.61 9M432 414c9.94 0 18 8.06 18 18V225c0-.51-.03-1-.08-1.5-.76 9.24-8.49 16.5-17.92 16.5s-17.16-7.26-17.92-16.5c-.04.5-.08.99-.08 1.5v207c0-9.94 8.06-18 18-18"/><path d="M432 240c9.43 0 17.16-7.26 17.92-16.5-.76-9.24-8.49-16.5-17.92-16.5s-17.16 7.26-17.92 16.5c.76 9.24 8.49 16.5 17.92 16.5m0 354c9.94 0 18-8.06 18-18V432c0 9.94-8.06 18-18 18s-18-8.06-18-18v144c0 9.94 8.06 18 18 18"/><circle cx="432" cy="432" r="18"/></svg>