<svg xmlns="http://www.w3.org/2000/svg" viewBox="0 0 864 864"><path fill="none" d="M530.08 199.79C499.04 186.66 466.04 180 432 180s-67.03 6.66-98.08 19.79c-30 12.69-56.96 30.87-80.11 54.02s-41.33 50.11-54.02 80.11C186.66 364.96 180 397.96 180 432s6.66 67.03 19.79 98.08c12.69 30 30.87 56.96 54.02 80.11 23.15 23.16 50.11 41.33 80.11 54.02C364.96 677.34 397.96 684 432 684s67.03-6.66 98.08-19.79c30-12.69 56.96-30.87 80.11-54.02s41.33-50.11 54.02-80.11C677.34 499.04 684 466.04 684 432s-6.66-67.03-19.79-98.08c-12.69-30-30.87-56.96-54.02-80.11-23.15-23.16-50.11-41.33-80.11-54.02M450 630c0 9.94-8.06 18-18 18s-18-8.06-18-18v-61.27l-1.88 7.03c-2.15 8.04-9.43 13.35-17.38 13.35-1.54 0-3.11-.2-4.67-.62-9.6-2.57-15.3-12.44-12.73-22.05l37.27-139.09c.02-.09.06-.18.09-.27.1-.36.22-.72.35-1.08.08-.22.15-.44.24-.66a20 20 0 0 1 .41-.93c.11-.24.23-.49.35-.73.13-.26.28-.51.43-.76.16-.27.31-.54.48-.79.14-.21.29-.41.43-.61.2-.27.39-.55.6-.81.15-.19.31-.36.47-.54.22-.25.44-.51.68-.75.18-.18.37-.36.56-.53.23-.21.45-.43.69-.63.22-.19.46-.37.69-.55.21-.16.43-.33.65-.49.27-.19.56-.37.84-.54.2-.12.39-.25.6-.36.31-.18.63-.33.95-.49.2-.1.39-.2.59-.28.32-.14.65-.27.98-.39.22-.08.44-.17.66-.24.3-.1.62-.19.93-.27.27-.07.54-.15.81-.21s.54-.11.82-.15c.33-.06.65-.11.99-.15.24-.03.48-.05.71-.06q.555-.045 1.11-.06c.1 0 .19-.01.29-.01.14 0 .28.02.43.02.35 0 .7.02 1.06.05.29.02.58.06.87.1.28.04.57.08.85.13.35.06.7.14 1.05.23.14.03.27.05.41.09.09.02.17.06.26.09.37.1.73.22 1.08.35.22.08.43.15.65.24.32.13.63.27.95.41.24.11.48.22.71.34.26.14.51.28.77.43a13 13 0 0 1 1.4.92c.27.2.54.39.8.6.19.15.36.31.54.47.25.22.51.44.75.68.18.18.35.36.52.55.22.23.43.46.64.7.19.22.36.45.53.68.17.22.34.44.5.67.18.27.35.54.52.82.13.21.26.41.38.63.17.3.32.61.47.92.1.21.21.41.3.63.14.31.26.63.38.94.09.23.18.46.26.7.1.29.18.59.26.89.08.28.15.56.22.84.06.26.1.52.15.79.06.34.12.67.16 1.02.03.23.04.46.06.69q.045.57.06 1.14c0 .09.01.18.01.28v198Z"/><path d="M432 144c-159.06 0-288 128.94-288 288s128.94 288 288 288 288-128.94 288-288-128.94-288-288-288m252 288c0 34.04-6.66 67.03-19.79 98.08-12.69 30-30.87 56.96-54.02 80.11-23.15 23.16-50.11 41.33-80.11 54.02C499.04 677.34 466.04 684 432 684s-67.03-6.66-98.08-19.79c-30-12.69-56.96-30.87-80.11-54.02s-41.33-50.11-54.02-80.11C186.66 499.04 180 466.04 180 432s6.66-67.03 19.79-98.08c12.69-30 30.87-56.96 54.02-80.11 23.15-23.16 50.11-41.33 80.11-54.02C364.96 186.66 397.96 180 432 180s67.03 6.66 98.08 19.79c30 12.69 56.96 30.87 80.11 54.02s41.33 50.11 54.02 80.11C677.34 364.96 684 397.96 684 432m-257.65-17.08"/><path d="M435.2 414.3c.35.06.7.14 1.05.23-.35-.08-.7-.16-1.05-.23m-7.12.14c.27-.06.54-.11.82-.15-.27.05-.55.09-.82.15M432 414c-.1 0-.19.01-.29.01h.71c-.14 0-.28-.02-.43-.02Zm1.49.08c.29.02.58.06.87.1-.29-.04-.57-.07-.87-.1m-3.6.05c.24-.03.48-.05.71-.06zm8.76 1.16c.32.13.63.27.95.41-.31-.15-.62-.29-.95-.41m-16.93 1.94c.27-.19.56-.37.84-.54-.29.18-.57.35-.84.54m26.73 7.49c.14.31.26.63.38.94-.12-.32-.24-.63-.38-.94m.94 11.94L414 568.73V630c0 9.94 8.06 18 18 18s18-8.06 18-18V432c0-.09-.01-.18-.01-.28.02 1.63-.16 3.29-.6 4.94m.48-6.76c.03.23.04.46.06.69zm-.31-1.8c.06.26.1.52.15.79-.05-.26-.09-.53-.15-.79m-7.69-11.15c.21.14.42.29.62.44-.21-.15-.41-.3-.62-.44m1.42 1.04c.19.15.36.31.54.47-.18-.16-.36-.32-.54-.47m-2.98-1.95c.26.14.52.29.77.43-.25-.15-.51-.3-.77-.43m4.27 3.1c.18.18.35.36.52.55-.17-.18-.34-.37-.52-.55m1.16 1.24c.19.22.36.45.53.68-.18-.23-.35-.46-.53-.68m-22.57-4.05c.31-.18.63-.33.95-.49-.32.16-.64.32-.95.49m-7.12 7.35c.13-.26.28-.51.43-.76-.15.25-.29.5-.43.76m3.08-4.26c.18-.18.37-.36.56-.53-.19.18-.38.35-.56.53m-1.14 1.29c.15-.19.31-.36.47-.54-.16.18-.32.36-.47.54m-1.03 1.42c.14-.21.29-.41.43-.61-.15.2-.29.4-.43.61m-2.26 4.94c.1-.37.22-.72.35-1.08-.13.35-.24.71-.35 1.08m.59-1.73a20 20 0 0 1 .41-.93c-.14.31-.28.62-.41.93m5.09-7.08c.23-.19.46-.37.69-.55-.23.18-.47.36-.69.55m-1.92 1.91c.22-.25.44-.51.68-.75-.23.24-.46.49-.68.75m27.81.89c.17.22.34.44.5.67-.16-.23-.33-.45-.5-.67m-2.44-2.6c.25.22.51.44.75.68-.24-.24-.49-.46-.75-.68m1.27 1.22c.22.23.43.46.64.7-.2-.24-.42-.47-.64-.7m-2.61-2.29c.27.2.54.39.8.6-.26-.21-.53-.4-.8-.6m-4.48-2.34c.22.08.43.15.65.24-.21-.08-.43-.16-.65-.24m1.59.65c.24.11.48.22.71.34-.23-.12-.47-.23-.71-.34m1.48.78c.26.15.53.31.78.48-.25-.17-.52-.32-.78-.48m8.63 12.4c.06.34.12.67.16 1.02-.04-.34-.1-.68-.16-1.02m-.36-1.63c.08.28.15.56.22.84-.06-.28-.14-.56-.22-.84m-2.05-4.7c.13.21.26.41.38.63-.12-.21-.25-.42-.38-.63m-10.64-7.94c-.14-.04-.27-.05-.41-.09.23.05.45.11.67.17-.09-.03-.17-.06-.26-.09Zm12.17 11.05c.09.23.18.46.26.7-.08-.24-.17-.47-.26-.7m-34.13 1.41-.09.27-37.27 139.09c-2.57 9.6 3.13 19.47 12.73 22.05 1.56.42 3.13.62 4.67.62 7.95 0 15.22-5.3 17.38-13.35l1.88-7.03V431.99c0-1.71.25-3.36.7-4.93Z"/><path d="M449.93 430.59c.03.38.05.75.06 1.14 0-.38-.03-.76-.06-1.14m-24.24-15.43c.22-.08.44-.17.66-.24-.22.07-.44.16-.66.24m-6 3.73c.23-.21.45-.43.69-.63-.24.2-.46.41-.69.63m1.39-1.17c.21-.16.43-.33.65-.49-.22.15-.43.32-.65.49m-3.69 3.8c.2-.27.39-.54.6-.81q-.315.39-.6.81m-2.34 4.48c.08-.22.15-.44.24-.66-.09.22-.16.44-.24.66m7.52-9.31c.2-.12.39-.25.6-.36-.2.11-.4.24-.6.36m-6.1 6.24c.16-.27.31-.54.48-.79-.17.26-.33.53-.48.79m-.77 1.48c.11-.24.23-.49.35-.73-.12.24-.24.48-.35.73m11.58-9.76c.27-.07.54-.15.81-.21q-.405.09-.81.21m3.32-.58q.555-.045 1.11-.06c-.37 0-.74.03-1.11.06m-6.48 1.77c.2-.1.39-.2.59-.28-.2.09-.39.19-.59.28m8.31-1.82c.35 0 .71.02 1.06.05-.35-.03-.71-.04-1.06-.05m1.92.15c.28.04.57.08.85.13-.28-.05-.57-.09-.85-.13m13.8 9.92c.1.21.21.41.3.63-.09-.21-.2-.42-.3-.63"/><path d="M449.99 431.72c0-.38-.03-.76-.06-1.14-.02-.23-.03-.46-.06-.69-.04-.34-.1-.68-.16-1.02-.05-.26-.09-.53-.15-.79-.06-.28-.14-.56-.22-.84-.08-.3-.16-.6-.26-.89-.08-.24-.17-.47-.26-.7-.12-.32-.24-.63-.38-.94-.09-.21-.2-.42-.3-.63-.15-.31-.3-.62-.47-.92-.12-.21-.25-.42-.38-.63-.17-.28-.34-.55-.52-.82-.16-.23-.33-.45-.5-.67-.17-.23-.35-.46-.53-.68-.2-.24-.42-.47-.64-.7-.17-.18-.34-.37-.52-.55-.24-.24-.49-.46-.75-.68-.18-.16-.36-.32-.54-.47-.26-.21-.53-.4-.8-.6-.21-.15-.41-.3-.62-.44-.25-.17-.52-.32-.78-.48-.25-.15-.51-.3-.77-.43-.23-.12-.47-.23-.71-.34-.31-.14-.62-.29-.95-.41-.21-.08-.43-.16-.65-.24-.36-.13-.72-.25-1.08-.35-.22-.06-.45-.12-.67-.17-.35-.09-.7-.16-1.05-.23a22 22 0 0 0-1.72-.23c-.35-.03-.7-.04-1.06-.05-.24 0-.48-.01-.71 0-.37 0-.74.03-1.11.06l-.71.06q-.495.06-.99.15c-.27.05-.55.09-.82.15q-.405.09-.81.21-.465.12-.93.27c-.22.07-.44.16-.66.24-.33.12-.66.25-.98.39-.2.09-.39.19-.59.28-.32.16-.64.32-.95.49-.2.11-.4.24-.6.36-.29.18-.57.35-.84.54-.22.15-.44.32-.65.49-.23.18-.47.36-.69.55-.24.2-.46.41-.69.63-.19.18-.38.35-.56.53-.23.24-.46.49-.68.75-.16.18-.32.36-.47.54q-.315.39-.6.81c-.15.2-.29.4-.43.61-.17.26-.33.53-.48.79-.15.25-.29.5-.43.76-.12.24-.24.48-.35.73-.14.31-.28.62-.41.93-.09.22-.16.44-.24.66-.12.35-.24.71-.35 1.08-.45 1.57-.7 3.22-.7 4.93v136.73l35.39-132.07c.44-1.65.62-3.31.6-4.94Z"/></svg>