<svg xmlns="http://www.w3.org/2000/svg" viewBox="0 0 864 864"><path d="M444 144c-159.06 0-288 128.94-288 288s128.94 288 288 288 288-128.94 288-288-128.94-288-288-288m114.55 402.55c-3.51 3.51-8.12 5.27-12.73 5.27s-9.21-1.76-12.73-5.27L431.27 444.73c-.42-.42-.82-.86-1.2-1.33-.16-.2-.3-.41-.46-.61-.2-.27-.4-.53-.59-.8-.17-.25-.31-.51-.47-.77-.15-.25-.3-.49-.44-.74-.14-.26-.26-.54-.39-.81-.12-.26-.25-.52-.37-.79-.11-.26-.2-.53-.29-.8-.1-.29-.21-.57-.3-.86-.08-.27-.14-.54-.21-.81-.08-.3-.16-.59-.22-.9s-.1-.63-.14-.95c-.04-.27-.09-.53-.11-.79-.06-.59-.09-1.18-.09-1.78v-198c0-9.94 8.06-18 18-18s18 8.06 18 18v190.54l96.55 96.55c7.03 7.03 7.03 18.43 0 25.46Z"/></svg>