<svg xmlns="http://www.w3.org/2000/svg" viewBox="0 0 864 864"><path d="M684 144H180c-19.88 0-36 16.12-36 36v504c0 19.88 16.12 36 36 36h504c19.88 0 36-16.12 36-36V180c0-19.88-16.12-36-36-36M265.72 336c-3.33 5.77-9.38 9-15.61 9-3.05 0-6.15-.78-8.98-2.41-8.61-4.97-11.56-15.98-6.59-24.59 3.33-5.77 9.38-9 15.61-9 3.05 0 6.15.78 8.98 2.41 8.61 4.97 11.56 15.98 6.59 24.59m-6.59 216.59a17.86 17.86 0 0 1-8.98 2.41c-6.22 0-12.27-3.23-15.61-9-4.97-8.61-2.02-19.62 6.59-24.59 2.83-1.64 5.93-2.41 8.98-2.41 6.22 0 12.27 3.23 15.61 9 4.97 8.61 2.02 19.62-6.59 24.59M240 432c0 9.94-8.06 18-18 18s-18-8.06-18-18 8.06-18 18-18 18 8.06 18 18m71.41 172.87c3.33-5.77 9.38-9 15.61-9 3.05 0 6.15.78 8.98 2.41 8.61 4.97 11.56 15.98 6.59 24.59-3.33 5.77-9.38 9-15.61 9-3.05 0-6.15-.78-8.98-2.41-8.61-4.97-11.56-15.98-6.59-24.59M318 234.55c2.83-1.64 5.93-2.41 8.98-2.41 6.22 0 12.27 3.23 15.61 9 4.97 8.61 2.02 19.62-6.59 24.59a17.86 17.86 0 0 1-8.98 2.41c-6.22 0-12.27-3.23-15.61-9-4.97-8.61-2.02-19.62 6.59-24.59M414 222c0-9.94 8.06-18 18-18s18 8.06 18 18c0 .51-.03 1-.08 1.5.04.5.08.99.08 1.5v202.18l69.59 120.53c4.97 8.61 2.02 19.62-6.59 24.59a17.86 17.86 0 0 1-8.98 2.41c-6.22 0-12.27-3.23-15.6-9l-72-124.71c-.03-.06-.05-.11-.09-.17q-.285-.51-.54-1.05c-.09-.19-.19-.37-.27-.56-.15-.33-.27-.67-.4-1.01-.08-.23-.17-.45-.25-.68-.09-.29-.17-.58-.24-.88-.08-.29-.16-.58-.22-.88-.05-.24-.08-.48-.12-.72-.06-.36-.12-.71-.16-1.07-.02-.21-.03-.42-.05-.63-.03-.39-.06-.78-.06-1.17V224.99c0-.51.03-1 .08-1.5-.04-.5-.08-.99-.08-1.5Zm138.59 37.13c-3.33 5.77-9.38 9-15.61 9-3.05 0-6.15-.78-8.98-2.41-8.61-4.97-11.56-15.98-6.59-24.59 3.33-5.77 9.38-9 15.61-9 3.05 0 6.15.78 8.98 2.41 8.61 4.97 11.56 15.98 6.59 24.59M546 629.45a17.86 17.86 0 0 1-8.98 2.41c-6.22 0-12.27-3.23-15.61-9-4.97-8.61-2.02-19.62 6.59-24.59 2.83-1.64 5.93-2.41 8.98-2.41 6.22 0 12.27 3.23 15.61 9 4.97 8.61 2.02 19.62-6.59 24.59M432 624c9.94 0 18 8.06 18 18s-8.06 18-18 18-18-8.06-18-18 8.06-18 18-18m166.28-96c3.33-5.77 9.38-9 15.61-9 3.05 0 6.15.78 8.98 2.41 8.61 4.97 11.56 15.98 6.59 24.59-3.33 5.77-9.38 9-15.61 9-3.05 0-6.15-.78-8.98-2.41-8.61-4.97-11.56-15.98-6.59-24.59m6.59-216.59c2.83-1.64 5.93-2.41 8.98-2.41 6.22 0 12.27 3.23 15.61 9 4.97 8.61 2.02 19.62-6.59 24.59a17.86 17.86 0 0 1-8.98 2.41c-6.22 0-12.27-3.23-15.61-9-4.97-8.61-2.02-19.62 6.59-24.59M642 450c-9.94 0-18-8.06-18-18s8.06-18 18-18 18 8.06 18 18-8.06 18-18 18"/></svg>