<svg xmlns="http://www.w3.org/2000/svg" viewBox="0 0 864 864"><path d="M684 144H180c-19.88 0-36 16.12-36 36v504c0 19.88 16.12 36 36 36h504c19.88 0 36-16.12 36-36V180c0-19.88-16.12-36-36-36M265.72 336c-3.33 5.77-9.38 9-15.61 9-3.05 0-6.15-.78-8.98-2.41-8.61-4.97-11.56-15.98-6.59-24.59 3.33-5.77 9.38-9 15.61-9 3.05 0 6.15.78 8.98 2.41 8.61 4.97 11.56 15.98 6.59 24.59m-6.59 216.59a17.86 17.86 0 0 1-8.98 2.41c-6.22 0-12.27-3.23-15.61-9-4.97-8.61-2.02-19.62 6.59-24.59 2.83-1.64 5.93-2.41 8.98-2.41 6.22 0 12.27 3.23 15.6 9 4.97 8.61 2.02 19.62-6.59 24.59ZM240 432c0 9.94-8.06 18-18 18s-18-8.06-18-18 8.06-18 18-18 18 8.06 18 18m71.41 172.87c3.33-5.77 9.38-9 15.61-9 3.05 0 6.15.78 8.98 2.41 8.61 4.97 11.56 15.98 6.59 24.59-3.33 5.77-9.38 9-15.61 9-3.05 0-6.15-.78-8.98-2.41-8.61-4.97-11.56-15.98-6.59-24.59M318 234.55c2.83-1.64 5.93-2.41 8.98-2.41 6.22 0 12.27 3.23 15.61 9 4.97 8.61 2.02 19.62-6.59 24.59a17.86 17.86 0 0 1-8.98 2.41c-6.22 0-12.27-3.23-15.61-9-4.97-8.61-2.02-19.62 6.59-24.59M414 639V432c0-.14.02-.28.02-.42 0-.36.02-.71.05-1.07.02-.29.06-.57.09-.85.04-.29.08-.57.13-.86.06-.35.14-.7.22-1.04.03-.14.05-.28.09-.42l37.27-139.09c2.57-9.6 12.44-15.3 22.05-12.73 9.6 2.57 15.3 12.44 12.73 22.05l-36.66 136.8V639c0 .51-.03 1-.08 1.5.04.5.08.99.08 1.5 0 9.94-8.06 18-18 18s-18-8.06-18-18c0-.51.03-1 .08-1.5-.04-.5-.08-.99-.08-1.5Zm0-417c0-9.94 8.06-18 18-18s18 8.06 18 18-8.06 18-18 18-18-8.06-18-18m114 376.28c2.83-1.64 5.93-2.41 8.98-2.41 6.22 0 12.27 3.23 15.61 9 4.97 8.61 2.02 19.62-6.59 24.59a17.86 17.86 0 0 1-8.98 2.41c-6.22 0-12.27-3.23-15.61-9-4.97-8.61-2.02-19.62 6.59-24.59m-6.59-357.15c3.33-5.77 9.38-9 15.61-9 3.05 0 6.15.78 8.98 2.41 8.61 4.97 11.56 15.98 6.59 24.59-3.33 5.77-9.38 9-15.61 9-3.05 0-6.15-.78-8.98-2.41-8.61-4.97-11.56-15.98-6.59-24.59M598.28 528c3.33-5.77 9.38-9 15.61-9 3.05 0 6.15.78 8.98 2.41 8.61 4.97 11.56 15.98 6.59 24.59-3.33 5.77-9.38 9-15.61 9-3.05 0-6.15-.78-8.98-2.41-8.61-4.97-11.56-15.98-6.59-24.59m6.59-216.59c2.83-1.64 5.93-2.41 8.98-2.41 6.22 0 12.27 3.23 15.61 9 4.97 8.61 2.02 19.62-6.59 24.59a17.86 17.86 0 0 1-8.98 2.41c-6.22 0-12.27-3.23-15.6-9-4.97-8.61-2.02-19.62 6.59-24.59ZM642 450c-9.94 0-18-8.06-18-18s8.06-18 18-18 18 8.06 18 18-8.06 18-18 18"/></svg>