<svg xmlns="http://www.w3.org/2000/svg" viewBox="0 0 864 864"><path d="M524.8 517.13c-8.7 0-15.76 7.05-15.76 15.74s7.06 15.74 15.76 15.74 15.75-7.05 15.75-15.74-7.06-15.74-15.75-15.74m11.22-141.18c-.99-1.3-2.52-2.11-4.2-2.11h-38.44c-2.78 0-5.05 2.27-5.05 5.04v35.03c0 2.87 2.27 5.07 5.05 5.07h63.1c4.12 0 6.5-4.62 4.2-7.99l-24.67-35.03ZM386.84 501.31h56.21L367.03 386.6zm-52.81-187.23c-8.03 0-14.46 6.5-14.46 14.46S326.01 343 334.03 343s14.43-6.5 14.43-14.46-6.47-14.46-14.43-14.46m-23.47 203.05c-8.72 0-15.75 7.05-15.75 15.74s7.03 15.74 15.75 15.74 15.74-7.05 15.74-15.74-7.04-15.74-15.74-15.74"/><path d="M684 144H180c-19.88 0-36 16.12-36 36v504c0 19.88 16.12 36 36 36h504c19.88 0 36-16.12 36-36V180c0-19.88-16.12-36-36-36M257.08 526.87c-2.78 0-5.08-2.32-5.08-5.09v-15.4c0-2.79 2.3-5.06 5.08-5.06h26.32a41.52 41.52 0 0 0-14.06 25.56h-12.27Zm53.48 37.51c-17.37 0-31.52-14.12-31.52-31.5s14.15-31.56 31.52-31.56 31.48 14.12 31.48 31.56-14.06 31.5-31.48 31.5m214.24 0c-17.45 0-31.53-14.12-31.53-31.5s14.08-31.56 31.53-31.56 31.49 14.12 31.49 31.56-14.13 31.5-31.49 31.5m87.2-42.6c0 2.77-2.25 5.09-5.05 5.09h-41.03c-2.93-20.13-20.2-35.71-41.11-35.71s-38.24 15.58-41.18 35.71H351.78c-1.53-10.21-6.63-19.19-14.09-25.56h28.63L341.3 356.5c-2.35.6-4.79.94-7.27.94-6.04 0-11.66-1.85-16.3-5.04v20.31c9.41 2.35 16.41 10.86 16.41 21.01 0 11.93-9.67 21.61-21.63 21.61s-21.56-9.68-21.56-21.61c0-2.87 2.3-5.19 5.18-5.19s5.18 2.32 5.18 5.19c0 6.16 5.02 11.23 11.2 11.23s11.2-5.06 11.2-11.23-5-11.22-11.2-11.22c-2.86 0-5.18-2.32-5.18-5.19v-37.64a29.1 29.1 0 0 1-2.19-11.12c0-15.95 12.93-28.92 28.9-28.92s28.89 12.92 28.89 28.92c0 4.07-.89 7.99-2.41 11.54l104.84 158.18V356.46c0-5.56 4.52-10.1 10.13-10.1h47.82c13.47 0 26.04 6.68 33.54 17.83l30.87 45.68c4.5 6.66 6.95 14.59 6.95 22.6v68.86h12.29c2.81 0 5.05 2.27 5.05 5.06v15.4Z"/></svg>