<svg xmlns="http://www.w3.org/2000/svg" viewBox="0 0 864 864"><path d="M406.41 373.63c0-6.22-5.16-11.11-11.32-11.11s-11.19 4.89-11.19 11.11 5.03 11.14 11.19 11.14 11.32-5.04 11.32-11.14m-21.74-50.15c-.53-1.39-1.81-2.43-3.3-2.43h-64.33c-1.58 0-2.79 1.04-3.25 2.43l-11.11 26.54h93.13zm96.05 50.18c0-6.25-5-11.17-11.25-11.17s-11.13 4.89-11.13 11.17 5.03 11.11 11.13 11.16c6.25 0 11.25-5.09 11.25-11.16"/><path d="M684 144H180c-19.88 0-36 16.12-36 36v504c0 19.88 16.12 36 36 36h504c19.88 0 36-16.12 36-36V180c0-19.88-16.12-36-36-36m-72 407.96c-7.82 0-15.4-1.75-22.16-4.69-6.87-3.26-14.69-5.27-22.84-5.27s-15.85 2.01-22.78 5.27c-6.81 2.94-14.33 4.69-22.22 4.69s-15.43-1.75-22.13-4.69c-6.93-3.26-14.72-5.27-22.87-5.27s-15.85 2.01-22.72 5.27c-6.87 2.94-14.36 4.69-22.24 4.69s-15.4-1.75-22.13-4.69c-6.96-3.26-14.68-5.27-22.87-5.27s-15.95 2.01-22.84 5.27c-6.75 2.94-14.3 4.69-22.16 4.69s-15.39-1.75-22.08-4.69c-7.03-3.26-14.84-5.27-22.9-5.27s-15.97 2.01-22.81 5.27c-6.75 2.94-14.32 4.69-22.16 4.69v-33.21c7.87 0 15.41-1.75 22.16-4.8 6.87-3.23 14.68-5.09 22.81-5.09s15.86 1.87 22.9 5.09c6.69 3.05 14.24 4.8 22.08 4.8s15.4-1.75 22.16-4.8c6.88-3.23 14.69-5.09 22.84-5.09s15.94 1.87 22.87 5.09c6.72 3.05 14.22 4.8 22.13 4.8s15.38-1.75 22.24-4.8c6.87-3.23 14.67-5.09 22.72-5.09s15.97 1.87 22.87 5.09c6.7 3.05 14.22 4.8 22.13 4.8s15.4-1.75 22.22-4.8c6.93-3.23 14.72-5.09 22.78-5.09s15.97 1.87 22.84 5.09c6.75 3.05 14.36 4.8 22.16 4.8zm0-99.57h-28.23l-24.17 28.85c-5.48.77-10.66 2.33-15.43 4.59-6.81 3.05-14.36 4.74-22.22 4.74s-15.43-1.69-22.13-4.74c-6.9-3.2-14.69-5.12-22.89-5.12s-15.82 1.93-22.72 5.12c-6.87 3.05-14.36 4.74-22.25 4.74s-15.4-1.69-22.13-4.74c-6.9-3.2-14.68-5.12-22.89-5.12s-15.88 1.93-22.84 5.12c-6.73 3.05-14.25 4.74-22.13 4.74s-15.37-1.69-22.08-4.74c-3.95-1.81-8.18-3.2-12.57-4.18l-24.82-28.87H252v-28.15h44.58c-3.73-1.86-6.38-5.62-6.38-10.04v-11.14h-11.28v-36.29c0-7.88 5.4-14.55 12.66-16.5l12.91-30.86c1.9-4.53 6.36-7.77 11.54-7.77h66.33c5.18 0 9.65 3.24 11.61 7.77l12.84 30.86c7.23 1.95 12.65 8.62 12.65 16.5v36.29h-11.31l.09 11.14c0 4.41-2.7 8.17-6.44 10.04h60.99c-3.76-1.86-6.31-5.62-6.31-10.04v-11.14h-11.31v-36.29c0-7.88 5.38-14.55 12.61-16.5l12.91-30.86c1.93-4.53 6.39-7.77 11.56-7.77h66.34c5.22 0 9.72 3.24 11.55 7.77l12.92 30.86c7.29 1.95 12.64 8.62 12.64 16.5v36.29h-11.25v11.14c0 4.41-2.63 8.17-6.4 10.04h43.92v27.76Z"/><path d="M314.44 373.66c0-6.25-5.1-11.17-11.19-11.17s-11.21 4.89-11.21 11.17 5.08 11.11 11.21 11.16c6.09 0 11.19-5.09 11.19-11.16m71.65 40.94v-11.14h-73.88l.09 11.14c0 4.41-2.63 8.17-6.45 10.04h86.6c-3.73-1.86-6.36-5.62-6.36-10.04m166.28 0v-11.14h-73.83v11.14c0 4.41-2.62 8.17-6.38 10.04h86.56c-3.73-1.86-6.35-5.62-6.35-10.04m20.23-40.97c0-6.22-5.09-11.11-11.2-11.11s-11.25 4.89-11.25 11.11 5.09 11.14 11.25 11.14 11.2-5.04 11.2-11.14m-21.73-50.15c-.45-1.39-1.72-2.43-3.23-2.43h-64.38c-1.48 0-2.78 1.04-3.22 2.43l-11.11 26.54h93.04l-11.11-26.54Z"/></svg>