<svg xmlns="http://www.w3.org/2000/svg" viewBox="0 0 864 864"><path d="M301.17 420.62h20.16v18.53h-20.16z"/><path d="M684 144H180c-19.88 0-36 16.12-36 36v504c0 19.88 16.12 36 36 36h504c19.88 0 36-16.12 36-36V180c0-19.88-16.12-36-36-36M477.54 323.87h45.92v29.79h-45.92zm0 36.42h97.96v29.79h-97.96zm0 36.41H605.1v53.1H477.54zm-52.52-46.91h45.92v53.1h-45.92zm45.89 59.71v53.1H343.37v-53.1zm-100.49-72.82h45.91v29.81h-45.91zm0 36.43h45.91v29.78h-45.91zM252 369.68h43.36v-17.97h-16.04v-7.25h16.04V307.7h6.2v36.76h16.02v7.22h-16.02v18h46.35l-15.38 12.38v80.54h-61.95v-80.54H252zM560.56 555.2c-19.85-15.68-36.97-12.69-48.59-6.52-10.37 5.48-22.74 5.54-33.14.11-15.68-8.18-29.14-5.25-38.8-.14-10.35 5.51-22.77 5.54-33.17.14-15.65-8.18-29.11-5.25-38.8-.14-10.34 5.51-22.77 5.51-33.14.11-22.94-11.98-41.15-.11-49.62 7.55-.16-1.16-27.16-67.43-27.16-67.43v-20.07h219.35v-.15l.06-12.25h134.44l-51.44 98.79Z"/><path d="M301.17 390.97h20.16v18.53h-20.16z"/></svg>