<svg xmlns="http://www.w3.org/2000/svg" viewBox="0 0 864 864"><path d="M445.23 259.06c-7.44-.78-20.43-.43-25.65-.03-37.79 73.79 10.15 233.42 10.15 293.22h4.97c0-59.1 42.98-219.05 10.53-293.2Z"/><path d="M684 144H180c-19.88 0-36 16.12-36 36v504c0 19.88 16.12 36 36 36h504c19.88 0 36-16.12 36-36V180c0-19.88-16.12-36-36-36M456.74 558.92h-.78l-7.58 29.87h2.58c1.03 0 1.92.86 1.92 1.91s-.89 1.93-1.92 1.93v15.6c0 2.09-1.7 3.77-3.81 3.77h-30.18c-2.1 0-3.81-1.69-3.81-3.77v-15.6c-1.03 0-1.89-.89-1.89-1.93s.86-1.91 1.89-1.91h2.55l-7.68-29.87h-.75c-29.2-48.11-119.52-98.15-119.52-188.09 0-83.12 72.09-118.83 144.23-118.83s144.23 35.71 144.23 118.83c0 89.94-90.29 139.98-119.49 188.09Z"/><path d="M435.24 588.79h6.48l7.56-29.87h-14.04zM476.3 263.5c54.63 85.58-18.53 217.96-32.51 288.76h4.59c15.66-73.87 144.33-174.13 46.21-283.45-6.1-1.98-8.64-2.98-18.28-5.31Zm-53.89 325.29h6.35v-29.87h-14.01zm-2.2-36.53c-13.98-70.79-87.11-203.18-32.51-288.76-9.61 2.33-12.19 3.33-18.27 5.31-98.14 109.31 30.56 209.58 46.22 283.45z"/></svg>