<svg xmlns="http://www.w3.org/2000/svg" viewBox="0 0 864 864"><path d="M532.1 465.88c-9.87 0-17.75 7.98-17.75 17.73s7.88 17.75 17.75 17.75 17.7-7.95 17.7-17.75-7.89-17.73-17.7-17.73"/><path d="M684 144H180c-19.88 0-36 16.12-36 36v504c0 19.88 16.12 36 36 36h504c19.88 0 36-16.12 36-36V180c0-19.88-16.12-36-36-36M328.22 524.62c-22.58-.05-40.91-18.35-40.91-40.99s18.33-40.96 40.91-40.96 40.92 18.35 40.92 40.96-18.27 40.99-40.92 40.99m203.88 0c-22.69-.05-40.99-18.35-40.99-40.99s18.3-40.96 40.99-40.96 40.9 18.35 40.9 40.96-18.38 40.99-40.9 40.99m79.9-52.98c0 5.9-4.78 10.69-10.71 10.69l-5.38-.02c-1.73-29.97-30.57-53.75-60.92-53.75s-59.16 23.81-60.93 53.7l-85.98-.03c-1.83-29.88-30.62-53.67-60.96-53.67s-59.06 23.69-60.97 53.67h-14.14v-87.97h98.87s36.6-2.27 54.63 34.69l52.13.05 22.85-38.71-30.19-50.9h17.78l30.17 50.9h82.77s14.63-1.67 14.63 14.74l.08 41.25 16.28.05v25.31Z"/><path d="M328.22 465.88c-9.76 0-17.73 7.98-17.73 17.73s8 17.75 17.73 17.75 17.81-7.95 17.81-17.75-7.97-17.73-17.81-17.73"/></svg>