<svg xmlns="http://www.w3.org/2000/svg" viewBox="0 0 864 864"><path d="M337.15 418.66c-23.38 0-42.39 18.5-43.32 41.62h21.7c.92-11.14 10.22-19.91 21.62-19.91 8.02 0 15.02 4.35 18.77 10.84h23.2c-4.79-18.7-21.78-32.55-41.97-32.55"/><path d="M684 144H180c-19.88 0-36 16.12-36 36v504c0 19.88 16.12 36 36 36h504c19.88 0 36-16.12 36-36V180c0-19.88-16.12-36-36-36M540.37 335.59h13.53v27.09h-13.53c-7.49 0-13.56-6.06-13.56-13.53s6.07-13.56 13.56-13.56M438.01 472.57h-36.69c-5.03 30.94-31.86 54.51-64.17 54.51s-59.22-23.65-64.21-54.63H258.1v-.03c-3.37 0-6.11-2.74-6.11-6.09s2.76-6.08 6.11-6.08c.25 0 .44 0 .67.03h13.39c.48-18.55 8.75-35.17 21.61-46.7v-19.61c0-4.65 5.02-9.47 9.8-9.38l98.6-.03 96.77-27c0-5.29-3.85-9.73-8.89-10.64h-33.73v-.03c-3.17 0-5.77-2.6-5.77-5.74s2.6-5.77 5.77-5.77c.16 0 .34.03.48.03h42.9v.11c9.19.29 16.96 6.33 19.8 14.65l31.5 92.06c10.04 1.92 17.61 10.7 17.61 21.29 0 11.99-9.7 21.69-21.68 21.69s-21.67-9.7-21.67-21.69c0-5.41 1.97-10.34 5.26-14.15l-25.32-74.04h-5.29c.9 2.67 1.37 5.48 1.37 8.43 0 14.96-12.12 27.08-27.11 27.08h-96.93c9.52 7.5 16.93 17.59 21.11 29.23h20.73a21.61 21.61 0 0 1 18.77-10.81c5.66 0 10.81 2.16 14.69 5.74l16.99-18.97c4.01-4.43 10.87-4.76 15.29-.72 4.43 3.99 4.79 10.87.76 15.29l-32.37 36.1c-3.87 3.77-9.38 5.86-15.21 5.89Zm108.93 56.04c-35.96 0-65.09-29.16-65.09-65.09 0-22.82 11.75-42.87 29.56-54.51l7.38 21.58c-9.28 7.94-15.21 19.75-15.21 32.93 0 23.92 19.41 43.36 43.36 43.36s43.34-19.44 43.34-43.36-18.44-42.31-41.51-43.29l-7.37-21.53c1.84-.16 3.65-.25 5.54-.25 35.93 0 65.06 29.13 65.06 65.07s-29.13 65.09-65.06 65.09"/><path d="M337.15 483.74c-8.19 0-15.33-4.54-19-11.29h-23.09c4.65 18.92 21.73 32.95 42.09 32.95s37.18-13.82 41.97-32.53h-23.2c-3.75 6.46-10.74 10.87-18.77 10.87"/></svg>