<svg xmlns="http://www.w3.org/2000/svg" viewBox="0 0 864 864"><path d="M684 144H180c-19.88 0-36 16.12-36 36v504c0 19.88 16.12 36 36 36h504c19.88 0 36-16.12 36-36V180c0-19.88-16.12-36-36-36M399.15 559.49c-34.38-11.48-60.81-40.45-68.57-76.41h-32.81v-44.12h32.81c7.8-35.98 34.22-65.01 68.66-76.46v19.51l19.7 21.58c-26.2 5.96-45.84 29.44-45.84 57.42s19.84 51.74 46.26 57.53l-20.21 20.25zm55.17 3.53V612h-44.11v-68.63l22.03-22.16c32.92 0 59.74-26.77 59.74-59.69s-26.82-59.72-59.74-59.72l-21.98-24.09-.03-49.48h-21.95l43.96-76.25 44.08 76.22H454.4v31.82c46.67 10.18 81.72 51.79 81.72 101.49s-35.1 91.34-81.81 101.49Zm111.91-79.92h-21.16c1.39-7.06 2.1-14.35 2.1-21.58 0-7.62-.76-15.18-2.26-22.57h21.33v44.15Z"/></svg>