<svg xmlns="http://www.w3.org/2000/svg" viewBox="0 0 864 864"><path d="M684 144H180c-19.88 0-36 16.12-36 36v504c0 19.88 16.12 36 36 36h504c19.88 0 36-16.12 36-36V180c0-19.88-16.12-36-36-36m-72 345.36v22.46l-1.98 1.33c-2.14 1.51-4.35 2.96-6.63 4.22l-1.03.66-.5.2c-4.61 2.48-9.54 4.46-14.72 5.96l-.56.23-.56.08c-4.99 1.37-10.23 2.17-15.62 2.45l-.56.06-.61-.06c-.77.03-1.56.06-2.31.06-4.65 0-9.17-.46-13.62-1.26l-.34-.03-.5-.14c-3.45-.7-6.83-1.61-10.11-2.81l-.34-.09-.36-.14a73.3 73.3 0 0 1-18.74-10.14l-.91-.58-1.29.86c-4.06 2.92-8.41 5.52-13.02 7.64l-.36.24-.36.06c-4.82 2.16-9.92 3.79-15.24 4.91l-.61.2-1.04.14c-3.01.5-6.08.86-9.21 1.03l-.98.11-.64-.06c-.76.03-1.52.06-2.28.06-4.68 0-9.2-.46-13.63-1.26l-.36-.03-.29-.14c-11.25-2.19-21.59-6.89-30.38-13.61l-.21-.15-1.66 1.03a76 76 0 0 1-12.39 7.3l-.64.39-.58.17a72.7 72.7 0 0 1-14.86 4.73l-.73.28-.86.03c-4.38.8-8.84 1.26-13.43 1.26-.67 0-1.34-.06-2.04-.06l-.56.06-.41-.06c-5.63-.23-11.1-1.08-16.36-2.54l-.06-.03-.03-.03c-9.23-2.45-17.7-6.69-25.11-12.35l-.27-.18-1.74 1.05c-3.72 2.73-7.66 5.05-11.83 7.05l-.87.53-.83.26a71.8 71.8 0 0 1-14.49 4.68l-.7.23-5.46.94h-1.37c-2.56.28-5.19.43-7.86.43-.47 0-.93 0-1.4-.03l-.5.03L252 458.67h65.96l7.47-15.19h29.56l8.53-15.1h-30.65l14.18-28.79h32.56l35.06-62.6h7.5l-4.93 15.54h12.35v10.63H413.9l-11.6 36.65 12.37 13.32h91.7l21.18-37.82h29.94v37.82h16.75l7.92 15.24H393.42l-4.85 15.1h201.54l7.92 15.19h13.99v30.69Z"/></svg>