<svg xmlns="http://www.w3.org/2000/svg" viewBox="0 0 864 864"><path d="M470.1 406.99c3.95-4.59 8.31-8.7 13.11-12.24 4.73-3.45 10.42-5.83 16.93-6.97h8.39c8.88 0 16.27 1.67 22.17 5.06 5.94 3.42 11.97 8.32 18.04 14.8h29.36V297.26H284.81v110.38H469.4l.69-.65Zm-18.69-10.61c-5.75 2.41-11.72 3.61-18.01 3.61s-12.66-1.2-18.38-3.61c-5.71-2.5-10.7-5.83-15.04-10.18-4.29-4.29-7.63-9.28-10.1-15.02-2.47-5.68-3.67-11.75-3.67-18.01s1.26-12.28 3.85-17.95c2.53-5.77 5.97-10.77 10.3-15.08 4.29-4.29 9.28-7.68 15.04-10.12 5.68-2.43 11.72-3.67 17.99-3.67s12.26 1.23 18.01 3.67c5.71 2.44 10.64 5.83 14.8 10.12 4.19 4.32 7.55 9.31 9.98 15.08 2.5 5.67 3.7 11.62 3.7 17.95s-1.2 12.34-3.7 18.01a47.9 47.9 0 0 1-9.98 15.02c-4.17 4.35-9.1 7.68-14.8 10.18Zm-102.6 100.79v-3.82h-11.54v36.33h11.54v-17.12c0-2.56 1.36-4.56 4.04-5.95s4.92-2.28 6.79-2.81v-11.87c-1.87 0-3.8.55-5.75 1.79-1.96 1.11-3.65 2.28-5.07 3.46Z"/><path d="M347.42 488.81c.69 0 1.04-.46 1.04-1.45v-1.76c0-5.34-1.48-9.65-4.55-12.89-2.99-3.21-7.32-4.9-12.92-4.9-6.06 0-10.82 2.22-14.32 6.63-.48.46-1.08 1.39-1.77 2.62-.66 1.29-1.02 2.03-1.02 2.28v13.29h-7v11.54h7v25.5h11.89v-25.5h8.39v-11.54h-7.69v-10.15c0-1.11.56-1.97 1.7-2.4 1.2-.52 2.14-.74 2.84-.74 1.65 0 2.85.5 3.67 1.45.82.86 1.33 2.01 1.57 3.27.23 1.27.42 2.41.54 3.3.09.99.29 1.45.51 1.45h10.15Z"/><path d="M684 144H180c-19.88 0-36 16.12-36 36v504c0 19.88 16.12 36 36 36h504c19.88 0 36-16.12 36-36V180c0-19.88-16.12-36-36-36M378.17 503.46v7c-1.9 9.31-6.18 17.36-12.91 24.09-6.77 6.78-14.94 11.2-24.46 13.32h-8.42c-6.77 0-12.92-1.17-18.52-3.55-5.58-2.31-10.47-5.55-14.68-9.78-4.19-4.17-7.45-9.13-9.79-14.83-2.33-5.74-3.5-11.91-3.5-18.69s1.23-12.58 3.7-18.23c2.42-5.52 5.7-10.45 9.75-14.59 4.11-4.23 8.94-7.56 14.52-9.99 5.6-2.5 11.54-3.67 17.83-3.67 7 0 13.35 1.17 19.07 3.67 5.68 2.44 10.55 5.77 14.68 9.99 4.04 4.13 7.2 9.13 9.41 14.8 2.17 5.71 3.32 11.81 3.32 18.35v2.1Zm142.43 69.08c-2.47 5.71-5.78 10.58-9.94 14.8-4.24 4.19-9.19 7.49-14.88 9.77-5.72 2.38-11.81 3.52-18.35 3.52s-12.57-1.23-18.19-3.67c-5.55-2.44-10.41-5.8-14.5-10.12-4.07-4.32-7.29-9.25-9.59-14.89-2.35-5.55-3.5-11.57-3.5-17.8 0-11.41 3.44-21.43 10.29-30.1 6.89-8.6 16.08-13.94 27.48-16.07h1.39c.91 0 1.87-.06 2.8-.15.93-.12 1.59-.22 2.08-.22h2.47c6.48 0 12.57 1.23 18.17 3.52 5.55 2.38 10.48 5.52 14.65 9.62 4.2 4.04 7.48 8.97 9.82 14.68 2.3 5.71 3.47 11.93 3.47 18.72s-1.23 12.61-3.65 18.38ZM612 442.33h-56.98c-2.78 11.13-8.2 20.2-16.27 27.2-8.05 7.03-17.87 10.55-29.56 10.55-5.55 0-10.89-.93-16.04-2.65-5.12-1.79-9.79-4.35-13.96-7.68-4.21-3.39-7.77-7.43-10.67-12.06-2.92-4.66-4.75-9.84-5.44-15.36H252V263.36h360z"/><path d="M452.45 351.26c-1.99-1.27-4.13-2.37-6.48-3.12-2.3-.86-4.67-1.48-6.97-1.97v-11.16c1.87 0 3.32.68 4.35 2.1 1.05 1.42 1.81 2.81 2.28 4.23h11.52c0-5.64-1.82-9.9-5.55-12.8-3.8-2.9-7.93-5.15-12.6-6.85v-7.31h-11.56v7.31c-4.64 1.42-8.86 3.55-12.72 6.32-3.86 2.81-5.78 7-5.78 12.62 0 7.22 3.59 12.03 10.83 14.65.45.22 1.8.52 4.02.87 2.24.34 3.35.86 3.35 1.57v11.87c-2.13 0-3.76-.95-4.94-2.96-1.17-1.97-1.99-3.64-2.43-5.06h-11.91c0 5.37 1.96 9.81 5.78 13.48 3.86 3.61 8.47 6.14 13.8 7.56v7.62H439v-7.62c4.67-.8 9.13-2.78 13.45-6.17 4.33-3.36 6.48-7.74 6.48-13.14 0-2.78-.63-5.15-1.77-7.15-1.2-1.95-2.71-3.61-4.7-4.87Zm-25.32-6.51c-1.17 0-2.41-.43-3.7-1.36-1.29-.95-1.93-2.06-1.93-3.48s.63-2.62 1.93-3.67c1.29-1.02 2.53-1.64 3.7-1.64zm17.11 24.18c-1.65.65-3.38 1.27-5.25 1.73v-11.22c.22 0 .5-.03.88-.16.31-.12.63-.15.88-.15 1.4 0 2.73.49 3.98 1.39 1.29.96 1.96 2.07 1.96 3.55 0 2.53-.85 4.1-2.45 4.87Zm60.43 44.26c1.65-.89 3.55-1.29 5.6-1.29 2.8 0 4.64.93 5.63 2.84.91 1.82 1.82 3.82 2.81 5.89h11.84c0-6.02-1.83-11.23-5.63-15.54-3.69-4.32-8.68-6.48-14.96-6.48-5.41 0-10.12 1.66-14.19 5.09-4.07 3.39-6.12 7.9-6.12 13.82v2.78c0 .25.12.89.37 1.94.23 1.02.35 1.67.35 1.88v1.76h-5.6v10.82h7.33c0 3.24-.06 5.89-.19 7.87-.09 1.94-1.45 4.38-4.01 7.18v10.52h41.97v-10.18h-26.91c0-2.53.57-5.06 1.7-7.53 1.2-2.47 1.9-5.03 2.13-7.87h8.02v-10.82h-10.84c-.43 0-.88-1.08-1.19-3.3-.39-2.19-.54-3.82-.54-4.72 0-2.31.79-3.89 2.42-4.66Zm-13.26 112.29-12.6 19.89-.66.37v.37c-.25 0-.51-.12-.73-.37l-11.9-20.26h-13.26l19.23 35.62h-14.65v11.2h15.73v15.73h11.87V572.3h13.96v-11.2h-14.31l19.89-35.62z"/></svg>