<svg xmlns="http://www.w3.org/2000/svg" viewBox="0 0 864 864"><path d="M482.18 363.33c0-15.57-12.94-28.42-28.45-28.42s-29.17 12.84-29.17 28.42 12.95 29.13 29.17 29.13 28.45-12.91 28.45-29.13"/><path d="M684 144H180c-19.88 0-36 16.12-36 36v504c0 19.88 16.12 36 36 36h504c19.88 0 36-16.12 36-36V180c0-19.88-16.12-36-36-36M539.8 568.62c11.66 0 21.42 9.65 21.42 21.3s-9.76 22.07-21.42 22.07H327.41c-10.98 0-21.32-10.34-21.32-22.07s10.34-21.3 21.32-21.3h82.92V442.37L252.32 252h359.39L453.75 442.37v126.25h86.07Z"/></svg>