<svg xmlns="http://www.w3.org/2000/svg" viewBox="0 0 864 864"><path d="M275.96 538.51h312.11l-155.8-107.8z"/><path d="M684 144H180c-19.88 0-36 16.12-36 36v504c0 19.88 16.12 36 36 36h504c19.88 0 36-16.12 36-36V180c0-19.88-16.12-36-36-36m-95.93 418.47h-312.1c-12.28 0-23.96-10.71-23.96-21.93 0-13.31 9.15-21.45 19.9-28.61l148.6-102.67v-22.93c0-20.5 31.18-22.53 31.18-42.43 0-14.85-13.28-19.96-19.42-19.96-14.3 0-19.96 13.82-19.96 19.96h-25.53c.54-10.74 8.23-42.38 45.49-42.38 21.94 0 44.95 15.82 44.95 42.38 0 34.18-33.73 34.18-33.73 54.11v11.25l148.64 102.67c10.74 7.16 19.87 14.3 19.87 28.61 0 11.22-11.16 21.93-23.93 21.93"/></svg>