<svg xmlns="http://www.w3.org/2000/svg" viewBox="0 0 864 864"><path d="M684 144H180c-19.88 0-36 16.12-36 36v504c0 19.88 16.12 36 36 36h504c19.88 0 36-16.12 36-36V180c0-19.88-16.12-36-36-36M519.73 269.56c5.48-5.54 12.13-8.3 19.91-8.3s14.44 2.76 19.98 8.3c5.51 5.51 8.3 12.31 8.3 20.33 0 7.51-2.79 14.11-8.3 19.77-5.54 5.64-12.17 8.46-19.98 8.46s-14.08-2.79-19.74-8.29c-5.63-5.52-8.49-12.15-8.49-19.94s2.77-14.82 8.31-20.33Zm-198.07 0c5.01-5.54 11.66-8.3 19.94-8.3s14.76 2.76 20.15 8.3c5.42 5.51 8.1 12.31 8.1 20.33 0 6.52-2 12.23-6.03 17.12-4.01 4.89-9.16 8.19-15.48 9.96h-6.33c-8.07 0-14.7-2.42-20.01-7.31-5.27-4.95-7.88-11.51-7.88-19.77s2.53-14.82 7.54-20.33m-36.54 83.16c.78-2.99 2.22-6.1 4.36-9.42 2.13-3.27 4.63-6.3 7.52-9.19 2.88-2.91 6.04-5.24 9.4-6.92 3.42-1.8 6.86-2.66 10.34-2.66h50.88q2.61 0 6.36 1.65c2.53 1.15 4.58 2.16 6.04 2.86 6.81 4.03 11.73 8.95 14.85 14.85 3.18 5.9 5.71 12.34 7.75 19.39 2.23-2.04 4.27-4.19 6.04-6.57 1.7-2.42 3.52-4.72 5.41-6.98 1.93-2.24 3.87-4.34 5.87-6.21q3-2.805 7.17-4.32c.49-.26 1.23-.6 2.23-1.15v-50.81h24.49v55.67h-14.31c0 1.24.11 2.47.42 3.62.2 1.15.32 2.27.32 3.54 0 1.54-.03 2.8-.14 3.82-.14.95-.86 2.13-2.1 3.37l-30.87 38.01c-3.03 3.01-6.27 4.53-9.81 4.53-2.47 0-4.78-.85-6.75-2.47-2.03-1.6-3.41-3.68-4.16-6.19l-8.24-25.63c-.53-1.74-1.21-2.47-2.1-2.23-.88.26-2.2.4-3.94.4v1.83l14.29 51.6h-87.35l13.55-50.77v-3.06h-4.92l-15.02 53.83h-24.84l17.29-64.39ZM612 456.28h-35.86l-1.05 1.15v132.88c0 2-1.32 4.42-4.01 7.15-2.62 2.75-5.04 4.16-7.31 4.16h-9.39c-.76 0-1.86-.42-3.21-1.12-1.41-.76-2.66-1.67-3.77-2.85-1.15-1.12-2.16-2.3-3.04-3.57-.89-1.27-1.29-2.22-1.29-3.03V456.64h-6.78v133.67l-2.66 5.29c-1.27 2.24-3.12 4.02-5.62 5.25-2.53 1.26-5.15 1.88-7.96 1.88-2.47 0-4.92-.47-7.31-1.54-2.39-.99-4.36-2.59-5.83-4.89-.53-.96-1.21-2.26-2.1-3.89-.85-1.62-1.33-2.56-1.33-2.89V456.26H251.99v-31.99h251.14V352.7l-49.33 58.38c-2.23 2.76-4.22 4.83-5.83 6.19-1.65 1.41-4.1 2.09-7.37 2.09-3.51 0-6.63-1.15-9.41-3.35-2.76-2.27-4.11-5.19-4.11-8.69 0-3.25.85-6.13 2.59-8.63l55.36-66.68c1.26-1.51 3.06-3.15 5.45-4.83 2.42-1.8 4.75-2.66 6.98-2.66h80.96c1.54 0 3.34.44 5.45 1.48 2.13 1.03 4.1 2.33 5.84 3.91a29.5 29.5 0 0 1 4.53 5.34c1.24 1.89 1.86 3.68 1.86 5.48v83.55h15.88v31.99Z"/></svg>