<svg xmlns="http://www.w3.org/2000/svg" viewBox="0 0 864 864"><path d="M684 144H180c-19.88 0-36 16.12-36 36v504c0 19.88 16.12 36 36 36h504c19.88 0 36-16.12 36-36V180c0-19.88-16.12-36-36-36M387.21 252c17.52 0 31.69 14.11 31.69 31.65s-14.17 31.69-31.69 31.69-31.72-14.32-31.72-31.69S369.72 252 387.21 252m20.36 360c-65.77 0-119.01-53.33-119.01-118.93 0-42.59 22.61-79.62 56.23-100.66l1.68 29.49c-20.07 17.28-32.96 42.69-32.96 71.2 0 51.94 42.12 94 94.06 94 45.23 0 82.63-32.13 91.54-74.61l16.81 28.89C497.32 582.82 455.94 612 407.57 612m159.05-54.7c-8.78 5.22-20.37 1.93-25.41-6.34l-41.91-72.72H396.73c-16.81.15-30.85-11.86-32.25-28.7l-5.54-96.09c-.83-16.84 11.94-31.41 28.86-32.37 16.84-.86 31.13 12.15 32.25 28.73l2.05 27.21h59.2c8.02.29 14.3 6.43 14.3 14.4s-6.46 13.97-14.3 14.47h-57.53l.73 23.92h79.18c6.05.15 11.89 3.35 15.32 8.95l53.92 93.25c4.98 9.13 2.4 20.01-6.31 25.28Z"/></svg>