<svg xmlns="http://www.w3.org/2000/svg" viewBox="0 0 864 864"><path d="M684 144H180c-19.88 0-36 16.12-36 36v504c0 19.88 16.12 36 36 36h504c19.88 0 36-16.12 36-36V180c0-19.88-16.12-36-36-36M581.38 372.44v.03l-8.5 39.66H365.41c-.95 6.52-1.46 13.15-1.46 19.85 0 8.13.73 16.11 2.09 23.88h197.51l-8.5 39.66H379.36c23.13 45 69.98 75.86 123.95 75.86 34.33 0 65.67-12.54 90.01-33.21v49.63c-26.53 15.36-57.25 24.2-90.01 24.2-76.88 0-142.68-48.5-168.4-116.48h-70.86l8.47-39.66h52.43c-1.05-7.84-1.64-15.75-1.64-23.88 0-6.7.39-13.32 1.09-19.85h-61.42l8.73-39.7h61.77c24.64-70.06 91.45-120.44 169.83-120.44 36.01 0 69.54 10.65 97.7 28.94l-9.3 43.44c-24.09-19.81-54.87-31.72-88.4-31.72-55.54 0-103.6 32.64-125.93 79.79z"/></svg>