<svg xmlns="http://www.w3.org/2000/svg" viewBox="0 0 864 864"><path d="M370.75 267.64c-8.3 0-14.59 6.22-14.59 14.09 0 8.3 6.28 14.58 14.59 14.58 7.83 0 14.58-6.27 14.58-14.58 0-7.86-6.74-14.09-14.58-14.09"/><path d="M684 144H180c-19.88 0-36 16.12-36 36v504c0 19.88 16.12 36 36 36h504c19.88 0 36-16.12 36-36V180c0-19.88-16.12-36-36-36M564.57 345.77l-104.22-14.59v-11.45h-46.38v17.2c26.08 0 46.38 22.88 46.38 48.94v226.12H330.14V385.87c0-26.07 20.31-48.94 46.39-48.94v-17.2c-22.45 0-49.04 14.06-57.9 37.5l-19.2-13.02c9.85-21.86 29.13-36.47 47.35-43.23-3.64-5.72-6.22-11.98-6.22-19.25 0-16.14 14-29.72 30.19-29.72 15.14 0 28.13 11.96 30.23 27.08h13v17.21h46.38v-11.51l104.22-14.58v75.56Z"/></svg>