<svg xmlns="http://www.w3.org/2000/svg" viewBox="0 0 864 864"><path d="M684 144H180c-19.88 0-36 16.12-36 36v504c0 19.88 16.12 36 36 36h504c19.88 0 36-16.12 36-36V180c0-19.88-16.12-36-36-36M362.85 573.62l-28.75 28.73-.59-48.88L274.95 612l-22.3-22.27 58.68-58.65-48.47.06 28.78-28.73h71.21zm5.06-211.54-71.33-.03L268 333.46l48.88-.59-58.62-58.56 22.25-22.3 58.76 58.7.06-48.58 28.61 28.61-.03 71.35Zm109.67 110.58c-23.66 23.43-61.74 23.16-85.11-.65-23.35-23.51-23.3-61.74.54-85.19 23.6-23.22 61.81-22.99 85.22.81 23.22 23.55 23.13 61.71-.65 85.02Zm21.17-177.37 28.73-28.81-.18 48.61 58.7-58.67 22.26 22.27-58.56 58.56 49 .5-28.73 28.72h-71.24l.03-71.18Zm90.29 309.78-58.53-58.56-.53 48.91-28.64-28.64v-71.3l71.33-.03 28.64 28.67-48.53.06 58.56 58.62z"/></svg>