<svg xmlns="http://www.w3.org/2000/svg" viewBox="0 0 864 864"><path d="M684 144H180c-19.88 0-36 16.12-36 36v504c0 19.88 16.12 36 36 36h504c19.88 0 36-16.12 36-36V180c0-19.88-16.12-36-36-36M432.13 252c16.08 0 29.25 13.21 29.25 29.35s-13.17 29.36-29.25 29.36-29.36-13.03-29.36-29.36S415.97 252 432.13 252m76.62 193.21c0 17.65-23.07 17.65-23.07 0v-87.79h-13.52l-.36 238.16c0 8.98-7.24 16.43-16.29 16.43s-16.5-7.45-16.5-16.43V457.32H425.2v138.26c0 8.98-7.33 16.43-16.5 16.43s-16.43-7.45-16.43-16.43l.17-238.16h-14.05v87.79c0 17.53-23.15 17.53-23.15 0V355c0-21.12 16.68-38.17 37.55-38.17l77.89.17c22.8 0 38.06 19.02 38.06 38.44v89.78Z"/></svg>