<svg xmlns="http://www.w3.org/2000/svg" viewBox="0 0 864 864"><path d="M567.55 341.3h-49.91c-10.16 0-16.11.8-22.13 6.79L349.76 493.84c-5.41 5.41-11.62 8.07-21.08 8.07h-32.44c-10.54 0-20.74 7.57-20.74 21.08s10.7 23.77 22.82 23.77h47.31c9.47 0 16.78-2.29 22.59-8.1l143.34-143.34c7.33-7.36 12.97-9.1 25.65-9.1h30.04c14.83 0 20.64-15.15 20.64-23.23s-8.15-21.69-20.34-21.69"/><path d="M684 144H180c-19.88 0-36 16.12-36 36v504c0 19.88 16.12 36 36 36h504c19.88 0 36-16.12 36-36V180c0-19.88-16.12-36-36-36M404.32 291.86c13.16 0 23.83 10.61 23.83 23.8s-10.67 23.87-23.83 23.87-23.86-10.67-23.86-23.87 10.67-23.8 23.86-23.8m139.76 253.6c-.03 14.25-21.31 13.74-21.24 0v-25.31l-47.85 47.98c-11.47 11.44-26.72-4.16-15.93-14.93l48.56-48.55h-25.5c-14.28 0-13.74-21.15 0-21.15h49.84c7.18 0 12.11 5 12.11 12.39v49.56Zm27.07-135.32h-35.16c-5.2 0-6.89.82-9.93 3.49L383.8 555.5c-11.49 10.82-25.39 15.21-36.83 15.21h-48.65c-29.83 0-46.32-26.42-46.32-47.34s16.49-45.58 43.91-45.58h27.26c8.29 0 8.8-.16 13.03-4.36l44.57-44.65h-.03v-61.34c0-31.65 47.21-32.06 47.21 0v15.05l51.32-51.31c8.8-8.75 23.57-13.49 35.01-13.49h55.45c18.13.06 42.27 18.29 42.27 45.62s-23.93 46.83-40.85 46.83"/></svg>