<svg xmlns="http://www.w3.org/2000/svg" viewBox="0 0 864 864"><path d="M387.29 498.52h89.48v-79.28h-89.48zm69.95-40.97c-.78-.94-1.89-1.39-3.34-1.39-1.97 0-3.35.74-4.05 2.22-.41.85-.67 2.22-.75 4.09h-6.31c.08-2.84.61-5.11 1.51-6.84 1.75-3.33 4.83-4.95 9.27-4.95 3.52 0 6.32.97 8.38 2.9 2.07 1.96 3.11 4.49 3.11 7.7 0 2.47-.75 4.66-2.2 6.53-.97 1.28-2.54 2.7-4.74 4.26l-2.59 1.85c-1.63 1.16-2.77 1.99-3.35 2.53-.61.51-1.14 1.13-1.55 1.82h14.49v5.74h-22.71c.06-2.39.58-4.58 1.54-6.54.94-2.21 3.12-4.57 6.57-7.02 3.03-2.16 4.97-3.69 5.85-4.63 1.36-1.45 2.03-3.01 2.03-4.74 0-1.42-.37-2.59-1.16-3.52Zm-53.25-22.89c3.2-3.3 7.81-4.95 13.86-4.95s10.68 1.65 13.85 4.95c4.3 3.89 6.43 9.71 6.43 17.47s-2.13 13.44-6.43 17.44c-3.17 3.32-7.8 4.97-13.85 4.97s-10.67-1.65-13.86-4.97c-4.32-4.01-6.43-9.83-6.43-17.44s2.12-13.58 6.43-17.47"/><path d="M684 144H180c-19.88 0-36 16.12-36 36v504c0 19.88 16.12 36 36 36h504c19.88 0 36-16.12 36-36V180c0-19.88-16.12-36-36-36M491.37 552.63c0 32.78-26.59 59.37-59.37 59.37s-59.37-26.59-59.37-59.37v-164.5c0-24.2 13.52-45.03 33.65-54.77 5.3-2.56 8.68-8.32 8.68-14.63v-20.08h-7.4v9.94h-12.94v-32.95h12.94v9.94h7.4v-16.56c0-9.4 7.61-17.01 17.04-17.01 8.11 0 14.91 5.71 16.6 13.38 15.3 0 28.17 12.39 28.17 27.73s-12.37 27.64-27.64 27.7c.67 5.48 3.83 10.28 8.55 12.55 20.1 9.74 33.69 30.57 33.69 54.77v164.5Z"/><path d="M449.02 306.68c7.5 0 13.58-6.11 13.58-13.58s-6.08-13.61-13.58-13.61-13.59 6.08-13.59 13.61 6.08 13.58 13.59 13.58m9.07-20.99-12.98 18.86-8.08-9.91zm-40.24 181.35c3.49 0 6.29-1.31 8.35-3.89 2.07-2.59 3.08-6.25 3.08-11.02s-1.01-8.44-3.08-11.02c-2.06-2.55-4.86-3.86-8.35-3.86s-6.31 1.28-8.41 3.86c-2.09 2.56-3.11 6.25-3.11 11.02s1.02 8.44 3.11 11.02c2.1 2.58 4.9 3.89 8.41 3.89"/></svg>