<svg xmlns="http://www.w3.org/2000/svg" viewBox="0 0 864 864"><path d="M236.85 595.8c1.56 0 2.88-.54 3.98-1.64s1.64-2.41 1.64-3.98V456.33c0-1.56.77-2.34 2.34-2.34h119.34q2.34 0 2.34 2.34v133.85c0 1.56.54 2.89 1.64 3.98 1.09 1.1 2.41 1.64 3.98 1.64h43.06c1.56 0 2.88-.54 3.98-1.64s1.64-2.41 1.64-3.98V273.81c0-1.56-.55-2.88-1.64-3.98-1.1-1.09-2.42-1.64-3.98-1.64h-43.06c-1.56 0-2.89.55-3.98 1.64s-1.64 2.42-1.64 3.98v131.04q0 2.34-2.34 2.34H244.81c-1.56 0-2.34-.77-2.34-2.34V273.81c0-1.56-.55-2.88-1.64-3.98-1.1-1.09-2.42-1.64-3.98-1.64h-43.06c-1.57 0-2.89.55-3.98 1.64s-1.64 2.42-1.64 3.98v316.37c0 1.56.54 2.89 1.64 3.98 1.09 1.1 2.41 1.64 3.98 1.64zM682.38 549H549c-.94 0-1.48-.31-1.64-.94-.16-.62.07-1.24.7-1.87l17.78-19.66c34.32-37.44 58.97-65.52 73.94-84.24 27.14-33.38 40.72-62.87 40.72-88.45 0-16.85-4.21-32.06-12.64-45.63-8.42-13.57-20.44-24.26-36.04-32.06-15.6-7.79-33.86-11.7-54.76-11.7-19.03 0-36.27 3.44-51.71 10.3-15.44 6.87-27.69 16.54-36.74 29.02s-13.89 27.14-14.51 43.99v20.12c0 1.56.54 2.89 1.64 3.98 1.09 1.1 2.41 1.64 3.98 1.64h43.52c1.56 0 2.88-.54 3.98-1.64 1.09-1.09 1.64-2.41 1.64-3.98v-12.17c0-13.41 4.45-24.18 13.34-32.29s20.51-12.17 34.87-12.17 26.05 4.06 35.1 12.17c9.05 8.12 13.57 18.57 13.57 31.36 0 17.16-14.35 42.43-43.06 75.82l-22 25.74c-31.2 36.82-58.66 67.86-82.37 93.13-1.87 1.87-2.81 4.21-2.81 7.02v33.7c0 1.56.54 2.89 1.64 3.98 1.09 1.1 2.41 1.64 3.98 1.64h201.24c1.56 0 2.88-.54 3.98-1.64 1.09-1.09 1.64-2.41 1.64-3.98v-35.57c0-1.56-.55-2.88-1.64-3.98-1.1-1.09-2.42-1.64-3.98-1.64Z"/></svg>