<svg xmlns="http://www.w3.org/2000/svg" viewBox="0 0 864 864"><path d="M420.07 268.2h-43.06c-1.56 0-2.89.55-3.98 1.64-1.1 1.1-1.64 2.42-1.64 3.98v131.04q0 2.34-2.34 2.34H249.71c-1.57 0-2.34-.77-2.34-2.34V273.82c0-1.56-.55-2.88-1.64-3.98-1.1-1.09-2.42-1.64-3.98-1.64h-43.06c-1.57 0-2.89.55-3.98 1.64s-1.64 2.42-1.64 3.98v316.37c0 1.56.54 2.89 1.64 3.98 1.09 1.1 2.41 1.64 3.98 1.64h43.06c1.56 0 2.88-.54 3.98-1.64 1.09-1.09 1.64-2.41 1.64-3.98V456.34c0-1.56.77-2.34 2.34-2.34h119.34q2.34 0 2.34 2.34v133.85c0 1.56.54 2.89 1.64 3.98 1.09 1.1 2.41 1.64 3.98 1.64h43.06c1.56 0 2.88-.54 3.98-1.64 1.09-1.09 1.64-2.41 1.64-3.98V273.82c0-1.56-.55-2.88-1.64-3.98-1.1-1.09-2.42-1.64-3.98-1.64m260.67 180.65c-5.93-19.34-16.93-34.55-32.99-45.63-16.07-11.07-35.03-16.61-56.86-16.61-20.59 0-38.22 5.46-52.88 16.38-.63.63-1.25.86-1.87.7-.63-.15-.94-.86-.94-2.11l.47-84.24q0-2.34 2.34-2.34h131.04c1.56 0 2.88-.54 3.98-1.64 1.09-1.09 1.64-2.41 1.64-3.98v-35.57c0-1.56-.55-2.88-1.64-3.98-1.1-1.09-2.42-1.64-3.98-1.64H487c-1.56 0-2.89.55-3.98 1.64-1.1 1.1-1.64 2.42-1.64 3.98v185.33c0 1.56.54 2.89 1.64 3.98 1.09 1.1 2.41 1.64 3.98 1.64h45.4c3.12 0 5.3-1.56 6.55-4.68 2.49-7.79 8.03-14.11 16.61-18.95 8.58-4.83 18.17-7.25 28.78-7.25 11.23 0 20.75 2.73 28.55 8.19 7.79 5.46 12.79 13.34 14.98 23.63a97 97 0 0 1 3.74 26.68c0 9.67-1.4 18.25-4.21 25.74-3.12 10.61-8.58 18.95-16.38 25.04-7.8 6.08-17.16 9.13-28.08 9.13s-19.66-2.81-27.14-8.42c-7.49-5.62-12.95-13.57-16.38-23.87-1.25-3.74-2.03-6.55-2.34-8.42-.94-3.43-2.97-5.15-6.08-5.15h-44.46c-3.74 0-5.62 1.72-5.62 5.15v.94c1.56 8.74 3.58 16.54 6.08 23.4 6.86 19.35 18.87 34.71 36.04 46.1 17.16 11.39 37.28 17.08 60.37 17.08s43.83-5.85 61.31-17.55c17.47-11.7 29.48-27.53 36.04-47.5 4.05-13.1 6.08-26.98 6.08-41.65s-2.03-29.48-6.08-43.52Z"/></svg>