<svg xmlns="http://www.w3.org/2000/svg" viewBox="0 0 864 864"><path d="M224.21 595.8c3.12 0 5.15-1.56 6.08-4.68l15.44-50.08c.62-1.24 1.4-1.87 2.34-1.87h123.55c.94 0 1.71.63 2.34 1.87l15.44 50.08c.94 3.12 2.96 4.68 6.08 4.68h46.8c3.43 0 5.15-1.4 5.15-4.21 0-.94-.16-1.71-.47-2.34L344.94 272.88c-.94-3.12-2.97-4.68-6.08-4.68h-58.5c-3.12 0-5.15 1.56-6.08 4.68L172.72 589.25c-.63 2.19-.47 3.82.47 4.91.94 1.1 2.34 1.64 4.21 1.64h46.8Zm36.04-102.02L307.99 337c.31-1.24.78-1.87 1.4-1.87s1.09.63 1.4 1.87l48.2 156.78c.62 1.87 0 2.81-1.87 2.81h-95c-1.57 0-2.19-.94-1.87-2.81m363.63-42.12H573.8c-30.89 0-54.84 6.79-71.84 20.36-17.01 13.57-25.51 32.53-25.51 56.86s7.56 41.03 22.7 52.88c15.13 11.86 34.4 17.78 57.8 17.78 29.02 0 51.17-8.42 66.46-25.27.62-.62 1.24-.86 1.87-.7.62.16.94.7.94 1.64v14.98c0 1.56.54 2.89 1.64 3.98 1.09 1.1 2.41 1.64 3.98 1.64h43.06c1.56 0 2.88-.54 3.98-1.64 1.09-1.09 1.64-2.41 1.64-3.98V432.47c0-15.28-4.06-28.94-12.17-40.95-8.12-12.01-19.66-21.45-34.63-28.31-14.98-6.86-32.29-10.3-51.95-10.3-27.14 0-49.69 6.08-67.63 18.25s-28.16 27.77-30.65 46.8c-.31 1.25.07 2.27 1.17 3.04 1.09.78 2.41 1.33 3.98 1.64l45.4 5.62c3.43.63 5.62-.94 6.55-4.68 1.87-7.49 6.47-13.34 13.81-17.55 7.33-4.21 16.92-6.32 28.78-6.32 14.35 0 25.11 3.36 32.29 10.06 7.17 6.71 10.76 16.15 10.76 28.31v11.23q0 2.34-2.34 2.34Zm2.34 61.77c0 12.48-5.46 22.78-16.38 30.89-10.92 8.12-24.03 12.17-39.31 12.17-11.55 0-20.99-2.73-28.31-8.19-7.33-5.46-11-13.18-11-23.17 0-11.54 4.75-20.43 14.27-26.68 9.51-6.24 22.54-9.36 39.08-9.36h39.31q2.34 0 2.34 2.34z"/></svg>