<svg xmlns="http://www.w3.org/2000/svg" viewBox="0 0 864 864"><path d="M217.01 497.95h76.03c.58 0 1.05.39 1.44 1.15l9.5 30.82c.58 1.92 1.82 2.88 3.74 2.88h28.8c2.11 0 3.17-.86 3.17-2.59 0-.58-.1-1.05-.29-1.44l-62.78-194.69c-.58-1.92-1.83-2.88-3.74-2.88h-36c-1.92 0-3.17.96-3.74 2.88l-62.5 194.69c-.39 1.35-.29 2.35.29 3.02s1.44 1.01 2.59 1.01h28.8c1.92 0 3.17-.96 3.74-2.88l9.5-30.82c.38-.77.86-1.15 1.44-1.15Zm7.49-27.93 29.38-96.48c.19-.76.48-1.15.86-1.15s.67.39.86 1.15l29.66 96.48c.38 1.15 0 1.73-1.15 1.73h-58.46c-.96 0-1.35-.58-1.15-1.73m257.47-42.34c17.66-7.87 26.5-21.89 26.5-42.05 0-18.24-5.67-31.87-16.99-40.9-11.33-9.02-27.46-13.54-48.38-13.54h-70.27c-.96 0-1.78.34-2.45 1.01-.68.67-1.01 1.49-1.01 2.45v194.69c0 .96.33 1.78 1.01 2.45.67.67 1.48 1.01 2.45 1.01h72.58c19.58 0 35.47-4.75 47.66-14.26 12.19-9.5 18.29-23.37 18.29-41.62 0-22.46-9.79-38.3-29.38-47.52-1.15-.58-1.15-1.15 0-1.73Zm-79.2-66.24q0-1.44 1.44-1.44h38.88c10.17 0 18.19 2.55 24.05 7.63 5.85 5.09 8.78 12.05 8.78 20.88s-2.93 15.41-8.78 20.3c-5.86 4.9-13.87 7.34-24.05 7.34h-38.88q-1.44 0-1.44-1.44v-53.28Zm66.38 134.21c-5.86 5.38-13.78 8.06-23.76 8.06h-41.18q-1.44 0-1.44-1.44v-57.02q0-1.44 1.44-1.44h40.61c10.17 0 18.24 2.64 24.19 7.92s8.93 12.63 8.93 22.03-2.93 16.52-8.78 21.89Zm118.23-127.59c7.1-6.91 16.51-10.37 28.22-10.37s21.07 3.46 28.08 10.37 10.51 16.03 10.51 27.36c0 2.11 1.15 3.17 3.46 3.17l26.5-1.44c.96 0 1.77-.33 2.45-1.01.67-.67 1.01-1.49 1.01-2.45 0-12.86-2.98-24.19-8.93-33.98s-14.4-17.37-25.34-22.75c-10.94-5.37-23.52-8.06-37.73-8.06s-27.07 2.79-38.02 8.35c-10.94 5.57-19.4 13.44-25.34 23.62-5.95 10.18-8.93 21.99-8.93 35.42v71.14c0 13.44 2.97 25.25 8.93 35.42 5.95 10.18 14.4 18.1 25.34 23.76 10.94 5.67 23.62 8.5 38.02 8.5s26.78-2.69 37.73-8.06c10.94-5.37 19.39-13.01 25.34-22.9s8.93-21.36 8.93-34.42c0-.77-.34-1.44-1.01-2.02-.68-.58-1.49-.86-2.45-.86l-26.5-1.15c-2.3 0-3.46 1.06-3.46 3.17 0 11.33-3.51 20.4-10.51 27.22-7.01 6.82-16.37 10.22-28.08 10.22s-21.12-3.46-28.22-10.37c-7.11-6.91-10.66-15.93-10.66-27.07v-73.44c0-11.33 3.55-20.45 10.66-27.36Z"/></svg>