<svg xmlns="http://www.w3.org/2000/svg" viewBox="0 0 864 864"><path d="M366.52 282h130.96v46.43H366.52zm0 279.24 56.32-66.56c2.28-2.69 5.63-4.25 9.16-4.25s6.88 1.55 9.16 4.25l56.32 66.56V352.43H366.52z"/><path d="M432 144c-159.06 0-288 128.94-288 288s128.94 288 288 288 288-128.94 288-288-128.94-288-288-288m89.48 196.43V594a11.992 11.992 0 0 1-21.15 7.75l-68.32-80.74-68.32 80.74a12.01 12.01 0 0 1-13.29 3.52 11.99 11.99 0 0 1-7.87-11.27V270c0-6.63 5.37-12 12-12h154.96c6.63 0 12 5.37 12 12v70.43Z"/></svg>