<svg xmlns="http://www.w3.org/2000/svg" viewBox="0 0 864 864"><path d="M432 144c-159.06 0-288 128.94-288 288s128.94 288 288 288 288-128.94 288-288-128.94-288-288-288m252 288c0 34.04-6.66 67.03-19.79 98.08-12.69 30-30.87 56.96-54.02 80.11-23.15 23.16-50.11 41.33-80.11 54.02C499.04 677.34 466.04 684 432 684s-67.03-6.66-98.08-19.79c-30-12.69-56.96-30.87-80.11-54.02s-41.33-50.11-54.02-80.11C186.66 499.04 180 466.04 180 432s6.66-67.03 19.79-98.08c12.69-30 30.87-56.96 54.02-80.11 23.15-23.16 50.11-41.33 80.11-54.02C364.96 186.66 397.96 180 432 180s67.03 6.66 98.08 19.79c30 12.69 56.96 30.87 80.11 54.02s41.33 50.11 54.02 80.11C677.34 364.96 684 397.96 684 432"/><path d="M366.26 432c0 36.31 29.43 65.74 65.74 65.74s65.74-29.43 65.74-65.74-29.43-65.74-65.74-65.74-65.74 29.43-65.74 65.74M432 390.26c23.02 0 41.74 18.72 41.74 41.74s-18.72 41.74-41.74 41.74-41.74-18.72-41.74-41.74 18.72-41.74 41.74-41.74"/><path d="M432.09 338.61h-.83c-44.97 0-94.63 27.78-151.75 84.91-4.69 4.69-4.69 12.28 0 16.97 38.5 38.5 96.19 84.48 152.39 84.91h.83c44.97 0 94.63-27.78 151.75-84.91 4.69-4.69 4.69-12.28 0-16.97-38.5-38.5-96.19-84.48-152.39-84.91m0 162.78c-25.32-.19-67.52-12.65-126.94-69.4 48.62-46.66 89.95-69.38 126.1-69.38h.65c25.32.19 67.52 12.65 126.94 69.4-48.91 46.94-90.44 69.63-126.76 69.38Z"/></svg>