<svg xmlns="http://www.w3.org/2000/svg" viewBox="0 0 864 864"><path d="m291.71 408.97 78.14 56.78L340 557.61a9.01 9.01 0 0 0 3.27 10.06c1.58 1.15 3.43 1.72 5.29 1.72s3.71-.57 5.29-1.72l78.14-56.78 78.14 56.78a8.96 8.96 0 0 0 5.29 1.72c1.86 0 3.71-.57 5.29-1.72a9.01 9.01 0 0 0 3.27-10.06l-29.85-91.86 78.14-56.78a9.01 9.01 0 0 0 3.27-10.06 9 9 0 0 0-8.56-6.22h-96.59l-29.85-91.87c-1.2-3.71-4.66-6.22-8.56-6.22s-7.35 2.51-8.56 6.22l-29.85 91.87h-96.59c-3.9 0-7.35 2.51-8.56 6.22a8.99 8.99 0 0 0 3.27 10.06Zm101.88 7.72h17.44l5.39-16.58L432 352.15l15.58 47.96 5.39 16.58h67.86l-40.79 29.64-14.11 10.25 5.39 16.58 15.58 47.96-40.79-29.64L432 481.23l-14.11 10.25-40.79 29.64 15.58-47.96 5.39-16.58-14.11-10.25-40.8-29.64z"/></svg>