<svg xmlns="http://www.w3.org/2000/svg" viewBox="0 0 864 864"><path d="M684 180v504H180V180zm0-36H180c-19.88 0-36 16.12-36 36v504c0 19.88 16.12 36 36 36h504c19.88 0 36-16.12 36-36V180c0-19.88-16.12-36-36-36"/><rect width="39.56" height="204" x="494.44" y="330" rx="6" ry="6"/><path d="M516 348v168h-3.56V348zm12-36h-27.56c-13.25 0-24 10.75-24 24v192c0 13.25 10.75 24 24 24H528c13.25 0 24-10.75 24-24V336c0-13.25-10.75-24-24-24"/><rect width="39.56" height="204" x="330" y="330" rx="6" ry="6"/><path d="M351.56 348v168H348V348zm12-36H336c-13.25 0-24 10.75-24 24v192c0 13.25 10.75 24 24 24h27.56c13.25 0 24-10.75 24-24V336c0-13.25-10.75-24-24-24"/></svg>