<svg xmlns="http://www.w3.org/2000/svg" viewBox="0 0 864 864"><rect width="24" height="324" x="288" y="270" rx="8.58" ry="8.58"/><path d="M303.42 252h-6.84C281.9 252 270 263.9 270 278.58v306.84c0 14.68 11.9 26.58 26.58 26.58h6.84c14.68 0 26.58-11.9 26.58-26.58V278.58c0-14.68-11.9-26.58-26.58-26.58"/><path d="M557.95 593.73c-3.11 0-6.12-.83-8.96-2.47L300.68 447.58c-8.11-4.69-8.99-12.46-8.99-15.58s.88-10.89 8.99-15.58l248.31-143.68c2.84-1.64 5.85-2.47 8.96-2.47 8.68 0 18.05 6.9 18.05 18.05v287.35c0 6.37-2.95 10.54-5.43 12.91-3.41 3.27-8.01 5.14-12.62 5.14Z"/><path d="M558 288.32v287.35L309.69 431.99 558 288.31m-.06-36.04c-6 0-12.16 1.53-17.97 4.89L291.66 400.84c-23.96 13.86-23.96 48.46 0 62.32l248.31 143.68c5.81 3.36 11.97 4.89 17.97 4.89 18.8 0 36.06-15.04 36.06-36.05V288.33c0-21.02-17.25-36.05-36.06-36.05Z"/></svg>