<svg xmlns="http://www.w3.org/2000/svg" viewBox="0 0 864 864"><path d="M693.42 252h-6.84C671.9 252 660 263.9 660 278.58v306.84c0 14.68 11.9 26.58 26.58 26.58h6.84c14.68 0 26.58-11.9 26.58-26.58V278.58c0-14.68-11.9-26.58-26.58-26.58M180 288.35 428.27 432 180 575.65V288.34m.06-36.05c-18.8 0-36.06 15.04-36.06 36.05v287.31c0 21.02 17.25 36.05 36.06 36.05 6 0 12.16-1.53 17.97-4.89L446.3 463.16c23.96-13.86 23.96-48.46 0-62.32L198.03 257.19c-5.81-3.36-11.97-4.89-17.97-4.89Z"/><path d="M432 288.32 680.31 432 432 575.68V288.33m.06-36.06c-18.8 0-36.06 15.04-36.06 36.05v287.35c0 21.02 17.25 36.05 36.06 36.05 6 0 12.16-1.53 17.97-4.89l248.31-143.68c23.96-13.86 23.96-48.46 0-62.32L450.03 257.15c-5.81-3.36-11.97-4.89-17.97-4.89Z"/></svg>