<svg xmlns="http://www.w3.org/2000/svg" viewBox="0 0 864 864"><circle cx="432" cy="432" r="288"/><path fill="#fff" d="M260 534c-1.1 0-2-.9-2-2V332c0-1.1.9-2 2-2s2 .9 2 2v200c0 1.1-.9 2-2 2"/><path fill="#fff" d="M260 312c-11.05 0-20 8.95-20 20v200c0 11.05 8.95 20 20 20s20-8.95 20-20V332c0-11.05-8.95-20-20-20m339.96 221.8c-1.02 0-1.99-.28-2.97-.84l-165.51-95.77c-2.61-1.51-3-3.9-3-5.19s.39-3.69 3-5.19l165.51-95.77c.98-.57 1.95-.84 2.97-.84 2.43 0 6.04 1.92 6.04 6.04v191.54c0 1.71-.6 3.15-1.77 4.28-1.17 1.12-2.72 1.76-4.26 1.76Z"/><path fill="#fff" d="M588 357.04v149.92L458.45 432zm11.96-44.84c-4 0-8.11 1.02-11.98 3.26l-165.51 95.77c-15.97 9.24-15.97 32.3 0 41.55l165.51 95.77c3.87 2.24 7.98 3.26 11.98 3.26 12.54 0 24.04-10.02 24.04-24.04V336.23c0-14.01-11.5-24.04-24.04-24.04Z"/><path fill="#fff" d="M431.96 533.82c-1.02 0-1.99-.28-2.97-.84L263.45 437.2c-2.61-1.51-3-3.9-3-5.19s.39-3.69 3-5.19l165.54-95.78c.98-.57 1.95-.84 2.97-.84 2.43 0 6.04 1.92 6.04 6.04v191.57c0 1.71-.6 3.15-1.77 4.28-1.17 1.12-2.72 1.76-4.26 1.76Z"/><path fill="#fff" d="M420 357.02v149.95l-129.58-74.98L420 357.01m11.96-44.83c-4 0-8.11 1.02-11.98 3.26l-165.54 95.78c-15.97 9.24-15.97 32.3 0 41.55l165.54 95.78c3.87 2.24 7.98 3.26 11.98 3.26 12.54 0 24.04-10.02 24.04-24.04V336.2c0-14.01-11.5-24.04-24.04-24.04Z"/></svg>