<svg xmlns="http://www.w3.org/2000/svg" viewBox="0 0 864 864"><path d="M684 180v504H180V180zm0-36H180c-19.88 0-36 16.12-36 36v504c0 19.88 16.12 36 36 36h504c19.88 0 36-16.12 36-36V180c0-19.88-16.12-36-36-36"/><path d="M355.1 534c-2.44 0-6.04-1.92-6.04-6.04V336.04c0-4.12 3.6-6.04 6.04-6.04 1.02 0 1.99.28 2.97.84l165.84 95.96c2.61 1.51 3 3.9 3 5.19s-.39 3.69-3 5.19l-165.84 95.96c-.98.57-1.95.84-2.97.84Z"/><path d="M367.06 356.85 496.94 432l-129.88 75.15V356.84M355.1 312c-12.54 0-24.04 10.02-24.04 24.04v191.92c0 14.01 11.5 24.04 24.04 24.04 4 0 8.11-1.02 11.98-3.26l165.84-95.96c15.97-9.24 15.97-32.3 0-41.55l-165.84-95.96c-3.87-2.24-7.98-3.26-11.98-3.26Z"/></svg>