<svg xmlns="http://www.w3.org/2000/svg" viewBox="0 0 864 864"><path d="M177.42 252h-6.84C155.9 252 144 263.9 144 278.58v306.84c0 14.68 11.9 26.58 26.58 26.58h6.84c14.68 0 26.58-11.9 26.58-26.58V278.58c0-14.68-11.9-26.58-26.58-26.58M684 288.35v287.31L435.73 432.01 684 288.36m-.06-36.07c-6 0-12.16 1.53-17.97 4.89L417.7 400.83c-23.96 13.86-23.96 48.46 0 62.32L665.97 606.8c5.81 3.36 11.97 4.89 17.97 4.89 18.8 0 36.06-15.04 36.06-36.05V288.33c0-21.02-17.25-36.05-36.06-36.05Z"/><path d="M432 288.32v287.35L183.69 431.99 432 288.31m-.06-36.04c-6 0-12.16 1.53-17.97 4.89L165.66 400.84c-23.96 13.86-23.96 48.46 0 62.32l248.31 143.68c5.81 3.36 11.97 4.89 17.97 4.89 18.8 0 36.06-15.04 36.06-36.05V288.33c0-21.02-17.25-36.05-36.06-36.05Z"/></svg>