<svg xmlns="http://www.w3.org/2000/svg" viewBox="0 0 864 864"><path d="M684 144H180c-19.88 0-36 16.12-36 36v504c0 19.88 16.12 36 36 36h504c19.88 0 36-16.12 36-36V180c0-19.88-16.12-36-36-36m0 540H180V180h504z"/><path d="M317.45 546.55c31.58 31.58 73.07 47.37 114.55 47.37s82.97-15.79 114.55-47.37l-25.46-25.46c-49.13 49.13-129.06 49.13-178.19 0-23.8-23.8-36.9-55.44-36.9-89.1h30l-48-48-48 48h30c0 43.27 16.85 83.95 47.45 114.55ZM521.1 342.9c23.8 23.8 36.9 55.44 36.9 89.1h-30l48 48 48-48h-30c0-43.27-16.85-83.95-47.45-114.55-63.16-63.16-165.94-63.16-229.1 0l25.46 25.46c49.13-49.13 129.06-49.13 178.19 0Z"/></svg>