<svg xmlns="http://www.w3.org/2000/svg" viewBox="0 0 864 864"><path d="M684 144H180c-19.88 0-36 16.12-36 36v504c0 19.88 16.12 36 36 36h504c19.88 0 36-16.12 36-36V180c0-19.88-16.12-36-36-36M432 593.92c-41.48 0-82.97-15.79-114.55-47.37C286.85 515.95 270 475.27 270 432h-30l48-48 48 48h-30c0 33.66 13.11 65.3 36.9 89.09C366.7 544.89 398.34 558 432 558s65.3-13.11 89.1-36.9l25.46 25.46c-31.58 31.58-73.07 47.37-114.55 47.37ZM576 480l-48-48h30c0-33.66-13.11-65.3-36.9-89.09C497.3 319.11 465.66 306 432 306s-65.3 13.11-89.1 36.9l-25.46-25.46c63.16-63.16 165.94-63.16 229.1 0 30.6 30.6 47.45 71.28 47.45 114.55h30l-48 48Z"/></svg>