<svg xmlns="http://www.w3.org/2000/svg" viewBox="0 0 864 864"><path d="m452.97 416.69-5.39-16.58L432 352.15l-15.58 47.96-5.39 16.58h-67.86l40.79 29.64 14.11 10.25-5.39 16.58-15.58 47.96 40.79-29.64L432 481.23l14.11 10.25 40.79 29.64-15.58-47.96-5.39-16.58 14.11-10.25 40.79-29.64z"/><path d="M684 144H180c-19.88 0-36 16.12-36 36v504c0 19.88 16.12 36 36 36h504c19.88 0 36-16.12 36-36V180c0-19.88-16.12-36-36-36M572.29 408.97l-78.14 56.77L524 557.6a8.99 8.99 0 0 1-3.27 10.06 8.96 8.96 0 0 1-5.29 1.72 8.96 8.96 0 0 1-5.29-1.72l-78.14-56.78-78.14 56.78c-1.58 1.15-3.43 1.72-5.29 1.72s-3.71-.57-5.29-1.72a9.01 9.01 0 0 1-3.27-10.06l29.85-91.86-78.14-56.77c-3.15-2.29-4.47-6.35-3.27-10.06s4.66-6.22 8.56-6.22h96.59l29.85-91.87c1.21-3.71 4.66-6.22 8.56-6.22s7.36 2.51 8.56 6.22l29.85 91.87h96.59c3.9 0 7.35 2.51 8.56 6.22s-.12 7.77-3.27 10.06Z"/></svg>