<?xml version="1.0" encoding="UTF-8"?>
<svg id="icon" xmlns="http://www.w3.org/2000/svg" viewBox="0 0 864 864">
  <path d="M530.08,199.79c-31.04-13.13-64.04-19.79-98.08-19.79s-67.03,6.66-98.08,19.79c-30,12.69-56.96,30.87-80.11,54.02-23.15,23.15-41.33,50.11-54.02,80.11-13.13,31.04-19.79,64.04-19.79,98.08s6.66,67.03,19.79,98.08c12.69,30,30.87,56.96,54.02,80.11,23.15,23.15,50.11,41.33,80.11,54.02,31.04,13.13,64.04,19.79,98.08,19.79s67.03-6.66,98.08-19.79c30-12.69,56.96-30.87,80.11-54.02,23.15-23.15,41.33-50.11,54.02-80.11,13.13-31.04,19.79-64.04,19.79-98.08s-6.66-67.03-19.79-98.08c-12.69-30-30.87-56.96-54.02-80.11-23.15-23.15-50.11-41.33-80.11-54.02Z" style="fill: none; stroke-width: 0px;"/>
  <path d="M432,144c-159.06,0-288,128.94-288,288s128.94,288,288,288,288-128.94,288-288-128.94-288-288-288ZM684,432c0,34.04-6.66,67.03-19.79,98.08-12.69,30-30.87,56.96-54.02,80.11-23.15,23.15-50.11,41.33-80.11,54.02-31.04,13.13-64.04,19.79-98.08,19.79s-67.03-6.66-98.08-19.79c-30-12.69-56.96-30.87-80.11-54.02-23.15-23.15-41.33-50.11-54.02-80.11-13.13-31.04-19.79-64.04-19.79-98.08s6.66-67.03,19.79-98.08c12.69-30,30.87-56.96,54.02-80.11,23.15-23.15,50.11-41.33,80.11-54.02,31.04-13.13,64.04-19.79,98.08-19.79s67.03,6.66,98.08,19.79c30,12.69,56.96,30.87,80.11,54.02,23.15,23.15,41.33,50.11,54.02,80.11,13.13,31.04,19.79,64.04,19.79,98.08Z" style="stroke-width: 0px;"/>
  <path d="M380.7,425.88c-8.88,5.04-15.72,12.48-20.52,22.32-5.52,11.52-8.28,23.76-8.28,36.72,0,14.4,3.12,27.24,9.36,38.52,6.24,12.24,15.6,21.54,28.08,27.9,12.48,6.36,26.76,9.54,42.84,9.54s30.48-3.24,42.48-9.72c12-6.48,21.12-15.36,27.36-26.64,6.24-11.76,9.36-24.84,9.36-39.24s-2.64-25.8-7.92-36.36c-5.04-10.32-12.12-18.12-21.24-23.4-.96-.72-.96-1.56,0-2.52,6-4.32,11.28-9.84,15.84-16.56,6.48-9.84,9.72-21.36,9.72-34.56,0-14.88-4.2-28.44-12.6-40.68-6.48-9.36-15.06-16.62-25.74-21.78-10.68-5.16-23.1-7.74-37.26-7.74s-26.04,2.58-37.08,7.74c-11.04,5.16-19.8,12.42-26.28,21.78-8.88,12-13.32,25.56-13.32,40.68,0,12.24,3.12,23.4,9.36,33.48,4.8,7.68,10.2,13.68,16.2,18,.96.96.84,1.8-.36,2.52ZM401.22,356.04c2.88-5.76,6.96-10.26,12.24-13.5,5.28-3.24,11.28-4.86,18-4.86,7.2,0,13.44,1.62,18.72,4.86,5.28,3.24,9.48,7.62,12.6,13.14,2.64,5.76,3.96,11.28,3.96,16.56,0,9.36-1.8,16.68-5.4,21.96-6.72,10.08-16.56,15.12-29.52,15.12s-23.04-4.92-28.8-14.76c-4.08-6.48-6.12-13.8-6.12-21.96,0-4.8,1.44-10.32,4.32-16.56ZM400.86,455.04c6.48-10.56,16.8-15.84,30.96-15.84,15.12,0,25.68,5.52,31.68,16.56,3.84,6.24,5.76,14.88,5.76,25.92,0,12-2.52,21.48-7.56,28.44-6.24,9.84-16.08,14.76-29.52,14.76-14.16,0-24.48-5.28-30.96-15.84-4.32-6.96-6.48-15.96-6.48-27s2.04-20.52,6.12-27Z" style="stroke-width: 0px;"/>
</svg>