<?xml version="1.0" encoding="UTF-8"?>
<svg id="icon" xmlns="http://www.w3.org/2000/svg" viewBox="0 0 864 864">
  <path d="M530.08,199.79c-31.04-13.13-64.04-19.79-98.08-19.79s-67.03,6.66-98.08,19.79c-30,12.69-56.96,30.87-80.11,54.02-23.16,23.15-41.33,50.11-54.02,80.11-13.13,31.04-19.79,64.04-19.79,98.08s6.66,67.03,19.79,98.08c12.69,30,30.87,56.96,54.02,80.11,23.15,23.16,50.11,41.33,80.11,54.02,31.04,13.13,64.04,19.79,98.08,19.79s67.03-6.66,98.08-19.79c30-12.69,56.96-30.87,80.11-54.02,23.16-23.15,41.33-50.11,54.02-80.11,13.13-31.04,19.79-64.04,19.79-98.08s-6.66-67.03-19.79-98.08c-12.69-30-30.87-56.96-54.02-80.11-23.15-23.16-50.11-41.33-80.11-54.02Z" style="fill: none; stroke-width: 0px;"/>
  <path d="M432,144c-159.06,0-288,128.94-288,288s128.94,288,288,288,288-128.94,288-288-128.94-288-288-288ZM684,432c0,34.04-6.66,67.03-19.79,98.08-12.69,30-30.87,56.96-54.02,80.11-23.15,23.16-50.11,41.33-80.11,54.02-31.04,13.13-64.04,19.79-98.08,19.79s-67.03-6.66-98.08-19.79c-30-12.69-56.96-30.87-80.11-54.02-23.16-23.15-41.33-50.11-54.02-80.11-13.13-31.04-19.79-64.04-19.79-98.08s6.66-67.03,19.79-98.08c12.69-30,30.87-56.96,54.02-80.11,23.15-23.16,50.11-41.33,80.11-54.02,31.04-13.13,64.04-19.79,98.08-19.79s67.03,6.66,98.08,19.79c30,12.69,56.96,30.87,80.11,54.02,23.16,23.15,41.33,50.11,54.02,80.11,13.13,31.04,19.79,64.04,19.79,98.08Z" style="stroke-width: 0px;"/>
  <path d="M330.48,524.88c-8.4,0-15.54-2.22-21.42-6.66-5.88-4.44-9.9-10.5-12.06-18.18-1.92-4.56-3.12-10.68-3.6-18.36,0-2.88-1.44-4.32-4.32-4.32h-33.48c-2.88,0-4.32,1.44-4.32,4.32.48,12,2.16,21.72,5.04,29.16,5.52,15.36,14.82,27.54,27.9,36.54,13.08,9,28.5,13.5,46.26,13.5s33.36-4.14,46.08-12.42c12.72-8.28,21.84-19.98,27.36-35.1,4.08-10.32,6.12-22.2,6.12-35.64,0-14.88-2.4-28.08-7.2-39.6-9.36-21.6-25.2-33.96-47.52-37.08-1.92-.48-2.4-1.2-1.44-2.16l51.48-51.84c1.44-1.44,2.16-3.24,2.16-5.4v-31.32c0-1.2-.42-2.22-1.26-3.06-.84-.84-1.86-1.26-3.06-1.26h-143.64c-1.2,0-2.22.42-3.06,1.26s-1.26,1.86-1.26,3.06v27.36c0,1.2.42,2.22,1.26,3.06.84.84,1.86,1.26,3.06,1.26h90c.72,0,1.2.24,1.44.72.24.48.12.96-.36,1.44l-59.4,58.32c-.96.96-1.44,2.04-1.44,3.24,0,.72.36,1.68,1.08,2.88l16.56,23.04c1.2,1.44,2.4,2.16,3.6,2.16.72,0,1.56-.24,2.52-.72,6.96-4.8,12.48-7.2,16.56-7.2,15.36,0,26.16,6.72,32.4,20.16,3.6,7.92,5.4,18,5.4,30.24,0,11.04-1.56,20.04-4.68,27-6,14.4-16.92,21.6-32.76,21.6Z" style="stroke-width: 0px;"/>
  <path d="M515.88,504.72c26.4-28.8,45.36-50.4,56.88-64.8,20.88-25.68,31.32-48.36,31.32-68.04,0-12.96-3.24-24.66-9.72-35.1-6.48-10.44-15.72-18.66-27.72-24.66-12-6-26.04-9-42.12-9-14.64,0-27.9,2.64-39.78,7.92-11.88,5.28-21.3,12.72-28.26,22.32-6.96,9.6-10.68,20.88-11.16,33.84v15.48c0,1.2.42,2.22,1.26,3.06.84.84,1.86,1.26,3.06,1.26h33.48c1.2,0,2.22-.42,3.06-1.26s1.26-1.86,1.26-3.06v-9.36c0-10.32,3.42-18.6,10.26-24.84,6.84-6.24,15.78-9.36,26.82-9.36s20.04,3.12,27,9.36c6.96,6.24,10.44,14.28,10.44,24.12,0,13.2-11.04,32.64-33.12,58.32l-16.92,19.8c-24,28.32-45.12,52.2-63.36,71.64-1.44,1.44-2.16,3.24-2.16,5.4v25.92c0,1.2.42,2.22,1.26,3.06.84.84,1.86,1.26,3.06,1.26h154.8c1.2,0,2.22-.42,3.06-1.26.84-.84,1.26-1.86,1.26-3.06v-27.36c0-1.2-.42-2.22-1.26-3.06-.84-.84-1.86-1.26-3.06-1.26h-102.6c-.72,0-1.14-.24-1.26-.72-.12-.48.06-.96.54-1.44l13.68-15.12Z" style="stroke-width: 0px;"/>
</svg>