<?xml version="1.0" encoding="UTF-8"?>
<svg id="icon" xmlns="http://www.w3.org/2000/svg" viewBox="0 0 864 864">
  <path d="M684,144H180c-19.88,0-36,16.12-36,36v504c0,19.88,16.12,36,36,36h504c19.88,0,36-16.12,36-36V180c0-19.88-16.12-36-36-36ZM664.21,530.08c-12.69,30-30.87,56.96-54.02,80.11-23.15,23.15-50.11,41.33-80.11,54.02-31.04,13.13-64.04,19.79-98.08,19.79s-67.03-6.66-98.08-19.79c-30-12.69-56.96-30.87-80.11-54.02-23.16-23.15-41.33-50.11-54.02-80.11-13.13-31.04-19.79-64.04-19.79-98.08s6.66-67.03,19.79-98.08c12.69-30,30.87-56.96,54.02-80.11,23.15-23.15,50.11-41.33,80.11-54.02,31.04-13.13,64.04-19.79,98.08-19.79s67.03,6.66,98.08,19.79c30,12.69,56.96,30.87,80.11,54.02,23.16,23.15,41.33,50.11,54.02,80.11,13.13,31.04,19.79,64.04,19.79,98.08s-6.66,67.03-19.79,98.08Z" style="stroke-width: 0px;"/>
  <path d="M327.42,524.88c-8.4,0-15.54-2.22-21.42-6.66-5.88-4.44-9.9-10.5-12.06-18.18-1.92-4.56-3.12-10.68-3.6-18.36,0-2.88-1.44-4.32-4.32-4.32h-33.48c-2.88,0-4.32,1.44-4.32,4.32.48,12,2.16,21.72,5.04,29.16,5.52,15.36,14.82,27.54,27.9,36.54,13.08,9,28.5,13.5,46.26,13.5s33.36-4.14,46.08-12.42c12.72-8.28,21.84-19.98,27.36-35.1,4.08-10.32,6.12-22.2,6.12-35.64,0-14.88-2.4-28.08-7.2-39.6-9.36-21.6-25.2-33.96-47.52-37.08-1.92-.48-2.4-1.2-1.44-2.16l51.48-51.84c1.44-1.44,2.16-3.24,2.16-5.4v-31.32c0-1.2-.42-2.22-1.26-3.06-.84-.84-1.86-1.26-3.06-1.26h-143.64c-1.2,0-2.22.42-3.06,1.26-.84.84-1.26,1.86-1.26,3.06v27.36c0,1.2.42,2.22,1.26,3.06.84.84,1.86,1.26,3.06,1.26h90c.72,0,1.2.24,1.44.72.24.48.12.96-.36,1.44l-59.4,58.32c-.96.96-1.44,2.04-1.44,3.24,0,.72.36,1.68,1.08,2.88l16.56,23.04c1.2,1.44,2.4,2.16,3.6,2.16.72,0,1.56-.24,2.52-.72,6.96-4.8,12.48-7.2,16.56-7.2,15.36,0,26.16,6.72,32.4,20.16,3.6,7.92,5.4,18,5.4,30.24,0,11.04-1.56,20.04-4.68,27-6,14.4-16.92,21.6-32.76,21.6Z" style="stroke-width: 0px;"/>
  <path d="M610.02,482.76v-101.52c0-24-7.5-43.02-22.5-57.06-15-14.04-35.1-21.06-60.3-21.06s-45.18,7.02-59.94,21.06c-14.76,14.04-22.14,33.06-22.14,57.06v101.52c0,24.24,7.38,43.5,22.14,57.78,14.76,14.28,34.74,21.42,59.94,21.42s45.3-7.14,60.3-21.42c15-14.28,22.5-33.54,22.5-57.78ZM568.26,484.92c0,12.48-3.72,22.38-11.16,29.7-7.44,7.32-17.4,10.98-29.88,10.98s-22.02-3.66-29.34-10.98c-7.32-7.32-10.98-17.22-10.98-29.7v-105.12c0-12.48,3.66-22.38,10.98-29.7,7.32-7.32,17.1-10.98,29.34-10.98s22.44,3.66,29.88,10.98c7.44,7.32,11.16,17.22,11.16,29.7v105.12Z" style="stroke-width: 0px;"/>
</svg>