<?xml version="1.0" encoding="UTF-8"?>
<svg id="icon" xmlns="http://www.w3.org/2000/svg" viewBox="0 0 864 864">
  <path d="M432,144c-159.06,0-288,128.94-288,288s128.94,288,288,288,288-128.94,288-288-128.94-288-288-288ZM382.5,553.68c0,1.2-.42,2.22-1.26,3.06-.84.84-1.86,1.26-3.06,1.26h-33.12c-1.2,0-2.22-.42-3.06-1.26-.84-.84-1.26-1.86-1.26-3.06v-204.48c0-.48-.24-.9-.72-1.26-.48-.36-.96-.42-1.44-.18l-36,11.16c-.48.24-1.08.36-1.8.36-.96,0-1.74-.36-2.34-1.08-.6-.72-.9-1.68-.9-2.88l-1.08-23.76c0-2.4.96-4.08,2.88-5.04l38.88-19.44c1.92-.72,3.72-1.08,5.4-1.08h34.56c1.2,0,2.22.42,3.06,1.26.84.84,1.26,1.86,1.26,3.06v243.36ZM577.26,339.12c0,1.44-.36,3.24-1.08,5.4l-79.2,209.88c-.72,2.4-2.4,3.6-5.04,3.6h-35.64c-3.6,0-4.8-1.68-3.6-5.04l79.56-208.8c.48-1.44,0-2.16-1.44-2.16h-77.4c-1.21,0-1.8.6-1.8,1.8v16.2c0,1.2-.42,2.22-1.26,3.06-.84.84-1.86,1.26-3.06,1.26h-25.92c-1.2,0-2.22-.42-3.06-1.26-.84-.84-1.26-1.86-1.26-3.06v-49.68c0-1.2.42-2.22,1.26-3.06s1.86-1.26,3.06-1.26h151.56c1.2,0,2.22.42,3.06,1.26.84.84,1.26,1.86,1.26,3.06v28.8Z" style="stroke-width: 0px;"/>
</svg>