<?xml version="1.0" encoding="UTF-8"?>
<svg id="icon" xmlns="http://www.w3.org/2000/svg" viewBox="0 0 864 864">
  <path d="M315.6,511.68h145.92c1.6,0,2.4.8,2.4,2.4v80.16c0,1.6.56,2.96,1.68,4.08,1.12,1.12,2.48,1.68,4.08,1.68h44.16c1.6,0,2.95-.56,4.08-1.68,1.12-1.12,1.68-2.47,1.68-4.08v-80.16c0-1.6.79-2.4,2.4-2.4h20.16c1.6,0,2.96-.56,4.08-1.68,1.12-1.12,1.68-2.48,1.68-4.08v-38.4c0-1.6-.56-2.96-1.68-4.08-1.12-1.12-2.48-1.68-4.08-1.68h-20.16c-1.6,0-2.4-.79-2.4-2.4v-65.28c0-1.6-.56-2.96-1.68-4.08-1.12-1.12-2.48-1.68-4.08-1.68h-44.16c-1.6,0-2.96.56-4.08,1.68s-1.68,2.48-1.68,4.08v65.28c0,1.6-.8,2.4-2.4,2.4h-85.44c-.65,0-1.12-.31-1.44-.96-.32-.64-.32-1.27,0-1.92l85.44-188.16c.96-2.24,1.04-3.92.24-5.04-.8-1.12-2.33-1.68-4.56-1.68h-47.04c-3.2,0-5.45,1.44-6.72,4.32l-90.72,199.68c-.96,2.88-1.44,5.28-1.44,7.2v30.72c0,1.6.56,2.96,1.68,4.08,1.12,1.12,2.48,1.68,4.08,1.68Z" style="stroke-width: 0px;"/>
</svg>