<?xml version="1.0" encoding="UTF-8"?>
<svg id="icon" xmlns="http://www.w3.org/2000/svg" viewBox="0 0 864 864">
  <path d="M372.48,585.84c17.59,11.69,38.23,17.52,61.92,17.52s44.96-6,62.88-18c17.92-12,30.24-28.24,36.96-48.72,4.16-13.44,6.24-27.68,6.24-42.72s-2.08-30.24-6.24-44.64c-6.08-19.84-17.36-35.44-33.84-46.8-16.48-11.35-35.93-17.04-58.32-17.04-21.12,0-39.2,5.6-54.24,16.8-.64.64-1.28.88-1.92.72-.64-.16-.96-.88-.96-2.16l.48-86.4c0-1.6.79-2.4,2.4-2.4h134.4c1.6,0,2.96-.56,4.08-1.68s1.68-2.47,1.68-4.08v-36.48c0-1.6-.56-2.95-1.68-4.08-1.12-1.12-2.48-1.68-4.08-1.68h-186.72c-1.61,0-2.96.56-4.08,1.68-1.12,1.12-1.68,2.48-1.68,4.08v190.08c0,1.6.56,2.96,1.68,4.08,1.12,1.12,2.47,1.68,4.08,1.68h46.56c3.2,0,5.44-1.6,6.72-4.8,2.56-7.99,8.23-14.47,17.04-19.44,8.8-4.96,18.64-7.44,29.52-7.44,11.52,0,21.28,2.81,29.28,8.4,7.99,5.6,13.12,13.68,15.36,24.24,2.56,8.96,3.84,18.08,3.84,27.36,0,9.92-1.44,18.72-4.32,26.4-3.2,10.88-8.81,19.44-16.8,25.68-8,6.24-17.6,9.36-28.8,9.36s-20.16-2.88-27.84-8.64c-7.68-5.76-13.28-13.92-16.8-24.48-1.28-3.84-2.08-6.72-2.4-8.64-.96-3.52-3.04-5.28-6.24-5.28h-45.6c-3.84,0-5.76,1.76-5.76,5.28v.96c1.6,8.96,3.67,16.96,6.24,24,7.03,19.84,19.36,35.6,36.96,47.28Z" style="stroke-width: 0px;"/>
</svg>