<?xml version="1.0" encoding="UTF-8"?>
<svg id="icon" xmlns="http://www.w3.org/2000/svg" viewBox="0 0 864 864">
  <path d="M288.24,319.68c.64-.31,1.28-.24,1.92.24.64.48.96,1.04.96,1.68v272.64c0,1.6.56,2.96,1.68,4.08,1.12,1.12,2.47,1.68,4.08,1.68h44.16c1.6,0,2.95-.56,4.08-1.68,1.12-1.12,1.68-2.47,1.68-4.08v-324.48c0-1.6-.56-2.95-1.68-4.08-1.12-1.12-2.48-1.68-4.08-1.68h-46.08c-2.24,0-4.64.48-7.2,1.44l-51.84,25.92c-2.56,1.28-3.84,3.52-3.84,6.72l1.44,31.68c0,1.61.4,2.88,1.2,3.84.79.96,1.84,1.44,3.12,1.44.96,0,1.76-.16,2.4-.48l48-14.88Z" style="stroke-width: 0px;"/>
  <path d="M596.64,288.24c-20-18.72-46.8-28.08-80.4-28.08s-60.24,9.36-79.92,28.08c-19.68,18.72-29.52,44.08-29.52,76.08v135.36c0,32.32,9.84,58,29.52,77.04,19.68,19.04,46.32,28.56,79.92,28.56s60.4-9.52,80.4-28.56c20-19.04,30-44.72,30-77.04v-135.36c0-31.99-10-57.36-30-76.08ZM570.96,502.56c0,16.64-4.96,29.84-14.88,39.6-9.92,9.76-23.21,14.64-39.84,14.64s-29.36-4.88-39.12-14.64c-9.77-9.76-14.64-22.96-14.64-39.6v-140.16c0-16.63,4.88-29.83,14.64-39.6,9.76-9.76,22.8-14.64,39.12-14.64s29.92,4.88,39.84,14.64c9.92,9.77,14.88,22.97,14.88,39.6v140.16Z" style="stroke-width: 0px;"/>
</svg>