<?xml version="1.0" encoding="UTF-8"?>
<svg id="icon" xmlns="http://www.w3.org/2000/svg" viewBox="0 0 864 864">
  <path d="M684,144H180c-19.88,0-36,16.12-36,36v504c0,19.88,16.12,36,36,36h504c19.88,0,36-16.12,36-36V180c0-19.88-16.12-36-36-36ZM518.94,487.44c0,1.2-.42,2.22-1.26,3.06-.84.84-1.86,1.26-3.06,1.26h-15.12c-1.2,0-1.8.6-1.8,1.8v60.12c0,1.2-.42,2.22-1.26,3.06-.84.84-1.86,1.26-3.06,1.26h-33.12c-1.2,0-2.22-.42-3.06-1.26-.84-.84-1.26-1.86-1.26-3.06v-60.12c0-1.2-.6-1.8-1.8-1.8h-109.44c-1.2,0-2.22-.42-3.06-1.26-.84-.84-1.26-1.86-1.26-3.06v-23.04c0-1.44.36-3.24,1.08-5.4l68.04-149.76c.96-2.16,2.64-3.24,5.04-3.24h35.28c1.68,0,2.82.42,3.42,1.26.6.84.54,2.1-.18,3.78l-64.08,141.12c-.24.48-.24.96,0,1.44.24.48.6.72,1.08.72h64.08c1.2,0,1.8-.6,1.8-1.8v-48.96c0-1.2.42-2.22,1.26-3.06s1.86-1.26,3.06-1.26h33.12c1.2,0,2.22.42,3.06,1.26.84.84,1.26,1.86,1.26,3.06v48.96c0,1.2.6,1.8,1.8,1.8h15.12c1.2,0,2.22.42,3.06,1.26.84.84,1.26,1.86,1.26,3.06v28.8Z" style="stroke-width: 0px;"/>
</svg>