<?xml version="1.0" encoding="UTF-8"?>
<svg id="icon" xmlns="http://www.w3.org/2000/svg" viewBox="0 0 864 864">
  <path d="M349.54,313.9c0,1.08.37,2,1.13,2.75.75.76,1.67,1.13,2.75,1.13h98.5c1.08,0,1.62.54,1.62,1.62v54.11c0,1.08.37,2,1.13,2.75.75.76,1.67,1.13,2.75,1.13h29.81c1.08,0,2-.37,2.75-1.13.75-.75,1.13-1.67,1.13-2.75v-54.11c0-1.08.54-1.62,1.62-1.62h13.61c1.08,0,1.99-.38,2.75-1.13.75-.75,1.13-1.67,1.13-2.75v-25.92c0-1.08-.38-2-1.13-2.75-.76-.75-1.68-1.13-2.75-1.13h-13.61c-1.08,0-1.62-.54-1.62-1.62v-44.06c0-1.08-.38-2-1.13-2.75-.76-.75-1.68-1.13-2.75-1.13h-29.81c-1.08,0-2,.38-2.75,1.13-.76.76-1.13,1.68-1.13,2.75v44.06c0,1.08-.54,1.62-1.62,1.62h-57.67c-.44,0-.76-.21-.97-.65-.22-.43-.22-.86,0-1.3l57.67-127.01c.65-1.51.7-2.64.16-3.4-.54-.75-1.57-1.13-3.08-1.13h-31.75c-2.16,0-3.67.97-4.54,2.92l-61.24,134.78c-.65,1.95-.97,3.56-.97,4.86v20.74Z" style="stroke-width: 0px;"/>
  <path d="M478.17,580.07c-11.13-7.67-24.25-11.5-39.37-11.5-14.26,0-26.46,3.78-36.61,11.34-.44.43-.87.6-1.3.49-.44-.11-.65-.59-.65-1.46l.32-58.32c0-1.08.54-1.62,1.62-1.62h90.72c1.08,0,1.99-.38,2.75-1.13.75-.75,1.13-1.67,1.13-2.75v-24.62c0-1.08-.38-2-1.13-2.75-.76-.75-1.68-1.13-2.75-1.13h-126.04c-1.08,0-2,.38-2.75,1.13-.76.76-1.13,1.68-1.13,2.75v128.3c0,1.08.37,2,1.13,2.75.75.76,1.67,1.13,2.75,1.13h31.43c2.16,0,3.67-1.08,4.54-3.24,1.73-5.4,5.56-9.77,11.5-13.12,5.94-3.35,12.58-5.02,19.93-5.02,7.78,0,14.36,1.89,19.76,5.67,5.4,3.78,8.85,9.23,10.37,16.36,1.73,6.05,2.59,12.21,2.59,18.47,0,6.7-.97,12.64-2.92,17.82-2.16,7.35-5.94,13.12-11.34,17.33-5.4,4.21-11.88,6.32-19.44,6.32s-13.61-1.94-18.79-5.83c-5.18-3.89-8.97-9.4-11.34-16.52-.87-2.59-1.41-4.54-1.62-5.83-.65-2.38-2.06-3.56-4.21-3.56h-30.78c-2.59,0-3.89,1.19-3.89,3.56v.65c1.08,6.05,2.48,11.45,4.21,16.2,4.75,13.39,13.07,24.03,24.95,31.91,11.88,7.89,25.81,11.83,41.8,11.83s30.34-4.05,42.44-12.15c12.09-8.1,20.41-19.06,24.95-32.89,2.8-9.07,4.21-18.68,4.21-28.84s-1.41-20.41-4.21-30.13c-4.11-13.39-11.72-23.92-22.84-31.59Z" style="stroke-width: 0px;"/>
  <path d="M624,414H240c-9.94,0-18,8.06-18,18s8.06,18,18,18h384c9.94,0,18-8.06,18-18s-8.06-18-18-18Z" style="stroke-width: 0px;"/>
</svg>