<?xml version="1.0" encoding="UTF-8"?>
<svg id="icon" xmlns="http://www.w3.org/2000/svg" viewBox="0 0 864 864">
  <path d="M429.9,347.59c-7.56,0-13.99-2-19.28-5.99-5.3-3.99-8.91-9.45-10.85-16.36-1.73-4.1-2.81-9.61-3.24-16.52,0-2.59-1.3-3.89-3.89-3.89h-30.13c-2.59,0-3.89,1.3-3.89,3.89.43,10.8,1.94,19.55,4.54,26.24,4.97,13.83,13.33,24.79,25.11,32.89,11.77,8.1,25.65,12.15,41.63,12.15s30.02-3.73,41.47-11.18c11.45-7.45,19.65-17.98,24.62-31.59,3.67-9.28,5.51-19.98,5.51-32.08,0-13.39-2.16-25.27-6.48-35.64-8.42-19.44-22.68-30.56-42.77-33.37-1.73-.43-2.16-1.08-1.3-1.94l46.33-46.66c1.3-1.3,1.94-2.92,1.94-4.86v-28.19c0-1.08-.38-2-1.13-2.75-.76-.75-1.68-1.13-2.75-1.13h-129.28c-1.08,0-2,.38-2.75,1.13-.76.76-1.13,1.68-1.13,2.75v24.62c0,1.08.37,2,1.13,2.75.75.76,1.67,1.13,2.75,1.13h81c.65,0,1.08.22,1.3.65.21.44.11.87-.32,1.3l-53.46,52.49c-.87.87-1.3,1.84-1.3,2.92,0,.65.32,1.51.97,2.59l14.9,20.74c1.08,1.29,2.16,1.94,3.24,1.94.65,0,1.4-.21,2.27-.65,6.26-4.32,11.23-6.48,14.9-6.48,13.82,0,23.54,6.05,29.16,18.14,3.24,7.13,4.86,16.2,4.86,27.22,0,9.94-1.41,18.04-4.21,24.3-5.4,12.96-15.23,19.44-29.48,19.44Z" style="stroke-width: 0px;"/>
  <path d="M478.17,580.07c-11.13-7.67-24.25-11.5-39.37-11.5-14.26,0-26.46,3.78-36.61,11.34-.44.43-.87.6-1.3.49-.44-.11-.65-.59-.65-1.46l.32-58.32c0-1.08.54-1.62,1.62-1.62h90.72c1.08,0,1.99-.38,2.75-1.13.75-.75,1.13-1.67,1.13-2.75v-24.62c0-1.08-.38-2-1.13-2.75-.76-.75-1.68-1.13-2.75-1.13h-126.04c-1.08,0-2,.38-2.75,1.13-.76.76-1.13,1.68-1.13,2.75v128.3c0,1.08.37,2,1.13,2.75.75.76,1.67,1.13,2.75,1.13h31.43c2.16,0,3.67-1.08,4.54-3.24,1.73-5.4,5.56-9.77,11.5-13.12,5.94-3.35,12.58-5.02,19.93-5.02,7.78,0,14.36,1.89,19.76,5.67,5.4,3.78,8.85,9.23,10.37,16.36,1.73,6.05,2.59,12.21,2.59,18.47,0,6.7-.97,12.64-2.92,17.82-2.16,7.35-5.94,13.12-11.34,17.33-5.4,4.21-11.88,6.32-19.44,6.32s-13.61-1.94-18.79-5.83c-5.18-3.89-8.97-9.4-11.34-16.52-.87-2.59-1.41-4.54-1.62-5.83-.65-2.38-2.06-3.56-4.21-3.56h-30.78c-2.59,0-3.89,1.19-3.89,3.56v.65c1.08,6.05,2.48,11.45,4.21,16.2,4.75,13.39,13.07,24.03,24.95,31.91,11.88,7.89,25.81,11.83,41.8,11.83s30.34-4.05,42.44-12.15c12.09-8.1,20.41-19.06,24.95-32.89,2.8-9.07,4.21-18.68,4.21-28.84s-1.41-20.41-4.21-30.13c-4.11-13.39-11.72-23.92-22.84-31.59Z" style="stroke-width: 0px;"/>
  <path d="M624,414H240c-9.94,0-18,8.06-18,18s8.06,18,18,18h384c9.94,0,18-8.06,18-18s-8.06-18-18-18Z" style="stroke-width: 0px;"/>
</svg>