<?xml version="1.0" encoding="UTF-8"?>
<svg id="icon" xmlns="http://www.w3.org/2000/svg" viewBox="0 0 864 864">
  <path d="M373.68,586.8c16.96,11.04,37.44,16.56,61.44,16.56s42.79-5.04,59.28-15.12c16.48-10.08,28.56-24.4,36.24-42.96,6.4-14.71,9.6-31.84,9.6-51.36,0-23.35-4.32-43.2-12.96-59.52-8.33-15.04-19.61-26.56-33.84-34.56-14.24-7.99-30.8-12-49.68-12-23.68,0-42.24,6.56-55.68,19.68-.64.65-1.28.8-1.92.48-.64-.31-.96-.96-.96-1.92v-52.32c0-13.44,4.4-24.4,13.2-32.88,8.8-8.48,19.92-12.72,33.36-12.72s23.92,4.08,32.4,12.24c8.47,8.16,12.72,18.65,12.72,31.44v3.36c0,1.6.56,2.96,1.68,4.08,1.12,1.12,2.47,1.68,4.08,1.68h44.16c1.6,0,2.96-.56,4.08-1.68,1.12-1.12,1.68-2.47,1.68-4.08v-10.56c0-16.64-4.25-31.36-12.72-44.16-8.48-12.79-20.32-22.72-35.52-29.76-15.2-7.04-32.57-10.56-52.08-10.56s-38,3.6-53.52,10.8c-15.52,7.2-27.6,17.36-36.24,30.48-8.64,13.12-12.96,28.32-12.96,45.6v146.4c0,17.93,2.56,33.6,7.68,47.04,7.36,19.85,19.51,35.28,36.48,46.32ZM392.4,458.88c8.32-16,22.39-24,42.24-24s32.8,7.68,41.76,23.04c5.44,10.25,8.16,22.56,8.16,36.96,0,13.12-2.4,24.48-7.2,34.08-8.32,17.28-22.56,25.92-42.72,25.92s-35.52-8.8-43.2-26.4c-4.16-8.32-6.24-19.04-6.24-32.16,0-15.36,2.4-27.84,7.2-37.44Z" style="stroke-width: 0px;"/>
</svg>