<?xml version="1.0" encoding="UTF-8"?>
<svg id="icon" xmlns="http://www.w3.org/2000/svg" viewBox="0 0 864 864">
  <path d="M684,144H180c-19.88,0-36,16.12-36,36v504c0,19.88,16.12,36,36,36h504c19.88,0,36-16.12,36-36V180c0-19.88-16.12-36-36-36ZM374.94,553.68c0,1.2-.42,2.22-1.26,3.06-.84.84-1.86,1.26-3.06,1.26h-33.12c-1.2,0-2.22-.42-3.06-1.26-.84-.84-1.26-1.86-1.26-3.06v-204.48c0-.48-.24-.9-.72-1.26-.48-.36-.96-.42-1.44-.18l-36,11.16c-.48.24-1.08.36-1.8.36-.96,0-1.74-.36-2.34-1.08-.6-.72-.9-1.68-.9-2.88l-1.08-23.76c0-2.4.96-4.08,2.88-5.04l38.88-19.44c1.92-.72,3.72-1.08,5.4-1.08h34.56c1.2,0,2.22.42,3.06,1.26.84.84,1.26,1.86,1.26,3.06v243.36ZM572.22,510.48c-5.04,15.36-14.28,27.54-27.72,36.54-13.44,9-29.16,13.5-47.16,13.5s-33.24-4.38-46.44-13.14c-13.2-8.76-22.44-20.58-27.72-35.46-1.92-5.28-3.48-11.28-4.68-18v-.72c0-2.64,1.44-3.96,4.32-3.96h34.2c2.4,0,3.96,1.32,4.68,3.96.24,1.44.84,3.6,1.8,6.48,2.64,7.92,6.84,14.04,12.6,18.36,5.76,4.32,12.72,6.48,20.88,6.48s15.6-2.34,21.6-7.02c6-4.68,10.2-11.1,12.6-19.26,2.16-5.76,3.24-12.36,3.24-19.8,0-6.96-.96-13.8-2.88-20.52-1.68-7.92-5.52-13.98-11.52-18.18-6-4.2-13.32-6.3-21.96-6.3-8.16,0-15.54,1.86-22.14,5.58-6.6,3.72-10.86,8.58-12.78,14.58-.96,2.4-2.64,3.6-5.04,3.6h-34.92c-1.2,0-2.22-.42-3.06-1.26-.84-.84-1.26-1.86-1.26-3.06v-142.56c0-1.2.42-2.22,1.26-3.06.84-.84,1.86-1.26,3.06-1.26h140.04c1.2,0,2.22.42,3.06,1.26.84.84,1.26,1.86,1.26,3.06v27.36c0,1.2-.42,2.22-1.26,3.06-.84.84-1.86,1.26-3.06,1.26h-100.8c-1.2,0-1.8.6-1.8,1.8l-.36,64.8c0,.96.24,1.5.72,1.62.48.12.96-.06,1.44-.54,11.28-8.4,24.84-12.6,40.68-12.6,16.8,0,31.38,4.26,43.74,12.78,12.36,8.52,20.82,20.22,25.38,35.1,3.12,10.8,4.68,21.96,4.68,33.48s-1.56,21.96-4.68,32.04Z" style="stroke-width: 0px;"/>
</svg>