<?xml version="1.0" encoding="UTF-8"?>
<svg id="icon" xmlns="http://www.w3.org/2000/svg" viewBox="0 0 864 864">
  <path d="M684,144H180c-19.88,0-36,16.12-36,36v504c0,19.88,16.12,36,36,36h504c19.88,0,36-16.12,36-36V180c0-19.88-16.12-36-36-36ZM412.02,553.68c0,1.2-.42,2.22-1.26,3.06-.84.84-1.86,1.26-3.06,1.26h-154.8c-1.2,0-2.22-.42-3.06-1.26-.84-.84-1.26-1.86-1.26-3.06v-25.92c0-2.16.72-3.96,2.16-5.4,18.24-19.44,39.36-43.32,63.36-71.64l16.92-19.8c22.08-25.68,33.12-45.12,33.12-58.32,0-9.84-3.48-17.88-10.44-24.12-6.96-6.24-15.96-9.36-27-9.36s-19.98,3.12-26.82,9.36c-6.84,6.24-10.26,14.52-10.26,24.84v9.36c0,1.2-.42,2.22-1.26,3.06-.84.84-1.86,1.26-3.06,1.26h-33.48c-1.2,0-2.22-.42-3.06-1.26-.84-.84-1.26-1.86-1.26-3.06v-15.48c.48-12.96,4.2-24.24,11.16-33.84,6.96-9.6,16.38-17.04,28.26-22.32,11.88-5.28,25.14-7.92,39.78-7.92,16.08,0,30.12,3,42.12,9,12,6,21.24,14.22,27.72,24.66,6.48,10.44,9.72,22.14,9.72,35.1,0,19.68-10.44,42.36-31.32,68.04-11.52,14.4-30.48,36-56.88,64.8l-13.68,15.12c-.48.48-.66.96-.54,1.44.12.48.54.72,1.26.72h102.6c1.2,0,2.22.42,3.06,1.26.84.84,1.26,1.86,1.26,3.06v27.36ZM613.62,482.76c0,24.24-7.5,43.5-22.5,57.78-15,14.28-35.1,21.42-60.3,21.42s-45.18-7.14-59.94-21.42c-14.76-14.28-22.14-33.54-22.14-57.78v-101.52c0-24,7.38-43.02,22.14-57.06s34.74-21.06,59.94-21.06,45.3,7.02,60.3,21.06c15,14.04,22.5,33.06,22.5,57.06v101.52Z" style="stroke-width: 0px;"/>
  <path d="M530.82,339.12c-12.24,0-22.02,3.66-29.34,10.98s-10.98,17.22-10.98,29.7v105.12c0,12.48,3.66,22.38,10.98,29.7,7.32,7.32,17.1,10.98,29.34,10.98s22.44-3.66,29.88-10.98c7.44-7.32,11.16-17.22,11.16-29.7v-105.12c0-12.48-3.72-22.38-11.16-29.7-7.44-7.32-17.4-10.98-29.88-10.98Z" style="stroke-width: 0px;"/>
</svg>