<?xml version="1.0" encoding="UTF-8"?>
<svg id="icon" xmlns="http://www.w3.org/2000/svg" viewBox="0 0 864 864">
  <path d="M431.82,409.32c12.96,0,22.8-5.04,29.52-15.12,3.6-5.28,5.4-12.6,5.4-21.96,0-5.28-1.32-10.8-3.96-16.56-3.12-5.52-7.32-9.9-12.6-13.14-5.28-3.24-11.52-4.86-18.72-4.86-6.72,0-12.72,1.62-18,4.86-5.28,3.24-9.36,7.74-12.24,13.5-2.88,6.24-4.32,11.76-4.32,16.56,0,8.16,2.04,15.48,6.12,21.96,5.76,9.84,15.36,14.76,28.8,14.76Z" style="stroke-width: 0px;"/>
  <path d="M432,144c-159.06,0-288,128.94-288,288s128.94,288,288,288,288-128.94,288-288-128.94-288-288-288ZM502.02,524.52c-6.24,11.28-15.36,20.16-27.36,26.64-12,6.48-26.16,9.72-42.48,9.72s-30.36-3.18-42.84-9.54c-12.48-6.36-21.84-15.66-28.08-27.9-6.24-11.28-9.36-24.12-9.36-38.52,0-12.96,2.76-25.2,8.28-36.72,4.8-9.84,11.64-17.28,20.52-22.32,1.2-.72,1.32-1.56.36-2.52-6-4.32-11.4-10.32-16.2-18-6.24-10.08-9.36-21.24-9.36-33.48,0-15.12,4.44-28.68,13.32-40.68,6.48-9.36,15.24-16.62,26.28-21.78,11.04-5.16,23.4-7.74,37.08-7.74s26.58,2.58,37.26,7.74c10.68,5.16,19.26,12.42,25.74,21.78,8.4,12.24,12.6,25.8,12.6,40.68,0,13.2-3.24,24.72-9.72,34.56-4.56,6.72-9.84,12.24-15.84,16.56-.96.96-.96,1.8,0,2.52,9.12,5.28,16.2,13.08,21.24,23.4,5.28,10.56,7.92,22.68,7.92,36.36,0,14.4-3.12,27.48-9.36,39.24Z" style="stroke-width: 0px;"/>
  <path d="M431.82,439.2c-14.16,0-24.48,5.28-30.96,15.84-4.08,6.48-6.12,15.48-6.12,27s2.16,20.04,6.48,27c6.48,10.56,16.79,15.84,30.96,15.84s23.28-4.92,29.52-14.76c5.04-6.96,7.56-16.44,7.56-28.44,0-11.04-1.92-19.68-5.76-25.92-6-11.04-16.56-16.56-31.68-16.56Z" style="stroke-width: 0px;"/>
</svg>