<?xml version="1.0" encoding="UTF-8"?>
<svg id="icon" xmlns="http://www.w3.org/2000/svg" viewBox="0 0 864 864">
  <path d="M363.6,423.84c-11.84,6.72-20.96,16.64-27.36,29.76-7.37,15.36-11.04,31.68-11.04,48.96,0,19.2,4.15,36.32,12.48,51.36,8.32,16.32,20.8,28.73,37.44,37.2,16.63,8.48,35.68,12.72,57.12,12.72s40.63-4.32,56.64-12.96c16-8.64,28.15-20.48,36.48-35.52,8.32-15.67,12.48-33.12,12.48-52.32s-3.52-34.4-10.56-48.48c-6.72-13.75-16.16-24.16-28.32-31.2-1.28-.96-1.28-2.08,0-3.36,7.99-5.76,15.04-13.12,21.12-22.08,8.64-13.12,12.96-28.48,12.96-46.08,0-19.84-5.6-37.92-16.8-54.24-8.64-12.48-20.08-22.16-34.32-29.04-14.24-6.88-30.8-10.32-49.68-10.32s-34.72,3.44-49.44,10.32c-14.72,6.88-26.4,16.56-35.04,29.04-11.84,16-17.76,34.08-17.76,54.24,0,16.32,4.16,31.2,12.48,44.64,6.4,10.25,13.6,18.24,21.6,24,1.28,1.28,1.12,2.4-.48,3.36ZM390.96,330.72c3.84-7.68,9.28-13.68,16.32-18,7.03-4.32,15.04-6.48,24-6.48,9.6,0,17.92,2.16,24.96,6.48,7.04,4.32,12.64,10.16,16.8,17.52,3.52,7.68,5.28,15.04,5.28,22.08,0,12.48-2.4,22.25-7.2,29.28-8.96,13.44-22.08,20.16-39.36,20.16s-30.72-6.55-38.4-19.68c-5.44-8.64-8.16-18.4-8.16-29.28,0-6.4,1.92-13.75,5.76-22.08ZM390.48,462.72c8.64-14.08,22.39-21.12,41.28-21.12,20.16,0,34.24,7.36,42.24,22.08,5.12,8.32,7.68,19.84,7.68,34.56,0,16-3.36,28.64-10.08,37.92-8.33,13.12-21.44,19.68-39.36,19.68-18.88,0-32.64-7.03-41.28-21.12-5.76-9.28-8.64-21.28-8.64-36s2.71-27.36,8.16-36Z" style="stroke-width: 0px;"/>
</svg>