<?xml version="1.0" encoding="UTF-8"?>
<svg id="icon" xmlns="http://www.w3.org/2000/svg" viewBox="0 0 864 864">
  <rect x="180" y="180" width="504" height="504" style="fill: none; stroke-width: 0px;"/>
  <path d="M684,144H180c-19.88,0-36,16.12-36,36v504c0,19.88,16.12,36,36,36h504c19.88,0,36-16.12,36-36V180c0-19.88-16.12-36-36-36ZM684,684H180s0-504,0-504h504v504Z" style="stroke-width: 0px;"/>
  <path d="M388.26,548.1c12.72,8.28,28.08,12.42,46.08,12.42s32.1-3.78,44.46-11.34c12.36-7.56,21.42-18.3,27.18-32.22,4.8-11.04,7.2-23.88,7.2-38.52,0-17.52-3.24-32.4-9.72-44.64-6.24-11.28-14.7-19.92-25.38-25.92-10.68-6-23.1-9-37.26-9-17.76,0-31.68,4.92-41.76,14.76-.48.48-.96.6-1.44.36-.48-.24-.72-.72-.72-1.44v-39.24c0-10.08,3.3-18.3,9.9-24.66,6.6-6.36,14.94-9.54,25.02-9.54s17.94,3.06,24.3,9.18c6.36,6.12,9.54,13.98,9.54,23.58v2.52c0,1.2.42,2.22,1.26,3.06.84.84,1.86,1.26,3.06,1.26h33.12c1.2,0,2.22-.42,3.06-1.26.84-.84,1.26-1.86,1.26-3.06v-7.92c0-12.48-3.18-23.52-9.54-33.12-6.36-9.6-15.24-17.04-26.64-22.32-11.4-5.28-24.42-7.92-39.06-7.92s-28.5,2.7-40.14,8.1c-11.64,5.4-20.7,13.02-27.18,22.86-6.48,9.84-9.72,21.24-9.72,34.2v109.8c0,13.44,1.92,25.2,5.76,35.28,5.52,14.88,14.64,26.46,27.36,34.74ZM402.3,452.16c6.24-12,16.8-18,31.68-18s24.6,5.76,31.32,17.28c4.08,7.68,6.12,16.92,6.12,27.72,0,9.84-1.8,18.36-5.4,25.56-6.24,12.96-16.92,19.44-32.04,19.44s-26.64-6.6-32.4-19.8c-3.12-6.24-4.68-14.28-4.68-24.12,0-11.52,1.8-20.88,5.4-28.08Z" style="stroke-width: 0px;"/>
</svg>