<?xml version="1.0" encoding="UTF-8"?>
<svg id="icon" xmlns="http://www.w3.org/2000/svg" viewBox="0 0 864 864">
  <rect x="180" y="180" width="504" height="504" style="fill: none; stroke-width: 0px;"/>
  <path d="M684,144H180c-19.88,0-36,16.12-36,36v504c0,19.88,16.12,36,36,36h504c19.88,0,36-16.12,36-36V180c0-19.88-16.12-36-36-36ZM684,684H180s0-504,0-504h504v504Z" style="stroke-width: 0px;"/>
  <path d="M397.08,486.54c-.84-.84-1.86-1.26-3.06-1.26h-33.12c-1.2,0-2.22.42-3.06,1.26s-1.26,1.86-1.26,3.06v7.92c0,12.48,3.18,23.52,9.54,33.12,6.36,9.6,15.24,17.04,26.64,22.32,11.4,5.28,24.42,7.92,39.06,7.92s28.5-2.7,40.14-8.1c11.64-5.4,20.7-13.02,27.18-22.86,6.48-9.84,9.72-21.24,9.72-34.2v-109.8c0-13.44-1.92-25.2-5.76-35.28-5.52-14.88-14.7-26.46-27.54-34.74-12.84-8.28-28.26-12.42-46.26-12.42-17.04,0-31.8,3.84-44.28,11.52-12.48,7.68-21.6,18.36-27.36,32.04-4.8,11.04-7.2,23.88-7.2,38.52,0,17.76,3.36,32.64,10.08,44.64,6,11.28,14.34,19.92,25.02,25.92,10.68,6,23.1,9,37.26,9,17.76,0,31.8-5.04,42.12-15.12.48-.48.96-.6,1.44-.36.48.24.72.72.72,1.44v39.6c0,10.08-3.3,18.3-9.9,24.66-6.6,6.36-15.06,9.54-25.38,9.54s-17.88-3.06-24.12-9.18c-6.24-6.12-9.36-13.98-9.36-23.58v-2.52c0-1.2-.42-2.22-1.26-3.06ZM461.34,411.84c-6.24,12-16.8,18-31.68,18-13.92,0-24.24-5.76-30.96-17.28-4.32-7.68-6.48-16.92-6.48-27.72,0-9.12,1.8-17.64,5.4-25.56,6.24-12.96,17.04-19.44,32.4-19.44s26.64,6.6,32.4,19.8c3.12,6.96,4.68,15,4.68,24.12,0,11.04-1.92,20.4-5.76,28.08Z" style="stroke-width: 0px;"/>
</svg>