<?xml version="1.0" encoding="UTF-8"?>
<svg id="icon" xmlns="http://www.w3.org/2000/svg" viewBox="0 0 864 864">
  <path d="M370.08,464.16c14.23,8,30.79,12,49.68,12,23.68,0,42.4-6.72,56.16-20.16.64-.64,1.27-.79,1.92-.48.64.32.96.96.96,1.92v52.8c0,13.44-4.4,24.4-13.2,32.88-8.8,8.48-20.08,12.72-33.84,12.72s-23.84-4.08-32.16-12.24c-8.33-8.16-12.48-18.64-12.48-31.44v-3.36c0-1.6-.56-2.95-1.68-4.08-1.12-1.12-2.48-1.68-4.08-1.68h-44.16c-1.6,0-2.96.56-4.08,1.68-1.12,1.12-1.68,2.48-1.68,4.08v10.56c0,16.64,4.24,31.37,12.72,44.16,8.47,12.8,20.32,22.73,35.52,29.76,15.2,7.04,32.56,10.56,52.08,10.56s38-3.6,53.52-10.8c15.52-7.2,27.6-17.35,36.24-30.48,8.64-13.12,12.96-28.32,12.96-45.6v-146.4c0-17.92-2.56-33.6-7.68-47.04-7.37-19.84-19.61-35.28-36.72-46.32-17.12-11.04-37.68-16.56-61.68-16.56-22.72,0-42.4,5.12-59.04,15.36-16.64,10.25-28.8,24.48-36.48,42.72-6.41,14.72-9.6,31.84-9.6,51.36,0,23.69,4.48,43.52,13.44,59.52,8,15.04,19.12,26.56,33.36,34.56ZM386.16,335.04c8.32-17.28,22.72-25.92,43.2-25.92s35.52,8.8,43.2,26.4c4.16,9.29,6.24,20,6.24,32.16,0,14.72-2.57,27.2-7.68,37.44-8.33,16-22.4,24-42.24,24-18.56,0-32.33-7.68-41.28-23.04-5.76-10.24-8.64-22.56-8.64-36.96,0-12.16,2.4-23.52,7.2-34.08Z" style="stroke-width: 0px;"/>
</svg>