<?xml version="1.0" encoding="UTF-8"?>
<svg id="icon" xmlns="http://www.w3.org/2000/svg" viewBox="0 0 864 864">
  <path d="M432,144c-159.06,0-288,128.94-288,288s128.94,288,288,288,288-128.94,288-288-128.94-288-288-288ZM365.04,553.68c0,1.2-.42,2.22-1.26,3.06-.84.84-1.86,1.26-3.06,1.26h-33.12c-1.2,0-2.22-.42-3.06-1.26-.84-.84-1.26-1.86-1.26-3.06v-204.48c0-.48-.24-.9-.72-1.26-.48-.36-.96-.42-1.44-.18l-36,11.16c-.48.24-1.08.36-1.8.36-.96,0-1.74-.36-2.34-1.08-.6-.72-.9-1.68-.9-2.88l-1.08-23.76c0-2.4.96-4.08,2.88-5.04l38.88-19.44c1.92-.72,3.72-1.08,5.4-1.08h34.56c1.2,0,2.22.42,3.06,1.26.84.84,1.26,1.86,1.26,3.06v243.36ZM582.48,487.44c0,1.2-.42,2.22-1.26,3.06-.84.84-1.86,1.26-3.06,1.26h-15.12c-1.2,0-1.8.6-1.8,1.8v60.12c0,1.2-.42,2.22-1.26,3.06-.84.84-1.86,1.26-3.06,1.26h-33.12c-1.2,0-2.22-.42-3.06-1.26-.84-.84-1.26-1.86-1.26-3.06v-60.12c0-1.2-.6-1.8-1.8-1.8h-109.44c-1.2,0-2.22-.42-3.06-1.26-.84-.84-1.26-1.86-1.26-3.06v-23.04c0-1.44.36-3.24,1.08-5.4l68.04-149.76c.96-2.16,2.64-3.24,5.04-3.24h35.28c1.68,0,2.82.42,3.42,1.26.6.84.54,2.1-.18,3.78l-64.08,141.12c-.24.48-.24.96,0,1.44.24.48.6.72,1.08.72h64.08c1.2,0,1.8-.6,1.8-1.8v-48.96c0-1.2.42-2.22,1.26-3.06s1.86-1.26,3.06-1.26h33.12c1.2,0,2.22.42,3.06,1.26.84.84,1.26,1.86,1.26,3.06v48.96c0,1.2.6,1.8,1.8,1.8h15.12c1.2,0,2.22.42,3.06,1.26.84.84,1.26,1.86,1.26,3.06v28.8Z" style="stroke-width: 0px;"/>
</svg>