<?xml version="1.0" encoding="UTF-8"?>
<svg id="icon" xmlns="http://www.w3.org/2000/svg" viewBox="0 0 864 864">
  <rect x="180" y="180" width="504" height="504" style="fill: none; stroke-width: 0px;"/>
  <path d="M684,144H180c-19.88,0-36,16.12-36,36v504c0,19.88,16.12,36,36,36h504c19.88,0,36-16.12,36-36V180c0-19.88-16.12-36-36-36ZM684,684H180s0-504,0-504h504v504Z" style="stroke-width: 0px;"/>
  <path d="M333.9,556.74c.84.84,1.86,1.26,3.06,1.26h33.12c1.2,0,2.22-.42,3.06-1.26.84-.84,1.26-1.86,1.26-3.06v-243.36c0-1.2-.42-2.22-1.26-3.06-.84-.84-1.86-1.26-3.06-1.26h-34.56c-1.68,0-3.48.36-5.4,1.08l-38.88,19.44c-1.92.96-2.88,2.64-2.88,5.04l1.08,23.76c0,1.2.3,2.16.9,2.88.6.72,1.38,1.08,2.34,1.08.72,0,1.32-.12,1.8-.36l36-11.16c.48-.24.96-.18,1.44.18.48.36.72.78.72,1.26v204.48c0,1.2.42,2.22,1.26,3.06Z" style="stroke-width: 0px;"/>
  <path d="M538.2,551.16c12-6.48,21.12-15.36,27.36-26.64,6.24-11.76,9.36-24.84,9.36-39.24s-2.64-25.8-7.92-36.36c-5.04-10.32-12.12-18.12-21.24-23.4-.96-.72-.96-1.56,0-2.52,6-4.32,11.28-9.84,15.84-16.56,6.48-9.84,9.72-21.36,9.72-34.56,0-14.88-4.2-28.44-12.6-40.68-6.48-9.36-15.06-16.62-25.74-21.78-10.68-5.16-23.1-7.74-37.26-7.74s-26.04,2.58-37.08,7.74c-11.04,5.16-19.8,12.42-26.28,21.78-8.88,12-13.32,25.56-13.32,40.68,0,12.24,3.12,23.4,9.36,33.48,4.8,7.68,10.2,13.68,16.2,18,.96.96.84,1.8-.36,2.52-8.88,5.04-15.72,12.48-20.52,22.32-5.52,11.52-8.28,23.76-8.28,36.72,0,14.4,3.12,27.24,9.36,38.52,6.24,12.24,15.6,21.54,28.08,27.9,12.48,6.36,26.76,9.54,42.84,9.54s30.48-3.24,42.48-9.72ZM464.76,356.04c2.88-5.76,6.96-10.26,12.24-13.5,5.28-3.24,11.28-4.86,18-4.86,7.2,0,13.44,1.62,18.72,4.86,5.28,3.24,9.48,7.62,12.6,13.14,2.64,5.76,3.96,11.28,3.96,16.56,0,9.36-1.8,16.68-5.4,21.96-6.72,10.08-16.56,15.12-29.52,15.12s-23.04-4.92-28.8-14.76c-4.08-6.48-6.12-13.8-6.12-21.96,0-4.8,1.44-10.32,4.32-16.56ZM464.76,509.04c-4.32-6.96-6.48-15.96-6.48-27s2.04-20.52,6.12-27c6.48-10.56,16.8-15.84,30.96-15.84,15.12,0,25.68,5.52,31.68,16.56,3.84,6.24,5.76,14.88,5.76,25.92,0,12-2.52,21.48-7.56,28.44-6.24,9.84-16.08,14.76-29.52,14.76-14.16,0-24.48-5.28-30.96-15.84Z" style="stroke-width: 0px;"/>
</svg>