<?xml version="1.0" encoding="UTF-8"?>
<svg id="icon" xmlns="http://www.w3.org/2000/svg" viewBox="0 0 864 864">
  <rect x="180" y="180" width="504" height="504" style="fill: none; stroke-width: 0px;"/>
  <path d="M684,144H180c-19.88,0-36,16.12-36,36v504c0,19.88,16.12,36,36,36h504c19.88,0,36-16.12,36-36V180c0-19.88-16.12-36-36-36ZM684,684H180s0-504,0-504h504v504Z" style="stroke-width: 0px;"/>
  <path d="M342,556.74c.84.84,1.86,1.26,3.06,1.26h33.12c1.2,0,2.22-.42,3.06-1.26.84-.84,1.26-1.86,1.26-3.06v-243.36c0-1.2-.42-2.22-1.26-3.06-.84-.84-1.86-1.26-3.06-1.26h-34.56c-1.68,0-3.48.36-5.4,1.08l-38.88,19.44c-1.92.96-2.88,2.64-2.88,5.04l1.08,23.76c0,1.2.3,2.16.9,2.88.6.72,1.38,1.08,2.34,1.08.72,0,1.32-.12,1.8-.36l36-11.16c.48-.24.96-.18,1.44.18.48.36.72.78.72,1.26v204.48c0,1.2.42,2.22,1.26,3.06Z" style="stroke-width: 0px;"/>
  <path d="M577.26,339.12v-28.8c0-1.2-.42-2.22-1.26-3.06-.84-.84-1.86-1.26-3.06-1.26h-151.56c-1.2,0-2.22.42-3.06,1.26s-1.26,1.86-1.26,3.06v49.68c0,1.2.42,2.22,1.26,3.06.84.84,1.86,1.26,3.06,1.26h25.92c1.2,0,2.22-.42,3.06-1.26.84-.84,1.26-1.86,1.26-3.06v-16.2c0-1.2.6-1.8,1.8-1.8h77.4c1.44,0,1.92.72,1.44,2.16l-79.56,208.8c-1.2,3.36,0,5.04,3.6,5.04h35.64c2.64,0,4.32-1.2,5.04-3.6l79.2-209.88c.72-2.16,1.08-3.96,1.08-5.4Z" style="stroke-width: 0px;"/>
</svg>