<?xml version="1.0" encoding="UTF-8"?>
<svg id="icon" xmlns="http://www.w3.org/2000/svg" viewBox="0 0 864 864">
  <path d="M333.12,341.76h34.56c1.6,0,2.96-.55,4.08-1.68,1.12-1.12,1.68-2.48,1.68-4.08v-21.6c0-1.6.79-2.4,2.4-2.4h103.2c1.92,0,2.56.96,1.92,2.88l-106.08,278.4c-1.6,4.49,0,6.72,4.8,6.72h47.52c3.52,0,5.76-1.6,6.72-4.8l105.6-279.84c.96-2.88,1.44-5.28,1.44-7.2v-38.4c0-1.6-.56-2.95-1.68-4.08-1.12-1.12-2.48-1.68-4.08-1.68h-202.08c-1.6,0-2.96.56-4.08,1.68-1.12,1.12-1.68,2.48-1.68,4.08v66.24c0,1.6.55,2.96,1.68,4.08,1.12,1.12,2.48,1.68,4.08,1.68Z" style="stroke-width: 0px;"/>
</svg>