<?xml version="1.0" encoding="UTF-8"?>
<svg id="icon" xmlns="http://www.w3.org/2000/svg" viewBox="0 0 864 864">
  <path d="M432,144c-159.06,0-288,128.94-288,288s128.94,288,288,288,288-128.94,288-288-128.94-288-288-288ZM371.16,553.68c0,1.2-.42,2.22-1.26,3.06-.84.84-1.86,1.26-3.06,1.26h-33.12c-1.2,0-2.22-.42-3.06-1.26-.84-.84-1.26-1.86-1.26-3.06v-204.48c0-.48-.24-.9-.72-1.26-.48-.36-.96-.42-1.44-.18l-36,11.16c-.48.24-1.08.36-1.8.36-.96,0-1.74-.36-2.34-1.08-.6-.72-.9-1.68-.9-2.88l-1.08-23.76c0-2.4.96-4.08,2.88-5.04l38.88-19.44c1.92-.72,3.72-1.08,5.4-1.08h34.56c1.2,0,2.22.42,3.06,1.26.84.84,1.26,1.86,1.26,3.06v243.36ZM577.8,553.68c0,1.2-.42,2.22-1.26,3.06-.84.84-1.86,1.26-3.06,1.26h-154.8c-1.2,0-2.22-.42-3.06-1.26-.84-.84-1.26-1.86-1.26-3.06v-25.92c0-2.16.72-3.96,2.16-5.4,18.24-19.44,39.36-43.32,63.36-71.64l16.92-19.8c22.08-25.68,33.12-45.12,33.12-58.32,0-9.84-3.48-17.88-10.44-24.12-6.96-6.24-15.96-9.36-27-9.36s-19.98,3.12-26.82,9.36c-6.84,6.24-10.26,14.52-10.26,24.84v9.36c0,1.2-.42,2.22-1.26,3.06s-1.86,1.26-3.06,1.26h-33.48c-1.2,0-2.22-.42-3.06-1.26-.84-.84-1.26-1.86-1.26-3.06v-15.48c.48-12.96,4.2-24.24,11.16-33.84,6.96-9.6,16.38-17.04,28.26-22.32,11.88-5.28,25.14-7.92,39.78-7.92,16.08,0,30.12,3,42.12,9,12,6,21.24,14.22,27.72,24.66,6.48,10.44,9.72,22.14,9.72,35.1,0,19.68-10.44,42.36-31.32,68.04-11.52,14.4-30.48,36-56.88,64.8l-13.68,15.12c-.48.48-.66.96-.54,1.44.12.48.54.72,1.26.72h102.6c1.2,0,2.22.42,3.06,1.26.84.84,1.26,1.86,1.26,3.06v27.36Z" style="stroke-width: 0px;"/>
</svg>