<?xml version="1.0" encoding="UTF-8"?>
<svg id="icon" xmlns="http://www.w3.org/2000/svg" viewBox="0 0 864 864">
  <path d="M684,144H180c-19.88,0-36,16.12-36,36v504c0,19.88,16.12,36,36,36h504c19.88,0,36-16.12,36-36V180c0-19.88-16.12-36-36-36ZM368.1,553.68c0,1.2-.42,2.22-1.26,3.06-.84.84-1.86,1.26-3.06,1.26h-33.12c-1.2,0-2.22-.42-3.06-1.26-.84-.84-1.26-1.86-1.26-3.06v-204.48c0-.48-.24-.9-.72-1.26-.48-.36-.96-.42-1.44-.18l-36,11.16c-.48.24-1.08.36-1.8.36-.96,0-1.74-.36-2.34-1.08-.6-.72-.9-1.68-.9-2.88l-1.08-23.76c0-2.4.96-4.08,2.88-5.04l38.88-19.44c1.92-.72,3.72-1.08,5.4-1.08h34.56c1.2,0,2.22.42,3.06,1.26.84.84,1.26,1.86,1.26,3.06v243.36ZM577.98,482.76c0,24.24-7.5,43.5-22.5,57.78-15,14.28-35.1,21.42-60.3,21.42s-45.18-7.14-59.94-21.42c-14.76-14.28-22.14-33.54-22.14-57.78v-101.52c0-24,7.38-43.02,22.14-57.06,14.76-14.04,34.74-21.06,59.94-21.06s45.3,7.02,60.3,21.06c15,14.04,22.5,33.06,22.5,57.06v101.52Z" style="stroke-width: 0px;"/>
  <path d="M495.18,339.12c-12.24,0-22.02,3.66-29.34,10.98-7.32,7.32-10.98,17.22-10.98,29.7v105.12c0,12.48,3.66,22.38,10.98,29.7,7.32,7.32,17.1,10.98,29.34,10.98s22.44-3.66,29.88-10.98c7.44-7.32,11.16-17.22,11.16-29.7v-105.12c0-12.48-3.72-22.38-11.16-29.7-7.44-7.32-17.4-10.98-29.88-10.98Z" style="stroke-width: 0px;"/>
</svg>