<?xml version="1.0" encoding="UTF-8"?>
<svg id="icon" xmlns="http://www.w3.org/2000/svg" viewBox="0 0 864 864">
  <path d="M530.08,199.79c-31.04-13.13-64.04-19.79-98.08-19.79s-67.03,6.66-98.08,19.79c-30,12.69-56.96,30.87-80.11,54.02-23.16,23.15-41.33,50.11-54.02,80.11-13.13,31.04-19.79,64.04-19.79,98.08s6.66,67.03,19.79,98.08c12.69,30,30.87,56.96,54.02,80.11,23.15,23.15,50.11,41.33,80.11,54.02,31.04,13.13,64.04,19.79,98.08,19.79s67.03-6.66,98.08-19.79c30-12.69,56.96-30.87,80.11-54.02,23.16-23.15,41.33-50.11,54.02-80.11,13.13-31.04,19.79-64.04,19.79-98.08s-6.66-67.03-19.79-98.08c-12.69-30-30.87-56.96-54.02-80.11-23.15-23.15-50.11-41.33-80.11-54.02Z" style="fill: none; stroke-width: 0px;"/>
  <path d="M432,144c-159.06,0-288,128.94-288,288s128.94,288,288,288,288-128.94,288-288-128.94-288-288-288ZM684,432c0,34.04-6.66,67.03-19.79,98.08-12.69,30-30.87,56.96-54.02,80.11-23.15,23.15-50.11,41.33-80.11,54.02-31.04,13.13-64.04,19.79-98.08,19.79s-67.03-6.66-98.08-19.79c-30-12.69-56.96-30.87-80.11-54.02-23.16-23.15-41.33-50.11-54.02-80.11-13.13-31.04-19.79-64.04-19.79-98.08s6.66-67.03,19.79-98.08c12.69-30,30.87-56.96,54.02-80.11,23.15-23.15,50.11-41.33,80.11-54.02,31.04-13.13,64.04-19.79,98.08-19.79s67.03,6.66,98.08,19.79c30,12.69,56.96,30.87,80.11,54.02,23.16,23.15,41.33,50.11,54.02,80.11,13.13,31.04,19.79,64.04,19.79,98.08Z" style="stroke-width: 0px;"/>
  <path d="M352.8,517.5c-6,4.68-13.2,7.02-21.6,7.02s-15.12-2.16-20.88-6.48c-5.76-4.32-9.96-10.44-12.6-18.36-.96-2.88-1.56-5.04-1.8-6.48-.72-2.64-2.28-3.96-4.68-3.96h-34.2c-2.88,0-4.32,1.32-4.32,3.96v.72c1.2,6.72,2.76,12.72,4.68,18,5.28,14.88,14.52,26.7,27.72,35.46,13.2,8.76,28.68,13.14,46.44,13.14s33.72-4.5,47.16-13.5c13.44-9,22.68-21.18,27.72-36.54,3.12-10.08,4.68-20.76,4.68-32.04s-1.56-22.68-4.68-33.48c-4.56-14.88-13.02-26.58-25.38-35.1-12.36-8.52-26.94-12.78-43.74-12.78-15.84,0-29.4,4.2-40.68,12.6-.48.48-.96.66-1.44.54-.48-.12-.72-.66-.72-1.62l.36-64.8c0-1.2.6-1.8,1.8-1.8h100.8c1.2,0,2.22-.42,3.06-1.26.84-.84,1.26-1.86,1.26-3.06v-27.36c0-1.2-.42-2.22-1.26-3.06-.84-.84-1.86-1.26-3.06-1.26h-140.04c-1.2,0-2.22.42-3.06,1.26s-1.26,1.86-1.26,3.06v142.56c0,1.21.42,2.22,1.26,3.06.84.84,1.86,1.26,3.06,1.26h34.92c2.4,0,4.08-1.2,5.04-3.6,1.92-6,6.18-10.86,12.78-14.58,6.6-3.72,13.98-5.58,22.14-5.58,8.64,0,15.96,2.1,21.96,6.3,6,4.2,9.84,10.26,11.52,18.18,1.92,6.72,2.88,13.56,2.88,20.52,0,7.44-1.08,14.04-3.24,19.8-2.4,8.16-6.6,14.58-12.6,19.26Z" style="stroke-width: 0px;"/>
  <path d="M609.84,482.76v-101.52c0-24-7.5-43.02-22.5-57.06-15-14.04-35.1-21.06-60.3-21.06s-45.18,7.02-59.94,21.06-22.14,33.06-22.14,57.06v101.52c0,24.24,7.38,43.5,22.14,57.78,14.76,14.28,34.74,21.42,59.94,21.42s45.3-7.14,60.3-21.42c15-14.28,22.5-33.54,22.5-57.78ZM568.08,484.92c0,12.48-3.72,22.38-11.16,29.7-7.44,7.32-17.4,10.98-29.88,10.98s-22.02-3.66-29.34-10.98c-7.32-7.32-10.98-17.22-10.98-29.7v-105.12c0-12.48,3.66-22.38,10.98-29.7s17.1-10.98,29.34-10.98,22.44,3.66,29.88,10.98c7.44,7.32,11.16,17.22,11.16,29.7v105.12Z" style="stroke-width: 0px;"/>
</svg>