<?xml version="1.0" encoding="UTF-8"?>
<svg id="Layer_1" data-name="Layer 1" xmlns="http://www.w3.org/2000/svg" viewBox="0 0 20 20">
  <path d="m11,2.29l1.06-1.05c-.35-.08-.7-.15-1.06-.19v1.24Zm3.24-.23l-3.24,3.23v-1.58l2.14-2.15c.38.14.74.31,1.09.5Zm-3.24,6.23v-1.58l4.11-4.12c.31.22.61.45.89.7l-5,5Zm6.71.71h1.24c-.04-.36-.1-.71-.18-1.06l-1.06,1.06Zm-1.41,0h-1.59l3.24-3.24c.19.36.35.72.49,1.1l-2.14,2.14Zm-4.59,0h1.59l4.11-4.11c-.22-.31-.45-.61-.7-.89l-5,5ZM10,0c.34,0,.67.02,1,.05,4.72.47,8.48,4.23,8.95,8.95.03.33.05.66.05,1h-10V0Z" style="fill-rule: evenodd; stroke-width: 0px;"/>
  <path d="m8,12V3.06c-3.95.49-7,3.86-7,7.94,0,4.42,3.58,8,8,8,4.08,0,7.45-3.05,7.94-7h-8.94Zm9.94,0c-.5,4.5-4.31,8-8.94,8C4.03,20,0,15.97,0,11,0,6.37,3.5,2.55,8,2.05c.33-.03.66-.05,1-.05v9h9c0,.34-.02.67-.06,1Z" style="fill-rule: evenodd; stroke-width: 0px;"/>
</svg>