<?xml version="1.0" encoding="UTF-8"?>
<svg id="Layer_1" data-name="Layer 1" xmlns="http://www.w3.org/2000/svg" viewBox="0 0 20 20">
  <path d="m.38,2.13L6.63.04c.07-.03.14-.05.21-.05s.15.02.21.05l6.1,2.03L19.31.03c.27-.09.57.06.66.33.02.05.03.11.03.16h0v17.9c0,.26-.19.48-.44.52l-6.32,1.05c-.1.02-.2,0-.29-.03l-6.12-2.04-6.15,2.05c-.27.09-.57-.06-.66-.33-.02-.05-.03-.11-.03-.16V2.63c0-.24.16-.44.38-.5H.38Zm9.62,3.14c.43,0,.83.18,1.12.46h0c.29.28.46.68.46,1.12,0,.37-.18.92-.42,1.41l-.02.04c-.24.47-.56.91-.85,1.1-.18.12-.4.11-.57,0h0s0,0,0,0c-.3-.2-.62-.65-.86-1.13-.24-.49-.42-1.03-.42-1.41,0-.44.18-.83.46-1.12.29-.29.68-.46,1.12-.46h0Zm.37,1.2c-.09-.09-.23-.15-.37-.15s-.28.06-.37.15-.15.23-.15.37c0,.21.13.58.31.94.07.14.15.28.22.39.07-.11.14-.23.2-.36l.02-.03c.18-.35.31-.73.31-.94,0-.15-.06-.28-.15-.37h0s0,0,0,0h0Zm7,4.06c.29,0,.53.24.53.53s-.24.53-.53.53-.53-.24-.53-.53.24-.53.53-.53h0Zm-2.11,1.05c.29,0,.53.24.53.53s-.24.53-.53.53-.53-.23-.53-.53.24-.53.53-.53h0Zm-6.32-1.05c-.29,0-.53.24-.53.53s.24.53.53.53.53-.24.53-.53-.24-.53-.53-.53h0Zm2.11,1.05c-.29,0-.53.24-.53.53s.24.53.53.53.53-.23.53-.53-.24-.53-.53-.53h0Zm-6.32-1.05c.29,0,.53.24.53.53s-.24.53-.53.53-.53-.24-.53-.53.24-.53.53-.53h0Zm-2.11,1.05c.29,0,.53.24.53.53s-.24.53-.53.53-.53-.23-.53-.53.24-.53.53-.53h0ZM13.68,3.01v15.85l5.27-.88V1.25s-5.27,1.76-5.27,1.76h0Zm-1.05,15.74V3.01s-5.26-1.76-5.26-1.76v15.74l5.26,1.76h0Zm-6.32-1.76V1.25L1.05,3.01v15.74s5.27-1.76,5.27-1.76h0Z" style="fill: #1b1919; fill-rule: evenodd; stroke-width: 0px;"/>
</svg>