<?xml version="1.0" encoding="UTF-8"?>
<svg id="Layer_1" data-name="Layer 1" xmlns="http://www.w3.org/2000/svg" viewBox="0 0 20 20">
  <path d="m14,5c0,1.42-.55,2.98-1.38,4.17-.86,1.23-1.85,1.83-2.62,1.83s-1.76-.6-2.62-1.83c-.83-1.19-1.38-2.74-1.38-4.17,0-2.42,1.76-4,4-4s4,1.58,4,4h0Zm1,0c0,3.31-2.5,7-5,7s-5-3.69-5-7C5,2,7.24,0,10,0s5,2,5,5h0Zm-7.08,8.24c-.11-.18-.32-.27-.52-.23l-1.78.36c-2.1.42-3.62,2.27-3.62,4.41v1.72c0,.28.22.5.5.5h15c.28,0,.5-.22.5-.5v-1.72c0-2.15-1.51-3.99-3.62-4.41l-1.78-.36c-.2-.04-.41.05-.52.23l-1.65,2.64c-.2.31-.65.31-.85,0l-1.65-2.64h0Zm-2.11,1.11l1.44-.29,1.47,2.35c.59.94,1.96.94,2.54,0l1.47-2.35,1.45.29c1.64.33,2.81,1.76,2.81,3.43v1.22H3v-1.22c0-1.67,1.18-3.1,2.81-3.43h0Z" style="fill-rule: evenodd; stroke-width: 0px;"/>
</svg>