<?xml version="1.0" encoding="UTF-8"?>
<svg id="Layer_1" data-name="Layer 1" xmlns="http://www.w3.org/2000/svg" viewBox="0 0 20 20">
  <path d="m11.03,1.68c.44-.43,1.03-.68,1.65-.68,1.29,0,2.33,1.04,2.33,2.33,0,.62-.25,1.21-.68,1.64L4.98,14.32c-.62.62-.98,1.47-.98,2.35,0,1.84,1.49,3.33,3.33,3.33.88,0,1.73-.35,2.35-.97l2.17-2.18c.19-.19.19-.51,0-.7-.2-.2-.51-.2-.71,0l-2.17,2.17c-.44.43-1.03.68-1.65.68-1.29,0-2.33-1.04-2.33-2.33,0-.62.25-1.21.68-1.64L15.03,5.68c.62-.62.97-1.47.97-2.35,0-1.84-1.49-3.33-3.33-3.33-.88,0-1.73.35-2.35.97l-2.17,2.18c-.19.19-.19.51,0,.7.2.2.51.2.71,0l2.17-2.17Zm6.97,11.82c0,.83-.67,1.5-1.5,1.5s-1.5-.67-1.5-1.5.67-1.5,1.5-1.5,1.5.67,1.5,1.5Zm-1,0c0,.28-.22.5-.5.5s-.5-.22-.5-.5.22-.5.5-.5.5.22.5.5Zm1.62,1.27l-2.12,3.35-2.12-3.35c-1.03-1.63.14-3.77,2.12-3.77s3.14,2.14,2.12,3.77Zm.85.53l-2.96,4.7-2.96-4.7c-1.45-2.31.22-5.3,2.96-5.3s4.42,2.99,2.96,5.3ZM5,3.5c0,.83-.67,1.5-1.5,1.5s-1.5-.67-1.5-1.5.67-1.5,1.5-1.5,1.5.67,1.5,1.5Zm-1,0c0,.28-.22.5-.5.5s-.5-.22-.5-.5.22-.5.5-.5.5.22.5.5Zm1.62,1.27l-2.12,3.35-2.12-3.35c-1.03-1.63.14-3.77,2.12-3.77s3.14,2.14,2.12,3.77Zm.85.53l-2.96,4.7L.54,5.3C-.92,2.99.76,0,3.5,0s4.42,2.99,2.96,5.3Z" style="fill-rule: evenodd; stroke-width: 0px;"/>
</svg>