<?xml version="1.0" encoding="UTF-8"?>
<svg id="Layer_1" data-name="Layer 1" xmlns="http://www.w3.org/2000/svg" viewBox="0 0 20 20">
  <path d="m10,20c-.63-.63-1.31-1.27-2.03-1.94C4.31,14.6,0,10.54,0,5.55c0-1.53.59-2.92,1.54-3.92l.03-.03c.95-.99,2.26-1.6,3.69-1.6,1.69,0,3.11,1,4.11,2.24.23.29.44.58.62.88.19-.3.39-.59.62-.88,1.01-1.24,2.42-2.24,4.11-2.24,1.45,0,2.77.62,3.72,1.63.95,1,1.54,2.39,1.54,3.92,0,4.99-4.32,9.07-7.99,12.52-.71.66-1.39,1.31-2.01,1.93Zm0-14.97l-.85-1.38c-.92-1.5-2.31-2.65-3.88-2.65-1.15,0-2.2.48-2.97,1.29h-.01s-.03.04-.03.04c-.77.82-1.26,1.96-1.25,3.22h0c0,2.63,1.35,5.05,3.32,7.37,1.33,1.57,2.83,2.99,4.29,4.35.47.45.94.89,1.4,1.33.45-.44.91-.87,1.38-1.31,1.45-1.37,2.97-2.8,4.3-4.37,1.97-2.32,3.32-4.74,3.32-7.37,0-1.27-.49-2.41-1.27-3.23-.78-.83-1.84-1.32-3-1.32-1.57,0-2.96,1.15-3.88,2.65l-.85,1.38Z" style="fill-rule: evenodd; stroke-width: 0px;"/>
</svg>