<?xml version="1.0" encoding="UTF-8"?>
<svg id="Layer_1" data-name="Layer 1" xmlns="http://www.w3.org/2000/svg" viewBox="0 0 20 20">
  <path d="m13,.5c0-.28.22-.5.5-.5s.5.22.5.5v2c0,.28-.22.5-.5.5s-.5-.22-.5-.5V.5Z" style="stroke-width: 0px;"/>
  <path d="m17.5,7c-.28,0-.5-.22-.5-.5s.22-.5.5-.5h2c.28,0,.5.22.5.5s-.22.5-.5.5h-2Z" style="stroke-width: 0px;"/>
  <path d="m8.9,2.61c-.19-.2-.19-.51,0-.71.19-.2.51-.2.71,0l1.41,1.41c.19.2.19.51,0,.71s-.51.19-.71,0l-1.41-1.41Z" style="stroke-width: 0px;"/>
  <path d="m15.98,9.68c-.2-.2-.2-.51,0-.71.19-.19.51-.19.71,0l1.41,1.41c.19.2.19.51,0,.71s-.51.19-.71,0l-1.41-1.41Z" style="stroke-width: 0px;"/>
  <path d="m16.68,4.02c-.2.19-.51.19-.71,0s-.19-.51,0-.71l1.41-1.41c.2-.19.51-.19.71,0,.2.19.2.51,0,.71l-1.41,1.41Z" style="stroke-width: 0px;"/>
  <path d="m14.92,8.56c.65-.45,1.08-1.2,1.08-2.06,0-1.38-1.12-2.5-2.5-2.5-.85,0-1.61.43-2.06,1.08l.73.73c.25-.48.75-.81,1.33-.81.83,0,1.5.67,1.5,1.5,0,.58-.33,1.08-.81,1.33l.73.73Z" style="stroke-width: 0px;"/>
  <path d="m6,17h4v-3h-4v3Zm-1-3c0-.55.45-1,1-1h4c.55,0,1,.45,1,1v3c0,.55-.45,1-1,1h-4c-.55,0-1-.45-1-1v-3Z" style="fill-rule: evenodd; stroke-width: 0px;"/>
  <path d="m14.22,11l-5.71-5.79c-.28-.28-.73-.28-1.01,0L1.78,11h12.43Zm-12.22-1.64v-3.36h1v2.34l-1,1.01Zm0,9.64h12v-7H2v7Zm13.87-7.75l-6.66-6.74c-.67-.68-1.76-.68-2.43,0l-2.78,2.82v-1.33c0-.55-.45-1-1-1h-1c-.55,0-1,.45-1,1v4.37l-.87.88c-.27.28-.08.75.3.75h.57v7h-.5c-.28,0-.5.22-.5.5s.22.5.5.5h19c.28,0,.5-.22.5-.5s-.22-.5-.5-.5h-4.5v-7h.57c.38,0,.58-.47.3-.75Z" style="fill-rule: evenodd; stroke-width: 0px;"/>
</svg>