<?xml version="1.0" encoding="UTF-8"?>
<svg id="Layer_1" data-name="Layer 1" xmlns="http://www.w3.org/2000/svg" viewBox="0 0 20 20">
  <path d="m1.5,6.73c-.6-.34-1-.99-1-1.73V1C.5.45.95,0,1.5,0h17c.55,0,1,.45,1,1v4c0,.74-.4,1.39-1,1.73v12.27c0,.55-.45,1-1,1H2.5c-.55,0-1-.45-1-1V6.73h0Zm16,12.27h-7v-9c0-.55-.45-1-1-1h-5c-.55,0-1,.45-1,1v9h-1V7c.6,0,1.13-.26,1.5-.68.37.41.9.68,1.5.68s1.13-.26,1.5-.68c.37.41.9.68,1.5.68s1.13-.26,1.5-.68c.37.41.9.68,1.5.68s1.13-.26,1.5-.68c.37.41.9.68,1.5.68s1.13-.26,1.5-.68c.37.41.9.68,1.5.68v12h0Zm-8,0h-5v-9h5v9h0ZM3.5,1h-2v4c0,.55.45,1,1,1s1-.45,1-1V1h0Zm12,0v4c0,.55-.45,1-1,1s-1-.45-1-1V1h2Zm1,4V1h2v4c0,.55-.45,1-1,1s-1-.45-1-1h0ZM9.5,1h-2v4c0,.55.45,1,1,1s1-.45,1-1V1h0Zm1,0v4c0,.55.45,1,1,1s1-.45,1-1V1h-2Zm-4,0v4c0,.55-.45,1-1,1s-1-.45-1-1V1h2Zm6,9h3v3h-3v-3h0Zm-1,0c0-.55.45-1,1-1h3c.55,0,1,.45,1,1v3c0,.55-.45,1-1,1h-3c-.55,0-1-.45-1-1v-3h0Z" style="fill-rule: evenodd; stroke-width: 0px;"/>
</svg>