<?xml version="1.0" encoding="UTF-8"?>
<svg id="Layer_1" data-name="Layer 1" xmlns="http://www.w3.org/2000/svg" viewBox="0 0 20 20">
  <path d="m3.16,18.95h13.68c1.16,0,2.11-.94,2.11-2.11V3.16c0-1.16-.94-2.11-2.11-2.11H3.16c-1.16,0-2.11.94-2.11,2.11v13.68c0,1.16.94,2.11,2.11,2.11h0Zm-3.16-2.11c0,1.74,1.41,3.16,3.16,3.16h13.68c1.74,0,3.16-1.41,3.16-3.16V3.16C20,1.41,18.59,0,16.84,0H3.16C1.41,0,0,1.41,0,3.16v13.68h0Zm15.26-3.16c.29,0,.53-.24.53-.53s-.24-.53-.53-.53H6.01l2.26-2.26c.21-.2.21-.54,0-.74-.21-.21-.54-.21-.74,0l-3.13,3.13c-.11.1-.18.24-.18.4s.07.3.18.4l3.13,3.13c.21.2.54.2.74,0,.2-.21.2-.54,0-.74l-2.26-2.26h9.26ZM4.74,7.37c-.29,0-.53-.24-.53-.53s.24-.53.53-.53h9.26l-2.26-2.26c-.2-.2-.21-.54,0-.74.21-.21.54-.21.74,0l3.13,3.13c.11.1.18.24.18.4s-.07.3-.18.4l-3.13,3.13c-.21.2-.54.2-.74,0-.2-.21-.2-.54,0-.74l2.26-2.26H4.74Z" style="fill-rule: evenodd; stroke-width: 0px;"/>
</svg>