<?xml version="1.0" encoding="UTF-8"?>
<svg id="Layer_1" data-name="Layer 1" xmlns="http://www.w3.org/2000/svg" viewBox="0 0 20 20">
  <path d="m10,1C5.03,1,1,5.03,1,10s4.03,9,9,9h.5c.28,0,.5.22.5.5s-.22.5-.5.5h-.5C4.48,20,0,15.52,0,10S4.48,0,10,0h1c4.97,0,9,4.03,9,9s-4.03,9-9,9h-1c-4.42,0-8-3.58-8-8S5.58,2,10,2h1c3.87,0,7,3.13,7,7s-3.13,7-7,7h-1c-3.31,0-6-2.69-6-6s2.69-6,6-6h1c2.76,0,5,2.24,5,5s-2.24,5-5,5h-1c-2.21,0-4-1.79-4-4s1.79-4,4-4h1c1.66,0,3,1.34,3,3s-1.34,3-3,3h-1c-1.1,0-2-.9-2-2s.9-2,2-2h.5c.83,0,1.5.67,1.5,1.5,0,.28-.22.5-.5.5s-.5-.22-.5-.5-.22-.5-.5-.5h-.5c-.55,0-1,.45-1,1s.45,1,1,1h1c1.1,0,2-.9,2-2s-.9-2-2-2h-1c-1.66,0-3,1.34-3,3s1.34,3,3,3h1c2.21,0,4-1.79,4-4s-1.79-4-4-4h-1c-2.76,0-5,2.24-5,5s2.24,5,5,5h1c3.31,0,6-2.69,6-6s-2.69-6-6-6h-1c-3.87,0-7,3.13-7,7s3.13,7,7,7h1c4.42,0,8-3.58,8-8S15.42,1,11,1h-1Z" style="stroke-width: 0px;"/>
</svg>