<?xml version="1.0" encoding="UTF-8"?>
<svg id="Layer_1" data-name="Layer 1" xmlns="http://www.w3.org/2000/svg" viewBox="0 0 20 20">
  <path d="m14,1H6c-1.44,0-2.42,0-3.16.1-.71.09-1.03.26-1.26.48-.22.22-.39.55-.48,1.26-.1.73-.1,1.72-.1,3.16v4.5c0,.28-.22.5-.5.5s-.5-.22-.5-.5v-4.5C0,3.17,0,1.76.88.88c.88-.88,2.29-.88,5.12-.88h8c2.83,0,4.24,0,5.12.88.88.88.88,2.29.88,5.12v8c0,2.83,0,4.24-.88,5.12-.88.88-2.29.88-5.12.88H6c-2.83,0-4.24,0-5.12-.88-.88-.88-.88-2.29-.88-5.12h0c0-.46.18-.89.5-1.21l5.64-5.64c.2-.19.51-.19.71,0l5.65,5.65,2.15-2.15c.2-.19.51-.19.71,0l2.49,2.49c.1.1.16.28.15.42,0,.45-.53.62-.85.29l-2.15-2.15-1.79,1.79,1.65,1.65c.19.2.19.51,0,.71-.2.19-.51.19-.71,0l-7.65-7.65L1.58,13.13c-.28.28-.42.42-.5.6-.08.18-.08.38-.09.77-.01.89,0,1.78.11,2.66.09.71.26,1.03.48,1.25.22.22.55.39,1.26.48.73.1,1.72.1,3.16.1h8c1.44,0,2.42,0,3.16-.1.71-.09,1.03-.26,1.25-.48.22-.22.39-.55.48-1.25.1-.74.1-1.72.1-3.16V6c0-1.44,0-2.42-.1-3.16-.09-.71-.26-1.03-.48-1.26-.22-.22-.55-.39-1.25-.48-.73-.1-1.72-.1-3.16-.1h0Z" style="stroke-width: 0px;"/>
  <path d="m17,6c0,1.1-.9,2-2,2s-2-.9-2-2,.9-2,2-2,2,.9,2,2h0Zm-1,0c0,.55-.45,1-1,1s-1-.45-1-1,.45-1,1-1,1,.45,1,1h0Z" style="fill-rule: evenodd; stroke-width: 0px;"/>
</svg>