<?xml version="1.0" encoding="UTF-8"?>
<svg id="Layer_1" data-name="Layer 1" xmlns="http://www.w3.org/2000/svg" viewBox="0 0 20 20">
  <path d="m11.24,19.93c.15.09.33.1.49.02l1.78-.89,1.78.89c.16.08.34.07.49-.02.15-.09.24-.25.24-.43v-2.5c1.11,0,2-.9,2-2V2C18,.9,17.11,0,16,0H4C2.89,0,2,.9,2,2v13c0,1.11.9,2,2,2h7v2.5c0,.17.09.33.24.43h0Zm-5.24-3.93V1h10c.55,0,1,.45,1,1v13c0,.55-.45,1-1,1H6ZM5,1v15h-1c-.55,0-1-.45-1-1V2c0-.55.45-1,1-1h1Zm10,17.69v-1.69h-3v1.69l1.28-.64c.14-.07.31-.07.45,0l1.28.64h0Z" style="fill-rule: evenodd; stroke-width: 0px;"/>
</svg>