<?xml version="1.0" encoding="UTF-8"?>
<svg id="Layer_1" data-name="Layer 1" xmlns="http://www.w3.org/2000/svg" viewBox="0 0 20 20">
  <path d="m19.5,10.03v6.97c0,.28-.22.5-.5.5H1c-.28,0-.5-.22-.5-.5v-7.02h0v-.02h0s0-.01,0-.01h0s0-.01,0-.01h0s0-.01,0-.01h0s0-.03,0-.03h0s0-.02,0-.02h0s0-.01,0-.01h0s0,0,0,0h0s0,0,0,0h0s0-.01,0-.01h0s0-.01,0-.01h0s0,0,0,0h0s0,0,0,0h0s0-.02,0-.02h0s0,0,0,0h0s0,0,0,0v-.02s.01,0,.01,0h0s0,0,0,0h0s0-.01,0-.01h0s0,0,0,0h0s0,0,0,0h0s3.99-6.98,3.99-6.98c.09-.16.26-.25.43-.25h10c.2,0,.37.12.45.29l3.96,6.93c.06.08.09.18.09.28v.03h0Zm-17.64-.53h3.56c.51,0,.98.14,1.37.4.39.26.72.63.92,1.1.19.45.52.83.93,1.09.39.26.86.41,1.37.41s.98-.15,1.37-.41c.41-.26.73-.65.93-1.09.2-.46.52-.84.92-1.1.4-.26.87-.4,1.37-.4h3.56l-3.43-6H5.29l-3.43,6h0Zm16.64,1h-3.92c-.31,0-.59.08-.83.24-.24.15-.43.38-.55.66-.27.63-.73,1.16-1.29,1.53-.55.36-1.21.57-1.91.57s-1.36-.21-1.92-.57c-.56-.37-1.02-.9-1.29-1.53-.12-.28-.31-.51-.55-.66-.23-.15-.52-.24-.83-.24H1.5v6h17v-6h0Z" style="fill-rule: evenodd; stroke-width: 0px;"/>
</svg>