<?xml version="1.0" encoding="UTF-8"?>
<svg id="Layer_1" data-name="Layer 1" xmlns="http://www.w3.org/2000/svg" viewBox="0 0 20 20">
  <path d="m13.32,3.4l-.38-.6c-.67-1.07-1.9-1.8-3.32-1.8-1.85,0-3.38,1.25-3.77,2.88l-.2.81-.83-.05c-.32-.02-.6.08-.83.25-.3.22-.49.57-.49.93,0,.62.53,1.18,1.25,1.18h3.32s.08.02.12.04l.03.02.06.03c.13.09.22.24.22.41,0,.13-.05.25-.14.34-.09.1-.22.16-.36.16h-3.25c-1.24,0-2.25-.98-2.25-2.18s1.11-2.25,2.38-2.18c.51-2.09,2.44-3.64,4.74-3.64,1.76,0,3.31.91,4.16,2.26,1.84-.43,3.71.97,3.71,2.83,0,1.61-1.34,2.91-3,2.91h-2.5c-.83,0-1.5.67-1.5,1.5v.5h4.5c1.38,0,2.5,1.12,2.5,2.5v.5h.8c.66,0,1.2.54,1.2,1.2v4.6c0,.33-.13.63-.35.85-.04.04-.09.08-.14.12l-.08.06s-.08.04-.12.06c-.16.07-.33.11-.51.11h-2.6c-.66,0-1.2-.54-1.2-1.2v-4.6c0-.66.54-1.2,1.2-1.2h.8v-.5c0-.83-.67-1.5-1.5-1.5h-4.5v2h.8c.66,0,1.2.54,1.2,1.2v4.6c0,.66-.54,1.2-1.2,1.2h-2.6c-.66,0-1.2-.54-1.2-1.2v-4.6c0-.66.54-1.2,1.2-1.2h.8v-2h-4.5c-.83,0-1.5.67-1.5,1.5v.5h.8c.66,0,1.2.54,1.2,1.2v4.6c0,.66-.54,1.2-1.2,1.2H1.7c-.66,0-1.2-.54-1.2-1.2v-4.6c0-.39.19-.74.48-.96l.05-.03.09-.05s.07-.04.11-.06c.14-.06.3-.09.47-.09h.8v-.5c0-1.38,1.12-2.5,2.5-2.5h4.5v-.5c0-1.38,1.12-2.5,2.5-2.5h2.5c1.13,0,2-.88,2-1.91,0-1.17-1.22-2.15-2.48-1.85l-.69.16h0Zm2.18,14.6v.8c0,.07.03.13.09.16.02.01.03.02.06.03h.03s.03,0,.03,0h2.6s.05,0,.07-.01c.03-.01.06-.03.08-.06.03-.03.05-.08.05-.13v-.8h-3Zm0-1h3v-1h-3v1h0Zm-7,0h3v-1h-3v1h0Zm0,1.8v-.8h3v.8c0,.11-.09.2-.2.2h-2.6c-.11,0-.2-.09-.2-.2h0Zm-7-.8v.8s0,.05.01.08c0,.02.02.04.03.06.04.04.09.07.15.07h2.6s.07-.01.1-.03c.02-.01.04-.03.06-.05.03-.04.05-.08.05-.13v-.8H1.5Zm0-1h3v-1H1.5v1h0Zm17-2.8v.8h-3v-.8c0-.11.09-.2.2-.2h2.6s.09.02.12.04l.02.02.02.02s.02.04.03.06c0,.02,0,.03,0,.05h0Zm-7,.8h-3v-.8c0-.06.02-.1.06-.14.04-.04.09-.06.14-.06h2.6s.04,0,.06,0h.02s.05.04.07.06c.01.02.03.04.03.06v.02s.01.04.01.04v.8h0Zm-7-.8v.8H1.5v-.8s.01-.08.04-.11c.02-.03.05-.06.09-.07h.03s.03-.01.05-.01h2.6c.11,0,.2.09.2.2h0Z" style="fill-rule: evenodd; stroke-width: 0px;"/>
</svg>