<?xml version="1.0" encoding="UTF-8"?>
<svg id="Layer_1" data-name="Layer 1" xmlns="http://www.w3.org/2000/svg" viewBox="0 0 20 20">
  <path d="m10,3.49c0-.13-.05-.25-.15-.35-.1-.1-.23-.15-.35-.15s-.26.05-.35.15c-.1.1-.15.22-.15.35s.05.26.15.36c.1.09.23.14.35.14.12,0,.24-.04.34-.13h.02c.1-.11.15-.24.15-.37Zm.56-1.06c.29.29.44.68.44,1.06s-.15.77-.44,1.06l-.03.03c-.29.28-.66.41-1.03.41s-.76-.14-1.06-.44h0c-.29-.29-.44-.67-.44-1.06s.15-.77.44-1.06c.29-.29.68-.44,1.06-.44s.77.15,1.06.44Zm-3.38.2s-.02.05-.03.07c-.05.13-.08.26-.11.4-.1.51-.05,1.05.15,1.53.43.9,1.37,1.99,2.21,2.98l.1.11.1-.11c.84-.99,1.78-2.08,2.21-2.98.19-.48.24-1.02.15-1.53-.03-.14-.06-.27-.11-.4,0-.02-.02-.05-.03-.07-.12-.32-.31-.62-.56-.88-.49-.51-1.13-.76-1.77-.76-.32,0-.65.07-.95.2-.3.12-.57.31-.81.56-.25.26-.43.56-.56.88Zm-.81-.64c.16-.34.38-.65.65-.93.33-.35.72-.61,1.13-.79C8.58.09,9.04,0,9.5,0c.9,0,1.8.36,2.48,1.07.27.28.49.59.65.93h5.87c.28,0,.5.23.5.5v17.01c0,.28-.22.5-.5.5H1.49c-.28,0-.5-.22-.5-.5V2.49c0-.27.22-.5.5-.5h4.87ZM2,14.29l3.8-3.79-3.8-3.8v7.59Zm9.51,1.92l-2.79,2.79h5.59l-2.79-2.79Zm-5-5.01L2,15.71v3.29h5.3l3.5-3.5c-1.42-1.42-2.77-2.77-4.29-4.3Zm4.21,2.8l5,5h2.3V6.7l-7.3,7.3Zm-1.59-5.18l-.47-.56c-.89-1.04-1.88-2.2-2.36-3.22v-.03c-.27-.64-.34-1.34-.23-2.02H2v2.3l8,8,8.01-8v-2.3h-5.06c.11.68.04,1.38-.22,2.02l-.03.06c-.49,1.01-1.47,2.16-2.35,3.19l-.47.56c-.18.21-.49.24-.7.06l-.06-.06Z" style="fill-rule: evenodd; stroke-width: 0px;"/>
</svg>