<?xml version="1.0" encoding="UTF-8"?>
<svg id="foreground" xmlns="http://www.w3.org/2000/svg" viewBox="0 0 20 20">
  <path d="m20,10c0,5.52-4.48,10-10,10-1.81,0-3.52-.48-4.99-1.33-1.08-.75-1.31-1.07-1.39-1.73-.07-.6.13-1.22.46-1.72.61-.91,1.64-1.32,2.64-1.64.28-.09.56-.17.84-.25l.12-.03c.36.29.69.53,1.03.74-.32.1-.65.19-.95.28-.26.07-.51.15-.74.22-1,.31-1.71.65-2.11,1.24-.16.24-.26.52-.32.82-.07.34.08.68.37.87,1.44.97,3.17,1.53,5.03,1.53,2.06,0,3.96-.69,5.48-1.86.31-.24.61-.5.89-.78,1.63-1.63,2.63-3.88,2.63-6.36,0-4.97-4.03-9-9-9S1,5.03,1,10c0,2.04.68,3.92,1.82,5.43-.14.42-.22.86-.22,1.3C.99,14.96,0,12.59,0,10,0,4.48,4.48,0,10,0s10,4.48,10,10h0Z" style="stroke-width: 0px;"/>
  <path d="m15.92,15.22s.04.06.06.09c-.23.26-.48.51-.75.74-.04-.1-.09-.19-.15-.28-.39-.59-1.11-.92-2.11-1.24-2.29-.71-3.98-1.25-5.62-2.89h-.01c-.82-.92-1.34-2.11-1.34-3.65,0-1.2.42-2.21,1.15-2.92.73-.71,1.74-1.08,2.85-1.08s2.12.37,2.85,1.08c.73.71,1.15,1.72,1.15,2.92,0,1.87-.77,3.22-1.92,4.23-.41-.13-.77-.26-1.08-.41,1.22-.9,2-2.1,2-3.82,0-.96-.33-1.7-.85-2.2-.52-.5-1.26-.8-2.15-.8s-1.63.3-2.15.8c-.52.5-.85,1.24-.85,2.2,0,3.63,3.33,4.67,6.12,5.54l.16.05c1,.31,2.04.73,2.64,1.64h0Z" style="stroke-width: 0px;"/>
</svg>