<?xml version="1.0" encoding="UTF-8"?>
<svg id="Layer_1" data-name="Layer 1" xmlns="http://www.w3.org/2000/svg" viewBox="0 0 20 20">
  <path d="m.79,13.55l3.48-1.55-3.48-1.55c-.25-.11-.37-.4-.25-.66.05-.12.15-.21.25-.25l3.48-1.55-3.48-1.55c-.25-.11-.37-.41-.25-.66.05-.12.15-.21.25-.25L9.8,1.54c.13-.06.28-.05.4,0l9.01,4c.25.11.37.41.25.66-.05.12-.14.21-.25.25l-3.48,1.55,3.48,1.55c.25.11.37.4.25.66-.05.12-.14.21-.25.25l-3.48,1.55,3.48,1.55c.25.11.37.41.25.66-.05.12-.14.21-.25.26l-9.01,4c-.13.06-.28.05-.4,0L.79,14.46c-.25-.11-.37-.41-.25-.66.05-.12.15-.21.25-.25h0Zm4.89-6.01h0s0,0,0,0l4.3,1.91,4.3-1.91h0s0,0,0,0l3.47-1.54-7.78-3.46-7.78,3.46,3.47,1.54h0Zm0,4h0s0,0,0,0l4.3,1.91,4.3-1.91h.01s3.47-1.55,3.47-1.55l-3.28-1.46-4.3,1.91h0s0,0,0,0h0s0,0,0,0h0s0,0,0,0h0s0,0,0,0h0s0,0,0,0h0s0,0,0,0h0s0,0,0,0h0s0,0,0,0h0s0,0,0,0h0s0,0,0,0h0s0,0,0,0h0s0,0,0,0h0s0,0,0,0h0s0,0,0,0h-.01s0,0,0,0h-.02s0,0,0,0h-.01s-.04,0-.04,0h-.05s-.03,0-.03,0h-.02s0,0,0,0h-.01s0,0,0,0h0s0,0,0,0h-.01s0,0,0,0h0s0,0,0,0h0s0,0,0,0h0s0,0,0,0h-.02s0,0,0,0h0s0,0,0,0h0s0,0,0,0h0s0,0,0,0h0s0,0,0,0h0s0,0,0,0h0s-4.3-1.91-4.3-1.91l-3.28,1.46,3.47,1.54h0Zm-.19,1.01l-3.28,1.46,7.78,3.46,7.78-3.46-3.28-1.46-4.3,1.91h0s0,0,0,0h0s0,0,0,0h0s0,0,0,0h0s0,0,0,0h0s0,0,0,0h0s0,0,0,0h0s0,0,0,0h0s0,0,0,0h0s0,0,0,0h0s0,0,0,0h0s0,0,0,0h0s0,0,0,0h0s0,0,0,0h0s0,0,0,0h0s-.02,0-.02,0h-.02s-.04,0-.04,0h-.05s-.03,0-.03,0h-.01s0,0,0,0h-.01s0,0,0,0h0s0,0,0,0h0s0,0,0,0h0s0,0,0,0h0s0,0,0,0h0s0,0,0,0h0s0,0,0,0h0s0,0,0,0h-.01s0,0,0,0h0s0,0,0,0h-.01s0,0,0,0h0s0,0,0,0h0s-4.3-1.91-4.3-1.91h0Z" style="fill: #1b1919; fill-rule: evenodd; stroke-width: 0px;"/>
</svg>