<?xml version="1.0" encoding="UTF-8"?>
<svg id="Layer_1" data-name="Layer 1" xmlns="http://www.w3.org/2000/svg" viewBox="0 0 20 20">
  <path d="m10,0C12.76,0,15.26,1.12,17.07,2.93c1.81,1.81,2.93,4.31,2.93,7.07s-1.12,5.26-2.93,7.07-4.31,2.93-7.07,2.93-5.26-1.12-7.07-2.93c-1.81-1.81-2.93-4.31-2.93-7.07,0-.44.03-.89.09-1.33.06-.44.15-.88.26-1.31.06-.21.25-.36.46-.37,1.67-.08,3.17-.79,4.28-1.9l.02-.02c1.09-1.11,1.79-2.6,1.87-4.26,0-.23.18-.42.39-.46.42-.11.85-.2,1.28-.26C9.11.03,9.56,0,10,0h0Zm-5,8c.55,0,1.05.22,1.41.59.36.36.59.86.59,1.41s-.22,1.05-.59,1.42c-.36.36-.86.59-1.41.59s-1.05-.22-1.41-.59c-.36-.36-.59-.86-.59-1.42s.22-1.05.59-1.41c.36-.36.86-.59,1.42-.59h0Zm.71,1.29c-.18-.18-.43-.29-.71-.29s-.53.11-.71.29c-.18.18-.29.43-.29.71s.11.53.29.71c.18.18.43.29.71.29s.53-.11.71-.29c.18-.18.29-.43.29-.71s-.11-.53-.29-.71h0Zm2.29,3.71c.55,0,1.05.22,1.41.59.36.36.59.86.59,1.41s-.22,1.05-.59,1.41c-.36.36-.86.59-1.41.59s-1.05-.22-1.41-.59c-.36-.36-.59-.86-.59-1.41s.22-1.05.59-1.41c.36-.36.86-.59,1.42-.59h0Zm.71,1.29c-.18-.18-.43-.29-.71-.29s-.53.11-.71.29c-.18.18-.29.43-.29.71s.11.53.29.71c.18.18.43.29.71.29s.53-.11.71-.29c.18-.18.29-.43.29-.71s-.11-.53-.29-.71h0Zm5.29-2.79c.55,0,1.05.22,1.41.59.36.36.59.86.59,1.41s-.22,1.05-.59,1.41c-.36.36-.86.59-1.41.59s-1.05-.22-1.41-.59c-.36-.36-.59-.86-.59-1.41s.22-1.05.59-1.41c.36-.36.86-.59,1.41-.59h0Zm.71,1.29c-.18-.18-.43-.29-.71-.29s-.53.11-.71.29c-.18.18-.29.43-.29.71s.11.53.29.71c.18.18.43.29.71.29s.53-.11.71-.29c.18-.18.29-.43.29-.71s-.11-.53-.29-.71h0Zm.29-6.79c.55,0,1.05.22,1.42.59.36.36.59.86.59,1.41s-.22,1.05-.59,1.41c-.36.36-.86.59-1.42.59s-1.05-.22-1.41-.59c-.36-.36-.59-.86-.59-1.41s.22-1.05.59-1.41c.36-.36.86-.59,1.41-.59h0Zm.71,1.29c-.18-.18-.43-.29-.71-.29s-.53.11-.71.29c-.18.18-.29.43-.29.71s.11.53.29.71c.18.18.43.29.71.29s.53-.11.71-.29.29-.43.29-.71-.11-.53-.29-.71h0ZM11,2c.55,0,1.05.22,1.41.59.36.36.59.86.59,1.41s-.22,1.05-.59,1.41c-.36.36-.86.59-1.41.59s-1.05-.22-1.41-.59c-.36-.36-.59-.86-.59-1.41s.22-1.05.59-1.41.86-.59,1.42-.59h0Zm.71,1.29c-.18-.18-.43-.29-.71-.29s-.53.11-.71.29c-.18.18-.29.43-.29.71s.11.53.29.71c.18.18.43.29.71.29s.53-.11.71-.29c.18-.18.29-.43.29-.71s-.11-.53-.29-.71h0Zm4.66.34c-1.63-1.63-3.88-2.64-6.36-2.64-.42,0-.82.03-1.2.08-.28.04-.56.09-.83.15-.17,1.77-.95,3.35-2.13,4.54l-.03.03c-1.19,1.2-2.79,1.99-4.57,2.16-.06.27-.11.55-.15.83-.05.38-.08.79-.08,1.2,0,2.49,1.01,4.74,2.64,6.36,1.63,1.63,3.88,2.64,6.36,2.64s4.74-1.01,6.36-2.64c1.63-1.63,2.64-3.88,2.64-6.36s-1.01-4.74-2.64-6.36h0Z" style="fill: #1b1919; fill-rule: evenodd; stroke-width: 0px;"/>
</svg>