<?xml version="1.0" encoding="UTF-8"?>
<svg id="Layer_1" data-name="Layer 1" xmlns="http://www.w3.org/2000/svg" viewBox="0 0 20 20">
  <path d="m19,3c0,1.66-1.34,3-3,3-.92,0-1.75-.42-2.3-1.08l-6.89,4.02s0,0,0,0c.12.33.19.69.19,1.06s-.07.73-.19,1.06l6.89,4.02c.55-.66,1.38-1.08,2.3-1.08,1.66,0,3,1.34,3,3s-1.34,3-3,3-3-1.34-3-3c0-.37.07-.73.19-1.06,0,0,0,0,0,0l-6.89-4.02c-.55.66-1.38,1.08-2.3,1.08-1.66,0-3-1.34-3-3s1.34-3,3-3c.92,0,1.75.42,2.3,1.08l6.89-4.02c-.12-.33-.19-.69-.19-1.06,0-1.66,1.34-3,3-3s3,1.34,3,3h0Zm-1,0c0,1.11-.89,2-2,2s-2-.89-2-2,.9-2,2-2,2,.9,2,2h0Zm-12,7c0,1.1-.89,2-2,2s-2-.9-2-2,.9-2,2-2,2,.9,2,2h0Zm10,9c1.11,0,2-.9,2-2s-.89-2-2-2-2,.9-2,2,.9,2,2,2h0Z" style="fill-rule: evenodd; stroke-width: 0px;"/>
</svg>