<?xml version="1.0" encoding="UTF-8"?>
<svg id="Layer_1" data-name="Layer 1" xmlns="http://www.w3.org/2000/svg" viewBox="0 0 20 20">
  <path d="m15.65,16.35l-6-6h-.01s-.01-.02-.01-.02h0s-.01-.03-.01-.03l-.02-.03h0s0-.02,0-.02h0s0-.02,0-.02v-.02s-.01-.01-.01-.01v-.02s0,0,0,0v-.02s-.01-.01-.01-.01h0s0-.03,0-.03h0s0-.03,0-.03v-.02s0-.03,0-.03v-.03s0-8.49,0-8.49c-2.15.13-4.08,1.05-5.51,2.48-1.54,1.54-2.49,3.66-2.49,6.01s.95,4.47,2.49,6.01c1.54,1.54,3.66,2.49,6.01,2.49,2.17,0,4.15-.81,5.65-2.15Zm2.84-5.85h-7.28l5.15,5.15c1.23-1.39,2.02-3.18,2.13-5.15Zm-7.99-1h7.99c-.12-2.15-1.05-4.08-2.48-5.51s-3.36-2.35-5.51-2.48v7.99Zm-.5-9c2.62,0,5,1.06,6.72,2.78,1.72,1.72,2.78,4.1,2.78,6.72s-1.06,4.98-2.76,6.7h0s0,.02,0,.02h0l-.02.02c-1.72,1.7-4.09,2.76-6.7,2.76s-5-1.06-6.72-2.78c-1.72-1.72-2.78-4.1-2.78-6.72S1.56,5,3.28,3.28C5,1.56,7.38.5,10,.5Z" style="fill-rule: evenodd; stroke-width: 0px;"/>
</svg>