<?xml version="1.0" encoding="UTF-8"?>
<svg id="Layer_1" data-name="Layer 1" xmlns="http://www.w3.org/2000/svg" viewBox="0 0 20 20">
  <path d="m2,15.5v1c0,.28-.22.5-.5.5s-.5-.22-.5-.5v-1c0-.28.22-.5.5-.5s.5.22.5.5Zm12.99-7.31l-4.83,1.78c-.11.04-.23.04-.34,0l-4.82-1.78v6.81c0,.11.06.29.26.52.2.23.53.47.97.7.88.44,2.17.78,3.76.78s2.88-.34,3.76-.78c.44-.23.76-.47.97-.7.21-.23.27-.41.27-.52v-6.81Zm-7.3-2.23l-2.74,1.15,5.05,1.86,7.99-2.97-7.99-2.97L1.94,6l1.62.6,3.74-1.56.38.92Zm2.47-3.93c-.11-.04-.23-.04-.34,0L.33,5.53c-.2.07-.33.26-.33.47s.13.4.33.47l2.04.75c-.85.65-1.37,1.67-1.37,2.78v4.09c-.58.2-1,.76-1,1.41v1c0,.83.67,1.5,1.5,1.5s1.5-.67,1.5-1.5v-1c0-.65-.42-1.21-1-1.41v-4.09c0-1.01.61-1.92,1.54-2.31l.05-.02.41.15v7.18c0,.44.22.85.52,1.19.31.34.74.66,1.26.92,1.04.53,2.49.89,4.22.89s3.18-.36,4.22-.89c.52-.26.95-.58,1.26-.92.31-.34.52-.75.52-1.19v-7.17l3.68-1.36c.2-.07.34-.26.34-.47s-.13-.4-.34-.47l-9.51-3.5Z" style="fill-rule: evenodd; stroke-width: 0px;"/>
</svg>