<?xml version="1.0" encoding="UTF-8"?>
<svg id="Layer_1" data-name="Layer 1" xmlns="http://www.w3.org/2000/svg" viewBox="0 0 20 20">
  <path d="m8.11,2c-1.17,0-2.26.59-2.91,1.56l-.22.33c-.46.69-1.24,1.11-2.08,1.11h-.39c-1.38,0-2.5,1.12-2.5,2.5v8c0,1.38,1.12,2.5,2.5,2.5h1.5c.28,0,.5-.22.5-.5s-.22-.5-.5-.5h-1.5c-.83,0-1.5-.67-1.5-1.5V7.5c0-.83.67-1.5,1.5-1.5h.39c1.17,0,2.26-.59,2.91-1.56l.22-.33c.46-.69,1.24-1.11,2.08-1.11h3.79c.84,0,1.62.42,2.08,1.11l.22.33c.65.97,1.74,1.56,2.91,1.56h.39c.83,0,1.5.67,1.5,1.5v8c0,.83-.67,1.5-1.5,1.5h-1.5c-.28,0-.5.22-.5.5s.22.5.5.5h1.5c1.38,0,2.5-1.12,2.5-2.5V7.5c0-1.38-1.12-2.5-2.5-2.5h-.39c-.84,0-1.62-.42-2.08-1.11l-.22-.33c-.65-.97-1.74-1.56-2.91-1.56h-3.79Z" style="stroke-width: 0px;"/>
  <path d="m9.5,8.03c.27-.03.5.19.5.47s-.23.5-.5.54c-1.26.21-2.25,1.2-2.46,2.46-.04.27-.26.5-.54.5s-.5-.23-.47-.5c.22-1.81,1.66-3.25,3.47-3.47h0Z" style="stroke-width: 0px;"/>
  <path d="m10,6c-3.31,0-6,2.69-6,6s2.69,6,6,6,6-2.69,6-6-2.69-6-6-6h0Zm0,11c2.76,0,5-2.24,5-5s-2.24-5-5-5-5,2.24-5,5,2.24,5,5,5h0Z" style="fill-rule: evenodd; stroke-width: 0px;"/>
</svg>