<?xml version="1.0" encoding="UTF-8"?>
<svg id="Layer_1" data-name="Layer 1" xmlns="http://www.w3.org/2000/svg" viewBox="0 0 20 20">
  <path d="m.5,0h8c.28,0,.5.22.5.5v6c0,.28-.22.5-.5.5H.5c-.28,0-.5-.22-.5-.5V.5C0,.22.22,0,.5,0h0Zm8,16c.28,0,.5.22.5.5s-.22.5-.5.5h-2c-.69,0-1.31-.28-1.77-.73l-.03-.03c-.44-.45-.71-1.06-.71-1.74v-2c0-.28.22-.5.5-.5s.5.22.5.5v2c0,.4.16.77.42,1.04l.02.02c.27.27.65.44,1.06.44h2Zm3-12c-.28,0-.5-.22-.5-.5s.22-.5.5-.5h2c.69,0,1.31.28,1.77.73.45.45.73,1.08.73,1.76v2c0,.28-.22.5-.5.5s-.5-.22-.5-.5v-2c0-.41-.17-.79-.44-1.06-.27-.27-.65-.44-1.06-.44h-2Zm3,16c-.27,0-.5-.23-.5-.5s.22-.5.5-.5h2c.28,0,.5.22.5.5s-.22.5-.5.5h-2Zm-3-9h8c.28,0,.5.22.5.5v6c0,.28-.22.5-.5.5h-8c-.28,0-.5-.22-.5-.5v-6c0-.27.22-.5.5-.5h0Zm.5,6h7v-5h-7v5h0ZM3.5,9c-.28,0-.5-.22-.5-.5s.22-.5.5-.5h2c.27,0,.5.22.5.5s-.22.5-.5.5h-2Zm-2.5-3h7V1H1v5h0Z" style="fill-rule: evenodd; stroke-width: 0px;"/>
</svg>