<?xml version="1.0" encoding="UTF-8"?>
<svg id="Layer_1" data-name="Layer 1" xmlns="http://www.w3.org/2000/svg" viewBox="0 0 20 20">
  <path d="m13.02,9h6.95c-.03-.34-.08-.67-.15-1C18.9,3.44,14.86,0,10.02,0,4.5,0,.02,4.48.02,10s4.48,10,10,10c4.84,0,8.87-3.44,9.8-8,.07-.33.12-.66.15-1h-6.95v4l-8-5,8-5v4h0Zm1,3v3c0,.36-.2.7-.51.88-.32.18-.71.17-1.01-.03l-8-5c-.29-.18-.47-.5-.47-.85s.18-.67.47-.85l8-5c.31-.19.7-.2,1.01-.03.32.18.51.51.51.88v3h4.78c-.91-4.01-4.49-7-8.78-7C5.05,1,1.02,5.03,1.02,10s4.03,9,9,9c4.28,0,7.87-2.99,8.78-7h-4.78Z" style="fill-rule: evenodd; stroke-width: 0px;"/>
</svg>