<?xml version="1.0" encoding="UTF-8"?>
<svg id="Layer_1" data-name="Layer 1" xmlns="http://www.w3.org/2000/svg" viewBox="0 0 20 20">
  <path d="m4.03,8.08c-.61,0-1.02.06-1.32.17-.29.11-.51.29-.76.54-.2.21-.54.21-.74,0-.21-.2-.21-.54,0-.74.35-.35.67-.6,1.12-.78.43-.17.96-.25,1.7-.25,3.36,0,3.35,1.62,3.33,3.94v2.35h0v.06s0,2.41,0,2.41c0,.29-.24.52-.52.52s-.52-.23-.52-.52v-.35c-.21.15-.45.28-.7.39-.91.39-2.03.48-2.99.48-1.26,0-2.07-.69-2.43-1.57-.14-.34-.2-.7-.2-1.06s.07-.72.2-1.06c.36-.88,1.17-1.57,2.43-1.57h3.69v-.09c.01-1.7.02-2.88-2.28-2.88h0ZM15.33,2.63c-.29,0-.53-.24-.53-.53s.24-.53.53-.53h4.14c.29,0,.53.24.53.53s-.24.53-.53.53h-4.14Zm0,15.79c-.29,0-.53-.24-.53-.53s.24-.53.53-.53h1.51V2.63h1.05v14.74h1.58c.29,0,.53.24.53.53s-.24.53-.53.53h-4.14Zm-3.42-2.1c-.94,0-1.77-.28-2.37-.7l-.07-.05v.23c0,.29-.24.53-.53.53s-.53-.24-.53-.53V4.21c0-.29.24-.53.53-.53s.53.24.53.53v3.49l.07-.05c.6-.42,1.43-.7,2.37-.7,1.84,0,2.82.54,3.34,1.44.5.86.53,1.97.53,3.24s-.03,2.39-.53,3.24c-.53.9-1.5,1.44-3.34,1.44h0Zm-2.44-2.61c0,.36.25.75.67,1.04.44.31,1.05.51,1.77.51,1.4,0,2.1-.34,2.44-.92.36-.62.39-1.59.39-2.71s-.02-2.09-.39-2.71c-.34-.58-1.04-.92-2.44-.92-.71,0-1.33.2-1.77.51-.42.29-.67.68-.67,1.04v4.16h0Zm-3.16-.39v-1.21h-3.68c-.76,0-1.24.4-1.45.91-.08.21-.13.43-.13.66s.04.46.13.66c.21.51.69.91,1.45.91.85,0,1.83-.08,2.58-.4.64-.27,1.11-.75,1.11-1.55h0Z" style="fill: #1b1919; fill-rule: evenodd; stroke-width: 0px;"/>
</svg>