<?xml version="1.0" encoding="UTF-8"?>
<svg id="Layer_1" data-name="Layer 1" xmlns="http://www.w3.org/2000/svg" viewBox="0 0 20 20">
  <path d="m13.34,9h.01l-.75,7.55c-.03.28-.27.48-.55.45-.27-.03-.48-.27-.45-.55l.63-6.3s-.01-.1,0-.15l.38-3.55c.03-.28.27-.48.55-.45.27.03.47.27.45.55l-.26,2.45Z" style="stroke-width: 0px;"/>
  <path d="m7.05,6c.27-.03.52.17.55.45l1,10c.03.27-.17.52-.45.55-.28.03-.52-.17-.55-.45l-1-10c-.03-.27.17-.52.45-.55Z" style="stroke-width: 0px;"/>
  <path d="m9.6,1c-1.21,0-2.22.86-2.45,2h5.9c-.23-1.14-1.24-2-2.45-2h-1Zm7.43,3H3.17l1.71,13.69c.09.75.73,1.31,1.49,1.31h7.47c.76,0,1.39-.56,1.49-1.31.57-4.57,1.12-9.12,1.71-13.69ZM9.6,0c-1.76,0-3.22,1.3-3.47,3H.6c-.28,0-.5.22-.5.5s.22.5.5.5h1.56l1.73,13.81c.16,1.25,1.22,2.19,2.48,2.19h7.47c1.26,0,2.32-.94,2.48-2.19l1.73-13.81h1.56c.28,0,.5-.22.5-.5s-.22-.5-.5-.5h-5.53c-.24-1.7-1.7-3-3.47-3h-1Z" style="fill-rule: evenodd; stroke-width: 0px;"/>
</svg>