<?xml version="1.0" encoding="UTF-8"?>
<svg id="Layer_1" data-name="Layer 1" xmlns="http://www.w3.org/2000/svg" viewBox="0 0 20 20">
  <path d="m.55,3C.55,1.34,4.78,0,10,0s9.45,1.34,9.45,3v12c0,.9-1.24,1.7-3.2,2.25-.29.08-.58-.16-.58-.48,0-.23.15-.43.36-.49.13-.04.26-.08.38-.12.8-.25,1.39-.54,1.75-.81.28-.21.34-.34.34-.36v-2.54c-.46.24-.99.45-1.55.63-.22.07-.45.14-.69.2-.3.08-.59-.17-.59-.5,0-.24.16-.44.38-.51.12-.03.25-.07.37-.11.8-.25,1.39-.54,1.75-.81.28-.21.34-.34.34-.36v-2.54c-.46.24-.99.45-1.55.63-.51.16-1.07.31-1.67.43-.29.06-.56-.18-.56-.5,0-.25.17-.46.4-.51.47-.1.9-.21,1.29-.34.8-.25,1.39-.54,1.75-.81.28-.21.34-.34.34-.36v-2.54c-.46.24-.99.45-1.55.63-1.82.58-4.27.92-6.95.92s-5.13-.34-6.95-.92c-.57-.18-1.09-.39-1.55-.63v2.54s.06.15.34.36c.36.27.94.56,1.75.81,1.6.51,3.87.84,6.41.84h.46c.27-.01.49.22.49.5s-.2.49-.46.5h-.49c-2.67,0-5.13-.34-6.95-.92-.57-.18-1.09-.39-1.55-.63v2.54s.06.15.34.36c.36.27.94.56,1.75.81.12.04.24.08.37.11.22.07.37.27.37.51,0,.33-.29.58-.59.5-.24-.06-.47-.13-.69-.2-.57-.18-1.09-.39-1.55-.63v2.54s.06.15.34.36c.36.27.94.56,1.75.81.12.04.25.08.38.12.21.06.36.26.36.49,0,.32-.28.56-.58.48-1.96-.55-3.2-1.35-3.2-2.25V3h0Zm17.61-.35c.25.19.32.31.34.35-.02.05-.09.17-.34.35-.36.27-.94.56-1.75.81-1.6.51-3.87.84-6.41.84s-4.81-.33-6.41-.84c-.81-.25-1.39-.54-1.75-.81-.25-.18-.32-.3-.34-.35.02-.04.09-.16.34-.35.36-.27.94-.56,1.75-.81,1.6-.51,3.87-.84,6.41-.84s4.81.33,6.41.84c.81.25,1.39.54,1.75.81h0Zm-3.44,9.35c0,1.11-.85,2-1.89,2-.57,0-1.08-.26-1.42-.69l-2.4,1.27c.03.14.04.28.04.42,0,.15-.01.29-.04.42l2.4,1.27c.35-.42.86-.69,1.42-.69,1.04,0,1.89.9,1.89,2s-.85,2-1.89,2-1.89-.89-1.89-2c0-.14.01-.28.04-.42l-2.4-1.27c-.35.43-.86.69-1.43.69-1.04,0-1.89-.89-1.89-2s.85-2,1.89-2c.57,0,1.08.27,1.42.69l2.4-1.27c-.03-.13-.04-.27-.04-.42,0-1.1.85-2,1.89-2s1.89.9,1.89,2h0Zm-.94,0c0,.55-.42,1-.94,1s-.94-.45-.94-1,.42-1,.94-1,.94.45.94,1h0Zm-5.67,3c0,.55-.42,1-.94,1s-.94-.45-.94-1,.42-1,.94-1,.94.45.94,1h0Zm4.72,4c.52,0,.94-.45.94-1s-.42-1-.94-1-.94.45-.94,1,.42,1,.94,1h0Z" style="fill-rule: evenodd; stroke-width: 0px;"/>
</svg>