<?xml version="1.0" encoding="UTF-8"?>
<svg id="Layer_1" data-name="Layer 1" xmlns="http://www.w3.org/2000/svg" viewBox="0 0 20 20">
  <path d="m5,3.5c0,.28.22.5.5.5h9c.28,0,.5-.22.5-.5s-.22-.5-.5-.5h-1.5c0-1.66-1.34-3-3-3s-3,1.34-3,3h-1.5c-.28,0-.5.22-.5.5h0Zm3-.5c0-1.1.9-2,2-2s2,.9,2,2h-4Zm5.87-1h1.13c1.11,0,2,.9,2,2v13c0,1.11-.9,2-2,2H5c-1.11,0-2-.89-2-2V4c0-1.1.9-2,2-2h1.13c.09-.35.23-.69.41-1h-1.54c-1.66,0-3,1.34-3,3v13c0,1.66,1.34,3,3,3h10c1.66,0,3-1.34,3-3V4c0-1.66-1.34-3-3-3h-1.54c.18.31.32.65.41,1h0ZM5,6.5c0-.28.22-.5.5-.5h1c.28,0,.5.22.5.5s-.22.5-.5.5h-1c-.28,0-.5-.22-.5-.5h0Zm3.5-.5c-.28,0-.5.22-.5.5s.22.5.5.5h6c.28,0,.5-.22.5-.5s-.22-.5-.5-.5h-6Zm-3.5,3.5c0-.28.22-.5.5-.5h1c.28,0,.5.22.5.5s-.22.5-.5.5h-1c-.28,0-.5-.22-.5-.5h0Zm3.5-.5c-.28,0-.5.22-.5.5s.22.5.5.5h6c.28,0,.5-.22.5-.5s-.22-.5-.5-.5h-6Zm-3.5,3.5c0-.28.22-.5.5-.5h1c.28,0,.5.22.5.5s-.22.5-.5.5h-1c-.28,0-.5-.22-.5-.5h0Zm3.5-.5c-.28,0-.5.22-.5.5s.22.5.5.5h6c.28,0,.5-.22.5-.5s-.22-.5-.5-.5h-6Zm-3.5,3.5c0-.28.22-.5.5-.5h1c.28,0,.5.22.5.5s-.22.5-.5.5h-1c-.28,0-.5-.22-.5-.5h0Zm3.5-.5c-.28,0-.5.22-.5.5s.22.5.5.5h6c.28,0,.5-.22.5-.5s-.22-.5-.5-.5h-6Z" style="fill-rule: evenodd; stroke-width: 0px;"/>
</svg>