<?xml version="1.0" encoding="UTF-8"?>
<svg id="Layer_1" data-name="Layer 1" xmlns="http://www.w3.org/2000/svg" viewBox="0 0 20 20">
  <path d="m6.98,9H.03c.03-.34.08-.67.15-1C1.1,3.44,5.14,0,9.98,0c5.52,0,10,4.48,10,10s-4.48,10-10,10C5.14,20,1.1,16.56.18,12c-.07-.33-.12-.66-.15-1h6.95v4l8-5-8-5v4h0Zm-1,3v3c0,.36.2.7.51.88.32.18.71.17,1.01-.03l8-5c.29-.18.47-.5.47-.85s-.18-.67-.47-.85l-8-5c-.31-.19-.7-.2-1.01-.03-.32.18-.51.51-.51.88v3H1.2C2.11,3.99,5.69,1,9.98,1c4.97,0,9,4.03,9,9s-4.03,9-9,9c-4.28,0-7.87-2.99-8.78-7h4.78Z" style="fill-rule: evenodd; stroke-width: 0px;"/>
</svg>