<?xml version="1.0" encoding="UTF-8"?>
<svg id="Layer_1" data-name="Layer 1" xmlns="http://www.w3.org/2000/svg" viewBox="0 0 20 20">
  <path d="m8.38,9.32L1,16.71v2.29h2.48l.52-.52v-1.98c0-.28.22-.5.5-.5h1.5v-1.5c0-.28.23-.5.5-.5h1.79l2.38-2.38c.16-.16.4-.19.59-.09.34.15.7.27,1.07.35.37.08.76.12,1.16.12,1.52,0,2.89-.61,3.89-1.61.99-1,1.61-2.37,1.61-3.89s-.62-2.89-1.61-3.89l-.02-.02c-.99-.98-2.36-1.59-3.87-1.59s-2.89.62-3.89,1.61c-1,1-1.61,2.37-1.61,3.89,0,.4.04.79.12,1.16.08.38.21.75.36,1.1.09.19.04.42-.1.56h0Zm7.61-3.82c0-.41-.17-.79-.44-1.06-.27-.27-.65-.44-1.06-.44s-.79.17-1.06.44c-.27.27-.44.65-.44,1.06s.17.79.44,1.06c.27.27.65.44,1.06.44s.79-.17,1.06-.44c.27-.27.44-.65.44-1.06h0Zm.27-1.77c.45.45.73,1.08.73,1.77s-.28,1.32-.73,1.77c-.45.45-1.08.73-1.77.73s-1.31-.28-1.77-.73c-.45-.45-.73-1.08-.73-1.77s.28-1.31.73-1.77,1.08-.73,1.77-.73,1.31.28,1.77.73h0ZM.15,16.15l7.29-7.3c-.12-.32-.22-.64-.29-.98-.09-.44-.15-.9-.15-1.37,0-1.8.73-3.42,1.9-4.6C10.08.73,11.71,0,13.5,0s3.39.72,4.57,1.88l.03.03c1.18,1.18,1.9,2.8,1.9,4.6s-.73,3.42-1.9,4.59h0c-1.18,1.18-2.8,1.91-4.59,1.91-.47,0-.92-.05-1.37-.15-.34-.07-.67-.17-.98-.3l-2.29,2.29c-.09.09-.22.15-.35.15h-1.5v1.5c0,.28-.22.5-.5.5h-1.5v1.69c0,.13-.05.26-.15.35l-.81.81c-.09.09-.21.15-.35.15H.5C.22,20,0,19.78,0,19.5v-3C0,16.37.05,16.24.15,16.15H.15Z" style="fill: #1b1919; fill-rule: evenodd; stroke-width: 0px;"/>
</svg>