<?xml version="1.0" encoding="UTF-8"?>
<svg id="Layer_1" data-name="Layer 1" xmlns="http://www.w3.org/2000/svg" viewBox="0 0 20 20">
  <path d="m2.14,5.86h7.29c.87,0,1.57-.7,1.57-1.57s-.7-1.57-1.57-1.57c-.09,0-.18,0-.27.02-.42.05-.83-.12-1.04-.49-.42-.74-1.21-1.24-2.12-1.24-1.15,0-2.11.79-2.36,1.87-.13.54-.66.82-1.21.73-.1-.01-.19-.02-.28-.02-.63,0-1.14.51-1.14,1.14s.51,1.14,1.14,1.14h0Zm.47-3.23c-.15-.03-.31-.05-.47-.05-1.18,0-2.14.96-2.14,2.14s.96,2.14,2.14,2.14h7.29c1.42,0,2.57-1.15,2.57-2.57s-1.15-2.57-2.57-2.57c-.15,0-.3.01-.44.04C8.4.71,7.28,0,6,0,4.41,0,3.07,1.08,2.68,2.56c0,.03-.01.05-.02.08-.02,0-.03,0-.05-.01h0Zm2.89,5.38c.28,0,.5.22.5.5v8.58c.43.15.76.49.91.92h6.17c.15-.43.49-.76.91-.92v-1.58c0-.28.22-.5.5-.5s.5.22.5.5v1.58c.43.15.76.49.91.92h3.59c.28,0,.5.22.5.5s-.22.5-.5.5h-3.59c-.21.58-.76,1-1.41,1s-1.21-.42-1.41-1h-6.17c-.21.58-.76,1-1.41,1s-1.21-.42-1.41-1H.5c-.28,0-.5-.22-.5-.5s.22-.5.5-.5h3.59c.15-.43.49-.76.91-.92v-8.58c0-.28.22-.5.5-.5h0Zm9,10c-.28,0-.5.22-.5.5s.22.5.5.5.5-.22.5-.5-.22-.5-.5-.5h0Zm-9.5.5c0-.28.22-.5.5-.5s.5.22.5.5-.22.5-.5.5-.5-.22-.5-.5h0Zm12.43-5.64h-7.29c-.63,0-1.14-.51-1.14-1.14s.51-1.14,1.14-1.14c.09,0,.19,0,.28.02.55.09,1.08-.19,1.21-.73.25-1.07,1.22-1.87,2.36-1.87.91,0,1.7.5,2.12,1.24.21.37.62.54,1.04.49.09-.01.18-.02.27-.02.87,0,1.57.7,1.57,1.57s-.7,1.57-1.57,1.57h0Zm-7.29-3.29c.16,0,.32.02.47.05.02,0,.03,0,.05.01,0-.03.01-.05.02-.08.39-1.47,1.72-2.55,3.32-2.55,1.28,0,2.4.71,2.99,1.75.14-.02.29-.04.44-.04,1.42,0,2.57,1.15,2.57,2.57s-1.15,2.57-2.57,2.57h-7.29c-1.18,0-2.14-.96-2.14-2.14s.96-2.14,2.14-2.14h0Z" style="fill-rule: evenodd; stroke-width: 0px;"/>
</svg>