<?xml version="1.0" encoding="UTF-8"?>
<svg id="Layer_1" data-name="Layer 1" xmlns="http://www.w3.org/2000/svg" viewBox="0 0 20 20">
  <path d="m20,10c0,1.99-.58,3.85-1.59,5.41-1.78,2.76-4.88,4.59-8.41,4.59h-.5s-.1,0-.14-.02C4.14,19.65,0,15.31,0,10S4.48,0,10,0s10,4.48,10,10h0Zm-19,0c0,4.97,4.03,9,9,9,3.25,0,6.1-1.73,7.69-4.31.11-.19.22-.38.33-.58,0-.02,0-.03,0-.05-.22-1.99-1.51-2.88-2.91-3.54-.26-.13-.52-.24-.78-.35-.05-.02-.09-.04-.14-.06-.04-.02-.08-.04-.12-.05-.33-.15-.66-.3-.95-.47-.56-.32-1.12-.8-1.12-1.58,0-.63.24-1.17.56-1.63.27-.4.62-.78.95-1.13.04-.05.08-.09.12-.14.75-.82,1.36-1.56,1.37-2.58-1.43-.96-3.15-1.52-5-1.52-.56,0-1.11.05-1.64.15.24.26.43.51.59.77.26.44.42.91.54,1.47.1.46.08.99.02,1.5-.06.52-.17,1.08-.27,1.6l-.02.08c-.1.5-.19.97-.24,1.37-.06.44-.05.74,0,.91.05.17.16.31.33.48.12.11.23.2.36.31.09.07.18.15.29.24.25.21.51.47.71.82.21.36.33.78.33,1.31,0,2.01-1.46,4-3.81,4.96-.16.07-.34.04-.48-.06-.14-.1-.22-.26-.21-.43.1-1.88-.22-2.81-.49-3.57l-.03-.08c-.14-.4-.28-.81-.3-1.3-.01-.28.01-.56.09-.88-.92.14-1.72.17-2.5.04-.76-.12-1.49-.39-2.27-.81,0,.04,0,.09,0,.13h0Zm17.64,2.52c.23-.8.36-1.65.36-2.52,0-2.7-1.19-5.12-3.08-6.77-.23,1.09-.94,1.89-1.56,2.55l-.12.14c-.34.36-.63.68-.86,1.02-.25.36-.38.7-.38,1.07,0,.22.13.43.62.72.24.14.52.27.85.42.08.03.16.07.24.11h0c.26.12.54.24.81.37,1.17.56,2.48,1.37,3.11,2.91h0ZM1.08,8.77c.47-3.46,2.91-6.29,6.15-7.33.42.39.67.7.86,1,.19.32.31.67.42,1.17.06.29.06.69,0,1.17-.06.48-.16.99-.26,1.52l-.02.09c-.1.49-.2.99-.25,1.43-.06.46-.08.94.04,1.33.12.39.35.68.59.9.14.14.32.28.48.41.08.06.15.12.22.18.21.18.38.35.5.56.11.2.2.45.2.8,0,1.33-.87,2.79-2.48,3.7-.01-1.54-.32-2.43-.56-3.13l-.02-.07c-.14-.4-.23-.69-.24-1.02-.01-.32.05-.71.28-1.29.07-.17.04-.36-.08-.51-.12-.14-.3-.21-.48-.17-1.24.25-2.14.31-2.97.18-.74-.12-1.46-.41-2.35-.92h0Z" style="fill-rule: evenodd; stroke-width: 0px;"/>
</svg>