<?xml version="1.0" encoding="UTF-8"?>
<svg id="Layer_1" data-name="Layer 1" xmlns="http://www.w3.org/2000/svg" viewBox="0 0 20 20">
  <path d="m5.5,5c-.28,0-.5.22-.5.5s.22.5.5.5h9c.28,0,.5-.22.5-.5s-.22-.5-.5-.5H5.5Z" style="stroke-width: 0px;"/>
  <path d="m5,8.5c0-.28.22-.5.5-.5h9c.28,0,.5.22.5.5s-.22.5-.5.5H5.5c-.28,0-.5-.22-.5-.5Z" style="stroke-width: 0px;"/>
  <path d="m5.5,11c-.28,0-.5.22-.5.5s.22.5.5.5h5c.28,0,.5-.22.5-.5s-.22-.5-.5-.5h-5Z" style="stroke-width: 0px;"/>
  <path d="m5.23,15.38l-.04-.52-.45-.27c-2.32-1.4-3.75-3.63-3.75-6.09C1,4.5,4.87,1,10,1s9,3.5,9,7.5-3.87,7.5-9,7.5c-.36,0-.72-.02-1.07-.05l-.53-.06-.34.41c-.55.67-1.33,1.48-2.1,1.97-.45.29-.84.48-1.15.59.41-1.16.49-2.48.42-3.48Zm-1.6,3.72c-.22.46.17.9.59.9,1.19,0,3.35-1.55,4.61-3.06.38.04.78.06,1.17.06,5.52,0,10-3.81,10-8.5S15.52,0,10,0,0,3.81,0,8.5c0,2.87,1.67,5.41,4.23,6.95.08,1.07-.05,2.47-.6,3.65Z" style="fill-rule: evenodd; stroke-width: 0px;"/>
</svg>