<?xml version="1.0" encoding="UTF-8"?>
<svg id="foreground" xmlns="http://www.w3.org/2000/svg" viewBox="0 0 20 20">
  <path d="m15.05,3.11c-1.14-1.86-3.2-3.11-5.55-3.11C6.43,0,3.85,2.14,3.17,5,1.48,4.91,0,6.3,0,8s1.34,3,3,3h2.1c-.07-.32-.1-.66-.1-1h-2c-1.1,0-2-.9-2-2s.99-2.06,2.12-2l.84.05.19-.82C4.72,2.81,6.9,1,9.5,1c1.99,0,3.73,1.05,4.7,2.64l.38.62.71-.17c1.83-.45,3.71,1,3.71,2.91,0,1.66-1.34,3-3,3h-1c0,.34-.03.68-.1,1h1.1c2.21,0,4-1.79,4-4,0-2.56-2.49-4.49-4.95-3.89Z" style="stroke-width: 0px;"/>
  <path d="m10,6c-2.21,0-4,1.79-4,4,0,1.48.8,2.77,2,3.46v4.54c0,.27.1.52.29.71l1,1c.39.39,1.02.39,1.41,0l1-1c.19-.2.29-.45.29-.71s-.1-.51-.29-.71l-.29-.29.29-.29c.39-.39.39-1.03,0-1.42l-.29-.29.29-.29c.19-.19.29-.44.29-.71v-.54c1.19-.69,2-1.98,2-3.46,0-2.21-1.79-4-4-4Zm1,6.83v1.17l-1,1,1,1-1,1,1,1-1,1-1-1v-5.17c-1.16-.41-2-1.52-2-2.83,0-1.66,1.34-3,3-3s3,1.34,3,3c0,1.31-.83,2.42-2,2.83Z" style="stroke-width: 0px;"/>
  <path d="m10,8c-1.1,0-2,.9-2,2s.89,2,2,2,2-.9,2-2-.89-2-2-2Zm0,3c-.55,0-1-.45-1-1s.45-1,1-1,1,.45,1,1-.45,1-1,1Z" style="stroke-width: 0px;"/>
</svg>