<?xml version="1.0" encoding="UTF-8"?>
<svg id="Layer_1" data-name="Layer 1" xmlns="http://www.w3.org/2000/svg" viewBox="0 0 20 20">
  <path d="m17,3H3c-.37,0-.72.1-1.02.28l6.95,6.95c.59.59,1.54.59,2.12,0l6.95-6.95c-.3-.18-.64-.28-1.02-.28h0ZM1,5c0-.37.1-.72.28-1.02l6.02,6.02-6.02,6.02c-.18-.3-.28-.65-.28-1.02V5h0Zm.98,11.72c.3.18.64.28,1.02.28h14c.37,0,.72-.1,1.02-.28l-6.02-6.02-.23.23c-.98.98-2.56.98-3.54,0l-.23-.23-6.02,6.02h0Zm10.72-6.72l6.02,6.02c.18-.3.28-.65.28-1.02V5c0-.37-.1-.72-.28-1.02l-6.02,6.02h0ZM3,2C1.34,2,0,3.34,0,5v10C0,16.66,1.34,18,3,18h14c1.66,0,3-1.34,3-3V5c0-1.66-1.34-3-3-3H3Z" style="fill-rule: evenodd; stroke-width: 0px;"/>
</svg>