<?xml version="1.0" encoding="UTF-8"?>
<svg id="Layer_1" data-name="Layer 1" xmlns="http://www.w3.org/2000/svg" viewBox="0 0 20 20">
  <path d="m12,2c0,.46-.15.88-.41,1.21.7.19,1.35.51,1.92.92.28.2.24.62-.06.79-.19.11-.42.09-.6-.03-.81-.57-1.79-.9-2.86-.9-2.76,0-5,2.24-5,5v2.62c0,1.97-.98,3.81-2.62,4.9l-.31.21s-.07.08-.07.13c0,.08.07.15.15.15h15.7c.08,0,.15-.07.15-.15,0-.05-.02-.1-.07-.13l-.31-.21c-.7-.47-1.28-1.07-1.72-1.77-.14-.23-.05-.52.18-.65.25-.14.56-.05.72.19.36.55.82,1.02,1.38,1.4l.31.21c.32.21.51.57.51.96,0,.64-.51,1.15-1.15,1.15h-5.02c-.41,1.16-1.52,2-2.83,2s-2.42-.83-2.83-2H2.15c-.64,0-1.15-.51-1.15-1.15,0-.39.19-.75.51-.96l.31-.21c1.36-.91,2.18-2.43,2.18-4.07v-2.62c0-2.76,1.87-5.09,4.41-5.79-.26-.34-.41-.76-.41-1.21C8,.89,8.9,0,10,0s2,.89,2,2h0Zm-2,1c.55,0,1-.45,1-1s-.45-1-1-1-1,.45-1,1,.45,1,1,1h0Zm-1.73,15c.35.6.99,1,1.73,1s1.39-.4,1.73-1h-3.46Zm10.33-9.85c.18.22.12.54-.12.69-.22.15-.53.09-.7-.11-.92-1.06-2.27-1.73-3.78-1.73s-2.86.67-3.78,1.73c-.18.21-.48.26-.71.11-.23-.16-.3-.48-.11-.69,1.1-1.31,2.75-2.15,4.6-2.15s3.5.84,4.6,2.15h0Zm-1.68,1.11c.2.21.13.53-.1.69-.22.15-.52.09-.71-.1-.54-.53-1.28-.86-2.1-.86s-1.56.33-2.1.86c-.19.19-.49.25-.71.1-.24-.16-.3-.48-.1-.69.73-.78,1.77-1.26,2.92-1.26s2.19.49,2.92,1.26h0Zm-2.92,4.74c1.11,0,2-.89,2-2s-.89-2-2-2-2,.9-2,2,.9,2,2,2h0Zm0-1c.55,0,1-.45,1-1s-.45-1-1-1-1,.45-1,1,.45,1,1,1h0Z" style="fill-rule: evenodd; stroke-width: 0px;"/>
</svg>