<?xml version="1.0" encoding="UTF-8"?>
<svg id="Layer_1" data-name="Layer 1" xmlns="http://www.w3.org/2000/svg" viewBox="0 0 20 20">
  <path d="m.15,16.15c-.2.19-.2.51,0,.71l3,3c.2.2.51.2.71,0l5.5-5.5h0s5-5.01,5-5.01h0s5.51-5.5,5.51-5.5c.19-.19.19-.51,0-.71L16.85.15c-.19-.19-.51-.19-.71,0l-6.15,6.15h0s-.71.7-.71.7h0s-2.29,2.3-2.29,2.3h0s-.71.7-.71.7h0s-.14.15-.14.15h0S.15,16.15.15,16.15H.15ZM13.85,5.85c.19-.2.19-.51,0-.71l-.65-.65,1.29-1.29.65.65c.19.19.51.19.71,0,.2-.19.2-.51,0-.71l-.65-.65,1.29-1.29,2.29,2.29L3.5,18.79l-2.29-2.29,1.29-1.29.65.65c.19.2.51.2.71,0,.2-.19.2-.51,0-.71l-.65-.65,1.29-1.29.65.65c.19.19.51.19.71,0,.19-.19.19-.51,0-.71l-.65-.65,1.29-1.29.65.65c.2.19.51.19.71,0,.19-.19.19-.51,0-.71l-.65-.65.14-.14h0s1.15-1.15,1.15-1.15l.65.65c.19.2.51.2.71,0,.19-.2.19-.51,0-.71l-.65-.65,1.15-1.15h0s0,0,0,0l.14-.14.65.65c.2.19.51.19.71,0,.19-.2.19-.51,0-.71l-.65-.65,1.29-1.29.65.65c.2.19.51.19.71,0h0Z" style="fill: #1b1919; fill-rule: evenodd; stroke-width: 0px;"/>
  <path d="m5.5,9.2L.44,4.15C.15,3.85,0,3.47,0,3.08s.14-.74.41-1.03l.03-.03L2.02.44C2.32.15,2.7,0,3.08,0s.77.15,1.06.44l5.06,5.06-.71.71-1.5-1.5-2.29,2.29,1.5,1.5-.71.71h0Zm.8-5.2l-2.29,2.29-.79-.79,2.29-2.29.79.79h0Zm-1.5-1.5l-2.29,2.29-1.36-1.36c-.1-.1-.15-.22-.15-.35,0-.12.04-.24.13-.33l1.6-1.6c.1-.1.22-.15.35-.15s.26.05.35.15l1.36,1.36h0Z" style="fill: #1b1919; fill-rule: evenodd; stroke-width: 0px;"/>
  <path d="m14.49,10.79l-.71.71,3.77,3.77c-.57.22-1.05.53-1.43.93-.38.38-.66.83-.87,1.36l-3.76-3.76-.71.71,4.36,4.36c.07.07.16.12.26.14l3.97.99c.27.07.54-.1.61-.36.02-.08.02-.17,0-.24l-1-4c-.02-.09-.07-.17-.13-.23l-4.36-4.36h0Zm2.34,6.11c.33-.34.77-.6,1.31-.78l.67,2.7-2.71-.68c.16-.5.4-.91.73-1.25h0Z" style="fill: #1b1919; fill-rule: evenodd; stroke-width: 0px;"/>
</svg>