<?xml version="1.0" encoding="UTF-8"?>
<svg id="Layer_1" data-name="Layer 1" xmlns="http://www.w3.org/2000/svg" viewBox="0 0 20 20">
  <path d="m14.24,19.06c-2.86,1.34-6.3,1.3-9.24-.4C.22,15.9-1.42,9.78,1.34,5,4.1.22,10.22-1.42,15,1.34c2.81,1.62,4.54,4.41,4.92,7.41-.32-.49-.71-.9-1.26-1.2-.4-1.4-1.13-2.7-2.16-3.77.17.93.15,2.03-.07,3.24-.14,0-.28-.01-.43-.01-.8,0-1.51.17-2.14.46-.62-.26-1.24-.57-1.85-.92-1.06-.61-2-1.31-2.82-2.05-.84.85-1.66,1.89-2.39,3.09l4.56,2.63c-.12.32-.21.66-.27,1l-4.79-2.77c-.67,1.24-1.16,2.47-1.48,3.62,1.06.33,2.13.8,3.19,1.41,1.06.61,2,1.31,2.82,2.05.26-.26.51-.53.76-.83.13.27.28.53.45.78l.08.13c-.19.22-.38.42-.58.62.67.71,1.23,1.45,1.66,2.2.18-.07.35-.14.53-.22l.53.86h0Zm-8.74-1.26c.69.4,1.89.31,3.47-.74.37-.24.74-.53,1.11-.85-.75-.68-1.61-1.31-2.59-1.88-.97-.56-1.96-.99-2.92-1.3-.09.49-.16.95-.18,1.39-.11,1.9.41,2.98,1.1,3.38h0Zm-.08-9.86c-.71,1.3-1.24,2.61-1.58,3.85-.95-.23-1.87-.34-2.73-.33-.3-1.83-.04-3.75.85-5.51l3.46,2h0Zm.5-.87l-3.46-2c1.08-1.65,2.62-2.84,4.35-3.49.43.75.98,1.49,1.66,2.2-.9.91-1.77,2.02-2.54,3.29h0Zm1.93,11.67c.95-.33,1.96-.96,2.95-1.84.56.59,1.03,1.21,1.4,1.82-1.41.36-2.9.37-4.35.02h0Zm7.74-13.16c-.03.44-.09.9-.18,1.39-.96-.31-1.94-.74-2.92-1.3-.97-.56-1.84-1.2-2.59-1.88.37-.32.74-.61,1.11-.85,1.59-1.05,2.78-1.14,3.48-.74.69.4,1.21,1.48,1.1,3.38h0Zm-3.46-4.33c-.95.33-1.96.96-2.95,1.84-.56-.59-1.03-1.21-1.4-1.82,1.41-.36,2.9-.38,4.35-.02h0ZM1.34,12.45c.71.01,1.48.11,2.28.31-.26,1.3-.3,2.48-.12,3.47-1.03-1.08-1.76-2.38-2.16-3.78h0Zm11.53,2.47l3.13,5.08,3.13-5.08c1.98-2.85.44-6.92-3.13-6.92s-5.11,4.08-3.13,6.92h0Zm3.13,3.17l2.29-3.72.02-.02c.79-1.14.87-2.5.41-3.57-.44-1.04-1.38-1.79-2.72-1.79s-2.28.75-2.72,1.79c-.45,1.06-.38,2.43.41,3.57l.02.02,2.29,3.72h0Zm1-6.1c0,.55-.45,1-1,1s-1-.45-1-1,.45-1,1-1,1,.45,1,1h0Zm1,0c0,1.11-.89,2-2,2s-2-.89-2-2,.89-2,2-2,2,.9,2,2h0Z" style="fill-rule: evenodd; stroke-width: 0px;"/>
</svg>