<?xml version="1.0" encoding="UTF-8"?>
<svg id="Layer_1" data-name="Layer 1" xmlns="http://www.w3.org/2000/svg" viewBox="0 0 20 20">
  <path d="m10,0C4.48,0,0,4.48,0,10,0,11.88.52,13.64,1.42,15.15L.03,19.34c-.06.18-.01.38.12.51.13.13.33.18.51.12l4.2-1.4c1.5.9,3.26,1.42,5.15,1.42,5.52,0,10-4.48,10-10S15.52,0,10,0h0ZM1,10C1,5.03,5.03,1,10,1s9,4.03,9,9-4.03,9-9,9c-1.77,0-3.42-.51-4.81-1.4-.13-.08-.28-.1-.43-.05l-3.47,1.16,1.16-3.47c.05-.14.03-.3-.05-.43-.88-1.39-1.39-3.04-1.39-4.81h0Zm4.5-4c-.28,0-.5.22-.5.5s.22.5.5.5h9c.28,0,.5-.22.5-.5s-.22-.5-.5-.5H5.5Zm0,3c-.28,0-.5.22-.5.5s.22.5.5.5h9c.28,0,.5-.22.5-.5s-.22-.5-.5-.5H5.5Zm-.5,3.5c0-.28.22-.5.5-.5h4c.28,0,.5.22.5.5s-.22.5-.5.5h-4c-.28,0-.5-.22-.5-.5h0Z" style="fill-rule: evenodd; stroke-width: 0px;"/>
</svg>