<?xml version="1.0" encoding="UTF-8"?>
<svg id="Layer_1" data-name="Layer 1" xmlns="http://www.w3.org/2000/svg" viewBox="0 0 20 20">
  <path d="m7,2.5c0-.28.22-.5.5-.5h5c.28,0,.5.22.5.5s-.22.5-.5.5h-5c-.28,0-.5-.22-.5-.5h0Z" style="stroke-width: 0px;"/>
  <path d="m7.5,4c-.28,0-.5.22-.5.5s.22.5.5.5h5c.28,0,.5-.22.5-.5s-.22-.5-.5-.5h-5Z" style="stroke-width: 0px;"/>
  <path d="m7,6.5c0-.28.22-.5.5-.5h5c.28,0,.5.22.5.5s-.22.5-.5.5h-5c-.28,0-.5-.22-.5-.5h0Z" style="stroke-width: 0px;"/>
  <path d="m5,2c0-1.11.9-2,2-2h6c1.1,0,2,.89,2,2v8H5V2h0Zm2-1h6c.55,0,1,.45,1,1v7H6V2c0-.55.45-1,1-1h0Z" style="fill-rule: evenodd; stroke-width: 0px;"/>
  <path d="m5.5,14c.28,0,.5.22.5.5v1c0,.28.22.5.5.5h7c.28,0,.5-.22.5-.5v-1c0-.28.22-.5.5-.5s.5.22.5.5v1c0,.83-.67,1.5-1.5,1.5h-7c-.83,0-1.5-.67-1.5-1.5v-1c0-.28.22-.5.5-.5h0Z" style="stroke-width: 0px;"/>
  <path d="m.77,11.42c-.47.37-.77.94-.77,1.58v5c0,1.1.9,2,2,2h16c1.1,0,2-.9,2-2v-5c0-.68-.34-1.29-.87-1.65l-3.13-5.54v1.92l1.78,3.27H2.17l1.83-3.27v-1.92L.77,11.42h0Zm17.23.58H2c-.55,0-1,.45-1,1v5c0,.55.45,1,1,1h16c.55,0,1-.45,1-1v-5c0-.55-.45-1-1-1h0Z" style="fill-rule: evenodd; stroke-width: 0px;"/>
</svg>