<?xml version="1.0" encoding="UTF-8"?>
<svg id="Layer_1" data-name="Layer 1" xmlns="http://www.w3.org/2000/svg" viewBox="0 0 20 20">
  <path d="m10,1c1.62,0,2.6.57,3.18,1.26.6.71.82,1.59.82,2.24,0,2.52-1.28,4.14-3.06,5.39.31.17.64.35.98.52,1.74-1.34,3.08-3.15,3.08-5.91,0-.85-.28-1.97-1.06-2.89-.79-.93-2.06-1.61-3.94-1.61s-3.15.68-3.94,1.61c-.78.92-1.06,2.04-1.06,2.89,0,4.33,3.29,6.33,6.28,7.82.37.19.73.36,1.08.53h0c1.12.55,2.16,1.05,2.98,1.62,1.07.75,1.66,1.52,1.66,2.53v2H3v-2c0-1.01.59-1.78,1.66-2.53.83-.57,1.86-1.07,2.98-1.62h0c.35-.17.71-.34,1.08-.53.08-.04.15-.08.23-.11-.33-.2-.66-.41-.98-.63-.24.11-.48.23-.72.35h0c-1.14.55-2.27,1.1-3.17,1.72-1.18.82-2.09,1.86-2.09,3.35v3h16v-3c0-1.49-.91-2.53-2.09-3.35-.9-.62-2.03-1.17-3.17-1.72l-1.02-.5c-3.01-1.51-5.72-3.26-5.72-6.93,0-.65.22-1.53.82-2.24.58-.69,1.56-1.26,3.18-1.26Z" style="fill-rule: evenodd; stroke-width: 0px;"/>
</svg>