<?xml version="1.0" encoding="UTF-8"?>
<svg id="Layer_1" data-name="Layer 1" xmlns="http://www.w3.org/2000/svg" viewBox="0 0 20 20">
  <path d="m15.26,6.02c-.2-.2-.2-.51,0-.71.19-.2.51-.2.71,0l4,4c.19.19.19.51,0,.71l-4,4c-.19.19-.51.19-.71,0-.19-.2-.19-.51,0-.71l3.65-3.65-3.65-3.65h0Zm-3.07-.62c.15-.23.45-.31.69-.16s.31.45.16.69l-5,8c-.15.24-.45.31-.69.16s-.31-.45-.16-.69l5-8.01h0Zm-7.93-.09c.19-.2.51-.2.71,0,.19.19.19.51,0,.71l-3.65,3.65,3.65,3.65c.19.19.19.51,0,.71-.2.19-.51.19-.71,0L.25,10.02c-.2-.2-.2-.51,0-.71l4-4h0Z" style="fill: #1b1919; fill-rule: evenodd; stroke-width: 0px;"/>
</svg>