<?xml version="1.0" encoding="UTF-8"?>
<svg id="Layer_1" data-name="Layer 1" xmlns="http://www.w3.org/2000/svg" viewBox="0 0 20 20">
  <path d="m2.93,17.07c-1.81-1.81-2.93-4.31-2.93-7.07C0,4.69,4.14.35,9.36.02c.05,0,.09-.02.14-.02h7c.2,0,.39.12.46.31.08.19.03.4-.11.54l-3,3c-.2.2-.51.2-.71,0-.19-.19-.19-.51,0-.7l2.15-2.15h-5.29C5.03,1,1,5.03,1,10c0,2.49,1.01,4.74,2.64,6.36l-.71.71Z" style="stroke-width: 0px;"/>
  <path d="m10,8c-.55,0-1.05.23-1.42.59-.36.36-.58.86-.58,1.41s.22,1.06.59,1.42l.02.02c.36.35.85.56,1.39.56s1.05-.22,1.41-.58c.36-.36.59-.86.59-1.42s-.22-1.05-.59-1.41c-.36-.36-.86-.59-1.41-.59Zm-2.12-.12c.54-.54,1.3-.88,2.12-.88s1.58.34,2.12.88c.54.54.88,1.29.88,2.12s-.34,1.58-.88,2.13c-.54.54-1.29.88-2.12.88s-1.55-.33-2.09-.86l-.03-.02c-.54-.55-.88-1.3-.88-2.13s.34-1.58.88-2.12Z" style="fill-rule: evenodd; stroke-width: 0px;"/>
  <path d="m8.62,5.65c-.34.1-.66.24-.96.4l-.03.02c-.31.17-.59.38-.85.63-.17.16-.43.17-.61.04l-1.01-.57-.97,1.65,1.02.58c.2.11.29.34.24.55-.04.16-.07.34-.09.52-.02.17-.03.35-.03.53,0,.19.01.36.03.54.02.18.05.36.09.52.06.23-.06.46-.26.56l-1,.57.97,1.64,1.04-.59c.2-.11.44-.07.59.08.26.24.56.45.87.63.31.18.65.32,1,.42.22.07.36.27.36.48v1.16h1.96v-1.16c0-.24.17-.44.4-.49.34-.1.67-.24.97-.41.32-.18.61-.39.88-.64.16-.15.4-.17.58-.06l1.04.58.97-1.64-1.02-.58c-.2-.11-.29-.34-.24-.55.04-.16.07-.34.09-.52.02-.18.03-.35.03-.54,0-.18-.01-.36-.03-.53-.02-.18-.05-.36-.09-.52-.06-.23.06-.47.26-.56l1-.57-.97-1.65-1.04.59c-.2.11-.44.08-.59-.07-.26-.24-.55-.46-.87-.64-.31-.17-.65-.31-1-.42-.22-.06-.36-.26-.36-.48v-1.15h-1.96v1.15c0,.25-.17.45-.4.5Zm-1.45-.46c.27-.16.56-.29.85-.4v-1.29c0-.28.22-.5.5-.5h2.96c.28,0,.5.22.5.5v1.29c.3.11.58.24.85.4.28.15.54.33.79.53l1.15-.65c.24-.14.54-.06.68.18l1.48,2.51c.14.24.05.54-.19.68l-1.15.65.04.26c.03.22.04.44.04.65s-.01.44-.04.65l-.04.27,1.16.65c.24.15.32.45.18.69l-1.48,2.5c-.14.23-.44.31-.67.18l-1.16-.66c-.24.2-.51.38-.79.54-.27.15-.56.29-.85.39v1.3c0,.27-.22.5-.5.5h-2.96c-.28,0-.5-.23-.5-.5v-1.3c-.3-.1-.58-.24-.85-.39-.28-.16-.54-.34-.79-.54l-1.15.66c-.24.14-.54.06-.68-.18l-1.48-2.51c-.14-.24-.05-.55.19-.68l1.15-.65-.04-.27c-.02-.21-.04-.43-.04-.65s.01-.43.04-.65l.04-.26-1.16-.66c-.24-.14-.32-.44-.18-.68l1.48-2.5c.14-.24.44-.32.67-.18l1.16.65c.24-.19.49-.36.76-.52h.02Z" style="fill-rule: evenodd; stroke-width: 0px;"/>
  <path d="m20,10.07c0-2.76-1.12-5.26-2.93-7.07l-.71.71c1.63,1.63,2.64,3.88,2.64,6.36,0,4.97-4.03,8.93-9,8.93h-5.29l2.15-2.15c.2-.19.2-.51,0-.7-.2-.2-.51-.2-.71,0l-3,3c-.14.14-.19.35-.11.54.08.19.26.31.46.31h7s.1,0,.14-.02c5.22-.33,9.36-4.6,9.36-9.91Z" style="stroke-width: 0px;"/>
</svg>