<?xml version="1.0" encoding="UTF-8"?>
<svg id="Layer_1" data-name="Layer 1" xmlns="http://www.w3.org/2000/svg" viewBox="0 0 20 20">
  <path d="m10.29.08l7.99,5c.16.1.24.28.23.45v8.97s0,.06,0,.1h0s0,.01,0,.01v.02s0,.01,0,.01c-.02.06-.05.12-.09.17h0s0,.01,0,.01h0s0,0,0,0h0s-.04.04-.04.04h0s0,0,0,0h0s0,0,0,0h0s0,0,0,0h-.02s-.01.02-.01.02h0s0,0,0,0l-8,5c-.17.11-.38.1-.54,0L1.75,14.92c-.08-.05-.14-.12-.18-.2v-.02c-.09-.13-.1-.28-.05-.41V5.5c0-.18.09-.33.24-.42L9.75.07c.17-.11.38-.1.54,0h0Zm-.77,13.54v-3.05s-3-1.73-3-1.73v3s3,1.78,3,1.78h0Zm1-3.05v3.05l3-1.78v-3.09s-3,1.82-3,1.82h0Zm-3.61-2.65l3.11,1.79,3.04-1.84-3.03-1.79-3.12,1.85h0Zm10.15,6.59l-3.08-1.78-3.7,2.19c-.16.1-.36.09-.51,0l-3.75-2.22-3.08,1.78,7.08,4.43,7.03-4.4h0Zm-2.54-2.61l3.01,1.73v-7.86L10.51,1.4v3.82l3.75,2.22c.17.1.25.28.24.46v4h0Zm-12,1.68l3.01-1.74v-3.97c0-.18.1-.34.24-.43l3.75-2.22V1.4L2.51,5.78v7.8h0Z" style="fill: #1b1919; fill-rule: evenodd; stroke-width: 0px;"/>
</svg>