<?xml version="1.0" encoding="UTF-8"?>
<svg id="Layer_1" data-name="Layer 1" xmlns="http://www.w3.org/2000/svg" viewBox="0 0 20 20">
  <path d="m16.16,18.45l-4.54-4.54,7.01-11.09-2.47,15.63Zm-8.16-6.73v6.05L17.08,3.4l-9.08,8.32ZM16.32,2.74L2.1,10.22l5.24.75L16.32,2.74ZM19.79.09s-.07-.04-.1-.05c-.12-.05-.26-.05-.39,0-.01,0-.03,0-.04.02L.27,10.06c-.19.1-.3.31-.26.53.04.21.21.37.42.4l6.57.94v7.57c0,.28.22.5.5.5.18,0,.34-.1.43-.24l3.15-4.98,5.07,5.07c.13.14.33.18.51.13.18-.06.31-.22.34-.4L19.99.59c.02-.1,0-.2-.04-.3-.03-.06-.07-.12-.12-.17-.01,0-.03-.02-.04-.03Z" style="fill-rule: evenodd; stroke-width: 0px;"/>
</svg>