<?xml version="1.0" encoding="UTF-8"?>
<svg id="Layer_1" data-name="Layer 1" xmlns="http://www.w3.org/2000/svg" viewBox="0 0 20 20">
  <path d="m2,1h5c.55,0,1,.45,1,1v5c0,.55-.45,1-1,1H2c-.55,0-1-.45-1-1V2c0-.55.45-1,1-1h0ZM0,2C0,.89.9,0,2,0h5c1.1,0,2,.89,2,2v5c0,1.11-.89,2-2,2H2C.9,9,0,8.11,0,7V2H0Zm2,10h5c.55,0,1,.45,1,1v5c0,.55-.45,1-1,1H2c-.55,0-1-.45-1-1v-5c0-.55.45-1,1-1h0ZM0,13C0,11.89.9,11,2,11h5c1.1,0,2,.89,2,2v5c0,1.11-.89,2-2,2H2C.9,20,0,19.11,0,18v-5H0ZM18,1h-5c-.55,0-1,.45-1,1v5c0,.55.45,1,1,1h5c.55,0,1-.45,1-1V2c0-.55-.45-1-1-1h0Zm-5-1c-1.1,0-2,.89-2,2v5c0,1.11.89,2,2,2h5c1.1,0,2-.89,2-2V2c0-1.11-.89-2-2-2h-5Zm0,12h5c.55,0,1,.45,1,1v5c0,.55-.45,1-1,1h-5c-.55,0-1-.45-1-1v-5c0-.55.45-1,1-1h0Zm-2,1c0-1.11.89-2,2-2h5c1.1,0,2,.89,2,2v5c0,1.11-.89,2-2,2h-5c-1.1,0-2-.89-2-2v-5h0Z" style="fill-rule: evenodd; stroke-width: 0px;"/>
</svg>