<?xml version="1.0" encoding="UTF-8"?>
<svg id="Layer_1" data-name="Layer 1" xmlns="http://www.w3.org/2000/svg" viewBox="0 0 20 20">
  <path d="m2,7.29l-1.85,1.85c-.2.2-.2.51,0,.71.2.19.51.19.71,0l1.15-1.15v8.79c0,1.38,1.12,2.5,2.5,2.5h11c1.38,0,2.5-1.12,2.5-2.5v-8.79l1.15,1.15c.2.19.51.19.71,0,.19-.2.19-.51,0-.71L11.21.5C10.89.18,10.45,0,10,0s-.89.18-1.21.5l-2.79,2.79v-.79c0-1.1-.89-2-2-2s-2,.89-2,2v4.79h0ZM9.5,1.21c.13-.13.31-.21.5-.21s.37.07.5.21l6.5,6.5v9.79c0,.83-.67,1.5-1.5,1.5H4.5c-.83,0-1.5-.67-1.5-1.5V7.71L9.5,1.21h0ZM3,6.29l2-2v-1.79c0-.55-.45-1-1-1s-1,.45-1,1v3.79h0Z" style="fill-rule: evenodd; stroke-width: 0px;"/>
</svg>