<?xml version="1.0" encoding="UTF-8"?>
<svg id="Layer_1" data-name="Layer 1" xmlns="http://www.w3.org/2000/svg" viewBox="0 0 20 20">
  <path d="m17.89,3.68h1.58c.29,0,.53.24.53.53v13.69c0,.29-.24.53-.53.53H.53c-.29,0-.53-.24-.53-.53V4.21c0-.29.24-.53.53-.53h1.58v-1.58c0-.29.24-.53.53-.53.02,0,.05,0,.07,0,1.43.08,2.77.3,4.03.66,1.17.34,2.26.79,3.27,1.36,1.02-.57,2.11-1.02,3.27-1.36,1.25-.36,2.59-.59,4.03-.66.02,0,.04,0,.07,0,.29,0,.53.24.53.53v1.58h0Zm-15.79,1.05h-1.05v12.63h6.65c-.41-.16-.84-.3-1.27-.43-1.17-.34-2.44-.55-3.79-.62h0c-.29,0-.53-.24-.53-.53V4.74h0Zm1.05,10.56c1.26.1,2.45.31,3.57.63.97.28,1.88.64,2.75,1.08V4.51c-.95-.52-1.96-.95-3.04-1.26-1.02-.3-2.11-.49-3.28-.59v12.63h0Zm7.37,1.71c.86-.44,1.78-.8,2.75-1.08,1.12-.32,2.31-.54,3.57-.63V2.67c-1.16.09-2.25.29-3.28.59-1.08.31-2.09.74-3.04,1.26v12.5h0Zm6.83-.69c-1.36.07-2.62.28-3.79.62-.44.13-.86.27-1.27.43h6.65V4.74h-1.05v11.05c0,.29-.24.53-.53.53h0Z" style="fill: #1b1919; fill-rule: evenodd; stroke-width: 0px;"/>
</svg>