<?xml version="1.0" encoding="UTF-8"?>
<svg id="foreground" xmlns="http://www.w3.org/2000/svg" viewBox="0 0 20 20">
  <path d="m10,5.91c-2.26,0-4.09,1.83-4.09,4.09s1.83,4.08,4.09,4.08,4.09-1.83,4.09-4.08-1.83-4.09-4.09-4.09Zm0,7.15c-1.69,0-3.06-1.37-3.06-3.06s1.37-3.06,3.06-3.06,3.06,1.37,3.06,3.06-1.37,3.06-3.06,3.06Z" style="stroke-width: 0px;"/>
  <path d="m18.17,10c0-.75.43-1.43,1.11-1.74l.72-.34c-.26-1.28-.77-2.47-1.46-3.52l-.75.27c-.7.26-1.49.08-2.02-.45-.53-.53-.7-1.32-.45-2.02l.27-.75c-1.05-.69-2.24-1.2-3.52-1.46l-.34.72c-.32.68-1,1.11-1.74,1.11s-1.43-.43-1.74-1.11l-.34-.72c-1.28.26-2.47.77-3.52,1.46l.27.75c.26.7.08,1.49-.45,2.02-.53.53-1.32.7-2.02.45l-.75-.27c-.69,1.05-1.19,2.24-1.46,3.52l.72.34c.68.32,1.11,1,1.11,1.74s-.43,1.43-1.11,1.74l-.72.34c.26,1.28.77,2.47,1.46,3.52l.75-.27c.7-.26,1.49-.08,2.02.45.53.53.7,1.32.45,2.02l-.27.75c1.05.69,2.24,1.2,3.52,1.46l.34-.72c.32-.68,1-1.11,1.74-1.11s1.43.43,1.74,1.11l.34.72c1.28-.26,2.47-.77,3.52-1.46l-.27-.75c-.26-.7-.08-1.49.45-2.02.53-.53,1.32-.7,2.02-.45l.75.27c.69-1.05,1.19-2.24,1.46-3.52l-.72-.34c-.68-.32-1.11-1-1.11-1.74Zm-.07,4.35c-1.06-.37-2.25-.1-3.04.7-.8.8-1.07,1.98-.7,3.04-.54.29-1.11.53-1.71.71-.49-1.01-1.52-1.66-2.65-1.66s-2.16.64-2.65,1.66c-.6-.18-1.17-.42-1.71-.71.37-1.06.1-2.24-.7-3.04-.8-.8-1.98-1.07-3.04-.7-.29-.54-.53-1.11-.71-1.7,1.01-.49,1.66-1.52,1.66-2.65s-.65-2.16-1.66-2.65c.18-.6.42-1.17.71-1.71,1.06.37,2.25.1,3.04-.7.8-.8,1.07-1.98.7-3.04.54-.29,1.11-.53,1.71-.71.49,1.01,1.52,1.66,2.65,1.66s2.16-.64,2.65-1.66c.6.18,1.17.42,1.71.71-.37,1.06-.1,2.24.7,3.04.8.8,1.98,1.07,3.04.7.29.54.53,1.11.71,1.71-1.01.49-1.66,1.52-1.66,2.65s.64,2.15,1.66,2.65c-.18.6-.42,1.17-.71,1.7Z" style="stroke-width: 0px;"/>
</svg>