<?xml version="1.0" encoding="UTF-8"?>
<svg id="icon" xmlns="http://www.w3.org/2000/svg" viewBox="0 0 864 864">
  <path d="M432,438.6c18.1,0,35.6-9.61,49.27-27.05,12.35-15.77,19.73-36.16,19.73-54.55,0-38.05-30.95-69-69-69s-69,30.95-69,69c0,18.39,7.38,38.78,19.73,54.55,13.67,17.44,31.17,27.05,49.27,27.05ZM432,306c28.12,0,51,22.88,51,51,0,14.28-6.09,30.93-15.9,43.45-10.18,13-22.65,20.15-35.1,20.15s-24.92-7.16-35.1-20.15c-9.81-12.52-15.9-29.16-15.9-43.45,0-28.12,22.88-51,51-51Z" style="stroke-width: 0px;"/>
  <path d="M546,570c0-30.45-11.86-59.08-33.39-80.61-21.53-21.53-50.16-33.39-80.61-33.39s-59.08,11.86-80.61,33.39c-21.53,21.53-33.39,50.16-33.39,80.61v6h228v-6ZM336.74,558c2.61-21.1,12.11-40.61,27.38-55.88,18.13-18.13,42.24-28.12,67.88-28.12s49.75,9.99,67.88,28.12c15.27,15.27,24.77,34.79,27.38,55.88h-190.52Z" style="stroke-width: 0px;"/>
</svg>