<?xml version="1.0" encoding="UTF-8"?>
<svg id="icon" xmlns="http://www.w3.org/2000/svg" viewBox="0 0 864 864">
  <path d="M600,708c0-8.07-.43-16.08-1.25-24h106.35v-21c0-48.88-19.04-94.84-53.6-129.4-34.56-34.56-80.52-53.6-129.4-53.6-24.69,0-48.44,4.75-70.76,14.13-25.05-9.28-51.82-14.13-79.33-14.13-60.9,0-118.16,23.72-161.22,66.78-43.06,43.06-66.78,100.32-66.78,161.22v12h456v-12ZM522.09,504c42.47,0,82.4,16.54,112.43,46.57,29.32,29.32,45.78,68.08,46.54,109.43h-86.11c-9.08-42.58-30.22-81.7-61.73-113.22-15.12-15.12-31.99-27.84-50.15-38,12.62-3.17,25.66-4.78,39.02-4.78ZM168.34,696c2.88-49.98,23.72-96.56,59.41-132.25,38.53-38.53,89.76-59.75,144.25-59.75s105.72,21.22,144.25,59.75c35.69,35.69,56.53,82.27,59.41,132.25H168.34Z" style="stroke-width: 0px;"/>
  <path d="M520.5,180c-15.91,0-31.78,3.17-46.43,9.22-25.26-27.76-61.66-45.22-102.07-45.22-76.09,0-138,61.91-138,138,0,36.78,14.75,77.56,39.46,109.1,27.34,34.89,62.33,54.1,98.54,54.1,27.35,0,54.01-10.97,77.21-31.38,21.09,19.26,45.99,29.73,71.29,29.73,32.57,0,63.75-16.92,87.82-47.63,21.25-27.12,33.94-62.32,33.94-94.17,0-67.14-54.62-121.75-121.75-121.75ZM292.35,376.29c-21.51-27.45-34.35-62.7-34.35-94.29,0-62.86,51.14-114,114-114s114,51.14,114,114c0,31.59-12.84,66.84-34.35,94.29-22.69,28.96-50.98,44.91-79.65,44.91s-56.96-15.95-79.65-44.91ZM589.43,381.12c-19.42,24.78-43.9,38.43-68.93,38.43-19.3,0-37.95-7.87-54.52-22.87,1.54-1.82,3.06-3.67,4.56-5.58,24.71-31.53,39.46-72.32,39.46-109.1,0-26.73-7.65-51.7-20.85-72.86,10.03-3.42,20.52-5.14,31.35-5.14,53.9,0,97.75,43.85,97.75,97.75,0,26.66-10.78,56.33-28.83,79.37Z" style="stroke-width: 0px;"/>
</svg>