<?xml version="1.0" encoding="UTF-8"?>
<svg id="icon" xmlns="http://www.w3.org/2000/svg" viewBox="0 0 864 864">
  <path d="M258,432c-38.05,0-69,30.95-69,69,0,18.39,7.38,38.78,19.73,54.55,13.67,17.44,31.17,27.05,49.27,27.05s35.6-9.61,49.27-27.05c12.35-15.77,19.73-36.16,19.73-54.55,0-38.05-30.95-69-69-69ZM293.1,544.45c-10.18,13-22.65,20.15-35.1,20.15s-24.92-7.16-35.1-20.15c-9.81-12.52-15.9-29.16-15.9-43.45,0-28.12,22.88-51,51-51s51,22.88,51,51c0,14.28-6.09,30.93-15.9,43.45Z" style="stroke-width: 0px;"/>
  <path d="M372,714c0-30.45-11.86-59.08-33.39-80.61-21.53-21.53-50.16-33.39-80.61-33.39s-59.08,11.86-80.61,33.39c-21.53,21.53-33.39,50.16-33.39,80.61v6h228v-6ZM162.74,702c2.61-21.1,12.11-40.61,27.38-55.88,18.13-18.13,42.24-28.12,67.88-28.12s49.75,9.99,67.88,28.12c15.27,15.27,24.77,34.78,27.38,55.88h-190.52Z" style="stroke-width: 0px;"/>
  <path d="M606,582.6c18.1,0,35.6-9.61,49.27-27.05,12.35-15.77,19.73-36.16,19.73-54.55,0-38.05-30.95-69-69-69s-69,30.95-69,69c0,18.39,7.38,38.78,19.73,54.55,13.67,17.44,31.17,27.05,49.27,27.05ZM606,450c28.12,0,51,22.88,51,51,0,14.28-6.09,30.93-15.9,43.45-10.18,13-22.65,20.15-35.1,20.15s-24.92-7.16-35.1-20.15c-9.81-12.52-15.9-29.16-15.9-43.45,0-28.12,22.88-51,51-51Z" style="stroke-width: 0px;"/>
  <path d="M606,600c-30.45,0-59.08,11.86-80.61,33.39-21.53,21.53-33.39,50.16-33.39,80.61v6h228v-6c0-30.45-11.86-59.08-33.39-80.61-21.53-21.53-50.16-33.39-80.61-33.39ZM510.74,702c2.61-21.1,12.11-40.61,27.38-55.88,18.13-18.13,42.24-28.12,67.88-28.12s49.75,9.99,67.88,28.12c15.27,15.27,24.77,34.78,27.38,55.88h-190.52Z" style="stroke-width: 0px;"/>
  <path d="M426,294.6c18.1,0,35.6-9.61,49.27-27.05,12.35-15.77,19.73-36.16,19.73-54.55,0-38.05-30.95-69-69-69s-69,30.95-69,69c0,18.39,7.38,38.78,19.73,54.55,13.67,17.44,31.17,27.05,49.27,27.05ZM375,213c0-28.12,22.88-51,51-51s51,22.88,51,51c0,14.28-6.09,30.93-15.9,43.45-10.18,13-22.65,20.15-35.1,20.15s-24.92-7.16-35.1-20.15c-9.81-12.52-15.9-29.16-15.9-43.45Z" style="stroke-width: 0px;"/>
  <path d="M540,426c0-30.45-11.86-59.08-33.39-80.61-21.53-21.53-50.16-33.39-80.61-33.39s-59.08,11.86-80.61,33.39c-21.53,21.53-33.39,50.16-33.39,80.61v6h228v-6ZM330.74,414c2.61-21.1,12.11-40.61,27.38-55.88,18.13-18.13,42.24-28.12,67.88-28.12s49.75,9.99,67.88,28.12c15.27,15.27,24.77,34.78,27.38,55.88h-190.52Z" style="stroke-width: 0px;"/>
  <path d="M483.95,594c4.15,0,8.18-2.15,10.4-6,3.31-5.74,1.35-13.08-4.39-16.39l-45.96-26.54v-53.07c0-6.63-5.37-12-12-12s-12,5.37-12,12v53.07l-45.96,26.54c-5.74,3.31-7.71,10.65-4.39,16.39,2.22,3.85,6.26,6,10.4,6,2.04,0,4.1-.52,5.99-1.61l45.96-26.54,45.96,26.54c1.89,1.09,3.95,1.61,5.99,1.61Z" style="stroke-width: 0px;"/>
</svg>