<?xml version="1.0" encoding="UTF-8"?>
<svg id="icon" xmlns="http://www.w3.org/2000/svg" viewBox="0 0 864 864">
  <path d="M543,673.5c0-8.6-.55-17.11-1.61-25.5h167.81v-19.8c0-42.79-16.66-83.02-46.92-113.28-30.26-30.26-70.49-46.92-113.28-46.92-36.79,0-72.36,12.63-100.75,35.64-31.17-19.3-67.16-29.64-104.75-29.64-53.29,0-103.39,20.75-141.07,58.43-37.68,37.68-58.43,87.78-58.43,141.07v10.5h399v-10.5ZM549,492c36.38,0,70.58,14.17,96.31,39.89,24.73,24.73,38.78,57.3,39.83,92.11h-148.3c-8.73-34.35-26.55-65.85-52.27-91.57-5.07-5.07-10.37-9.82-15.86-14.27,23.17-16.94,51.28-26.17,80.3-26.17ZM168.51,660c3.16-41.79,20.95-80.65,50.89-110.6,33.15-33.15,77.22-51.4,124.1-51.4s90.95,18.26,124.1,51.4c29.94,29.94,47.74,68.81,50.89,110.6H168.51Z" style="stroke-width: 0px;"/>
  <path d="M459.58,267.44c-14.49-50.44-61.04-87.44-116.08-87.44-66.58,0-120.75,54.17-120.75,120.75,0,32.18,12.91,67.87,34.53,95.46,23.92,30.53,54.54,47.34,86.22,47.34s62.3-16.81,86.22-47.34c9.07-11.58,16.61-24.59,22.3-38.17,5.08,15.42,12.96,30.38,23.07,43.28,20.5,26.17,46.75,40.58,73.91,40.58s53.4-14.41,73.91-40.58c18.53-23.65,29.59-54.24,29.59-81.82,0-57.07-46.43-103.5-103.5-103.5-38.1,0-71.46,20.7-89.42,51.44ZM410.83,381.41c-19.27,24.6-43.18,38.14-67.33,38.14s-48.06-13.55-67.33-38.14c-18.42-23.51-29.42-53.66-29.42-80.66,0-53.35,43.4-96.75,96.75-96.75s96.75,43.4,96.75,96.75c0,26.99-11,57.15-29.42,80.66ZM628.5,319.5c0,22.06-9.38,47.74-24.49,67.02-15.85,20.24-35.39,31.38-55.01,31.38s-39.16-11.14-55.01-31.38c-15.1-19.28-24.49-44.96-24.49-67.02,0-43.84,35.66-79.5,79.5-79.5s79.5,35.66,79.5,79.5Z" style="stroke-width: 0px;"/>
</svg>