<?xml version="1.0" encoding="UTF-8"?>
<svg id="icon" xmlns="http://www.w3.org/2000/svg" viewBox="0 0 864 864">
  <path d="M432,443.55c31.68,0,62.3-16.81,86.22-47.34,21.62-27.59,34.53-63.28,34.53-95.46,0-66.58-54.17-120.75-120.75-120.75s-120.75,54.17-120.75,120.75c0,32.18,12.91,67.87,34.53,95.46,23.92,30.53,54.54,47.34,86.22,47.34ZM432,204c53.35,0,96.75,43.4,96.75,96.75,0,26.99-11,57.15-29.42,80.66-19.27,24.6-43.18,38.14-67.33,38.14s-48.06-13.55-67.33-38.14c-18.42-23.51-29.42-53.66-29.42-80.66,0-53.35,43.4-96.75,96.75-96.75Z" style="stroke-width: 0px;"/>
  <path d="M631.5,673.5c0-53.29-20.75-103.39-58.43-141.07-37.68-37.68-87.78-58.43-141.07-58.43s-103.39,20.75-141.07,58.43c-37.68,37.68-58.43,87.78-58.43,141.07v10.5h399v-10.5ZM257.01,660c3.16-41.79,20.95-80.65,50.89-110.6,33.15-33.15,77.22-51.4,124.1-51.4s90.95,18.26,124.1,51.4c29.94,29.94,47.74,68.81,50.89,110.6h-349.98Z" style="stroke-width: 0px;"/>
</svg>