<?xml version="1.0" encoding="UTF-8"?>
<svg id="icon" xmlns="http://www.w3.org/2000/svg" viewBox="0 0 864 864">
  <path d="M397.5,394.5c0,9.19,3.69,19.39,9.86,27.27,6.83,8.72,15.58,13.53,24.64,13.53s17.8-4.8,24.64-13.53c6.18-7.88,9.86-18.08,9.86-27.27,0-19.02-15.48-34.5-34.5-34.5s-34.5,15.48-34.5,34.5Z" style="stroke-width: 0px;"/>
  <path d="M489,501c0-15.23-5.93-29.54-16.69-40.31-10.77-10.77-25.08-16.69-40.31-16.69s-29.54,5.93-40.31,16.69c-10.77,10.77-16.69,25.08-16.69,40.31v3h114v-3Z" style="stroke-width: 0px;"/>
</svg>