<?xml version="1.0" encoding="UTF-8"?>
<svg id="icon" xmlns="http://www.w3.org/2000/svg" viewBox="0 0 864 864">
  <path d="M229.5,424.95c13.58,0,26.7-7.21,36.95-20.29,9.27-11.83,14.8-27.12,14.8-40.91,0-28.53-23.21-51.75-51.75-51.75s-51.75,23.22-51.75,51.75c0,13.79,5.53,29.09,14.8,40.91,10.25,13.08,23.38,20.29,36.95,20.29ZM229.5,330c18.61,0,33.75,15.14,33.75,33.75,0,9.75-4.2,21.18-10.97,29.81-6.77,8.64-14.86,13.39-22.78,13.39s-16.02-4.76-22.78-13.39c-6.76-8.63-10.97-20.06-10.97-29.81,0-18.61,15.14-33.75,33.75-33.75Z" style="stroke-width: 0px;"/>
  <path d="M315,523.5c0-22.84-8.89-44.31-25.04-60.46-16.15-16.15-37.62-25.04-60.46-25.04s-44.31,8.89-60.46,25.04c-16.15,16.15-25.04,37.62-25.04,60.46v4.5h171v-4.5ZM163.34,510c2.6-12.88,8.92-24.72,18.43-34.23,12.75-12.75,29.7-19.77,47.73-19.77s34.98,7.02,47.73,19.77c9.51,9.51,15.83,21.35,18.43,34.23h-132.32Z" style="stroke-width: 0px;"/>
  <path d="M432,424.95c13.58,0,26.7-7.21,36.95-20.29,9.27-11.83,14.8-27.12,14.8-40.91,0-28.53-23.21-51.75-51.75-51.75s-51.75,23.22-51.75,51.75c0,13.79,5.53,29.09,14.8,40.91,10.25,13.08,23.38,20.29,36.95,20.29ZM432,330c18.61,0,33.75,15.14,33.75,33.75,0,9.75-4.2,21.18-10.97,29.81-6.77,8.64-14.86,13.39-22.78,13.39s-16.02-4.76-22.78-13.39c-6.76-8.63-10.97-20.06-10.97-29.81,0-18.61,15.14-33.75,33.75-33.75Z" style="stroke-width: 0px;"/>
  <path d="M517.5,523.5c0-22.84-8.89-44.31-25.04-60.46-16.15-16.15-37.62-25.04-60.46-25.04s-44.31,8.89-60.46,25.04c-16.15,16.15-25.04,37.62-25.04,60.46v4.5h171v-4.5ZM365.84,510c2.6-12.88,8.92-24.72,18.43-34.23,12.75-12.75,29.7-19.77,47.73-19.77s34.98,7.02,47.73,19.77c9.51,9.51,15.83,21.35,18.43,34.23h-132.32Z" style="stroke-width: 0px;"/>
  <path d="M634.5,424.95c13.58,0,26.7-7.21,36.95-20.29,9.27-11.83,14.8-27.12,14.8-40.91,0-28.53-23.21-51.75-51.75-51.75s-51.75,23.22-51.75,51.75c0,13.79,5.53,29.09,14.8,40.91,10.25,13.08,23.38,20.29,36.95,20.29ZM634.5,330c18.61,0,33.75,15.14,33.75,33.75,0,9.75-4.2,21.18-10.97,29.81-6.77,8.64-14.86,13.39-22.78,13.39s-16.02-4.76-22.78-13.39c-6.76-8.63-10.97-20.06-10.97-29.81,0-18.61,15.14-33.75,33.75-33.75Z" style="stroke-width: 0px;"/>
  <path d="M634.5,438c-22.84,0-44.31,8.89-60.46,25.04-16.15,16.15-25.04,37.62-25.04,60.46v4.5h171v-4.5c0-22.84-8.89-44.31-25.04-60.46-16.15-16.15-37.62-25.04-60.46-25.04ZM568.34,510c2.6-12.88,8.92-24.72,18.43-34.23,12.75-12.75,29.7-19.77,47.73-19.77s34.98,7.02,47.73,19.77c9.51,9.51,15.83,21.35,18.43,34.23h-132.32Z" style="stroke-width: 0px;"/>
</svg>