<?xml version="1.0" encoding="UTF-8"?>
<svg id="icon" xmlns="http://www.w3.org/2000/svg" viewBox="0 0 864 864">
  <path d="M432,441.9c27.16,0,53.4-14.41,73.91-40.58,18.53-23.65,29.59-54.24,29.59-81.82,0-57.07-46.43-103.5-103.5-103.5s-103.5,46.43-103.5,103.5c0,27.58,11.06,58.17,29.59,81.82,20.5,26.17,46.75,40.58,73.91,40.58ZM432,240c43.84,0,79.5,35.66,79.5,79.5,0,22.06-9.38,47.74-24.49,67.02-15.86,20.24-35.39,31.38-55.01,31.38s-39.16-11.14-55.01-31.38c-15.1-19.28-24.49-44.96-24.49-67.02,0-43.84,35.66-79.5,79.5-79.5Z" style="stroke-width: 0px;"/>
  <path d="M603,639c0-45.68-17.79-88.62-50.08-120.92-32.3-32.3-75.24-50.08-120.92-50.08s-88.62,17.79-120.92,50.08c-32.3,32.3-50.08,75.24-50.08,120.92v9h342v-9ZM285.75,624c3.38-33.6,18.11-64.75,42.3-88.94,27.76-27.76,64.68-43.06,103.94-43.06s76.18,15.29,103.94,43.06c24.2,24.2,38.92,55.35,42.3,88.94h-292.5Z" style="stroke-width: 0px;"/>
</svg>