<?xml version="1.0" encoding="UTF-8"?>
<svg id="icon" xmlns="http://www.w3.org/2000/svg" viewBox="0 0 864 864">
  <path d="M380.25,375.75c0,13.79,5.53,29.09,14.8,40.91,10.25,13.08,23.38,20.29,36.95,20.29s26.7-7.21,36.95-20.29c9.27-11.83,14.8-27.12,14.8-40.91,0-28.53-23.21-51.75-51.75-51.75s-51.75,23.22-51.75,51.75Z" style="stroke-width: 0px;"/>
  <path d="M517.5,535.5c0-22.84-8.89-44.31-25.04-60.46-16.15-16.15-37.62-25.04-60.46-25.04s-44.31,8.89-60.46,25.04c-16.15,16.15-25.04,37.62-25.04,60.46v4.5h171v-4.5Z" style="stroke-width: 0px;"/>
</svg>