<?xml version="1.0" encoding="UTF-8"?>
<svg id="icon" xmlns="http://www.w3.org/2000/svg" viewBox="0 0 864 864">
  <path d="M345.75,446.25c0,22.99,9.22,48.48,24.66,68.19,17.09,21.81,38.96,33.81,61.59,33.81s44.5-12.01,61.59-33.81c15.44-19.71,24.66-45.2,24.66-68.19,0-47.56-38.69-86.25-86.25-86.25s-86.25,38.69-86.25,86.25ZM500.25,446.25c0,19.1-7.79,40.44-20.83,57.08-13.6,17.36-30.44,26.92-47.42,26.92s-33.82-9.56-47.42-26.92c-13.04-16.65-20.83-37.99-20.83-57.08,0-37.63,30.62-68.25,68.25-68.25s68.25,30.62,68.25,68.25Z" style="stroke-width: 0px;"/>
  <path d="M556.73,483.55c13.67,17.44,31.17,27.05,49.27,27.05s35.6-9.61,49.27-27.05c12.35-15.77,19.73-36.16,19.73-54.55,0-38.05-30.95-69-69-69s-69,30.95-69,69c0,18.39,7.38,38.78,19.73,54.55ZM606,378c28.12,0,51,22.88,51,51,0,14.28-6.09,30.93-15.9,43.45-10.18,13-22.65,20.15-35.1,20.15s-24.92-7.16-35.1-20.15c-9.81-12.52-15.9-29.16-15.9-43.45,0-28.12,22.88-51,51-51Z" style="stroke-width: 0px;"/>
  <path d="M258,360c-38.05,0-69,30.95-69,69,0,18.39,7.38,38.78,19.73,54.55,13.67,17.44,31.17,27.05,49.27,27.05s35.6-9.61,49.27-27.05c12.35-15.77,19.73-36.16,19.73-54.55,0-38.05-30.95-69-69-69ZM293.1,472.45c-10.18,13-22.65,20.15-35.1,20.15s-24.92-7.16-35.1-20.15c-9.81-12.52-15.9-29.16-15.9-43.45,0-28.12,22.88-51,51-51s51,22.88,51,51c0,14.28-6.09,30.93-15.9,43.45Z" style="stroke-width: 0px;"/>
  <path d="M324.02,234.44c.01.14.03.28.05.43.02.15.04.3.08.44.03.13.07.27.11.4.05.15.09.3.15.45.02.05.03.09.05.14.03.08.08.16.12.24.07.14.14.29.21.42.07.13.15.25.23.37.08.12.17.24.26.36.1.12.2.24.3.35.06.07.11.14.18.21l102,102s.08.06.12.1c.19.18.39.33.6.49.08.06.14.13.22.18.03.02.06.03.08.05.02.02.04.04.07.05.27.17.55.3.83.42.02,0,.04.02.05.03.06.02.12.03.18.06.26.1.52.17.78.23.03,0,.05.02.08.02.03,0,.05.02.07.02.04,0,.09,0,.13.01.34.06.68.1,1.02.1h0c.34,0,.68-.04,1.02-.1.04,0,.09,0,.13-.01,0,0,0,0,.01,0,.05,0,.09-.03.14-.04.26-.06.52-.14.78-.23.08-.03.16-.05.24-.09.28-.12.56-.26.83-.42.03-.02.05-.04.07-.05.03-.02.06-.03.08-.05.08-.05.14-.12.22-.18.21-.15.41-.31.6-.49.04-.03.08-.06.12-.1l102-102c.06-.06.12-.14.18-.21.1-.11.21-.23.3-.35.09-.12.17-.24.26-.36.08-.12.16-.24.23-.37.08-.14.15-.28.21-.42.04-.08.09-.15.12-.24.02-.05.03-.09.05-.14.06-.15.1-.3.15-.45.04-.13.08-.27.11-.4.03-.15.05-.29.08-.44.02-.14.04-.28.05-.43.01-.15,0-.29,0-.44s0-.29,0-.44c-.01-.14-.03-.28-.05-.43-.02-.15-.04-.3-.08-.44-.03-.13-.07-.27-.11-.4-.05-.15-.09-.3-.15-.45-.02-.05-.03-.09-.05-.14-.03-.08-.08-.16-.12-.24-.07-.14-.14-.29-.21-.42-.07-.13-.15-.25-.23-.37-.08-.12-.17-.24-.26-.36-.1-.12-.2-.24-.3-.35-.06-.07-.11-.14-.18-.21l-34-34s-.06-.05-.09-.07c-.26-.25-.53-.48-.83-.68-.04-.03-.08-.05-.13-.07-.26-.16-.53-.3-.81-.42-.11-.05-.21-.09-.32-.13-.23-.09-.47-.16-.72-.21-.1-.02-.2-.05-.31-.07-.34-.06-.69-.1-1.04-.1h-136c-.35,0-.7.04-1.04.1-.1.02-.2.05-.31.07-.24.06-.48.13-.72.21-.11.04-.22.08-.32.13-.28.12-.55.26-.81.42-.04.03-.09.04-.13.07-.3.2-.57.43-.83.68-.03.03-.06.05-.09.07l-34,34c-.06.06-.12.14-.18.21-.1.11-.21.23-.3.35-.09.12-.17.24-.26.36-.08.12-.16.24-.23.37-.08.14-.15.28-.21.42-.04.08-.09.15-.12.24-.02.05-.03.09-.05.14-.06.15-.1.3-.15.45-.04.13-.08.27-.11.4-.03.15-.05.29-.08.44-.02.14-.04.28-.05.43-.01.15,0,.29,0,.44s0,.29,0,.44ZM344.49,240h49.19l24.59,73.79-73.79-73.79ZM432,208.49l19.51,19.51h-39.03l19.51-19.51ZM457.68,240l-25.68,77.03-25.68-77.03h51.35ZM445.73,313.79l24.59-73.79h49.19l-73.79,73.79ZM480.49,228l19.51-19.51,19.51,19.51h-39.03ZM485.51,206l-19.51,19.51-19.51-19.51h39.03ZM417.51,206l-19.51,19.51-19.51-19.51h39.03ZM364,208.49l19.51,19.51h-39.03l19.51-19.51Z" style="stroke-width: 0px;"/>
  <path d="M438,171.91v-22.17c0-3.31-2.69-6-6-6s-6,2.69-6,6v22.17c0,3.31,2.69,6,6,6s6-2.69,6-6Z" style="stroke-width: 0px;"/>
  <path d="M470.96,186.78c2.07,0,4.09-1.08,5.2-3l11.09-19.2c1.66-2.87.67-6.54-2.2-8.2-2.87-1.66-6.54-.67-8.2,2.2l-11.09,19.2c-1.66,2.87-.67,6.54,2.2,8.2.95.55,1.98.8,2.99.8Z" style="stroke-width: 0px;"/>
  <path d="M393.04,186.78c1.02,0,2.05-.26,2.99-.8,2.87-1.66,3.85-5.33,2.2-8.2l-11.09-19.2c-1.66-2.87-5.33-3.85-8.2-2.2-2.87,1.66-3.85,5.33-2.2,8.2l11.09,19.2c1.11,1.92,3.13,3,5.2,3Z" style="stroke-width: 0px;"/>
  <path d="M711.82,633.9c0-28.29-11.02-54.88-31.02-74.88-20-20-46.6-31.02-74.88-31.02s-54.88,11.02-74.88,31.02c-9.68,9.68-17.24,20.84-22.53,33.21-22.65-14.47-48.98-22.23-76.51-22.23s-53.86,7.76-76.51,22.23c-5.29-12.37-12.84-23.53-22.53-33.21-20-20-46.6-31.02-74.88-31.02s-54.88,11.02-74.88,31.02c-20,20-31.02,46.6-31.02,74.88v14.1h152.68c-10.04,19.74-15.36,41.71-15.36,64.5v7.5h285v-7.5c0-22.79-5.32-44.76-15.36-64.5h152.68v-14.1ZM170.26,630c.96-22.02,9.98-42.57,25.66-58.25,16.6-16.6,38.68-25.75,62.15-25.75s45.55,9.14,62.15,25.75c9.04,9.04,15.85,19.6,20.24,31.4l.28-.1c-3.28,2.74-6.46,5.64-9.52,8.7-5.71,5.71-10.87,11.82-15.46,18.26h-145.51ZM307.93,702c2.43-29.29,15.01-56.51,36.03-77.53,23.51-23.52,54.78-36.47,88.03-36.47s64.52,12.95,88.03,36.47c21.02,21.02,33.6,48.24,36.03,77.53h-248.13ZM548.22,630c-4.59-6.44-9.75-12.55-15.46-18.26-3.06-3.06-6.24-5.96-9.52-8.7l.28.1c4.4-11.8,11.21-22.36,20.24-31.4,16.6-16.6,38.68-25.75,62.15-25.75s45.55,9.14,62.15,25.75c15.68,15.68,24.71,36.24,25.66,58.25h-145.51Z" style="stroke-width: 0px;"/>
</svg>