<?xml version="1.0" encoding="UTF-8"?>
<svg id="icon" xmlns="http://www.w3.org/2000/svg" viewBox="0 0 864 864">
  <path d="M363,357c0,18.39,7.38,38.78,19.73,54.55,13.67,17.44,31.17,27.05,49.27,27.05s35.6-9.61,49.27-27.05c12.35-15.77,19.73-36.16,19.73-54.55,0-38.05-30.95-69-69-69s-69,30.95-69,69Z" style="stroke-width: 0px;"/>
  <path d="M546,570c0-30.45-11.86-59.08-33.39-80.61-21.53-21.53-50.16-33.39-80.61-33.39s-59.08,11.86-80.61,33.39c-21.53,21.53-33.39,50.16-33.39,80.61v6h228v-6Z" style="stroke-width: 0px;"/>
</svg>