<?xml version="1.0" encoding="UTF-8"?>
<svg id="icon" xmlns="http://www.w3.org/2000/svg" viewBox="0 0 864 864">
  <path d="M345.75,338.25c0,22.99,9.22,48.48,24.66,68.19,17.09,21.81,38.96,33.81,61.59,33.81s44.5-12.01,61.59-33.81c15.44-19.71,24.66-45.2,24.66-68.19,0-47.56-38.69-86.25-86.25-86.25s-86.25,38.69-86.25,86.25Z" style="stroke-width: 0px;"/>
  <path d="M574.5,604.5c0-38.06-14.82-73.85-41.74-100.76-26.91-26.91-62.7-41.74-100.76-41.74s-73.85,14.82-100.76,41.74c-26.91,26.91-41.74,62.7-41.74,100.76v7.5h285v-7.5Z" style="stroke-width: 0px;"/>
</svg>