<?xml version="1.0" encoding="UTF-8"?>
<svg id="icon" xmlns="http://www.w3.org/2000/svg" viewBox="0 0 864 864">
  <path d="M328.5,319.5c0,27.58,11.06,58.17,29.59,81.82,20.5,26.17,46.75,40.58,73.91,40.58s53.4-14.41,73.91-40.58c18.53-23.65,29.59-54.24,29.59-81.82,0-57.07-46.43-103.5-103.5-103.5s-103.5,46.43-103.5,103.5Z" style="stroke-width: 0px;"/>
  <path d="M603,639c0-45.68-17.79-88.62-50.08-120.92-32.3-32.3-75.24-50.08-120.92-50.08s-88.62,17.79-120.92,50.08c-32.3,32.3-50.08,75.24-50.08,120.92v9h342v-9Z" style="stroke-width: 0px;"/>
</svg>