<?xml version="1.0" encoding="UTF-8"?>
<svg id="icon" xmlns="http://www.w3.org/2000/svg" viewBox="0 0 864 864">
  <g id="Layer_1_copy" data-name="Layer 1 copy">
    <path d="M684,144H180c-19.88,0-36,16.12-36,36v504c0,19.88,16.12,36,36,36h504c19.88,0,36-16.12,36-36V180c0-19.88-16.12-36-36-36ZM369.13,265.66c20.05,0,36.31,16.27,36.31,36.38s-16.27,36.36-36.31,36.36-36.35-16.3-36.35-36.36,16.3-36.38,36.35-36.38ZM443,542.07h-56.25c-46.11,0-51.1-4.25-61.72-52.31-4.75-21.17-17.51-85.13-17.51-85.13-3.57-19.34,24.25-25.81,28.36-5.99,0,0,11.92,61.22,16.6,81.48,6.38,27.33,10.6,31.85,38.71,31.85h51.54c20.32,0,20.23,30.1.27,30.1ZM509.96,591.84c0,27.03-38.53,26.9-38.53-.48,0-25.42,4.19-77.91-2.25-84.39-4.78-4.81-76.02-2.33-76.02-2.33-18.28,0-29.72-12.51-32.59-26.83l-19.06-95.24c-6.51-41.87,53.76-54.53,63.49-11.74l16.46,81.94h61.3c17.88,0,27.21,14.4,27.21,27.65v111.43ZM503.68,358.24c-29.34,0-53.11-23.74-53.11-53.16s23.77-53.08,53.11-53.08,53.11,23.74,53.11,53.08-23.77,53.16-53.11,53.16Z" style="stroke-width: 0px;"/>
    <path d="M503.68,264.54c-22.41,0-40.57,18.13-40.57,40.51s18.16,40.63,40.57,40.63,40.56-18.16,40.56-40.63-18.16-40.51-40.56-40.51ZM528.19,308.29h-24.45c-1.51,0-2.78-1.24-2.78-2.77v-32.38c0-1.51,1.27-2.75,2.78-2.75s2.8,1.24,2.8,2.75v29.6h21.66c1.54,0,2.78,1.24,2.78,2.78s-1.24,2.77-2.78,2.77Z" style="stroke-width: 0px;"/>
  </g>
</svg>