<?xml version="1.0" encoding="UTF-8"?>
<svg id="icon" xmlns="http://www.w3.org/2000/svg" viewBox="0 0 864 864">
  <g id="Layer_1_copy" data-name="Layer 1 copy">
    <path d="M684,144H180c-19.88,0-36,16.12-36,36v504c0,19.88,16.12,36,36,36h504c19.88,0,36-16.12,36-36V180c0-19.88-16.12-36-36-36ZM431.67,252c28.1,0,52.39,24.23,52.39,52.3s-24.29,51.82-52.39,51.82-51.78-23.67-51.78-51.82,23.68-52.3,51.78-52.3ZM420.63,607.42c-6.05,6.11-17.62,6.11-23.65,0l-49.08-49.01c-5.53-5.54-8.78-12.13-9.36-21.54-.56-8.81,2.75-17.62,6.05-21.48l33.61-33.61,40.21,39.63-29.69,30.34,31.9,31.42c6.09,6.08,6.09,18.15,0,24.24ZM525.33,536.87c-.54,9.4-3.83,16.53-9.37,21.54l-48.47,49.01c-6.62,6.11-18.21,6.11-24.29,0-6.05-6.08-6.05-18.15,0-24.24l31.99-31.42-29.18-30.34,39.63-39.63,33.62,33.61c5.53,5.48,6.65,12.67,6.06,21.48ZM562.27,476.84c-6.62,6.59-19.26,6.59-25.88,0l-54.02-54.01v37.44h-100.82v-37.44l-54.05,54.01c-6.59,6.59-18.7,6.59-25.34,0-7.17-6.62-7.17-18.78,0-25.94l76.04-76.59c3.86-3.3,10.53-8.75,18.78-8.75h70.51c7.7,0,13.78,4.91,18.15,8.75l76.62,76.59c6.61,7.16,6.61,19.32,0,25.94Z" style="stroke-width: 0px;"/>
  </g>
</svg>