<?xml version="1.0" encoding="UTF-8"?>
<svg id="icon" xmlns="http://www.w3.org/2000/svg" viewBox="0 0 864 864">
  <g id="Layer_1_copy" data-name="Layer 1 copy">
    <path d="M684,144H180c-19.88,0-36,16.12-36,36v504c0,19.88,16.12,36,36,36h504c19.88,0,36-16.12,36-36V180c0-19.88-16.12-36-36-36ZM469.49,477h-67.46v45h134.98v45h-134.98v45h-60v-45h-60.03v-45h60.03v-45h-60.03v-45h60.03v-180h127.47c62.13,0,112.51,50.43,112.51,112.52s-50.38,112.48-112.51,112.48Z" style="stroke-width: 0px;"/>
    <path d="M465.73,297h-63.71v135h63.71c37.3,0,67.52-30.18,67.52-67.48s-30.21-67.52-67.52-67.52Z" style="stroke-width: 0px;"/>
  </g>
</svg>