<?xml version="1.0" encoding="UTF-8"?>
<svg id="icon" xmlns="http://www.w3.org/2000/svg" viewBox="0 0 864 864">
  <g id="Layer_1_copy" data-name="Layer 1 copy">
    <path d="M684,144H180c-19.88,0-36,16.12-36,36v504c0,19.88,16.12,36,36,36h504c19.88,0,36-16.12,36-36V180c0-19.88-16.12-36-36-36ZM548.73,457.02v64.45h-80.43v90.52h-68.32v-90.52h-90.56v-64.45h84.43l-110.69-205.02h76.32l68.61,116.62c1.24,1.46,2.56,2.16,4.06,2.16v-2.16l3.85-2.12,72.49-114.5h72.34l-114.5,205.02h82.39Z" style="stroke-width: 0px;"/>
  </g>
</svg>