<?xml version="1.0" encoding="UTF-8"?>
<svg id="icon" xmlns="http://www.w3.org/2000/svg" viewBox="0 0 864 864">
  <g id="Layer_1_copy" data-name="Layer 1 copy">
    <path d="M684,144H180c-19.88,0-36,16.12-36,36v504c0,19.88,16.12,36,36,36h504c19.88,0,36-16.12,36-36V180c0-19.88-16.12-36-36-36ZM432.01,611.98c-99.37,0-180.01-80.61-180.01-180.07s80.64-179.9,180.01-179.9,179.99,80.52,179.99,179.9-80.58,180.07-179.99,180.07Z" style="stroke-width: 0px;"/>
    <path d="M432.04,292.72c-76.95,0-139.4,62.29-139.4,139.19s62.42,139.34,139.4,139.34,139.28-62.33,139.28-139.34-62.39-139.19-139.28-139.19ZM431.99,329.96c10.24,0,18.59,8.28,18.59,18.59s-8.35,18.57-18.59,18.57-18.58-8.31-18.58-18.57,8.31-18.59,18.58-18.59ZM450.59,534.02h-37.19v-154.49h37.19v154.49Z" style="stroke-width: 0px;"/>
  </g>
</svg>