<?xml version="1.0" encoding="UTF-8"?>
<svg id="icon" xmlns="http://www.w3.org/2000/svg" viewBox="0 0 864 864">
  <g id="Layer_1_copy" data-name="Layer 1 copy">
    <path d="M561.63,388.41h-259.38v197.31h259.38v-197.31ZM373.5,546.67h-12.14c-8.27,0-16.33-6.18-16.33-16.85v-76.39c0-9.56,7.86-16.75,16.33-16.75h12.14v109.99ZM476.83,546.86h-89.91l-.03-110.01h22.06v-15.38c0-5.74,5.06-9.41,11.12-9.41h23.5c6.01,0,11.14,3.67,11.14,9.41v15.38h22.13v110.01ZM518.87,529.82c0,10.67-8.03,16.85-16.33,16.85h-12.14v-109.99h12.14c8.47,0,16.33,7.2,16.33,16.75v76.39Z" style="stroke-width: 0px;"/>
    <path d="M684,144H180c-19.88,0-36,16.12-36,36v504c0,19.88,16.12,36,36,36h504c19.88,0,36-16.12,36-36V180c0-19.88-16.12-36-36-36ZM385.1,252c15.85,0,29.48,8.74,37,21.51l86.6.17,14.51,14.69c2.27,2.29,2.08,4.19.11,6.3l-18.01,18.3-.23.09-10.75-10.84-10.42,10.58-10.34-10.42-10.32,10.42-10.23-10.42-13.44,13.56-17.2.2c-7.34,13-21.27,21.92-37.28,21.92-23.78,0-42.98-19.25-42.98-43.04s19.22-43.02,42.98-43.02ZM587.9,612h-311.79v-249.81h311.79v249.81Z" style="stroke-width: 0px;"/>
    <path d="M366.31,305.97c6.45,0,11.53-5.19,11.53-11.58s-5.11-11.56-11.53-11.56-11.5,5.25-11.5,11.56,5.12,11.58,11.5,11.58Z" style="stroke-width: 0px;"/>
  </g>
</svg>