<?xml version="1.0" encoding="UTF-8"?>
<svg id="icon" xmlns="http://www.w3.org/2000/svg" viewBox="0 0 864 864">
  <g id="Layer_1_copy" data-name="Layer 1 copy">
    <path d="M298.78,409.23c-6.25,0-11.57,2.16-15.91,6.22-4.4,4.21-6.58,9.19-6.58,14.99,0,7.12,2.18,12.49,6.58,16.25,4.34,3.73,9.66,5.59,15.91,5.59,6.64,0,12.06-1.86,16.21-5.59,4.19-3.76,6.25-9.13,6.25-16.25,0-5.8-2.19-10.78-6.55-14.99-4.37-4.05-9.67-6.22-15.91-6.22Z" style="stroke-width: 0px;"/>
    <path d="M684,144H180c-19.88,0-36,16.12-36,36v504c0,19.88,16.12,36,36,36h504c19.88,0,36-16.12,36-36V180c0-19.88-16.12-36-36-36ZM610.09,429.24l-36.8,39.26-21.84-20.58-20.58,18.71-20.57-18.71-20.61,18.71-19.96-18.71-25.56,24.99h-33.07c-8.34,13.7-19.07,24.42-32.14,32.11-13.11,7.69-27.59,11.53-43.4,11.53-9.96,0-19.5-1.68-28.7-4.96-9.13-3.36-17.47-8.14-24.98-14.39-7.43-6.22-13.77-13.52-19-21.84-5.2-8.29-8.8-17.45-10.89-27.45v-15.59c0-11.24,2.09-22.05,6.25-32.41,4.15-10.46,9.96-19.49,17.47-27.15,7.46-7.72,16.33-13.85,26.48-18.42,10.21-4.56,21.31-6.91,33.37-6.91,15.41,0,29.53,3.79,42.44,11.29,12.88,7.45,23.51,17.84,31.84,31.18h170.93l28.09,29.32c.85,1.26,1.56,2.19,2.18,2.79.65.66.96,1.38.96,2.22,0,2.85-.62,4.56-1.91,4.99Z" style="stroke-width: 0px;"/>
  </g>
</svg>