<?xml version="1.0" encoding="UTF-8"?>
<svg id="icon" xmlns="http://www.w3.org/2000/svg" viewBox="0 0 864 864">
  <g id="Layer_1_copy" data-name="Layer 1 copy">
    <path d="M684,144H180c-19.88,0-36,16.12-36,36v504c0,19.88,16.12,36,36,36h504c19.88,0,36-16.12,36-36V180c0-19.88-16.12-36-36-36ZM500.62,525.97c0,3.21-1.02,6.62-2.98,10.18-1.96,3.58-4.48,6.8-7.52,9.69-3.04,2.85-6.35,5.24-9.9,7.11-3.63,1.87-6.99,2.82-10.21,2.82h-187.41c-3.58,0-7.17-1-10.72-3.08-3.6-2.1-6.84-4.61-9.79-7.67-2.94-3.04-5.39-6.49-7.26-10.19-1.87-3.77-2.82-7.37-2.82-10.74v-184.7c0-3.41.94-6.93,2.82-10.62,1.87-3.71,4.33-7.02,7.26-10.1,2.95-3.01,6.23-5.52,9.91-7.5,3.68-1.98,7.21-2.95,10.6-2.95h186.6c3.24,0,6.64.94,10.22,2.82,3.56,1.87,6.88,4.24,9.92,7.14,3.04,2.86,5.56,6.08,7.55,9.65,1.96,3.58,2.9,6.98,2.9,10.18v44.04h-27.11v-36.77c0-3.22-1.44-6.2-4.42-8.84-2.95-2.69-6.04-4.04-9.27-4.04h-165.64c-1.41,0-3.02.24-4.81.64-1.78.48-3.51,1.17-5.09,2.17-1.64.99-2.98,2.14-4.06,3.46-1.03,1.36-1.59,2.92-1.59,4.73v175.86c0,1.41.49,2.8,1.47,4.15.99,1.32,2.16,2.52,3.51,3.49,1.32.98,2.79,1.75,4.42,2.26,1.59.54,3.03.81,4.29.81h165.66c1.77,0,3.67-.27,5.6-.81,2.01-.51,3.77-1.35,5.41-2.41,1.59-1.08,2.87-2.36,3.86-3.86.98-1.54,1.5-3.4,1.5-5.5v-37.36h27.12v45.92ZM608.81,440.83l-69.81,69.54c-1.08,1.26-2.46,2.14-4.18,2.67-1.69.58-3.34.84-4.94.84-3.58,0-6.68-1.29-9.26-3.88-2.61-2.61-3.9-5.69-3.9-9.26,0-1.26.09-2.58.27-3.9.2-1.38.71-2.45,1.6-3.37l48.03-49.15h-122.94c-1.45,0-2.83-.46-4.15-1.35-1.38-.9-2.52-1.96-3.49-3.33-1.02-1.35-1.78-2.82-2.43-4.29-.62-1.56-.96-2.95-.96-4.21,0-3.01,1.17-6.06,3.51-9.08,2.32-3.07,5.27-4.63,8.87-4.63h120.27l-47.27-48.29c-1.41-1.62-2.11-3.49-2.11-5.63v-2.4c0-3.6,1.18-6.69,3.61-9.3,2.4-2.58,5.5-3.9,9.27-3.9,1.26,0,2.58.12,4.01.44,1.41.24,2.58.85,3.51,1.74l73.8,73.81c.88.88,1.44,2.05,1.63,3.51.18,1.4.24,2.79.24,4.01,0,3.95-1.08,7.09-3.19,9.38Z" style="stroke-width: 0px;"/>
  </g>
</svg>