<?xml version="1.0" encoding="UTF-8"?>
<svg id="icon" xmlns="http://www.w3.org/2000/svg" viewBox="0 0 864 864">
  <g id="Layer_1_copy" data-name="Layer 1 copy">
    <path d="M684,144H180c-19.88,0-36,16.12-36,36v504c0,19.88,16.12,36,36,36h504c19.88,0,36-16.12,36-36V180c0-19.88-16.12-36-36-36ZM439.19,330.25h22.35c9.04,0,16.4,7.36,16.4,16.37v113.09c0,9.07-7.36,16.43-16.4,16.43h-22.35v-145.88ZM304.22,330.25h30.54v-15.5c0-10.54,5.49-14.6,17.33-14.6h26.92c11.84,0,17.33,4.06,17.33,14.6v15.5h30.53v145.88h-122.65v-145.88ZM253.13,346.62c0-9.01,7.33-16.37,16.41-16.37h22.35v145.88h-22.35c-9.09,0-16.41-7.36-16.41-16.43v-113.09ZM279.99,579.15c-15.05,0-27.23-12.18-27.23-27.26s12.18-27.26,27.23-27.26,27.26,12.18,27.26,27.26-12.21,27.26-27.26,27.26ZM525.76,579.15c-15.05,0-27.28-12.18-27.28-27.26s12.23-27.26,27.28-27.26,27.24,12.18,27.24,27.26-12.2,27.26-27.24,27.26ZM594.98,318.81h-42.63v199.02H252v-34.32h266.01l.25-173.58c0-13.84,11.24-25.08,25.08-25.08h51.64c9.44,0,17.02,7.58,17.02,16.95s-7.61,17.01-17.02,17.01Z" style="stroke-width: 0px;"/>
    <rect x="344.82" y="311.99" width="41.49" height="18.26" style="stroke-width: 0px;"/>
  </g>
</svg>