<?xml version="1.0" encoding="UTF-8"?>
<svg id="icon" xmlns="http://www.w3.org/2000/svg" viewBox="0 0 864 864">
  <g id="Layer_1_copy" data-name="Layer 1 copy">
    <path d="M579.88,387.03c0-23.19-21.07-41.08-44.24-38.44v76.27c23.17,2.67,44.24-15.21,44.24-37.83Z" style="stroke-width: 0px;"/>
    <path d="M684,144H180c-19.88,0-36,16.12-36,36v504c0,19.88,16.12,36,36,36h504c19.88,0,36-16.12,36-36V180c0-19.88-16.12-36-36-36ZM330.97,322.25h204.67c39.48,0,70.53,26.34,70.53,64.78s-33.68,66.77-70.53,64.19v11.56c0,14.72-10.54,29.47-24.71,29.47h-154.7c-14.77,0-25.26-14.75-25.26-29.47v-140.53ZM612,509.62c0,17.37-14.79,32.12-32.12,32.12h-295.25c-17.88,0-32.63-14.75-32.63-32.12v-5.73h360v5.73Z" style="stroke-width: 0px;"/>
  </g>
</svg>