<?xml version="1.0" encoding="UTF-8"?>
<svg id="icon" xmlns="http://www.w3.org/2000/svg" viewBox="0 0 864 864">
  <g id="Layer_1_copy" data-name="Layer 1 copy">
    <path d="M384.49,529.86h-85.31c-8.54,0-15.91,6.81-15.91,15.94s7.37,15.91,15.91,15.91h85.31c-8.48,0-15.93-6.81-15.93-15.91s7.44-15.94,15.93-15.94Z" style="stroke-width: 0px;"/>
    <rect x="545.45" y="384.8" width="38.1" height="40.96" style="stroke-width: 0px;"/>
    <polygon points="371.99 482.66 315.08 504.81 394.15 504.81 394.15 416.12 371.99 416.12 371.99 482.66" style="stroke-width: 0px;"/>
    <path d="M684,144H180c-19.88,0-36,16.12-36,36v504c0,19.88,16.12,36,36,36h504c19.88,0,36-16.12,36-36V180c0-19.88-16.12-36-36-36ZM419.21,529.86c-8.57,0-15.99,6.81-15.99,15.94s7.42,15.91,15.99,15.91v24.98h-121.71c-19.91,0-39.22-11.94-39.22-31.25v-133.09c0-14.2,6.22-26.76,18.7-31.28l95.02-34.72v31.28h47.21v142.22ZM292.93,365.45c-15.34,6.27-40.93-.54-40.93-18.78v-63.11h59.69v28.42c0,9.7,11.42,7.41,22.15,2.86l91.63-37.55,13.02,28.45-145.57,59.7ZM612,356.35v230.35h-154.71v-230.35h34.72l-38.11-25.59,19.32-25.02,31.3,22.21-12.51-41.53,24.97-9.13,15.93,44.39,15.99-44.39,24.97,9.13-12.48,41.53,31.83-22.21,18.79,25.02-38.14,25.59h38.14Z" style="stroke-width: 0px;"/>
    <rect x="548.89" y="457.07" width="34.66" height="98.37" style="stroke-width: 0px;"/>
    <rect x="485.71" y="457.07" width="34.72" height="98.37" style="stroke-width: 0px;"/>
    <rect x="482.28" y="384.8" width="38.11" height="40.96" style="stroke-width: 0px;"/>
  </g>
</svg>