<?xml version="1.0" encoding="UTF-8"?>
<svg id="icon" xmlns="http://www.w3.org/2000/svg" viewBox="0 0 864 864">
  <g id="Layer_1_copy" data-name="Layer 1 copy">
    <path d="M684,144H180c-19.88,0-36,16.12-36,36v504c0,19.88,16.12,36,36,36h504c19.88,0,36-16.12,36-36V180c0-19.88-16.12-36-36-36ZM326.37,343.02c14.68,0,26.56,11.82,26.56,26.4s-11.85,26.65-26.56,26.65-26.52-11.97-26.49-26.65c0-14.55,11.83-26.4,26.49-26.4ZM611.52,541.68h-29.46v-56.03h-300.78v56h-29.28v-204.61c0-8.17,6.51-14.72,14.66-14.72s14.66,6.58,14.66,14.72v120.96h330.21v83.68ZM612,436.08l-298.42-.09c-7.32,0-13.16-5.78-13.16-13.03s5.84-13.04,13.16-13.04h54.49v-39.44c0-7.16,5.86-13,13.07-13,.36,0,.7.21,1.17.27l208.46,20.78c11.34,1.4,21.05,9.35,21.14,20.99l.09,36.53v.03Z" style="stroke-width: 0px;"/>
  </g>
</svg>