<?xml version="1.0" encoding="UTF-8"?>
<svg id="icon" xmlns="http://www.w3.org/2000/svg" viewBox="0 0 864 864">
  <g id="Layer_1_copy" data-name="Layer 1 copy">
    <path d="M437.78,425.46v-12.81c3.66.28,6.51,3.88,6.82,7.58h12.16c0-12.4-11.28-18.95-19.09-19.36v-8.4h-11.57v8.4c-3.42,0-18.79,4.32-18.79,18.18,0,12.34,11.09,15.73,18.79,16.8v13.94c-5.62-1.57-6.67-5.87-7.45-9.39h-12.27c.74,13.83,13,20.33,19.72,21.29v8.51h11.7v-8.43c9.23-.47,20.19-8.43,20.19-19.33,0-12.48-10.93-16.03-20.22-16.97ZM426.16,423.37c-8.24-.11-8.43-9.12,0-10.58v10.58ZM437.92,449.86v-12.04c10.2.25,11.36,10.41,0,12.04Z" style="stroke-width: 0px;"/>
    <polygon points="344.87 403.12 331.14 425.52 318.42 403.12 304.74 403.12 325.36 439.45 309.51 439.45 309.51 450.77 325.19 450.77 325.19 466.88 337.68 466.88 337.68 450.77 352.35 450.77 352.35 439.26 352.35 439.23 337.06 439.23 357.51 403.12 344.87 403.12" style="stroke-width: 0px;"/>
    <path d="M534.23,409.04c5.36,0,7.64,4.76,8.46,10.58h12.38c0-9.58-4.71-23-20.95-23.08-17.67-.11-21.04,13.27-21.04,17.38s0,5.65,1.97,10.33h-7.33v10.36h9.1c1.61,4.49-.96,12.89-5.92,16.22v10.14h43.6v-10.14h-29.12c.27-3.11,5.63-7.02,4.53-16.3h8.75v-10.16h-10.71c-1.7-2.32-1.97-6.61-1.97-8.37s.03-6.94,8.26-6.94Z" style="stroke-width: 0px;"/>
    <path d="M684,144H180c-19.88,0-36,16.12-36,36v504c0,19.88,16.12,36,36,36h504c19.88,0,36-16.12,36-36V180c0-19.88-16.12-36-36-36ZM612,518.69H252v-173.38h360v173.38Z" style="stroke-width: 0px;"/>
    <path d="M587.18,370.16h-310.34v123.72h310.34v-123.72ZM331.22,479.11c-26,0-47.1-21.07-47.1-47.12s21.1-47.1,47.1-47.1,47.1,21.1,47.1,47.1-21.1,47.12-47.1,47.12ZM432,479.11c-26,0-47.1-21.07-47.1-47.12s21.1-47.1,47.1-47.1,47.07,21.1,47.07,47.1-21.07,47.12-47.07,47.12ZM532.76,479.11c-26,0-47.12-21.07-47.12-47.1s21.12-47.12,47.12-47.12,47.1,21.1,47.1,47.12-21.1,47.1-47.1,47.1Z" style="stroke-width: 0px;"/>
  </g>
</svg>