<?xml version="1.0" encoding="UTF-8"?>
<svg id="icon" xmlns="http://www.w3.org/2000/svg" viewBox="0 0 864 864">
  <g id="Layer_1_copy" data-name="Layer 1 copy">
    <path d="M684,144H180c-19.88,0-36,16.12-36,36v504c0,19.88,16.12,36,36,36h504c19.88,0,36-16.12,36-36V180c0-19.88-16.12-36-36-36ZM390.68,294.18c0-20.61,19.2-35.47,39.85-35.47s40.78,12.96,40.78,34.09c0,35.52-29.73,24.97-29.73,46.05v15.88h-21.63v-25.44c0-17.79,27.87-15.39,27.87-38.42,0-7.65-9.14-12.01-17.29-12.01-10.08,0-18.25,8.67-18.25,18.75v5.74h-21.6v-9.16ZM441.59,365.28v21.12h-21.63v-21.12h21.63ZM289.41,442.59h-29.28c-4.32,0-8.13-3.84-8.13-8.19s3.81-7.68,8.13-7.68h29.28v15.87ZM526.55,533.27l-31.71,13.47,31.71,12.96v45.6l-26.43-10.59h-128.18c-23.04,0-39.81-19.62-39.81-42.69s16.77-42.75,39.81-42.75h66.74l-48.01-10.56c-16.8-3.84-10.53-24.45,2.9-22.08l132.98,27.36v29.28ZM569.27,501.15h-5.28c-5.77,0-10.56-4.83-10.56-10.53s4.78-10.62,10.56-10.62h5.28c11.07,0,21.6-5.28,21.6-16.29s-10.08-18.27-21.6-18.27h-42.72v42.24l-226.54-45.09v-15.87l226.54-45.6v42.72h42.72c23.04,0,42.73,17.25,42.73,39.87s-20.64,37.44-42.73,37.44Z" style="stroke-width: 0px;"/>
  </g>
</svg>