<?xml version="1.0" encoding="UTF-8"?>
<svg id="icon" xmlns="http://www.w3.org/2000/svg" viewBox="0 0 864 864">
  <g id="Layer_1_copy" data-name="Layer 1 copy">
    <path d="M684,144H180c-19.88,0-36,16.12-36,36v504c0,19.88,16.12,36,36,36h504c19.88,0,36-16.12,36-36V180c0-19.88-16.12-36-36-36ZM549.97,336.97v241.19l-69.6,33.84-.28-.09-166.09-50.1v-229.34h.03l38.43-5.47v-17.68c-.09-2.19-.59-25.89,12.75-39.85,6.28-6.54,14.56-9.9,24.57-9.9.36,0,.83,0,1.23.03.15,0,.39-.03.68-.03,2.71,0,12.28.65,20.39,8.98,8.65,8.85,12.78,23.15,12.36,42.5l.09,12.4,7.74.83v-35.99c-.09-1.87-.44-17.38,9.23-27.52,5.53-5.82,12.99-8.77,22.26-8.77h1.2c1.94.03,25.33.83,34.2,25.89.98,2.32,5.4,15.07,5.4,54.17l45.44,4.91h-.03Z" style="stroke-width: 0px;"/>
    <path d="M365.42,325.1l31.92-4.53,14.23,1.51-.09-11.49v-.06c.33-14.82-2.56-25.83-8.53-31.95-4.69-4.81-9.99-5.21-11.5-5.21l-.59.03-.26-.03c-6.57-.27-11.58,1.49-15.58,5.56-9.78,9.98-9.63,29.75-9.6,29.96v16.22Z" style="fill: #19171c; stroke-width: 0px;"/>
    <polygon points="397.36 322.35 365.41 326.95 365.41 338.9 411.71 345.29 411.55 323.83 397.36 322.35" style="fill: #19171c; stroke-width: 0px;"/>
    <path d="M444.79,288.62v36.98l47.25,5.15c-.09-36.26-4.31-47.9-4.34-48.06l-.06-.15c-6.03-17.16-21.93-17.53-22.56-17.53-.4-.03-.72-.03-.99-.03-5.83,0-10.25,1.6-13.43,5-6.33,6.72-5.86,18.2-5.86,18.36v.27Z" style="fill: #19171c; stroke-width: 0px;"/>
    <polygon points="424.68 347.08 480.3 354.74 544.94 337.67 424.53 325.2 424.68 347.08" style="fill: #19171c; stroke-width: 0px;"/>
    <polygon points="352.44 337.14 352.44 328.81 322.96 333.04 352.44 337.14" style="fill: #19171c; stroke-width: 0px;"/>
  </g>
</svg>