<?xml version="1.0" encoding="UTF-8"?>
<svg id="icon" xmlns="http://www.w3.org/2000/svg" viewBox="0 0 864 864">
  <g id="Layer_1_copy" data-name="Layer 1 copy">
    <rect x="454.91" y="381.64" width="16.54" height="31.14" style="stroke-width: 0px;"/>
    <rect x="392.56" y="381.64" width="16.54" height="31.14" style="stroke-width: 0px;"/>
    <polygon points="473.62 553.85 477.06 555.73 477.06 558.65 494.67 558.65 494.84 556.22 497.5 554.37 497.5 475.54 474.75 475.54 473.62 553.85" style="stroke-width: 0px;"/>
    <polygon points="405.57 553.3 407.99 555.87 407.99 558.65 456.09 558.65 456 556.28 458.8 553.79 458.8 475.54 405.57 475.54 405.57 553.3" style="stroke-width: 0px;"/>
    <rect x="414.24" y="381.64" width="35.5" height="31.14" style="stroke-width: 0px;"/>
    <polygon points="366.5 475.54 366.5 554.37 369.16 556.22 369.3 558.65 386.94 558.65 386.94 555.73 390.36 553.85 389.25 475.54 366.5 475.54" style="stroke-width: 0px;"/>
    <path d="M684,144H180c-19.88,0-36,16.12-36,36v504c0,19.88,16.12,36,36,36h504c19.88,0,36-16.12,36-36V180c0-19.88-16.12-36-36-36ZM532.16,458.85h-.29c-.95-.09-2.12-.78-2.9-1.73-.65-.81-.91-1.76-.8-2.66.23-1.88,2.01-3.5,2.71-4.07l-.06-1.1c-2.51,2.28-9.23,7.83-14.99,8.29v3.32h-3.97v93.56l2.96,2.14v1.71h4.14v4.1h-4.29v26.78c.98.55,3.34,2.25,3.34,6.21v8.87h7.55v7.74h-187.15v-7.74h7.54v-8.87c0-3.96,2.37-5.66,3.35-6.24v-26.75h-4.29v-4.1h4.16v-1.71l2.96-2.14v-93.56h-3.96v-3.35c-5.81-.46-12.48-5.98-15.03-8.26l-.06,1.1c.72.58,2.51,2.19,2.76,4.04.12.93-.15,1.88-.82,2.69-.75.95-1.94,1.65-2.88,1.73-1.83.12-5.08-.81-5.3-3.67-.14-2.31,1.36-3.58,2.08-4.07v-8.72l1.59-.78,5.33,3.7c1.24.29,12.93,2.69,26.82-5.03,14.5-8.03,20.63-24.32,20.68-24.49l.14-.46h2.57v-2.45h2.25v-36.05l-8.25-6.5c.35.69,1.3,2.72,1.11,4.01-.14,1.16-1.39,1.99-2.86,1.99-.98,0-1.86-.35-2.57-.95-1.6-1.44-.92-3.64-.25-4.79v-8.38l.9.35s3.08,1.18,8.16,1.18,12.93-1.15,22.24-6.79c15.21-9.1,18.4-21.63,18.99-24.84-1.69.15-3.28.2-4.71.2-8.16,0-10.02-2.43-10.2-2.66l-.42-.67.68-.32c7.99-3.41,13.19-8.84,14.14-9.88.12-3.21,2.37-4.42,3.96-4.74v-.66h-5.49v-4.45h5.7v-1.3h-4.82v-4.79h4.61v-1.38h-3.7v-4.13h4.17v-2.34h-3.55v-3.81h3.77v-1.93h-3.02v-3.73h3.08v-1.3h-2.54v-4.07h2.69v-2.46c-.74-.29-2.01-1.01-2.01-2.54,0-1.41,1.08-1.99,2.01-2.17v-8.44c-2.69-.06-3.87-2.83-3.93-2.95l-.16-.38,4.68-4.74v-.95c-.59-.17-1.13-.69-1.13-1.73,0-1.3.77-1.79,1.5-1.79.16,0,.28.03.33.03h1.1c.12,0,.17-.03.35-.03.72,0,1.52.49,1.52,1.79,0,1.04-.54,1.56-1.13,1.73v.95l4.64,4.74-.15.38c-.06.12-1.21,2.89-3.9,2.95v8.44c.91.17,2.01.75,2.01,2.17,0,1.53-1.27,2.28-2.01,2.54v2.46h2.69v4.07h-2.57v1.33h3.1v3.7h-3.05v1.93h3.78v3.81h-3.58v2.37h4.18v4.1h-3.7v1.38h4.65v4.79h-4.85v1.33h5.71v4.45h-5.5v.66c1.6.32,3.85,1.53,3.97,4.74.91,1.04,6.18,6.44,14.11,9.88l.74.32-.45.64c-.17.26-2.03,2.66-10.17,2.66-1.46,0-3.05-.06-4.71-.17.59,3.21,3.76,15.71,18.96,24.84,9.35,5.6,17.24,6.79,22.27,6.79s8.1-1.18,8.13-1.18l.88-.38v8.4c.39.67,1.63,3.12-.2,4.77-.71.64-1.62.95-2.57.95-1.47,0-2.75-.84-2.9-1.96-.17-1.33.78-3.32,1.12-4.01l-8.25,6.5v36.02h2.24v2.48h2.59l.17.43c.03.17,6.18,16.46,20.64,24.49,13.94,7.71,25.59,5.32,26.86,5.08l5.3-3.7,1.59.75v8.72c.74.46,2.22,1.73,2.08,4.04-.19,2.72-3.09,3.67-4.98,3.67Z" style="stroke-width: 0px;"/>
  </g>
</svg>