<?xml version="1.0" encoding="UTF-8"?>
<svg id="icon" xmlns="http://www.w3.org/2000/svg" viewBox="0 0 864 864">
  <g id="Layer_1_copy" data-name="Layer 1 copy">
    <path d="M684,144H180c-19.88,0-36,16.12-36,36v504c0,19.88,16.12,36,36,36h504c19.88,0,36-16.12,36-36V180c0-19.88-16.12-36-36-36ZM560.02,558.71H252v-48.11h308.02v48.11ZM567.02,466.04c-1.61-2.3-3.66-4.39-6.1-6.11-2.37-1.66-5.03-3.01-7.79-4.03-2.81-.93-5.35-1.47-7.73-1.47h-54.85c-.72,0-1.68-.21-2.95-.72-1.25-.38-2.58-.93-3.91-1.44-1.4-.55-2.63-1.11-3.77-1.65-1.19-.51-2.05-.97-2.59-1.33-3.98-2.16-7.17-4.88-9.58-8.23-2.46-3.33-4.28-7-5.54-10.94-1.25-3.97-2.09-8.05-2.44-12.47-.35-4.28-.47-8.54-.24-12.65l-.55-.58c-6.33-1.24-12.21-3.26-17.75-6.07-5.46-2.79-10.19-6.24-14.15-10.52-3.95-4.26-7.07-9.12-9.33-14.72-2.23-5.58-3.35-11.61-3.35-18.11s1.23-13,3.63-19.07c2.46-6.03,5.79-11.24,10-15.77,4.23-4.49,9.23-8.09,15.01-10.82,5.74-2.68,12.07-4.05,18.89-4.05v15.7c-8.98,1.61-16.45,5.31-22.42,11.07-5.96,5.74-8.91,13.54-8.91,23.2,0,5.96,1.3,11.05,3.91,15.29,2.63,4.21,5.96,7.68,10.14,10.42,4.12,2.7,8.84,4.63,14.05,5.93,5.21,1.27,10.4,1.9,15.66,1.9,1.96.72,3.44,1.7,4.44,2.84,1.02,1.12,1.51,2.84,1.51,5,0,3.05-.79,5.93-2.3,8.65-1.54,2.66-2.3,5.65-2.3,8.87,0,2.16.4,4.72,1.23,7.47.79,2.77,1.91,5.47,3.37,7.98,1.44,2.51,3.24,4.6,5.4,6.33,2.16,1.72,4.59,2.54,7.28,2.54h53.78c4.14,0,8.52.86,13.12,2.58,4.59,1.68,8.77,4.03,12.53,7.02,3.82,2.98,6.91,6.49,9.35,10.56,2.44,4.02,3.63,8.33,3.63,12.82v29.45h-15.96v-27.29c0-2.7-.77-5.17-2.4-7.58ZM585.42,558.71h-15.66v-49.14h15.66v49.14ZM611.6,558.71h-15.66v-49.14h15.66v49.14ZM611.99,478.35c-.1,8.16-.14,15.66-.14,22.56h-15.91c0-6.53-.1-13.47-.28-20.94-.19-7.44-1.05-14.84-2.56-22.01-1.54-7.23-4.05-13.88-7.58-20.01-3.49-6.1-8.77-11.1-15.77-14.83-2.95-1.44-6.33-3.13-10.31-5.02-3.95-1.91-7.54-2.84-10.8-2.84h-35.39c-1.61,0-2.82-1.09-3.61-3.23-.83-2.16-1.23-3.79-1.23-4.86,0-2.91,1.03-5.82,3.09-8.8,2.09-2.95,3.6-5.63,4.46-7.93,1.07-2.74,1.75-5.18,2.05-7.3.24-2.16.38-4.79.38-7.84,0-5.77-1-10.91-3.12-15.43-2.05-4.45-4.84-8.29-8.33-11.44-3.56-3.15-7.68-5.63-12.47-7.47-4.73-1.79-9.84-2.93-15.22-3.51v-15.93c8.12,0,15.52,1.37,22.27,4.03,6.75,2.74,12.58,6.47,17.42,11.24,4.89,4.74,8.7,10.52,11.49,17.28,2.77,6.72,4.21,14.19,4.21,22.27v8.37c0,.4-.21,1.14-.58,2.33-.32,1.16-.69,2.37-.93,3.74-.24,1.4-.61,2.7-.93,3.95-.37,1.26-.58,1.98-.58,2.12,0,.19-.04.37-.1.44-.11.1-.11.21-.11.42,0,.14,0,.37.11.54.07.14.1.33.1.51.75,0,1.98.07,3.67.18,1.72.07,3.56.14,5.52.28,1.98.07,3.88.16,5.72.26,1.76.11,3.05.14,3.77.14,7.54.51,14.61,2.37,21.19,5.53,6.58,3.12,12.44,7.22,17.57,12.29,5.14,5.04,9.47,10.77,13.07,17.24,3.6,6.49,6.14,13.37,7.58,20.54,1.62,7.26,2.42,14.91,2.3,23.13Z" style="stroke-width: 0px;"/>
  </g>
</svg>