<?xml version="1.0" encoding="UTF-8"?>
<svg id="icon" xmlns="http://www.w3.org/2000/svg" viewBox="0 0 864 864">
  <g id="Layer_1_copy" data-name="Layer 1 copy">
    <path d="M684,144H180c-19.88,0-36,16.12-36,36v504c0,19.88,16.12,36,36,36h504c19.88,0,36-16.12,36-36V180c0-19.88-16.12-36-36-36ZM559.26,559.28c-32.52,32.54-77.59,52.72-127.23,52.72h-.03c-49.64.03-94.74-20.19-127.26-52.72-32.55-32.54-52.72-77.61-52.72-127.26s20.17-94.78,52.72-127.26c32.48-32.57,77.62-52.75,127.26-52.75s94.71,20.18,127.26,52.75c32.55,32.48,52.72,77.64,52.72,127.26s-20.17,94.72-52.72,127.26Z" style="stroke-width: 0px;"/>
    <path d="M359.87,389.47l-40.45-40.43c-17.16,23.2-27.28,51.85-27.28,82.97,0,38.63,15.62,73.51,40.95,98.88,25.38,25.31,60.22,40.97,98.91,40.97,31.12,0,59.76-10.12,82.99-27.27l-26.91-26.9-128.21-128.23ZM385.39,469.16v41.43c0,22.72-34.5,22.72-34.5,0v-90.47s-11.57,4.91-15.52,6.27c-15.89,5.45-25.64-23.98-.56-32.6,3.95-1.33,11.93-3.83,16.07-4.31h2.22l79.82,79.69h-47.54ZM455.26,510.59v-19.13l30.33,30.28c-8.92,10.54-30.33,6.84-30.33-11.15Z" style="stroke-width: 0px;"/>
    <path d="M432,292.13c-31.14.06-59.76,10.15-82.99,27.3l195.56,195.53c17.16-23.2,27.26-51.82,27.26-82.94,0-38.69-15.6-73.54-40.96-98.88-25.37-25.37-60.22-40.94-98.88-41ZM535.75,419.9l-46.16,6.24-.03,26.81-63.49-63.45h24.05s32.93-32.96,53.1-53.15c13.83,0,0,27.06,0,27.06l36.74,36.76c8.59,8.86,3.62,19.73-4.22,19.73Z" style="stroke-width: 0px;"/>
  </g>
</svg>