<?xml version="1.0" encoding="UTF-8"?>
<svg id="icon" xmlns="http://www.w3.org/2000/svg" viewBox="0 0 864 864">
  <g id="Layer_1_copy" data-name="Layer 1 copy">
    <path d="M684,144H180c-19.88,0-36,16.12-36,36v504c0,19.88,16.12,36,36,36h504c19.88,0,36-16.12,36-36V180c0-19.88-16.12-36-36-36ZM404.44,387.52c1.86,12.58,4.19,18.67,6.74,18.67h61.3v61.22h-45.44c-1.23,16.03-5.16,30.51-11.85,44.44-6.55,13.96-9.77,28.28-9.77,42.57h152.21v57.57h-237.3v-59.47c14.47-15.84,22.03-29.64,22.66-40.67.76-11.13,1.01-26.12,1.01-44.44h-41.41v-61.22h31.64v-9.96c0-1.19-.69-4.9-1.98-10.61-1.49-5.93-2.08-9.61-2.08-11.03v-15.67c0-33.32,11.59-58.89,34.62-78.31,23.01-19.16,49.73-28.61,80.12-28.61,35.61,0,63.88,12.26,84.78,36.64,21.3,24.41,31.74,53.89,31.74,87.89h-67.07c-5.39-11.64-10.61-23.03-15.85-33.28-5.42-10.81-15.76-16.03-31.85-16.03-11.58,0-22.32,2.26-31.46,7.29-9.26,4.39-13.77,13.07-13.77,26.32,0,5.1.92,14.29,3.03,26.71Z" style="stroke-width: 0px;"/>
  </g>
</svg>