<?xml version="1.0" encoding="UTF-8"?>
<svg id="icon" xmlns="http://www.w3.org/2000/svg" viewBox="0 0 864 864">
  <g id="Layer_1_copy" data-name="Layer 1 copy">
    <polygon points="362.49 373.95 361.15 372.63 360.51 371.98 359.2 370.7 358.56 364.76 355.93 365.42 356.6 371.98 361.82 379.2 363.77 377.88 364.44 377.88 364.44 377.26 363.77 376.57 363.77 375.94 363.13 375.26 363.13 374.63 362.49 373.95" style="stroke-width: 0px;"/>
    <path d="M684,144H180c-19.88,0-36,16.12-36,36v504c0,19.88,16.12,36,36,36h504c19.88,0,36-16.12,36-36V180c0-19.88-16.12-36-36-36ZM611.69,415.24l-.67,38.05-1.31,2.65-1.28,13.78-9.23,30.8-1.28,3.28-1.98,2.63-1.31,3.28-1.31,2.62-1.95,3.28-1.31,3.31-1.95,3.25-1.98,3.25-1.98,3.34-1.95,3.25-3.27,3.94-2.64,3.94-3.29,3.94-3.26,3.97-3.27,3.9-3.29,3.28-3.26,3.94-3.31,3.28-3.94,3.28-3.26,3.28-9.83,7.84-9.87,6.56-10.46,6.62-10.48,5.22-10.49,4.56-10.51,3.9-11.13,3.31-11.15,2.62-11.82,2.03-11.78.6h-26.25l-3.91-.6-3.95-.71-3.94-.63-4.61-.69-4.58-1.31-4.58-1.31-5.26-1.28-4.58-1.34-17.07-5.9-23.6-11.12-4.58-3.28-4.61-3.31-4.58-3.28-4.62-3.94-3.94-3.25-3.91-3.25-3.94-3.34-3.29-3.25-3.28-3.28-3.26-3.28-1.34-1.97-1.95-1.31-1.28-2.59-1.98-2.03-1.95-2.63-1.98-2.59-1.95-2.63-1.98-2.65-1.97-3.25-2.65-3.25-5.22-8.56-3.94-8.53-4.61-8.53-3.23-9.18-3.31-9.15-2.62-9.18-1.98-9.84-1.28-9.84-1.31-9.84-.67-9.84.67-5.28v-9.13l.64-4.62v-4.59l.67-3.94.64-3.94v-3.28l.64-3.28.67-3.28,3.29-12.46,3.95-11.15,3.94-11.15,5.22-11.15,5.89-10.47,6.57-9.84,7.2-9.21,7.87-9.15,8.52-8.56,9.18-8.47,9.2-7.28,9.15-5.87,9.18-5.9,10.51-5.28,9.83-3.91,10.51-3.91,11.11-3.31,11.18-2.62,11.14-1.94,11.82-1.31h20.98l4.61.65,4.58.66,4.59.66,5.25.63,4.58.66,3.94,1.31,3.94.66,3.31,1.28,3.27.65,3.94,1.37,3.26.65,3.29,1.28,3.27.66,2.64,1.31,3.26.66,25.58,13.75,5.22,3.31,4.61,3.28,4.62,3.31,3.94,3.25,3.94,3.31,3.9,3.25,3.94,2.62,3.26,3.25,3.31,3.31,3.27,3.25,4.58,5.28,4.61,5.87,3.95,5.9,3.94,5.28,3.26,5.87,3.29,5.28,3.26,5.22,2.6,5.25,2.65,5.9,1.95,5.25,2,6.56,1.95,5.94,1.98,5.87,1.28,5.25,1.34,5.25,1.28,4.62.67,4.56.64,3.94.67,3.94v3.25Z" style="stroke-width: 0px;"/>
    <polygon points="379.53 336.62 372.33 338.55 370.38 337.21 369.71 337.9 371.66 340.49 379.53 339.18 380.84 341.15 382.79 341.15 382.79 340.49 382.79 339.84 383.47 339.18 383.47 338.55 384.14 337.9 384.14 337.21 384.78 336.62 385.42 335.9 385.42 335.28 386.09 334.65 390.04 335.9 390.68 335.28 390.04 332.65 392.02 330.68 392.02 330 391.35 328.72 390.68 328.03 390.68 327.37 390.68 326.78 390.68 326.09 390.68 325.41 393.98 320.16 394.62 320.16 395.26 320.16 395.93 319.5 396.6 319.5 396.6 318.88 397.24 318.88 396.6 318.22 395.26 318.22 394.62 318.88 393.98 319.5 392.66 320.16 392.02 320.84 391.35 320.84 391.35 321.47 390.68 321.47 390.04 321.47 390.04 320.84 389.37 320.84 387.37 323.44 388.72 328.03 384.14 330.68 379.53 336.62" style="stroke-width: 0px;"/>
    <polygon points="435.29 370.7 434.62 370.01 433.98 370.7 432.66 370.7 431.98 371.32 431.35 371.98 430.02 372.63 428.71 373.29 427.4 374.63 426.09 375.94 426.09 378.57 433.98 389.03 430.7 392.97 430.7 398.22 433.3 399.56 441.21 398.9 441.21 398.22 440.53 397.59 440.53 396.91 439.86 395.59 439.86 394.28 439.22 392.97 438.55 391.69 437.91 389.69 437.24 387.72 436.6 381.16 431.98 376.57 435.93 371.98 435.29 370.7" style="stroke-width: 0px;"/>
    <polygon points="411.69 384.44 412.33 383.79 411.02 379.88 404.44 375.94 403.13 373.95 395.93 375.94 395.26 375.94 395.26 375.26 394.62 374.63 394.62 373.95 394.62 373.29 394.62 372.63 394.62 371.32 394.62 370.7 393.98 370.01 393.98 369.35 393.3 369.35 392.66 369.35 392.02 369.35 391.35 370.01 389.37 373.29 386.09 374.63 384.14 378.57 383.47 379.2 383.47 379.88 384.14 380.5 384.14 381.16 384.78 381.85 384.78 382.47 385.42 382.47 386.09 383.13 386.73 383.13 389.37 383.13 390.04 382.47 390.68 382.47 390.68 381.85 391.35 381.85 392.66 381.85 393.3 381.16 393.98 381.16 395.26 381.16 396.6 381.85 397.24 381.85 398.55 382.47 399.19 383.13 399.87 383.79 400.54 383.79 401.82 384.44 402.49 385.1 403.8 385.1 404.44 385.1 405.75 385.1 407.06 385.1 407.74 385.75 408.38 385.75 409.02 385.75 409.69 385.1 410.33 385.1 411.02 385.1 411.69 384.44" style="stroke-width: 0px;"/>
    <polygon points="399.87 457.91 401.18 463.84 401.82 464.44 402.49 465.1 403.13 465.1 403.8 465.78 405.08 466.41 406.42 467.75 407.74 468.38 409.02 469.72 409.69 471.03 411.02 471.03 409.02 461.84 405.75 458.54 405.08 452.63 399.87 448.73 399.87 440.88 395.93 437.58 395.93 433.64 390.68 425.77 389.37 426.42 389.37 427.05 389.37 427.73 389.37 428.39 389.37 429.02 389.37 430.36 390.04 431.67 390.04 432.98 390.68 434.95 391.35 436.26 392.02 438.26 395.93 442.2 395.93 453.29 399.87 457.91" style="stroke-width: 0px;"/>
    <path d="M608.43,411.99l-.67-3.28-.67-3.28v-3.28l-.64-2.59-.64-3.28-.67-2.65-.67-1.94v-2.66l-1.95-5.25-1.36-4.59-1.28-4.56-1.95-4.62-1.98-4.59-1.31-4.59-1.95-4.59-1.95-4.59-1.98-3.94-2.62-3.91-16.4-24.3-13.78-15.09-3.29-2.63-3.26-2.59-2.6-2.66-2.62-1.91-2.66-2.65-2.62-1.31-2.61-1.94-2.66-1.97-1.95-1.34-1.98-1.34-17.68-9.81h-.67v1.31l18.35,9.84,1.31,1.97,9.87,6.53-.64,1.37-16.4-7.9-.67.66v3.94l11.81,13.09,1.31-.65,1.28-1.94,3.31.63,9.82,8.53,13.13,18.36v.69l-.67.63v3.97h.67l5.25,10.5,7.2,5.21-.67,7.87-5.89-4.56-.64.63v8.53l11.15,9.84,3.9,13.12v12.49l-6.54,11.78.64.66.68.66v1.97l.63,1.28v4l-.63,1.31v1.31l-3.95-.71.64-7.19-.64-.68-1.98.68-1.31,5.9v.69l.67.6v1.34l.64.63.64.68v1.28l.67.69.67.66h1.31l.64.63h.67l1.33.68.63.66.68.63v.69l.64,1.28v1.34l.67,1.31v7.25l-.67,1.94-.64,2.59-.68,2-.63,2.62-.68,1.97-.64,2.63-1.31-2.63-1.98-1.97-7.84-3.94v10.47l4.58,5.93.64.63h1.31l.64.71.67.6h.67v.66h.64v.68l1.98,10.47v1.34l-5.25-1.97v1.31l1.28.66.67.63,1.31.69.67.66,1.31.63.64.69.68.63.63,1.37.68.63v.66l-1.31,10.47-4.62-.66-5.22-3.94-3.29-8.53-7.89-5.25-.64-1.28v-2.62l.64-.66.68-.66h.63l.69-.69h.64l1.34-.63,1.28,1.31.67.66h.64l1.31.66.67.63h1.95l-.64-6.56-5.25-3.9-1.98-15.09-3.95-6.53h-.64v.63h-.67v.69h-.64l-.64.63-.67,1.31-.67.63-.64-.63v-.66l-.67-.65-.64-.63-.64-.69v-.63l-.67-1.31v-.68l-.64-1.31v-1.31l-5.89-4.59-.67-.68v-.63l-.67-.66-.64-.69h-.64l-7.89,5.28-7.2,15.09-5.92,5.25v.66l.64,1.28v9.84l-.64,1.97v2.65l1.98,1.31,1.31,1.28,1.31,1.34.64,1.28.67,1.34.64,1.31v2.6l-.64,1.37-.67,1.28-1.31.66h-1.31l-.64-.66h-.67l-.67-.66-.64-.63-.64-.74v-1.25l-.67-.69v-1.97l.67-5.25h-1.31l-.67,1.31-.68,1.34v1.31l-.64.66-.64.63v.69l-.67.66v.63h-.64v.69l-5.25-5.9-9.82-16.43-2.64-13.12-1.95-1.28-3.97,1.97-7.84-5.9-.64-1.31-.67-.63v-1.34l-.64-.66-.67-.66-.67-.66-.64-.65h-.64l-2.62.65h-3.31l-1.95.66h-2.62l-1.31.66h-5.25l-6.58-1.31-2.62-3.28-.64.66,1.31,5.25.64,1.31h4.62l.64.68h.67v.63l.64.69.67.63.64.69v1.28l.64.66-.64.63v.66l-3.27,3.97v1.31l-.67.66v1.28l-.64.65-.67,1.34-.64.66-.69,1.28-1.31.65-1.31.69-1.31.63-4.58,3.31-5.25,2.6-3.94,2.62-3.95,1.97-3.94,2-3.26,1.94-3.26.66-2.63,1.34h-2.62l-1.98.66h-.64v2.59l.64.69v.66h4.6l.67-.66h1.95l1.28-.69,1.31-.63h6.59l1.97-1.97h3.94l-1.31,7.87-4.59,9.81-9.86,11.18-8.51,3.9-9.2,9.15-3.94,6.59.67,3.94v2.65l3.26,4.53,2.63,13.15-3.27,5.25h-1.95l-1.34.63h-1.95l-1.31.68-1.31.63h-1.31l-.64.69-1.31.66-.67.66-1.31.65,2.66,7.87v2l-.67.63v.68l-.67.63h-3.95v1.28l-.64.69-.67.63v.66l-.64,1.31-1.31,1.34-.67.63-.64,1.34-1.31,1.28-5.89,1.97-15.76-.66-5.89-3.94-.64-1.31-.67-1.28-1.31-.69-1.31-1.28-1.31-1.31-1.33-1.97-1.31-1.31-1.95-1.31-1.98-1.97-1.95-1.34v-3.25l-.67-.66h-.64l-.67-.66v-.65h-.64v-2.63l-.67-.68.67-1.28-9.83-11.84-2-4.56,1.31-7.22,2-2.62-5.26-19.02-8.51-11.81.64-.66v-1.31l.67-.66v-2.63l.64-1.31v-3.91l-.64-1.97v-2l-1.31-2.6-7.23-.69-.64-6.53-4.62-3.94h-10.47l-3.29-3.31h-3.26l-.69-.6h-1.28l-.67-.71h-1.31l-.67-.63v-.66l-3.26-9.21-2.62-5.22.67-1.31v-1.97l-.67-1.31v-3.94l-.64-2.63-.64-2.62-.67-2.65-.64-3.25,2.6-7.87.67-.63.67-1.31.61-.68v-.63l.67-.69v-.69l.67-.63v-1.34l.64-1.28v-1.97l.67-1.31v-7.22l5.9-5.9.67-1.31.64-1.31.67-1.28.64-.69,1.31-.66,1.31-.66,1.31-.66,1.31-.65h3.94v-.66l.64-.66v-.66l.64-.66.67-.66.67-1.31.64-1.31.67-.63,1.28-1.34.67-1.31,5.26-.63,4.58-3.94,4.58,4.56,1.34-.63h3.94l1.95.63h4.59l2.62.68,2.62.63,3.27.66,2.62.69,1.31,1.28.64,6.56-2.6,5.25.64.66.67.68.64.63.64.68h.67l.67.63h1.31l1.33.69h.63l.68,5.22,5.89,5.25v.65h1.31l.64-.65h.67v-.66l.67-.66-.67-.63v-2l.67-.66v-1.31h.64v-.66h3.9l16.43,9.84h9.15l.64.63h3.31l.67-.63,4.58-11.15-.67-1.28h-.64l-1.31.63h-1.95l-.67-.63h-1.31l-.65-.66v-.66h-.67l-.67-.69h-1.28l-1.31-.63h-3.94l-1.31.63-3.91-6.53.64-1.34v-5.9l-.64-.66-5.25.66,1.95,3.94v3.31l-1.95-.69-3.31,2.62-3.29-.66.67-1.97v-5.9l-.67-.65-1.28-1.31h-1.98l-.64-1.28-1.31.63-1.95,3.94-3.94,1.31v.66l-.67.65v.66h-1.31l-6.57-5.25v-1.31h3.31l1.95.66h5.25l.64-.66v-1.97l-1.95-1.97-4.58-9.84v-.66l.64-.66v-2.62h-.64l-7.25.66-1.95-2.62h-1.31l-1.98,3.94-7.84,1.97-1.31,3.28-4.59,3.31h-5.28l-3.91-2.65v-1.97l-2.62-1.97v-2.62l3.26-6.56,5.25-5.25,1.31-3.94h3.26v1.34h.67v1.31h.64v.65h.68l.63.63,5.26,2.62.67-1.31.64-1.31.67-.63.64-1.34.67-.63v-.69l.64-.66v-1.31l-.64-5.87.64-.69h.64l.67-.65h2.62l1.31-1.31-.67-.66h-1.31v-.66h-.64l-.67-.66v-.62l4.58-1.94v-1.34h-.64v-.63h-.64l-.67-.69h-2.62l-.64-.66-.67-3.31,5.25-5.21,7.25.63,6.53-7.19h1.34l3.26,2.62v.63l-.67.65-.64,1.31v.66h-.67l-.64.69-.64.63-.67.68h-.67l-1.28.69-.67,9.84-2.63,2.56.67,1.31h1.95l3.29-2.6h5.89l3.94-7.21,6.54-1.34-.64-1.31-2.62,1.31-2.64-2.56,2.64-5.94,4.61-3.94,9.83-1.97.64-.63,1.31-.69,1.28-.68.67-.63,1.33-1.34.67-.63,1.31-1.31.67-.66.64-1.31,1.31-1.31,8.51-1.34h8.53l10.5,8.53,2.59,3.31v-2.63h.67v-.68l.67-.63h.64l1.31.63v2h.64v.66h.67v.66h.67l13.75-3.94-.64-1.34-7.87-1.28-.64-.66v-.66l-.67-.65v-2.66h.67v-.65l7.87-12.44,5.89.66v2l-8.51,9.78v.65h-.67v.69h.67v1.31h.64l6.56,1.97h1.95l1.31-8.53,4.62.66h4.58l-1.31-3.31,2.63-1.31v-1.91l3.94-4.62-1.31-3.25v-1.34h10.51l1.31,3.31,1.95,1.28,4.61-6.56,7.17,1.97.67-.66v-1.97l-.67-.66-.64-.63-.64-.69h-.67l-.64-.66-.67-3.31h.67l.64-.66.67-.63v-.68l.64-.63-9.18-12.44-1.95-.66-1.95-.65-2.64-1.37h-2.63l-3.94-.65-3.94-.63-4.58-.65-4.62-.66-5.22-.66-5.89-.66h-11.18l-14.43,15.09h-2.62v1.37h.67v.6h1.31v.69h.64v.65h.67l-5.25,7.19-35.39,11.15h-3.29l-5.26-1.97-10.47-.6-2.62.6-1.98.66h-1.95l-1.31.65-1.31.66h-2l-.64.66h-.67v-.66l.67-1.97,6.57-7.21,5.89-1.97,4.58-2,5.25-1.97,3.95-1.28,3.94-1.31,3.94-.63,3.26-1.34,2.62-.6h2.6l2-.72h1.31l.67-.66.67-.63.64-.71h.64v-.6l.67-.69v-.69l-25.6,9.18h-6.56l-20.98,8.56-26.22,20.3-1.31-.65v-1.94h-.67l-.64-.69-9.87,9.84-7.84,9.84-7.87,10.49-7.22,11.15-5.89,11.81-5.25,11.81-3.94,12.46-3.95,13.12-2.62,13.77-1.98,13.78v17.05l.67,8.5.64,7.87.67,7.87,1.31,7.22,1.95,7.25,1.95,7.25,2,6.5,2.65,6.56,4.58,11.15,5.22,9.87,5.92,9.81,5.9,9.18,6.53,8.53,6.56,7.87,7.25,7.21,7.2,7.25,7.87,5.84,7.89,5.9,7.84,4.59,7.89,4.62,8.54,4.56,8.51,3.94,9.2,3.28,9.15,2.62,9.84,2.65,9.82,1.28,10.51,1.97,10.46.68,2.63.63h10.51l3.97-.63h3.91l4.58-.68,5.26-.63,5.25-.69,5.25-.66,5.22-1.28,4.62-1.37,4.61-.6,3.26-1.34,3.94-1.31,3.27-.66,2.62-1.31,2.62-.63,2-.66,1.28-.68,26.25-13.12,5.22-3.25,4.61-3.31,4.59-3.28,3.94-3.25,3.94-3.25,3.9-3.34,3.29-3.25,3.27-2.62,2.64-2.63,2.62-3.28,2.63-2.62,2.62-3.31,2.62-3.25,1.95-3.31,2.62-3.25,2.63-3.28,2-3.28,2.63-3.97,1.95-3.25,2.63-3.97,3.29-7.18,3.26-6.53,2.62-7.25,2.6-7.21,2.67-7.16,1.95-7.9,1.98-7.22,1.28-7.84,1.34-7.27.64-7.87v-25.52l-.64-4v-3.25ZM359.2,297.26l4.58-3.34,1.98.71v2.63l.67.6.64.69h.64v1.97h-.64v.66l-.64.63-.67.69-.64.63-.67.66-7.84-.66,2.6-5.84ZM434.62,551.02v1.31l-2.64,1.94-6.53,15.77-5.25,2.59h-1.31l-1.98-.63h-1.31l-1.31-.69-.64-.63-.67-1.28-.64-1.31-.64-.69v-1.97l-.67-1.31v-1.34l3.94-3.91-1.98-3.94.67-1.31.64-.65.67-1.31.64-.66.67-.66h1.31l.67-.66h1.31l.64.66h1.31l3.94-6.56,3.26-1.97.67.66,1.31.63.65.69.63.66.69.65.64.63.67,1.34v1.31l.64,1.31v1.31ZM599.2,460.5l-1.95,4.59-1.31,10.52-8.51,5.25-2.63-1.31-2.62-9.84,4.61-4.62v-3.94l6.53-13.09.67-3.94,5.22,1.28-2.6,9.21,2.6,5.87Z" style="stroke-width: 0px;"/>
    <polygon points="429.38 425.77 430.02 427.05 430.7 428.39 431.98 430.36 433.3 432.33 434.62 434.3 435.93 436.92 441.21 438.26 443.13 438.26 446.42 434.3 445.75 432.33 436.6 429.02 431.98 421.86 428.04 423.12 428.04 423.8 428.71 425.08 429.38 425.77" style="stroke-width: 0px;"/>
  </g>
</svg>