<?xml version="1.0" encoding="UTF-8"?>
<svg id="icon" xmlns="http://www.w3.org/2000/svg" viewBox="0 0 864 864">
  <g id="Layer_1_copy" data-name="Layer 1 copy">
    <path d="M684,144H180c-19.88,0-36,16.12-36,36v504c0,19.88,16.12,36,36,36h504c19.88,0,36-16.12,36-36V180c0-19.88-16.12-36-36-36ZM422.42,280.67l9.56-28.67,9.56,28.67,30.25.22-24.31,17.98,9.1,28.81-24.6-17.59-24.57,17.59,9.1-28.81-24.32-17.98,30.22-.22ZM499.61,612h-135.21v-94.08l14.11,31.74v-62.36h14.12l39.38-177.05,39.38,177.05h14.15v62.36l14.08-31.74v94.08Z" style="stroke-width: 0px;"/>
  </g>
</svg>