<?xml version="1.0" encoding="UTF-8"?>
<svg id="icon" xmlns="http://www.w3.org/2000/svg" viewBox="0 0 864 864">
  <g id="Layer_1_copy" data-name="Layer 1 copy">
    <path d="M684,144H180c-19.88,0-36,16.12-36,36v504c0,19.88,16.12,36,36,36h504c19.88,0,36-16.12,36-36V180c0-19.88-16.12-36-36-36ZM351.48,351.87c14.78,7.82,31.11,13.21,47.43,14.35l-1.68,32.97c-15.09-.99-30.15-4.44-44.41-9.92.38,20.05.35,40.08.26,60.13l-51.71-2.6c.09-34.34.19-68.68-1.94-102.96-.83-14.14,14.59-25.15,27.38-24.42,15.34.92,23.56,13.3,24.39,27.38.12,1.69.19,3.4.28,5.08ZM302.66,252l45.97,2.33-.86,17.25-45.97-2.31.86-17.28ZM297.69,286.53c.28-4.96,1.88-9.58,4.48-13.4l44.77,2.28c2.25,4.06,3.42,8.78,3.18,13.78-.76,14.46-13.1,25.61-27.57,24.9-14.46-.74-25.61-13.06-24.87-27.55ZM387.73,593.1c-2.54-29.52-16.08-63.37-36.2-84.16.03,1.4-.09,2.77-.42,4.27-6.13,29.06-28.96,58.1-36.47,86.85-5.37,20.93-37.71,12.05-32.3-8.9,7.41-28.52,26.53-57.32,32.6-86.13-3.29-6.76-2.96-13.49-7.05-19.82-.06-.06-.06-.09-.09-.15-3.5-4.01-5.84-9.31-6.13-15.94-.25-4.27-.42-11.3-.62-15.51l51.82,2.76c.12,3.37.29,6.71.45,10.07,38.56,29.58,63.66,77.41,67.9,126.66,1.86,21.53-31.71,21.36-33.51,0ZM467.56,604.61c-9.53,0-17.25-7.78-17.25-17.31s7.72-17.25,17.25-17.25,17.31,7.74,17.31,17.25-7.75,17.31-17.31,17.31ZM542.45,604.61c-9.53,0-17.26-7.78-17.26-17.31s7.74-17.25,17.26-17.25,17.25,7.74,17.25,17.25-7.68,17.31-17.25,17.31ZM582.27,557.14h-150.54v-165.05c-2.01,3.24-5.47,5.68-10.68,6.36-5.11.64-8.45,1.02-13.64,1.05l-.28,5.45-10.16-.51.23-5.22c3.37.23,6.79.29,10.2.29l1.66-33.2c-3.4.15-6.78.15-10.16-.06l.17-4.27,10.16.51-.18,3.82c2.19-.09,2.54-.31,4.76-.6,9.16-1.17,15.78,4.3,18.59,11.12,4.12-31.57,28.75-56.67,60.01-61.54-.6-1.45-.99-3.02-.99-4.66,0-6.46,5.27-11.73,11.72-11.73h.74v-8.27c0-1.52,1.28-2.8,2.85-2.8s2.88,1.29,2.88,2.8v8.27h1.26c6.45,0,11.67,5.27,11.67,11.73,0,1.63-.32,3.21-.95,4.66,34.31,5.33,60.67,35.02,60.67,70.82v171.03Z" style="stroke-width: 0px;"/>
    <rect x="522.17" y="437.58" width="13.57" height="7.75" style="stroke-width: 0px;"/>
    <path d="M510.51,327.38h-6.96c-32.4,0-58.73,26.37-58.73,58.73v158h124.42v-158c0-32.35-26.33-58.73-58.73-58.73ZM453.81,397.02h37.45v96.64h-37.45v-96.64ZM558.82,533.07h-102.13v-27.13h102.13v27.13ZM558.82,493.65h-62.23v-48.32h21.91v-11.46h20.96v11.46h19.37v48.32Z" style="stroke-width: 0px;"/>
  </g>
</svg>