<?xml version="1.0" encoding="UTF-8"?>
<svg id="icon" xmlns="http://www.w3.org/2000/svg" viewBox="0 0 864 864">
  <g id="Layer_1_copy" data-name="Layer 1 copy">
    <path d="M323.33,592.53h215.86v-213.01h-215.86v213.01ZM479.97,392.85c7.99,0,14.37,6.33,14.37,14.32s-6.38,14.37-14.37,14.37-14.4-6.46-14.4-14.37,6.47-14.32,14.4-14.32ZM447.12,436.43c0-6.27,5.01-10.51,10.51-10.51h44.63c6,0,10.57,4.73,10.57,10.51v54.61c0,4.48-3.66,7.65-7.68,7.65h-4.65v71.8c0,13.11-19.17,13.11-19.17,0v-71.8h-2.92v71.8c0,13-19.21,13-19.21,0v-71.8h-4.44c-3.96,0-7.65-3.23-7.65-7.65v-54.61ZM384.93,392.85c7.98,0,14.4,6.33,14.4,14.32s-6.41,14.37-14.4,14.37-14.4-6.46-14.4-14.37,6.47-14.32,14.4-14.32ZM351.9,436.43c0-6.27,5-10.51,10.51-10.51h44.66c5.97,0,10.54,4.73,10.54,10.51v54.61c0,4.48-3.66,7.65-7.68,7.65h-4.63v71.8c0,13.11-19.22,13.11-19.22,0v-71.8h-2.89v71.8c0,13-19.18,13-19.18,0v-71.8h-4.46c-3.96,0-7.65-3.23-7.65-7.65v-54.61Z" style="stroke-width: 0px;"/>
    <path d="M684,144H180c-19.88,0-36,16.12-36,36v504c0,19.88,16.12,36,36,36h504c19.88,0,36-16.12,36-36V180c0-19.88-16.12-36-36-36ZM449.24,281.05l30.13,30.1v-59.14h19.13v58.94l29.92-29.95-.05,26.16-39.59,39.57-39.54-39.59v-26.08ZM336.68,291.56l39.56-39.56,39.59,39.56v26.11l-30.11-30.07v59.11h-19.14v-58.95l-29.92,30.02.03-26.22ZM560.19,594.27c0,9.8-7.92,17.73-17.73,17.73h-220.91c-9.8,0-17.73-7.93-17.73-17.73v-216.9c0-9.8,7.93-17.76,17.73-17.76h220.91c9.81,0,17.73,7.96,17.73,17.76v216.9Z" style="stroke-width: 0px;"/>
  </g>
</svg>