<?xml version="1.0" encoding="UTF-8"?>
<svg xmlns="http://www.w3.org/2000/svg" viewBox="0 0 864 864">
  <g id="Layer_1" data-name="Layer 1">
    <rect x="144" y="336" width="384" height="384" style="fill: none; stroke: #000; stroke-linecap: round; stroke-linejoin: round; stroke-width: 24px;"/>
    <rect x="336" y="144" width="384" height="384" style="fill: none; stroke: #000; stroke-linecap: round; stroke-linejoin: round; stroke-width: 24px;"/>
    <polygon points="528 336 144 336 336 144 720 144 528 336" style="fill: none; stroke: #000; stroke-linecap: round; stroke-linejoin: round; stroke-width: 24px;"/>
    <polygon points="528 720 144 720 336 528 720 528 528 720" style="fill: none; stroke: #000; stroke-linecap: round; stroke-linejoin: round; stroke-width: 24px;"/>
  </g>
  <g id="Layer_1_copy" data-name="Layer 1 copy">
    <path d="M731.94,142.81c0-.06-.02-.12-.02-.19-.03-.29-.08-.58-.13-.86-.02-.13-.05-.25-.08-.38-.05-.23-.11-.45-.17-.67-.04-.13-.07-.26-.11-.38-.1-.31-.21-.61-.33-.92,0,0,0,0,0-.01-.05-.11-.1-.22-.15-.33-.1-.21-.2-.42-.3-.63-.06-.12-.13-.24-.19-.35-.12-.2-.24-.4-.36-.6-.06-.1-.12-.19-.19-.29-.4-.58-.84-1.11-1.33-1.61-.07-.07-.14-.13-.2-.2-.19-.18-.38-.36-.58-.52-.08-.07-.16-.14-.25-.21-.22-.18-.45-.35-.68-.51-.05-.04-.11-.08-.16-.12-.28-.18-.56-.36-.85-.52-.11-.06-.23-.12-.35-.18-.19-.1-.39-.19-.58-.28-.13-.06-.26-.12-.4-.17-.22-.09-.45-.17-.68-.25-.1-.04-.21-.08-.31-.11-.31-.1-.63-.18-.96-.25-.12-.03-.24-.05-.37-.07-.24-.05-.49-.08-.74-.11-.12-.01-.23-.03-.35-.04-.36-.03-.72-.06-1.09-.06h-384c-.4,0-.8.02-1.2.06-.29.03-.58.08-.87.13-.1.02-.2.03-.3.05-.34.07-.68.16-1.01.25-.04.01-.08.02-.12.03-.34.1-.67.22-.99.36-.04.01-.07.03-.11.04-.31.13-.61.27-.9.43-.05.03-.11.05-.16.08-.27.15-.53.31-.79.47-.07.05-.15.09-.22.13-.24.16-.46.33-.69.51-.08.07-.17.12-.26.19-.27.22-.53.46-.78.71-.03.03-.06.05-.08.08l-192,192c-.25.25-.48.51-.71.78-.07.08-.13.17-.2.25-.15.19-.3.39-.44.59-.07.1-.14.2-.21.3-.14.21-.27.43-.39.64-.05.09-.11.18-.15.27-.16.29-.3.59-.43.89-.05.12-.1.25-.15.37-.08.2-.15.4-.22.61-.05.14-.09.28-.13.42-.07.23-.13.47-.18.71-.02.1-.05.2-.07.3-.07.34-.12.68-.16,1.02-.01.1-.02.2-.03.31-.02.29-.04.57-.04.86,0,.06,0,.11,0,.17v384s0,.06,0,.09c0,.37.02.73.06,1.1,0,.06.02.12.02.19.03.29.08.58.13.86.02.13.05.25.08.38.05.23.11.45.17.67.04.13.07.26.11.38.1.31.21.61.33.92,0,0,0,0,0,.01.05.11.1.22.15.33.1.21.2.42.3.63.06.12.13.24.19.35.12.2.24.4.36.6.06.1.12.19.19.29.4.58.84,1.11,1.33,1.61.07.07.14.13.2.2.19.18.38.36.58.52.08.07.16.14.25.21.22.18.45.35.68.51.05.04.11.08.16.12.28.18.56.36.85.52.11.06.23.12.35.18.19.1.39.19.58.28.13.06.26.12.4.17.22.09.45.17.68.25.11.04.21.08.32.11.31.1.63.18.95.25.12.03.24.05.37.07.24.05.49.08.74.11.12.01.23.03.35.04.36.03.72.06,1.09.06h384c.4,0,.8-.02,1.2-.06.29-.03.58-.08.86-.13.1-.02.2-.03.3-.05.34-.07.68-.16,1.01-.25.04-.01.08-.02.12-.03.34-.1.67-.22,1-.36.04-.01.07-.02.11-.04.31-.13.61-.27.91-.43.05-.03.11-.05.16-.08.27-.14.53-.31.78-.47.07-.05.15-.09.23-.14.24-.16.46-.33.69-.51.08-.07.17-.12.26-.19.27-.22.53-.46.78-.71.03-.03.06-.05.08-.08l192-192c.25-.25.48-.51.71-.78.07-.08.13-.17.2-.25.15-.19.3-.39.44-.59.07-.1.14-.2.21-.3.14-.21.27-.43.39-.64.05-.09.11-.18.15-.27.16-.29.3-.59.43-.89.05-.12.1-.25.15-.37.08-.2.15-.4.22-.61.05-.14.09-.28.13-.42.07-.23.13-.47.18-.71.02-.1.05-.2.07-.3.07-.34.12-.68.16-1.02.01-.1.02-.2.03-.31.02-.29.04-.57.04-.86,0-.06,0-.11,0-.17V144s0-.06,0-.09c0-.37-.02-.73-.06-1.1ZM708,516h-168v-175.03l168-168v343.03ZM156,348h168v175.03l-168,168v-343.03ZM348,348h168v168h-168v-168ZM691.03,156l-168,168h-175.03v-168h343.03ZM324,172.97v151.03h-151.03l151.03-151.03ZM172.97,708l168-168h175.03v168H172.97ZM540,691.03v-151.03h151.03l-151.03,151.03Z" style="stroke-width: 0px;"/>
  </g>
</svg>