<?xml version="1.0" encoding="UTF-8"?>
<svg xmlns="http://www.w3.org/2000/svg" viewBox="0 0 864 864">
  <g id="Layer_1" data-name="Layer 1">
    <polygon points="681.2 575.63 432 431.75 182.8 575.63 432 719.51 681.2 575.63" style="fill: none; stroke: #000; stroke-linecap: round; stroke-linejoin: round; stroke-width: 24px;"/>
    <polygon points="432 720 432 144 182.88 576.12 432 720" style="fill: none; stroke: #000; stroke-linecap: round; stroke-linejoin: round; stroke-width: 24px;"/>
    <polygon points="432 720 432 144 681.12 576.12 432 720" style="fill: none; stroke: #000; stroke-linecap: round; stroke-linejoin: round; stroke-width: 24px;"/>
  </g>
  <g id="Layer_1_copy" data-name="Layer 1 copy">
    <path d="M693.2,575.63c0-3.06-1.18-5.94-3.2-8.12l-247.61-429.5c-.05-.08-.1-.16-.16-.24-.09-.15-.18-.3-.28-.44-.09-.14-.19-.27-.28-.4-.09-.13-.19-.26-.29-.38-.11-.14-.22-.27-.33-.4-.1-.11-.2-.23-.3-.34-.12-.13-.24-.25-.37-.38-.11-.1-.21-.21-.32-.31-.13-.12-.26-.23-.39-.34-.12-.1-.24-.19-.36-.29-.13-.1-.27-.2-.4-.3-.13-.09-.26-.18-.4-.27-.14-.09-.27-.17-.42-.26-.14-.08-.28-.16-.43-.24-.14-.08-.29-.15-.44-.22-.14-.07-.29-.14-.44-.2-.16-.07-.32-.13-.48-.19-.14-.05-.28-.11-.43-.16-.18-.06-.35-.11-.53-.17-.09-.03-.17-.06-.26-.08-.05-.01-.1-.02-.15-.03-.19-.05-.37-.09-.56-.12-.14-.03-.27-.06-.41-.08-.18-.03-.37-.05-.55-.08-.14-.02-.29-.04-.43-.05-.18-.01-.36-.02-.53-.03-.15,0-.3-.01-.45-.01-.17,0-.34,0-.51.01-.16,0-.32.01-.48.03s-.32.03-.48.05c-.17.02-.34.04-.5.07-.15.03-.3.06-.46.09-.17.04-.34.07-.51.11-.06.01-.11.02-.17.04-.1.03-.19.06-.28.09-.16.05-.33.1-.49.15-.16.05-.31.11-.47.17-.15.06-.29.11-.44.18-.16.07-.32.14-.48.22-.13.07-.27.13-.4.2-.16.08-.31.17-.46.26-.13.08-.26.15-.38.24-.14.09-.29.19-.43.29-.13.09-.25.18-.38.28-.13.1-.26.2-.38.3-.13.11-.25.21-.38.33-.12.1-.23.21-.34.32-.12.12-.24.24-.36.36-.11.11-.21.23-.31.35-.11.13-.22.26-.32.39-.1.13-.2.26-.29.39-.09.13-.19.26-.28.39-.1.15-.19.29-.28.45-.05.08-.11.16-.15.24l-247.61,429.5c-2.02,2.19-3.2,5.07-3.2,8.12,0,.69.08,1.36.19,2.03.47,3.58,2.52,6.91,5.89,8.86l249.12,143.88s0,0,0,0h0s.05.02.08.04c.44.25.89.47,1.35.66.04.02.08.03.12.04.45.18.9.34,1.37.46.17.04.34.06.5.1.34.08.68.16,1.03.2.51.07,1.03.1,1.55.1s1.04-.03,1.55-.1c.18-.02.35-.07.53-.1.34-.06.67-.11,1-.2.07-.02.13-.05.2-.07.44-.12.87-.26,1.29-.44.38-.15.74-.35,1.1-.54.11-.06.22-.1.33-.16h0s0,0,0,0l249.12-143.88c3.37-1.94,5.42-5.28,5.89-8.85.11-.67.19-1.34.19-2.03ZM444,698.72v-246.19l213.2,123.09-213.2,123.09ZM420,698.72l-213.2-123.09,213.2-123.09v246.19ZM444,424.83v-235.98l203.92,353.72-203.92-117.73ZM420,424.83l-203.92,117.73,203.92-353.72v235.98Z" style="stroke-width: 0px;"/>
  </g>
</svg>