<?xml version="1.0" encoding="UTF-8"?>
<svg id="icon" xmlns="http://www.w3.org/2000/svg" viewBox="0 0 864 864">
  <path d="M431.61,628.46l.39-.39.39.39,181.87-188.75c44.98-46.75,44.98-122.36,0-169.11-22.49-23.37-52-35.06-81.53-35.06s-59.09,11.69-81.68,35.06l-19.05,19.84-19.05-19.84c-22.49-23.37-52-35.06-81.53-35.06s-59.09,11.69-81.68,35.06c-44.98,46.75-44.98,122.36,0,169.11l181.87,188.75ZM275.63,295.61c15-15.52,34.81-24.07,55.79-24.07s40.69,8.53,55.57,24l19.05,19.84,25.96,27.04,25.96-27.04,19-19.78c15-15.51,34.8-24.05,55.77-24.05s40.69,8.53,55.59,24.02c31.62,32.86,31.62,86.33.02,119.17l-156.34,162.25-156.33-162.23c-31.6-32.84-31.62-86.27-.05-119.14Z" style="stroke-width: 0px;"/>
</svg>