<?xml version="1.0" encoding="UTF-8"?>
<svg id="icon" xmlns="http://www.w3.org/2000/svg" version="1.1" viewBox="0 0 864 864">
  <!-- Generator: Adobe Illustrator 29.3.1, SVG Export Plug-In . SVG Version: 2.1.0 Build 151)  -->
  <path d="M719.1,365.8h0c-2.4-7.4-9.3-12.4-17.1-12.4h-193.2l-59.7-183.7c-2.4-7.4-9.3-12.4-17.1-12.4s-14.7,5-17.1,12.4l-59.7,183.7h-193.2c-7.8,0-14.7,5-17.1,12.4-2.4,7.4.2,15.5,6.5,20.1l156.3,113.5-59.7,183.7c-2.4,7.4.2,15.5,6.5,20.1,3.2,2.3,6.9,3.4,10.6,3.4s7.4-1.2,10.6-3.4l156.3-113.5,156.3,113.5c3.2,2.3,6.9,3.4,10.6,3.4s7.4-1.2,10.6-3.4c6.3-4.6,9-12.7,6.5-20.1l-59.7-183.7,156.3-113.5c6.3-4.6,9-12.7,6.5-20.1ZM528.1,460.7h0l-28.2,20.5,10.8,33.2,31.2,95.9-81.6-59.3-28.2-20.5v-258.2s31.2,95.9,31.2,95.9l10.8,33.2h135.7l-81.6,59.3Z"/>
</svg>