<?xml version="1.0" encoding="UTF-8"?>
<svg id="icon" xmlns="http://www.w3.org/2000/svg" viewBox="0 0 864 864">
  <path d="M686.17,177.83c-37.32-37.32-99.29-44.06-174.5-18.99-26.15,8.72-52.94,20.97-79.67,36.27-26.73-15.3-53.52-27.55-79.67-36.27-75.21-25.07-137.18-18.32-174.5,18.99-37.32,37.32-44.06,99.29-19,174.5,8.72,26.15,20.97,52.94,36.27,79.67-15.3,26.73-27.55,53.52-36.27,79.67-25.07,75.21-18.32,137.18,19,174.5,22.5,22.5,53.96,33.89,91.89,33.89,24.97,0,52.75-4.94,82.61-14.89,26.15-8.72,52.94-20.97,79.67-36.27,26.73,15.3,53.52,27.55,79.67,36.27,29.87,9.96,57.64,14.89,82.61,14.89,37.92,0,69.39-11.39,91.89-33.89,37.32-37.32,44.06-99.29,19-174.5-8.72-26.15-20.97-52.94-36.27-79.67,15.3-26.73,27.55-53.52,36.27-79.67,25.07-75.21,18.32-137.18-19-174.5ZM192.99,340.95c-10.31-30.93-14.52-58.83-12.51-82.93,1.93-23.11,9.6-41.53,22.81-54.73,13.21-13.2,31.62-20.88,54.73-22.81,3.9-.33,7.9-.49,12-.49,21.21,0,45,4.36,70.93,13,18.38,6.13,37.15,14.18,56.01,23.96-33.88,22.85-67.17,50.37-98.4,81.61-31.24,31.24-58.75,64.52-81.61,98.4-9.78-18.86-17.83-37.63-23.96-56.01ZM432,237.05c37.01,23.24,73.72,52.69,107.99,86.96,34.27,34.27,63.71,70.98,86.96,107.99-23.24,37.01-52.69,73.72-86.96,107.99-34.27,34.27-70.98,63.71-107.99,86.96-37.01-23.24-73.72-52.69-107.99-86.96-34.27-34.27-63.71-70.98-86.96-107.99,23.24-37.01,52.69-73.72,86.96-107.99,34.27-34.27,70.98-63.71,107.99-86.96ZM340.95,671.01c-30.93,10.31-58.83,14.52-82.93,12.51-23.11-1.93-41.53-9.6-54.73-22.81-13.2-13.2-20.88-31.62-22.81-54.73-2.01-24.09,2.2-51.99,12.51-82.93,6.13-18.38,14.18-37.15,23.96-56.01,22.85,33.88,50.37,67.17,81.61,98.4,31.24,31.24,64.52,58.75,98.4,81.61-18.86,9.78-37.63,17.83-56.01,23.96ZM671.01,523.05c10.31,30.93,14.52,58.83,12.51,82.93-1.93,23.11-9.6,41.53-22.81,54.73-13.21,13.2-31.62,20.88-54.73,22.81-24.09,2.01-51.99-2.2-82.93-12.51-18.38-6.13-37.15-14.18-56.01-23.96,33.88-22.85,67.17-50.37,98.4-81.61,31.24-31.24,58.75-64.52,81.61-98.4,9.78,18.86,17.83,37.63,23.96,56.01ZM671.01,340.94c-6.13,18.38-14.18,37.15-23.96,56.01-22.85-33.88-50.37-67.17-81.61-98.4-31.24-31.24-64.52-58.75-98.4-81.61,18.86-9.78,37.63-17.83,56.01-23.96,25.93-8.64,49.72-13,70.93-13,4.1,0,8.1.16,12,.49,23.11,1.93,41.53,9.6,54.73,22.81,13.2,13.2,20.88,31.62,22.81,54.73,2.01,24.09-2.2,51.99-12.51,82.93Z" style="stroke-width: 0px;"/>
  <path d="M432,495.53c35.03,0,63.53-28.5,63.53-63.53s-28.5-63.53-63.53-63.53-63.53,28.5-63.53,63.53,28.5,63.53,63.53,63.53ZM432,404.47c15.18,0,27.53,12.35,27.53,27.53s-12.35,27.53-27.53,27.53-27.53-12.35-27.53-27.53,12.35-27.53,27.53-27.53Z" style="stroke-width: 0px;"/>
</svg>