<?xml version="1.0" encoding="UTF-8"?>
<svg id="icon" xmlns="http://www.w3.org/2000/svg" viewBox="0 0 864 864">
  <path d="M571.5,424.21l-50.41-29.11,15.07-56.23c.83-3.11-.06-6.42-2.33-8.69-2.27-2.27-5.59-3.16-8.69-2.33l-56.23,15.07-29.11-50.41c-1.61-2.78-4.58-4.5-7.79-4.5s-6.19,1.72-7.79,4.5l-29.11,50.41-56.23-15.07c-3.11-.83-6.42.06-8.69,2.33-2.27,2.27-3.16,5.59-2.33,8.69l15.07,56.23-50.41,29.11c-2.78,1.61-4.5,4.58-4.5,7.79s1.72,6.19,4.5,7.79l50.41,29.11-15.07,56.23c-.83,3.11.06,6.42,2.33,8.69,2.27,2.27,5.59,3.16,8.69,2.33l56.23-15.07,29.11,50.41c1.61,2.78,4.58,4.5,7.79,4.5s6.19-1.72,7.79-4.5l29.11-50.41,56.23,15.07c3.11.83,6.42-.06,8.69-2.33,2.27-2.27,3.16-5.59,2.33-8.69l-15.07-56.23,50.41-29.11c2.78-1.61,4.5-4.58,4.5-7.79s-1.72-6.19-4.5-7.79Z" style="stroke-width: 0px;"/>
</svg>