<?xml version="1.0" encoding="UTF-8"?>
<svg id="icon" xmlns="http://www.w3.org/2000/svg" viewBox="0 0 864 864">
  <path d="M641.25,420.31l-75.62-43.66,22.6-84.34c1.25-4.66-.08-9.63-3.49-13.04-3.41-3.41-8.38-4.74-13.04-3.49l-84.34,22.6-43.66-75.62c-2.41-4.18-6.87-6.75-11.69-6.75s-9.28,2.57-11.69,6.75l-43.66,75.62-84.34-22.6c-4.66-1.25-9.63.08-13.04,3.49-3.41,3.41-4.74,8.38-3.49,13.04l22.6,84.34-75.62,43.66c-4.18,2.41-6.75,6.87-6.75,11.69s2.57,9.28,6.75,11.69l75.62,43.66-22.6,84.34c-1.25,4.66.08,9.63,3.49,13.04,3.41,3.41,8.38,4.74,13.04,3.49l84.34-22.6,43.66,75.62c2.41,4.18,6.87,6.75,11.69,6.75s9.28-2.57,11.69-6.75l43.66-75.62,84.34,22.6c4.66,1.25,9.63-.08,13.04-3.49,3.41-3.41,4.74-8.38,3.49-13.04l-22.6-84.34,75.62-43.66c4.18-2.41,6.75-6.87,6.75-11.69s-2.57-9.28-6.75-11.69Z" style="stroke-width: 0px;"/>
</svg>