<?xml version="1.0" encoding="UTF-8"?>
<svg id="icon" xmlns="http://www.w3.org/2000/svg" viewBox="0 0 864 864">
  <path d="M499.5,412.35h-48.3l-14.92-45.93c-.6-1.85-2.33-3.11-4.28-3.11s-3.68,1.26-4.28,3.11l-14.92,45.93h-48.3c-1.95,0-3.68,1.26-4.28,3.11-.6,1.85.06,3.89,1.63,5.03l39.07,28.39-14.92,45.93c-.6,1.85.06,3.89,1.63,5.03,1.58,1.15,3.71,1.15,5.29,0l39.07-28.39,39.07,28.39c.79.57,1.72.86,2.65.86.93,0,1.86-.29,2.65-.86,1.58-1.15,2.24-3.18,1.63-5.03l-14.92-45.93,39.07-28.39c1.58-1.15,2.24-3.18,1.63-5.03-.6-1.85-2.33-3.11-4.28-3.11Z" style="stroke-width: 0px;"/>
</svg>