<?xml version="1.0" encoding="UTF-8"?>
<svg id="icon" xmlns="http://www.w3.org/2000/svg" viewBox="0 0 864 864">
  <path d="M647.34,382.36c-1.81-5.56-6.99-9.33-12.84-9.33h-144.89l-44.77-137.8c-1.81-5.56-6.99-9.33-12.84-9.33s-11.03,3.77-12.84,9.33l-44.77,137.8h-144.89c-5.85,0-11.03,3.77-12.84,9.33-1.81,5.56.17,11.66,4.9,15.09l117.22,85.16-44.77,137.8c-1.81,5.56.17,11.66,4.9,15.09,2.37,1.72,5.15,2.58,7.93,2.58s5.57-.86,7.94-2.58l117.22-85.16,117.22,85.16c2.37,1.72,5.15,2.58,7.93,2.58h0c2.78,0,5.57-.86,7.93-2.58,4.73-3.44,6.71-9.53,4.9-15.09l-44.77-137.8,117.22-85.16c4.73-3.44,6.71-9.53,4.9-15.09ZM504.06,453.5l-21.16,15.37,8.08,24.88,23.37,71.94-61.19-44.46-21.16-15.37-21.16,15.37-61.19,44.46,23.37-71.94,8.08-24.88-21.16-15.37-61.19-44.46h101.8l8.08-24.88,23.37-71.94,23.37,71.94,8.08,24.88h101.8l-61.19,44.46Z" style="stroke-width: 0px;"/>
</svg>