<?xml version="1.0" encoding="UTF-8"?>
<svg id="icon" xmlns="http://www.w3.org/2000/svg" viewBox="0 0 864 864">
  <path d="M566.31,170.06c-39.38,0-78.79,15.58-108.91,46.75l-25.4,26.45-25.4-26.45c-29.98-31.16-69.33-46.75-108.71-46.75s-78.79,15.58-108.91,46.75c-59.97,62.33-59.97,163.15,0,225.48l242.5,251.66.52-.52.52.52,242.5-251.66c59.97-62.33,59.97-163.15,0-225.48-29.98-31.16-69.33-46.75-108.71-46.75ZM640.46,408.97l-208.46,216.34-208.43-216.31c-20.36-21.16-31.57-49.37-31.57-79.46s11.19-58.25,31.51-79.4c20-20.69,46.42-32.08,74.37-32.08s54.25,11.37,74.09,31.99l25.4,26.45,34.62,36.05,34.62-36.05,25.33-26.38c20-20.68,46.41-32.06,74.36-32.06s54.25,11.37,74.12,32.03c20.36,21.16,31.57,49.37,31.57,79.46s-11.21,58.3-31.54,79.43Z" style="stroke-width: 0px;"/>
</svg>