<?xml version="1.0" encoding="UTF-8"?>
<svg id="icon" xmlns="http://www.w3.org/2000/svg" viewBox="0 0 864 864">
  <g id="Layer_1_copy" data-name="Layer 1 copy">
    <path d="M339.72,628.9c7.09,2.6,15.05.49,19.93-5.27l72.35-85.5,72.35,85.5c3.49,4.12,8.55,6.37,13.75,6.37,2.07,0,4.17-.36,6.19-1.1,7.09-2.6,11.81-9.35,11.81-16.9V252c0-9.94-8.06-18-18-18h-172.17c-9.94,0-18,8.06-18,18v360c0,7.55,4.72,14.3,11.81,16.9ZM445.74,498.63c-3.42-4.04-8.45-6.37-13.74-6.37s-10.32,2.33-13.74,6.37l-54.35,64.23v-214.6h136.17v214.6l-54.35-64.23ZM363.91,270h136.17v42.26h-136.17v-42.26Z" style="stroke-width: 0px;"/>
  </g>
</svg>