<?xml version="1.0" encoding="UTF-8"?>
<svg id="icon" xmlns="http://www.w3.org/2000/svg" viewBox="0 0 864 864">
  <g id="Layer_1_copy" data-name="Layer 1 copy">
    <path d="M350.39,605.27c4.73,1.73,10.04.33,13.29-3.52l68.32-80.74,68.32,80.74c2.33,2.75,5.7,4.25,9.16,4.25,1.38,0,2.78-.24,4.12-.73,4.73-1.73,7.87-6.23,7.87-11.27v-324c0-6.63-5.37-12-12-12h-154.96c-6.63,0-12,5.37-12,12v324c0,5.04,3.14,9.54,7.87,11.27ZM441.16,494.68c-2.28-2.69-5.63-4.25-9.16-4.25s-6.88,1.55-9.16,4.25l-56.32,66.56v-208.81h130.96v208.81l-56.32-66.56ZM366.52,282h130.96v46.43h-130.96v-46.43Z" style="stroke-width: 0px;"/>
  </g>
</svg>