<?xml version="1.0" encoding="UTF-8"?>
<svg id="icon" xmlns="http://www.w3.org/2000/svg" viewBox="0 0 864 864">
  <g id="Layer_1_copy" data-name="Layer 1 copy">
    <path d="M432,144c-159.06,0-288,128.94-288,288s128.94,288,288,288,288-128.94,288-288-128.94-288-288-288ZM572.29,408.97l-78.14,56.78,29.85,91.86c1.21,3.71-.12,7.77-3.27,10.06-1.58,1.15-3.43,1.72-5.29,1.72-1.86,0-3.71-.57-5.29-1.72l-78.14-56.78-78.14,56.78c-1.58,1.15-3.43,1.72-5.29,1.72s-3.71-.57-5.29-1.72c-3.15-2.29-4.47-6.35-3.27-10.06l29.85-91.86-78.14-56.78c-3.15-2.29-4.47-6.35-3.27-10.06,1.21-3.71,4.66-6.22,8.56-6.22h96.59l29.85-91.87c1.21-3.71,4.66-6.22,8.56-6.22s7.36,2.51,8.56,6.22l29.85,91.87h96.59c3.9,0,7.35,2.51,8.56,6.22,1.21,3.71-.12,7.77-3.27,10.06Z" style="stroke-width: 0px;"/>
    <polygon points="452.97 416.69 447.58 400.11 432 352.15 416.42 400.11 411.03 416.69 393.59 416.69 343.17 416.69 383.96 446.33 398.07 456.58 392.68 473.16 377.1 521.12 417.89 491.48 432 481.23 446.11 491.48 486.9 521.12 471.32 473.16 465.93 456.58 480.04 446.33 520.83 416.69 470.41 416.69 452.97 416.69" style="stroke-width: 0px;"/>
  </g>
</svg>