<?xml version="1.0" encoding="UTF-8"?>
<svg id="icon" xmlns="http://www.w3.org/2000/svg" viewBox="0 0 864 864">
  <g id="Layer_1_copy" data-name="Layer 1 copy">
    <path d="M432,144c-159.06,0-288,128.94-288,288s128.94,288,288,288,288-128.94,288-288-128.94-288-288-288ZM684,432c0,34.04-6.66,67.03-19.79,98.08-12.69,30-30.87,56.96-54.02,80.11-23.15,23.16-50.11,41.33-80.11,54.02-31.04,13.13-64.04,19.79-98.08,19.79s-67.03-6.66-98.08-19.79c-30-12.69-56.96-30.87-80.11-54.02-23.15-23.15-41.33-50.11-54.02-80.11-13.13-31.04-19.79-64.04-19.79-98.08s6.66-67.03,19.79-98.08c12.69-30,30.87-56.96,54.02-80.11,23.15-23.16,50.11-41.33,80.11-54.02,31.04-13.13,64.04-19.79,98.08-19.79s67.03,6.66,98.08,19.79c30,12.69,56.96,30.87,80.11,54.02,23.15,23.15,41.33,50.11,54.02,80.11,13.13,31.04,19.79,64.04,19.79,98.08Z" style="stroke-width: 0px;"/>
    <path d="M432,558c-33.66,0-65.3-13.11-89.1-36.9-23.8-23.8-36.9-55.44-36.9-89.1h30l-48-48-48,48h30c0,43.27,16.85,83.95,47.45,114.55s71.28,47.45,114.55,47.45,83.95-16.85,114.55-47.45l-25.46-25.46c-23.8,23.8-55.44,36.9-89.1,36.9Z" style="stroke-width: 0px;"/>
    <path d="M546.55,317.45c-30.6-30.6-71.28-47.45-114.55-47.45s-83.95,16.85-114.55,47.45l25.46,25.46c23.8-23.8,55.44-36.9,89.1-36.9s65.3,13.11,89.1,36.9c23.8,23.8,36.9,55.44,36.9,89.1h-30l48,48,48-48h-30c0-43.27-16.85-83.95-47.45-114.55Z" style="stroke-width: 0px;"/>
  </g>
</svg>