<?xml version="1.0" encoding="UTF-8"?>
<svg id="icon" xmlns="http://www.w3.org/2000/svg" viewBox="0 0 864 864">
  <g id="Layer_1_copy" data-name="Layer 1 copy">
    <path d="M432,144c-159.06,0-288,128.94-288,288s128.94,288,288,288,288-128.94,288-288-128.94-288-288-288ZM684,432c0,34.04-6.66,67.03-19.79,98.08-12.69,30-30.87,56.96-54.02,80.11-23.15,23.16-50.11,41.33-80.11,54.02-31.04,13.13-64.04,19.79-98.08,19.79s-67.03-6.66-98.08-19.79c-30-12.69-56.96-30.87-80.11-54.02-23.15-23.15-41.33-50.11-54.02-80.11-13.13-31.04-19.79-64.04-19.79-98.08s6.66-67.03,19.79-98.08c12.69-30,30.87-56.96,54.02-80.11,23.15-23.16,50.11-41.33,80.11-54.02,31.04-13.13,64.04-19.79,98.08-19.79s67.03,6.66,98.08,19.79c30,12.69,56.96,30.87,80.11,54.02,23.15,23.15,41.33,50.11,54.02,80.11,13.13,31.04,19.79,64.04,19.79,98.08Z" style="stroke-width: 0px;"/>
    <path d="M509.48,258h-154.96c-6.63,0-12,5.37-12,12v324c0,5.04,3.14,9.54,7.87,11.27,4.73,1.73,10.04.33,13.29-3.52l68.32-80.74,68.32,80.74c2.33,2.75,5.7,4.25,9.16,4.25,1.38,0,2.78-.24,4.12-.73,4.73-1.73,7.87-6.23,7.87-11.27v-324c0-6.63-5.37-12-12-12ZM366.52,282h130.96v46.43h-130.96v-46.43ZM441.16,494.68c-2.28-2.69-5.63-4.25-9.16-4.25s-6.88,1.55-9.16,4.25l-56.32,66.56v-208.81h130.96v208.81l-56.32-66.56Z" style="stroke-width: 0px;"/>
  </g>
</svg>