<?xml version="1.0" encoding="UTF-8"?>
<svg id="icon" xmlns="http://www.w3.org/2000/svg" viewBox="0 0 864 864">
  <g id="Layer_1_copy" data-name="Layer 1 copy">
    <path d="M432,144c-159.06,0-288,128.94-288,288s128.94,288,288,288,288-128.94,288-288-128.94-288-288-288ZM684,432c0,34.04-6.66,67.03-19.79,98.08-12.69,30-30.87,56.96-54.02,80.11-23.15,23.16-50.11,41.33-80.11,54.02-31.04,13.13-64.04,19.79-98.08,19.79s-67.03-6.66-98.08-19.79c-30-12.69-56.96-30.87-80.11-54.02-23.15-23.15-41.33-50.11-54.02-80.11-13.13-31.04-19.79-64.04-19.79-98.08s6.66-67.03,19.79-98.08c12.69-30,30.87-56.96,54.02-80.11,23.15-23.16,50.11-41.33,80.11-54.02,31.04-13.13,64.04-19.79,98.08-19.79s67.03,6.66,98.08,19.79c30,12.69,56.96,30.87,80.11,54.02,23.15,23.15,41.33,50.11,54.02,80.11,13.13,31.04,19.79,64.04,19.79,98.08Z" style="stroke-width: 0px;"/>
    <path d="M366.26,432c0,36.31,29.43,65.74,65.74,65.74s65.74-29.43,65.74-65.74-29.43-65.74-65.74-65.74-65.74,29.43-65.74,65.74ZM432,390.26c23.02,0,41.74,18.72,41.74,41.74s-18.72,41.74-41.74,41.74-41.74-18.72-41.74-41.74,18.72-41.74,41.74-41.74Z" style="stroke-width: 0px;"/>
    <path d="M432.09,338.61c-.28,0-.55,0-.83,0-44.97,0-94.63,27.78-151.75,84.91-4.69,4.69-4.69,12.28,0,16.97,38.5,38.5,96.19,84.48,152.39,84.91.28,0,.55,0,.83,0,44.97,0,94.63-27.78,151.75-84.91,4.69-4.69,4.69-12.28,0-16.97-38.5-38.5-96.19-84.48-152.39-84.91ZM432.09,501.39c-25.32-.19-67.52-12.65-126.94-69.4,48.62-46.66,89.95-69.38,126.1-69.38.22,0,.44,0,.65,0,25.32.19,67.52,12.65,126.94,69.4-48.91,46.94-90.44,69.63-126.76,69.38Z" style="stroke-width: 0px;"/>
  </g>
</svg>