<?xml version="1.0" encoding="UTF-8"?>
<svg id="icon" xmlns="http://www.w3.org/2000/svg" viewBox="0 0 864 864">
  <g id="Layer_1_copy" data-name="Layer 1 copy">
    <path d="M432,144c-159.06,0-288,128.94-288,288s128.94,288,288,288,288-128.94,288-288-128.94-288-288-288ZM684,432c0,34.04-6.66,67.03-19.79,98.08-12.69,30-30.87,56.96-54.02,80.11-23.15,23.16-50.11,41.33-80.11,54.02-31.04,13.13-64.04,19.79-98.08,19.79s-67.03-6.66-98.08-19.79c-30-12.69-56.96-30.87-80.11-54.02-23.15-23.15-41.33-50.11-54.02-80.11-13.13-31.04-19.79-64.04-19.79-98.08s6.66-67.03,19.79-98.08c12.69-30,30.87-56.96,54.02-80.11,23.15-23.16,50.11-41.33,80.11-54.02,31.04-13.13,64.04-19.79,98.08-19.79s67.03,6.66,98.08,19.79c30,12.69,56.96,30.87,80.11,54.02,23.15,23.15,41.33,50.11,54.02,80.11,13.13,31.04,19.79,64.04,19.79,98.08Z" style="stroke-width: 0px;"/>
    <path d="M497.04,471.58c32.91-45.17,29-108.99-11.73-149.73-45.06-45.06-118.39-45.06-163.45,0-45.06,45.06-45.06,118.39,0,163.45,22.53,22.53,52.13,33.8,81.73,33.8,23.91,0,47.82-7.36,68-22.06l73.69,73.69c3.51,3.51,8.12,5.27,12.73,5.27s9.21-1.76,12.73-5.27c7.03-7.03,7.03-18.43,0-25.46l-73.69-73.69ZM347.31,459.85c-31.03-31.03-31.03-81.51,0-112.54,15.51-15.51,35.89-23.27,56.27-23.27s40.76,7.76,56.27,23.27c31.02,31.03,31.02,81.51,0,112.54s-81.51,31.03-112.54,0Z" style="stroke-width: 0px;"/>
  </g>
</svg>