<?xml version="1.0" encoding="UTF-8"?>
<svg id="icon" xmlns="http://www.w3.org/2000/svg" viewBox="0 0 864 864">
  <g id="Layer_1_copy" data-name="Layer 1 copy">
    <path d="M306,432c0,69.59,56.41,126,126,126s126-56.41,126-126-56.41-126-126-126-126,56.41-126,126ZM432,330c56.24,0,102,45.76,102,102s-45.76,102-102,102-102-45.76-102-102,45.76-102,102-102Z" style="stroke-width: 0px;"/>
    <path d="M432,498c36.45,0,66-29.55,66-66s-29.55-66-66-66-66,29.55-66,66,29.55,66,66,66ZM432,390c23.16,0,42,18.84,42,42s-18.84,42-42,42-42-18.84-42-42,18.84-42,42-42Z" style="stroke-width: 0px;"/>
    <path d="M588.69,311.34c-56.05-35.03-108.73-52.97-156.56-53.34-85.24-.61-179.7,52.11-288.86,161.27-7.03,7.03-7.03,18.43,0,25.46,44.98,44.98,89.4,81.29,132.04,107.94,56.05,35.03,108.73,52.97,156.56,53.34.51,0,1.03,0,1.54,0,84.81,0,178.81-52.77,287.32-161.28,7.03-7.03,7.03-18.43,0-25.46-44.98-44.98-89.4-81.29-132.04-107.94ZM569.74,523.3c-49.63,31.3-95.9,46.99-137.6,46.7-49.98-.38-133.41-25.02-250.47-138.02,40.22-39,77.17-68.95,112.6-91.29,49.14-31,95.01-46.7,136.37-46.7.41,0,.82,0,1.23,0,49.98.38,133.41,25.02,250.47,138.02-40.22,39-77.17,68.95-112.6,91.29Z" style="stroke-width: 0px;"/>
  </g>
</svg>