<?xml version="1.0" encoding="UTF-8"?>
<svg id="icon" xmlns="http://www.w3.org/2000/svg" viewBox="0 0 864 864">
  <g id="Layer_1_copy" data-name="Layer 1 copy">
    <path d="M291.71,408.97l78.14,56.78-29.85,91.86c-1.2,3.71.12,7.77,3.27,10.06,1.58,1.15,3.43,1.72,5.29,1.72s3.71-.57,5.29-1.72l78.14-56.78,78.14,56.78c1.58,1.15,3.43,1.72,5.29,1.72h0c1.86,0,3.71-.57,5.29-1.72,3.15-2.29,4.47-6.35,3.27-10.06l-29.85-91.86,78.14-56.78c3.15-2.29,4.47-6.35,3.27-10.06-1.21-3.71-4.66-6.22-8.56-6.22h-96.59l-29.85-91.87c-1.2-3.71-4.66-6.22-8.56-6.22s-7.35,2.51-8.56,6.22l-29.85,91.87h-96.59c-3.9,0-7.35,2.51-8.56,6.22-1.21,3.71.12,7.77,3.27,10.06ZM393.59,416.69h17.44l5.39-16.58,15.58-47.96,15.58,47.96,5.39,16.58h67.86l-40.79,29.64-14.11,10.25,5.39,16.58,15.58,47.96-40.79-29.64-14.11-10.25-14.11,10.25-40.79,29.64,15.58-47.96,5.39-16.58-14.11-10.25-40.8-29.64h50.43Z" style="stroke-width: 0px;"/>
  </g>
</svg>