<?xml version="1.0" encoding="UTF-8"?>
<svg id="icon" xmlns="http://www.w3.org/2000/svg" viewBox="0 0 864 864">
  <g id="Layer_1_copy" data-name="Layer 1 copy">
    <path d="M333.12,366.24l44.16,1.92c3.84,0,5.76-1.76,5.76-5.28v-10.08c0-12.48,4.48-22.72,13.44-30.72,8.96-8,20.8-12,35.52-12s25.44,3.77,34.08,11.28c8.64,7.52,12.96,17.52,12.96,30,0,11.21-3.2,20.56-9.6,28.08-6.4,7.52-16,15.92-28.8,25.2-14.72,10.56-25.92,20.56-33.6,30-7.68,9.44-11.52,21.84-11.52,37.2v19.68c0,1.6.56,2.96,1.68,4.08,1.12,1.12,2.47,1.68,4.08,1.68h44.16c1.6,0,2.96-.55,4.08-1.68s1.68-2.48,1.68-4.08v-16.32c0-8.64,2.71-15.92,8.16-21.84,5.44-5.92,13.76-12.88,24.96-20.88,11.2-8,20.08-15.19,26.64-21.6,6.56-6.4,12.31-14.71,17.28-24.96,4.96-10.24,7.44-22.4,7.44-36.48,0-27.19-9.29-49.04-27.84-65.52-18.56-16.48-43.36-24.72-74.4-24.72-20.81,0-39.2,3.92-55.2,11.76-16,7.85-28.49,18.89-37.44,33.12-8.96,14.24-13.44,30.48-13.44,48.72v7.2c0,1.6.55,3.04,1.68,4.32,1.12,1.28,2.47,1.92,4.08,1.92Z" style="stroke-width: 0px;"/>
    <path d="M421.92,532.8c-9.92,0-18.08,3.12-24.48,9.36-6.4,6.24-9.6,14.32-9.6,24.24s3.2,18.08,9.6,24.48c6.4,6.41,14.56,9.6,24.48,9.6s17.6-3.19,24-9.6c6.4-6.4,9.6-14.56,9.6-24.48s-3.12-18-9.36-24.24-14.33-9.36-24.24-9.36Z" style="stroke-width: 0px;"/>
  </g>
</svg>