<?xml version="1.0" encoding="UTF-8"?>
<svg id="icon" xmlns="http://www.w3.org/2000/svg" viewBox="0 0 864 864">
  <g id="Layer_1_copy" data-name="Layer 1 copy">
    <path d="M424.44,507.6c-7.44,0-13.56,2.34-18.36,7.02-4.8,4.68-7.2,10.74-7.2,18.18s2.4,13.56,7.2,18.36c4.8,4.8,10.92,7.2,18.36,7.2s13.2-2.4,18-7.2c4.8-4.8,7.2-10.92,7.2-18.36s-2.34-13.5-7.02-18.18c-4.68-4.68-10.74-7.02-18.18-7.02Z" style="stroke-width: 0px;"/>
    <path d="M357.84,382.68l33.12,1.44c2.88,0,4.32-1.32,4.32-3.96v-7.56c0-9.36,3.36-17.04,10.08-23.04,6.72-6,15.6-9,26.64-9s19.08,2.82,25.56,8.46c6.48,5.64,9.72,13.14,9.72,22.5,0,8.4-2.4,15.42-7.2,21.06-4.8,5.64-12,11.94-21.6,18.9-11.04,7.92-19.44,15.42-25.2,22.5-5.76,7.08-8.64,16.38-8.64,27.9v14.76c0,1.2.42,2.22,1.26,3.06.84.84,1.86,1.26,3.06,1.26h33.12c1.2,0,2.22-.42,3.06-1.26.84-.84,1.26-1.86,1.26-3.06v-12.24c0-6.48,2.04-11.94,6.12-16.38,4.08-4.44,10.32-9.66,18.72-15.66,8.4-6,15.06-11.4,19.98-16.2,4.92-4.8,9.24-11.04,12.96-18.72,3.72-7.68,5.58-16.8,5.58-27.36,0-20.4-6.96-36.78-20.88-49.14-13.92-12.36-32.52-18.54-55.8-18.54-15.6,0-29.4,2.94-41.4,8.82-12,5.88-21.36,14.16-28.08,24.84-6.72,10.68-10.08,22.86-10.08,36.54v5.4c0,1.2.42,2.28,1.26,3.24.84.96,1.86,1.44,3.06,1.44Z" style="stroke-width: 0px;"/>
  </g>
</svg>