<?xml version="1.0" encoding="UTF-8"?>
<svg xmlns="http://www.w3.org/2000/svg" viewBox="0 0 864 864">
  <g id="Layer_4" data-name="Layer 4">
    <path d="M432,180c34.04,0,67.03,6.66,98.08,19.79,30,12.69,56.96,30.87,80.11,54.02,23.15,23.15,41.33,50.11,54.02,80.11,13.13,31.04,19.79,64.04,19.79,98.08s-6.66,67.03-19.79,98.08c-12.69,30-30.87,56.96-54.02,80.11-23.15,23.16-50.11,41.33-80.11,54.02-31.04,13.13-64.04,19.79-98.08,19.79s-67.03-6.66-98.08-19.79c-30-12.69-56.96-30.87-80.11-54.02-23.16-23.15-41.33-50.11-54.02-80.11-13.13-31.04-19.79-64.04-19.79-98.08s6.66-67.03,19.79-98.08c12.69-30,30.87-56.96,54.02-80.11,23.15-23.16,50.11-41.33,80.11-54.02,31.04-13.13,64.04-19.79,98.08-19.79M432,144c-159.06,0-288,128.94-288,288s128.94,288,288,288,288-128.94,288-288-128.94-288-288-288h0Z" style="stroke-width: 0px;"/>
  </g>
  <g id="Layer_1" data-name="Layer 1">
    <g>
      <circle cx="432" cy="432" r="102" style="stroke-width: 0px;"/>
      <path d="M432,348c46.32,0,84,37.68,84,84s-37.68,84-84,84-84-37.68-84-84,37.68-84,84-84M432,312c-66.27,0-120,53.73-120,120s53.73,120,120,120,120-53.73,120-120-53.73-120-120-120h0Z" style="stroke-width: 0px;"/>
    </g>
  </g>
</svg>