<?xml version="1.0" encoding="UTF-8"?>
<svg xmlns="http://www.w3.org/2000/svg" viewBox="0 0 864 864">
  <g id="Layer_4" data-name="Layer 4">
    <rect x="144" y="144" width="576" height="576" rx="36" ry="36" style="stroke-width: 0px;"/>
  </g>
  <g id="Layer_1" data-name="Layer 1">
    <g>
      <path d="M355.1,534c-2.44,0-6.04-1.92-6.04-6.04v-191.92c0-4.12,3.6-6.04,6.04-6.04,1.02,0,1.99.28,2.97.84l165.84,95.96c2.61,1.51,3,3.9,3,5.19s-.39,3.69-3,5.19l-165.84,95.96c-.98.57-1.95.84-2.97.84h0Z" style="fill: #fff; stroke-width: 0px;"/>
      <path d="M367.06,356.85l129.88,75.15-129.88,75.15v-150.31M355.1,312c-12.54,0-24.04,10.02-24.04,24.04v191.92c0,14.01,11.5,24.04,24.04,24.04,4,0,8.11-1.02,11.98-3.26l165.84-95.96c15.97-9.24,15.97-32.3,0-41.55l-165.84-95.96c-3.87-2.24-7.98-3.26-11.98-3.26h0Z" style="fill: #fff; stroke-width: 0px;"/>
    </g>
  </g>
</svg>