<?xml version="1.0" encoding="UTF-8"?>
<svg xmlns="http://www.w3.org/2000/svg" viewBox="0 0 864 864">
  <g id="Layer_4" data-name="Layer 4">
    <path d="M432,180c34.04,0,67.03,6.66,98.08,19.79,30,12.69,56.96,30.87,80.11,54.02,23.16,23.15,41.33,50.11,54.02,80.11,13.13,31.04,19.79,64.04,19.79,98.08s-6.66,67.03-19.79,98.08c-12.69,30-30.87,56.96-54.02,80.11-23.15,23.16-50.11,41.33-80.11,54.02-31.04,13.13-64.04,19.79-98.08,19.79s-67.03-6.66-98.08-19.79c-30-12.69-56.96-30.87-80.11-54.02-23.16-23.15-41.33-50.11-54.02-80.11-13.13-31.04-19.79-64.04-19.79-98.08s6.66-67.03,19.79-98.08c12.69-30,30.87-56.96,54.02-80.11,23.15-23.16,50.11-41.33,80.11-54.02,31.04-13.13,64.04-19.79,98.08-19.79M432,144c-159.06,0-288,128.94-288,288s128.94,288,288,288,288-128.94,288-288-128.94-288-288-288h0Z" style="stroke-width: 0px;"/>
  </g>
  <g id="Layer_1" data-name="Layer 1">
    <g>
      <rect x="494.44" y="330" width="39.56" height="204" rx="6" ry="6" style="stroke-width: 0px;"/>
      <path d="M516,348v168h-3.56v-168h3.56M528,312h-27.56c-13.25,0-24,10.75-24,24v192c0,13.25,10.75,24,24,24h27.56c13.25,0,24-10.75,24-24v-192c0-13.25-10.75-24-24-24h0Z" style="stroke-width: 0px;"/>
    </g>
    <g>
      <rect x="330" y="330" width="39.56" height="204" rx="6" ry="6" style="stroke-width: 0px;"/>
      <path d="M351.56,348v168h-3.56v-168h3.56M363.56,312h-27.56c-13.25,0-24,10.75-24,24v192c0,13.25,10.75,24,24,24h27.56c13.25,0,24-10.75,24-24v-192c0-13.25-10.75-24-24-24h0Z" style="stroke-width: 0px;"/>
    </g>
  </g>
</svg>