<?xml version="1.0" encoding="UTF-8"?>
<svg id="Layer_1" data-name="Layer 1" xmlns="http://www.w3.org/2000/svg" viewBox="0 0 864 864">
  <g>
    <rect x="162" y="270" width="24" height="324" rx="8.58" ry="8.58" style="stroke-width: 0px;"/>
    <path d="M177.42,252h-6.84c-14.68,0-26.58,11.9-26.58,26.58v306.84c0,14.68,11.9,26.58,26.58,26.58h6.84c14.68,0,26.58-11.9,26.58-26.58v-306.84c0-14.68-11.9-26.58-26.58-26.58h0Z" style="stroke-width: 0px;"/>
  </g>
  <g>
    <path d="M683.95,593.71c-3.11,0-6.12-.83-8.96-2.47l-248.27-143.65c-8.11-4.69-8.98-12.46-8.98-15.58s.88-10.89,8.98-15.58l248.27-143.65c2.84-1.64,5.85-2.47,8.96-2.47,8.68,0,18.06,6.9,18.06,18.05v287.31c0,6.37-2.95,10.54-5.43,12.91-3.41,3.27-8.01,5.14-12.62,5.14h0Z" style="stroke-width: 0px;"/>
    <path d="M684,288.35h0v287.31l-248.27-143.65,248.27-143.65M683.94,252.29c-6,0-12.16,1.53-17.97,4.89l-248.27,143.65c-23.96,13.86-23.96,48.46,0,62.32l248.27,143.65c5.81,3.36,11.97,4.89,17.97,4.89,18.8,0,36.06-15.04,36.06-36.05v-287.31c0-21.02-17.25-36.05-36.06-36.05h0Z" style="stroke-width: 0px;"/>
  </g>
  <g>
    <path d="M431.95,593.73c-3.11,0-6.12-.83-8.96-2.47l-248.31-143.68c-8.11-4.69-8.99-12.46-8.99-15.58s.88-10.89,8.99-15.58l248.31-143.68c2.84-1.64,5.85-2.47,8.96-2.47,8.68,0,18.05,6.9,18.05,18.05v287.35c0,6.37-2.95,10.54-5.43,12.91-3.41,3.27-8.01,5.14-12.62,5.14h0Z" style="stroke-width: 0px;"/>
    <path d="M432,288.32h0v287.35l-248.31-143.68,248.31-143.68M431.94,252.27c-6,0-12.16,1.53-17.97,4.89l-248.31,143.68c-23.96,13.86-23.96,48.46,0,62.32l248.31,143.68c5.81,3.36,11.97,4.89,17.97,4.89,18.8,0,36.06-15.04,36.06-36.05v-287.35c0-21.02-17.25-36.05-36.06-36.05h0Z" style="stroke-width: 0px;"/>
  </g>
</svg>