<?xml version="1.0" encoding="UTF-8"?>
<svg id="Layer_1" data-name="Layer 1" xmlns="http://www.w3.org/2000/svg" viewBox="0 0 864 864">
  <path d="M307.63,594.04c-8.68,0-18.06-6.9-18.06-18.05v-287.97c0-11.15,9.37-18.05,18.06-18.05,3.11,0,6.12.83,8.96,2.47l248.84,143.99c8.11,4.69,8.98,12.46,8.98,15.58s-.88,10.89-8.98,15.58l-248.84,143.99c-2.84,1.64-5.85,2.47-8.96,2.47h0Z" style="stroke-width: 0px;"/>
  <path d="M307.58,288.01h0s248.84,143.99,248.84,143.99l-248.84,143.99v-287.97M307.63,251.96c-18.8,0-36.06,15.04-36.06,36.05v287.97c0,21.02,17.25,36.05,36.06,36.05,6,0,12.16-1.53,17.97-4.89l248.84-143.99c23.96-13.86,23.96-48.46,0-62.32l-248.84-143.99c-5.81-3.36-11.97-4.89-17.97-4.89h0Z" style="stroke-width: 0px;"/>
</svg>