<?xml version="1.0" encoding="UTF-8"?>
<svg id="Layer_1" data-name="Layer 1" xmlns="http://www.w3.org/2000/svg" viewBox="0 0 864 864">
  <g>
    <rect x="552" y="270" width="24" height="324" rx="8.58" ry="8.58" style="stroke-width: 0px;"/>
    <path d="M567.42,252h-6.84c-14.68,0-26.58,11.9-26.58,26.58v306.84c0,14.68,11.9,26.58,26.58,26.58h6.84c14.68,0,26.58-11.9,26.58-26.58v-306.84c0-14.68-11.9-26.58-26.58-26.58h0Z" style="stroke-width: 0px;"/>
  </g>
  <g>
    <path d="M306.06,593.73c-8.68,0-18.06-6.9-18.06-18.05v-287.35c0-11.15,9.37-18.05,18.05-18.05,3.11,0,6.12.83,8.96,2.47l248.31,143.68c8.11,4.69,8.99,12.46,8.99,15.58s-.88,10.89-8.99,15.58l-248.31,143.68c-2.84,1.64-5.85,2.47-8.96,2.47h0Z" style="stroke-width: 0px;"/>
    <path d="M306,288.32h0s248.31,143.68,248.31,143.68l-248.31,143.68h0v-287.35M306.06,252.27c-18.8,0-36.06,15.04-36.06,36.05v287.35c0,21.02,17.25,36.05,36.06,36.05,6,0,12.16-1.53,17.97-4.89l248.31-143.68c23.96-13.86,23.96-48.46,0-62.32l-248.31-143.68c-5.81-3.36-11.97-4.89-17.97-4.89h0Z" style="stroke-width: 0px;"/>
  </g>
</svg>