<?xml version="1.0" encoding="UTF-8"?>
<svg id="icon" xmlns="http://www.w3.org/2000/svg" viewBox="0 0 864 864">
  <g id="Layer_1_copy" data-name="Layer 1 copy">
    <path d="M684,144H180c-19.88,0-36,16.12-36,36v504c0,19.88,16.12,36,36,36h504c19.88,0,36-16.12,36-36V180c0-19.88-16.12-36-36-36ZM432,593.92c-41.48,0-82.97-15.79-114.55-47.37-30.6-30.6-47.45-71.28-47.45-114.55h-30l48-48,48,48h-30c0,33.66,13.11,65.3,36.9,89.09,23.8,23.8,55.44,36.91,89.1,36.91s65.3-13.11,89.1-36.9l25.46,25.46c-31.58,31.58-73.07,47.37-114.55,47.37ZM576,480l-48-48h30c0-33.66-13.11-65.3-36.9-89.09-23.8-23.8-55.44-36.91-89.1-36.91s-65.3,13.11-89.1,36.9l-25.46-25.46c63.16-63.16,165.94-63.16,229.1,0,30.6,30.6,47.45,71.28,47.45,114.55h30l-48,48Z" style="stroke-width: 0px;"/>
  </g>
</svg>