<?xml version="1.0" encoding="UTF-8"?>
<svg id="icon" xmlns="http://www.w3.org/2000/svg" viewBox="0 0 864 864">
  <g id="Layer_1_copy" data-name="Layer 1 copy">
    <path d="M391.4,548.72c32.73,0,65.46-10.12,93.03-30.35l110.6,110.6c4.69,4.69,10.83,7.03,16.97,7.03s12.28-2.34,16.97-7.03c9.37-9.37,9.37-24.57,0-33.94l-110.6-110.6c45.15-61.54,39.92-148.73-15.68-204.33-61.37-61.37-161.22-61.37-222.59,0-61.37,61.37-61.37,161.22,0,222.59,30.68,30.68,70.99,46.03,111.3,46.03ZM305.56,305.56c23.67-23.67,54.75-35.5,85.84-35.5s62.17,11.83,85.84,35.5c47.33,47.33,47.33,124.35,0,171.68-47.33,47.33-124.35,47.33-171.68,0-47.33-47.33-47.33-124.35,0-171.68Z" style="stroke-width: 0px;"/>
  </g>
</svg>