<?xml version="1.0" encoding="UTF-8"?>
<svg id="icon" xmlns="http://www.w3.org/2000/svg" viewBox="0 0 864 864">
  <g id="Layer_1_copy" data-name="Layer 1 copy">
    <polygon points="312 192 264 192 264 564 180 564 288 672 396 564 312 564 312 192" style="stroke-width: 0px;"/>
    <path d="M360,234h144c9.94,0,18-8.06,18-18s-8.06-18-18-18h-144c-9.94,0-18,8.06-18,18s8.06,18,18,18Z" style="stroke-width: 0px;"/>
    <path d="M360,330h192c9.94,0,18-8.06,18-18s-8.06-18-18-18h-192c-9.94,0-18,8.06-18,18s8.06,18,18,18Z" style="stroke-width: 0px;"/>
    <path d="M360,426h240c9.94,0,18-8.06,18-18s-8.06-18-18-18h-240c-9.94,0-18,8.06-18,18s8.06,18,18,18Z" style="stroke-width: 0px;"/>
    <path d="M648,486h-288c-9.94,0-18,8.06-18,18s8.06,18,18,18h288c9.94,0,18-8.06,18-18s-8.06-18-18-18Z" style="stroke-width: 0px;"/>
  </g>
</svg>