<?xml version="1.0" encoding="UTF-8"?>
<svg id="icon" xmlns="http://www.w3.org/2000/svg" viewBox="0 0 864 864">
  <g id="Layer_1_copy" data-name="Layer 1 copy">
    <path d="M252.54,324h-18v-162c0-9.94-8.06-18-18-18s-18,8.06-18,18v162h-18c-9.94,0-18,8.06-18,18v108c0,9.94,8.06,18,18,18h18v234c0,9.94,8.06,18,18,18s18-8.06,18-18v-234h18c9.94,0,18-8.06,18-18v-108c0-9.94-8.06-18-18-18Z" style="stroke-width: 0px;"/>
    <path d="M395.77,504h-18V162c0-9.94-8.06-18-18-18s-18,8.06-18,18v342h-18c-9.94,0-18,8.06-18,18v108c0,9.94,8.06,18,18,18h18v54c0,9.94,8.06,18,18,18s18-8.06,18-18v-54h18c9.94,0,18-8.06,18-18v-108c0-9.94-8.06-18-18-18Z" style="stroke-width: 0px;"/>
    <path d="M540.54,216h-18v-54c0-9.94-8.06-18-18-18s-18,8.06-18,18v54h-18c-9.94,0-18,8.06-18,18v108c0,9.94,8.06,18,18,18h18v342c0,9.94,8.06,18,18,18s18-8.06,18-18v-342h18c9.94,0,18-8.06,18-18v-108c0-9.94-8.06-18-18-18Z" style="stroke-width: 0px;"/>
    <path d="M683.46,423h-18V162c0-9.94-8.06-18-18-18s-18,8.06-18,18v261h-18c-9.94,0-18,8.06-18,18v108c0,9.94,8.06,18,18,18h18v135c0,9.94,8.06,18,18,18s18-8.06,18-18v-135h18c9.94,0,18-8.06,18-18v-108c0-9.94-8.06-18-18-18Z" style="stroke-width: 0px;"/>
  </g>
</svg>