<?xml version="1.0" encoding="UTF-8"?>
<svg id="icon" xmlns="http://www.w3.org/2000/svg" viewBox="0 0 864 864">
  <g id="Layer_1_copy" data-name="Layer 1 copy">
    <path d="M684,144H180c-19.88,0-36,16.12-36,36v504c0,19.88,16.12,36,36,36h504c19.88,0,36-16.12,36-36V180c0-19.88-16.12-36-36-36ZM684,684H180s0-504,0-504h504v504Z" style="stroke-width: 0px;"/>
    <path d="M497.74,432c0-36.31-29.43-65.74-65.74-65.74s-65.74,29.43-65.74,65.74,29.43,65.74,65.74,65.74,65.74-29.43,65.74-65.74ZM432,473.74c-23.02,0-41.74-18.72-41.74-41.74s18.72-41.74,41.74-41.74,41.74,18.72,41.74,41.74-18.72,41.74-41.74,41.74Z" style="stroke-width: 0px;"/>
    <path d="M431.91,525.39c.28,0,.55,0,.82,0,44.97,0,94.63-27.79,151.75-84.91,4.69-4.69,4.69-12.28,0-16.97-38.5-38.5-96.19-84.48-152.39-84.91-.28,0-.55,0-.82,0-44.97,0-94.63,27.79-151.75,84.91-4.69,4.69-4.69,12.28,0,16.97,38.5,38.5,96.19,84.48,152.39,84.91ZM431.91,362.61c25.32.19,67.52,12.65,126.94,69.4-48.62,46.66-89.95,69.38-126.1,69.38-.22,0-.44,0-.65,0-25.32-.19-67.52-12.65-126.94-69.4,48.91-46.94,90.44-69.67,126.76-69.38Z" style="stroke-width: 0px;"/>
  </g>
</svg>