<?xml version="1.0" encoding="UTF-8"?>
<svg id="icon" xmlns="http://www.w3.org/2000/svg" viewBox="0 0 864 864">
  <g id="Layer_1_copy" data-name="Layer 1 copy">
    <path d="M366.52,561.24l56.32-66.56c2.28-2.7,5.63-4.25,9.16-4.25s6.88,1.55,9.16,4.25l56.32,66.56v-208.81h-130.96v208.81Z" style="stroke-width: 0px;"/>
    <path d="M684,144H180c-19.88,0-36,16.12-36,36v504c0,19.88,16.12,36,36,36h504c19.88,0,36-16.12,36-36V180c0-19.88-16.12-36-36-36ZM521.48,340.43v253.57c0,5.04-3.14,9.54-7.87,11.27-1.35.49-2.74.73-4.12.73-3.46,0-6.84-1.5-9.16-4.25l-68.32-80.74-68.32,80.74c-3.25,3.84-8.55,5.25-13.29,3.52-4.73-1.73-7.87-6.23-7.87-11.27v-324c0-6.63,5.37-12,12-12h154.96c6.63,0,12,5.37,12,12v70.43Z" style="stroke-width: 0px;"/>
    <rect x="366.52" y="282" width="130.96" height="46.43" style="stroke-width: 0px;"/>
  </g>
</svg>