<?xml version="1.0" encoding="UTF-8"?>
<svg id="icon" xmlns="http://www.w3.org/2000/svg" viewBox="0 0 864 864">
  <g id="Layer_1_copy" data-name="Layer 1 copy">
    <path d="M684,144H180c-19.88,0-36,16.12-36,36v504c0,19.88,16.12,36,36,36h504c19.88,0,36-16.12,36-36V180c0-19.88-16.12-36-36-36ZM442.44,551.16c-4.8,4.8-10.8,7.2-18,7.2s-13.56-2.4-18.36-7.2c-4.8-4.8-7.2-10.92-7.2-18.36s2.4-13.5,7.2-18.18c4.8-4.68,10.92-7.02,18.36-7.02s13.5,2.34,18.18,7.02c4.68,4.68,7.02,10.74,7.02,18.18s-2.4,13.56-7.2,18.36ZM504.18,397.44c-3.72,7.68-8.04,13.92-12.96,18.72-4.92,4.8-11.58,10.2-19.98,16.2-8.4,6-14.64,11.22-18.72,15.66-4.08,4.44-6.12,9.9-6.12,16.38v12.24c0,1.2-.42,2.22-1.26,3.06s-1.86,1.26-3.06,1.26h-33.12c-1.2,0-2.22-.42-3.06-1.26-.84-.84-1.26-1.86-1.26-3.06v-14.76c0-11.52,2.88-20.82,8.64-27.9,5.76-7.08,14.16-14.58,25.2-22.5,9.6-6.96,16.8-13.26,21.6-18.9,4.8-5.64,7.2-12.66,7.2-21.06,0-9.36-3.24-16.86-9.72-22.5-6.48-5.64-15-8.46-25.56-8.46s-19.92,3-26.64,9c-6.72,6-10.08,13.68-10.08,23.04v7.56c0,2.64-1.44,3.96-4.32,3.96l-33.12-1.44c-1.2,0-2.22-.48-3.06-1.44-.84-.96-1.26-2.04-1.26-3.24v-5.4c0-13.68,3.36-25.86,10.08-36.54,6.72-10.68,16.08-18.96,28.08-24.84,12-5.88,25.8-8.82,41.4-8.82,23.28,0,41.88,6.18,55.8,18.54,13.92,12.36,20.88,28.74,20.88,49.14,0,10.56-1.86,19.68-5.58,27.36Z" style="stroke-width: 0px;"/>
  </g>
</svg>