<?xml version="1.0" encoding="UTF-8"?>
<svg id="icon" xmlns="http://www.w3.org/2000/svg" viewBox="0 0 864 864">
  <g id="Layer_1_copy" data-name="Layer 1 copy">
    <path d="M296.84,567.16c36.1,36.1,84.1,55.98,135.16,55.98s99.06-19.88,135.16-55.98l-33.94-33.94c-27.04,27.04-62.98,41.93-101.22,41.93s-74.18-14.89-101.22-41.93-41.93-62.98-41.93-101.22h42.86l-66.86-66.86-66.86,66.86h42.86c0,51.06,19.88,99.06,55.98,135.16Z" style="stroke-width: 0px;"/>
    <path d="M432,288.86c38.23,0,74.18,14.89,101.22,41.93s41.93,62.98,41.93,101.22h-42.86l66.86,66.86,66.86-66.86h-42.86c0-51.06-19.88-99.06-55.98-135.16-36.1-36.1-84.1-55.98-135.16-55.98s-99.06,19.88-135.16,55.98l33.94,33.94c27.04-27.04,62.98-41.93,101.22-41.93Z" style="stroke-width: 0px;"/>
  </g>
</svg>