<?xml version="1.0" encoding="UTF-8"?>
<svg id="icon" xmlns="http://www.w3.org/2000/svg" viewBox="0 0 864 864">
  <path d="M321.27,272.88l-101.56,316.37c-.63,2.19-.47,3.82.47,4.91.94,1.1,2.34,1.64,4.21,1.64h46.8c3.12,0,5.15-1.56,6.08-4.68l15.44-50.08c.62-1.24,1.4-1.87,2.34-1.87h123.55c.94,0,1.71.63,2.34,1.87l15.44,50.08c.94,3.12,2.96,4.68,6.08,4.68h46.8c3.43,0,5.15-1.4,5.15-4.21,0-.94-.16-1.71-.47-2.34l-102.02-316.37c-.94-3.12-2.97-4.68-6.08-4.68h-58.5c-3.12,0-5.15,1.56-6.08,4.68ZM356.37,335.12c.62,0,1.09.63,1.4,1.87l48.2,156.78c.62,1.87,0,2.81-1.87,2.81h-95c-1.57,0-2.19-.94-1.87-2.81l47.74-156.78c.31-1.24.78-1.87,1.4-1.87Z" style="stroke-width: 0px;"/>
  <path d="M574.76,399.57c20.01-21.83,34.38-38.2,43.11-49.11,15.83-19.46,23.74-36.65,23.74-51.57,0-9.82-2.46-18.69-7.37-26.6s-11.92-14.14-21.01-18.69c-9.1-4.54-19.74-6.82-31.92-6.82-11.1,0-21.15,2-30.15,6-9,4-16.14,9.64-21.42,16.92-5.28,7.28-8.1,15.83-8.46,25.65v11.73c0,.91.32,1.68.96,2.32.64.64,1.41.95,2.32.95h25.38c.91,0,1.68-.32,2.32-.95.64-.64.96-1.41.96-2.32v-7.09c0-7.82,2.59-14.09,7.78-18.83,5.18-4.73,11.96-7.09,20.33-7.09s15.19,2.37,20.46,7.09c5.27,4.73,7.91,10.82,7.91,18.28,0,10.01-8.37,24.74-25.1,44.2l-12.82,15.01c-18.19,21.47-34.2,39.56-48.02,54.3-1.09,1.09-1.64,2.46-1.64,4.09v19.65c0,.91.32,1.68.95,2.32.64.64,1.41.96,2.32.96h117.32c.91,0,1.68-.32,2.32-.96.63-.64.96-1.41.96-2.32v-20.74c0-.91-.32-1.68-.96-2.32-.64-.64-1.41-.95-2.32-.95h-77.76c-.55,0-.87-.18-.96-.55-.09-.36.04-.72.41-1.09l10.37-11.46Z" style="stroke-width: 0px;"/>
</svg>