<?xml version="1.0" encoding="UTF-8"?>
<svg id="icon" xmlns="http://www.w3.org/2000/svg" viewBox="0 0 864 864">
  <path d="M543.85,268.2h-43.06c-1.56,0-2.89.55-3.98,1.64-1.1,1.1-1.64,2.42-1.64,3.98v216.68c0,18.41-5.78,33.39-17.32,44.93s-26.84,17.32-45.86,17.32-34.33-5.77-45.86-17.32c-11.55-11.54-17.32-26.52-17.32-44.93v-216.68c0-1.56-.55-2.88-1.64-3.98-1.1-1.09-2.42-1.64-3.98-1.64h-43.06c-1.56,0-2.89.55-3.98,1.64-1.1,1.1-1.64,2.42-1.64,3.98v215.75c0,21.84,4.91,41.11,14.74,57.8,9.83,16.69,23.63,29.56,41.42,38.61,17.78,9.05,38.21,13.57,61.31,13.57s43.99-4.52,61.78-13.57c17.78-9.05,31.51-21.92,41.18-38.61,9.67-16.69,14.51-35.96,14.51-57.8v-215.75c0-1.56-.55-2.88-1.64-3.98-1.1-1.09-2.42-1.64-3.98-1.64Z" style="stroke-width: 0px;"/>
  <rect x="283.18" y="619.2" width="297.64" height="23.39" style="stroke-width: 0px;"/>
</svg>