<?xml version="1.0" encoding="UTF-8"?>
<svg id="icon" xmlns="http://www.w3.org/2000/svg" viewBox="0 0 864 864">
  <path d="M240.12,595.8h43.06c1.56,0,2.88-.54,3.98-1.64,1.09-1.09,1.64-2.41,1.64-3.98v-133.85c0-1.56.78-2.34,2.34-2.34h119.34c1.56,0,2.34.78,2.34,2.34v133.85c0,1.56.54,2.89,1.64,3.98,1.09,1.1,2.41,1.64,3.98,1.64h43.06c1.56,0,2.88-.54,3.98-1.64s1.64-2.41,1.64-3.98v-316.37c0-1.56-.55-2.88-1.64-3.98-1.1-1.09-2.42-1.64-3.98-1.64h-43.06c-1.56,0-2.89.55-3.98,1.64s-1.64,2.42-1.64,3.98v131.04c0,1.56-.78,2.34-2.34,2.34h-119.34c-1.56,0-2.34-.77-2.34-2.34v-131.04c0-1.56-.55-2.88-1.64-3.98-1.1-1.09-2.42-1.64-3.98-1.64h-43.06c-1.56,0-2.89.55-3.98,1.64-1.1,1.1-1.64,2.42-1.64,3.98v316.37c0,1.56.54,2.89,1.64,3.98,1.09,1.1,2.41,1.64,3.98,1.64Z" style="stroke-width: 0px;"/>
  <path d="M521.62,336.06c.77.94,1.79,1.4,3.04,1.4.94,0,1.71-.15,2.34-.47l46.8-14.51c.62-.31,1.24-.23,1.87.23.62.47.94,1.02.94,1.64v265.82c0,1.56.54,2.89,1.64,3.98,1.09,1.1,2.41,1.64,3.98,1.64h43.06c1.56,0,2.88-.54,3.98-1.64s1.64-2.41,1.64-3.98v-316.37c0-1.56-.55-2.88-1.64-3.98-1.1-1.09-2.42-1.64-3.98-1.64h-44.93c-2.19,0-4.53.47-7.02,1.4l-50.54,25.27c-2.5,1.25-3.74,3.44-3.74,6.55l1.4,30.89c0,1.56.39,2.81,1.17,3.74Z" style="stroke-width: 0px;"/>
</svg>