<?xml version="1.0" encoding="UTF-8"?>
<svg id="icon" xmlns="http://www.w3.org/2000/svg" viewBox="0 0 864 864">
  <path d="M340.04,595.8h43.06c1.56,0,2.88-.54,3.98-1.64,1.09-1.09,1.64-2.41,1.64-3.98v-133.85c0-1.56.78-2.34,2.34-2.34h107.17c1.56,0,2.88-.54,3.98-1.64,1.09-1.09,1.64-2.41,1.64-3.98v-35.57c0-1.56-.55-2.88-1.64-3.98-1.1-1.09-2.42-1.64-3.98-1.64h-107.17c-1.56,0-2.34-.77-2.34-2.34v-87.52c0-1.56.78-2.34,2.34-2.34h159.12c1.56,0,2.88-.54,3.98-1.64,1.09-1.09,1.64-2.41,1.64-3.98v-35.57c0-1.56-.55-2.88-1.64-3.98-1.1-1.09-2.42-1.64-3.98-1.64h-210.13c-1.57,0-2.89.55-3.98,1.64s-1.64,2.42-1.64,3.98v316.37c0,1.56.54,2.89,1.64,3.98,1.09,1.1,2.41,1.64,3.98,1.64Z" style="stroke-width: 0px;"/>
</svg>