<?xml version="1.0" encoding="UTF-8"?>
<svg id="icon" xmlns="http://www.w3.org/2000/svg" viewBox="0 0 864 864">
  <path d="M300.39,444.1h-30.82c-19.01,0-33.75,4.18-44.21,12.53-10.47,8.35-15.7,20.02-15.7,34.99s4.65,25.25,13.97,32.54c9.31,7.3,21.17,10.94,35.57,10.94,17.86,0,31.49-5.18,40.9-15.55.38-.38.76-.53,1.15-.43.38.1.58.43.58,1.01v9.22c0,.96.33,1.78,1.01,2.45.67.67,1.49,1.01,2.45,1.01h26.5c.96,0,1.77-.33,2.45-1.01.67-.67,1.01-1.49,1.01-2.45v-97.06c0-9.4-2.5-17.81-7.49-25.2-5-7.39-12.1-13.2-21.31-17.42-9.22-4.22-19.87-6.34-31.97-6.34-16.7,0-30.58,3.74-41.62,11.23-11.04,7.49-17.33,17.09-18.86,28.8-.19.77.04,1.4.72,1.87.67.48,1.49.82,2.45,1.01l27.94,3.46c2.11.39,3.46-.58,4.03-2.88,1.15-4.61,3.98-8.21,8.5-10.8,4.51-2.59,10.41-3.89,17.71-3.89,8.83,0,15.45,2.07,19.87,6.19,4.41,4.13,6.62,9.94,6.62,17.42v6.91c0,.96-.48,1.44-1.44,1.44ZM301.83,482.11c0,7.68-3.36,14.02-10.08,19.01-6.72,5-14.79,7.49-24.19,7.49-7.11,0-12.91-1.68-17.42-5.04-4.51-3.36-6.77-8.11-6.77-14.26,0-7.1,2.92-12.57,8.78-16.42,5.85-3.84,13.87-5.76,24.05-5.76h24.19c.96,0,1.44.48,1.44,1.44v13.54Z" style="stroke-width: 0px;"/>
  <path d="M401.33,332.21c-.67-.67-1.49-1.01-2.45-1.01h-26.5c-.96,0-1.78.34-2.45,1.01-.68.67-1.01,1.49-1.01,2.45v194.69c0,.96.33,1.78,1.01,2.45.67.67,1.48,1.01,2.45,1.01h26.5c.96,0,1.77-.33,2.45-1.01s1.01-1.49,1.01-2.45v-8.93c0-.58.19-.96.58-1.15.38-.19.76,0,1.15.58,8.64,10.18,19.68,15.26,33.12,15.26s25.15-3.55,34.56-10.66c9.41-7.1,16.22-16.99,20.45-29.66,3.64-10.37,5.47-22.36,5.47-36,0-12.67-1.63-24.38-4.9-35.14-4.42-12.67-11.28-22.56-20.59-29.66-9.31-7.1-21.07-10.66-35.28-10.66s-24.58,4.9-32.83,14.69c-.39.39-.77.48-1.15.29-.39-.19-.58-.58-.58-1.15v-62.5c0-.96-.34-1.77-1.01-2.45ZM410.11,424.8c4.99-8.45,12.19-12.67,21.6-12.67,10.17,0,17.86,4.03,23.04,12.1,5.76,8.45,8.64,20.16,8.64,35.14,0,14.02-2.3,25.06-6.91,33.12-2.5,4.42-5.86,7.83-10.08,10.22-4.23,2.4-9.03,3.6-14.4,3.6-9.99,0-17.47-4.61-22.46-13.82-4.42-7.49-6.62-18.62-6.62-33.41s2.4-26.4,7.2-34.27Z" style="stroke-width: 0px;"/>
  <path d="M628.99,394.56c-11.14-7.49-24.19-11.23-39.17-11.23s-27.6,3.7-38.45,11.09c-10.85,7.39-18.29,17.42-22.32,30.1-3.07,8.83-4.61,20.16-4.61,33.98s1.53,25.92,4.61,34.56c4.22,12.87,11.71,23.09,22.46,30.67,10.75,7.59,23.52,11.38,38.3,11.38s28.03-3.6,39.17-10.8c11.13-7.2,18.53-16.94,22.18-29.23.38-1.34.86-3.55,1.44-6.62.19-1.15-.05-2.06-.72-2.74-.67-.67-1.49-1.1-2.45-1.3l-25.92-4.03c-2.12-.38-3.46.58-4.03,2.88,0,.39-.1.68-.29.86,0,.58-.1,1.06-.29,1.44-1.54,6.34-4.95,11.38-10.22,15.12-5.28,3.74-11.57,5.62-18.86,5.62s-13.73-1.97-18.72-5.9c-5-3.93-8.45-9.26-10.37-15.98-1.73-6.53-2.59-15.07-2.59-25.63s.96-19.48,2.88-25.63c1.73-6.52,5.13-11.66,10.22-15.41,5.08-3.74,11.28-5.62,18.58-5.62s13.25,1.73,18.43,5.18c5.18,3.46,8.64,7.88,10.37,13.25.38,1.15.76,2.5,1.15,4.03.19.58.29,1.35.29,2.3.58,1.92,1.73,2.88,3.46,2.88h.58l25.92-3.74c2.11-.38,3.17-1.53,3.17-3.46v-.58c-.39-3.07-1.06-6.14-2.02-9.22-3.65-11.33-11.04-20.74-22.18-28.22Z" style="stroke-width: 0px;"/>
</svg>