<?xml version="1.0" encoding="UTF-8"?>
<svg id="icon" xmlns="http://www.w3.org/2000/svg" viewBox="0 0 864 864">
  <path d="M630,222H234c-9.94,0-18,8.06-18,18s8.06,18,18,18h396c9.94,0,18-8.06,18-18s-8.06-18-18-18Z" style="stroke-width: 0px;"/>
  <path d="M630,510H234c-9.94,0-18,8.06-18,18s8.06,18,18,18h396c9.94,0,18-8.06,18-18s-8.06-18-18-18Z" style="stroke-width: 0px;"/>
  <path d="M534,606H234c-9.94,0-18,8.06-18,18s8.06,18,18,18h300c9.94,0,18-8.06,18-18s-8.06-18-18-18Z" style="stroke-width: 0px;"/>
  <path d="M630,414H234c-9.94,0-18,8.06-18,18s8.06,18,18,18h396c9.94,0,18-8.06,18-18s-8.06-18-18-18Z" style="stroke-width: 0px;"/>
  <path d="M630,318H234c-9.94,0-18,8.06-18,18s8.06,18,18,18h396c9.94,0,18-8.06,18-18s-8.06-18-18-18Z" style="stroke-width: 0px;"/>
</svg>