<?xml version="1.0" encoding="UTF-8"?>
<svg id="draw_copy" data-name="draw copy" xmlns="http://www.w3.org/2000/svg" viewBox="0 0 864 864">
  <g id="Layer_1_copy" data-name="Layer 1 copy">
    <path d="M684,144H180c-19.88,0-36,16.12-36,36v504c0,19.88,16.12,36,36,36h504c19.88,0,36-16.12,36-36V180c0-19.88-16.12-36-36-36ZM591.16,376.15c-20.44-.91-47.88.12-56.22,10.87,2.25,30.09,31.15,28.58,44.39,46.22,10.75,14.29,18.25,34.97,17.25,56.26-3.28,71.75-96.94,75.24-167.75,62.56-70.69-12.67-119.66-49.65-176.83-65.28,10.4-5.88,23.87-8.75,35.36-13.62-6.91-5.79-14.89-10.49-22.68-15.42,48.62-16.28,104.41-25.97,165.03-29.01,20.82-1.01,53.97-6.41,56.24-23.58.98-7.47-4.72-13.67-7.26-21.74-11.61-36.72,4.28-75.46,39.02-77.07,17-.86,34.06,5.99,41.67,19.02,3.19,5.44,1.86,12.29,4.55,19.08,6.5,16.34,31.72,13.86,48.06,23.58.12,10.43-11.64,8.51-20.83,8.15Z" style="stroke-width: 0px;"/>
  </g>
</svg>