<?xml version="1.0" encoding="UTF-8"?>
<svg id="draw_copy" data-name="draw copy" xmlns="http://www.w3.org/2000/svg" viewBox="0 0 864 864">
  <g id="Layer_1_copy" data-name="Layer 1 copy">
    <path d="M388.35,352.49c-1.89,9.41-.76,21.07,6.39,28.11,7.04,6.92,19.58,7.72,27.59,1.97,8.08-5.83,11.14-16.65,10.05-26.26-1.33-11.74-9.85-21.35-20.27-26.7-2.09-1.09-5.35-.44-6.68.4-8.32,5.11-15.16,12.67-17.13,22.52l.04-.04ZM419.59,366.36c-.76,3.14-2.98,7.92-9.93,7.92s-9.01-5.55-9.29-7.72c-1.57-11.94,2.98-19.62,9.09-24.73,6.51,4.7,12.18,15.88,10.13,24.53Z" style="stroke-width: 0px;"/>
    <path d="M382.72,326.11c7.76,0,7.76-12.06,0-12.06s-7.76,12.06,0,12.06Z" style="stroke-width: 0px;"/>
    <path d="M437.41,326.11c7.76,0,7.76-12.06,0-12.06s-7.76,12.06,0,12.06Z" style="stroke-width: 0px;"/>
    <path d="M420.16,395.08h-20.19c-3.14,0-6.19,2.77-6.03,6.03s2.65,6.03,6.03,6.03h20.19c3.14,0,6.19-2.77,6.03-6.03s-2.65-6.03-6.03-6.03Z" style="stroke-width: 0px;"/>
    <path d="M572.61,450.25c-18.82-35.63-50.31-62.09-85.65-80.51,1.25-5.47,1.93-11.06,2.05-16.73,3.3,1.85,6.72,3.54,10.17,5.07,4.14,1.85,8.93-.28,9.09-5.23.12-4.79.12-9.65-.16-14.48,4.91,2.21,10.01,4.06,15.12,5.59,3.78,1.13,7.64-1.97,7.64-5.83,0-4.75-.08-9.81-.72-14.72,4.34,1.41,8.69,2.86,12.99,4.46,3.86,1.45,7.48-2.21,7.64-5.83,1.33-27.67-11.22-55.45-38.24-65.71-26.22-9.93-59.4-2.81-75.04,21.35-8.69-3.02-17.94-4.58-27.35-4.66-9.41.08-18.54,1.85-27.14,4.99-15.56-24.37-48.9-31.61-75.24-21.63-27.06,10.25-39.61,38.08-38.28,65.71.16,3.58,3.78,7.28,7.64,5.83,4.3-1.61,8.61-3.06,12.99-4.46-.6,4.95-.72,10.01-.72,14.72,0,3.86,3.86,6.96,7.64,5.83,5.11-1.53,10.17-3.42,15.12-5.59-.28,4.83-.32,9.69-.16,14.48.12,4.91,4.95,7.04,9.09,5.23,3.5-1.53,6.92-3.26,10.25-5.15.64,20.75,9.33,41.1,24.05,56.22,3.1,3.18,6.43,6.03,9.97,8.49-5.27,18.74-9.01,38.12-9.33,57.67-.16,9.81.6,19.7,2.65,29.32,2.25,10.33,6.92,19.99,9.09,30.32,1.17,5.51,2.05,15.96-3.34,18.22-5.79,2.45-12.59,2.29-18.5,4.5-6.8,2.49-11.1,6.72-13.35,13.63-1.73,5.35-1.17,11.26,2.77,15.48,4.7,5.03,12.14,6.31,18.66,7.08,7.96.97,16.05.88,24.05.68v1.05c.76,8.24,7.6,13.87,15.36,15.52,5.71,1.25,11.82.76,17.65.76,26.06.08,107.65.08,113.97-.6,19.1-2.05,37.24-9.01,50.75-23.04,14.32-14.84,19.42-34.46,18.78-54.69-.88-28.55-8.44-58.07-21.84-83.32h-.12ZM491.13,298.48c4.1,5.19-4.3,13.27-11.3,15.84-1.89-3.58-4.02-7-6.43-10.25,7.32-7.36,14.11-10.21,17.73-5.59ZM509.19,268.08c19.06,7.6,28.03,26.3,29.32,45.56-4.99-1.73-10.01-3.34-15.12-4.75-4.1-1.17-9.13,3.02-7.44,7.44,1.61,4.22,2.25,8.81,2.53,13.43-5.11-1.93-10.05-4.18-14.72-6.96-4.79-2.86-9.85,1.85-8.85,6.8.88,4.46,1.17,9.05,1.29,13.67-2.86-1.57-5.63-3.22-8.36-4.95-.72-4.38-1.81-8.69-3.26-12.87,2.13-.97,4.14-2.13,6.03-3.46,4.58-3.22,9.09-7.24,11.62-12.31,2.73-5.43,3.26-11.98-.52-17.17-2.41-3.34-5.47-5.87-9.41-7.2-3.38-1.17-7.24-.97-10.62-.12-6.11,1.53-11.66,5.35-16.25,9.77-.52-.48-.97-1.05-1.49-1.53-4.7-4.3-9.89-7.84-15.36-10.74,13.35-18.42,39.97-22.84,60.64-14.64h-.04ZM310.86,268.08c20.83-8.28,47.65-3.74,60.92,15-6.11,3.34-11.78,7.4-16.85,12.18-9.17-8.69-23.97-16.17-34.38-5.47-4.5,4.62-6.23,11.06-3.86,17.17,2.25,5.83,6.55,10.25,11.46,13.99,2.25,1.69,4.7,3.26,7.28,4.42-.2.6-.44,1.13-.64,1.73-1.21,3.7-2.09,7.48-2.69,11.26-2.69,1.73-5.43,3.34-8.24,4.87.08-4.62.4-9.21,1.29-13.67.97-4.99-4.1-9.65-8.85-6.8-4.66,2.77-9.61,5.03-14.72,6.96.28-4.62.92-9.25,2.53-13.43,1.69-4.42-3.3-8.57-7.44-7.44-5.11,1.45-10.13,3.06-15.12,4.75,1.29-19.3,10.25-38,29.32-45.56v.04ZM328.47,299.01c2.77-3.58,9.33-4.62,18.38,5.27-2.41,3.18-4.62,6.51-6.55,10.05-8.61-1.53-15.48-10.66-11.82-15.36v.04ZM343.67,341.99c4.62-32.93,33.54-56.5,66.35-56.78,29.6.28,55.66,18.22,64.14,47.01,7.84,26.66-.97,56.74-23.65,73.39-23.12,16.93-57.79,19.1-80.67.68-18.74-15.04-29.56-40.41-26.18-64.3ZM357.71,582.27c.72-.16,12.87-2.65,18.1-4.18,3.02-.88,5.23-4.3,4.22-7.44-1.01-3.06-4.18-5.15-7.44-4.22-5.23,1.53-23.85,5.43-27.83,6.31,1.65-4.58,12.39-5.51,17.05-6.47,5.47-1.13,10.54-2.49,13.83-7.28,4.83-6.96,5.55-14.68,4.34-22.88-1.41-9.57-5.27-18.34-8.04-27.55-2.73-9.13-3.9-18.54-4.06-28.03-.32-19.14,3.06-38.12,8.08-56.58,8.28,3.9,17.25,6.11,26.34,6.84-6.51,20.99-7.76,43.71-5.95,65.51,1.81,22.2,6.72,44.32,15.84,64.66-8.85,5.63-25.66,15.52-29.8,21.43-7.84.24-24.33-.16-24.69-.16v.04ZM436.97,599.96c1.41-9.65,7.64-19.95,22.16-20.75,3.06,6.55,7.16,12.59,12.51,17.73,1.17,1.13,2.37,2.13,3.62,3.1-9.69,0-35.19-.08-38.28-.12v.04ZM543.45,595.14c-7.08,2.57-32.01,8.49-49.66,1.69-14.44-5.59-24.17-18.86-27.67-33.46-3.1-12.95-2.13-27.22,2.09-39.85,5.03-15.04,19.79-29.24,34.66-35.83,7.08-3.14.97-13.55-6.07-10.42-15.96,7.08-31.04,21.72-38.16,37.72-5.15,11.58-6.96,25.09-6.19,37.64.32,5.03,1.13,10.01,2.41,14.88-7.32,1.09-14.32,4.38-19.62,9.61-6.11,5.99-9.73,14.28-10.33,22.8-5.67,0-26.82.68-30.96-1.05,5.39-1.17,10.74-2.29,16.13-3.46,3.1-.64,5.19-4.46,4.22-7.44-1.05-3.26-4.1-4.91-7.44-4.22-3.5.76-7,1.49-10.46,2.25,8.28-6.51,17.69-11.94,26.5-17.53,2.9-1.85,3.66-5.23,2.17-8.24-9.97-20.23-15.08-43.07-16.73-65.51-1.61-21.43-.24-43.43,6.68-63.9,11.34-.84,22.6-3.98,32.85-9.41,16.61-8.77,28.83-23.16,35.47-39.89,27.91,14.92,53.4,34.78,70.94,61.45,13.19,19.99,21.19,42.55,25.33,66.07,2.94,16.77,4.91,34.82-.56,51.27-5.43,16.37-19.62,28.95-35.59,34.78v.04Z" style="stroke-width: 0px;"/>
  </g>
</svg>