<?xml version="1.0" encoding="UTF-8"?>
<svg id="draw_copy" data-name="draw copy" xmlns="http://www.w3.org/2000/svg" viewBox="0 0 864 864">
  <g id="Layer_1_copy" data-name="Layer 1 copy">
    <path d="M684,144H180c-19.88,0-36,16.12-36,36v504c0,19.88,16.12,36,36,36h504c19.88,0,36-16.12,36-36V180c0-19.88-16.12-36-36-36ZM606.1,440.72c-2.57,2.93-9.36,4.62-12.47,6.72-1.4.94-2,1.95-2.87,3.38-1.84,3.09-9.29,6.55-12.04,8.95-3.99,3.43-20.58,24.73-39.02,26.27-8.56.73-15.16-.1-20.83.37-23.64,2.06-35.94,18.66-23.14,54.89.58,1.67,1.28,3.28,2.02,4.9.46,1.04,1.19,2.64.49,3.77-1.08,1.7-4.27,1.07-5.9,1.07-5.03.03-10.06.1-15.06.07-2.03,0-4.01,0-6-.07-.8-.03-2.1.1-2.86-.31-2.66-1.26-11.26-12.4-12.79-14.63-2.64-3.86-3.24-17.93-6.7-21.73-2.86-3.17-7.5-4.09-10.51-3.96-2.37.14-6.36.5-8.63.89-3.36.55-6.77.97-10.16,1.31-6.63.7-13.3,1.06-20.02,1.06-10.34,0-20.71-.83-30.94-2.56-5.56-.87-19.35-5.68-24.1-2-4.06,3.09-2.69,10.7-2.27,14.93.41,4.54,1.18,9.12,2.57,13.49.73,2.34,1.67,4.54,2.86,6.63.6.94,1.23,1.88,1.89,2.78.51.68,1.77,1.66,1.54,2.63-.33,1.43-5.97,1.3-7.59,1.33-3.24.1-14.64.14-17.11.14s-4.66.07-7.02-1.23c-3.31-1.84-5.17-6.07-7.16-9.14-1.54-2.42-3.04-4.79-4.47-7.23-1.44-2.46-2.75-4.96-3.53-7.73-.77-2.71-1.04-5.57-1.37-8.37-4.98-38.22-40.73-34.39-40.73-102.42,0-7.05.82-14.04,2.46-20.86.8-3.21,1.67-6.6,3.04-9.64.94-2.06,2.76-4.21-.76-4.89-1.67-.38-3.4-.84-5-1.57-5.24-2.54-8.97-8.27-9.7-13.44-1.3-8.73,4.01-16.1,12.43-16.56,8.73-.5,12.64,6.4,12.33,10.9-.2,2.73-.66,3.73-2.17,5.8-1.92,2.46-4.89,4.33-9.29,2.34-1.7-.8-2.9-3.63-2.2-4.04.8-.53,2.49,2.11,5.27,1.4,2.56-.7,3.53-2.73,3.57-4.02.17-3.38-2.76-6.53-7.3-6.18-3.97.27-7.13,3.44-6.57,8.44.43,3.67,2.27,6.4,5.87,7.93,4.86,2.06,9.23.9,13.59-4.67.31-.43.63-.92.94-1.37.22-.24.39-.5.56-.7,26.13-34.44,77.16-50.93,120.41-50.93,26.2,0,52.67,5.27,76.3,16.7,6.93,3.34,13.59,7.2,19.85,11.6,5.87,4.13,10.88,9.54,16.97,13.17,4.86,2.86,11.14,2.76,15.16,1.4,5.24-1.86,10.54-3.99,16.13-3.99,3.24,0,13.2.63,9.74,6.12-1.4,2.23-2.2,4.67-2.2,7.37,0,2.34.53,5.34,2.2,7.11,1.59,1.76,5.36,4.2,7.27,5.56,9.93,6.63,16.19,23.23,21.49,27.29,2.17,1.67,6.5,4.78,11.5,5.48,4.81.77,10.3-.87,11.97-.87,4.16,0,5.73,3.53,5.94,7.61.25,4.16-.73,17.46-5.87,23.33Z" style="stroke-width: 0px;"/>
    <path d="M567.36,406.47c-1.74,0-3.14,1.43-3.14,3.14s1.4,3.14,3.14,3.14,3.14-1.36,3.14-3.14-1.4-3.14-3.14-3.14Z" style="stroke-width: 0px;"/>
  </g>
</svg>