<?xml version="1.0" encoding="UTF-8"?>
<svg id="draw_copy" data-name="draw copy" xmlns="http://www.w3.org/2000/svg" viewBox="0 0 864 864">
  <g id="Layer_1_copy" data-name="Layer 1 copy">
    <path d="M321.12,426.01c-7.72,0-7.72,12.01,0,12.01s7.72-12.01,0-12.01Z" style="stroke-width: 0px;"/>
    <path d="M610.94,329.2c-2.32-7.32-8.76-12.29-16.57-12.01-4.68.16-8.76,2.28-11.41,6.16-2.88,4.32-2.76,9.72-2.08,14.61.44,3.12,4.6,5.08,7.4,4.2,3.44-1.12,4.6-4.04,4.2-7.4-.48-4,1.4-5.52,3.2-5.56,4.92-.12,6.96,8.32,1.8,14.13-2.96,3.36-7.8,6.4-22.29.52-10.05-12.01-22.57-19.73-37.3-24.73-35.1-11.93-74.08-10.97-110.17-4.8-20.49,3.52-40.38,9.16-58.79,19.05-11.57,6.2-21.93,13.93-31.14,22.93-4.12-6.04-29.45-11.05-35.58-22.77-1.96-3.76-9.44-1.64-10.04,2.64-.72,5.24-.44,19.09.56,26.25-4.6-1.8-8.92-4.08-12.65-7.44-3.48-3.12-10.81-1.32-10.25,4.24,1.32,12.81,5.76,24.45,13.25,34.94,5.12,7.2,11.45,15.17,14.01,23.81-1.16,5.6-6.04,9.96-15.09,12.21-3.92,1-17.09-.08-20.17-.72-3.4-.72-5,1.84-5.8,4.4-3.48,11.21-6.16,22.93-1.72,34.34,1.92,4.92,5.52,8.68,10.81,9.8,5.12,1.08,11.05-2.16,15.77.48,3.16,1.8,6.96,5.48,10.93,7.36,6.64,3.16,13.93,4.92,21.33,4.92,3.6,0,6.72-.2,10.09,1.6,5.28,2.76,4.76,9,4.92,13.29.16,5.08-2.72,31.5-4.36,40.02-.72,3.76,1.64,7.6,5.8,7.6h22.61c2.48,0,5.24-1.84,5.8-4.4,1.12-5.28,2.76-20.21,6.6-25.17,2.08,7.64,2.04,15.73,1.72,23.57-.12,3.28,2.84,5.96,6,6,5.76.04,12.09,1.04,17.69-.68,5.84-1.8,10-6.76,13.05-11.81,1.76-2.92,5.88-16.73,7.68-17.65,3.48-1.8,52.11-3.24,64.31-4-3.64,8.88-9.92,16.29-14.49,24.93-2.12,4,.48,9,5.2,9.04,7.48.08,15.17.64,22.61.12,6.32-.44,13.73-2.8,14.73-9.76.96-6.52,6.04-21.77,15.49-25.49,5.04,8.84-.6,22.01-.8,29.37-.08,3.24,2.84,5.76,6,6,7.76.64,16.29,1.48,24.21-.16,8.48-1.72,12.25-9.44,15.77-16.65,6.56-13.49,9.32-27.45,9.88-42.26.2-6.08,4.6-15.49,6.8-19.69,4.32-8.2,9-16.21,11.97-25.05,6.36-18.77,6.24-39.06,2.84-58.39-2-11.33-5.12-22.29-10.25-32.34,9.2.8,18.45-1.88,23.53-10.41,3.32-5.56,4.4-13.01,2.44-19.21h-.08ZM304.15,351.65c4.76,5.8,24.25,10.17,25.53,13.37-1.96,2.24-3.84,4.56-5.64,6.96-3.76-1.64-13.93-4.36-19.61-5.84.36-4.36-.24-14.05-.28-14.53v.04ZM347.21,541.35h-10.61c1.12-6.76,2.12-13.57,2.76-20.37.44-4.8.88-9.84.88-14.81,2.4,1.48,4.84,2.88,7.48,4,3.2,1.36,6.36,2.12,9.08,3.36-6.08,7.72-7.8,18.21-9.56,27.85l-.04-.04ZM497.25,522.46c-2.8,4.08-4.04,8.96-5.12,13.77-.4,1.76-.44,4.72-4.6,5.12-3.68.36-7.4.12-11.13.04,1.44-2.12,2.88-4.24,4.24-6.44,3.2-5.16,5.84-10.69,7.44-16.53,1.6-.08,10.37-.64,13.17-.8-1.4,1.52-2.76,3.12-3.96,4.84h-.04ZM584.45,431.85c-1.44,8.96-4.24,17.57-8.4,25.65-3.8,7.4-8.12,14.49-11.17,22.25-4.56,11.81-3.6,24.65-6.4,36.94-2.12,9.4-8.32,22.29-11.29,24.29-2.52,1.68-14.77.76-17.09.64.44-5,1.12-9.96,1.68-15.01.52-4.64.52-9.56-1.92-13.73-5.44-9.28-16.25-7.8-25.45-7.44-16.41.64-87.76,5.36-92.73,5.68-3.76.28-7.4.72-10.09,3.64-2.84,3.04-3.6,7.68-4.96,11.45-1.48,4.16-3.36,8.4-6.2,11.81-3.08,3.72-7.48,3.92-12.01,3.64.2-12.01-.92-26.29-9.4-34.7-4.68-4.64-10.85-5.32-16.65-7.84-6.12-2.68-11.37-6.84-16.29-11.29-5.12-4.64-9.72-8.72-16.97-9.12-7.88-.44-14.61.04-21.97-3.52-4-1.96-6.76-5-10.53-7.2-5.52-3.2-10.93-2-16.93-1.64-4.72.28-5.16-4.48-5.64-8.44-.68-5.28.72-10.73,2.2-15.93,12.45,1.12,26.41,1.64,35.38-8.2,5.04-5.52,8.24-12.29,7.48-17.33-1.4-9.8-8.72-18.45-14.37-26.41-4.08-5.76-7.56-11.69-9.92-18.05,8.08,3.64,16.89,5.72,25.53,8.12,6.4,1.8,13.41,3.56,17.61,9.12,4.16,5.56,7,13.37,5.12,20.25-2.04,7.44,9.52,10.65,11.57,3.2,2.4-8.72.2-17.77-3.96-25.61-1.76-3.4-4-6.2-6.56-8.56,20.17-26.29,49.66-42.38,81.8-49.62,33.42-7.52,69.27-9.92,102.93-2.48,13.49,3,28.25,7.28,38.78,16.69,10.93,9.8,18.45,21.57,22.45,35.74,4.84,17.05,7.2,35.46,4.32,53.11l.04-.08Z" style="stroke-width: 0px;"/>
  </g>
</svg>