<?xml version="1.0" encoding="UTF-8"?>
<svg id="draw_copy" data-name="draw copy" xmlns="http://www.w3.org/2000/svg" viewBox="0 0 864 864">
  <g id="Layer_1_copy" data-name="Layer 1 copy">
    <path d="M684,144H180c-19.88,0-36,16.12-36,36v504c0,19.88,16.12,36,36,36h504c19.88,0,36-16.12,36-36V180c0-19.88-16.12-36-36-36ZM611.98,287.02l-3.18,11.78c-1.12,2.69-2.33,4.77-4.77,6.43l-42.53,21.49v93.22c0,22.95-6.86,44.11-18.78,61.76,2.36,3.02,4.67,6.64,6.66,11.15,5.81,13.26,2.82,28.12-6.35,38.09l-47.75,49.37c-.81,1.15-1.9,2.13-3.32,2.72-4,1.79-8.68-.06-10.41-4.07-.77-1.74-.87-3.62-.38-5.33l9.97-50.45c-12.51,4.87-26.16,7.56-40.4,7.56l-107.13-.1c28.69,19.5,28.62,57.67,28.54,58.35-.2,2.61-.49,4.58-1.26,6.99-1.05,3.08-3.1,6.48-7.59,5.04l-65.2-51.19c-29.9-21.41-55.42-56.8-42.79-93.22,8.63-24.8,33.38-35.25,57.54-39.48l135.78-27.21,59.12-106.39c7.3-12.56,26.24-21.68,38.94-20.78,12.76.94,21.9,4.4,30.91,12.16l29.33,6.21c3.02.2,5.31,2.89,5.07,5.92Z" style="stroke-width: 0px;"/>
  </g>
</svg>