<?xml version="1.0" encoding="UTF-8"?>
<svg id="icon" xmlns="http://www.w3.org/2000/svg" viewBox="0 0 864 864">
  <g id="white_copy" data-name="white copy">
    <path d="M684,144H180c-19.88,0-36,16.12-36,36v504c0,19.88,16.12,36,36,36h504c19.88,0,36-16.12,36-36V180c0-19.88-16.12-36-36-36ZM611.89,427.76v92.78h-28.81l.14,28.56c0,15.75-12.77,28.35-28.36,28.35s-28.41-12.59-28.41-28.35l.1-28.56h-189.09v28.56c0,15.75-12.74,28.35-28.31,28.35s-28.36-12.59-28.36-28.35v-28.56h-28.78v-92.89c0-20.28,13.65-37.32,32.23-42.35l33.2-79.03c4.83-11.56,16.23-19.7,29.53-19.7h169.98c13.31,0,24.8,8.14,29.57,19.7l33.18,79.03c18.63,5.03,32.31,22.07,32.31,42.35l-.11.11Z" style="stroke-width: 0px;"/>
    <path d="M310.81,412.1c-15.92,0-28.78,12.75-28.78,28.68s12.86,28.75,28.78,28.75,28.81-12.9,28.81-28.75-12.93-28.68-28.81-28.68Z" style="stroke-width: 0px;"/>
    <path d="M522.72,315.5c-1.11-3.42-4.47-5.89-8.42-5.89h-164.74c-3.82,0-7.15,2.47-8.4,5.89l-28.41,68.18h238.49l-28.52-68.18Z" style="stroke-width: 0px;"/>
    <path d="M551.21,412.1c-15.88,0-28.78,12.75-28.78,28.68s12.9,28.75,28.78,28.75,28.81-12.9,28.81-28.75-12.89-28.68-28.81-28.68Z" style="stroke-width: 0px;"/>
  </g>
</svg>