<?xml version="1.0" encoding="UTF-8"?>
<svg id="icon" xmlns="http://www.w3.org/2000/svg" viewBox="0 0 864 864">
  <g id="white_copy" data-name="white copy">
    <rect x="452.35" y="359.01" width="13.4" height="18.58" style="stroke-width: 0px;"/>
    <polygon points="323.07 365.93 296.79 365.93 278.83 409.83 323.15 409.83 323.1 365.93 323.07 365.93" style="stroke-width: 0px;"/>
    <polygon points="335.69 365.93 335.57 409.83 379.89 409.83 379.04 365.93 335.69 365.93" style="stroke-width: 0px;"/>
    <rect x="431.08" y="359.01" width="13.43" height="18.58" style="stroke-width: 0px;"/>
    <rect x="473.57" y="359.01" width="13.43" height="18.58" style="stroke-width: 0px;"/>
    <path d="M684,144H180c-19.88,0-36,16.12-36,36v504c0,19.88,16.12,36,36,36h504c19.88,0,36-16.12,36-36V180c0-19.88-16.12-36-36-36ZM407.34,377.59h15.93v-18.58h-15.93v-9.85h184.84v9.85h-12.38v18.58h12.38v9.85h-184.84v-9.85ZM299.96,347.8v-.23c.08-2.5,2.22-4.55,4.78-4.55s4.6,2.05,4.72,4.55v5.46h-9.5v-5.24ZM324.87,520.98c-16.84,0-30.48-13.66-30.48-30.53s13.63-30.48,30.48-30.48,30.48,13.63,30.48,30.48-13.63,30.53-30.48,30.53ZM469.51,518.68c-16.83,0-30.45-13.72-30.45-30.53s13.62-30.48,30.45-30.48,30.48,13.6,30.48,30.48-13.63,30.53-30.48,30.53ZM548.97,518.68c-16.82,0-30.48-13.72-30.48-30.53s13.66-30.48,30.48-30.48,30.48,13.6,30.48,30.48-13.63,30.53-30.48,30.53ZM612,487.57h-26.61v-.06c0-20.57-16.66-37.28-37.23-37.28s-37.21,16.71-37.21,37.28v.06h-4.47v-.06c0-20.57-16.66-37.28-37.23-37.28s-37.18,16.71-37.18,37.28v.06h-69.73c-.55-20.09-16.99-36.22-37.22-36.22s-36.56,16.13-37.09,36.22h-36.04v-13.15h11.07v-59.39l23.37-60.61h104.4c3.28,0,9.9,60.61,9.9,60.61h6.53v-13.35h.53v-9.96h181.98v12.29h-61.76v11.01h73.98v59.39h9.99v13.15Z" style="stroke-width: 0px;"/>
    <rect x="537.32" y="359.01" width="13.43" height="18.58" style="stroke-width: 0px;"/>
    <rect x="516.11" y="359.01" width="13.4" height="18.58" style="stroke-width: 0px;"/>
    <rect x="494.87" y="359.01" width="13.43" height="18.58" style="stroke-width: 0px;"/>
    <rect x="558.56" y="359.01" width="13.4" height="18.58" style="stroke-width: 0px;"/>
  </g>
</svg>