<?xml version="1.0" encoding="UTF-8"?>
<svg id="icon" xmlns="http://www.w3.org/2000/svg" viewBox="0 0 864 864">
  <g id="white_copy" data-name="white copy">
    <path d="M684,144H180c-19.88,0-36,16.12-36,36v504c0,19.88,16.12,36,36,36h504c19.88,0,36-16.12,36-36V180c0-19.88-16.12-36-36-36ZM278.91,319.34l213.99.08c2.72,0,5.14,1.25,6.8,3.11l25.21,36.31c.57.9,1.04,1.86,1.04,3.03,0,2.65-2.28,4.97-5.09,4.97l-43.4-.08c-14.99,0-27.09,12.11-27.09,27.07v43.99h-198.34v-90.84s-1.63-27.62,26.89-27.62ZM339.88,544.11c-17.86,0-32.42-14.48-32.42-32.41s14.56-32.35,32.42-32.35,32.37,14.42,32.37,32.35-14.49,32.41-32.37,32.41ZM542.86,544.66c-17.92,0-32.39-14.48-32.39-32.41s14.56-32.33,32.39-32.33,32.45,14.45,32.45,32.33-14.52,32.41-32.45,32.41ZM612,493.93c0,5.87-4.75,10.57-10.66,10.57h-9.38c-1.71-23.32-25.17-41.78-48.94-41.78s-47.35,18.46-49.06,41.78h-105.05c-1.58-23.43-25.13-42.07-49.01-42.07s-47.44,18.65-48.99,42.07h-28.31c-5.82,0-10.55-4.75-10.55-10.57v-40.24h214.25l-.08-55.78c0-8.47,6.85-15.33,15.39-15.33h52.25c2.72,0,5.17,1.22,6.8,3.19l32.96,47.57,16.51,5.58c6.77,2.42,11.7,9.01,11.7,16.68v19.02h10.17v19.31Z" style="stroke-width: 0px;"/>
    <path d="M531.52,398.78c-.95-1.14-2.36-1.86-3.89-1.86h-30.44c-4.91,0-8.94,3.98-8.94,9v28.71c0,5.02,4.03,9,8.99,9l55.93.08c2.78,0,5.01-2.18,5.01-4.94,0-1.14-.44-2.15-.98-2.95l-25.67-37.05Z" style="stroke-width: 0px;"/>
    <path d="M542.86,498.21c-7.81,0-14.04,6.32-14.04,14.05s6.26,14.08,14.04,14.08,14.04-6.3,14.04-14.08-6.31-14.05-14.04-14.05Z" style="stroke-width: 0px;"/>
    <path d="M297.68,403.62h83.92c3.15,0,5.79-2.63,5.79-5.82l.11-36.58c0-3.19-2.64-5.82-5.82-5.82h-83.91c-3.21,0-5.8,2.63-5.8,5.82l-.11,36.58c0,3.19,2.67,5.82,5.82,5.82Z" style="stroke-width: 0px;"/>
    <path d="M339.88,497.68c-7.75,0-14.09,6.29-14.09,14.02s6.31,14.08,14.09,14.08,14.04-6.3,14.04-14.08-6.28-14.02-14.04-14.02Z" style="stroke-width: 0px;"/>
    <path d="M459.28,355.25h42.46c1.43,0,2.58-1.27,2.58-2.68,0-.58-.11-1.06-.44-1.54l-13.24-19.04c-.47-.64-1.19-1.04-2.12-1.04h-29.23c-2.59,0-4.69,2.1-4.69,4.73v14.82c0,2.6,2.12,4.75,4.69,4.75Z" style="stroke-width: 0px;"/>
  </g>
</svg>