<?xml version="1.0" encoding="UTF-8"?>
<svg id="icon" xmlns="http://www.w3.org/2000/svg" viewBox="0 0 864 864">
  <g id="white_copy" data-name="white copy">
    <path d="M563.51,520.81c-14.25,0-25.87,11.62-25.87,25.87s11.62,25.92,25.87,25.92,25.87-11.65,25.87-25.92-11.59-25.87-25.87-25.87Z" style="stroke-width: 0px;"/>
    <path d="M318.52,572.57c13.75,0,25.03-10.83,25.79-24.36h-51.57c.79,13.53,12.05,24.36,25.79,24.36Z" style="stroke-width: 0px;"/>
    <path d="M488.66,415.83h-17.95c-4.22,0-7.63-3.42-7.63-7.65,0-2.21.97-4.2,2.51-5.57l-36.97.03c-2.69,0-6.22-1.12-7.45-3.49l-15.34-30.99c-1.12-2.25-3.88-3.2-6.1-2.08-2.29,1.12-3.21,3.86-2.09,6.13,0,0,16.43,33.17,16.62,33.34l-1.48,6.83,58.71,9.66c11.42,1.63,19.78,12.82,16.72,22.71,0,0-20.67,63.28-21.56,66.89-4.04,17.29-15.01,18.28-21.79,16.03-3.83-1.26-10.16-7.88-8.14-16.03l20.24-59.94-24.78-2.22c1.23.49,2.63,1.66,2.02,4.4-1.32,5.94-26.88,17.75-29.42,39.04-2.24,18.85,9.91,32.1,20.89,40.08h36.17c.27-.03,9.07-.34,14.97-9.27.06-.12.11-.2.23-.3,10.53-14.37,32.16-45.18,34.07-50.37q1.06-4.31,0-7.89c-.97-2.91-11.95-26.82-22.42-49.33Z" style="stroke-width: 0px;"/>
    <path d="M331.46,474.2c-2.52.28-4.31,2.52-4.01,5.01.29,2.55,2.55,4.34,5.04,4.05,6.58-.79,25.03-.79,31.24,8.21,9.91,14.33,3.58,32.16,3.53,32.34-.89,2.35.31,4.96,2.69,5.84.53.23,1.06.29,1.59.29,1.85,0,3.61-1.15,4.28-2.97.31-.93,8.07-22.41-4.62-40.71-10.53-15.23-38.58-12.21-39.75-12.06Z" style="stroke-width: 0px;"/>
    <path d="M684,144H180c-19.88,0-36,16.12-36,36v504c0,19.88,16.12,36,36,36h504c19.88,0,36-16.12,36-36V180c0-19.88-16.12-36-36-36ZM528.65,378.87v40.76c-13.64-.67-24.47-9.51-24.47-20.39s10.83-19.76,24.47-20.37ZM388.56,286.93c6.05-7.59,13.74-11.89,23.18-12.97,8.04-.95,15.4.73,22.06,4.98,6.66,4.22,11.47,9.91,14.39,17.05l-8.95,1.02c.3.69.7,3.41,1.26,8.25.7,6.19-.9,11.86-4.87,17.02-3.95,5.1-9.15,8.01-15.57,8.74-7.84.92-14.56-1.73-20.16-7.82-1.09-1.48-1.95-2.68-2.49-3.58l-13.8,1.58c-1.26-2.63-2.05-5.57-2.44-8.83-1.09-9.4,1.4-17.91,7.39-25.44ZM461.81,548.22h-99.72c-.82,23.32-20.01,42.08-43.57,42.08s-42.72-18.75-43.54-42.08h-15.34c-4.2,0-7.49-3.42-7.64-7.63-.03-1.63.59-3.04.59-3.04,0,0,23.15-45.8,51.4-62.17-3.9-5.55-9.07-13.64-9.18-17.58-.14-4.57,3.91-8.74,8.74-8.74h116.87c2.81-.06,5.07-.03,6.8-.03l-45.27-4.05c-7.63-1-13.97-8.09-15.99-13.67-1.3-3.52-1.59-7.98-.94-10.97l16.72-70.89c3.05-10.08,10.07-13.12,15.42-14.67,5.33-1.49,13.7-.62,19.24,2.41,2.46,1.38,4.2,3.37,5.37,5.74.44.7.87,1.48,1.17,2.32l13.11,36.09,37.94-.03c5.9,0,10.66,4.76,10.66,10.63,0,3.56-1.76,6.76-4.47,8.68h13.32c2.97,0,5.66,1.69,6.89,4.37,5.62,11.93,23.92,51.29,25.27,55.83,1.93,6.36,1.93,8.85.09,16.23-2.12,8.47-33.9,51.85-36.39,55.24-10.5,15.76-26.88,15.93-27.55,15.93ZM563.51,590.3c-24.05,0-43.59-19.54-43.59-43.61s19.54-43.62,43.59-43.62,43.62,19.6,43.62,43.62-19.57,43.61-43.62,43.61ZM609.8,511.19c-3,2.98-7.81,2.98-10.76,0-9.51-9.48-22.09-14.7-35.53-14.7-27.71,0-50.21,22.52-50.21,50.2,0,4.21-3.39,7.59-7.59,7.59s-7.59-3.38-7.59-7.59c0-36.06,29.34-65.4,65.4-65.4,17.48,0,33.91,6.75,46.29,19.12,2.94,3.02,2.94,7.81,0,10.77Z" style="stroke-width: 0px;"/>
  </g>
</svg>