<?xml version="1.0" encoding="UTF-8"?>
<svg id="icon" xmlns="http://www.w3.org/2000/svg" viewBox="0 0 864 864">
  <g id="white_copy" data-name="white copy">
    <path d="M368.61,482.69c-14.34,0-25.89,11.6-25.89,25.89s11.55,25.89,25.89,25.89,25.86-11.63,25.86-25.89-11.55-25.89-25.86-25.89ZM368.6,534.45c-14.31,0-25.86-11.61-25.86-25.89s11.55-25.86,25.86-25.86,25.86,11.58,25.86,25.86-11.55,25.89-25.86,25.89Z" style="stroke-width: 0px;"/>
    <path d="M524.36,482.69c-14.37,0-25.89,11.6-25.89,25.89s11.53,25.89,25.89,25.89,25.86-11.63,25.86-25.89-11.58-25.89-25.86-25.89ZM524.35,534.45c-14.34,0-25.86-11.61-25.86-25.89s11.53-25.86,25.86-25.86,25.86,11.58,25.86,25.86-11.58,25.89-25.86,25.89Z" style="stroke-width: 0px;"/>
    <path d="M684,144H180c-19.88,0-36,16.12-36,36v504c0,19.88,16.12,36,36,36h504c19.88,0,36-16.12,36-36V180c0-19.88-16.12-36-36-36ZM305.22,350.68c7.74-21.61,28.03-23.79,28.03-23.79,5.82-14.63,4.89-8.13,24.21-19.55,13.29-7.84,23.51-1.33,28.6,3.52-2.42-2.75-4.66-5.3-1.63-1.87,5.22,5.95,26.75,24.37,26.75,24.37,19.86-3.25,28.57,17.31,28.57,17.31,9.18,0,24.68,21.65,24.68,21.65h-191.15c11.11-21.12,31.94-21.65,31.94-21.65ZM252,383.46h220.68l25.76-26.12,65.18-4.34v5.79c-17.92,14.07-51.28,19.36-51.28,19.36l-58.57,76.91-183.86-33.36-17.9-38.24ZM288.29,508.54v-21.5h11.61l1-50.33,67.72,12.57c-59.07,3.39-60.04,59.26-60.04,59.26h-20.29ZM368.61,560.3c-28.57,0-51.68-23.1-51.68-51.65s23.1-51.67,51.68-51.67,51.65,23.17,51.65,51.67-23.13,51.65-51.65,51.65ZM524.36,560.3c-28.6,0-51.67-23.1-51.67-51.65s23.08-51.67,51.67-51.67,51.62,23.17,51.62,51.67-23.1,51.65-51.62,51.65ZM612,464.75h-6.29v15.5l-18.86,12.47c-15.47-47.07-62.54-46.33-62.54-46.33-57.62,2.9-59.89,62.28-59.89,62.28l-33.86-.13c1.93-44.76-36.07-56.36-36.07-56.36l62.18,11.15,56.62-74.04h68.25l15,44.5,15.47,8.69v22.28Z" style="stroke-width: 0px;"/>
    <path d="M368.6,482.7c-14.31,0-25.86,11.58-25.86,25.86s11.55,25.89,25.86,25.89,25.86-11.61,25.86-25.89-11.55-25.86-25.86-25.86ZM368.61,524.39c-8.77,0-15.87-7.12-15.87-15.86s7.11-15.84,15.87-15.84,15.83,7.1,15.83,15.84-7.08,15.86-15.83,15.86Z" style="stroke-width: 0px;"/>
    <path d="M524.35,482.7c-14.34,0-25.86,11.58-25.86,25.86s11.53,25.89,25.86,25.89,25.86-11.61,25.86-25.89-11.58-25.86-25.86-25.86ZM524.31,524.39c-8.76,0-15.82-7.12-15.82-15.86s7.06-15.84,15.82-15.84,15.86,7.1,15.86,15.84-7.08,15.86-15.86,15.86Z" style="stroke-width: 0px;"/>
  </g>
</svg>