<?xml version="1.0" encoding="UTF-8"?>
<svg id="icon" xmlns="http://www.w3.org/2000/svg" viewBox="0 0 864 864">
  <g id="white_copy" data-name="white copy">
    <polygon points="522.1 543.97 514.18 545.41 507.23 547.99 494.07 553.82 494.07 567.04 496.51 569.22 500.02 570.82 509.02 572.3 518.35 571.56 522.36 570.39 525.42 568.71 525.59 554.52 524.87 548.18 522.1 543.97" style="stroke-width: 0px;"/>
    <path d="M684,144H180c-19.88,0-36,16.12-36,36v504c0,19.88,16.12,36,36,36h504c19.88,0,36-16.12,36-36V180c0-19.88-16.12-36-36-36ZM535.53,523.5l-.36,13.95-.58,13.46-.9,12.78-.95,6.48-1.7,6.15-2.14,5.9-2.49,5.63-5.13,11.09-2.31,5.48-1.82,5.49-20.3.9-21.08.66-21.7.41-21.88.12-21.92-.09-21.62-.43-21.11-.63-20.32-.93-1.94-5.16-2.34-5.22-5.16-10.97-2.4-5.93-2.15-6.33-1.59-6.8-.99-7.47-.83-12.93-.65-13.67-.56-14.14-.31-14.57v-29.81l1.05-29.98.96-14.77,1.29-14.31,1.59-13.92,1.96-13.32,2.4-12.54,2.73-11.79,3.23-10.73,1.79-4.98,1.91-4.7,3.26-.81,3.66-.48,7.46-.78,3.36-.77,2.73-1.41,1.02-1.05.8-1.26.56-1.47.24-1.85,5.31-.12,6.27-.03,6.98.03,7.47.06,15.51.09h7.5l7.07-.03-4.52-9.92-2.61-4.64-3.05-4.19-3.63-3.6-4.39-2.79-2.49-1.11-2.76-.92-2.99-.61-3.29-.31-5.37-12.76-5.96-12.23-6.09-12.02-5.69-12.47-4.39-.21-4.08.49-7.56,2.18-3.5,1.09-3.45.63h-3.35l-3.35-.9,5.96-2.14,6.89-1.99,7.65-1.64,8.36-1.38,8.85-1.17,9.24-.77,9.5-.49,9.62-.12,9.65.06,9.5.43,9.21.68,8.82,1.07,8.3,1.38,7.68,1.67,6.89,2.03,5.9,2.4-.99,1.23-.95.9-1.08.36-1.1.09-2.43-.58-2.61-1.32-5.8-3.11-3.17-.89-3.36.03-2.91,2.58-2.7,2.87-4.83,6.31-4.11,7.01-3.87,7.29-3.81,7.34-4.07,7.1-4.58,6.54-2.58,2.98-2.82,2.78,3.96,6.72,4.22,6.51,4.67,6.09,5.28,5.43,6.8-.24,7.06.03,14.44.42,7.06.06,6.83-.24,6.42-.58,5.87-1.12,2.25,2.7,2.7,2.27,3.02,1.91,3.38,1.6,3.75,1.23,4.02.89,4.37.61,4.58.34,2.7,10.68,2.46,11.58,2.28,12.3,1.99,13.03,1.79,13.58,1.53,14.04,1.26,14.39,1.08,14.71,1.41,29.66.36,29.3-.15,14.36Z" style="stroke-width: 0px;"/>
    <polygon points="434.93 277.16 444.54 258.42 417.45 258.3 390.56 258.48 383.58 268.54 392.64 286.57 401.61 304.61 408.89 304.61 416.19 304.61 424.38 294.96 434.93 277.16" style="stroke-width: 0px;"/>
    <polygon points="371.83 560.8 371.26 558.9 369.5 555.34 367.02 552.23 363.97 549.62 360.53 547.52 356.84 545.99 353.03 545.11 349.34 544.88 345.87 545.44 344.27 546.02 342.8 546.76 341.48 547.75 340.27 548.95 339.27 550.36 338.46 551.97 337.84 553.86 337.51 555.99 337.45 558.36 337.63 560.97 338.13 563.88 338.92 567.04 340.13 568.27 341.66 569.36 343.53 570.24 345.62 570.98 350.33 572.03 355.43 572.3 360.56 572.03 365.26 570.98 367.34 570.24 369.19 569.36 370.76 568.27 371.93 567.04 372.17 564.87 372.14 562.8 371.83 560.8" style="stroke-width: 0px;"/>
    <path d="M365.39,526.55l1.77-1.65,2.25-.96,2.55-.27,2.64.42,2.61,1.23,1.35,3.36v3.06l-.14.31,11.96,1.56,26.56,1.67,26.63.06,26.59-1.45,26.3-3.02,6.71-1.08.42-1.31,2.31-2.55,3.1-1.56,3.38-.17,1.67.5,1.47,1.11,1.27,1.5.46-.15.3-1.57.65-3.03,2.21-12.63,1.6-13.16,1.63-27.19-.29-27.85-1.99-27.53-3.38-26.36-2.25-12.44-2.46-11.84-.68-2.76-.33-1.41-1.17-.37-5.75-.42-11.58-.63-23.84-.66-24.4-.17-49.45.47-24.52.03-12.08-.18-1.5-.03h-.93l-.15.06-.24.15-1.93,1.14-2.58,3.59-2.22,11.35-2.03,11.99-3.32,25.72-2.09,27.16-.53,27.41,1.35,26.89,1.41,12.88,2.03,12.29,1.23,5.94.71,2.85.28.61.8.12,1.62.41,12.65,2.21.17-1.34,1.17-2.28ZM374.43,368.73l1.38-4.01,14.57-1.73,15.72-1.03,33.46-.59,33.93.77,16.27.59,15.37.58,1.26,4.25.42,5.72-.42,5.69-1.26,4.26-15.37.78-16.07.54-33.22.44-33.25-.44-16.04-.58-15.37-.74-1.05-4.17-.58-5.16.26-5.16Z" style="stroke-width: 0px;"/>
    <polygon points="485.54 554.85 475.07 555.03 454.51 560.16 443.96 562.77 433.02 563.7 422.14 562.38 411.53 559.62 390.77 554.08 380.38 553.47 377.77 553.71 376.9 553.86 376.9 553.99 376.9 554.44 376.9 556.29 376.9 558.13 376.9 558.69 376.9 558.75 377.8 558.78 380.47 558.87 390.98 560.68 411.88 567.6 422.35 570.6 433.02 572 443.9 570.45 455.36 567.3 477.33 562.65 482.46 560.94 486.83 558.1 488.61 556.17 488.97 555.64 488.21 555.31 485.54 554.85" style="stroke-width: 0px;"/>
  </g>
</svg>