<?xml version="1.0" encoding="UTF-8"?>
<svg id="icon" xmlns="http://www.w3.org/2000/svg" viewBox="0 0 864 864">
  <g id="white_copy" data-name="white copy">
    <path d="M347.18,319.98c6.51,0,12.55-6.57,12.55-13.07s-6.04-13.1-12.55-13.1c-7.07,0-13.13,6.54-13.13,13.1s6.06,13.07,13.13,13.07Z" style="stroke-width: 0px;"/>
    <polygon points="499.2 404.55 364.77 404.55 339.57 460.96 524.34 460.96 499.2 404.55" style="stroke-width: 0px;"/>
    <path d="M526.86,483.1c-10.55,0-19.62,9.04-19.62,19.61s9.08,19.65,19.62,19.65,19.62-9.09,19.62-19.65-9.02-19.61-19.62-19.61Z" style="stroke-width: 0px;"/>
    <path d="M337.11,483.1c-11.12,0-19.62,9.04-19.62,19.61s8.5,19.65,19.62,19.65,19.12-9.09,19.12-19.65-8.54-19.61-19.12-19.61Z" style="stroke-width: 0px;"/>
    <path d="M684,144H180c-19.88,0-36,16.12-36,36v504c0,19.88,16.12,36,36,36h504c19.88,0,36-16.12,36-36V180c0-19.88-16.12-36-36-36ZM370.29,252c19.15,0,35.25,9.56,45.32,24.19h113.28l25.68,25.14-27.72,27.21-12.55-12.59-13.1,12.59-12.12-12.59-13.06,12.59-12.6-12.59-14.59,14.6h-29.19c-9.07,17.59-28.2,30.75-49.36,30.75-29.66,0-54.34-24.72-54.34-54.39s24.67-54.91,54.34-54.91ZM569.18,567.18h-22.7v27.69c0,10.04-9.53,17.14-19.62,17.14s-19.62-7.1-19.62-17.14v-27.69h-150.99v27.69c0,10.04-9.06,17.14-19.12,17.14s-19.62-7.1-19.62-17.14v-27.69h-22.67v-81.07c0-12.56,10.04-22.62,22.67-22.62l27.63-61.45c4.04-9.53,13.1-19.59,25.17-19.59h123.39c12.04,0,21.13,10.07,25.14,19.59l27.66,61.45c12.6,0,22.7,10.07,22.7,22.62v81.07Z" style="stroke-width: 0px;"/>
  </g>
</svg>