<?xml version="1.0" encoding="UTF-8"?>
<svg id="icon" xmlns="http://www.w3.org/2000/svg" viewBox="0 0 864 864">
  <g id="white_copy" data-name="white copy">
    <path d="M370.47,330.04c-.72-1.47-2.23-2.42-3.89-2.42h-43.22c-2.48,0-4.41,2.01-4.41,4.39v109.1c0,2.45,1.93,4.42,4.41,4.42h99.28c3.29,0,5.41-3.48,3.89-6.4l-56.05-109.1Z" style="stroke-width: 0px;"/>
    <path d="M458.29,514.44c-9.51,0-17.24,7.7-17.24,17.22s7.73,17.25,17.24,17.25,17.24-7.76,17.24-17.25-7.73-17.22-17.24-17.22Z" style="stroke-width: 0px;"/>
    <path d="M684,144H180c-19.88,0-36,16.12-36,36v504c0,19.88,16.12,36,36,36h504c19.88,0,36-16.12,36-36V180c0-19.88-16.12-36-36-36ZM508.36,305.74c0-4.36,3.52-7.87,7.87-7.87h79.43c4.35,0,7.89,3.51,7.89,7.87v63.35c0,4.34-3.54,7.9-7.89,7.9h-79.43c-4.35,0-7.87-3.54-7.87-7.9v-63.35ZM289.16,566.14c-19.02,0-34.49-15.42-34.49-34.51s15.47-34.48,34.49-34.48,34.49,15.46,34.49,34.48-15.44,34.51-34.49,34.51ZM458.29,566.14c-19.02,0-34.49-15.42-34.49-34.51s15.47-34.48,34.49-34.48,34.49,15.46,34.49,34.48-15.47,34.51-34.49,34.51ZM612,398.32c0,4.39-3.54,7.9-7.92,7.9h-107.33c0,46.07,0,95-.22,105.35-5.58-10.59-15.13-19.38-27.15-21.65-11.07-2.15-32.4-1.27-45.96,16.22-8.57,11.03-8.27,22.06-8.3,22.59h-82.75c-1.55-22.5-20.33-40.32-43.19-40.32-15.79,0-29.62,8.46-37.18,21.15v-77.36c0-12.15,9.81-21.94,21.96-21.94h17.55v-92.17c0-9.7,7.85-17.55,17.54-17.55h56.85c9.94,0,18.99,5.57,23.49,14.42l89.74,176.96v-164.19c0-5.34,4.35-9.65,9.66-9.65h.52c4.07,0,7.4,3.3,7.4,7.38.03,9.88.06,28.61.06,50.58,0,6.93,5.62,12.56,12.53,12.56h94.79c4.35,0,7.92,3.48,7.92,7.87v1.83Z" style="stroke-width: 0px;"/>
    <path d="M289.16,514.44c-9.51,0-17.24,7.7-17.24,17.22s7.73,17.25,17.24,17.25,17.24-7.76,17.24-17.25-7.73-17.22-17.24-17.22Z" style="stroke-width: 0px;"/>
  </g>
</svg>