<?xml version="1.0" encoding="UTF-8"?>
<svg id="icon" xmlns="http://www.w3.org/2000/svg" viewBox="0 0 864 864">
  <g id="white_copy" data-name="white copy">
    <path d="M376.35,476.13c-6.97,0-12.6,5.68-12.6,12.63s5.63,12.63,12.6,12.63,12.63-5.63,12.63-12.63-5.66-12.63-12.63-12.63Z" style="stroke-width: 0px;"/>
    <path d="M552.52,476.15c-6.97,0-12.6,5.68-12.6,12.63s5.63,12.63,12.6,12.63,12.6-5.63,12.6-12.63-5.66-12.63-12.6-12.63Z" style="stroke-width: 0px;"/>
    <polygon points="552.52 395.09 552.52 423.91 591.48 423.91 575.03 395.09 552.52 395.09" style="stroke-width: 0px;"/>
    <path d="M684,144H180c-19.88,0-36,16.12-36,36v504c0,19.88,16.12,36,36,36h504c19.88,0,36-16.12,36-36V180c0-19.88-16.12-36-36-36ZM252,449.13c0-10.11,3.78-19.28,10.02-26.28h-.03l65.71-71.06h48.66c6.95,0,12.63,5.66,12.63,12.6s-5.68,12.63-12.63,12.63h-40.01l-52.25,111.02c-18.29-3.54-32.1-19.57-32.1-38.91ZM376.35,512.2c-12.94,0-23.42-10.48-23.42-23.44s10.48-23.44,23.42-23.44,23.45,10.48,23.45,23.44-10.48,23.44-23.45,23.44ZM500.23,488.78h-93.72c0-16.92-13.73-30.62-30.64-30.62s-30.62,13.7-30.62,30.62h-50l47.48-100.94h33.14c12.97,0,23.45-10.48,23.45-23.44,0-4.61-1.37-8.93-3.71-12.63h104.62v137ZM552.52,512.22c-12.94,0-23.45-10.48-23.45-23.44s10.51-23.44,23.45-23.44,23.45,10.48,23.45,23.44-10.51,23.44-23.45,23.44ZM612,488.78h-28.84c0-16.92-13.73-30.62-30.64-30.62s-30.65,13.7-30.65,30.62h-10.82v-104.51h68.49l25.24,43.26v43.23h7.23v18.02Z" style="stroke-width: 0px;"/>
  </g>
</svg>