<?xml version="1.0" encoding="UTF-8"?>
<svg id="icon" xmlns="http://www.w3.org/2000/svg" viewBox="0 0 864 864">
  <g id="white_copy" data-name="white copy">
    <path d="M450.28,273.06c-5.02-4.75-11.11-7.09-18.27-7.09s-12.82,2.33-17.72,7.09c-4.9,4.81-7.38,10.8-7.38,17.93s2.48,13.12,7.38,17.89c4.9,4.81,10.82,7.17,17.72,7.17s13.25-2.36,18.27-7.17c5.04-4.77,7.58-10.72,7.58-17.89s-2.54-13.12-7.58-17.93Z" style="stroke-width: 0px;"/>
    <path d="M684,144H180c-19.88,0-36,16.12-36,36v504c0,19.88,16.12,36,36,36h504c19.88,0,36-16.12,36-36V180c0-19.88-16.12-36-36-36ZM455.09,598.48c0,2.62-1.56,5.53-4.61,8.78-3.02,3.11-5.9,4.74-8.53,4.74h-18.69c-2.93,0-6.06-1.72-9.35-5.19-3.35-3.4-4.99-6.72-4.99-9.94v-57.24c0-6.12,2.54-10.51,7.58-13.11,5.02-2.68,10.18-4,15.5-4,4.51,0,8.36.44,11.52,1.37,3.17.95,6.12,3.25,8.78,6.95.25.26.74,1.19,1.59,2.83.77,1.56,1.19,2.76,1.19,3.53v61.28ZM513.56,532.04c0,4-.9,7.7-2.57,11.17-1.76,3.41-3.95,6.59-6.6,9.49-2.62,2.93-5.61,5.5-8.95,7.58-3.29,2.13-6.69,3.71-10.1,4.84-2.94.48-6.11.74-9.58.74h-9.52v-28.66c0-.53-.42-1.94-1.22-4.14-.76-2.25-1.48-4.04-1.97-5.38-2.39-6.38-6.49-10.57-12.31-12.54-5.89-2-11.83-2.99-17.92-2.99-9.02,0-15.92,1.4-20.69,4.16-4.78,2.83-8.15,6.56-10.16,11.37-1.97,4.78-3.11,10.4-3.37,16.84-.27,6.56-.39,13.5-.39,20.94h-6.78c-8.47,0-16.02-1.88-22.66-5.53-6.63-3.73-11.79-9.83-15.5-18.34-.57-1.1-1.08-2.6-1.65-4.6-.5-1.97-.77-3.62-.77-4.96v-157.94c0-3.68.93-7.53,2.82-11.52,1.85-4.01,4.3-7.55,7.38-10.76,3-3.17,6.47-5.79,10.32-7.9,3.82-2.16,7.74-3.24,11.74-3.24h98.64c4,0,7.87,1.08,11.72,3.24,3.86,2.11,7.23,4.8,10.16,8.15,2.89,3.31,5.28,6.98,7.16,10.95,1.85,3.91,2.78,7.64,2.78,11.08v157.94ZM556.28,297.14c-1.46,2.28-3.34,3.41-5.73,3.41h-79.55l-1.22,1.19c-3.7,8.44-8.38,15.31-14.09,20.69-5.74,5.26-13.62,7.95-23.68,7.95s-17.98-2.68-23.68-7.95c-5.72-5.38-10.39-12.25-14.1-20.69-.27-.33-.54-.66-.8-1.19h-79.98c-2.11,0-3.97-1.14-5.58-3.41-1.58-2.26-2.36-4.29-2.36-6.15,0-2.11.87-4.2,2.56-6.18,1.73-2,3.8-2.97,6.18-2.97h79.17l.8-1.62c3.71-8.47,8.69-15.29,14.93-20.43,6.18-5.19,14.25-7.78,24.04-7.78s16.84,2.68,22.66,8.21c5.82,5.38,10.48,12.09,13.91,20l1.22,1.62h79.17c2.11,0,4,.98,5.76,2.97,1.71,1.98,2.56,4.07,2.56,6.18,0,1.87-.71,3.89-2.22,6.15Z" style="stroke-width: 0px;"/>
    <path d="M493.07,396.61c-2-1.52-4.45-2.17-7.35-2.17s-5.55.63-7.8,1.94c-2.2,1.34-3.37,3.47-3.37,6.35,0,3.2,1.17,5.59,3.37,7.18,2.25,1.63,4.72,2.39,7.41,2.39,2.9,0,5.41-.64,7.52-1.98,2.13-1.28,3.21-3.85,3.21-7.58,0-2.62-.99-4.72-2.99-6.12Z" style="stroke-width: 0px;"/>
    <path d="M385.83,396.38c-2.35-1.31-4.92-1.94-7.55-1.94-6.62,0-9.94,2.77-9.94,8.3,0,3.73,1.02,6.3,3.02,7.58,2,1.34,4.7,1.98,8.12,1.98,2.42,0,4.67-.76,6.75-2.39,2.16-1.59,3.16-3.98,3.16-7.18,0-2.88-1.14-5.01-3.56-6.35Z" style="stroke-width: 0px;"/>
  </g>
</svg>