<?xml version="1.0" encoding="UTF-8"?>
<svg id="icon" xmlns="http://www.w3.org/2000/svg" viewBox="0 0 864 864">
  <g id="white_copy" data-name="white copy">
    <path d="M684,144H180c-19.88,0-36,16.12-36,36v504c0,19.88,16.12,36,36,36h504c19.88,0,36-16.12,36-36V180c0-19.88-16.12-36-36-36ZM421.43,253.05c15.57,0,28.76,13.22,28.76,28.75s-13.19,28.79-28.76,28.79-28.75-12.72-28.75-28.79,13.19-28.75,28.75-28.75ZM526.16,557.27h-67.94v39.13c0,8.52-7.53,15.6-16.02,15.6-8.05,0-15.54-7.08-15.54-15.6v-139.12h-10.4v139.12c0,8.52-7.54,15.6-16.05,15.6-8.05,0-15.57-7.08-15.57-15.6v-238.63l-82.05-82.02c-5.2-5.25-5.2-14.68,0-19.85,5.2-5.2,14.62-5.2,19.83,0l62.72,62.75h75.44c14.16,0,31.65,14.18,31.65,31.55v83.52h13.17v23.57h20.77v100ZM565.31,541.23c0,8.49-7.08,16.04-15.57,16.04h-13.2v-100h13.2c8.49,0,15.57,7.58,15.57,16.07v67.89Z" style="stroke-width: 0px;"/>
    <rect x="476.65" y="444.58" width="17.9" height="12.72" style="stroke-width: 0px;"/>
    <rect x="458.22" y="357.74" width="7.58" height="99.53" style="stroke-width: 0px;"/>
  </g>
</svg>