<?xml version="1.0" encoding="UTF-8"?>
<svg id="icon" xmlns="http://www.w3.org/2000/svg" viewBox="0 0 864 864">
  <g id="white_copy" data-name="white copy">
    <path d="M446.5,318.61l-79.65-.12v108.26h79.65c29.85,0,54.07-24.25,54.07-54.02s-24.22-54.13-54.07-54.13Z" style="stroke-width: 0px;"/>
    <path d="M684,144H180c-19.88,0-36,16.12-36,36v504c0,19.88,16.12,36,36,36h504c19.88,0,36-16.12,36-36V180c0-19.88-16.12-36-36-36ZM445.4,496.16l-78.55-.08v115.92h-70.37V252h148.92c67.5,0,122.12,54.65,122.12,122.05s-54.58,122.11-122.12,122.11Z" style="stroke-width: 0px;"/>
  </g>
</svg>