<?xml version="1.0" encoding="UTF-8"?>
<svg id="icon" xmlns="http://www.w3.org/2000/svg" viewBox="0 0 864 864">
  <g id="white_copy" data-name="white copy">
    <path d="M684,144H180c-19.88,0-36,16.12-36,36v504c0,19.88,16.12,36,36,36h504c19.88,0,36-16.12,36-36V180c0-19.88-16.12-36-36-36ZM447.68,378.47c0-.5.43-.95.97-.95s.94.45.94.95v32.86c0,.5-.42.92-.94.92-.54,0-.97-.42-.97-.92v-32.86ZM436.73,384.26c0-.53.43-.95.95-.95.54,0,.98.42.98.95v28.29c0,.5-.43.89-.98.89s-.95-.39-.95-.89v-28.29ZM424.22,390.39c0-1,.82-1.84,1.85-1.84s1.88.84,1.88,1.84v22.17c0,1-.82,1.84-1.88,1.84s-1.85-.83-1.85-1.84v-22.17ZM406.35,421.96c0-3.14,3.26-5.68,7.24-5.68l44.4-3.73c4.05,0,7.27,2.5,7.27,5.62v19.66h-58.9v-15.87ZM264.98,446.63h11.15l3.59,10.89-14.74,5.51v-16.4ZM252.57,470.86c-.4-.39-.57-.83-.57-1.31s.19-.98.51-1.31c.77-.67,1.99-.67,2.67,0,.38.33.54.84.54,1.31s-.14.98-.54,1.25c-.31.39-.82.58-1.31.58-.52,0-.98-.19-1.31-.53ZM257.64,478.54c-.35.67-1.03,1.06-1.74,1.06-.25,0-.52-.05-.77-.14-.95-.42-1.38-1.53-.95-2.45,4-8.61.38-13.56.23-13.78-.63-.81-.45-1.92.37-2.53.84-.61,1.99-.47,2.63.33.22.28,5.15,6.82.22,17.51ZM280.67,486.48h-14.88v-11.94l18.5,4.73-3.62,7.21ZM612,472.22c.17,10.14-11.86,12.67-11.86,12.67,0,0-228.69.89-252.36.89s-85.16-13.56-85.16-13.56c0,0-5.98-3.45,1.74-6.46,7.73-2.98,41.62-13.98,49.84-14.67,8.17-.72,14.28,0,14.28,0,0,0-4.51,4.12,32.65,4.29l250.87.31s-.17,6.43,0,16.54ZM364,453.23c-37.12-.17-32.65-4.29-32.65-4.29,0,0,13.29-8.91,83.38-8.91h172.73s23.23,0,24.54,13.2h-248Z" style="stroke-width: 0px;"/>
  </g>
</svg>