<?xml version="1.0" encoding="UTF-8"?>
<svg id="icon" xmlns="http://www.w3.org/2000/svg" viewBox="0 0 864 864">
  <g id="white_copy" data-name="white copy">
    <path d="M684,144H180c-19.88,0-36,16.12-36,36v504c0,19.88,16.12,36,36,36h504c19.88,0,36-16.12,36-36V180c0-19.88-16.12-36-36-36ZM474.78,272.27l15.18,79.44h-42l-3.03-79.44h29.85ZM388.2,272.27h29.88l-3.02,79.44h-42.04l15.18-79.44ZM407.95,591.73h-80.47l33.4-176.21h52.64l-5.56,176.21ZM455.06,591.73l-5.58-176.21h52.64l33.43,176.21h-80.49ZM612,395.82h-29.38c-7.09,0-11.63,2.49-11.63,12.12v33.4h-23.79l-9.12-37.95c-2-6.64-6.1-7.58-12.67-7.58h-189.88c-6.07.46-9.57.93-11.13,7.58l-9.12,37.95h-23.79v-33.4c0-6.09-2.03-12.12-13.16-12.12h-26.33v-23.83h360v23.83Z" style="stroke-width: 0px;"/>
  </g>
</svg>