<?xml version="1.0" encoding="UTF-8"?>
<svg id="icon" xmlns="http://www.w3.org/2000/svg" viewBox="0 0 864 864">
  <g id="white_copy" data-name="white copy">
    <path d="M431.94,482.24c-19.35,0-35.01,15.75-35.01,35.08s15.7,35.06,35.01,35.06,35.1-15.72,35.1-35.06-15.69-35.08-35.1-35.08Z" style="stroke-width: 0px;"/>
    <path d="M431.94,288.81c-19.35,0-35.01,15.72-35.01,35.03s15.7,35.05,35.01,35.05,35.1-15.65,35.1-35.05-15.69-35.03-35.1-35.03Z" style="stroke-width: 0px;"/>
    <path d="M684,144H180c-19.88,0-36,16.12-36,36v504c0,19.88,16.12,36,36,36h504c19.88,0,36-16.12,36-36V180c0-19.88-16.12-36-36-36ZM502.42,501.78v39.63c0,26.38-21.42,47.8-47.76,47.8h-7.61v22.79h-30.15v-22.79h-7.58c-26.39,0-47.79-21.42-47.79-47.8v-39.63c-16.98-12.83-29.84-30.15-36.45-50.03h36.45v-19.28c-16.98-12.87-29.84-30.13-36.45-50.03h36.45v-19.28c-16.98-12.87-29.84-30.13-36.45-50.03h36.45v-13.37c0-26.38,21.42-47.77,47.79-47.77h45.34c26.37,0,47.76,21.39,47.76,47.77v13.37h36.45c-6.58,19.9-19.5,37.17-36.45,50.03v19.28h36.45c-6.58,19.9-19.5,37.2-36.45,50v19.31h36.48c-6.61,19.87-19.53,37.19-36.48,50.03Z" style="stroke-width: 0px;"/>
    <path d="M431.94,385.54c-19.31,0-35.01,15.72-35.01,35.08s15.7,35.03,35.01,35.03,35.1-15.69,35.1-35.03-15.69-35.08-35.1-35.08Z" style="stroke-width: 0px;"/>
  </g>
</svg>