<?xml version="1.0" encoding="UTF-8"?>
<svg id="icon" xmlns="http://www.w3.org/2000/svg" viewBox="0 0 864 864">
  <g id="white_copy" data-name="white copy">
    <path d="M684,144H180c-19.88,0-36,16.12-36,36v504c0,19.88,16.12,36,36,36h504c19.88,0,36-16.12,36-36V180c0-19.88-16.12-36-36-36ZM448.83,252c6.97,0,12.66,5.69,12.66,12.66s-5.7,12.69-12.66,12.69-12.66-5.68-12.66-12.69,5.65-12.66,12.66-12.66ZM415.17,252c6.99,0,12.66,5.69,12.66,12.66s-5.66,12.69-12.66,12.69-12.66-5.68-12.66-12.69,5.7-12.66,12.66-12.66ZM521.27,612l-37.68-55.24h-103.19l-37.68,55.24h-30.4l52.69-79.05c-17.57-2.79-35.04-21.13-35.04-43.45v-163.24c0-23.01,19.33-44.17,45.71-44.17h112.63c26.34,0,45.71,21.16,45.71,44.17v163.24c0,22.32-17.48,40.66-35.04,43.45l52.69,79.05h-30.4Z" style="stroke-width: 0px;"/>
  </g>
</svg>