<?xml version="1.0" encoding="UTF-8"?>
<svg id="icon" xmlns="http://www.w3.org/2000/svg" viewBox="0 0 864 864">
  <g id="white_copy" data-name="white copy">
    <path d="M684,144H180c-19.88,0-36,16.12-36,36v504c0,19.88,16.12,36,36,36h504c19.88,0,36-16.12,36-36V180c0-19.88-16.12-36-36-36ZM412.44,512.37l8.75-42.6h33.04l8.72,42.6h-50.51ZM447.51,430.96l5.15,25.21h-29.87l5.15-25.21h19.57ZM429.56,421.48l2.82-12.77h10.69l2.82,12.77h-16.32ZM612,367.29h-46.97c-31.3,0-31.3,31.91-31.3,31.91v46.34h-31.31v-46.34s0-31.91-31.3-31.91h-78.25c-31.3,0-31.3,31.91-31.3,31.91v46.34h-31.34v-46.34s0-31.91-31.27-31.91h-46.97v-15.66h360v15.66Z" style="stroke-width: 0px;"/>
  </g>
</svg>