<?xml version="1.0" encoding="UTF-8"?>
<svg id="icon" xmlns="http://www.w3.org/2000/svg" viewBox="0 0 864 864">
  <g id="white_copy" data-name="white copy">
    <path d="M533.17,476.31c-12.36,0-22.4,10.09-22.4,22.37s10.01,22.37,22.4,22.37,22.29-10.02,22.29-22.37-10.02-22.37-22.29-22.37Z" style="stroke-width: 0px;"/>
    <path d="M684,144H180c-19.88,0-36,16.12-36,36v504c0,19.88,16.12,36,36,36h504c19.88,0,36-16.12,36-36V180c0-19.88-16.12-36-36-36ZM578.95,566.49h-24.67v23.8c0,28.95-42.31,28.95-42.31,0v-23.8h-159.88v23.8c0,28.95-42.42,28.95-42.42,0v-23.8h-24.63v-151.5l14.27-109.97c3.99-19.79,16.63-27.69,35.69-35.62,19.02-7.93,63.66-17.39,97.03-17.39s77.82,9.46,96.93,17.39c19.1,7.93,31.77,15.83,35.72,35.62l14.27,109.97v151.5Z" style="stroke-width: 0px;"/>
    <path d="M365.51,300.97h132.97c13.08,0,13.08-24.77,0-24.77h-132.97c-13.05,0-13.05,24.77,0,24.77Z" style="stroke-width: 0px;"/>
    <path d="M330.83,476.31c-12.25,0-22.29,10.09-22.29,22.37s10.04,22.37,22.29,22.37,22.41-10.02,22.37-22.37c0-12.28-9.99-22.37-22.37-22.37Z" style="stroke-width: 0px;"/>
    <path d="M322.42,426.61h219.52c6.39,0,11.69-5.25,11.76-11.62,0-1.19-.25-2.13-.46-3.16l-11.69-86.74c-.97-5.4-5.78-9.58-11.45-9.58h-195.86c-5.71,0-10.43,4.21-11.48,9.58l-11.65,86.74c-.17,1.03-.41,1.97-.41,3.16,0,6.37,5.28,11.62,11.72,11.62Z" style="stroke-width: 0px;"/>
  </g>
</svg>