<?xml version="1.0" encoding="UTF-8"?>
<svg id="icon" xmlns="http://www.w3.org/2000/svg" viewBox="0 0 864 864">
  <g id="white_copy" data-name="white copy">
    <path d="M525.97,313.11c-.09-.53-.15-1.14-.24-1.69.03.51.15,1.1.24,1.69Z" style="stroke-width: 0px;"/>
    <path d="M356.38,494.78c-9.9,0-18.06,8.16-18.06,18.09s8.16,18.06,18.06,18.06,18.09-8.08,18.09-18.06-8.13-18.09-18.09-18.09Z" style="stroke-width: 0px;"/>
    <path d="M338.13,309.27c.09-.57.18-1.02.18-1.43-.03.41-.12.87-.18,1.43Z" style="stroke-width: 0px;"/>
    <path d="M518.96,512.87c0-9.93-8.13-18.09-18.06-18.09s-18.12,8.16-18.12,18.09,8.08,18.06,18.12,18.06,18.06-8.08,18.06-18.06Z" style="stroke-width: 0px;"/>
    <path d="M512.77,464.91c11.03-.55,4.82-28.44,0-83.14-.53-6.16-1.16-11.53-1.84-16.27-5.4-37.79-14.61-35.17-14.61-35.17-32.12-7.57-58.63-6.94-64.56-6.65-5.98-.29-32.48-.92-64.58,6.65,0,0-9.36.58-14.93,38.45-.55,3.93-1.05,8.17-1.56,12.99-5,50.68-10.97,82.59,0,83.14,10.16.47,71.68.03,81.06,0,9.33.03,70.9.47,81.02,0Z" style="stroke-width: 0px;"/>
    <path d="M526.32,315.43c0-.11,0-.29-.06-.47,0,.18.03.31.06.47Z" style="stroke-width: 0px;"/>
    <path d="M684,144H180c-19.88,0-36,16.12-36,36v504c0,19.88,16.12,36,36,36h504c19.88,0,36-16.12,36-36V180c0-19.88-16.12-36-36-36ZM446.8,252c6.5,0,11.78,5.25,11.78,11.78s-5.28,11.74-11.78,11.74-11.74-5.28-11.74-11.74,5.22-11.78,11.74-11.78ZM416.76,252c6.5,0,11.74,5.25,11.71,11.78.03,6.47-5.22,11.74-11.71,11.74s-11.77-5.28-11.77-11.74,5.28-11.78,11.77-11.78ZM519.86,611.82l-34.52-51.32-96.27,1.42-35.71,50.09-27.92-.15,36.65-53.68h-8.37s-52.92-.89-30.78-147.68c2.41-16.15,4.47-29.89,6.22-41.42.18-1.22.34-2.36.57-3.52,4.44-29.77,6.77-45.33,7.87-52.83-.29,1.6-.47,2.85-.47,2.85,0-.03,0-3.81,1.37-8.85.03-.09.03-.12.03-.12,2.73-10.24,11.03-25.73,36.15-25.73h114.16c25.09,0,33.4,15.45,36.15,25.73,0,.03,0,.12.03.29.02-.04.02-.07.02-.09,0-.02-.01-.05-.02-.07,0,0,.01.03.02.07,1.32,4.99,1.32,8.68,1.32,8.77,0,0,0-.03-.03-.12,1.16,8.05,3.34,22.74,7.15,48.03,1.88,12.78,4.24,28.27,7.06,47.02,19.11,126.94-17.88,144.74-28.17,147.3l34.1,54.03h-26.61Z" style="stroke-width: 0px;"/>
    <path d="M526.27,314.96c-.06-.37-.12-.97-.29-1.72.08.56.17,1.16.29,1.72Z" style="stroke-width: 0px;"/>
  </g>
</svg>