<?xml version="1.0" encoding="UTF-8"?>
<svg id="icon" xmlns="http://www.w3.org/2000/svg" viewBox="0 0 864 864">
  <g id="white_copy" data-name="white copy">
    <path d="M282.24,386.57c2.79-2.43,6.18-3.54,10.12-3.54h16.63c-4.8-6.76-11.31-10.07-19.61-10.07-6.73,0-12.47,2.21-17.27,6.73-4.7,4.61-7.07,10.17-7.07,17s2.34,12.32,7.07,16.87c4.8,4.49,10.55,6.83,17.27,6.83,5.07,0,9.9-1.58,14.32-4.77l-11.92-4.76c-3.2-1.14-6.3-2.7-9.2-4.63-2.94-2.06-4.41-5.16-4.41-9.53s1.35-7.77,4.08-10.12Z" style="stroke-width: 0px;"/>
    <rect x="476.58" y="491.01" width="42.85" height="24.34" style="stroke-width: 0px;"/>
    <rect x="503.05" y="397.89" width="26.7" height="40.94" style="stroke-width: 0px;"/>
    <path d="M571.31,430.53c-1.16-2.78-2.18-5.36-2.94-7.76-3.2-7.16-6.68-12.38-10.46-15.76-3.71-3.32-8.19-5.84-13.27-7.38v39.77h30.24c-1.23-3.18-2.4-6.2-3.57-8.87Z" style="stroke-width: 0px;"/>
    <path d="M684,144H180c-19.88,0-36,16.12-36,36v504c0,19.88,16.12,36,36,36h504c19.88,0,36-16.12,36-36V180c0-19.88-16.12-36-36-36ZM610.31,503.15l-21.09,21.29c-.92,1.29-2.38,2.28-4.14,2.28h-176.46c-3.17,0-5.72-2.52-5.72-5.72s2.55-5.66,5.72-5.66h58.56v-24.37h-35.9c-8.33,0-13.84-1.44-16.42-4.4-2.55-3.03-4.64-6.05-6.25-9.28l-10.63-26.62-80.74-30.3c-6.74,8.75-16.01,13.06-27.88,13.06-10.3,0-19.03-3.47-26.4-10.67-7.39-7.16-10.97-15.85-10.97-26.08s3.59-19.15,10.97-26.47c7.37-7.31,16.1-10.97,26.4-10.97,7.92,0,14.93,2.28,21.12,6.8,6.09,4.52,10.58,10.23,13.37,16.99h123.99v-32.12h-20.81c-1.17,2.4-2.61,3.9-4.4,4.46-1.82.58-3.08.9-3.84.9h-98.54c-1.12,0-2.85-.74-5.13-2.37-2.12-1.5-3.2-3.96-3.2-7.07s1.08-5.4,3.2-6.89c2.28-1.41,4.12-2.03,5.69-2.03h97.99c2.78,0,4.67.58,5.63,1.76.99,1.2,1.87,2.18,2.61,3.02h55.2c.84-1.64,1.94-2.9,3.32-3.95,1.45-.94,4.25-1.47,8.62-1.47h93.26c3.5,0,6.05.98,7.68,2.99,1.56,1.96,2.3,3.93,2.3,5.96-.36,2.4-1.35,4.49-2.91,6.24-1.6,1.76-3.95,2.64-7.07,2.64h-96.86c-1.2,0-2.58-.29-4.08-.89-1.61-.56-3.05-1.82-4.25-3.89h-20.13v32.7h68.84c9.91,0,19.3,2.37,28.15,7.44,8.98,4.89,16.21,13.69,21.67,26.28l17.22,41.03c1.96,5.57,3.05,10.05,3.05,13.61,0,5.24-1.23,9.14-3.63,11.9-2.76,3.63-6.21,5.75-10.35,6.57-4.08.74-8.42,1.14-12.72,1.14h-45.49v24.34h53.55l19.88-20.27c2.27-2.1,5.84-2.1,8.05,0,2.25,2.26,2.25,5.9,0,8.07Z" style="stroke-width: 0px;"/>
    <rect x="462.11" y="398.47" width="26.13" height="40.92" style="stroke-width: 0px;"/>
  </g>
</svg>