<?xml version="1.0" encoding="UTF-8"?>
<svg id="icon" xmlns="http://www.w3.org/2000/svg" viewBox="0 0 864 864">
  <g id="white_copy" data-name="white copy">
    <rect x="263.24" y="450.99" width="30.58" height="21.9" style="stroke-width: 0px;"/>
    <polygon points="462.82 294.67 446.92 280.03 381.15 351.62 397.07 366.27 462.82 294.67" style="stroke-width: 0px;"/>
    <path d="M684,144H180c-19.88,0-36,16.12-36,36v504c0,19.88,16.12,36,36,36h504c19.88,0,36-16.12,36-36V180c0-19.88-16.12-36-36-36ZM491.59,470.84l-.48,1.05h-.03l-3.59,7.17h.03l-.51,1.05-.03-.03-7.6,15.17v11.91l-19,5.63c-.57.14-1.21.33-1.84.33s-1.27-.17-1.89-.33l-16.02-5.63-16.01,5.63c-.57.11-1.24.33-1.86.33s-1.24-.17-1.91-.33l-19.02-5.63v-11.91l-8.25-16.49-.11-.25-3.27-6.62h-.03l-.51-1.05,12.16-5.82v-35.41c0-3.28,2.69-5.98,5.96-5.98h11.95c0-3.31,2.67-19.03,5.96-19.03h29.83c3.32,0,5.98,15.72,5.98,19.03h11.94c3.31,0,5.93,2.7,5.93,5.98v35.38l12.2,5.85ZM446.57,272.03l20.09,18.45,4.65-5.1,7.68,7.03-152.85,166.43-7.65-7,74.78-81.44-15.93-14.54-65.34,71.12,15.9,14.56-3.82,4.17-20.08-18.4,142.58-155.29ZM546.9,591.97l-34.36-12.91-21.61,7.12-8.41,3.06c-1.02.28-2.26.66-3.39.66s-2.18-.25-3.39-.66l-34.42-10.18-32.96,10.18c-1.1.28-2.26.66-3.39.66s-2.26-.38-3.39-.66l-29.02-10.18-29.02,10.18c-.99.28-2.23.66-3.37.66s-2.23-.25-3.39-.66l-19.79-5.65.25-21.9,22.93,6.59,29.03-10.15c1.02-.33,2.23-.66,3.36-.66s2.26.3,3.39.66l29.03,10.15,14.71-4.03,18.24-6.12c.76-.33,2.23-.66,3.39-.66s1.97.14,3.36.66l34.44,10.15,11.8-4.03,18.21-6.12c.76-.33,2.23-.66,3.39-.66s1.97.14,3.37.66l31,10.76v23.08ZM612,547.32h-65.08l-34.38-10.87-21.61,7.14-8.41,3.06c-1.02.3-2.26.66-3.39.66s-2.16-.28-3.38-.66l-34.43-10.21-32.98,10.21c-1.08.3-2.23.66-3.36.66s-2.26-.36-3.38-.66l-29.04-10.21-29.02,10.21c-.99.3-2.26.66-3.37.66s-2.23-.28-3.39-.66l-19.65-5.82v6.48h-65.12v-74.41h5.6v-27.55h41.9v27.55h17.62v46l23.04,6.78,29.03-10.15c1.02-.3,2.23-.66,3.36-.66s2.26.3,3.39.66l29.03,10.15,14.71-4.06,18.24-6.09c.77-.3,2.21-.66,3.39-.66s1.97.14,3.36.66l34.44,10.15,11.8-4.06,18.21-6.09c.77-.3,2.23-.66,3.39-.66s1.97.14,3.37.66l31.01,9.18v-51.82h7.85v-27.55h49.42v27.55h7.82v74.41Z" style="stroke-width: 0px;"/>
    <rect x="560.4" y="450.99" width="38.15" height="21.9" style="stroke-width: 0px;"/>
  </g>
</svg>