<?xml version="1.0" encoding="UTF-8"?>
<svg id="icon" xmlns="http://www.w3.org/2000/svg" viewBox="0 0 864 864">
  <g id="white_copy" data-name="white copy">
    <polygon points="432.03 505.02 363.3 505.02 364.18 511.86 379.32 517.21 432.03 517.21 484.69 517.21 499.8 511.86 500.74 505.02 432.03 505.02" style="stroke-width: 0px;"/>
    <path d="M538.82,577.1c-3.21,0-5.75,2.54-5.75,5.72s2.54,5.75,5.75,5.75,5.68-2.58,5.68-5.75-2.58-5.72-5.68-5.72Z" style="stroke-width: 0px;"/>
    <path d="M684,144H180c-19.88,0-36,16.12-36,36v504c0,19.88,16.12,36,36,36h504c19.88,0,36-16.12,36-36V180c0-19.88-16.12-36-36-36ZM304.53,417.12c0,2.45-2.02,4.45-4.47,4.45h-11.14c-2.49,0-4.54-2-4.54-4.45v-65.66c0-2.52,2.05-4.5,4.54-4.5h11.14c2.45,0,4.47,1.99,4.47,4.5v65.66ZM553.8,522.05c0,2.71-1.23,5.15-3.18,6.78v62.57c0,4.03-2.65,7.38-6.28,8.54v3.13c0,4.96-4,8.93-8.96,8.93h-13.85c-3.05,0-5.76-1.52-7.41-3.84-1.55,2.32-4.23,3.84-7.35,3.84h-13.88c-4.92,0-8.93-3.97-8.93-8.93v-2.74h-103.92v2.74c0,4.96-3.95,8.93-8.93,8.93h-13.88c-3.04,0-5.75-1.52-7.36-3.84-1.6,2.32-4.31,3.84-7.38,3.84h-13.85c-4.96,0-8.93-3.97-8.93-8.93v-3.13c-3.68-1.16-6.31-4.51-6.31-8.54v-62.57c-1.92-1.66-3.15-4.07-3.15-6.78v-41.23c0-2.71,1.23-5.1,3.15-6.78v-37.36c0-4.51,3.33-8.2,7.7-8.77-.1-.95-.16-1.89-.16-2.81v-144.29c0-8.99,3.99-16.22,8.96-16.22,0,0,54.74-12.59,102.42-12.59s101.83,12.59,101.83,12.59c4.93,0,8.93,7.23,8.93,16.22v144.29c0,.92-.07,1.85-.16,2.81,4.32.57,7.7,4.26,7.7,8.77v37.39c1.95,1.65,3.18,4.04,3.18,6.75v41.23ZM579.62,417.12c0,2.45-2.02,4.45-4.47,4.45h-11.17c-2.45,0-4.47-2-4.47-4.45v-65.66c0-2.52,2.02-4.5,4.47-4.5h11.17c2.45,0,4.47,1.99,4.47,4.5v65.66Z" style="stroke-width: 0px;"/>
    <path d="M535.54,546.38l-26.65,6.28c-4.99,1.55-8.91,4-8.91,8.96v3.79c0,4.94,3.99,8.94,8.91,8.94l26.65-3.18c4.96,0,8.96-3.97,8.96-8.93v-6.94c0-4.96-4-8.93-8.96-8.93Z" style="stroke-width: 0px;"/>
    <path d="M332.32,427.76h199.4l2.25-3.41,4.07-84.07s-66.43-4.2-106-4.2-106.06,4.2-106.06,4.2l4.1,84.07,2.24,3.41Z" style="stroke-width: 0px;"/>
    <polygon points="506.23 469.5 432.03 469.5 357.77 469.5 358.81 476.38 375.13 481.77 432.03 481.77 488.89 481.77 505.23 476.38 506.23 469.5" style="stroke-width: 0px;"/>
    <path d="M325.41,577.1c-3.18,0-5.72,2.54-5.72,5.72s2.58,5.75,5.72,5.75,5.71-2.58,5.71-5.75-2.53-5.72-5.71-5.72Z" style="stroke-width: 0px;"/>
    <polygon points="361.34 487.26 362.31 494.17 377.87 499.46 432.03 499.46 486.15 499.46 501.73 494.17 502.68 487.26 432.03 487.26 361.34 487.26" style="stroke-width: 0px;"/>
    <path d="M355.29,552.66l-26.64-6.28c-4.96,0-8.93,3.97-8.93,8.93v6.94c0,4.96,3.97,8.93,8.93,8.93l26.64,3.18c4.94,0,8.93-4,8.93-8.94v-3.79c0-4.96-3.95-7.41-8.93-8.96Z" style="stroke-width: 0px;"/>
    <polygon points="366.33 522.69 367.2 529.6 381.68 534.93 432.03 534.93 482.35 534.93 496.83 529.6 497.69 522.69 432.03 522.69 366.33 522.69" style="stroke-width: 0px;"/>
    <polygon points="372.26 558.18 373.08 565.09 386.23 570.41 432.03 570.41 477.79 570.41 490.94 565.09 491.75 558.18 432.03 558.18 372.26 558.18" style="stroke-width: 0px;"/>
    <polygon points="367.73 540.45 368.59 547.36 382.73 552.69 432.03 552.69 481.29 552.69 495.44 547.36 496.3 540.45 432.03 540.45 367.73 540.45" style="stroke-width: 0px;"/>
  </g>
</svg>