<?xml version="1.0" encoding="UTF-8"?>
<svg id="icon" xmlns="http://www.w3.org/2000/svg" viewBox="0 0 864 864">
  <g id="white_copy" data-name="white copy">
    <path d="M443.33,520.68h65.43c-.39-24.96-4.69-50.19-13.72-70.47h-51.71v70.47Z" style="stroke-width: 0px;"/>
    <path d="M355.2,520.68h65.43v-70.47h-51.7c-9.06,20.27-13.67,45.45-13.73,70.47Z" style="stroke-width: 0px;"/>
    <path d="M684,144H180c-19.88,0-36,16.12-36,36v504c0,19.88,16.12,36,36,36h504c19.88,0,36-16.12,36-36V180c0-19.88-16.12-36-36-36ZM480.95,364.05c-2.46,22.08-10.57,46.37-25.86,67.74h46.26c3.49-.03,6.6,1.93,8.19,5.1,24.75,49.46,24.75,120.53,0,169.99-1.53,3.25-4.6,5.1-8.19,5.12h-138.67c-3.63-.03-6.73-1.84-8.26-5.12-24.72-49.46-24.72-120.53,0-169.99,1.29-2.61,4.98-5.07,8.82-5.1h61.32c20.54-20.89,31.1-46.82,33.68-70.09,2.13-19.13-2.39-34.22-7.83-43.83l-36.42,17.96-3.14-6.27-92.45,46.23-3.9-8.2,92.42-46.26-3.14-6.22,46.21-23.16c.87-.48,1.78-.92,2.77-1.15,3.56-.76,7.48.27,10.17,2.76l82.66-41.55,3.93,8.26-80.72,40.32c11.46,15.88,14.92,38.59,12.16,63.47Z" style="stroke-width: 0px;"/>
  </g>
</svg>