<?xml version="1.0" encoding="UTF-8"?>
<svg id="icon" xmlns="http://www.w3.org/2000/svg" viewBox="0 0 864 864">
  <g id="white_copy" data-name="white copy">
    <rect x="301.17" y="420.62" width="20.16" height="18.53" style="stroke-width: 0px;"/>
    <path d="M684,144H180c-19.88,0-36,16.12-36,36v504c0,19.88,16.12,36,36,36h504c19.88,0,36-16.12,36-36V180c0-19.88-16.12-36-36-36ZM477.54,323.87h45.92v29.79h-45.92v-29.79ZM477.54,360.29h97.96v29.79h-97.96v-29.79ZM477.54,396.7h127.56v53.1h-127.56v-53.1ZM425.02,349.79h45.92v53.1h-45.92v-53.1ZM470.91,409.5v53.1h-127.54v-53.1h127.54ZM370.42,336.68h45.91v29.81h-45.91v-29.81ZM370.42,373.11h45.91v29.78h-45.91v-29.78ZM252,369.68h43.36v-17.97h-16.04v-7.25h16.04v-36.76h6.2v36.76h16.02v7.22h-16.02v18h46.35l-15.38,12.38v80.54h-61.95v-80.54h-18.58v-12.38ZM560.56,555.2c-19.85-15.68-36.97-12.69-48.59-6.52-10.37,5.48-22.74,5.54-33.14.11-15.68-8.18-29.14-5.25-38.8-.14-10.35,5.51-22.77,5.54-33.17.14-15.65-8.18-29.11-5.25-38.8-.14-10.34,5.51-22.77,5.51-33.14.11-22.94-11.98-41.15-.11-49.62,7.55-.16-1.16-27.16-67.43-27.16-67.43v-20.07h219.35v-.15l.06-12.25h134.44l-51.44,98.79Z" style="stroke-width: 0px;"/>
    <rect x="301.17" y="390.97" width="20.16" height="18.53" style="stroke-width: 0px;"/>
  </g>
</svg>