<?xml version="1.0" encoding="UTF-8"?>
<svg id="icon" xmlns="http://www.w3.org/2000/svg" viewBox="0 0 864 864">
  <g id="white_copy" data-name="white copy">
    <path d="M521.31,386.91c-.63-7.81-7.22-13.88-15.19-13.88h-148.21c-8.01,0-14.55,6.07-15.21,13.88l-3.54,53.87h185.75l-3.59-53.87Z" style="stroke-width: 0px;"/>
    <path d="M684,144H180c-19.88,0-36,16.12-36,36v504c0,19.88,16.12,36,36,36h504c19.88,0,36-16.12,36-36V180c0-19.88-16.12-36-36-36ZM288.17,278.29c0-14.47,11.76-26.29,26.25-26.29h235.07c14.6,0,26.36,11.82,26.36,26.29v170.28l-24.26-14.98-3.16-49.65c-2.17-21.44-20.34-38.21-42.34-38.21h-148.17c-22.07,0-40.08,16.77-42.29,38.21l-3.2,49.65-24.39,14.98.11-170.28ZM575.85,557.47h-16.48l.12,30.63c0,13.29-10.74,23.9-23.99,23.9s-23.83-10.58-23.83-23.9v-30.63h-159.39l.07,30.63c0,13.29-10.74,23.9-23.97,23.9s-23.79-10.58-23.79-23.9v-30.63h-16.45l-.11-93.77,36.97-22.36,3.66-55.5c1.19-15.07,13.83-26.95,29.24-26.95h148.21c15.34,0,27.94,11.89,29.2,26.95l3.75,55.5,36.89,22.36-.11,93.77Z" style="stroke-width: 0px;"/>
    <path d="M516.09,496.05c0,11.04,9.01,19.93,20.08,19.93s19.97-8.89,19.97-19.93-8.93-20.04-19.97-20.04-20.08,9.01-20.08,20.04Z" style="stroke-width: 0px;"/>
    <path d="M488.58,466.44h-113.52c-4.9,0-8.98,4.09-8.98,9.16v50.46h131.62v-50.46c0-5.06-4.07-9.16-9.12-9.16Z" style="stroke-width: 0px;"/>
    <path d="M327.87,476.01c-11.06,0-20.04,9.01-20.04,20.04s8.98,19.93,20.04,19.93,19.97-8.89,19.97-19.93-8.96-20.04-19.97-20.04Z" style="stroke-width: 0px;"/>
  </g>
</svg>