<?xml version="1.0" encoding="UTF-8"?>
<svg id="icon" xmlns="http://www.w3.org/2000/svg" viewBox="0 0 864 864">
  <g id="white_copy" data-name="white copy">
    <path d="M684,144H180c-19.88,0-36,16.12-36,36v504c0,19.88,16.12,36,36,36h504c19.88,0,36-16.12,36-36V180c0-19.88-16.12-36-36-36ZM400.36,252.51l192.49,277.86h-192.49V252.51ZM368.33,253.18v277.2h-88.69l88.69-277.2ZM569.12,611.49c-1.44,0-258.1-.74-268.14-.74-.29,0-2.58-1.64-6.97-4.81-8.63-5.35-17.15-12.87-25.74-22.5-10.59-11.29-16.02-20.29-16.27-27.19l360,1.44c-13.24,16.97-29.64,37.33-42.88,53.8Z" style="stroke-width: 0px;"/>
  </g>
</svg>