<?xml version="1.0" encoding="UTF-8"?>
<svg id="icon" xmlns="http://www.w3.org/2000/svg" viewBox="0 0 864 864">
  <g id="white_copy" data-name="white copy">
    <path d="M684,144H180c-19.88,0-36,16.12-36,36v504c0,19.88,16.12,36,36,36h504c19.88,0,36-16.12,36-36V180c0-19.88-16.12-36-36-36ZM526.45,612c-20.56,0-38.49-16.85-38.49-36.06v-143.32c0-6.54-5.31-11.82-11.85-11.82h-28.51l-.16,190.18-150.91-2.48v-325.71c0-17.01,13.86-30.81,30.9-30.81h89.06c17.04,0,30.95,13.8,30.95,30.81v3.71c0,19.96-.14,113.96-2.23,114.05h30.52c17.54,0,31.7,14.21,31.7,31.62l-.19,143.69c0,9.49,10.29,16.88,19.21,16.88,9.57,0,21.74-7.98,21.19-21.25l-15.2-82.02-3.41-27.76,2.48-81.04-6.79-.06c-15.11,0-27.36-12.23-27.36-27.26l.71-42.41s-25.07-24.96-25.07-28.48c0,0,9.65-9.59,13.15-9.59l50.64,50.33c7.92,7.98,11.74,17.48,11.74,29.17v109.33s3.16,23.61,3.16,23.8c0,0,15.45,85.6,15.78,90.41,0,20.65-21.67,36.06-41.02,36.06Z" style="stroke-width: 0px;"/>
  </g>
</svg>