<?xml version="1.0" encoding="UTF-8"?>
<svg id="icon" xmlns="http://www.w3.org/2000/svg" viewBox="0 0 864 864">
  <path d="M488.16,633.54c7.92.78,14.98-4.98,15.78-12.9l21.72-217.44h-.4l7.49-70.56c.78-7.92-4.98-14.98-12.9-15.78-7.92-.78-14.98,4.98-15.78,12.9l-10.8,102.27c-.14,1.44-.09,2.85.17,4.2l-18.17,181.53c-.78,7.92,4.98,14.98,12.9,15.78Z" style="fill: #1b1919; stroke-width: 0px;"/>
  <path d="M360.06,620.64c.81,7.92,7.86,13.68,15.78,12.9,7.92-.81,13.68-7.86,12.9-15.78l-28.8-288c-.81-7.92-7.86-13.68-15.78-12.9-7.92.81-13.68,7.86-12.9,15.78l28.8,288Z" style="fill: #1b1919; stroke-width: 0px;"/>
  <path d="M705.6,230.4h-159.41c-7-48.84-49.02-86.4-99.79-86.4h-28.8c-50.77,0-92.79,37.56-99.79,86.4h-159.41c-7.95,0-14.4,6.45-14.4,14.4s6.45,14.4,14.4,14.4h44.9l49.71,397.73c4.49,36.03,35.14,63.07,71.45,63.07h215.08c36.32,0,66.96-27.04,71.45-63.07l49.71-397.73h44.9c7.95,0,14.4-6.45,14.4-14.4s-6.45-14.4-14.4-14.4ZM417.6,172.8h28.8c34.82,0,63.88,24.74,70.56,57.6h-169.92c6.68-32.86,35.74-57.6,70.56-57.6ZM582.42,653.36c-2.71,21.63-21.08,37.84-42.88,37.84h-215.08c-21.8,0-40.18-16.21-42.88-37.84l-49.28-394.16h399.4c-16.99,131.41-32.86,262.68-49.28,394.16Z" style="fill: #1b1919; stroke-width: 0px;"/>
</svg>