<?xml version="1.0" encoding="UTF-8"?>
<svg id="icon" xmlns="http://www.w3.org/2000/svg" viewBox="0 0 864 864">
  <g id="other_copy" data-name="other copy">
    <path d="M432,720c159.06,0,288-128.94,288-288s-128.94-288-288-288S144,272.94,144,432s128.94,288,288,288ZM414,432c0-.59.03-1.19.09-1.78.03-.27.08-.53.11-.79.05-.32.08-.64.15-.95.06-.3.14-.59.22-.89.07-.27.13-.55.21-.82.09-.29.2-.57.3-.85.1-.27.19-.55.3-.81.11-.26.24-.51.36-.77.13-.28.25-.56.4-.83.13-.24.28-.48.42-.71.16-.27.31-.54.48-.8.17-.26.37-.5.55-.75.17-.22.32-.45.5-.66.36-.43.73-.85,1.13-1.25.02-.02.04-.05.06-.07s.05-.04.07-.06c.4-.39.81-.77,1.25-1.13.22-.18.44-.33.67-.5.25-.19.49-.38.75-.55.26-.17.53-.33.8-.49.24-.14.47-.29.71-.42.27-.15.55-.27.83-.4.26-.12.51-.25.77-.36.27-.11.54-.2.81-.3.28-.1.56-.21.85-.3.27-.08.55-.14.82-.21.29-.07.59-.16.89-.22.32-.06.64-.1.96-.15.26-.04.52-.09.79-.11.59-.06,1.18-.09,1.78-.09s1.19.03,1.78.09c.27.03.52.08.79.11.32.05.64.08.96.15.3.06.59.14.89.22.27.07.55.13.82.21.29.09.57.2.85.3.27.1.55.19.81.3.26.11.51.24.77.36.28.13.56.25.83.4.24.13.47.28.71.42.27.16.54.31.8.49.26.17.5.37.75.55.22.17.45.32.67.5.43.36.85.73,1.25,1.13.02.02.05.04.07.06l101.82,101.82c7.03,7.03,7.03,18.43,0,25.46-3.51,3.51-8.12,5.27-12.73,5.27s-9.21-1.76-12.73-5.27l-71.1-71.1v154.54c0,9.94-8.06,18-18,18s-18-8.06-18-18v-198Z" style="stroke-width: 0px;"/>
  </g>
</svg>