<?xml version="1.0" encoding="UTF-8"?>
<svg id="icon" xmlns="http://www.w3.org/2000/svg" viewBox="0 0 864 864">
  <g id="other_copy" data-name="other copy">
    <path d="M180,684h504s0-504,0-504H180v504ZM259.13,552.59c-2.83,1.64-5.93,2.41-8.98,2.41-6.22,0-12.27-3.23-15.6-9-4.97-8.61-2.02-19.62,6.59-24.59,2.83-1.64,5.93-2.41,8.98-2.41,6.22,0,12.27,3.23,15.6,9,4.97,8.61,2.02,19.62-6.59,24.59ZM342.59,622.87c-3.33,5.77-9.38,9-15.6,9-3.05,0-6.15-.78-8.98-2.41-8.61-4.97-11.56-15.98-6.59-24.59,3.33-5.77,9.38-9,15.6-9,3.05,0,6.15.78,8.98,2.41,8.61,4.97,11.56,15.98,6.59,24.59ZM432,660c-9.94,0-18-8.06-18-18s8.06-18,18-18,18,8.06,18,18-8.06,18-18,18ZM660,432c0,9.94-8.06,18-18,18s-18-8.06-18-18,8.06-18,18-18,18,8.06,18,18ZM604.87,311.41c2.83-1.64,5.93-2.41,8.98-2.41,6.22,0,12.27,3.23,15.6,9,4.97,8.61,2.02,19.62-6.59,24.59-2.83,1.64-5.93,2.41-8.98,2.41-6.22,0-12.27-3.23-15.6-9-4.97-8.61-2.02-19.62,6.59-24.59ZM598.28,528c3.33-5.77,9.38-9,15.6-9,3.05,0,6.15.78,8.98,2.41,8.61,4.97,11.56,15.98,6.59,24.59-3.33,5.77-9.38,9-15.6,9-3.05,0-6.15-.78-8.98-2.41-8.61-4.97-11.56-15.98-6.59-24.59ZM521.41,241.13c3.33-5.77,9.38-9,15.6-9,3.05,0,6.15.78,8.98,2.41,8.61,4.97,11.56,15.98,6.59,24.59-3.33,5.77-9.38,9-15.6,9-3.05,0-6.15-.78-8.98-2.41-8.61-4.97-11.56-15.98-6.59-24.59ZM528,598.28c2.83-1.64,5.93-2.41,8.98-2.41,6.22,0,12.27,3.23,15.61,9,4.97,8.61,2.02,19.62-6.59,24.59-2.83,1.64-5.93,2.41-8.98,2.41-6.22,0-12.27-3.23-15.6-9-4.97-8.61-2.02-19.62,6.59-24.59ZM318,234.55c2.83-1.64,5.93-2.41,8.98-2.41,6.22,0,12.27,3.23,15.6,9,4.97,8.61,2.02,19.62-6.59,24.59-2.83,1.64-5.93,2.41-8.98,2.41-6.22,0-12.27-3.23-15.61-9-4.97-8.61-2.02-19.62,6.59-24.59ZM291.7,351c4.97-8.61,15.98-11.56,24.59-6.59l97.71,56.41v-175.82c0-.51.04-1,.08-1.5-.04-.5-.08-.99-.08-1.5,0-9.94,8.06-18,18-18s18,8.06,18,18c0,.51-.04,1-.08,1.5.04.5.08.99.08,1.5v207c0,.06,0,.13,0,.19,0,.39-.03.78-.06,1.17-.02.21-.02.42-.05.63-.04.36-.1.71-.16,1.07-.04.24-.07.48-.12.72-.06.3-.15.59-.23.88-.08.29-.15.58-.24.87-.08.23-.17.46-.25.69-.12.34-.25.67-.39,1-.09.2-.19.39-.28.58-.17.35-.34.69-.53,1.03-.03.06-.06.12-.09.17-.21.36-.42.7-.65,1.04-.02.03-.04.06-.06.08-.29.42-.59.82-.9,1.21-.07.08-.13.16-.2.24-.7.83-1.46,1.59-2.28,2.27-.05.04-.09.07-.14.11-.39.31-.78.61-1.19.89-.05.04-.1.07-.15.11-.43.29-.87.55-1.32.8-.12.06-.23.12-.35.18-.35.18-.7.35-1.05.51-.14.06-.28.13-.43.19-.43.18-.87.34-1.32.48-.17.06-.34.1-.52.15-.36.11-.73.2-1.09.28-.14.03-.28.07-.42.1-.5.1-1,.17-1.51.23-.12.01-.24.02-.36.04-.55.05-1.11.09-1.66.09s-1.13-.04-1.69-.09c-.08,0-.16-.01-.24-.02-.54-.06-1.09-.14-1.63-.25-.06-.01-.12-.03-.19-.04-.45-.1-.91-.21-1.36-.35-.13-.04-.26-.07-.38-.11-.47-.15-.94-.32-1.4-.51-.14-.06-.27-.12-.4-.18-.33-.15-.67-.31-.99-.48-.16-.09-.33-.17-.49-.26-.07-.04-.15-.07-.22-.12l-124.71-72c-8.61-4.97-11.56-15.98-6.59-24.59ZM234.55,318c3.33-5.77,9.38-9,15.6-9,3.05,0,6.15.78,8.98,2.41,8.61,4.97,11.56,15.98,6.59,24.59-3.33,5.77-9.38,9-15.6,9-3.05,0-6.15-.78-8.98-2.41-8.61-4.97-11.56-15.98-6.59-24.59ZM222,414c9.94,0,18,8.06,18,18s-8.06,18-18,18-18-8.06-18-18,8.06-18,18-18Z" style="fill: none; stroke-width: 0px;"/>
    <path d="M684,144H180c-19.88,0-36,16.12-36,36v504c0,19.88,16.12,36,36,36h504c19.88,0,36-16.12,36-36V180c0-19.88-16.12-36-36-36ZM684,684H180s0-504,0-504h504v504Z" style="stroke-width: 0px;"/>
    <circle cx="432" cy="642" r="18" style="stroke-width: 0px;"/>
    <path d="M432,207c9.43,0,17.16,7.26,17.92,16.5.04-.5.08-.99.08-1.5,0-9.94-8.06-18-18-18s-18,8.06-18,18c0,.51.04,1,.08,1.5.76-9.24,8.49-16.5,17.92-16.5Z" style="stroke-width: 0px;"/>
    <circle cx="642" cy="432" r="18" style="stroke-width: 0px;"/>
    <circle cx="222" cy="432" r="18" style="stroke-width: 0px;"/>
    <path d="M336,598.28c-2.83-1.64-5.93-2.41-8.98-2.41-6.22,0-12.27,3.23-15.6,9-4.97,8.61-2.02,19.62,6.59,24.59,2.83,1.64,5.93,2.41,8.98,2.41,6.22,0,12.27-3.23,15.6-9,4.97-8.61,2.02-19.62-6.59-24.59Z" style="stroke-width: 0px;"/>
    <path d="M528,265.72c2.83,1.64,5.93,2.41,8.98,2.41,6.22,0,12.27-3.23,15.6-9,4.97-8.61,2.02-19.62-6.59-24.59-2.83-1.64-5.93-2.41-8.98-2.41-6.22,0-12.27,3.23-15.6,9-4.97,8.61-2.02,19.62,6.59,24.59Z" style="stroke-width: 0px;"/>
    <path d="M604.87,552.59c2.83,1.64,5.93,2.41,8.98,2.41,6.22,0,12.27-3.23,15.6-9,4.97-8.61,2.02-19.62-6.59-24.59-2.83-1.64-5.93-2.41-8.98-2.41-6.22,0-12.27,3.23-15.6,9-4.97,8.61-2.02,19.62,6.59,24.59Z" style="stroke-width: 0px;"/>
    <path d="M241.13,342.59c2.83,1.64,5.93,2.41,8.98,2.41,6.22,0,12.27-3.23,15.6-9,4.97-8.61,2.02-19.62-6.59-24.59-2.83-1.64-5.93-2.41-8.98-2.41-6.22,0-12.27,3.23-15.6,9-4.97,8.61-2.02,19.62,6.59,24.59Z" style="stroke-width: 0px;"/>
    <path d="M250.12,519c-3.05,0-6.15.78-8.98,2.41-8.61,4.97-11.56,15.98-6.59,24.59,3.33,5.77,9.38,9,15.6,9,3.05,0,6.15-.78,8.98-2.41,8.61-4.97,11.56-15.98,6.59-24.59-3.33-5.77-9.38-9-15.6-9Z" style="stroke-width: 0px;"/>
    <path d="M613.88,345c3.05,0,6.15-.78,8.98-2.41,8.61-4.97,11.56-15.98,6.59-24.59-3.33-5.77-9.38-9-15.6-9-3.05,0-6.15.78-8.98,2.41-8.61,4.97-11.56,15.98-6.59,24.59,3.33,5.77,9.38,9,15.6,9Z" style="stroke-width: 0px;"/>
    <path d="M537.02,631.87c3.05,0,6.15-.78,8.98-2.41,8.61-4.97,11.56-15.98,6.59-24.59-3.33-5.77-9.38-9-15.61-9-3.05,0-6.15.78-8.98,2.41-8.61,4.97-11.56,15.98-6.59,24.59,3.33,5.77,9.38,9,15.6,9Z" style="stroke-width: 0px;"/>
    <path d="M327.02,268.14c3.05,0,6.15-.78,8.98-2.41,8.61-4.97,11.56-15.98,6.59-24.59-3.33-5.77-9.38-9-15.6-9-3.05,0-6.15.78-8.98,2.41-8.61,4.97-11.56,15.98-6.59,24.59,3.33,5.77,9.38,9,15.61,9Z" style="stroke-width: 0px;"/>
    <path d="M442.17,446.85c-.05.04-.1.07-.15.11.05-.04.1-.07.15-.11Z" style="stroke-width: 0px;"/>
    <path d="M449.93,433.36c-.02.21-.02.42-.05.63.02-.21.03-.42.05-.63Z" style="stroke-width: 0px;"/>
    <path d="M437.54,449.12c-.17.06-.35.1-.52.15.17-.05.35-.1.52-.15Z" style="stroke-width: 0px;"/>
    <path d="M440.69,447.76c-.12.06-.23.12-.35.18.12-.06.23-.12.35-.18Z" style="stroke-width: 0px;"/>
    <path d="M439.29,448.45c-.14.06-.28.13-.43.19.14-.06.28-.13.43-.19Z" style="stroke-width: 0px;"/>
    <path d="M434.01,449.88c-.12.01-.24.02-.36.04.12-.01.24-.02.36-.04Z" style="stroke-width: 0px;"/>
    <path d="M435.93,449.56c-.14.03-.28.07-.42.1.14-.03.28-.06.42-.1Z" style="stroke-width: 0px;"/>
    <path d="M443.5,445.84s-.09.07-.14.11c.05-.04.09-.07.14-.11Z" style="stroke-width: 0px;"/>
    <path d="M430.29,449.91c-.08,0-.16-.01-.24-.02.08,0,.16.02.24.02Z" style="stroke-width: 0px;"/>
    <path d="M448.87,438.22c-.12.33-.25.67-.39,1,.14-.33.27-.66.39-1Z" style="stroke-width: 0px;"/>
    <path d="M449.72,435.06c-.04.24-.07.48-.12.72.05-.24.08-.48.12-.72Z" style="stroke-width: 0px;"/>
    <path d="M449.37,436.66c-.08.29-.15.58-.24.87.09-.28.16-.58.24-.87Z" style="stroke-width: 0px;"/>
    <path d="M448.21,439.8c-.17.35-.34.69-.53,1.03.19-.34.36-.68.53-1.03Z" style="stroke-width: 0px;"/>
    <path d="M445.98,443.33c-.07.08-.13.16-.2.24.07-.08.13-.16.2-.24Z" style="stroke-width: 0px;"/>
    <path d="M446.94,442.04s-.04.06-.06.08c.02-.03.04-.06.06-.08Z" style="stroke-width: 0px;"/>
    <path d="M425.1,448.62c-.13-.06-.27-.12-.4-.18.13.06.26.12.4.18Z" style="stroke-width: 0px;"/>
    <path d="M449.99,432.19c0-.06,0-.13,0-.19v-207c0-.51-.04-1-.08-1.5-.76,9.24-8.49,16.5-17.92,16.5s-17.16-7.26-17.92-16.5c-.04.5-.08.99-.08,1.5v175.82l27,15.59c5.83,3.36,9.05,9.5,8.99,15.78Z" style="stroke-width: 0px;"/>
    <path d="M428.42,449.64c-.06-.01-.12-.03-.19-.04.06.01.12.03.19.04Z" style="stroke-width: 0px;"/>
    <path d="M426.88,449.25c-.13-.04-.26-.07-.38-.11.13.04.25.08.38.11Z" style="stroke-width: 0px;"/>
    <path d="M423.71,447.97c-.16-.08-.33-.17-.49-.26.16.09.32.18.49.26Z" style="stroke-width: 0px;"/>
    <path d="M432,240c9.43,0,17.16-7.26,17.92-16.5-.76-9.24-8.49-16.5-17.92-16.5s-17.16,7.26-17.92,16.5c.76,9.24,8.49,16.5,17.92,16.5Z" style="stroke-width: 0px;"/>
    <path d="M440.35,447.94c-.34.18-.7.35-1.05.51.36-.16.71-.33,1.05-.51Z" style="stroke-width: 0px;"/>
    <path d="M430.05,449.89c-.55-.06-1.1-.14-1.63-.25.54.11,1.09.19,1.63.25Z" style="stroke-width: 0px;"/>
    <path d="M449.99,432.19c0,.39-.03.78-.06,1.17.03-.39.05-.78.06-1.17Z" style="stroke-width: 0px;"/>
    <path d="M447.59,441c.03-.06.06-.12.09-.17-.23.41-.47.82-.74,1.21.23-.34.44-.68.65-1.04Z" style="stroke-width: 0px;"/>
    <path d="M449.88,433.99c-.04.36-.1.72-.16,1.07.06-.36.12-.71.16-1.07Z" style="stroke-width: 0px;"/>
    <path d="M424.7,448.44c-.34-.15-.67-.31-.99-.48.33.17.66.33.99.48Z" style="stroke-width: 0px;"/>
    <path d="M448.48,439.22c-.09.2-.19.39-.28.58.09-.19.19-.39.28-.58Z" style="stroke-width: 0px;"/>
    <path d="M449.6,435.78c-.06.3-.15.59-.23.88.08-.29.16-.59.23-.88Z" style="stroke-width: 0px;"/>
    <path d="M426.5,449.14c-.47-.15-.94-.32-1.4-.51.46.19.93.36,1.4.51Z" style="stroke-width: 0px;"/>
    <path d="M438.87,448.64c-.43.18-.87.34-1.32.48.45-.14.89-.3,1.32-.48Z" style="stroke-width: 0px;"/>
    <path d="M430.29,449.91c.56.05,1.13.09,1.69.09s1.11-.03,1.66-.09c-.54.05-1.09.08-1.64.08s-1.15-.03-1.71-.09Z" style="stroke-width: 0px;"/>
    <path d="M298.29,375.59l124.71,72c.07.04.15.08.22.12-5.5-3.08-9.22-8.96-9.22-15.7v-31.18l-97.71-56.41c-8.61-4.97-19.62-2.02-24.59,6.59-4.97,8.61-2.02,19.62,6.59,24.59Z" style="stroke-width: 0px;"/>
    <path d="M437.03,449.27c-.36.1-.73.2-1.09.28.37-.08.73-.18,1.09-.28Z" style="stroke-width: 0px;"/>
    <path d="M443.5,445.84c.82-.68,1.58-1.44,2.28-2.27-.69.82-1.45,1.58-2.28,2.27Z" style="stroke-width: 0px;"/>
    <path d="M435.52,449.65c-.5.1-1,.17-1.51.23.51-.06,1.01-.13,1.51-.23Z" style="stroke-width: 0px;"/>
    <path d="M449.13,437.52c-.08.23-.17.46-.25.69.09-.23.18-.46.25-.69Z" style="stroke-width: 0px;"/>
    <path d="M442.01,446.96c-.43.29-.87.55-1.32.8.45-.25.89-.51,1.32-.8Z" style="stroke-width: 0px;"/>
    <path d="M446.88,442.12c-.28.42-.59.82-.9,1.21.31-.39.62-.79.9-1.21Z" style="stroke-width: 0px;"/>
    <path d="M428.24,449.6c-.46-.1-.91-.22-1.36-.35.45.13.9.25,1.36.35Z" style="stroke-width: 0px;"/>
    <path d="M443.36,445.96c-.38.31-.78.61-1.19.89.41-.28.8-.58,1.19-.89Z" style="stroke-width: 0px;"/>
    <path d="M423.22,447.7c.16.09.33.18.49.26.33.17.66.33.99.48.13.06.27.12.4.18.46.19.92.36,1.4.51.13.04.25.08.38.11.45.13.9.25,1.36.35.06.01.12.03.19.04.54.11,1.08.19,1.63.25.08,0,.16.02.24.02.56.05,1.13.09,1.71.09s1.1-.03,1.64-.08c.12-.01.24-.02.36-.04.51-.06,1.01-.13,1.51-.23.14-.03.28-.06.42-.1.37-.08.73-.18,1.09-.28.17-.05.35-.1.52-.15.45-.15.89-.3,1.32-.48.14-.06.28-.13.43-.19.36-.16.71-.33,1.05-.51.12-.06.23-.12.35-.18.45-.25.89-.52,1.32-.8.05-.03.1-.07.15-.11.41-.28.81-.58,1.19-.89.05-.04.09-.07.14-.11.83-.69,1.59-1.45,2.28-2.27.07-.08.13-.16.2-.24.32-.39.62-.79.9-1.21.02-.03.04-.06.06-.08.26-.39.5-.8.74-1.21.19-.34.36-.68.53-1.03.09-.19.19-.38.28-.58.14-.33.27-.66.39-1,.08-.23.18-.46.25-.69.09-.29.16-.58.24-.87.08-.29.16-.58.23-.88.05-.24.08-.48.12-.72.06-.35.12-.71.16-1.07.02-.21.03-.42.05-.63.03-.39.05-.78.06-1.17.06-6.28-3.16-12.41-8.99-15.78l-27-15.59v31.18c0,6.75,3.72,12.62,9.22,15.7Z" style="stroke-width: 0px;"/>
  </g>
</svg>