<?xml version="1.0" encoding="UTF-8"?>
<svg id="icon" xmlns="http://www.w3.org/2000/svg" viewBox="0 0 864 864">
  <g id="other_copy" data-name="other copy">
    <path d="M394.87,359.32c1.08,0,1.59-1.26,1.59-3.25s-.49-3.18-1.58-3.18c-.92,0-1.59,1.13-1.59,3.25s.62,3.18,1.58,3.18Z" style="stroke-width: 0px;"/>
    <path d="M432.01,356.55c0-.14-.01-.31-.05-.44-.16-.65-.72-1.2-1.51-1.2-1.09,0-1.75.92-1.75,2.23,0,1.15.55,2.16,1.71,2.16.68,0,1.27-.42,1.51-1.15.05-.14.08-.35.08-.5v-1.09Z" style="stroke-width: 0px;"/>
    <path d="M442.02,358.34c0,.68.46,1.01,1,1.01.76,0,1.24-.48,1.4-.97.04-.11.06-.23.06-.34v-1.01c-1.15-.02-2.46.18-2.46,1.31Z" style="stroke-width: 0px;"/>
    <path d="M413.34,359.32c1.08,0,1.59-1.26,1.59-3.25s-.49-3.18-1.58-3.18c-.92,0-1.59,1.13-1.59,3.25s.62,3.18,1.58,3.18Z" style="stroke-width: 0px;"/>
    <path d="M453.23,354.82c-1.07,0-1.54.98-1.62,1.71h3.08c.01-.67-.28-1.71-1.46-1.71Z" style="stroke-width: 0px;"/>
    <path d="M371.49,359.34c1.01,0,1.76-.95,1.76-2.25,0-.98-.49-2.23-1.74-2.23s-1.79,1.15-1.79,2.25c0,1.27.73,2.23,1.76,2.23Z" style="stroke-width: 0px;"/>
    <path d="M684,144H180c-19.88,0-36,16.12-36,36v504c0,19.88,16.12,36,36,36h504c19.88,0,36-16.12,36-36V180c0-19.88-16.12-36-36-36ZM265.72,336c-3.33,5.77-9.38,9-15.6,9-3.05,0-6.15-.78-8.98-2.41-8.61-4.97-11.56-15.98-6.59-24.59,3.33-5.77,9.38-9,15.61-9,3.05,0,6.15.78,8.98,2.41,8.61,4.97,11.56,15.98,6.59,24.59ZM259.13,552.59c-2.83,1.64-5.93,2.41-8.98,2.41-6.22,0-12.27-3.23-15.61-9-4.97-8.61-2.02-19.62,6.59-24.59,2.83-1.64,5.93-2.41,8.98-2.41,6.22,0,12.27,3.23,15.6,9,4.97,8.61,2.02,19.62-6.59,24.59ZM240,432c0,9.94-8.06,18-18,18s-18-8.06-18-18,8.06-18,18-18,18,8.06,18,18ZM311.41,604.87c3.33-5.77,9.38-9,15.61-9,3.05,0,6.15.78,8.98,2.41,8.61,4.97,11.56,15.98,6.59,24.59-3.33,5.77-9.38,9-15.6,9-3.05,0-6.15-.78-8.98-2.41-8.61-4.97-11.56-15.98-6.59-24.59ZM318,234.55c2.83-1.64,5.93-2.41,8.98-2.41,6.22,0,12.27,3.23,15.61,9,4.97,8.61,2.02,19.62-6.59,24.59-2.83,1.64-5.93,2.41-8.98,2.41-6.22,0-12.27-3.23-15.61-9-4.97-8.61-2.02-19.62,6.59-24.59ZM363.54,359.28c.6,0,1-.16,1.29-.29l.18.79c-.28.14-.89.34-1.67.34-1.75,0-2.89-1.19-2.89-2.96s1.22-3.08,3.12-3.08c.62,0,1.17.16,1.46.3l-.24.82c-.25-.14-.65-.28-1.22-.28-1.33,0-2.05.98-2.05,2.19,0,1.34.86,2.17,2.01,2.17ZM366.25,360v-8.52h1.05v8.52h-1.05ZM368.66,357.15c0-1.94,1.27-3.08,2.88-3.08s2.79,1.21,2.79,2.99c0,2.15-1.49,3.08-2.89,3.08-1.57,0-2.78-1.15-2.78-2.99ZM382.12,356.86c.14-.2.35-.46.52-.66l1.7-2h1.27l-2.24,2.39,2.55,3.42h-1.28l-2-2.78-.54.6v2.18h-1.04v-8.52h1.04v5.37h.02ZM391.8,360.9v.6h-6v-.6h6ZM414.61,427.34c.02-.09.06-.17.09-.26.1-.37.22-.73.35-1.08.08-.22.15-.44.24-.65.13-.32.27-.63.41-.94.11-.24.22-.48.35-.72.14-.26.28-.51.43-.77.15-.26.31-.53.48-.78.14-.21.29-.42.44-.62.19-.27.39-.54.59-.8.15-.19.32-.37.48-.55.22-.25.44-.5.67-.74.18-.19.38-.36.57-.54.22-.21.45-.42.68-.62.23-.19.47-.37.71-.56.21-.16.42-.32.64-.48.28-.19.57-.37.86-.55.19-.12.39-.24.58-.35.31-.18.64-.34.97-.5.19-.09.38-.19.58-.28.33-.14.66-.27.99-.4.22-.08.43-.16.65-.24.31-.1.62-.19.94-.27.26-.07.53-.15.8-.21.27-.06.55-.11.83-.16.32-.06.65-.11.98-.15.24-.03.48-.05.72-.06.37-.03.74-.05,1.11-.06.1,0,.19-.01.29-.01.15,0,.29.02.43.02.35,0,.7.02,1.05.05.29.02.58.06.87.1.28.04.56.08.85.13.36.06.71.14,1.05.23.14.03.27.05.41.09.09.02.17.06.26.08.37.1.73.22,1.09.35.22.08.43.15.64.24.32.13.64.27.95.42.24.11.48.22.71.34.26.14.52.29.77.44.26.15.52.31.78.47.21.14.42.29.63.44.27.19.54.39.8.6.19.15.37.31.55.47.25.22.5.44.74.68.18.18.35.37.53.55.21.23.43.46.63.7.19.22.36.45.54.68.17.22.34.44.5.66.19.27.36.54.53.82.13.21.26.41.38.62.17.3.32.61.48.92.1.21.21.41.3.62.14.31.26.63.38.95.09.23.18.46.26.7.1.29.18.59.26.89.08.28.15.56.22.84.06.26.1.52.15.79.06.34.12.67.16,1.02.03.23.04.46.06.69.03.38.05.76.06,1.14,0,.09.01.18.01.28v207c0,.51-.03,1-.08,1.5.04.5.08.99.08,1.5,0,9.94-8.06,18-18,18s-18-8.06-18-18c0-.51.03-1,.08-1.5-.04-.5-.08-.99-.08-1.5v-70.27l-1.88,7.03c-2.15,8.04-9.43,13.35-17.38,13.35-1.54,0-3.11-.2-4.67-.62-9.6-2.57-15.3-12.44-12.73-22.04l37.27-139.09ZM392.23,356.13c0-2.61,1.13-4.05,2.71-4.05s2.58,1.46,2.58,3.95c0,2.65-.98,4.11-2.71,4.11-1.52,0-2.55-1.43-2.58-4.01ZM400.76,353.19l-1.36.73-.2-.8,1.7-.91h.9v7.8h-1.02v-6.81h-.02ZM406.38,356.21h-.59v-.79h.59c.77,0,1.74-.39,1.74-1.32,0-.62-.4-1.18-1.37-1.18-.62,0-1.22.28-1.56.52l-.28-.77c.41-.3,1.2-.6,2.04-.6,1.54,0,2.23.91,2.23,1.86,0,.8-.48,1.49-1.44,1.83v.03c.96.19,1.74.91,1.74,2,0,1.25-.97,2.34-2.84,2.34-.88,0-1.64-.28-2.03-.53l.29-.81c.3.19,1,.49,1.73.49,1.36,0,1.78-.86,1.76-1.51-.01-1.09-1-1.56-2.01-1.56ZM447.15,354.2h.92l.04,1.14h.05c.26-.78.9-1.27,1.61-1.27.12,0,.2.01.3.04v1c-.11-.02-.22-.04-.36-.04-.74,0-1.27.56-1.42,1.36-.02.14-.05.31-.05.49v3.09h-1.04v-3.99c0-.68-.01-1.27-.05-1.81ZM432,240c-9.94,0-18-8.06-18-18s8.06-18,18-18,18,8.06,18,18-8.06,18-18,18ZM443.13,354.84c-.54,0-1.1.17-1.51.43l-.24-.7c.48-.31,1.17-.52,1.91-.52,1.78,0,2.21,1.21,2.21,2.37v2.17c0,.5.02.99.1,1.39h-.96l-.08-.73h-.04c-.32.46-.95.86-1.78.86-1.17,0-1.77-.83-1.77-1.67,0-1.4,1.25-2.17,3.49-2.16v-.12c0-.48-.13-1.34-1.32-1.34ZM437.12,359.26c.71,0,1.2-.49,1.39-.96.06-.16.1-.35.1-.54v-3.56h1.05v4.22c0,.6.01,1.13.05,1.58h-.94l-.06-.95h-.02c-.28.47-.89,1.08-1.92,1.08-.91,0-2-.5-2-2.54v-3.39h1.05v3.21c0,1.1.34,1.85,1.3,1.85ZM431.98,359.1c-.31.58-.96,1.03-1.9,1.03-1.35,0-2.46-1.17-2.46-2.94,0-2.17,1.4-3.13,2.63-3.13.9,0,1.5.44,1.79,1.01h.02l.04-.88h1c-.02.49-.04,1-.04,1.6v6.58h-1.06v-3.27h-.02ZM424.59,357.41c-1.04-.37-1.54-.95-1.54-1.64,0-.93.76-1.7,2-1.7.59,0,1.1.17,1.43.36l-.26.77c-.23-.14-.65-.33-1.19-.33-.62,0-.97.36-.97.79,0,.48.35.7,1.1.98,1.01.38,1.52.89,1.52,1.75,0,1.02-.79,1.74-2.17,1.74-.64,0-1.22-.16-1.63-.4l.26-.8c.31.21.86.42,1.39.42.77,0,1.13-.38,1.13-.86s-.3-.78-1.08-1.07ZM422.42,360.9v.6h-6v-.6h6ZM415.99,356.02c0,2.65-.98,4.11-2.71,4.11-1.52,0-2.55-1.43-2.58-4.01,0-2.61,1.13-4.05,2.71-4.05s2.58,1.46,2.58,3.95ZM378.33,359.28c.6,0,1-.16,1.29-.29l.18.79c-.28.14-.89.34-1.67.34-1.75,0-2.89-1.19-2.89-2.96s1.22-3.08,3.12-3.08c.62,0,1.17.16,1.46.3l-.24.82c-.25-.14-.65-.28-1.22-.28-1.33,0-2.05.98-2.05,2.19,0,1.34.86,2.17,2.01,2.17ZM453.58,359.3c.76,0,1.21-.13,1.61-.3l.18.76c-.37.17-1.01.36-1.93.36-1.79,0-2.85-1.18-2.85-2.93s1.03-3.13,2.72-3.13c1.89,0,2.4,1.67,2.4,2.73,0,.22-.02.38-.04.49h-4.08c.02,1.43.94,2.02,1.99,2.02ZM456.14,361.5v-.6h6v.6h-6ZM467.54,354.2v5.8h-1.04v-5h-2.33v5h-1.04v-5h-.82v-.8h.82v-.31c0-1.54.9-2.53,2.53-2.53.54,0,1.18.17,1.48.38l-.3.8c-.25-.18-.71-.34-1.22-.34-1.12,0-1.44.78-1.44,1.7v.29h3.37ZM469.29,360v-8.52h1.05v8.52h-1.05ZM472.13,360v-8.52h1.05v8.52h-1.05ZM528,598.28c2.83-1.64,5.93-2.41,8.98-2.41,6.22,0,12.27,3.23,15.61,9,4.97,8.61,2.02,19.62-6.59,24.59-2.83,1.64-5.93,2.41-8.98,2.41-6.22,0-12.27-3.23-15.61-9-4.97-8.61-2.02-19.62,6.59-24.59ZM521.41,241.13c3.33-5.77,9.38-9,15.6-9,3.05,0,6.15.78,8.98,2.41,8.61,4.97,11.56,15.98,6.59,24.59-3.33,5.77-9.38,9-15.61,9-3.05,0-6.15-.78-8.98-2.41-8.61-4.97-11.56-15.98-6.59-24.59ZM598.28,528c3.33-5.77,9.38-9,15.6-9,3.05,0,6.15.78,8.98,2.41,8.61,4.97,11.56,15.98,6.59,24.59-3.33,5.77-9.38,9-15.61,9-3.05,0-6.15-.78-8.98-2.41-8.61-4.97-11.56-15.98-6.59-24.59ZM604.87,311.41c2.83-1.64,5.93-2.41,8.98-2.41,6.22,0,12.27,3.23,15.61,9,4.97,8.61,2.02,19.62-6.59,24.59-2.83,1.64-5.93,2.41-8.98,2.41-6.22,0-12.27-3.23-15.6-9-4.97-8.61-2.02-19.62,6.59-24.59ZM642,450c-9.94,0-18-8.06-18-18s8.06-18,18-18,18,8.06,18,18-8.06,18-18,18Z" style="stroke-width: 0px;"/>
    <path d="M363.35,360.12c.78,0,1.39-.19,1.67-.34l-.18-.79c-.3.13-.7.29-1.29.29-1.15,0-2.01-.83-2.01-2.17,0-1.21.72-2.19,2.05-2.19.58,0,.97.13,1.22.28l.24-.82c-.29-.14-.84-.3-1.46-.3-1.9,0-3.12,1.3-3.12,3.08s1.14,2.96,2.89,2.96Z" style="stroke-width: 0px;"/>
    <rect x="366.25" y="351.48" width="1.05" height="8.52" style="stroke-width: 0px;"/>
    <path d="M371.45,360.13c1.4,0,2.89-.94,2.89-3.08,0-1.78-1.13-2.99-2.79-2.99s-2.88,1.14-2.88,3.08c0,1.83,1.21,2.99,2.78,2.99ZM371.52,354.86c1.25,0,1.74,1.25,1.74,2.23,0,1.31-.75,2.25-1.76,2.25s-1.76-.96-1.76-2.23c0-1.1.54-2.25,1.79-2.25Z" style="stroke-width: 0px;"/>
    <path d="M378.14,360.12c.78,0,1.39-.19,1.67-.34l-.18-.79c-.3.13-.7.29-1.29.29-1.15,0-2.01-.83-2.01-2.17,0-1.21.72-2.19,2.05-2.19.58,0,.97.13,1.22.28l.24-.82c-.29-.14-.84-.3-1.46-.3-1.9,0-3.12,1.3-3.12,3.08s1.14,2.96,2.89,2.96Z" style="stroke-width: 0px;"/>
    <path d="M382.09,357.82l.54-.6,2,2.78h1.28l-2.55-3.42,2.24-2.39h-1.27l-1.7,2c-.17.2-.37.46-.52.66h-.02v-5.37h-1.04v8.52h1.04v-2.18Z" style="stroke-width: 0px;"/>
    <rect x="385.8" y="360.9" width="6" height=".6" style="stroke-width: 0px;"/>
    <path d="M394.81,360.13c1.73,0,2.71-1.46,2.71-4.11,0-2.48-.94-3.95-2.58-3.95s-2.71,1.44-2.71,4.05c.02,2.58,1.06,4.01,2.58,4.01ZM394.88,352.89c1.09,0,1.58,1.26,1.58,3.18s-.52,3.25-1.59,3.25c-.96,0-1.58-1.15-1.58-3.18s.67-3.25,1.59-3.25Z" style="stroke-width: 0px;"/>
    <polygon points="400.76 353.19 400.79 353.19 400.79 360 401.8 360 401.8 352.2 400.91 352.2 399.2 353.12 399.41 353.92 400.76 353.19" style="stroke-width: 0px;"/>
    <path d="M409.48,357.79c0-1.09-.78-1.81-1.74-2v-.03c.96-.35,1.44-1.03,1.44-1.83,0-.95-.7-1.86-2.23-1.86-.84,0-1.63.3-2.04.6l.28.77c.34-.24.94-.52,1.56-.52.97,0,1.37.55,1.37,1.18,0,.92-.97,1.32-1.74,1.32h-.59v.79h.59c1.02,0,2,.47,2.01,1.56.01.65-.41,1.51-1.76,1.51-.73,0-1.43-.3-1.73-.49l-.29.81c.38.25,1.15.53,2.03.53,1.87,0,2.84-1.09,2.84-2.34Z" style="stroke-width: 0px;"/>
    <path d="M413.28,360.13c1.73,0,2.71-1.46,2.71-4.11,0-2.48-.94-3.95-2.58-3.95s-2.71,1.44-2.71,4.05c.02,2.58,1.06,4.01,2.58,4.01ZM413.35,352.89c1.09,0,1.58,1.26,1.58,3.18s-.52,3.25-1.59,3.25c-.96,0-1.58-1.15-1.58-3.18s.67-3.25,1.59-3.25Z" style="stroke-width: 0px;"/>
    <rect x="416.42" y="360.9" width="6" height=".6" style="stroke-width: 0px;"/>
    <path d="M424.55,359.34c-.53,0-1.08-.21-1.39-.42l-.26.8c.41.24,1,.4,1.63.4,1.38,0,2.17-.72,2.17-1.74,0-.86-.52-1.37-1.52-1.75-.75-.29-1.1-.5-1.1-.98,0-.43.35-.79.97-.79.54,0,.96.19,1.19.33l.26-.77c-.32-.19-.84-.36-1.43-.36-1.25,0-2,.77-2,1.7,0,.7.49,1.27,1.54,1.64.78.29,1.08.56,1.08,1.07s-.36.86-1.13.86Z" style="stroke-width: 0px;"/>
    <path d="M433.06,362.38v-6.58c0-.6.01-1.1.04-1.6h-1l-.04.88h-.02c-.29-.56-.89-1.01-1.79-1.01-1.22,0-2.63.96-2.63,3.13,0,1.76,1.1,2.94,2.46,2.94.94,0,1.58-.46,1.9-1.03h.02v3.27h1.06ZM431.92,358.14c-.24.73-.83,1.15-1.51,1.15-1.16,0-1.71-1.01-1.71-2.16,0-1.31.66-2.23,1.75-2.23.79,0,1.36.55,1.51,1.2.04.13.05.3.05.44v1.09c0,.16-.04.36-.08.5Z" style="stroke-width: 0px;"/>
    <path d="M434.77,354.2v3.39c0,2.04,1.09,2.54,2,2.54,1.03,0,1.64-.61,1.92-1.08h.02l.06.95h.94c-.04-.46-.05-.98-.05-1.58v-4.22h-1.05v3.56c0,.19-.04.38-.1.54-.19.47-.68.96-1.39.96-.96,0-1.3-.74-1.3-1.85v-3.21h-1.05Z" style="stroke-width: 0px;"/>
    <path d="M440.96,358.46c0,.84.6,1.67,1.77,1.67.83,0,1.45-.41,1.78-.86h.04l.08.73h.96c-.07-.4-.1-.89-.1-1.39v-2.17c0-1.16-.43-2.37-2.21-2.37-.73,0-1.43.2-1.91.52l.24.7c.41-.26.97-.43,1.51-.43,1.19,0,1.32.86,1.32,1.34v.12c-2.24-.01-3.49.75-3.49,2.16ZM444.48,357.04v1.01c0,.11-.02.23-.06.34-.17.49-.65.97-1.4.97-.54,0-1-.32-1-1.01,0-1.13,1.31-1.33,2.46-1.31Z" style="stroke-width: 0px;"/>
    <path d="M448.16,355.33h-.05l-.04-1.14h-.92c.04.54.05,1.13.05,1.81v3.99h1.04v-3.09c0-.18.02-.35.05-.49.14-.79.67-1.36,1.42-1.36.14,0,.25.01.36.04v-1c-.1-.02-.18-.04-.3-.04-.71,0-1.34.49-1.61,1.27Z" style="stroke-width: 0px;"/>
    <path d="M453.44,360.12c.92,0,1.56-.19,1.93-.36l-.18-.76c-.4.17-.85.3-1.61.3-1.06,0-1.97-.59-1.99-2.02h4.08c.01-.11.04-.28.04-.49,0-1.07-.5-2.73-2.4-2.73-1.69,0-2.72,1.38-2.72,3.13s1.07,2.93,2.85,2.93ZM453.23,354.82c1.19,0,1.47,1.04,1.46,1.71h-3.08c.08-.73.55-1.71,1.62-1.71Z" style="stroke-width: 0px;"/>
    <rect x="456.14" y="360.9" width="6" height=".6" style="stroke-width: 0px;"/>
    <path d="M463.13,360h1.04v-5h2.33v5h1.04v-5.8h-3.37v-.29c0-.92.32-1.7,1.44-1.7.52,0,.97.16,1.22.34l.3-.8c-.3-.22-.94-.38-1.48-.38-1.63,0-2.53,1-2.53,2.53v.31h-.82v.8h.82v5Z" style="stroke-width: 0px;"/>
    <rect x="469.29" y="351.48" width="1.05" height="8.52" style="stroke-width: 0px;"/>
    <rect x="472.13" y="351.48" width="1.05" height="8.52" style="stroke-width: 0px;"/>
  </g>
</svg>