<?xml version="1.0" encoding="UTF-8"?>
<svg id="icon" xmlns="http://www.w3.org/2000/svg" viewBox="0 0 864 864">
  <g id="other_copy" data-name="other copy">
    <path d="M530.08,199.79c-31.04-13.13-64.04-19.79-98.08-19.79s-67.03,6.66-98.08,19.79c-30,12.69-56.96,30.87-80.11,54.02-23.16,23.15-41.33,50.11-54.02,80.11-13.13,31.04-19.79,64.04-19.79,98.08s6.66,67.03,19.79,98.08c12.69,30,30.87,56.96,54.02,80.11,23.15,23.16,50.11,41.33,80.11,54.02,31.04,13.13,64.04,19.79,98.08,19.79s67.03-6.66,98.08-19.79c30-12.69,56.96-30.87,80.11-54.02,23.16-23.15,41.33-50.11,54.02-80.11,13.13-31.04,19.79-64.04,19.79-98.08s-6.66-67.03-19.79-98.08c-12.69-30-30.87-56.96-54.02-80.11-23.15-23.16-50.11-41.33-80.11-54.02ZM486.66,297.57l-36.66,136.8v195.63c0,9.94-8.06,18-18,18s-18-8.06-18-18v-198c0-.14.02-.28.02-.42,0-.36.02-.71.05-1.07.02-.29.06-.57.09-.85.04-.29.08-.57.13-.86.06-.35.14-.7.22-1.04.03-.14.05-.28.09-.41l37.27-139.09c2.57-9.6,12.44-15.3,22.05-12.73,9.6,2.57,15.3,12.44,12.73,22.05Z" style="fill: none; stroke-width: 0px;"/>
    <path d="M432,144c-159.06,0-288,128.94-288,288s128.94,288,288,288,288-128.94,288-288-128.94-288-288-288ZM684,432c0,34.04-6.66,67.03-19.79,98.08-12.69,30-30.87,56.96-54.02,80.11-23.15,23.16-50.11,41.33-80.11,54.02-31.04,13.13-64.04,19.79-98.08,19.79s-67.03-6.66-98.08-19.79c-30-12.69-56.96-30.87-80.11-54.02-23.16-23.15-41.33-50.11-54.02-80.11-13.13-31.04-19.79-64.04-19.79-98.08s6.66-67.03,19.79-98.08c12.69-30,30.87-56.96,54.02-80.11,23.15-23.16,50.11-41.33,80.11-54.02,31.04-13.13,64.04-19.79,98.08-19.79s67.03,6.66,98.08,19.79c30,12.69,56.96,30.87,80.11,54.02,23.16,23.15,41.33,50.11,54.02,80.11,13.13,31.04,19.79,64.04,19.79,98.08Z" style="stroke-width: 0px;"/>
    <path d="M414.08,430.51c.02-.28.06-.57.09-.85-.04.28-.07.57-.09.85Z" style="stroke-width: 0px;"/>
    <path d="M432.01,450c-1.54,0-3.11-.2-4.67-.62-8.19-2.19-13.51-9.69-13.32-17.8,0,.14-.02.28-.02.42v198c0,9.94,8.06,18,18,18s18-8.06,18-18v-195.63l-.61,2.29c-2.15,8.04-9.43,13.35-17.38,13.35Z" style="stroke-width: 0px;"/>
    <path d="M414.3,428.8c.06-.35.14-.7.22-1.04-.08.34-.16.69-.22,1.04Z" style="stroke-width: 0px;"/>
    <path d="M473.93,275.52c-9.6-2.57-19.47,3.13-22.05,12.73l-37.27,139.09c-.04.14-.06.27-.09.41,1.91-7.89,9-13.75,17.48-13.75,9.94,0,18,8.06,18,18v2.37l36.66-136.8c2.57-9.6-3.13-19.47-12.73-22.05Z" style="stroke-width: 0px;"/>
    <path d="M414.17,429.66c.04-.29.08-.57.13-.86-.05.29-.09.57-.13.86Z" style="stroke-width: 0px;"/>
    <path d="M414.02,431.58c0-.36.03-.72.05-1.07-.03.36-.05.72-.05,1.07Z" style="stroke-width: 0px;"/>
    <path d="M432,414c-8.48,0-15.56,5.87-17.48,13.75-.08.35-.16.7-.22,1.04-.05.28-.09.57-.13.86-.04.29-.07.57-.09.85-.03.35-.05.71-.05,1.07-.19,8.11,5.13,15.61,13.32,17.8,1.56.42,3.13.62,4.67.62,7.95,0,15.22-5.3,17.38-13.35l.61-2.29v-2.37c0-9.94-8.06-18-18-18Z" style="stroke-width: 0px;"/>
  </g>
</svg>