<?xml version="1.0" encoding="UTF-8"?>
<svg id="icon" xmlns="http://www.w3.org/2000/svg" viewBox="0 0 864 864">
  <g id="other_copy" data-name="other copy">
    <path d="M530.08,199.79c-31.04-13.13-64.04-19.79-98.08-19.79s-67.03,6.66-98.08,19.79c-30,12.69-56.96,30.87-80.11,54.02-23.15,23.15-41.33,50.11-54.02,80.11-13.13,31.04-19.79,64.04-19.79,98.08s6.66,67.03,19.79,98.08c12.69,30,30.87,56.96,54.02,80.11,23.15,23.16,50.11,41.33,80.11,54.02,31.04,13.13,64.04,19.79,98.08,19.79s67.03-6.66,98.08-19.79c30-12.69,56.96-30.87,80.11-54.02,23.15-23.15,41.33-50.11,54.02-80.11,13.13-31.04,19.79-64.04,19.79-98.08s-6.66-67.03-19.79-98.08c-12.69-30-30.87-56.96-54.02-80.11-23.15-23.16-50.11-41.33-80.11-54.02ZM450,630c0,9.94-8.06,18-18,18s-18-8.06-18-18v-154.54l-71.1,71.1c-3.51,3.51-8.12,5.27-12.73,5.27s-9.21-1.76-12.73-5.27c-7.03-7.03-7.03-18.43,0-25.46l101.82-101.82c.42-.42.86-.82,1.33-1.2.2-.16.41-.31.61-.46.26-.2.52-.4.8-.59.25-.17.51-.31.77-.47.25-.15.49-.3.74-.44.26-.14.54-.26.81-.39.26-.12.52-.25.79-.37.26-.11.53-.2.8-.29.29-.1.57-.21.86-.3.27-.08.54-.14.81-.21.3-.08.59-.16.89-.22.31-.06.63-.1.95-.15.26-.04.52-.09.79-.11.59-.06,1.18-.09,1.78-.09s1.19.03,1.78.09c.27.03.53.08.79.11.32.05.64.08.95.15.3.06.6.14.89.22.27.07.54.13.81.21.29.09.58.2.86.3.27.1.54.18.8.29.27.11.53.24.79.37.27.13.54.25.81.39.25.14.49.29.74.44.26.15.52.3.77.47.27.18.53.39.8.59.2.15.42.3.62.46.92.75,1.76,1.6,2.52,2.52.17.2.31.41.46.62.2.26.4.52.58.79.17.25.32.52.47.78.15.24.3.48.43.73.14.27.26.54.39.82.12.26.25.51.36.78.11.27.2.54.3.81.1.28.21.56.3.85.08.27.14.55.21.83.07.29.16.58.21.88.06.32.1.65.15.98.04.25.08.5.11.76.06.59.09,1.19.09,1.78v197.99Z" style="fill: none; stroke-width: 0px;"/>
    <path d="M432,144c-159.06,0-288,128.94-288,288s128.94,288,288,288,288-128.94,288-288-128.94-288-288-288ZM684,432c0,34.04-6.66,67.03-19.79,98.08-12.69,30-30.87,56.96-54.02,80.11-23.15,23.16-50.11,41.33-80.11,54.02-31.04,13.13-64.04,19.79-98.08,19.79s-67.03-6.66-98.08-19.79c-30-12.69-56.96-30.87-80.11-54.02-23.15-23.15-41.33-50.11-54.02-80.11-13.13-31.04-19.79-64.04-19.79-98.08s6.66-67.03,19.79-98.08c12.69-30,30.87-56.96,54.02-80.11,23.15-23.16,50.11-41.33,80.11-54.02,31.04-13.13,64.04-19.79,98.08-19.79s67.03,6.66,98.08,19.79c30,12.69,56.96,30.87,80.11,54.02,23.15,23.15,41.33,50.11,54.02,80.11,13.13,31.04,19.79,64.04,19.79,98.08Z" style="stroke-width: 0px;"/>
    <path d="M421.21,417.62c.27-.2.53-.41.8-.59-.28.18-.54.39-.8.59Z" style="stroke-width: 0px;"/>
    <path d="M424.32,415.74c.26-.12.52-.26.79-.37-.27.11-.53.24-.79.37Z" style="stroke-width: 0px;"/>
    <path d="M435.52,414.35c.3.06.6.14.89.22-.3-.07-.59-.16-.89-.22Z" style="stroke-width: 0px;"/>
    <path d="M437.22,414.78c.29.09.58.2.86.3-.29-.1-.57-.21-.86-.3Z" style="stroke-width: 0px;"/>
    <path d="M448.93,425.92c.1.28.21.56.3.85-.09-.29-.2-.57-.3-.85Z" style="stroke-width: 0px;"/>
    <path d="M425.91,415.08c.29-.1.57-.21.86-.3-.29.09-.58.2-.86.3Z" style="stroke-width: 0px;"/>
    <path d="M433.78,414.09c.26.03.53.08.79.11-.26-.04-.52-.09-.79-.11Z" style="stroke-width: 0px;"/>
    <path d="M422.78,416.56c.25-.15.49-.3.74-.44-.25.14-.49.29-.74.44Z" style="stroke-width: 0px;"/>
    <path d="M429.43,414.2c.26-.04.53-.09.79-.11-.27.03-.53.08-.79.11Z" style="stroke-width: 0px;"/>
    <path d="M438.89,415.37c.27.11.53.24.79.37-.26-.12-.52-.25-.79-.37Z" style="stroke-width: 0px;"/>
    <path d="M447.44,422.78c.15.24.3.48.43.73-.13-.25-.29-.49-.43-.73Z" style="stroke-width: 0px;"/>
    <path d="M449.44,427.6c.07.29.16.58.21.88-.06-.3-.14-.59-.21-.88Z" style="stroke-width: 0px;"/>
    <path d="M446.39,421.21c.2.26.4.52.58.79-.18-.27-.39-.53-.58-.79Z" style="stroke-width: 0px;"/>
    <path d="M427.59,414.57c.3-.07.59-.16.89-.22-.3.06-.6.14-.89.22Z" style="stroke-width: 0px;"/>
    <path d="M448.27,424.33c.12.26.25.52.36.78-.11-.27-.24-.52-.36-.78Z" style="stroke-width: 0px;"/>
    <path d="M420.59,418.08c-.46.38-.9.78-1.33,1.2h0c.42-.43.87-.83,1.32-1.2Z" style="stroke-width: 0px;"/>
    <path d="M445.92,420.59c-.75-.92-1.6-1.76-2.52-2.52.45.37.9.77,1.32,1.19.42.42.82.87,1.19,1.32Z" style="stroke-width: 0px;"/>
    <path d="M440.48,416.13c.25.13.49.29.74.44-.25-.15-.49-.3-.74-.44Z" style="stroke-width: 0px;"/>
    <path d="M441.99,417.03c.27.18.53.39.8.59-.26-.2-.52-.4-.8-.59Z" style="stroke-width: 0px;"/>
    <path d="M449.8,429.46c.04.25.08.51.11.76-.03-.26-.07-.51-.11-.76Z" style="stroke-width: 0px;"/>
    <path d="M414,475.46v154.54c0,9.94,8.06,18,18,18s18-8.06,18-18v-197.99c0,4.6-1.76,9.21-5.27,12.72l-30.73,30.73Z" style="stroke-width: 0px;"/>
    <path d="M434.57,414.2c.32.05.64.08.95.15-.31-.06-.63-.1-.95-.15Z" style="stroke-width: 0px;"/>
    <path d="M445.92,420.59c.16.2.31.41.46.62-.16-.21-.3-.42-.46-.62Z" style="stroke-width: 0px;"/>
    <path d="M446.97,422.01c.17.25.32.52.47.78-.16-.26-.3-.52-.47-.78Z" style="stroke-width: 0px;"/>
    <path d="M441.22,416.56c.26.15.52.3.77.47-.25-.17-.51-.31-.77-.47Z" style="stroke-width: 0px;"/>
    <path d="M439.68,415.74c.27.13.54.25.81.39-.26-.14-.54-.26-.81-.39Z" style="stroke-width: 0px;"/>
    <path d="M442.79,417.62c.2.15.42.3.62.46-.2-.16-.41-.31-.62-.46Z" style="stroke-width: 0px;"/>
    <path d="M448.63,425.11c.11.27.2.54.3.81-.1-.27-.19-.55-.3-.81Z" style="stroke-width: 0px;"/>
    <path d="M449.91,430.22c.06.59.09,1.18.09,1.78h0c0-.59-.03-1.19-.09-1.78Z" style="stroke-width: 0px;"/>
    <path d="M449.22,426.77c.08.27.14.55.21.83-.07-.28-.13-.56-.21-.83Z" style="stroke-width: 0px;"/>
    <path d="M420.59,418.08c.2-.16.41-.31.61-.46-.2.15-.41.3-.61.46Z" style="stroke-width: 0px;"/>
    <path d="M419.27,419.28l-101.82,101.82c-7.03,7.03-7.03,18.43,0,25.46,3.51,3.51,8.12,5.27,12.73,5.27s9.21-1.76,12.73-5.27l71.1-71.1v-43.46c0-4.97,2.01-9.47,5.27-12.72Z" style="stroke-width: 0px;"/>
    <path d="M449.65,428.48c.06.32.1.65.15.98-.05-.33-.08-.65-.15-.98Z" style="stroke-width: 0px;"/>
    <path d="M447.87,423.52c.14.27.26.54.39.82-.13-.27-.25-.55-.39-.82Z" style="stroke-width: 0px;"/>
    <path d="M426.78,414.78c.27-.08.54-.14.81-.21-.27.07-.54.13-.81.21Z" style="stroke-width: 0px;"/>
    <path d="M430.22,414.09c.58-.06,1.18-.09,1.78-.09-.59,0-1.19.03-1.78.09Z" style="stroke-width: 0px;"/>
    <path d="M428.48,414.35c.31-.06.63-.1.95-.15-.32.05-.64.08-.95.15Z" style="stroke-width: 0px;"/>
    <path d="M423.52,416.13c.26-.14.54-.26.81-.39-.27.13-.54.25-.81.39Z" style="stroke-width: 0px;"/>
    <path d="M425.11,415.37c.26-.11.53-.2.8-.29-.27.1-.54.18-.8.29Z" style="stroke-width: 0px;"/>
    <path d="M436.41,414.57c.27.07.55.13.81.21-.27-.08-.54-.14-.81-.21Z" style="stroke-width: 0px;"/>
    <path d="M422.01,417.03c.25-.17.51-.31.77-.47-.26.15-.52.3-.77.47Z" style="stroke-width: 0px;"/>
    <path d="M438.09,415.08c.27.1.54.18.8.29-.26-.11-.53-.2-.8-.29Z" style="stroke-width: 0px;"/>
    <path d="M432,414c.6,0,1.19.03,1.78.09-.59-.06-1.18-.09-1.78-.09Z" style="stroke-width: 0px;"/>
    <path d="M449.91,430.22c-.03-.26-.07-.51-.11-.76-.05-.33-.09-.66-.15-.98-.06-.29-.14-.59-.21-.88-.07-.28-.13-.56-.21-.83-.09-.29-.2-.57-.3-.85-.1-.27-.19-.55-.3-.81-.11-.26-.24-.52-.36-.78-.13-.27-.25-.55-.39-.82-.13-.25-.29-.49-.43-.73-.16-.26-.3-.53-.47-.78-.18-.27-.38-.53-.58-.79-.16-.21-.3-.42-.46-.62-.37-.45-.77-.9-1.19-1.32-.42-.42-.87-.82-1.32-1.19-.2-.16-.41-.31-.62-.46-.26-.2-.53-.4-.8-.59-.25-.17-.51-.31-.77-.47-.25-.15-.49-.3-.74-.44-.26-.14-.54-.26-.81-.39-.26-.12-.52-.26-.79-.37-.26-.11-.53-.2-.8-.29-.29-.1-.57-.21-.86-.3-.27-.08-.54-.14-.81-.21-.3-.07-.59-.16-.89-.22-.31-.06-.63-.1-.95-.15-.26-.04-.53-.09-.79-.11-.58-.06-1.18-.09-1.78-.09s-1.19.03-1.78.09c-.26.03-.53.08-.79.11-.32.05-.64.08-.95.15-.3.06-.6.14-.89.22-.27.07-.55.13-.81.21-.29.09-.58.2-.86.3-.27.1-.54.18-.8.29-.27.11-.53.24-.79.37-.27.13-.54.25-.81.39-.25.13-.49.29-.74.44-.26.15-.52.3-.77.47-.27.18-.54.39-.8.59-.2.15-.42.3-.61.46-.45.37-.9.77-1.32,1.19h0c-3.25,3.26-5.27,7.76-5.27,12.73v43.46l30.73-30.73c3.51-3.51,5.27-8.12,5.27-12.72h0c0-.61-.03-1.2-.09-1.78Z" style="stroke-width: 0px;"/>
  </g>
</svg>