<?xml version="1.0" encoding="UTF-8"?>
<svg id="icon" xmlns="http://www.w3.org/2000/svg" viewBox="0 0 864 864">
  <g id="other_copy" data-name="other copy">
    <path d="M684,144H180c-19.88,0-36,16.12-36,36v504c0,19.88,16.12,36,36,36h504c19.88,0,36-16.12,36-36V180c0-19.88-16.12-36-36-36ZM265.72,336c-3.33,5.77-9.38,9-15.6,9-3.05,0-6.15-.78-8.98-2.41-8.61-4.97-11.56-15.98-6.59-24.59,3.33-5.77,9.38-9,15.6-9,3.05,0,6.15.78,8.98,2.41,8.61,4.97,11.56,15.98,6.59,24.59ZM259.13,552.59c-2.83,1.64-5.93,2.41-8.98,2.41-6.22,0-12.27-3.23-15.6-9-4.97-8.61-2.02-19.62,6.59-24.59,2.83-1.64,5.93-2.41,8.98-2.41,6.22,0,12.27,3.23,15.6,9,4.97,8.61,2.02,19.62-6.59,24.59ZM240,432c0,9.94-8.06,18-18,18s-18-8.06-18-18,8.06-18,18-18,18,8.06,18,18ZM414,222c0-9.94,8.06-18,18-18s18,8.06,18,18c0,.51-.03,1-.08,1.5.04.5.08.99.08,1.5v207c0,.06,0,.13,0,.19,0,.39-.03.78-.06,1.17-.02.21-.02.42-.05.63-.04.36-.1.71-.16,1.07-.04.24-.07.48-.12.72-.06.29-.15.59-.23.88-.08.29-.15.58-.24.87-.07.23-.17.46-.25.69-.12.34-.25.67-.39,1-.09.19-.19.38-.28.58-.17.35-.34.7-.53,1.04-.03.06-.06.12-.09.17l-72,124.71c-3.33,5.77-9.38,9-15.61,9-3.05,0-6.15-.78-8.98-2.41-8.61-4.97-11.56-15.98-6.59-24.59l69.59-120.53v-202.18c0-.51.03-1,.08-1.5-.04-.5-.08-.99-.08-1.5ZM450,642c0,9.94-8.06,18-18,18s-18-8.06-18-18,8.06-18,18-18,18,8.06,18,18ZM336,265.72c-2.83,1.64-5.93,2.41-8.98,2.41-6.22,0-12.27-3.23-15.61-9-4.97-8.61-2.02-19.62,6.59-24.59,2.83-1.64,5.93-2.41,8.98-2.41,6.22,0,12.27,3.23,15.6,9,4.97,8.61,2.02,19.62-6.59,24.59ZM311.41,604.87c3.33-5.77,9.38-9,15.6-9,3.05,0,6.15.78,8.98,2.41,8.61,4.97,11.56,15.98,6.59,24.59-3.33,5.77-9.38,9-15.6,9-3.05,0-6.15-.78-8.98-2.41-8.61-4.97-11.56-15.98-6.59-24.59ZM528,598.28c2.83-1.64,5.93-2.41,8.98-2.41,6.22,0,12.27,3.23,15.61,9,4.97,8.61,2.02,19.62-6.59,24.59-2.83,1.64-5.93,2.41-8.98,2.41-6.22,0-12.27-3.23-15.6-9-4.97-8.61-2.02-19.62,6.59-24.59ZM521.41,241.13c3.33-5.77,9.38-9,15.6-9,3.05,0,6.15.78,8.98,2.41,8.61,4.97,11.56,15.98,6.59,24.59-3.33,5.77-9.38,9-15.6,9-3.05,0-6.15-.78-8.98-2.41-8.61-4.97-11.56-15.98-6.59-24.59ZM598.28,528c3.33-5.77,9.38-9,15.6-9,3.05,0,6.15.78,8.98,2.41,8.61,4.97,11.56,15.98,6.59,24.59-3.33,5.77-9.38,9-15.6,9-3.05,0-6.15-.78-8.98-2.41-8.61-4.97-11.56-15.98-6.59-24.59ZM604.87,311.41c2.83-1.64,5.93-2.41,8.98-2.41,6.22,0,12.27,3.23,15.6,9,4.97,8.61,2.02,19.62-6.59,24.59-2.83,1.64-5.93,2.41-8.98,2.41-6.22,0-12.27-3.23-15.6-9-4.97-8.61-2.02-19.62,6.59-24.59ZM642,450c-9.94,0-18-8.06-18-18s8.06-18,18-18,18,8.06,18,18-8.06,18-18,18Z" style="stroke-width: 0px;"/>
  </g>
</svg>