<?xml version="1.0" encoding="UTF-8"?>
<svg id="icon" xmlns="http://www.w3.org/2000/svg" viewBox="0 0 864 864">
  <g id="other_copy" data-name="other copy">
    <path d="M684,180H180v504s504,0,504,0V180ZM604.87,311.41c2.83-1.64,5.93-2.41,8.98-2.41,6.22,0,12.27,3.23,15.61,9,4.97,8.61,2.02,19.62-6.59,24.59-2.83,1.64-5.93,2.41-8.98,2.41-6.22,0-12.27-3.23-15.61-9-4.97-8.61-2.02-19.62,6.59-24.59ZM432,204c9.94,0,18,8.06,18,18s-8.06,18-18,18-18-8.06-18-18,8.06-18,18-18ZM204,432c0-9.94,8.06-18,18-18s18,8.06,18,18-8.06,18-18,18-18-8.06-18-18ZM259.13,552.59c-2.83,1.64-5.93,2.41-8.98,2.41-6.22,0-12.27-3.23-15.61-9-4.97-8.61-2.02-19.62,6.59-24.59,2.83-1.64,5.93-2.41,8.98-2.41,6.22,0,12.27,3.23,15.61,9,4.97,8.61,2.02,19.62-6.59,24.59ZM265.72,336c-3.33,5.77-9.38,9-15.61,9-3.05,0-6.15-.78-8.98-2.41-8.61-4.97-11.56-15.98-6.59-24.59,3.33-5.77,9.38-9,15.61-9,3.05,0,6.15.78,8.98,2.41,8.61,4.97,11.56,15.98,6.59,24.59ZM342.59,622.87c-3.33,5.77-9.38,9-15.61,9-3.05,0-6.15-.78-8.98-2.41-8.61-4.97-11.56-15.98-6.59-24.59,3.33-5.77,9.38-9,15.61-9,3.05,0,6.15.78,8.98,2.41,8.61,4.97,11.56,15.98,6.59,24.59ZM336,265.72c-2.83,1.64-5.93,2.41-8.98,2.41-6.22,0-12.27-3.23-15.61-9-4.97-8.61-2.02-19.62,6.59-24.59,2.83-1.64,5.93-2.41,8.98-2.41,6.22,0,12.27,3.23,15.61,9,4.97,8.61,2.02,19.62-6.59,24.59ZM473.93,588.48c-1.56.42-3.13.62-4.67.62-7.95,0-15.22-5.3-17.38-13.35l-1.88-7.03v70.28c0,.51-.03,1-.08,1.5.04.5.08.99.08,1.5,0,9.94-8.06,18-18,18s-18-8.06-18-18c0-.51.03-1,.08-1.5-.04-.5-.08-.99-.08-1.5v-207c0-.09.01-.19.01-.28,0-.38.03-.76.06-1.13.02-.23.04-.46.06-.69.04-.34.1-.68.15-1.01.05-.26.09-.53.15-.79.06-.28.14-.56.22-.84.08-.3.16-.6.26-.89.08-.24.17-.47.26-.7.12-.32.24-.63.38-.94.09-.21.2-.42.3-.63.15-.31.3-.61.47-.91.12-.22.26-.43.39-.64.17-.27.34-.54.52-.81.16-.23.34-.46.51-.68.17-.22.34-.45.52-.66.21-.25.43-.48.65-.71.17-.18.33-.36.51-.53.25-.24.5-.47.76-.69.17-.15.35-.31.53-.45.26-.21.54-.41.82-.61.2-.14.4-.29.61-.43.26-.17.53-.33.8-.48.25-.15.5-.29.75-.43.24-.12.48-.24.73-.35.31-.14.62-.28.94-.41.21-.09.43-.16.65-.24.35-.13.71-.24,1.08-.35.09-.03.18-.06.27-.09.14-.04.27-.05.41-.09.35-.08.69-.16,1.05-.22.28-.05.57-.09.85-.13.29-.04.57-.07.87-.1.35-.03.71-.04,1.06-.05.14,0,.28-.02.43-.02.1,0,.19.01.28.01.38,0,.75.03,1.12.06.24.02.47.04.71.06.34.04.67.09,1,.15.27.05.54.09.8.15.28.06.55.14.83.21.3.08.61.17.9.26.23.08.46.17.69.25.32.12.64.24.95.38.21.09.42.2.63.3.31.15.62.3.92.47.22.12.42.26.64.39.27.17.54.34.81.52.23.16.46.34.68.51.22.17.45.34.66.52.25.21.48.43.72.65.18.17.36.33.53.5.24.25.47.51.7.77.15.17.3.34.45.52.21.27.42.54.61.82.14.2.29.4.42.6.17.26.33.53.49.8.14.25.29.49.42.75.12.24.24.49.35.73.14.31.28.61.41.93.09.22.16.44.24.66.13.35.24.71.35,1.07.03.09.06.18.09.27l37.27,139.09c2.57,9.6-3.13,19.47-12.73,22.05ZM546,629.45c-2.83,1.64-5.93,2.41-8.98,2.41-6.22,0-12.27-3.23-15.61-9-4.97-8.61-2.02-19.62,6.59-24.59,2.83-1.64,5.93-2.41,8.98-2.41,6.22,0,12.27,3.23,15.61,9,4.97,8.61,2.02,19.62-6.59,24.59ZM552.59,259.13c-3.33,5.77-9.38,9-15.61,9-3.05,0-6.15-.78-8.98-2.41-8.61-4.97-11.56-15.98-6.59-24.59,3.33-5.77,9.38-9,15.61-9,3.05,0,6.15.78,8.98,2.41,8.61,4.97,11.56,15.98,6.59,24.59ZM629.45,546c-3.33,5.77-9.38,9-15.61,9-3.05,0-6.15-.78-8.98-2.41-8.61-4.97-11.56-15.98-6.59-24.59,3.33-5.77,9.38-9,15.61-9,3.05,0,6.15.78,8.98,2.41,8.61,4.97,11.56,15.98,6.59,24.59ZM642,450c-9.94,0-18-8.06-18-18s8.06-18,18-18,18,8.06,18,18-8.06,18-18,18Z" style="fill: none; stroke-width: 0px;"/>
    <path d="M180,720h504c19.88,0,36-16.12,36-36V180c0-19.88-16.12-36-36-36H180c-19.88,0-36,16.12-36,36v504c0,19.88,16.12,36,36,36ZM180,180h504v504s-504,0-504,0V180Z" style="stroke-width: 0px;"/>
    <path d="M432,657c-9.43,0-17.16-7.26-17.92-16.5-.04.5-.08.99-.08,1.5,0,9.94,8.06,18,18,18s18-8.06,18-18c0-.51-.03-1-.08-1.5-.76,9.24-8.49,16.5-17.92,16.5Z" style="stroke-width: 0px;"/>
    <circle cx="432" cy="222" r="18" style="stroke-width: 0px;"/>
    <circle cx="642" cy="432" r="18" style="stroke-width: 0px;"/>
    <circle cx="222" cy="432" r="18" style="stroke-width: 0px;"/>
    <path d="M336,598.28c-2.83-1.64-5.93-2.41-8.98-2.41-6.22,0-12.27,3.23-15.61,9-4.97,8.61-2.02,19.62,6.59,24.59,2.83,1.64,5.93,2.41,8.98,2.41,6.22,0,12.27-3.23,15.61-9,4.97-8.61,2.02-19.62-6.59-24.59Z" style="stroke-width: 0px;"/>
    <path d="M546,234.55c-2.83-1.64-5.93-2.41-8.98-2.41-6.22,0-12.27,3.23-15.61,9-4.97,8.61-2.02,19.62,6.59,24.59,2.83,1.64,5.93,2.41,8.98,2.41,6.22,0,12.27-3.23,15.61-9,4.97-8.61,2.02-19.62-6.59-24.59Z" style="stroke-width: 0px;"/>
    <path d="M622.87,521.41c-2.83-1.64-5.93-2.41-8.98-2.41-6.22,0-12.27,3.23-15.61,9-4.97,8.61-2.02,19.62,6.59,24.59,2.83,1.64,5.93,2.41,8.98,2.41,6.22,0,12.27-3.23,15.61-9,4.97-8.61,2.02-19.62-6.59-24.59Z" style="stroke-width: 0px;"/>
    <path d="M259.13,311.41c-2.83-1.64-5.93-2.41-8.98-2.41-6.22,0-12.27,3.23-15.61,9-4.97,8.61-2.02,19.62,6.59,24.59,2.83,1.64,5.93,2.41,8.98,2.41,6.22,0,12.27-3.23,15.61-9,4.97-8.61,2.02-19.62-6.59-24.59Z" style="stroke-width: 0px;"/>
    <path d="M250.12,519c-3.05,0-6.15.78-8.98,2.41-8.61,4.97-11.56,15.98-6.59,24.59,3.33,5.77,9.38,9,15.61,9,3.05,0,6.15-.78,8.98-2.41,8.61-4.97,11.56-15.98,6.59-24.59-3.33-5.77-9.38-9-15.61-9Z" style="stroke-width: 0px;"/>
    <path d="M613.88,345c3.05,0,6.15-.78,8.98-2.41,8.61-4.97,11.56-15.98,6.59-24.59-3.33-5.77-9.38-9-15.61-9-3.05,0-6.15.78-8.98,2.41-8.61,4.97-11.56,15.98-6.59,24.59,3.33,5.77,9.38,9,15.61,9Z" style="stroke-width: 0px;"/>
    <path d="M536.98,595.86c-3.05,0-6.15.78-8.98,2.41-8.61,4.97-11.56,15.98-6.59,24.59,3.33,5.77,9.38,9,15.61,9,3.05,0,6.15-.78,8.98-2.41,8.61-4.97,11.56-15.98,6.59-24.59-3.33-5.77-9.38-9-15.61-9Z" style="stroke-width: 0px;"/>
    <path d="M326.98,232.13c-3.05,0-6.15.78-8.98,2.41-8.61,4.97-11.56,15.98-6.59,24.59,3.33,5.77,9.38,9,15.61,9,3.05,0,6.15-.78,8.98-2.41,8.61-4.97,11.56-15.98,6.59-24.59-3.33-5.77-9.38-9-15.61-9Z" style="stroke-width: 0px;"/>
    <path d="M421.52,417.38c.2-.14.4-.29.61-.43-.21.14-.41.28-.61.43Z" style="stroke-width: 0px;"/>
    <path d="M429.65,414.17c.29-.04.58-.07.87-.1-.29.02-.58.06-.87.1Z" style="stroke-width: 0px;"/>
    <path d="M422.93,416.47c.25-.15.5-.29.75-.43-.26.13-.51.28-.75.43Z" style="stroke-width: 0px;"/>
    <path d="M427.75,414.52c.35-.08.7-.16,1.05-.22-.35.06-.7.14-1.05.22Z" style="stroke-width: 0px;"/>
    <path d="M426,415.05c.35-.12.71-.24,1.08-.35-.36.1-.72.22-1.08.35Z" style="stroke-width: 0px;"/>
    <path d="M420.18,418.45c.17-.15.35-.31.53-.45-.18.15-.35.3-.53.45Z" style="stroke-width: 0px;"/>
    <path d="M424.41,415.7c.31-.14.62-.28.94-.41-.32.13-.63.27-.94.41Z" style="stroke-width: 0px;"/>
    <path d="M414.29,428.88c.05-.26.09-.53.15-.79-.06.26-.1.52-.15.79Z" style="stroke-width: 0px;"/>
    <path d="M418.91,419.67c.17-.18.33-.36.51-.53-.18.17-.34.35-.51.53Z" style="stroke-width: 0px;"/>
    <path d="M414.65,427.25c.08-.3.16-.6.26-.89-.1.29-.18.59-.26.89Z" style="stroke-width: 0px;"/>
    <path d="M414.07,430.59c.02-.23.03-.46.06-.69-.03.23-.04.46-.06.69Z" style="stroke-width: 0px;"/>
    <path d="M415.17,425.66c.12-.32.24-.63.38-.94-.14.31-.26.62-.38.94Z" style="stroke-width: 0px;"/>
    <path d="M417.74,421.05c.17-.22.34-.45.52-.66-.18.21-.35.44-.52.66Z" style="stroke-width: 0px;"/>
    <path d="M415.85,424.09c.15-.31.3-.61.47-.91-.17.3-.32.6-.47.91Z" style="stroke-width: 0px;"/>
    <path d="M416.71,422.54c.17-.27.34-.54.52-.81-.18.26-.35.53-.52.81Z" style="stroke-width: 0px;"/>
    <path d="M435.11,414.29c.27.05.54.09.8.15-.26-.06-.53-.1-.8-.15Z" style="stroke-width: 0px;"/>
    <path d="M444.33,418.91c.18.17.36.33.53.5-.17-.17-.35-.34-.53-.5Z" style="stroke-width: 0px;"/>
    <path d="M442.95,417.74c.22.17.45.34.66.52-.21-.18-.44-.35-.66-.52Z" style="stroke-width: 0px;"/>
    <path d="M448.95,426c.12.35.24.71.35,1.07-.1-.36-.22-.72-.35-1.07Z" style="stroke-width: 0px;"/>
    <path d="M445.56,420.19c.15.17.3.34.45.52-.14-.18-.3-.35-.45-.52Z" style="stroke-width: 0px;"/>
    <path d="M447.53,422.93c.14.25.29.49.42.75-.13-.25-.28-.5-.42-.75Z" style="stroke-width: 0px;"/>
    <path d="M448.3,424.41c.14.31.28.61.41.93-.13-.32-.26-.62-.41-.93Z" style="stroke-width: 0px;"/>
    <path d="M432,414c-.14,0-.28.02-.43.02.24,0,.47-.01.71,0-.1,0-.19-.01-.28-.01Z" style="stroke-width: 0px;"/>
    <path d="M414.01,431.72c0,.09-.01.19-.01.28v207c0,.51.03,1,.08,1.5.76-9.24,8.49-16.5,17.92-16.5s17.16,7.26,17.92,16.5c.04-.5.08-.99.08-1.5v-70.28l-35.39-132.06c-.44-1.65-.62-3.31-.6-4.94Z" style="stroke-width: 0px;"/>
    <path d="M436.74,414.65c.3.08.61.17.9.26-.3-.1-.6-.18-.9-.26Z" style="stroke-width: 0px;"/>
    <path d="M446.62,421.53c.14.2.29.4.42.6-.13-.21-.28-.4-.42-.6Z" style="stroke-width: 0px;"/>
    <path d="M433.4,414.07c.24.02.47.04.71.06-.23-.03-.47-.04-.71-.06Z" style="stroke-width: 0px;"/>
    <path d="M441.46,416.71c.27.17.54.34.81.52-.26-.18-.53-.35-.81-.52Z" style="stroke-width: 0px;"/>
    <path d="M439.91,415.85c.31.15.62.3.92.47-.3-.17-.61-.32-.92-.47Z" style="stroke-width: 0px;"/>
    <path d="M438.33,415.17c.32.12.64.24.95.38-.31-.14-.63-.26-.95-.38Z" style="stroke-width: 0px;"/>
    <path d="M432,624c-9.43,0-17.16,7.26-17.92,16.5.76,9.24,8.49,16.5,17.92,16.5s17.16-7.26,17.92-16.5c-.76-9.24-8.49-16.5-17.92-16.5Z" style="stroke-width: 0px;"/>
    <path d="M414.44,428.1c.06-.28.14-.56.22-.84-.08.28-.15.56-.22.84Z" style="stroke-width: 0px;"/>
    <path d="M414.13,429.9c.04-.34.1-.68.15-1.01-.06.34-.11.67-.15,1.01Z" style="stroke-width: 0px;"/>
    <path d="M414.91,426.36c.08-.24.17-.47.26-.7-.09.23-.18.46-.26.7Z" style="stroke-width: 0px;"/>
    <path d="M414.01,431.72c0-.38.03-.76.06-1.13-.03.38-.05.75-.06,1.13Z" style="stroke-width: 0px;"/>
    <path d="M434.11,414.13c.34.04.67.09,1,.15-.33-.06-.66-.11-1-.15Z" style="stroke-width: 0px;"/>
    <path d="M440.82,416.32c.22.12.42.26.64.39-.21-.13-.42-.26-.64-.39Z" style="stroke-width: 0px;"/>
    <path d="M443.61,418.26c.25.21.48.43.72.65-.24-.22-.47-.45-.72-.65Z" style="stroke-width: 0px;"/>
    <path d="M439.28,415.55c.21.09.42.2.63.3-.21-.1-.41-.21-.63-.3Z" style="stroke-width: 0px;"/>
    <path d="M449.39,427.34c-.02-.09-.06-.18-.09-.27.45,1.57.7,3.22.7,4.93v136.72l1.88,7.03c2.15,8.04,9.43,13.35,17.38,13.35,1.54,0,3.11-.2,4.67-.62,9.6-2.57,15.3-12.44,12.73-22.05l-37.27-139.09Z" style="stroke-width: 0px;"/>
    <path d="M435.91,414.44c.28.06.56.14.83.21-.28-.08-.55-.15-.83-.21Z" style="stroke-width: 0px;"/>
    <path d="M437.64,414.92c.23.08.46.17.69.25-.23-.09-.46-.18-.69-.25Z" style="stroke-width: 0px;"/>
    <path d="M442.27,417.23c.23.16.46.34.68.51-.23-.17-.45-.35-.68-.51Z" style="stroke-width: 0px;"/>
    <path d="M447.95,423.68c.13.24.24.49.35.73-.11-.25-.23-.49-.35-.73Z" style="stroke-width: 0px;"/>
    <path d="M448.71,425.34c.09.22.16.44.24.66-.08-.22-.16-.44-.24-.66Z" style="stroke-width: 0px;"/>
    <path d="M444.86,419.42c.24.25.47.51.7.77-.23-.26-.46-.52-.7-.77Z" style="stroke-width: 0px;"/>
    <path d="M447.04,422.13c.17.26.33.53.49.8-.16-.27-.32-.54-.49-.8Z" style="stroke-width: 0px;"/>
    <path d="M446.01,420.71c.22.27.42.54.61.82-.2-.28-.4-.56-.61-.82Z" style="stroke-width: 0px;"/>
    <path d="M423.68,416.05c.24-.12.48-.24.73-.35-.24.11-.49.23-.73.35Z" style="stroke-width: 0px;"/>
    <path d="M419.42,419.14c.25-.24.5-.47.76-.69-.26.23-.52.45-.76.69Z" style="stroke-width: 0px;"/>
    <path d="M432.28,414.01c.38,0,.75.03,1.12.06-.37-.03-.74-.05-1.12-.06Z" style="stroke-width: 0px;"/>
    <path d="M418.26,420.39c.21-.25.43-.48.65-.71-.22.24-.44.47-.65.71Z" style="stroke-width: 0px;"/>
    <path d="M416.32,423.18c.12-.22.26-.43.39-.64-.13.21-.27.42-.39.64Z" style="stroke-width: 0px;"/>
    <path d="M417.23,421.73c.16-.23.34-.46.51-.68-.17.23-.35.45-.51.68Z" style="stroke-width: 0px;"/>
    <path d="M422.13,416.96c.26-.17.53-.33.8-.48-.27.16-.54.31-.8.48Z" style="stroke-width: 0px;"/>
    <path d="M420.71,417.99c.26-.21.54-.41.82-.61-.28.2-.55.4-.82.61Z" style="stroke-width: 0px;"/>
    <path d="M415.55,424.72c.1-.21.2-.42.3-.63-.1.21-.21.42-.3.63Z" style="stroke-width: 0px;"/>
    <path d="M430.52,414.07c.35-.03.7-.05,1.06-.05-.35,0-.7.02-1.06.05Z" style="stroke-width: 0px;"/>
    <path d="M428.8,414.3c.28-.05.56-.09.85-.13-.28.04-.56.08-.85.13Z" style="stroke-width: 0px;"/>
    <path d="M425.34,415.29c.22-.09.44-.16.65-.24-.22.08-.44.15-.65.24Z" style="stroke-width: 0px;"/>
    <path d="M427.34,414.61c-.09.02-.18.06-.27.09.22-.06.45-.12.68-.17-.14.03-.27.05-.41.09Z" style="stroke-width: 0px;"/>
    <path d="M449.3,427.07c-.1-.36-.22-.72-.35-1.07-.08-.22-.15-.44-.24-.66-.13-.32-.27-.62-.41-.93-.11-.25-.23-.49-.35-.73-.13-.25-.28-.5-.42-.75-.16-.27-.32-.54-.49-.8-.13-.21-.28-.4-.42-.6-.2-.28-.4-.56-.61-.82-.14-.18-.3-.35-.45-.52-.23-.26-.46-.52-.7-.77-.17-.17-.35-.34-.53-.5-.24-.22-.47-.44-.72-.65-.21-.18-.44-.35-.66-.52-.23-.17-.45-.35-.68-.51-.26-.18-.54-.35-.81-.52-.21-.13-.42-.26-.64-.39-.3-.17-.61-.32-.92-.47-.21-.1-.41-.21-.63-.3-.31-.14-.63-.26-.95-.38-.23-.09-.46-.18-.69-.25-.3-.1-.6-.18-.9-.26-.28-.08-.55-.15-.83-.21-.26-.06-.53-.1-.8-.15-.33-.06-.66-.11-1-.15-.23-.03-.47-.04-.71-.06-.37-.03-.74-.05-1.12-.06-.24,0-.47,0-.71,0-.36,0-.71.02-1.06.05-.29.02-.58.06-.87.1-.28.04-.57.08-.85.13-.35.06-.7.14-1.05.22-.23.06-.45.11-.68.17-.37.1-.72.22-1.08.35-.22.08-.44.15-.65.24-.32.13-.63.27-.94.41-.24.11-.49.23-.73.35-.26.13-.51.28-.75.43-.27.16-.54.31-.8.48-.21.14-.41.28-.61.43-.28.2-.55.4-.82.61-.18.15-.35.3-.53.45-.26.23-.52.45-.76.69-.18.17-.34.35-.51.53-.22.23-.44.47-.65.71-.18.22-.35.44-.52.66-.17.23-.35.45-.51.68-.18.26-.35.53-.52.81-.13.21-.26.42-.39.64-.17.3-.32.6-.47.91-.1.21-.21.42-.3.63-.14.31-.26.62-.38.94-.09.23-.18.46-.26.7-.1.29-.18.59-.26.89-.08.28-.15.56-.22.84-.06.26-.1.53-.15.79-.06.34-.11.67-.15,1.01-.03.23-.04.46-.06.69-.03.37-.05.75-.06,1.13-.02,1.63.16,3.29.6,4.94l35.39,132.06v-136.72c0-1.71-.25-3.36-.7-4.93Z" style="stroke-width: 0px;"/>
  </g>
</svg>