<?xml version="1.0" encoding="UTF-8"?>
<svg id="icon" xmlns="http://www.w3.org/2000/svg" viewBox="0 0 864 864">
  <g id="other_copy" data-name="other copy">
    <path d="M432,144c-159.06,0-288,128.94-288,288s128.94,288,288,288,288-128.94,288-288-128.94-288-288-288ZM450,630c0,9.94-8.06,18-18,18s-18-8.06-18-18v-195.63l-36.66-136.8c-2.57-9.6,3.13-19.47,12.73-22.05,9.6-2.57,19.47,3.12,22.04,12.73l37.27,139.09c.04.14.05.27.09.41.08.35.16.69.22,1.05.05.29.09.57.13.86.04.28.07.57.09.85.03.36.05.72.05,1.08,0,.14.02.28.02.42v198Z" style="stroke-width: 0px;"/>
  </g>
</svg>