<?xml version="1.0" encoding="UTF-8"?>
<svg id="icon" xmlns="http://www.w3.org/2000/svg" viewBox="0 0 864 864">
  <g id="other_copy" data-name="other copy">
    <path d="M347.93,196.96c-25.72,10.88-48.82,26.46-68.67,46.31-19.85,19.85-35.43,42.95-46.31,68.67-11.25,26.61-16.96,54.89-16.96,84.07s5.71,57.46,16.96,84.07c10.88,25.72,26.46,48.82,46.31,68.67,19.85,19.85,42.95,35.43,68.67,46.31,26.61,11.25,54.89,16.96,84.07,16.96s57.46-5.71,84.07-16.96c25.72-10.88,48.82-26.46,68.67-46.31,19.85-19.85,35.43-42.95,46.31-68.67,11.25-26.61,16.96-54.89,16.96-84.07s-5.71-57.46-16.96-84.07c-10.88-25.72-26.46-48.82-46.31-68.67-19.85-19.85-42.95-35.43-68.67-46.31-26.61-11.25-54.89-16.96-84.07-16.96s-57.46,5.71-84.07,16.96ZM450,222.75v165.79l83.82,83.82c7.03,7.03,7.03,18.43,0,25.46-3.51,3.51-8.12,5.27-12.73,5.27s-9.21-1.76-12.73-5.27l-89.08-89.08c-.43-.43-.83-.87-1.21-1.34-.15-.18-.28-.37-.42-.56-.21-.28-.43-.56-.63-.86-.16-.24-.3-.49-.44-.73-.16-.26-.32-.51-.46-.78-.14-.26-.25-.52-.37-.78-.13-.27-.26-.54-.38-.82-.11-.26-.19-.52-.28-.77-.11-.29-.22-.59-.31-.89-.08-.26-.14-.53-.2-.79-.08-.3-.16-.61-.22-.92-.06-.31-.1-.62-.14-.93-.04-.27-.09-.54-.12-.81-.06-.58-.09-1.17-.09-1.76,0,0,0-.01,0-.02h0v-173.25c0-9.94,8.06-18,18-18s18,8.06,18,18Z" style="fill: none; stroke-width: 0px;"/>
    <path d="M417.66,406.84c-.21-.28-.43-.56-.63-.86.2.3.42.57.63.86Z" style="stroke-width: 0px;"/>
    <path d="M415.75,403.7c-.13-.27-.27-.54-.38-.82.12.28.25.55.38.82Z" style="stroke-width: 0px;"/>
    <path d="M414,222.75v173.25c0-4.61,1.76-9.21,5.27-12.73,7.03-7.03,18.43-7.03,25.46,0l5.27,5.27v-165.79c0-9.94-8.06-18-18-18s-18,8.06-18,18Z" style="stroke-width: 0px;"/>
    <path d="M414.57,400.43c-.08-.31-.16-.61-.22-.92.06.31.15.61.22.92Z" style="stroke-width: 0px;"/>
    <path d="M415.09,402.11c-.11-.29-.22-.59-.31-.89.09.3.2.59.31.89Z" style="stroke-width: 0px;"/>
    <path d="M416.58,405.26c-.16-.26-.32-.51-.46-.78.14.27.3.52.46.78Z" style="stroke-width: 0px;"/>
    <path d="M414.21,398.59c-.04-.27-.09-.54-.12-.81.03.27.08.54.12.81Z" style="stroke-width: 0px;"/>
    <path d="M414,396s0,.01,0,.02c0,0,0-.01,0-.02h0Z" style="stroke-width: 0px;"/>
    <path d="M418.07,407.4c.38.47.79.91,1.21,1.34h-.01c-.43-.44-.82-.88-1.2-1.34Z" style="stroke-width: 0px;"/>
    <path d="M218.45,609.55c-15.3-15.3-28.78-31.99-40.35-49.92-1.39,5.28-2.1,10.77-2.1,16.37v112s178.61,0,178.61,0c-13.65-3.61-27.06-8.2-40.18-13.75-35.97-15.21-68.26-36.98-95.98-64.7Z" style="stroke-width: 0px;"/>
    <path d="M685.9,559.63c-11.57,17.93-25.05,34.62-40.35,49.92-27.72,27.72-60.01,49.49-95.98,64.7-13.13,5.55-26.54,10.14-40.18,13.75h178.62s0-112,0-112c0-5.61-.72-11.1-2.1-16.37Z" style="stroke-width: 0px;"/>
    <path d="M681.54,499.22c-.26.63-.5,1.25-.77,1.88-13.6,32.15-33.07,61.03-57.86,85.82-24.79,24.79-53.66,44.26-85.82,57.86-33.3,14.08-68.66,21.23-105.1,21.23s-71.8-7.14-105.1-21.23c-32.15-13.6-61.03-33.07-85.82-57.86-24.79-24.79-44.26-53.66-57.86-85.82-.27-.64-.52-1.28-.79-1.92-3.61,2.72-7.07,5.69-10.32,8.94-18.13,18.13-28.12,42.24-28.12,67.88v144s576,0,576,0v-144c0-31.36-15.13-59.25-38.46-76.78ZM160,704v-128c0-18.29,6.09-35.63,17.32-49.73,13.57,26.53,31.15,50.67,52.45,71.96,26.25,26.25,56.84,46.87,90.9,61.28,35.28,14.92,72.74,22.49,111.33,22.49s76.05-7.57,111.33-22.49c34.06-14.41,64.64-35.03,90.9-61.28,21.29-21.29,38.87-45.42,52.44-71.94,11.17,13.98,17.33,31.31,17.33,49.71v128s-544,0-544,0Z" style="stroke-width: 0px;"/>
    <path d="M686.67,526.29c-13.57,26.52-31.15,50.66-52.44,71.94-26.25,26.25-56.84,46.87-90.9,61.28-35.28,14.92-72.74,22.49-111.33,22.49s-76.05-7.57-111.33-22.49c-34.06-14.41-64.64-35.03-90.9-61.28-21.29-21.29-38.88-45.43-52.45-71.96-11.23,14.09-17.32,31.44-17.32,49.73v128s544,0,544,0v-128c0-18.4-6.16-35.74-17.33-49.71ZM176,688v-112c0-5.6.72-11.09,2.1-16.37,11.57,17.93,25.05,34.62,40.35,49.92,27.72,27.72,60.01,49.49,95.98,64.7,13.13,5.55,26.54,10.14,40.18,13.75h-178.61ZM509.38,688c13.65-3.61,27.06-8.2,40.18-13.75,35.97-15.21,68.26-36.98,95.98-64.7,15.3-15.3,28.78-31.99,40.35-49.92,1.39,5.27,2.1,10.76,2.1,16.37v112s-178.62,0-178.62,0Z" style="stroke-width: 0px;"/>
    <path d="M432,144c-139.18,0-252,112.82-252,252s112.82,252,252,252,252-112.82,252-252-112.82-252-252-252ZM584.74,548.73c-19.85,19.85-42.95,35.43-68.67,46.31-26.61,11.25-54.89,16.96-84.07,16.96s-57.46-5.71-84.07-16.96c-25.72-10.88-48.82-26.46-68.67-46.31-19.85-19.85-35.43-42.95-46.31-68.67-11.25-26.61-16.96-54.89-16.96-84.07s5.71-57.46,16.96-84.07c10.88-25.72,26.46-48.82,46.31-68.67,19.85-19.85,42.95-35.43,68.67-46.31,26.61-11.25,54.89-16.96,84.07-16.96s57.46,5.71,84.07,16.96c25.72,10.88,48.82,26.46,68.67,46.31,19.85,19.85,35.43,42.95,46.31,68.67,11.25,26.61,16.96,54.89,16.96,84.07s-5.71,57.46-16.96,84.07c-10.88,25.72-26.46,48.82-46.31,68.67Z" style="stroke-width: 0px;"/>
    <path d="M432,414c-4.96,0-9.46-2.01-12.71-5.26l89.08,89.08c3.51,3.51,8.12,5.27,12.73,5.27s9.21-1.76,12.73-5.27c7.03-7.03,7.03-18.43,0-25.46l-83.82-83.82v7.46c0,9.94-8.06,18-18,18Z" style="stroke-width: 0px;"/>
    <path d="M414.35,399.51c-.06-.3-.1-.62-.14-.93.04.31.08.62.14.93Z" style="stroke-width: 0px;"/>
    <path d="M417.03,405.99c-.16-.24-.3-.49-.44-.73.15.24.28.49.44.73Z" style="stroke-width: 0px;"/>
    <path d="M414.78,401.22c-.08-.26-.14-.53-.2-.79.07.26.12.53.2.79Z" style="stroke-width: 0px;"/>
    <path d="M418.07,407.4c-.15-.18-.28-.37-.42-.56.14.19.27.38.42.56Z" style="stroke-width: 0px;"/>
    <path d="M416.12,404.48c-.14-.25-.25-.52-.37-.78.12.26.24.52.37.78Z" style="stroke-width: 0px;"/>
    <path d="M415.37,402.88c-.1-.25-.19-.52-.28-.77.09.26.18.52.28.77Z" style="stroke-width: 0px;"/>
    <path d="M414.09,397.77c-.06-.58-.09-1.16-.09-1.76,0,.59.03,1.17.09,1.76Z" style="stroke-width: 0px;"/>
    <path d="M419.27,383.27c-3.51,3.51-5.27,8.12-5.27,12.73,0,0,0,.01,0,.02,0,.59.03,1.18.09,1.76.03.27.08.54.12.81.04.31.08.62.14.93.06.31.15.61.22.92.07.26.12.53.2.79.09.3.2.59.31.89.09.26.18.52.28.77.11.28.25.55.38.82.12.26.24.52.37.78.14.26.3.52.46.78.15.24.29.49.44.73.2.29.42.57.63.86.14.19.27.38.42.56.37.46.77.9,1.2,1.33h.01c3.26,3.26,7.75,5.27,12.71,5.27,9.94,0,18-8.06,18-18v-7.46l-5.27-5.27c-7.03-7.03-18.43-7.03-25.46,0Z" style="stroke-width: 0px;"/>
  </g>
</svg>