<?xml version="1.0" encoding="UTF-8"?>
<svg id="icon" xmlns="http://www.w3.org/2000/svg" viewBox="0 0 864 864">
  <g id="other_copy" data-name="other copy">
    <path d="M516.07,268.96c-26.61-11.25-54.89-16.96-84.07-16.96s-57.46,5.71-84.07,16.96c-25.72,10.88-48.82,26.46-68.67,46.3s-35.43,42.95-46.3,68.67c-11.25,26.61-16.96,54.89-16.96,84.07s5.71,57.46,16.96,84.07c10.88,25.72,26.46,48.82,46.3,68.67s42.95,35.43,68.67,46.3c26.61,11.25,54.89,16.96,84.07,16.96s57.46-5.71,84.07-16.96c25.72-10.88,48.82-26.46,68.67-46.3s35.43-42.95,46.3-68.67c11.25-26.61,16.96-54.89,16.96-84.07s-5.71-57.46-16.96-84.07c-10.88-25.72-26.46-48.82-46.3-68.67s-42.95-35.43-68.67-46.3ZM500.58,573.12c-11.76,12.24-28.08,19.68-48.96,22.32-1.21.48-1.8,1.2-1.8,2.16l.36,23.76c0,1.2-.42,2.22-1.26,3.06-.84.84-1.86,1.26-3.06,1.26h-28.08c-1.2,0-2.22-.42-3.06-1.26s-1.26-1.86-1.26-3.06l.36-24.12c0-.96-.6-1.68-1.8-2.16-20.88-3.36-37.26-11.22-49.14-23.58-11.88-12.36-17.82-28.02-17.82-46.98v-9c0-1.2.42-2.22,1.26-3.06s1.86-1.26,3.06-1.26h30.24c1.2,0,2.22.42,3.06,1.26.84.84,1.26,1.86,1.26,3.06v6.84c0,11.04,4.68,20.22,14.04,27.54,9.36,7.32,22.08,10.98,38.16,10.98,14.16,0,24.78-3.12,31.86-9.36,7.08-6.24,10.62-14.28,10.62-24.12,0-6.72-1.92-12.42-5.76-17.1-3.84-4.68-9.42-8.88-16.74-12.6-7.32-3.72-18.18-8.58-32.58-14.58-16.08-6.24-29.16-12.12-39.24-17.64-10.08-5.52-18.48-13.02-25.2-22.5-6.72-9.48-10.08-21.3-10.08-35.46,0-18.24,5.58-33.24,16.74-45,11.16-11.76,26.34-19.08,45.54-21.96,1.2-.48,1.8-1.2,1.8-2.16l-.72-26.64c0-1.2.42-2.22,1.26-3.06s1.86-1.26,3.06-1.26h28.08c1.2,0,2.22.42,3.06,1.26.84.84,1.26,1.86,1.26,3.06l-.72,27c0,.96.6,1.68,1.8,2.16,20.4,3.36,36.54,11.52,48.42,24.48s17.82,28.92,17.82,47.88v6.12c0,1.2-.42,2.22-1.26,3.06s-1.86,1.26-3.06,1.26h-30.6c-1.2,0-2.22-.42-3.06-1.26-.84-.84-1.26-1.86-1.26-3.06v-3.96c0-11.28-4.38-20.82-13.14-28.62-8.76-7.8-20.82-11.7-36.18-11.7-12.72,0-22.56,2.76-29.52,8.28-6.96,5.52-10.44,13.32-10.44,23.4,0,7.2,1.86,13.08,5.58,17.64,3.72,4.56,9.24,8.7,16.56,12.42,7.32,3.72,18.54,8.46,33.66,14.22,16.32,6.48,29.34,12.36,39.06,17.64,9.72,5.28,18.06,12.66,25.02,22.14,6.96,9.48,10.44,21.3,10.44,35.46,0,18.96-5.88,34.56-17.64,46.8Z" style="fill: none; stroke-width: 0px;"/>
    <path d="M582.61,291.93l14.4-14.4c-34.18-29.64-76.43-50.22-123.01-58.03v8.5h-84v-8.5c-119.18,20-210,123.63-210,248.5,0,139.18,112.82,252,252,252s252-112.82,252-252c0-63.11-23.2-120.8-61.53-165.01l-14.4,14.4-25.46-25.46ZM648,468c0,29.18-5.71,57.46-16.96,84.07-10.88,25.72-26.46,48.82-46.3,68.67s-42.95,35.43-68.67,46.3c-26.61,11.25-54.89,16.96-84.07,16.96s-57.46-5.71-84.07-16.96c-25.72-10.88-48.82-26.46-68.67-46.3s-35.43-42.95-46.3-68.67c-11.25-26.61-16.96-54.89-16.96-84.07s5.71-57.46,16.96-84.07c10.88-25.72,26.46-48.82,46.3-68.67s42.95-35.43,68.67-46.3c26.61-11.25,54.89-16.96,84.07-16.96s57.46,5.71,84.07,16.96c25.72,10.88,48.82,26.46,68.67,46.3s35.43,42.95,46.3,68.67c11.25,26.61,16.96,54.89,16.96,84.07Z" style="stroke-width: 0px;"/>
    <path d="M482.76,468.72c-9.72-5.28-22.74-11.16-39.06-17.64-15.12-5.76-26.34-10.5-33.66-14.22-7.32-3.72-12.84-7.86-16.56-12.42-3.72-4.56-5.58-10.44-5.58-17.64,0-10.08,3.48-17.88,10.44-23.4,6.96-5.52,16.8-8.28,29.52-8.28,15.36,0,27.42,3.9,36.18,11.7,8.76,7.8,13.14,17.34,13.14,28.62v3.96c0,1.2.42,2.22,1.26,3.06.84.84,1.86,1.26,3.06,1.26h30.6c1.2,0,2.22-.42,3.06-1.26s1.26-1.86,1.26-3.06v-6.12c0-18.96-5.94-34.92-17.82-47.88s-28.02-21.12-48.42-24.48c-1.2-.48-1.8-1.2-1.8-2.16l.72-27c0-1.2-.42-2.22-1.26-3.06-.84-.84-1.86-1.26-3.06-1.26h-28.08c-1.2,0-2.22.42-3.06,1.26s-1.26,1.86-1.26,3.06l.72,26.64c0,.96-.6,1.68-1.8,2.16-19.2,2.88-34.38,10.2-45.54,21.96-11.16,11.76-16.74,26.76-16.74,45,0,14.16,3.36,25.98,10.08,35.46,6.72,9.48,15.12,16.98,25.2,22.5,10.08,5.52,23.16,11.4,39.24,17.64,14.4,6,25.26,10.86,32.58,14.58,7.32,3.72,12.9,7.92,16.74,12.6,3.84,4.68,5.76,10.38,5.76,17.1,0,9.84-3.54,17.88-10.62,24.12-7.08,6.24-17.7,9.36-31.86,9.36-16.08,0-28.8-3.66-38.16-10.98-9.36-7.32-14.04-16.5-14.04-27.54v-6.84c0-1.2-.42-2.22-1.26-3.06-.84-.84-1.86-1.26-3.06-1.26h-30.24c-1.2,0-2.22.42-3.06,1.26s-1.26,1.86-1.26,3.06v9c0,18.96,5.94,34.62,17.82,46.98,11.88,12.36,28.26,20.22,49.14,23.58,1.2.48,1.8,1.2,1.8,2.16l-.36,24.12c0,1.2.42,2.22,1.26,3.06s1.86,1.26,3.06,1.26h28.08c1.2,0,2.22-.42,3.06-1.26.84-.84,1.26-1.86,1.26-3.06l-.36-23.76c0-.96.6-1.68,1.8-2.16,20.88-2.64,37.2-10.08,48.96-22.32,11.76-12.24,17.64-27.84,17.64-46.8,0-14.16-3.48-25.98-10.44-35.46-6.96-9.48-15.3-16.86-25.02-22.14Z" style="stroke-width: 0px;"/>
    <path d="M384,192h6v36h84v-36h6c9.94,0,18-8.06,18-18s-8.06-18-18-18h-96c-9.94,0-18,8.06-18,18s8.06,18,18,18Z" style="stroke-width: 0px;"/>
    <path d="M686.56,281.32l-67.88-67.88c-7.03-7.03-18.43-7.03-25.46,0-7.03,7.03-7.03,18.43,0,25.46l21.21,21.21-17.42,17.42-14.4,14.4,25.46,25.46,14.4-14.4,17.42-17.42,21.21,21.21c3.51,3.52,8.12,5.27,12.73,5.27s9.21-1.76,12.73-5.27c7.03-7.03,7.03-18.43,0-25.46Z" style="stroke-width: 0px;"/>
  </g>
</svg>