<?xml version="1.0" encoding="UTF-8"?>
<svg id="icon" xmlns="http://www.w3.org/2000/svg" viewBox="0 0 864 864">
  <g id="other_copy" data-name="other copy">
    <path d="M333.92,664.21c31.04,13.13,64.04,19.79,98.08,19.79s67.03-6.66,98.08-19.79c30-12.69,56.96-30.87,80.11-54.02,23.15-23.15,41.33-50.11,54.02-80.11,13.13-31.04,19.79-64.04,19.79-98.08s-6.66-67.03-19.79-98.08c-12.69-30-30.87-56.96-54.02-80.11-23.15-23.16-50.11-41.33-80.11-54.02-31.04-13.13-64.04-19.79-98.08-19.79s-67.03,6.66-98.08,19.79c-30,12.69-56.96,30.87-80.11,54.02-23.15,23.15-41.33,50.11-54.02,80.11-13.13,31.04-19.79,64.04-19.79,98.08s6.66,67.03,19.79,98.08c12.69,30,30.87,56.96,54.02,80.11,23.15,23.16,50.11,41.33,80.11,54.02ZM414,432c0-.59.03-1.19.09-1.78.03-.27.08-.53.11-.79.05-.32.08-.64.15-.95.06-.3.14-.59.22-.89.07-.27.13-.55.21-.82.09-.29.2-.57.3-.85.1-.27.19-.54.3-.81.11-.26.24-.52.36-.77.13-.27.25-.55.4-.82.13-.25.28-.48.42-.72.16-.27.31-.53.48-.79.17-.26.37-.51.56-.76.16-.22.32-.44.49-.66.36-.44.75-.87,1.15-1.27.02-.02.03-.03.04-.05.01-.01.03-.03.05-.04.41-.4.83-.79,1.27-1.15.21-.18.44-.33.66-.49.25-.19.5-.38.76-.56.26-.17.53-.32.8-.48.24-.14.47-.29.71-.42.27-.14.55-.27.82-.4.26-.12.51-.25.77-.36.27-.11.54-.2.81-.3.28-.1.56-.21.85-.3.27-.08.55-.14.82-.21.29-.07.59-.16.89-.22.32-.06.64-.1.96-.15.26-.04.52-.09.79-.11.59-.06,1.18-.09,1.78-.09s1.19.03,1.78.09c.27.03.52.08.79.11.32.05.64.08.96.15.3.06.59.14.89.22.27.07.55.13.82.21.29.09.57.2.85.3.27.1.55.19.81.3.26.11.51.24.77.36.28.13.55.25.83.4.24.13.48.28.71.42.27.16.54.31.8.48.26.17.51.37.76.56.22.16.44.32.66.49.44.36.87.75,1.27,1.15.01.01.03.03.05.04l101.82,101.82c7.03,7.03,7.03,18.43,0,25.46-3.51,3.51-8.12,5.27-12.73,5.27s-9.21-1.76-12.73-5.27l-71.1-71.1v154.54c0,9.94-8.06,18-18,18s-18-8.06-18-18v-198Z" style="fill: none; stroke-width: 0px;"/>
    <path d="M432,720c159.06,0,288-128.94,288-288s-128.94-288-288-288S144,272.94,144,432s128.94,288,288,288ZM180,432c0-34.04,6.66-67.03,19.79-98.08,12.69-30,30.87-56.96,54.02-80.11,23.15-23.16,50.11-41.33,80.11-54.02,31.04-13.13,64.04-19.79,98.08-19.79s67.03,6.66,98.08,19.79c30,12.69,56.96,30.87,80.11,54.02,23.15,23.15,41.33,50.11,54.02,80.11,13.13,31.04,19.79,64.04,19.79,98.08s-6.66,67.03-19.79,98.08c-12.69,30-30.87,56.96-54.02,80.11-23.15,23.16-50.11,41.33-80.11,54.02-31.04,13.13-64.04,19.79-98.08,19.79s-67.03-6.66-98.08-19.79c-30-12.69-56.96-30.87-80.11-54.02-23.15-23.15-41.33-50.11-54.02-80.11-13.13-31.04-19.79-64.04-19.79-98.08Z" style="stroke-width: 0px;"/>
    <path d="M417.03,422c.17-.26.37-.51.56-.76-.19.25-.38.5-.56.76Z" style="stroke-width: 0px;"/>
    <path d="M418.08,420.59c.36-.44.74-.86,1.15-1.27-.4.41-.79.83-1.15,1.27Z" style="stroke-width: 0px;"/>
    <path d="M442,417.03c.26.17.51.37.76.56-.25-.19-.5-.38-.76-.56Z" style="stroke-width: 0px;"/>
    <path d="M440.49,416.13c.24.13.48.28.71.42-.24-.14-.47-.29-.71-.42Z" style="stroke-width: 0px;"/>
    <path d="M432,648c9.94,0,18-8.06,18-18v-154.54l-30.73-30.73c-3.51-3.51-5.27-8.12-5.27-12.73v198c0,9.94,8.06,18,18,18Z" style="stroke-width: 0px;"/>
    <path d="M443.41,418.08c.44.36.86.74,1.27,1.15-.41-.4-.83-.79-1.27-1.15Z" style="stroke-width: 0px;"/>
    <path d="M424.34,415.73c.26-.12.51-.25.77-.36-.26.11-.52.24-.77.36Z" style="stroke-width: 0px;"/>
    <path d="M415.37,425.11c.11-.26.24-.52.36-.77-.12.26-.25.51-.36.77Z" style="stroke-width: 0px;"/>
    <path d="M414.35,428.48c.06-.3.14-.59.22-.89-.07.3-.16.59-.22.89Z" style="stroke-width: 0px;"/>
    <path d="M416.13,423.52c.13-.24.28-.48.42-.72-.14.24-.29.47-.42.72Z" style="stroke-width: 0px;"/>
    <path d="M414.78,426.77c.09-.29.2-.57.3-.85-.1.28-.21.56-.3.85Z" style="stroke-width: 0px;"/>
    <path d="M414.09,430.22c.03-.26.08-.53.11-.79-.04.26-.09.52-.11.79Z" style="stroke-width: 0px;"/>
    <path d="M437.23,414.78c.29.09.57.2.85.3-.28-.1-.56-.21-.85-.3Z" style="stroke-width: 0px;"/>
    <path d="M438.89,415.37c.26.11.51.24.77.36-.26-.12-.51-.25-.77-.36Z" style="stroke-width: 0px;"/>
    <path d="M435.52,414.35c.3.06.59.14.89.22-.29-.07-.59-.16-.89-.22Z" style="stroke-width: 0px;"/>
    <path d="M427.6,414.57c.29-.07.59-.16.89-.22-.3.06-.59.14-.89.22Z" style="stroke-width: 0px;"/>
    <path d="M433.78,414.09c.26.03.52.08.79.11-.26-.04-.52-.09-.79-.11Z" style="stroke-width: 0px;"/>
    <path d="M429.44,414.2c.26-.04.52-.09.79-.11-.27.03-.52.08-.79.11Z" style="stroke-width: 0px;"/>
    <path d="M421.25,417.59c.25-.19.5-.38.76-.56-.26.17-.51.37-.76.56Z" style="stroke-width: 0px;"/>
    <path d="M419.32,419.23c.41-.41.83-.79,1.27-1.15-.44.36-.87.75-1.27,1.15Z" style="stroke-width: 0px;"/>
    <path d="M425.92,415.07c.28-.1.56-.21.85-.3-.29.09-.57.2-.85.3Z" style="stroke-width: 0px;"/>
    <path d="M422.8,416.55c.24-.14.47-.29.71-.42-.24.13-.48.28-.71.42Z" style="stroke-width: 0px;"/>
    <path d="M436.4,414.57c.27.07.55.13.82.21-.27-.08-.55-.14-.82-.21Z" style="stroke-width: 0px;"/>
    <path d="M414.2,429.43c.05-.32.08-.64.15-.95-.06.31-.1.63-.15.95Z" style="stroke-width: 0px;"/>
    <path d="M434.56,414.2c.32.05.64.08.96.15-.32-.06-.64-.1-.96-.15Z" style="stroke-width: 0px;"/>
    <path d="M414.57,427.59c.07-.27.13-.55.21-.82-.08.27-.14.54-.21.82Z" style="stroke-width: 0px;"/>
    <path d="M450,432v43.46l71.1,71.1c3.51,3.51,8.12,5.27,12.73,5.27s9.21-1.76,12.73-5.27c7.03-7.03,7.03-18.43,0-25.46l-101.82-101.82s-.03-.03-.05-.04c3.28,3.26,5.32,7.78,5.32,12.77Z" style="stroke-width: 0px;"/>
    <path d="M419.32,419.23s-.03.03-.05.04c-.02.02-.03.03-.04.05.03-.03.06-.06.09-.09Z" style="stroke-width: 0px;"/>
    <path d="M442.75,417.59c.22.16.45.32.66.49-.21-.18-.44-.33-.66-.49Z" style="stroke-width: 0px;"/>
    <path d="M438.08,415.07c.27.1.55.19.81.3-.27-.11-.54-.2-.81-.3Z" style="stroke-width: 0px;"/>
    <path d="M439.66,415.73c.28.13.56.25.83.4-.27-.14-.55-.27-.83-.4Z" style="stroke-width: 0px;"/>
    <path d="M441.2,416.55c.27.16.54.31.8.48-.26-.17-.53-.32-.8-.48Z" style="stroke-width: 0px;"/>
    <path d="M414,432c0-.6.03-1.19.09-1.78-.06.59-.09,1.18-.09,1.78Z" style="stroke-width: 0px;"/>
    <path d="M417.59,421.25c.16-.22.32-.44.49-.66-.17.21-.33.44-.49.66Z" style="stroke-width: 0px;"/>
    <path d="M420.59,418.08c.21-.17.44-.33.66-.49-.22.16-.44.32-.66.49Z" style="stroke-width: 0px;"/>
    <path d="M432,414c.6,0,1.19.03,1.78.09-.59-.06-1.18-.09-1.78-.09Z" style="stroke-width: 0px;"/>
    <path d="M415.07,425.92c.1-.27.19-.55.3-.81-.11.27-.2.54-.3.81Z" style="stroke-width: 0px;"/>
    <path d="M423.51,416.13c.27-.14.55-.27.82-.4-.28.13-.55.25-.82.4Z" style="stroke-width: 0px;"/>
    <path d="M416.55,422.8c.16-.27.31-.54.48-.79-.17.26-.32.53-.48.79Z" style="stroke-width: 0px;"/>
    <path d="M415.73,424.34c.13-.28.25-.55.4-.82-.14.27-.27.55-.4.82Z" style="stroke-width: 0px;"/>
    <path d="M422,417.03c.26-.17.53-.32.8-.48-.27.16-.54.31-.8.48Z" style="stroke-width: 0px;"/>
    <path d="M428.48,414.35c.31-.06.64-.1.96-.15-.32.05-.64.08-.96.15Z" style="stroke-width: 0px;"/>
    <path d="M426.77,414.78c.27-.08.55-.14.82-.21-.27.07-.55.13-.82.21Z" style="stroke-width: 0px;"/>
    <path d="M430.22,414.09c.58-.06,1.18-.09,1.78-.09-.59,0-1.19.03-1.78.09Z" style="stroke-width: 0px;"/>
    <path d="M425.11,415.37c.27-.11.54-.2.81-.3-.27.1-.54.19-.81.3Z" style="stroke-width: 0px;"/>
    <path d="M450,475.46v-43.46c0-4.99-2.03-9.51-5.32-12.77-.41-.41-.83-.79-1.27-1.15-.21-.17-.44-.33-.66-.49-.25-.19-.5-.38-.76-.56-.26-.17-.53-.32-.8-.48-.24-.14-.47-.29-.71-.42-.27-.14-.55-.27-.83-.4-.26-.12-.51-.25-.77-.36-.27-.11-.54-.2-.81-.3-.28-.1-.56-.21-.85-.3-.27-.08-.55-.14-.82-.21-.29-.07-.59-.16-.89-.22-.31-.06-.64-.1-.96-.15-.26-.04-.52-.09-.79-.11-.58-.06-1.18-.09-1.78-.09s-1.19.03-1.78.09c-.26.03-.52.08-.79.11-.32.05-.64.08-.96.15-.3.06-.59.14-.89.22-.27.07-.55.13-.82.21-.29.09-.57.2-.85.3-.27.1-.55.19-.81.3-.26.11-.52.24-.77.36-.28.13-.56.25-.82.4-.24.13-.48.28-.71.42-.27.16-.54.31-.8.48-.26.17-.51.37-.76.56-.22.16-.45.32-.66.49-.44.36-.86.74-1.27,1.15-.03.03-.06.06-.09.09-.41.41-.79.83-1.15,1.27-.17.21-.33.44-.49.66-.19.25-.38.5-.56.76-.17.26-.32.53-.48.79-.14.24-.29.47-.42.72-.14.27-.27.55-.4.82-.12.26-.25.51-.36.77-.11.26-.2.54-.3.81-.1.28-.21.57-.3.85-.08.27-.14.54-.21.82-.07.3-.16.59-.22.89-.06.31-.1.63-.15.95-.04.26-.09.53-.11.79-.06.58-.09,1.18-.09,1.78,0,4.61,1.76,9.21,5.27,12.73l30.73,30.73Z" style="stroke-width: 0px;"/>
  </g>
</svg>