<?xml version="1.0" encoding="UTF-8"?>
<svg id="icon" xmlns="http://www.w3.org/2000/svg" viewBox="0 0 864 864">
  <g id="other_copy" data-name="other copy">
    <path d="M180,684h504s0-504,0-504H180v504ZM259.13,552.59c-2.83,1.64-5.93,2.41-8.98,2.41-6.22,0-12.27-3.23-15.6-9-4.97-8.61-2.02-19.62,6.59-24.59,2.83-1.64,5.93-2.41,8.98-2.41,6.22,0,12.27,3.23,15.6,9,4.97,8.61,2.02,19.62-6.59,24.59ZM660,432c0,9.94-8.06,18-18,18s-18-8.06-18-18,8.06-18,18-18,18,8.06,18,18ZM604.87,311.41c2.83-1.64,5.93-2.41,8.98-2.41,6.22,0,12.27,3.23,15.6,9,4.97,8.61,2.02,19.62-6.59,24.59-2.83,1.64-5.93,2.41-8.98,2.41-6.22,0-12.27-3.23-15.6-9-4.97-8.61-2.02-19.62,6.59-24.59ZM598.28,528c3.33-5.77,9.38-9,15.6-9,3.05,0,6.15.78,8.98,2.41,8.61,4.97,11.56,15.98,6.59,24.59-3.33,5.77-9.38,9-15.6,9-3.05,0-6.15-.78-8.98-2.41-8.61-4.97-11.56-15.98-6.59-24.59ZM521.41,241.13c3.33-5.77,9.38-9,15.6-9,3.05,0,6.15.78,8.98,2.41,8.61,4.97,11.56,15.98,6.59,24.59-3.33,5.77-9.38,9-15.6,9-3.05,0-6.15-.78-8.98-2.41-8.61-4.97-11.56-15.98-6.59-24.59ZM528,598.28c2.83-1.64,5.93-2.41,8.98-2.41,6.22,0,12.27,3.23,15.61,9,4.97,8.61,2.02,19.62-6.59,24.59-2.83,1.64-5.93,2.41-8.98,2.41-6.22,0-12.27-3.23-15.6-9-4.97-8.61-2.02-19.62,6.59-24.59ZM450,639c0,.51-.04,1-.08,1.5.04.5.08.99.08,1.5,0,9.94-8.06,18-18,18s-18-8.06-18-18c0-.51.04-1,.08-1.5-.04-.5-.08-.99-.08-1.5v-199.54l-96.55-96.55c-7.03-7.03-7.03-18.43,0-25.46,7.03-7.03,18.43-7.03,25.46,0l101.82,101.82c.42.42.82.86,1.2,1.32.17.2.31.42.47.63.2.26.4.51.58.78.17.26.32.52.48.78.14.24.29.48.43.72.14.27.27.55.4.82.12.26.25.51.36.77.11.27.2.54.3.82.1.28.21.56.29.84.08.28.14.55.21.83.07.29.15.58.21.88.06.32.1.65.15.98.04.25.08.5.11.76.06.59.09,1.19.09,1.78v206.99ZM432,204c9.94,0,18,8.06,18,18s-8.06,18-18,18-18-8.06-18-18,8.06-18,18-18ZM318,234.55c2.83-1.64,5.93-2.41,8.98-2.41,6.22,0,12.27,3.23,15.6,9,4.97,8.61,2.02,19.62-6.59,24.59-2.83,1.64-5.93,2.41-8.98,2.41-6.22,0-12.27-3.23-15.61-9-4.97-8.61-2.02-19.62,6.59-24.59ZM311.41,604.87c3.33-5.77,9.38-9,15.6-9,3.05,0,6.15.78,8.98,2.41,8.61,4.97,11.56,15.98,6.59,24.59-3.33,5.77-9.38,9-15.6,9-3.05,0-6.15-.78-8.98-2.41-8.61-4.97-11.56-15.98-6.59-24.59ZM234.55,318c3.33-5.77,9.38-9,15.6-9,3.05,0,6.15.78,8.98,2.41,8.61,4.97,11.56,15.98,6.59,24.59-3.33,5.77-9.38,9-15.6,9-3.05,0-6.15-.78-8.98-2.41-8.61-4.97-11.56-15.98-6.59-24.59ZM222,414c9.94,0,18,8.06,18,18s-8.06,18-18,18-18-8.06-18-18,8.06-18,18-18Z" style="fill: none; stroke-width: 0px;"/>
    <path d="M684,144H180c-19.88,0-36,16.12-36,36v504c0,19.88,16.12,36,36,36h504c19.88,0,36-16.12,36-36V180c0-19.88-16.12-36-36-36ZM684,684H180s0-504,0-504h504v504Z" style="stroke-width: 0px;"/>
    <path d="M432,657c-9.43,0-17.16-7.26-17.92-16.5-.04.5-.08.99-.08,1.5,0,9.94,8.06,18,18,18s18-8.06,18-18c0-.51-.04-1-.08-1.5-.76,9.24-8.49,16.5-17.92,16.5Z" style="stroke-width: 0px;"/>
    <circle cx="432" cy="222" r="18" style="stroke-width: 0px;"/>
    <circle cx="642" cy="432" r="18" style="stroke-width: 0px;"/>
    <circle cx="222" cy="432" r="18" style="stroke-width: 0px;"/>
    <path d="M318,629.45c2.83,1.64,5.93,2.41,8.98,2.41,6.22,0,12.27-3.23,15.6-9,4.97-8.61,2.02-19.62-6.59-24.59-2.83-1.64-5.93-2.41-8.98-2.41-6.22,0-12.27,3.23-15.6,9-4.97,8.61-2.02,19.62,6.59,24.59Z" style="stroke-width: 0px;"/>
    <path d="M528,265.72c2.83,1.64,5.93,2.41,8.98,2.41,6.22,0,12.27-3.23,15.6-9,4.97-8.61,2.02-19.62-6.59-24.59-2.83-1.64-5.93-2.41-8.98-2.41-6.22,0-12.27,3.23-15.6,9-4.97,8.61-2.02,19.62,6.59,24.59Z" style="stroke-width: 0px;"/>
    <path d="M604.87,552.59c2.83,1.64,5.93,2.41,8.98,2.41,6.22,0,12.27-3.23,15.6-9,4.97-8.61,2.02-19.62-6.59-24.59-2.83-1.64-5.93-2.41-8.98-2.41-6.22,0-12.27,3.23-15.6,9-4.97,8.61-2.02,19.62,6.59,24.59Z" style="stroke-width: 0px;"/>
    <path d="M241.13,342.59c2.83,1.64,5.93,2.41,8.98,2.41,6.22,0,12.27-3.23,15.6-9,4.97-8.61,2.02-19.62-6.59-24.59-2.83-1.64-5.93-2.41-8.98-2.41-6.22,0-12.27,3.23-15.6,9-4.97,8.61-2.02,19.62,6.59,24.59Z" style="stroke-width: 0px;"/>
    <path d="M250.12,519c-3.05,0-6.15.78-8.98,2.41-8.61,4.97-11.56,15.98-6.59,24.59,3.33,5.77,9.38,9,15.6,9,3.05,0,6.15-.78,8.98-2.41,8.61-4.97,11.56-15.98,6.59-24.59-3.33-5.77-9.38-9-15.6-9Z" style="stroke-width: 0px;"/>
    <path d="M613.88,345c3.05,0,6.15-.78,8.98-2.41,8.61-4.97,11.56-15.98,6.59-24.59-3.33-5.77-9.38-9-15.6-9-3.05,0-6.15.78-8.98,2.41-8.61,4.97-11.56,15.98-6.59,24.59,3.33,5.77,9.38,9,15.6,9Z" style="stroke-width: 0px;"/>
    <path d="M537.02,631.87c3.05,0,6.15-.78,8.98-2.41,8.61-4.97,11.56-15.98,6.59-24.59-3.33-5.77-9.38-9-15.61-9-3.05,0-6.15.78-8.98,2.41-8.61,4.97-11.56,15.98-6.59,24.59,3.33,5.77,9.38,9,15.6,9Z" style="stroke-width: 0px;"/>
    <path d="M327.02,268.14c3.05,0,6.15-.78,8.98-2.41,8.61-4.97,11.56-15.98,6.59-24.59-3.33-5.77-9.38-9-15.6-9-3.05,0-6.15.78-8.98,2.41-8.61,4.97-11.56,15.98-6.59,24.59,3.33,5.77,9.38,9,15.61,9Z" style="stroke-width: 0px;"/>
    <path d="M446.39,421.22c.2.26.4.52.58.78-.18-.27-.38-.52-.58-.78Z" style="stroke-width: 0px;"/>
    <path d="M448.27,424.34c.12.26.25.51.36.77-.11-.26-.24-.52-.36-.77Z" style="stroke-width: 0px;"/>
    <path d="M447.45,422.79c.14.24.3.48.43.72-.13-.25-.28-.48-.43-.72Z" style="stroke-width: 0px;"/>
    <path d="M445.92,420.59c-.38-.46-.78-.9-1.2-1.32h0c.42.43.82.87,1.19,1.32Z" style="stroke-width: 0px;"/>
    <path d="M432,450c-4.61,0-9.21-1.76-12.73-5.27l-5.27-5.27v199.54c0,.51.04,1,.08,1.5.76-9.24,8.49-16.5,17.92-16.5s17.16,7.26,17.92,16.5c.04-.5.08-.99.08-1.5v-206.99c0,4.6-1.76,9.21-5.27,12.72-3.51,3.51-8.12,5.27-12.73,5.27Z" style="stroke-width: 0px;"/>
    <path d="M449.44,427.61c.07.29.16.58.21.88-.06-.3-.14-.58-.21-.88Z" style="stroke-width: 0px;"/>
    <path d="M449.8,429.46c.04.25.08.51.11.76-.03-.26-.07-.51-.11-.76Z" style="stroke-width: 0px;"/>
    <path d="M448.93,425.93c.1.28.21.56.29.84-.09-.29-.19-.56-.29-.84Z" style="stroke-width: 0px;"/>
    <path d="M432,624c-9.43,0-17.16,7.26-17.92,16.5.76,9.24,8.49,16.5,17.92,16.5s17.16-7.26,17.92-16.5c-.76-9.24-8.49-16.5-17.92-16.5Z" style="stroke-width: 0px;"/>
    <path d="M432,414c4.97,0,9.47,2.01,12.72,5.27l-101.82-101.82c-7.03-7.03-18.43-7.03-25.46,0-7.03,7.03-7.03,18.43,0,25.46l96.55,96.55v-7.46c0-9.94,8.06-18,18-18Z" style="stroke-width: 0px;"/>
    <path d="M447.87,423.52c.14.27.27.55.4.82-.13-.28-.25-.55-.4-.82Z" style="stroke-width: 0px;"/>
    <path d="M448.63,425.11c.11.27.2.54.3.82-.1-.27-.19-.55-.3-.82Z" style="stroke-width: 0px;"/>
    <path d="M446.97,422.01c.17.25.32.52.48.78-.16-.26-.31-.53-.48-.78Z" style="stroke-width: 0px;"/>
    <path d="M445.92,420.59c.17.2.31.42.47.63-.16-.21-.3-.43-.47-.63Z" style="stroke-width: 0px;"/>
    <path d="M449.22,426.77c.08.27.14.55.21.83-.07-.28-.13-.56-.21-.83Z" style="stroke-width: 0px;"/>
    <path d="M449.91,430.22c.06.59.09,1.18.09,1.78h0c0-.59-.03-1.19-.09-1.78Z" style="stroke-width: 0px;"/>
    <path d="M449.65,428.48c.06.32.1.65.15.98-.05-.33-.09-.66-.15-.98Z" style="stroke-width: 0px;"/>
    <path d="M449.91,430.22c-.03-.25-.07-.51-.11-.76-.05-.33-.09-.66-.15-.98-.06-.29-.14-.58-.21-.88-.07-.28-.13-.56-.21-.83-.09-.28-.19-.56-.29-.84-.1-.27-.19-.55-.3-.82-.11-.26-.24-.52-.36-.77-.13-.28-.25-.55-.4-.82-.13-.25-.28-.48-.43-.72-.16-.26-.31-.53-.48-.78-.18-.27-.38-.52-.58-.78-.16-.21-.3-.43-.47-.63-.37-.45-.77-.9-1.19-1.32h0c-3.26-3.26-7.76-5.27-12.72-5.27-9.94,0-18,8.06-18,18v7.46l5.27,5.27c3.51,3.51,8.12,5.27,12.73,5.27s9.21-1.76,12.73-5.27c3.51-3.51,5.27-8.12,5.27-12.72h0c0-.61-.03-1.2-.09-1.78Z" style="stroke-width: 0px;"/>
  </g>
</svg>