<?xml version="1.0" encoding="UTF-8"?>
<svg id="icon" xmlns="http://www.w3.org/2000/svg" viewBox="0 0 864 864">
  <g id="other_copy" data-name="other copy">
    <path d="M684,144H180c-19.88,0-36,16.12-36,36v504c0,19.88,16.12,36,36,36h504c19.88,0,36-16.12,36-36V180c0-19.88-16.12-36-36-36ZM265.72,336c-3.33,5.77-9.38,9-15.61,9-3.05,0-6.15-.78-8.98-2.41-8.61-4.97-11.56-15.98-6.59-24.59,3.33-5.77,9.38-9,15.61-9,3.05,0,6.15.78,8.98,2.41,8.61,4.97,11.56,15.98,6.59,24.59ZM259.13,552.59c-2.83,1.64-5.93,2.41-8.98,2.41-6.22,0-12.27-3.23-15.61-9-4.97-8.61-2.02-19.62,6.59-24.59,2.83-1.64,5.93-2.41,8.98-2.41,6.22,0,12.27,3.23,15.6,9,4.97,8.61,2.02,19.62-6.59,24.59ZM240,432c0,9.94-8.06,18-18,18s-18-8.06-18-18,8.06-18,18-18,18,8.06,18,18ZM414,222c0-9.94,8.06-18,18-18s18,8.06,18,18c0,.51-.04,1-.08,1.5.04.5.08.99.08,1.5v207c0,.17-.02.33-.03.49,0,.36-.02.72-.05,1.07-.02.28-.06.56-.1.84-.04.29-.08.58-.13.86-.06.32-.13.64-.21.96-.06.24-.12.48-.18.72-.09.33-.2.66-.31.98-.08.23-.16.45-.25.67-.12.31-.25.61-.39.91-.11.24-.22.47-.34.71-.14.27-.28.53-.43.79-.15.26-.3.51-.46.76-.14.22-.29.43-.44.65-.19.27-.39.54-.59.79-.15.19-.3.37-.46.55-.22.26-.45.51-.69.76-.17.18-.35.35-.53.52-.24.22-.47.45-.73.66-.22.19-.45.36-.68.54-.22.17-.45.35-.68.51-.29.2-.59.39-.9.58-.14.09-.27.19-.42.27-.07.04-.15.08-.22.12-.16.09-.32.17-.48.26-.33.17-.67.33-1,.48-.13.06-.26.12-.39.18-.46.19-.93.36-1.4.51-.13.04-.25.08-.38.12-.45.13-.9.25-1.35.35-.06.01-.13.03-.19.04-.54.11-1.08.19-1.63.25-.08,0-.16.02-.24.02-.56.05-1.13.09-1.69.09s-1.11-.04-1.66-.09c-.12-.01-.24-.02-.36-.04-.51-.06-1.01-.13-1.51-.23-.14-.03-.28-.06-.42-.1-.37-.08-.73-.18-1.09-.28-.18-.05-.35-.1-.52-.16-.44-.14-.88-.3-1.32-.48-.15-.06-.29-.13-.43-.19-.35-.16-.7-.32-1.04-.5-.12-.06-.24-.12-.36-.19-.45-.25-.88-.51-1.31-.8-.06-.04-.11-.08-.17-.12-.4-.27-.79-.57-1.17-.88-.05-.04-.1-.08-.16-.12-.42-.35-.83-.72-1.22-1.11,0,0-.01-.01-.02-.02-.36-.36-.7-.74-1.03-1.13-.07-.08-.14-.17-.21-.25-.31-.38-.61-.78-.89-1.19-.03-.04-.05-.08-.08-.12-.22-.33-.43-.67-.64-1.02l-72-124.71c-4.97-8.61-2.02-19.62,6.59-24.59,8.61-4.97,19.62-2.02,24.59,6.59l38.41,66.53v-139.82c0-.51.04-1,.08-1.5-.04-.5-.08-.99-.08-1.5ZM450,642c0,9.94-8.06,18-18,18s-18-8.06-18-18,8.06-18,18-18,18,8.06,18,18ZM336,265.72c-2.83,1.64-5.93,2.41-8.98,2.41-6.22,0-12.27-3.23-15.61-9-4.97-8.61-2.02-19.62,6.59-24.59,2.83-1.64,5.93-2.41,8.98-2.41,6.22,0,12.27,3.23,15.61,9,4.97,8.61,2.02,19.62-6.59,24.59ZM311.41,604.87c3.33-5.77,9.38-9,15.61-9,3.05,0,6.15.78,8.98,2.41,8.61,4.97,11.56,15.98,6.59,24.59-3.33,5.77-9.38,9-15.61,9-3.05,0-6.15-.78-8.98-2.41-8.61-4.97-11.56-15.98-6.59-24.59ZM528,598.28c2.83-1.64,5.93-2.41,8.98-2.41,6.22,0,12.27,3.23,15.61,9,4.97,8.61,2.02,19.62-6.59,24.59-2.83,1.64-5.93,2.41-8.98,2.41-6.22,0-12.27-3.23-15.61-9-4.97-8.61-2.02-19.62,6.59-24.59ZM521.41,241.13c3.33-5.77,9.38-9,15.61-9,3.05,0,6.15.78,8.98,2.41,8.61,4.97,11.56,15.98,6.59,24.59-3.33,5.77-9.38,9-15.61,9-3.05,0-6.15-.78-8.98-2.41-8.61-4.97-11.56-15.98-6.59-24.59ZM598.28,528c3.33-5.77,9.38-9,15.61-9,3.05,0,6.15.78,8.98,2.41,8.61,4.97,11.56,15.98,6.59,24.59-3.33,5.77-9.38,9-15.61,9-3.05,0-6.15-.78-8.98-2.41-8.61-4.97-11.56-15.98-6.59-24.59ZM604.87,311.41c2.83-1.64,5.93-2.41,8.98-2.41,6.22,0,12.27,3.23,15.61,9,4.97,8.61,2.02,19.62-6.59,24.59-2.83,1.64-5.93,2.41-8.98,2.41-6.22,0-12.27-3.23-15.6-9-4.97-8.61-2.02-19.62,6.59-24.59ZM642,450c-9.94,0-18-8.06-18-18s8.06-18,18-18,18,8.06,18,18-8.06,18-18,18Z" style="stroke-width: 0px;"/>
  </g>
</svg>