<?xml version="1.0" encoding="UTF-8"?>
<svg id="icon" xmlns="http://www.w3.org/2000/svg" viewBox="0 0 864 864">
  <g id="other_copy" data-name="other copy">
    <path d="M684,144H180c-19.88,0-36,16.12-36,36v504c0,19.88,16.12,36,36,36h504c19.88,0,36-16.12,36-36V180c0-19.88-16.12-36-36-36ZM265.72,336c-3.33,5.77-9.38,9-15.61,9-3.05,0-6.15-.78-8.98-2.41-8.61-4.97-11.56-15.98-6.59-24.59,3.33-5.77,9.38-9,15.61-9,3.05,0,6.15.78,8.98,2.41,8.61,4.97,11.56,15.98,6.59,24.59ZM259.13,552.59c-2.83,1.64-5.93,2.41-8.98,2.41-6.22,0-12.27-3.23-15.61-9-4.97-8.61-2.02-19.62,6.59-24.59,2.83-1.64,5.93-2.41,8.98-2.41,6.22,0,12.27,3.23,15.61,9,4.97,8.61,2.02,19.62-6.59,24.59ZM240,432c0,9.94-8.06,18-18,18s-18-8.06-18-18,8.06-18,18-18,18,8.06,18,18ZM311.41,604.87c3.33-5.77,9.38-9,15.6-9,3.05,0,6.15.78,8.98,2.41,8.61,4.97,11.56,15.98,6.59,24.59-3.33,5.77-9.38,9-15.61,9-3.05,0-6.15-.78-8.98-2.41-8.61-4.97-11.56-15.98-6.59-24.59ZM318,234.55c2.83-1.64,5.93-2.41,8.98-2.41,6.22,0,12.27,3.23,15.61,9,4.97,8.61,2.02,19.62-6.59,24.59-2.83,1.64-5.93,2.41-8.98,2.41-6.22,0-12.27-3.23-15.61-9-4.97-8.61-2.02-19.62,6.59-24.59ZM414,639v-207c0-.14.02-.28.02-.42,0-.36.02-.71.05-1.07.02-.29.06-.57.1-.86.04-.28.08-.57.13-.85.06-.35.14-.7.23-1.05.03-.14.05-.27.09-.41.02-.09.06-.18.09-.27.1-.37.22-.72.35-1.08.08-.22.15-.44.24-.65.13-.32.27-.63.41-.94.11-.24.23-.49.35-.72.13-.26.28-.51.43-.76.16-.27.31-.54.48-.79.14-.21.28-.41.43-.61.2-.28.4-.55.61-.82.15-.18.3-.35.45-.52.23-.26.45-.52.7-.77.17-.17.35-.34.53-.51.24-.22.47-.44.72-.65.21-.18.44-.35.66-.52.23-.17.45-.35.69-.51.26-.18.53-.35.8-.51.21-.13.43-.27.64-.39.29-.17.6-.32.9-.47.21-.1.42-.21.64-.31.3-.14.62-.25.93-.37.24-.09.47-.18.71-.26.29-.1.59-.18.88-.26.28-.08.56-.16.85-.22.26-.06.52-.1.78-.15.34-.06.68-.12,1.02-.16.23-.03.45-.04.68-.06.38-.03.76-.05,1.14-.06.09,0,.18-.01.28-.01.14,0,.28.02.42.02.36,0,.72.02,1.08.05.29.02.57.06.85.09.29.04.57.08.86.13.35.06.7.14,1.05.22.14.03.27.05.41.09l139.09,37.27c9.6,2.57,15.3,12.44,12.73,22.04-2.15,8.04-9.43,13.35-17.38,13.35-1.54,0-3.11-.2-4.67-.62l-116.43-31.2v183.54c0,.51-.03,1-.08,1.5.04.5.08.99.08,1.5,0,9.94-8.06,18-18,18s-18-8.06-18-18c0-.51.03-1,.08-1.5-.04-.5-.08-.99-.08-1.5ZM414,222c0-9.94,8.06-18,18-18s18,8.06,18,18-8.06,18-18,18-18-8.06-18-18ZM521.41,241.13c3.33-5.77,9.38-9,15.61-9,3.05,0,6.15.78,8.98,2.41,8.61,4.97,11.56,15.98,6.59,24.59-3.33,5.77-9.38,9-15.6,9-3.05,0-6.15-.78-8.98-2.41-8.61-4.97-11.56-15.98-6.59-24.59ZM546,629.45c-2.83,1.64-5.93,2.41-8.98,2.41-6.22,0-12.27-3.23-15.6-9-4.97-8.61-2.02-19.62,6.59-24.59,2.83-1.64,5.93-2.41,8.98-2.41,6.22,0,12.27,3.23,15.61,9,4.97,8.61,2.02,19.62-6.59,24.59ZM598.28,528c3.33-5.77,9.38-9,15.61-9,3.05,0,6.15.78,8.98,2.41,8.61,4.97,11.56,15.98,6.59,24.59-3.33,5.77-9.38,9-15.6,9-3.05,0-6.15-.78-8.98-2.41-8.61-4.97-11.56-15.98-6.59-24.59ZM604.87,311.41c2.83-1.64,5.93-2.41,8.98-2.41,6.22,0,12.27,3.23,15.61,9,4.97,8.61,2.02,19.62-6.59,24.59-2.83,1.64-5.93,2.41-8.98,2.41-6.22,0-12.27-3.23-15.61-9-4.97-8.61-2.02-19.62,6.59-24.59ZM642,450c-9.94,0-18-8.06-18-18s8.06-18,18-18,18,8.06,18,18-8.06,18-18,18Z" style="stroke-width: 0px;"/>
  </g>
</svg>