<?xml version="1.0" encoding="UTF-8"?>
<svg id="icon" xmlns="http://www.w3.org/2000/svg" viewBox="0 0 864 864">
  <g id="other_copy" data-name="other copy">
    <path d="M449.99,432.13c0,.26-.02.52-.04.79-.01.14-.02.28-.03.41-.03.24-.07.48-.11.72-.03.16-.05.31-.08.47-.04.2-.1.4-.15.6-.05.19-.1.38-.16.56-.05.16-.11.32-.17.47-.08.22-.16.44-.26.66-.06.13-.13.26-.19.4-.11.23-.22.46-.35.68-.02.04-.04.08-.06.12l-36,62.35c-2.22,3.85-6.26,6-10.4,6-2.04,0-4.1-.52-5.99-1.61-5.74-3.31-7.71-10.65-4.39-16.39l34.39-59.57v-104.12c-24.31,2.67-46.82,13.43-64.37,30.97-20.4,20.4-31.63,47.52-31.63,76.37s11.23,55.97,31.63,76.37c20.4,20.4,47.52,31.63,76.37,31.63s55.97-11.23,76.37-31.63c20.4-20.4,31.63-47.52,31.63-76.37s-11.23-55.97-31.63-76.37c-17.54-17.54-40.06-28.3-64.37-30.97v107.34s0,.08,0,.13Z" style="fill: none; stroke-width: 0px;"/>
    <path d="M378,696h120v-132h-2.39c-17.64,7.71-37.13,12-57.61,12s-39.97-4.29-57.61-12h-2.39v132Z" style="fill: none; stroke-width: 0px;"/>
    <path d="M495.61,300h2.39v-132h-120v132h2.39c17.64-7.71,37.13-12,57.61-12s39.97,4.29,57.61,12Z" style="fill: none; stroke-width: 0px;"/>
    <path d="M438,288c-20.49,0-39.97,4.29-57.61,12h115.23c-17.64-7.71-37.13-12-57.61-12Z" style="stroke-width: 0px;"/>
    <path d="M438,540c-28.85,0-55.97-11.23-76.37-31.63-20.4-20.4-31.63-47.52-31.63-76.37s11.23-55.97,31.63-76.37c17.54-17.54,40.06-28.3,64.37-30.97v-.66h-72v-8.97c-36.33,26.14-60,68.79-60,116.97s23.67,90.83,60,116.97v-8.97h84Z" style="stroke-width: 0px;"/>
    <path d="M495.61,564h-115.23c17.64,7.71,37.13,12,57.61,12s39.97-4.29,57.61-12Z" style="stroke-width: 0px;"/>
    <path d="M450,324v.66c24.31,2.67,46.82,13.43,64.37,30.97,20.4,20.4,31.63,47.52,31.63,76.37s-11.23,55.97-31.63,76.37c-20.4,20.4-47.52,31.63-76.37,31.63h84v8.97c36.33-26.14,60-68.79,60-116.97s-23.67-90.83-60-116.97v8.97h-72Z" style="stroke-width: 0px;"/>
    <path d="M449.58,435.12c-.05.19-.1.38-.16.56.06-.19.11-.38.16-.56Z" style="stroke-width: 0px;"/>
    <path d="M449.81,434.05c-.03.16-.05.31-.08.47.03-.15.05-.31.08-.47Z" style="stroke-width: 0px;"/>
    <path d="M448.8,437.2c-.11.23-.22.45-.35.68.12-.22.24-.45.35-.68Z" style="stroke-width: 0px;"/>
    <path d="M449.25,436.15c-.08.22-.16.44-.26.66.09-.21.17-.43.26-.66Z" style="stroke-width: 0px;"/>
    <path d="M449.95,432.91c-.01.14-.02.28-.03.41.02-.14.02-.28.03-.41Z" style="stroke-width: 0px;"/>
    <path d="M426,324.66v104.12l1.61-2.78c3.31-5.74,10.66-7.7,16.39-4.39,3.88,2.24,6.03,6.33,5.99,10.52,0-.04,0-.08,0-.13v-107.34c-3.96-.44-7.96-.66-12-.66s-8.04.23-12,.66Z" style="stroke-width: 0px;"/>
    <path d="M450,324.66v-.66h-12c4.04,0,8.04.23,12,.66Z" style="stroke-width: 0px;"/>
    <path d="M438,324h-12v.66c3.96-.44,7.96-.66,12-.66Z" style="stroke-width: 0px;"/>
    <path d="M449.73,434.52c-.04.2-.1.4-.15.6.05-.2.11-.4.15-.6Z" style="stroke-width: 0px;"/>
    <path d="M449.92,433.33c-.03.24-.07.48-.11.72.04-.24.08-.48.11-.72Z" style="stroke-width: 0px;"/>
    <path d="M449.42,435.68c-.05.16-.11.32-.17.47.06-.16.12-.31.17-.47Z" style="stroke-width: 0px;"/>
    <path d="M448.99,436.81c-.06.13-.13.26-.19.4.06-.13.13-.26.19-.4Z" style="stroke-width: 0px;"/>
    <path d="M396,504.75c1.89,1.09,3.95,1.61,5.99,1.61,4.15,0,8.18-2.15,10.4-6l36-62.35s.04-.08.06-.12c-2.06,3.65-5.96,6.12-10.45,6.12-6.63,0-12-5.37-12-12v-3.22l-34.39,59.57c-3.31,5.74-1.35,13.08,4.39,16.39Z" style="stroke-width: 0px;"/>
    <path d="M449.99,432.13c0,.26-.02.53-.04.79.02-.26.04-.52.04-.79Z" style="stroke-width: 0px;"/>
    <path d="M438,444c4.49,0,8.39-2.47,10.45-6.12.13-.22.24-.45.35-.68.06-.13.13-.26.19-.4.09-.22.17-.44.26-.66.06-.16.12-.31.17-.47.06-.19.11-.38.16-.56.05-.2.11-.4.15-.6.03-.15.05-.31.08-.47.04-.24.08-.48.11-.72.02-.14.02-.28.03-.41.02-.26.04-.52.04-.79.04-4.19-2.11-8.27-5.99-10.52-5.74-3.31-13.08-1.35-16.39,4.39l-1.61,2.78v3.22c0,6.63,5.37,12,12,12Z" style="stroke-width: 0px;"/>
    <path d="M354,144v171.03c8.19-5.89,17.03-10.94,26.39-15.03h-2.39v-132h120v132h-2.39c9.36,4.09,18.19,9.14,26.39,15.03v-171.03h-168Z" style="stroke-width: 0px;"/>
    <path d="M380.39,300c-9.36,4.09-18.19,9.14-26.39,15.03v8.97h72c0-6.63,5.37-12,12-12s12,5.37,12,12h72v-8.97c-8.19-5.89-17.03-10.94-26.39-15.03h-115.23Z" style="stroke-width: 0px;"/>
    <path d="M450,324c0-6.63-5.37-12-12-12s-12,5.37-12,12h24Z" style="stroke-width: 0px;"/>
    <path d="M498,564v132h-120v-132h2.39c-9.36-4.09-18.19-9.14-26.39-15.03v171.03h168v-171.03c-8.19,5.89-17.03,10.94-26.39,15.03h2.39Z" style="stroke-width: 0px;"/>
    <path d="M438,540h-84v8.97c8.19,5.89,17.03,10.94,26.39,15.03h115.23c9.36-4.09,18.19-9.14,26.39-15.03v-8.97h-84Z" style="stroke-width: 0px;"/>
  </g>
</svg>