<?xml version="1.0" encoding="UTF-8"?>
<svg id="icon" xmlns="http://www.w3.org/2000/svg" viewBox="0 0 864 864">
  <g id="other_copy" data-name="other copy">
    <path d="M684,144H180c-19.88,0-36,16.12-36,36v504c0,19.88,16.12,36,36,36h504c19.88,0,36-16.12,36-36V180c0-19.88-16.12-36-36-36ZM265.72,336c-3.33,5.77-9.38,9-15.61,9-3.05,0-6.15-.78-8.98-2.41-8.61-4.97-11.56-15.98-6.59-24.59,3.33-5.77,9.38-9,15.61-9,3.05,0,6.15.78,8.98,2.41,8.61,4.97,11.56,15.98,6.59,24.59ZM259.13,552.59c-2.83,1.64-5.93,2.41-8.98,2.41-6.22,0-12.27-3.23-15.61-9-4.97-8.61-2.02-19.62,6.59-24.59,2.83-1.64,5.93-2.41,8.98-2.41,6.22,0,12.27,3.23,15.61,9,4.97,8.61,2.02,19.62-6.59,24.59ZM240,432c0,9.94-8.06,18-18,18s-18-8.06-18-18,8.06-18,18-18,18,8.06,18,18ZM311.41,604.87c3.33-5.77,9.38-9,15.61-9,3.05,0,6.15.78,8.98,2.41,8.61,4.97,11.56,15.98,6.59,24.59-3.33,5.77-9.38,9-15.61,9-3.05,0-6.15-.78-8.98-2.41-8.61-4.97-11.56-15.98-6.59-24.59ZM318,234.55c2.83-1.64,5.93-2.41,8.98-2.41,6.22,0,12.27,3.23,15.61,9,4.97,8.61,2.02,19.62-6.59,24.59-2.83,1.64-5.93,2.41-8.98,2.41-6.22,0-12.27-3.23-15.61-9-4.97-8.61-2.02-19.62,6.59-24.59ZM414,222c0-9.94,8.06-18,18-18s18,8.06,18,18c0,.51-.03,1-.08,1.5.04.5.08.99.08,1.5v139.82l38.41-66.53c4.97-8.61,15.98-11.56,24.59-6.59,8.61,4.97,11.56,15.98,6.59,24.59l-72,124.71c-.2.34-.41.68-.63,1-.03.05-.06.09-.1.14-.28.41-.58.8-.88,1.18-.07.09-.14.17-.21.25-.33.4-.67.78-1.03,1.14,0,0,0,0-.01.01-.39.39-.8.76-1.22,1.11-.05.04-.1.08-.15.12-.38.31-.78.61-1.18.88-.05.04-.11.08-.16.11-.43.29-.87.55-1.31.8-.12.06-.24.12-.35.19-.34.18-.69.35-1.05.5-.14.06-.28.13-.43.19-.43.18-.87.34-1.32.48-.17.06-.35.1-.52.16-.36.1-.72.2-1.09.28-.14.03-.28.07-.42.1-.5.1-1,.17-1.51.23-.12.01-.24.02-.36.04-.55.05-1.1.09-1.66.09s-1.13-.04-1.69-.09c-.08,0-.16-.01-.23-.02-.55-.06-1.09-.14-1.64-.25-.06-.01-.12-.03-.18-.04-.46-.1-.92-.22-1.37-.35-.12-.04-.25-.07-.37-.11-.47-.15-.94-.32-1.41-.52-.13-.05-.25-.12-.38-.17-.34-.15-.68-.31-1.02-.49-.16-.08-.32-.17-.47-.25-.07-.04-.15-.08-.22-.12-.15-.08-.28-.18-.42-.27-.3-.19-.6-.37-.89-.58-.23-.16-.46-.34-.68-.51-.23-.18-.46-.35-.68-.54-.25-.21-.49-.44-.73-.66-.18-.17-.36-.34-.53-.52-.24-.25-.47-.5-.69-.76-.16-.18-.31-.36-.46-.55-.21-.26-.4-.53-.59-.79-.15-.21-.3-.43-.44-.65-.16-.25-.32-.51-.46-.76-.15-.26-.29-.52-.43-.79-.12-.23-.23-.47-.34-.71-.14-.3-.27-.6-.39-.91-.09-.22-.17-.45-.25-.67-.11-.32-.22-.65-.31-.98-.07-.24-.13-.48-.18-.72-.08-.32-.15-.63-.21-.95-.05-.29-.09-.57-.13-.86-.04-.28-.08-.56-.1-.84-.03-.36-.04-.71-.05-1.07,0-.17-.02-.33-.02-.49v-207c0-.51.03-1,.08-1.5-.04-.5-.08-.99-.08-1.5ZM552.59,259.13c-3.33,5.77-9.38,9-15.61,9-3.05,0-6.15-.78-8.98-2.41-8.61-4.97-11.56-15.98-6.59-24.59,3.33-5.77,9.38-9,15.61-9,3.05,0,6.15.78,8.98,2.41,8.61,4.97,11.56,15.98,6.59,24.59ZM546,629.45c-2.83,1.64-5.93,2.41-8.98,2.41-6.22,0-12.27-3.23-15.61-9-4.97-8.61-2.02-19.62,6.59-24.59,2.83-1.64,5.93-2.41,8.98-2.41,6.22,0,12.27,3.23,15.61,9,4.97,8.61,2.02,19.62-6.59,24.59ZM432,624c9.94,0,18,8.06,18,18s-8.06,18-18,18-18-8.06-18-18,8.06-18,18-18ZM598.28,528c3.33-5.77,9.38-9,15.61-9,3.05,0,6.15.78,8.98,2.41,8.61,4.97,11.56,15.98,6.59,24.59-3.33,5.77-9.38,9-15.61,9-3.05,0-6.15-.78-8.98-2.41-8.61-4.97-11.56-15.98-6.59-24.59ZM604.87,311.41c2.83-1.64,5.93-2.41,8.98-2.41,6.22,0,12.27,3.23,15.61,9,4.97,8.61,2.02,19.62-6.59,24.59-2.83,1.64-5.93,2.41-8.98,2.41-6.22,0-12.27-3.23-15.61-9-4.97-8.61-2.02-19.62,6.59-24.59ZM642,450c-9.94,0-18-8.06-18-18s8.06-18,18-18,18,8.06,18,18-8.06,18-18,18Z" style="stroke-width: 0px;"/>
  </g>
</svg>