<?xml version="1.0" encoding="UTF-8"?>
<svg id="icon" xmlns="http://www.w3.org/2000/svg" viewBox="0 0 864 864">
  <g id="other_copy" data-name="other copy">
    <path d="M530.08,199.79c-31.04-13.13-64.04-19.79-98.08-19.79s-67.03,6.66-98.08,19.79c-30,12.69-56.96,30.87-80.11,54.02-23.16,23.15-41.33,50.11-54.02,80.11-13.13,31.04-19.79,64.04-19.79,98.08s6.66,67.03,19.79,98.08c12.69,30,30.87,56.96,54.02,80.11,23.15,23.15,50.11,41.33,80.11,54.02,31.04,13.13,64.04,19.79,98.08,19.79s67.03-6.66,98.08-19.79c30-12.69,56.96-30.87,80.11-54.02,23.16-23.15,41.33-50.11,54.02-80.11,13.13-31.04,19.79-64.04,19.79-98.08s-6.66-67.03-19.79-98.08c-12.69-30-30.87-56.96-54.02-80.11-23.15-23.15-50.11-41.33-80.11-54.02ZM565.71,375.59l-124.71,72c-.07.04-.15.08-.22.12-.16.09-.32.17-.49.26-.33.17-.66.33-1,.48-.13.06-.26.12-.4.18-.46.19-.93.36-1.4.51-.13.04-.25.08-.38.11-.45.13-.9.25-1.36.35-.06.01-.12.03-.19.04-.54.11-1.09.19-1.63.25-.08,0-.16.02-.24.02-.56.05-1.13.09-1.69.09s-1.11-.03-1.66-.09c-.12-.01-.24-.02-.36-.03-.51-.06-1.01-.13-1.51-.23-.14-.03-.27-.06-.41-.09-.37-.08-.74-.18-1.1-.28-.17-.05-.34-.1-.51-.15-.45-.14-.89-.31-1.33-.49-.14-.06-.28-.12-.42-.18-.36-.16-.72-.33-1.07-.51-.11-.06-.23-.12-.34-.18-.45-.25-.89-.52-1.32-.8-.05-.03-.1-.07-.15-.11-.41-.28-.81-.58-1.2-.89-.05-.04-.09-.07-.14-.11-.82-.68-1.58-1.44-2.28-2.27-.07-.08-.14-.16-.2-.25-.31-.38-.61-.78-.89-1.19-.03-.04-.05-.08-.08-.12-.22-.33-.43-.67-.63-1.02-.03-.06-.06-.11-.09-.17-.19-.34-.36-.69-.54-1.05-.09-.19-.19-.38-.27-.57-.14-.33-.27-.67-.39-1.01-.08-.23-.18-.45-.25-.68-.09-.29-.16-.58-.24-.87-.08-.29-.16-.58-.23-.88-.05-.24-.08-.48-.12-.71-.06-.36-.12-.71-.16-1.07-.02-.21-.03-.42-.05-.63-.03-.39-.06-.78-.06-1.17,0-.06,0-.13,0-.19v-198c0-9.94,8.06-18,18-18s18,8.06,18,18v166.82l97.71-56.41c8.61-4.97,19.62-2.02,24.59,6.59,4.97,8.61,2.02,19.62-6.59,24.59Z" style="fill: none; stroke-width: 0px;"/>
    <path d="M432,144c-159.06,0-288,128.94-288,288s128.94,288,288,288,288-128.94,288-288-128.94-288-288-288ZM684,432c0,34.04-6.66,67.03-19.79,98.08-12.69,30-30.87,56.96-54.02,80.11-23.15,23.15-50.11,41.33-80.11,54.02-31.04,13.13-64.04,19.79-98.08,19.79s-67.03-6.66-98.08-19.79c-30-12.69-56.96-30.87-80.11-54.02-23.16-23.15-41.33-50.11-54.02-80.11-13.13-31.04-19.79-64.04-19.79-98.08s6.66-67.03,19.79-98.08c12.69-30,30.87-56.96,54.02-80.11,23.15-23.15,50.11-41.33,80.11-54.02,31.04-13.13,64.04-19.79,98.08-19.79s67.03,6.66,98.08,19.79c30,12.69,56.96,30.87,80.11,54.02,23.16,23.15,41.33,50.11,54.02,80.11,13.13,31.04,19.79,64.04,19.79,98.08Z" style="stroke-width: 0px;"/>
    <path d="M425.13,448.64c-.14-.06-.28-.12-.42-.18.14.06.28.13.42.18Z" style="stroke-width: 0px;"/>
    <path d="M423.65,447.94c-.11-.06-.23-.12-.34-.18.11.06.23.12.34.18Z" style="stroke-width: 0px;"/>
    <path d="M414.87,437.53c-.09-.29-.16-.58-.24-.87.08.29.15.59.24.87Z" style="stroke-width: 0px;"/>
    <path d="M428.48,449.65c-.14-.03-.27-.06-.41-.09.14.03.27.07.41.09Z" style="stroke-width: 0px;"/>
    <path d="M420.64,445.96s-.09-.07-.14-.11c.05.04.09.07.14.11Z" style="stroke-width: 0px;"/>
    <path d="M421.99,446.96c-.05-.03-.1-.07-.15-.11.05.03.1.07.15.11Z" style="stroke-width: 0px;"/>
    <path d="M417.13,442.14s-.05-.08-.08-.12c.03.04.05.08.08.12Z" style="stroke-width: 0px;"/>
    <path d="M430.35,449.92c-.12-.01-.24-.02-.36-.03.12.01.24.02.36.03Z" style="stroke-width: 0px;"/>
    <path d="M433.95,449.89c-.08,0-.16.02-.24.02.08,0,.16-.01.24-.02Z" style="stroke-width: 0px;"/>
    <path d="M437.5,449.14c-.13.04-.25.08-.38.11.13-.04.26-.07.38-.11Z" style="stroke-width: 0px;"/>
    <path d="M415.52,439.22c-.15-.33-.27-.67-.39-1.01.13.34.25.68.39,1.01Z" style="stroke-width: 0px;"/>
    <path d="M440.78,447.71c-.16.09-.32.17-.49.26.16-.08.33-.17.49-.26Z" style="stroke-width: 0px;"/>
    <path d="M416.33,440.83c-.19-.34-.37-.69-.54-1.05.17.35.34.71.54,1.05Z" style="stroke-width: 0px;"/>
    <path d="M414.4,435.78c-.05-.24-.08-.48-.12-.71.04.24.07.48.12.71Z" style="stroke-width: 0px;"/>
    <path d="M423,416.41l27-15.59v-166.82c0-9.94-8.06-18-18-18s-18,8.06-18,18v198c0,.06,0,.13,0,.19-.06-6.28,3.16-12.41,8.99-15.78Z" style="stroke-width: 0px;"/>
    <path d="M435.77,449.6c-.06.01-.12.03-.19.04.06-.01.12-.03.19-.04Z" style="stroke-width: 0px;"/>
    <path d="M414.12,433.99c-.02-.21-.03-.42-.05-.63.02.21.02.42.05.63Z" style="stroke-width: 0px;"/>
    <path d="M426.97,449.27c-.17-.05-.34-.1-.51-.15.17.05.34.1.51.15Z" style="stroke-width: 0px;"/>
    <path d="M418.22,443.58c-.07-.08-.14-.16-.2-.25.07.08.14.16.2.25Z" style="stroke-width: 0px;"/>
    <path d="M439.3,448.45c-.13.06-.26.12-.4.18.13-.06.26-.12.4-.18Z" style="stroke-width: 0px;"/>
    <path d="M440.3,447.96c-.33.17-.66.33-1,.48.34-.15.67-.31,1-.48Z" style="stroke-width: 0px;"/>
    <path d="M421.84,446.85c-.41-.28-.81-.58-1.2-.89.39.32.79.61,1.2.89Z" style="stroke-width: 0px;"/>
    <path d="M418.02,443.33c-.31-.39-.61-.78-.89-1.19.28.41.58.81.89,1.19Z" style="stroke-width: 0px;"/>
    <path d="M430.35,449.92c.55.05,1.11.09,1.66.09s1.13-.04,1.69-.09c-.56.05-1.13.09-1.71.09s-1.1-.03-1.65-.08Z" style="stroke-width: 0px;"/>
    <path d="M416.41,441c.2.35.41.69.63,1.02-.26-.38-.49-.78-.72-1.19.03.06.05.11.09.17Z" style="stroke-width: 0px;"/>
    <path d="M423.31,447.76c-.45-.25-.9-.52-1.32-.8.43.29.87.56,1.32.8Z" style="stroke-width: 0px;"/>
    <path d="M415.79,439.79c-.09-.19-.19-.37-.27-.57.08.19.18.38.27.57Z" style="stroke-width: 0px;"/>
    <path d="M424.71,448.45c-.36-.16-.72-.33-1.07-.51.35.18.71.35,1.07.51Z" style="stroke-width: 0px;"/>
    <path d="M414.28,435.06c-.06-.36-.12-.71-.16-1.07.04.36.1.72.16,1.07Z" style="stroke-width: 0px;"/>
    <path d="M414.63,436.66c-.08-.29-.16-.58-.23-.88.06.29.15.59.23.88Z" style="stroke-width: 0px;"/>
    <path d="M414.07,433.36c-.03-.39-.06-.78-.06-1.17,0,.39.03.78.06,1.17Z" style="stroke-width: 0px;"/>
    <path d="M418.22,443.58c.7.83,1.46,1.59,2.28,2.27-.83-.69-1.59-1.45-2.28-2.27Z" style="stroke-width: 0px;"/>
    <path d="M415.12,438.21c-.08-.23-.17-.45-.25-.68.07.23.17.45.25.68Z" style="stroke-width: 0px;"/>
    <path d="M428.07,449.56c-.37-.08-.74-.18-1.1-.28.36.11.73.2,1.1.28Z" style="stroke-width: 0px;"/>
    <path d="M437.12,449.25c-.45.13-.9.25-1.36.35.45-.1.91-.21,1.36-.35Z" style="stroke-width: 0px;"/>
    <path d="M430,449.88c-.51-.06-1.02-.13-1.51-.23.5.1,1.01.17,1.51.23Z" style="stroke-width: 0px;"/>
    <path d="M435.58,449.64c-.54.11-1.08.19-1.63.25.55-.06,1.09-.14,1.63-.25Z" style="stroke-width: 0px;"/>
    <path d="M438.9,448.62c-.46.19-.92.36-1.4.51.47-.15.94-.32,1.4-.51Z" style="stroke-width: 0px;"/>
    <path d="M426.46,449.12c-.45-.15-.89-.31-1.33-.49.44.18.88.34,1.33.49Z" style="stroke-width: 0px;"/>
    <path d="M547.71,344.41l-97.71,56.41v31.18c0,6.75-3.72,12.62-9.22,15.71.07-.04.15-.08.22-.12l124.71-72c8.61-4.97,11.56-15.98,6.59-24.59-4.97-8.61-15.98-11.56-24.59-6.59Z" style="stroke-width: 0px;"/>
    <path d="M450,432v-31.18l-27,15.59c-5.83,3.36-9.05,9.5-8.99,15.78,0,.39.03.78.06,1.17.02.21.02.42.05.63.04.36.1.72.16,1.07.04.24.07.48.12.71.06.3.15.59.23.88.08.29.15.58.24.87.07.23.17.45.25.68.12.34.25.68.39,1.01.08.19.18.38.27.57.17.35.34.7.54,1.05.23.4.46.8.72,1.19.03.04.05.08.08.12.28.41.58.81.89,1.19.07.08.14.16.2.25.69.82,1.45,1.58,2.28,2.27.05.04.09.07.14.11.39.31.78.61,1.2.89.05.03.1.07.15.11.43.29.87.55,1.32.8.11.06.23.12.34.18.35.18.7.35,1.07.51.14.06.28.13.42.18.43.18.88.34,1.33.49.17.05.34.1.51.15.36.11.73.2,1.1.28.14.03.27.07.41.09.5.1,1,.17,1.51.23.12.01.24.02.36.03.54.05,1.09.08,1.65.08s1.15-.03,1.71-.09c.08,0,.16-.01.24-.02.55-.06,1.1-.14,1.63-.25.06-.01.12-.03.19-.04.46-.1.91-.22,1.36-.35.13-.04.25-.07.38-.11.47-.15.94-.32,1.4-.51.13-.06.26-.12.4-.18.34-.15.67-.31,1-.48.16-.08.32-.17.49-.26,5.5-3.08,9.22-8.95,9.22-15.71Z" style="stroke-width: 0px;"/>
  </g>
</svg>