<?xml version="1.0" encoding="UTF-8"?>
<svg id="icon" xmlns="http://www.w3.org/2000/svg" viewBox="0 0 864 864">
  <g id="other_copy" data-name="other copy">
    <path d="M684,180H180v504s504,0,504,0V180ZM604.87,311.41c2.83-1.64,5.93-2.41,8.98-2.41,6.22,0,12.27,3.23,15.61,9,4.97,8.61,2.02,19.62-6.59,24.59-2.83,1.64-5.93,2.41-8.98,2.41-6.22,0-12.27-3.23-15.61-9-4.97-8.61-2.02-19.62,6.59-24.59ZM432,204c9.94,0,18,8.06,18,18s-8.06,18-18,18-18-8.06-18-18,8.06-18,18-18ZM204,432c0-9.94,8.06-18,18-18s18,8.06,18,18-8.06,18-18,18-18-8.06-18-18ZM259.13,552.59c-2.83,1.64-5.93,2.41-8.98,2.41-6.22,0-12.27-3.23-15.61-9-4.97-8.61-2.02-19.62,6.59-24.59,2.83-1.64,5.93-2.41,8.98-2.41,6.22,0,12.27,3.23,15.61,9,4.97,8.61,2.02,19.62-6.59,24.59ZM265.72,336c-3.33,5.77-9.38,9-15.61,9-3.05,0-6.15-.78-8.98-2.41-8.61-4.97-11.56-15.98-6.59-24.59,3.33-5.77,9.38-9,15.61-9,3.05,0,6.15.78,8.98,2.41,8.61,4.97,11.56,15.98,6.59,24.59ZM342.59,622.87c-3.33,5.77-9.38,9-15.61,9-3.05,0-6.15-.78-8.98-2.41-8.61-4.97-11.56-15.98-6.59-24.59,3.33-5.77,9.38-9,15.61-9,3.05,0,6.15.78,8.98,2.41,8.61,4.97,11.56,15.98,6.59,24.59ZM336,265.72c-2.83,1.64-5.93,2.41-8.98,2.41-6.22,0-12.27-3.23-15.61-9-4.97-8.61-2.02-19.62,6.59-24.59,2.83-1.64,5.93-2.41,8.98-2.41,6.22,0,12.27,3.23,15.61,9,4.97,8.61,2.02,19.62-6.59,24.59ZM450,642c0,9.94-8.06,18-18,18s-18-8.06-18-18c0-.51.03-1,.08-1.5-.04-.5-.08-.99-.08-1.5v-207h0c0-.59.03-1.19.09-1.78.03-.27.08-.52.11-.79.05-.32.08-.64.15-.95.06-.3.14-.59.22-.89.07-.27.13-.55.21-.82.09-.29.2-.57.3-.85.1-.27.19-.55.3-.82.11-.26.24-.51.36-.77.13-.28.25-.56.4-.83.13-.24.28-.48.42-.72.16-.27.31-.54.48-.79.18-.26.37-.51.56-.76.16-.22.32-.44.49-.66.36-.44.74-.86,1.14-1.26.02-.02.03-.04.05-.06l101.82-101.82c7.03-7.03,18.43-7.03,25.46,0,7.03,7.03,7.03,18.43,0,25.46l-96.55,96.55v199.54c0,.51-.03,1-.08,1.5.04.5.08.99.08,1.5ZM546,629.45c-2.83,1.64-5.93,2.41-8.98,2.41-6.22,0-12.27-3.23-15.61-9-4.97-8.61-2.02-19.62,6.59-24.59,2.83-1.64,5.93-2.41,8.98-2.41,6.22,0,12.27,3.23,15.61,9,4.97,8.61,2.02,19.62-6.59,24.59ZM552.59,259.13c-3.33,5.77-9.38,9-15.61,9-3.05,0-6.15-.78-8.98-2.41-8.61-4.97-11.56-15.98-6.59-24.59,3.33-5.77,9.38-9,15.61-9,3.05,0,6.15.78,8.98,2.41,8.61,4.97,11.56,15.98,6.59,24.59ZM629.45,546c-3.33,5.77-9.38,9-15.61,9-3.05,0-6.15-.78-8.98-2.41-8.61-4.97-11.56-15.98-6.59-24.59,3.33-5.77,9.38-9,15.61-9,3.05,0,6.15.78,8.98,2.41,8.61,4.97,11.56,15.98,6.59,24.59ZM642,450c-9.94,0-18-8.06-18-18s8.06-18,18-18,18,8.06,18,18-8.06,18-18,18Z" style="fill: none; stroke-width: 0px;"/>
    <path d="M180,720h504c19.88,0,36-16.12,36-36V180c0-19.88-16.12-36-36-36H180c-19.88,0-36,16.12-36,36v504c0,19.88,16.12,36,36,36ZM180,180h504v504s-504,0-504,0V180Z" style="stroke-width: 0px;"/>
    <path d="M432,657c-9.43,0-17.16-7.26-17.92-16.5-.04.5-.08.99-.08,1.5,0,9.94,8.06,18,18,18s18-8.06,18-18c0-.51-.03-1-.08-1.5-.76,9.24-8.49,16.5-17.92,16.5Z" style="stroke-width: 0px;"/>
    <circle cx="432" cy="222" r="18" style="stroke-width: 0px;"/>
    <circle cx="642" cy="432" r="18" style="stroke-width: 0px;"/>
    <circle cx="222" cy="432" r="18" style="stroke-width: 0px;"/>
    <path d="M336,598.28c-2.83-1.64-5.93-2.41-8.98-2.41-6.22,0-12.27,3.23-15.61,9-4.97,8.61-2.02,19.62,6.59,24.59,2.83,1.64,5.93,2.41,8.98,2.41,6.22,0,12.27-3.23,15.61-9,4.97-8.61,2.02-19.62-6.59-24.59Z" style="stroke-width: 0px;"/>
    <path d="M546,234.55c-2.83-1.64-5.93-2.41-8.98-2.41-6.22,0-12.27,3.23-15.61,9-4.97,8.61-2.02,19.62,6.59,24.59,2.83,1.64,5.93,2.41,8.98,2.41,6.22,0,12.27-3.23,15.61-9,4.97-8.61,2.02-19.62-6.59-24.59Z" style="stroke-width: 0px;"/>
    <path d="M622.87,521.41c-2.83-1.64-5.93-2.41-8.98-2.41-6.22,0-12.27,3.23-15.61,9-4.97,8.61-2.02,19.62,6.59,24.59,2.83,1.64,5.93,2.41,8.98,2.41,6.22,0,12.27-3.23,15.61-9,4.97-8.61,2.02-19.62-6.59-24.59Z" style="stroke-width: 0px;"/>
    <path d="M259.13,311.41c-2.83-1.64-5.93-2.41-8.98-2.41-6.22,0-12.27,3.23-15.61,9-4.97,8.61-2.02,19.62,6.59,24.59,2.83,1.64,5.93,2.41,8.98,2.41,6.22,0,12.27-3.23,15.61-9,4.97-8.61,2.02-19.62-6.59-24.59Z" style="stroke-width: 0px;"/>
    <path d="M250.12,519c-3.05,0-6.15.78-8.98,2.41-8.61,4.97-11.56,15.98-6.59,24.59,3.33,5.77,9.38,9,15.61,9,3.05,0,6.15-.78,8.98-2.41,8.61-4.97,11.56-15.98,6.59-24.59-3.33-5.77-9.38-9-15.61-9Z" style="stroke-width: 0px;"/>
    <path d="M613.88,345c3.05,0,6.15-.78,8.98-2.41,8.61-4.97,11.56-15.98,6.59-24.59-3.33-5.77-9.38-9-15.61-9-3.05,0-6.15.78-8.98,2.41-8.61,4.97-11.56,15.98-6.59,24.59,3.33,5.77,9.38,9,15.61,9Z" style="stroke-width: 0px;"/>
    <path d="M536.98,595.86c-3.05,0-6.15.78-8.98,2.41-8.61,4.97-11.56,15.98-6.59,24.59,3.33,5.77,9.38,9,15.61,9,3.05,0,6.15-.78,8.98-2.41,8.61-4.97,11.56-15.98,6.59-24.59-3.33-5.77-9.38-9-15.61-9Z" style="stroke-width: 0px;"/>
    <path d="M326.98,232.13c-3.05,0-6.15.78-8.98,2.41-8.61,4.97-11.56,15.98-6.59,24.59,3.33,5.77,9.38,9,15.61,9,3.05,0,6.15-.78,8.98-2.41,8.61-4.97,11.56-15.98,6.59-24.59-3.33-5.77-9.38-9-15.61-9Z" style="stroke-width: 0px;"/>
    <path d="M414.09,430.22c.03-.26.08-.52.11-.79-.04.26-.09.52-.11.79Z" style="stroke-width: 0px;"/>
    <path d="M417.03,422c.17-.26.37-.51.56-.76-.19.25-.38.5-.56.76Z" style="stroke-width: 0px;"/>
    <path d="M416.13,423.51c.13-.24.28-.48.42-.72-.14.24-.29.47-.42.72Z" style="stroke-width: 0px;"/>
    <path d="M415.37,425.11c.11-.26.24-.51.36-.77-.12.26-.25.51-.36.77Z" style="stroke-width: 0px;"/>
    <path d="M414.35,428.48c.06-.3.14-.59.22-.89-.07.29-.16.59-.22.89Z" style="stroke-width: 0px;"/>
    <path d="M414.78,426.77c.09-.29.2-.57.3-.85-.1.28-.21.56-.3.85Z" style="stroke-width: 0px;"/>
    <path d="M450,439.46l-5.27,5.27c-3.51,3.51-8.12,5.27-12.73,5.27s-9.21-1.76-12.73-5.27c-3.51-3.51-5.27-8.12-5.27-12.73h0v207c0,.51.03,1,.08,1.5.76-9.24,8.49-16.5,17.92-16.5s17.16,7.26,17.92,16.5c.04-.5.08-.99.08-1.5v-199.54Z" style="stroke-width: 0px;"/>
    <path d="M418.08,420.59c.36-.43.74-.85,1.14-1.26-.4.4-.78.82-1.14,1.26Z" style="stroke-width: 0px;"/>
    <path d="M432,624c-9.43,0-17.16,7.26-17.92,16.5.76,9.24,8.49,16.5,17.92,16.5s17.16-7.26,17.92-16.5c-.76-9.24-8.49-16.5-17.92-16.5Z" style="stroke-width: 0px;"/>
    <path d="M415.73,424.34c.13-.28.25-.56.4-.83-.15.27-.27.55-.4.83Z" style="stroke-width: 0px;"/>
    <path d="M415.07,425.93c.1-.27.19-.55.3-.82-.11.27-.2.54-.3.82Z" style="stroke-width: 0px;"/>
    <path d="M432,414c9.94,0,18,8.06,18,18v7.46l96.55-96.55c7.03-7.03,7.03-18.43,0-25.46-7.03-7.03-18.43-7.03-25.46,0l-101.82,101.82s-.03.04-.05.06c3.26-3.29,7.78-5.33,12.78-5.33Z" style="stroke-width: 0px;"/>
    <path d="M417.59,421.25c.16-.22.32-.44.49-.66-.17.21-.33.44-.49.66Z" style="stroke-width: 0px;"/>
    <path d="M414.57,427.6c.07-.27.13-.55.21-.82-.08.27-.14.55-.21.82Z" style="stroke-width: 0px;"/>
    <path d="M416.55,422.8c.16-.27.31-.54.48-.79-.17.26-.32.53-.48.79Z" style="stroke-width: 0px;"/>
    <path d="M414.2,429.44c.05-.32.08-.64.15-.95-.06.32-.1.64-.15.95Z" style="stroke-width: 0px;"/>
    <path d="M414,432c0-.6.03-1.19.09-1.78-.06.59-.09,1.18-.09,1.78Z" style="stroke-width: 0px;"/>
    <path d="M432,450c4.61,0,9.21-1.76,12.73-5.27l5.27-5.27v-7.46c0-9.94-8.06-18-18-18-5,0-9.52,2.04-12.78,5.33-.4.41-.78.83-1.14,1.26-.17.21-.33.44-.49.66-.19.25-.38.5-.56.76-.17.26-.32.53-.48.79-.14.24-.29.47-.42.72-.14.27-.27.55-.4.83-.12.26-.25.51-.36.77-.11.27-.2.54-.3.82-.1.28-.21.56-.3.85-.08.27-.14.55-.21.82-.07.29-.16.59-.22.89-.06.31-.1.64-.15.95-.04.26-.09.52-.11.79-.06.58-.09,1.18-.09,1.78,0,4.61,1.76,9.21,5.27,12.73,3.51,3.51,8.12,5.27,12.73,5.27Z" style="stroke-width: 0px;"/>
  </g>
</svg>