<?xml version="1.0" encoding="UTF-8"?>
<svg id="icon" xmlns="http://www.w3.org/2000/svg" viewBox="0 0 864 864">
  <g id="other_copy" data-name="other copy">
    <path d="M684,144H180c-19.88,0-36,16.12-36,36v504c0,19.88,16.12,36,36,36h504c19.88,0,36-16.12,36-36V180c0-19.88-16.12-36-36-36ZM265.72,336c-3.33,5.77-9.38,9-15.6,9-3.05,0-6.15-.78-8.98-2.41-8.61-4.97-11.56-15.98-6.59-24.59,3.33-5.77,9.38-9,15.6-9,3.05,0,6.15.78,8.98,2.41,8.61,4.97,11.56,15.98,6.59,24.59ZM259.13,552.59c-2.83,1.64-5.93,2.41-8.98,2.41-6.22,0-12.27-3.23-15.61-9-4.97-8.61-2.02-19.62,6.59-24.59,2.83-1.64,5.93-2.41,8.98-2.41,6.22,0,12.27,3.23,15.61,9,4.97,8.61,2.02,19.62-6.59,24.59ZM240,432c0,9.94-8.06,18-18,18s-18-8.06-18-18,8.06-18,18-18,18,8.06,18,18ZM311.41,604.87c3.33-5.77,9.38-9,15.6-9,3.05,0,6.15.78,8.98,2.41,8.61,4.97,11.56,15.98,6.59,24.59-3.33,5.77-9.38,9-15.6,9-3.05,0-6.15-.78-8.98-2.41-8.61-4.97-11.56-15.98-6.59-24.59ZM318,234.55c2.83-1.64,5.93-2.41,8.98-2.41,6.22,0,12.27,3.23,15.6,9,4.97,8.61,2.02,19.62-6.59,24.59-2.83,1.64-5.93,2.41-8.98,2.41-6.22,0-12.27-3.23-15.61-9-4.97-8.61-2.02-19.62,6.59-24.59ZM414,639v-207c0-.59.03-1.19.09-1.78.03-.27.08-.53.11-.79.05-.32.08-.63.14-.95.06-.3.14-.6.22-.9.07-.27.13-.54.21-.81.09-.29.2-.58.3-.86.1-.27.18-.54.29-.8.11-.27.24-.53.37-.79.13-.27.25-.54.39-.81.14-.25.29-.49.44-.74.15-.26.3-.52.47-.77.18-.27.39-.53.58-.79.16-.21.3-.42.46-.62.75-.92,1.6-1.76,2.52-2.51.2-.16.41-.3.61-.46.27-.2.53-.41.8-.59.25-.17.5-.31.76-.46.25-.15.49-.31.75-.44.26-.14.52-.25.79-.38.27-.13.53-.26.81-.38.25-.11.52-.19.77-.28.3-.11.59-.22.89-.31.26-.08.52-.13.77-.2.31-.08.62-.17.93-.23.29-.06.59-.09.89-.14.28-.04.56-.09.85-.12.53-.05,1.06-.08,1.59-.08.06,0,.12,0,.18,0s.12,0,.18,0c.53,0,1.06.03,1.59.08.29.03.57.08.85.12.3.04.59.08.89.14.32.06.62.15.93.23.26.07.52.12.77.2.3.09.59.2.89.31.26.09.52.18.77.28.28.11.54.25.81.38.26.12.53.24.79.38.26.14.5.29.75.44.25.15.51.29.76.46.28.19.54.39.8.59.2.15.41.29.61.46.46.38.9.78,1.32,1.2l101.82,101.82c7.03,7.03,7.03,18.43,0,25.46-3.51,3.51-8.12,5.27-12.73,5.27s-9.21-1.76-12.73-5.27l-71.1-71.1v163.54c0,.51-.03,1-.08,1.5.04.5.08.99.08,1.5,0,9.94-8.06,18-18,18s-18-8.06-18-18c0-.51.03-1,.08-1.5-.04-.5-.08-.99-.08-1.5ZM414,222c0-9.94,8.06-18,18-18s18,8.06,18,18-8.06,18-18,18-18-8.06-18-18ZM552.59,259.13c-3.33,5.77-9.38,9-15.6,9-3.05,0-6.15-.78-8.98-2.41-8.61-4.97-11.56-15.98-6.59-24.59,3.33-5.77,9.38-9,15.6-9,3.05,0,6.15.78,8.98,2.41,8.61,4.97,11.56,15.98,6.59,24.59ZM546,629.45c-2.83,1.64-5.93,2.41-8.98,2.41-6.22,0-12.27-3.23-15.6-9-4.97-8.61-2.02-19.62,6.59-24.59,2.83-1.64,5.93-2.41,8.98-2.41,6.22,0,12.27,3.23,15.61,9,4.97,8.61,2.02,19.62-6.59,24.59ZM598.28,528c3.33-5.77,9.38-9,15.6-9,3.05,0,6.15.78,8.98,2.41,8.61,4.97,11.56,15.98,6.59,24.59-3.33,5.77-9.38,9-15.6,9-3.05,0-6.15-.78-8.98-2.41-8.61-4.97-11.56-15.98-6.59-24.59ZM604.87,311.41c2.83-1.64,5.93-2.41,8.98-2.41,6.22,0,12.27,3.23,15.61,9,4.97,8.61,2.02,19.62-6.59,24.59-2.83,1.64-5.93,2.41-8.98,2.41-6.22,0-12.27-3.23-15.61-9-4.97-8.61-2.02-19.62,6.59-24.59ZM642,450c-9.94,0-18-8.06-18-18s8.06-18,18-18,18,8.06,18,18-8.06,18-18,18Z" style="stroke-width: 0px;"/>
  </g>
</svg>