<?xml version="1.0" encoding="UTF-8"?>
<svg id="icon" xmlns="http://www.w3.org/2000/svg" viewBox="0 0 864 864">
  <g id="other_copy" data-name="other copy">
    <path d="M432,144c-159.06,0-288,128.94-288,288s128.94,288,288,288,288-128.94,288-288-128.94-288-288-288ZM450,432c0,.17-.02.33-.03.49,0,.36-.02.72-.05,1.07-.02.28-.06.56-.1.84-.04.29-.08.58-.13.86-.06.32-.13.64-.21.96-.06.24-.12.48-.18.72-.09.33-.2.66-.31.98-.08.23-.16.45-.25.67-.12.31-.25.61-.39.92-.11.24-.22.47-.34.7-.14.27-.28.53-.43.79-.15.26-.3.51-.46.76-.14.22-.29.44-.45.65-.19.27-.38.53-.59.79-.15.19-.31.37-.46.55-.22.26-.45.51-.69.76-.17.18-.35.35-.53.52-.23.22-.47.44-.72.65-.22.19-.45.37-.68.55-.22.17-.44.34-.67.5-.29.21-.6.4-.91.59-.14.09-.27.18-.41.27-.07.04-.15.08-.22.12-.16.09-.32.17-.49.26-.33.17-.66.33-1,.48-.13.06-.26.12-.39.18-.46.19-.93.36-1.4.51-.12.04-.25.08-.38.11-.45.13-.91.25-1.36.35-.06.01-.12.03-.18.04-.54.11-1.09.19-1.63.25-.08,0-.16.02-.24.02-.56.05-1.13.09-1.69.09s-1.11-.03-1.66-.09c-.12-.01-.24-.02-.36-.03-.51-.06-1.01-.13-1.51-.23-.14-.03-.28-.06-.41-.09-.37-.08-.73-.18-1.1-.28-.17-.05-.35-.1-.52-.15-.45-.14-.89-.3-1.32-.48-.14-.06-.28-.13-.43-.19-.36-.16-.71-.33-1.05-.51-.12-.06-.23-.12-.35-.18-.45-.25-.89-.51-1.32-.8-.05-.04-.11-.07-.16-.11-.41-.28-.8-.57-1.19-.89-.05-.04-.1-.08-.14-.12-.42-.35-.83-.72-1.23-1.11,0,0,0,0,0,0-.36-.36-.71-.75-1.04-1.15-.07-.08-.14-.16-.2-.25-.31-.39-.62-.78-.9-1.2-.02-.03-.04-.06-.07-.1-.22-.33-.44-.68-.64-1.03l-72-124.71c-4.97-8.61-2.02-19.62,6.59-24.59s19.62-2.02,24.59,6.59l38.41,66.53v-130.82c0-9.94,8.06-18,18-18s18,8.06,18,18v198Z" style="stroke-width: 0px;"/>
  </g>
</svg>