<?xml version="1.0" encoding="UTF-8"?>
<svg id="icon" xmlns="http://www.w3.org/2000/svg" viewBox="0 0 864 864">
  <g id="other_copy" data-name="other copy">
    <path d="M684,180H180v504s504,0,504,0V180ZM604.87,311.41c2.83-1.64,5.93-2.41,8.98-2.41,6.22,0,12.27,3.23,15.61,9,4.97,8.61,2.02,19.62-6.59,24.59-2.83,1.64-5.93,2.41-8.98,2.41-6.22,0-12.27-3.23-15.61-9-4.97-8.61-2.02-19.62,6.59-24.59ZM204,432c0-9.94,8.06-18,18-18s18,8.06,18,18-8.06,18-18,18-18-8.06-18-18ZM259.13,552.59c-2.83,1.64-5.93,2.41-8.98,2.41-6.22,0-12.27-3.23-15.61-9-4.97-8.61-2.02-19.62,6.59-24.59,2.83-1.64,5.93-2.41,8.98-2.41,6.22,0,12.27,3.23,15.61,9,4.97,8.61,2.02,19.62-6.59,24.59ZM265.72,336c-3.33,5.77-9.38,9-15.61,9-3.05,0-6.15-.78-8.98-2.41-8.61-4.97-11.56-15.98-6.59-24.59,3.33-5.77,9.38-9,15.61-9,3.05,0,6.15.78,8.98,2.41,8.61,4.97,11.56,15.98,6.59,24.59ZM342.59,622.87c-3.33,5.77-9.38,9-15.61,9-3.05,0-6.15-.78-8.98-2.41-8.61-4.97-11.56-15.98-6.59-24.59,3.33-5.77,9.38-9,15.61-9,3.05,0,6.15.78,8.98,2.41,8.61,4.97,11.56,15.98,6.59,24.59ZM336,265.72c-2.83,1.64-5.93,2.41-8.98,2.41-6.22,0-12.27-3.23-15.61-9-4.97-8.61-2.02-19.62,6.59-24.59,2.83-1.64,5.93-2.41,8.98-2.41,6.22,0,12.27,3.23,15.61,9,4.97,8.61,2.02,19.62-6.59,24.59ZM432,660c-9.94,0-18-8.06-18-18s8.06-18,18-18,18,8.06,18,18-8.06,18-18,18ZM513,572.3c-2.83,1.64-5.93,2.41-8.98,2.41-6.22,0-12.27-3.23-15.6-9l-72-124.71c-.03-.06-.06-.11-.09-.17-.19-.34-.36-.69-.53-1.04-.09-.19-.19-.38-.27-.57-.14-.33-.27-.67-.39-1.01-.08-.23-.18-.45-.25-.68-.09-.29-.17-.58-.24-.87-.08-.29-.16-.58-.23-.88-.05-.24-.08-.48-.12-.71-.06-.36-.12-.71-.16-1.07-.02-.21-.03-.42-.05-.63-.03-.39-.06-.78-.06-1.17,0-.06,0-.13,0-.19v-207c0-.51.03-1,.08-1.5-.04-.5-.08-.99-.08-1.5,0-9.94,8.06-18,18-18s18,8.06,18,18c0,.51-.03,1-.08,1.5.04.5.08.99.08,1.5v202.18l69.59,120.53c4.97,8.61,2.02,19.62-6.59,24.59ZM546,629.45c-2.83,1.64-5.93,2.41-8.98,2.41-6.22,0-12.27-3.23-15.61-9-4.97-8.61-2.02-19.62,6.59-24.59,2.83-1.64,5.93-2.41,8.98-2.41,6.22,0,12.27,3.23,15.61,9,4.97,8.61,2.02,19.62-6.59,24.59ZM552.59,259.13c-3.33,5.77-9.38,9-15.61,9-3.05,0-6.15-.78-8.98-2.41-8.61-4.97-11.56-15.98-6.59-24.59,3.33-5.77,9.38-9,15.61-9,3.05,0,6.15.78,8.98,2.41,8.61,4.97,11.56,15.98,6.59,24.59ZM629.45,546c-3.33,5.77-9.38,9-15.61,9-3.05,0-6.15-.78-8.98-2.41-8.61-4.97-11.56-15.98-6.59-24.59,3.33-5.77,9.38-9,15.61-9,3.05,0,6.15.78,8.98,2.41,8.61,4.97,11.56,15.98,6.59,24.59ZM642,450c-9.94,0-18-8.06-18-18s8.06-18,18-18,18,8.06,18,18-8.06,18-18,18Z" style="fill: none; stroke-width: 0px;"/>
    <path d="M180,720h504c19.88,0,36-16.12,36-36V180c0-19.88-16.12-36-36-36H180c-19.88,0-36,16.12-36,36v504c0,19.88,16.12,36,36,36ZM180,180h504v504s-504,0-504,0V180Z" style="stroke-width: 0px;"/>
    <circle cx="432" cy="642" r="18" style="stroke-width: 0px;"/>
    <path d="M432,207c9.43,0,17.16,7.26,17.92,16.5.04-.5.08-.99.08-1.5,0-9.94-8.06-18-18-18s-18,8.06-18,18c0,.51.03,1,.08,1.5.76-9.24,8.49-16.5,17.92-16.5Z" style="stroke-width: 0px;"/>
    <circle cx="642" cy="432" r="18" style="stroke-width: 0px;"/>
    <circle cx="222" cy="432" r="18" style="stroke-width: 0px;"/>
    <path d="M336,598.28c-2.83-1.64-5.93-2.41-8.98-2.41-6.22,0-12.27,3.23-15.61,9-4.97,8.61-2.02,19.62,6.59,24.59,2.83,1.64,5.93,2.41,8.98,2.41,6.22,0,12.27-3.23,15.61-9,4.97-8.61,2.02-19.62-6.59-24.59Z" style="stroke-width: 0px;"/>
    <path d="M546,234.55c-2.83-1.64-5.93-2.41-8.98-2.41-6.22,0-12.27,3.23-15.61,9-4.97,8.61-2.02,19.62,6.59,24.59,2.83,1.64,5.93,2.41,8.98,2.41,6.22,0,12.27-3.23,15.61-9,4.97-8.61,2.02-19.62-6.59-24.59Z" style="stroke-width: 0px;"/>
    <path d="M622.87,521.41c-2.83-1.64-5.93-2.41-8.98-2.41-6.22,0-12.27,3.23-15.61,9-4.97,8.61-2.02,19.62,6.59,24.59,2.83,1.64,5.93,2.41,8.98,2.41,6.22,0,12.27-3.23,15.61-9,4.97-8.61,2.02-19.62-6.59-24.59Z" style="stroke-width: 0px;"/>
    <path d="M259.13,311.41c-2.83-1.64-5.93-2.41-8.98-2.41-6.22,0-12.27,3.23-15.61,9-4.97,8.61-2.02,19.62,6.59,24.59,2.83,1.64,5.93,2.41,8.98,2.41,6.22,0,12.27-3.23,15.61-9,4.97-8.61,2.02-19.62-6.59-24.59Z" style="stroke-width: 0px;"/>
    <path d="M250.12,519c-3.05,0-6.15.78-8.98,2.41-8.61,4.97-11.56,15.98-6.59,24.59,3.33,5.77,9.38,9,15.61,9,3.05,0,6.15-.78,8.98-2.41,8.61-4.97,11.56-15.98,6.59-24.59-3.33-5.77-9.38-9-15.61-9Z" style="stroke-width: 0px;"/>
    <path d="M613.88,345c3.05,0,6.15-.78,8.98-2.41,8.61-4.97,11.56-15.98,6.59-24.59-3.33-5.77-9.38-9-15.61-9-3.05,0-6.15.78-8.98,2.41-8.61,4.97-11.56,15.98-6.59,24.59,3.33,5.77,9.38,9,15.61,9Z" style="stroke-width: 0px;"/>
    <path d="M536.98,595.86c-3.05,0-6.15.78-8.98,2.41-8.61,4.97-11.56,15.98-6.59,24.59,3.33,5.77,9.38,9,15.61,9,3.05,0,6.15-.78,8.98-2.41,8.61-4.97,11.56-15.98,6.59-24.59-3.33-5.77-9.38-9-15.61-9Z" style="stroke-width: 0px;"/>
    <path d="M326.98,232.13c-3.05,0-6.15.78-8.98,2.41-8.61,4.97-11.56,15.98-6.59,24.59,3.33,5.77,9.38,9,15.61,9,3.05,0,6.15-.78,8.98-2.41,8.61-4.97,11.56-15.98,6.59-24.59-3.33-5.77-9.38-9-15.61-9Z" style="stroke-width: 0px;"/>
    <path d="M414.12,433.99c-.02-.21-.03-.42-.05-.63.02.21.02.42.05.63Z" style="stroke-width: 0px;"/>
    <path d="M423,416.41c8.61-4.97,19.62-2.02,24.59,6.59l2.41,4.18v-202.18c0-.51-.03-1-.08-1.5-.76,9.24-8.49,16.5-17.92,16.5s-17.16-7.26-17.92-16.5c-.04.5-.08.99-.08,1.5v207c0,.06,0,.13,0,.19-.06-6.28,3.16-12.41,8.99-15.78Z" style="stroke-width: 0px;"/>
    <path d="M414.87,437.53c-.09-.29-.17-.58-.24-.87.08.29.15.59.24.87Z" style="stroke-width: 0px;"/>
    <path d="M416.32,440.83c-.19-.34-.37-.69-.53-1.04.17.35.34.7.53,1.04Z" style="stroke-width: 0px;"/>
    <path d="M415.52,439.22c-.15-.33-.27-.67-.39-1.01.13.34.25.68.39,1.01Z" style="stroke-width: 0px;"/>
    <path d="M414.4,435.78c-.05-.24-.08-.48-.12-.71.04.24.07.48.12.71Z" style="stroke-width: 0px;"/>
    <path d="M432,240c9.43,0,17.16-7.26,17.92-16.5-.76-9.24-8.49-16.5-17.92-16.5s-17.16,7.26-17.92,16.5c.76,9.24,8.49,16.5,17.92,16.5Z" style="stroke-width: 0px;"/>
    <path d="M519.59,547.71l-69.59-120.53v4.82c0,9.94-8.06,18-18,18-6.73,0-12.59-3.7-15.68-9.17.03.06.05.11.09.17l72,124.71c3.33,5.77,9.38,9,15.6,9,3.05,0,6.15-.78,8.98-2.41,8.61-4.97,11.56-15.98,6.59-24.59Z" style="stroke-width: 0px;"/>
    <path d="M414.63,436.66c-.08-.29-.16-.58-.23-.88.06.29.15.59.23.88Z" style="stroke-width: 0px;"/>
    <path d="M415.12,438.21c-.08-.23-.18-.45-.25-.68.07.23.17.45.25.68Z" style="stroke-width: 0px;"/>
    <path d="M414.28,435.06c-.06-.36-.12-.71-.16-1.07.04.36.1.72.16,1.07Z" style="stroke-width: 0px;"/>
    <path d="M414.07,433.36c-.03-.39-.06-.78-.06-1.17,0,.39.03.78.06,1.17Z" style="stroke-width: 0px;"/>
    <path d="M415.79,439.79c-.09-.19-.19-.37-.27-.57.08.19.18.38.27.57Z" style="stroke-width: 0px;"/>
    <path d="M432,450c9.94,0,18-8.06,18-18v-4.82l-2.41-4.18c-4.97-8.61-15.98-11.56-24.59-6.59-5.83,3.36-9.05,9.5-8.99,15.78,0,.39.03.78.06,1.17.02.21.02.42.05.63.04.36.1.72.16,1.07.04.24.07.48.12.71.06.3.15.59.23.88.08.29.15.58.24.87.07.23.17.45.25.68.12.34.25.68.39,1.01.08.19.18.38.27.57.17.35.34.7.53,1.04,3.09,5.47,8.95,9.17,15.68,9.17Z" style="stroke-width: 0px;"/>
  </g>
</svg>