<?xml version="1.0" encoding="UTF-8"?>
<svg id="icon" xmlns="http://www.w3.org/2000/svg" viewBox="0 0 864 864">
  <g id="other_copy" data-name="other copy">
    <path d="M530.08,199.79c-31.04-13.13-64.04-19.79-98.08-19.79s-67.03,6.66-98.08,19.79c-30,12.69-56.96,30.87-80.11,54.02s-41.33,50.11-54.02,80.11c-13.13,31.04-19.79,64.04-19.79,98.08s6.66,67.03,19.79,98.08c12.69,30,30.87,56.96,54.02,80.11s50.11,41.33,80.11,54.02c31.04,13.13,64.04,19.79,98.08,19.79s67.03-6.66,98.08-19.79c30-12.69,56.96-30.87,80.11-54.02s41.33-50.11,54.02-80.11c13.13-31.04,19.79-64.04,19.79-98.08s-6.66-67.03-19.79-98.08c-12.69-30-30.87-56.96-54.02-80.11s-50.11-41.33-80.11-54.02ZM450,432c0,.06,0,.13,0,.19,0,.39-.03.78-.06,1.17-.02.21-.02.42-.05.63-.04.36-.1.71-.16,1.07-.04.24-.07.48-.12.72-.06.29-.15.59-.23.88-.08.29-.15.58-.24.87-.07.23-.17.46-.25.69-.12.34-.25.67-.39,1-.09.19-.19.39-.28.58-.17.35-.34.7-.53,1.03-.03.06-.06.12-.09.17l-72,124.71c-3.33,5.77-9.38,9-15.61,9-3.05,0-6.15-.78-8.98-2.41-8.61-4.97-11.56-15.98-6.59-24.59l69.59-120.53v-193.18c0-9.94,8.06-18,18-18s18,8.06,18,18v198Z" style="fill: none; stroke-width: 0px;"/>
    <path d="M432,144c-159.06,0-288,128.94-288,288s128.94,288,288,288,288-128.94,288-288-128.94-288-288-288ZM684,432c0,34.04-6.66,67.03-19.79,98.08-12.69,30-30.87,56.96-54.02,80.11s-50.11,41.33-80.11,54.02c-31.04,13.13-64.04,19.79-98.08,19.79s-67.03-6.66-98.08-19.79c-30-12.69-56.96-30.87-80.11-54.02s-41.33-50.11-54.02-80.11c-13.13-31.04-19.79-64.04-19.79-98.08s6.66-67.03,19.79-98.08c12.69-30,30.87-56.96,54.02-80.11s50.11-41.33,80.11-54.02c31.04-13.13,64.04-19.79,98.08-19.79s67.03,6.66,98.08,19.79c30,12.69,56.96,30.87,80.11,54.02s41.33,50.11,54.02,80.11c13.13,31.04,19.79,64.04,19.79,98.08Z" style="stroke-width: 0px;"/>
    <path d="M448.88,438.22c-.12.33-.25.67-.39,1,.14-.33.27-.66.39-1Z" style="stroke-width: 0px;"/>
    <path d="M448.21,439.79c-.17.35-.34.69-.53,1.03.19-.34.36-.68.53-1.03Z" style="stroke-width: 0px;"/>
    <path d="M449.37,436.66c-.08.29-.15.58-.24.87.09-.28.16-.58.24-.87Z" style="stroke-width: 0px;"/>
    <path d="M449.93,433.36c-.02.21-.02.42-.05.63.02-.21.03-.42.05-.63Z" style="stroke-width: 0px;"/>
    <path d="M432,216c-9.94,0-18,8.06-18,18v193.18l2.41-4.18c4.97-8.61,15.98-11.56,24.59-6.59,5.83,3.36,9.05,9.5,8.99,15.78,0-.06,0-.13,0-.19v-198c0-9.94-8.06-18-18-18Z" style="stroke-width: 0px;"/>
    <path d="M449.72,435.06c-.04.24-.07.48-.12.72.05-.24.08-.48.12-.72Z" style="stroke-width: 0px;"/>
    <path d="M448.48,439.22c-.09.2-.19.39-.28.58.09-.19.19-.38.28-.58Z" style="stroke-width: 0px;"/>
    <path d="M449.88,433.99c-.04.36-.1.72-.16,1.07.06-.36.12-.71.16-1.07Z" style="stroke-width: 0px;"/>
    <path d="M432,450c-9.94,0-18-8.06-18-18v-4.82l-69.59,120.53c-4.97,8.61-2.02,19.62,6.59,24.59,2.83,1.64,5.93,2.41,8.98,2.41,6.22,0,12.27-3.23,15.61-9l72-124.71c.03-.06.06-.12.09-.17-3.09,5.47-8.95,9.17-15.68,9.17Z" style="stroke-width: 0px;"/>
    <path d="M449.6,435.78c-.06.3-.15.59-.23.88.08-.29.16-.58.23-.88Z" style="stroke-width: 0px;"/>
    <path d="M449.99,432.19c0,.39-.03.78-.06,1.17.03-.39.06-.78.06-1.17Z" style="stroke-width: 0px;"/>
    <path d="M449.13,437.53c-.08.23-.17.46-.25.69.08-.23.18-.46.25-.69Z" style="stroke-width: 0px;"/>
    <path d="M441,416.41c-8.61-4.97-19.62-2.02-24.59,6.59l-2.41,4.18v4.82c0,9.94,8.06,18,18,18,6.73,0,12.59-3.7,15.68-9.17.19-.34.36-.69.53-1.03.09-.19.19-.38.28-.58.15-.33.27-.67.39-1,.08-.23.18-.46.25-.69.09-.29.16-.58.24-.87.08-.29.16-.58.23-.88.05-.24.08-.48.12-.72.06-.36.12-.71.16-1.07.02-.21.03-.42.05-.63.03-.39.06-.78.06-1.17.06-6.28-3.16-12.41-8.99-15.78Z" style="stroke-width: 0px;"/>
  </g>
</svg>