<?xml version="1.0" encoding="UTF-8"?>
<svg id="icon" xmlns="http://www.w3.org/2000/svg" viewBox="0 0 864 864">
  <g id="other_copy" data-name="other copy">
    <path d="M432,720c159.06,0,288-128.94,288-288s-128.94-288-288-288S144,272.94,144,432s128.94,288,288,288ZM414,234c0-9.94,8.06-18,18-18s18,8.06,18,18v187.61l115.71,66.8c8.61,4.97,11.56,15.98,6.59,24.59-3.33,5.77-9.38,9-15.6,9-3.05,0-6.15-.78-8.98-2.41l-124.71-72c-.14-.08-.27-.18-.41-.27-.31-.19-.61-.38-.9-.58-.23-.16-.45-.33-.68-.51-.23-.18-.46-.36-.68-.54-.25-.21-.49-.43-.72-.66-.18-.17-.36-.34-.53-.52-.24-.25-.47-.5-.69-.76-.16-.18-.31-.36-.46-.55-.21-.26-.4-.53-.6-.8-.15-.21-.3-.43-.44-.65-.16-.25-.32-.51-.47-.77-.15-.26-.29-.52-.43-.78-.12-.23-.23-.47-.34-.71-.14-.3-.27-.6-.39-.91-.09-.22-.17-.45-.25-.68-.11-.32-.22-.65-.31-.97-.07-.24-.13-.48-.19-.72-.08-.31-.15-.63-.21-.95-.05-.29-.09-.58-.13-.87-.04-.28-.07-.55-.1-.83-.03-.36-.04-.72-.05-1.07,0-.16-.02-.33-.02-.49v-198Z" style="stroke-width: 0px;"/>
  </g>
</svg>