<?xml version="1.0" encoding="UTF-8"?>
<svg id="icon" xmlns="http://www.w3.org/2000/svg" viewBox="0 0 864 864">
  <g id="other_copy" data-name="other copy">
    <path d="M684,180H180v504s504,0,504,0V180ZM604.87,311.41c2.83-1.64,5.93-2.41,8.98-2.41,6.22,0,12.27,3.23,15.61,9,4.97,8.61,2.02,19.62-6.59,24.59-2.83,1.64-5.93,2.41-8.98,2.41-6.22,0-12.27-3.23-15.61-9-4.97-8.61-2.02-19.62,6.59-24.59ZM414,225c0-.51.03-1,.08-1.5-.04-.5-.08-.99-.08-1.5,0-9.94,8.06-18,18-18s18,8.06,18,18c0,.51-.03,1-.08,1.5.04.5.08.99.08,1.5v139.82l38.41-66.53c4.97-8.61,15.98-11.56,24.59-6.59s11.56,15.98,6.59,24.59l-72,124.71c-.2.35-.41.68-.63,1.01-.03.04-.06.08-.09.13-.28.41-.58.81-.89,1.19-.07.08-.14.17-.21.25-.33.4-.68.78-1.04,1.14,0,0,0,0,0,0-.39.39-.8.76-1.22,1.11-.05.04-.1.08-.15.12-.38.31-.78.61-1.18.89-.05.04-.11.08-.16.11-.43.29-.87.55-1.32.8-.12.06-.23.12-.35.18-.35.18-.7.35-1.05.51-.14.06-.28.13-.43.19-.43.18-.87.34-1.32.48-.17.06-.35.1-.52.15-.36.1-.73.2-1.09.28-.14.03-.28.07-.42.1-.5.1-1,.17-1.51.23-.12.01-.24.02-.36.04-.55.05-1.1.09-1.66.09s-1.13-.04-1.69-.09c-.08,0-.16-.01-.24-.02-.55-.06-1.09-.14-1.63-.25-.06-.01-.12-.03-.18-.04-.46-.1-.91-.22-1.36-.35-.13-.04-.25-.07-.38-.11-.47-.15-.94-.32-1.4-.51-.13-.06-.26-.12-.4-.18-.34-.15-.67-.31-1-.48-.16-.08-.33-.17-.49-.26-.07-.04-.15-.08-.22-.12-.14-.08-.27-.18-.41-.27-.31-.19-.61-.38-.9-.58-.23-.16-.45-.33-.67-.5-.23-.18-.46-.36-.68-.55-.25-.21-.49-.43-.72-.66-.18-.17-.36-.34-.53-.52-.24-.25-.47-.5-.69-.76-.16-.18-.31-.36-.46-.55-.21-.26-.4-.52-.59-.79-.15-.21-.3-.43-.44-.65-.16-.25-.32-.51-.47-.77-.15-.26-.29-.52-.43-.78-.12-.23-.23-.47-.34-.71-.14-.3-.27-.6-.39-.91-.09-.22-.17-.45-.25-.68-.11-.32-.22-.65-.31-.97-.07-.24-.13-.48-.19-.72-.08-.31-.15-.63-.21-.95-.05-.29-.09-.58-.13-.87-.04-.28-.07-.55-.1-.83-.03-.36-.04-.72-.05-1.07,0-.16-.02-.33-.02-.49v-207ZM204,432c0-9.94,8.06-18,18-18s18,8.06,18,18-8.06,18-18,18-18-8.06-18-18ZM259.13,552.59c-2.83,1.64-5.93,2.41-8.98,2.41-6.22,0-12.27-3.23-15.61-9-4.97-8.61-2.02-19.62,6.59-24.59,2.83-1.64,5.93-2.41,8.98-2.41,6.22,0,12.27,3.23,15.61,9,4.97,8.61,2.02,19.62-6.59,24.59ZM265.72,336c-3.33,5.77-9.38,9-15.61,9-3.05,0-6.15-.78-8.98-2.41-8.61-4.97-11.56-15.98-6.59-24.59,3.33-5.77,9.38-9,15.61-9,3.05,0,6.15.78,8.98,2.41,8.61,4.97,11.56,15.98,6.59,24.59ZM342.59,622.87c-3.33,5.77-9.38,9-15.61,9-3.05,0-6.15-.78-8.98-2.41-8.61-4.97-11.56-15.98-6.59-24.59,3.33-5.77,9.38-9,15.61-9,3.05,0,6.15.78,8.98,2.41,8.61,4.97,11.56,15.98,6.59,24.59ZM336,265.72c-2.83,1.64-5.93,2.41-8.98,2.41-6.22,0-12.27-3.23-15.61-9-4.97-8.61-2.02-19.62,6.59-24.59,2.83-1.64,5.93-2.41,8.98-2.41,6.22,0,12.27,3.23,15.61,9,4.97,8.61,2.02,19.62-6.59,24.59ZM432,660c-9.94,0-18-8.06-18-18s8.06-18,18-18,18,8.06,18,18-8.06,18-18,18ZM546,629.45c-2.83,1.64-5.93,2.41-8.98,2.41-6.22,0-12.27-3.23-15.61-9-4.97-8.61-2.02-19.62,6.59-24.59,2.83-1.64,5.93-2.41,8.98-2.41,6.22,0,12.27,3.23,15.61,9,4.97,8.61,2.02,19.62-6.59,24.59ZM552.59,259.13c-3.33,5.77-9.38,9-15.61,9-3.05,0-6.15-.78-8.98-2.41-8.61-4.97-11.56-15.98-6.59-24.59,3.33-5.77,9.38-9,15.61-9,3.05,0,6.15.78,8.98,2.41,8.61,4.97,11.56,15.98,6.59,24.59ZM629.45,546c-3.33,5.77-9.38,9-15.61,9-3.05,0-6.15-.78-8.98-2.41-8.61-4.97-11.56-15.98-6.59-24.59,3.33-5.77,9.38-9,15.61-9,3.05,0,6.15.78,8.98,2.41,8.61,4.97,11.56,15.98,6.59,24.59ZM642,450c-9.94,0-18-8.06-18-18s8.06-18,18-18,18,8.06,18,18-8.06,18-18,18Z" style="fill: none; stroke-width: 0px;"/>
    <path d="M180,720h504c19.88,0,36-16.12,36-36V180c0-19.88-16.12-36-36-36H180c-19.88,0-36,16.12-36,36v504c0,19.88,16.12,36,36,36ZM180,180h504v504s-504,0-504,0V180Z" style="stroke-width: 0px;"/>
    <circle cx="432" cy="642" r="18" style="stroke-width: 0px;"/>
    <path d="M432,207c9.43,0,17.16,7.26,17.92,16.5.04-.5.08-.99.08-1.5,0-9.94-8.06-18-18-18s-18,8.06-18,18c0,.51.03,1,.08,1.5.76-9.24,8.49-16.5,17.92-16.5Z" style="stroke-width: 0px;"/>
    <circle cx="642" cy="432" r="18" style="stroke-width: 0px;"/>
    <circle cx="222" cy="432" r="18" style="stroke-width: 0px;"/>
    <path d="M336,598.28c-2.83-1.64-5.93-2.41-8.98-2.41-6.22,0-12.27,3.23-15.61,9-4.97,8.61-2.02,19.62,6.59,24.59,2.83,1.64,5.93,2.41,8.98,2.41,6.22,0,12.27-3.23,15.61-9,4.97-8.61,2.02-19.62-6.59-24.59Z" style="stroke-width: 0px;"/>
    <path d="M546,234.55c-2.83-1.64-5.93-2.41-8.98-2.41-6.22,0-12.27,3.23-15.61,9-4.97,8.61-2.02,19.62,6.59,24.59,2.83,1.64,5.93,2.41,8.98,2.41,6.22,0,12.27-3.23,15.61-9,4.97-8.61,2.02-19.62-6.59-24.59Z" style="stroke-width: 0px;"/>
    <path d="M622.87,521.41c-2.83-1.64-5.93-2.41-8.98-2.41-6.22,0-12.27,3.23-15.61,9-4.97,8.61-2.02,19.62,6.59,24.59,2.83,1.64,5.93,2.41,8.98,2.41,6.22,0,12.27-3.23,15.61-9,4.97-8.61,2.02-19.62-6.59-24.59Z" style="stroke-width: 0px;"/>
    <path d="M259.13,311.41c-2.83-1.64-5.93-2.41-8.98-2.41-6.22,0-12.27,3.23-15.61,9-4.97,8.61-2.02,19.62,6.59,24.59,2.83,1.64,5.93,2.41,8.98,2.41,6.22,0,12.27-3.23,15.61-9,4.97-8.61,2.02-19.62-6.59-24.59Z" style="stroke-width: 0px;"/>
    <path d="M250.12,519c-3.05,0-6.15.78-8.98,2.41-8.61,4.97-11.56,15.98-6.59,24.59,3.33,5.77,9.38,9,15.61,9,3.05,0,6.15-.78,8.98-2.41,8.61-4.97,11.56-15.98,6.59-24.59-3.33-5.77-9.38-9-15.61-9Z" style="stroke-width: 0px;"/>
    <path d="M613.88,345c3.05,0,6.15-.78,8.98-2.41,8.61-4.97,11.56-15.98,6.59-24.59-3.33-5.77-9.38-9-15.61-9-3.05,0-6.15.78-8.98,2.41-8.61,4.97-11.56,15.98-6.59,24.59,3.33,5.77,9.38,9,15.61,9Z" style="stroke-width: 0px;"/>
    <path d="M536.98,595.86c-3.05,0-6.15.78-8.98,2.41-8.61,4.97-11.56,15.98-6.59,24.59,3.33,5.77,9.38,9,15.61,9,3.05,0,6.15-.78,8.98-2.41,8.61-4.97,11.56-15.98,6.59-24.59-3.33-5.77-9.38-9-15.61-9Z" style="stroke-width: 0px;"/>
    <path d="M326.98,232.13c-3.05,0-6.15.78-8.98,2.41-8.61,4.97-11.56,15.98-6.59,24.59,3.33,5.77,9.38,9,15.61,9,3.05,0,6.15-.78,8.98-2.41,8.61-4.97,11.56-15.98,6.59-24.59-3.33-5.77-9.38-9-15.61-9Z" style="stroke-width: 0px;"/>
    <path d="M415.65,439.5c-.14-.3-.27-.6-.39-.91.12.31.25.61.39.91Z" style="stroke-width: 0px;"/>
    <path d="M418.38,443.75c-.16-.18-.31-.36-.46-.55.15.19.3.37.46.55Z" style="stroke-width: 0px;"/>
    <path d="M419.61,445.03c-.18-.17-.36-.34-.53-.52.17.18.35.35.53.52Z" style="stroke-width: 0px;"/>
    <path d="M416.42,440.99c-.15-.26-.29-.52-.43-.78.14.27.28.53.43.78Z" style="stroke-width: 0px;"/>
    <path d="M414.18,434.4c-.04-.28-.07-.55-.1-.83.02.28.06.56.1.83Z" style="stroke-width: 0px;"/>
    <path d="M416.41,423l33.59-58.18v-139.82c0-.51-.03-1-.08-1.5-.76,9.24-8.49,16.5-17.92,16.5s-17.16-7.26-17.92-16.5c-.04.5-.08.99-.08,1.5v207c0,.17.02.33.02.49-.09-3.22.66-6.5,2.39-9.49Z" style="stroke-width: 0px;"/>
    <path d="M415.01,437.91c-.11-.32-.22-.65-.31-.97.09.33.2.65.31.97Z" style="stroke-width: 0px;"/>
    <path d="M414.52,436.22c-.08-.31-.15-.63-.21-.95.06.32.13.63.21.95Z" style="stroke-width: 0px;"/>
    <path d="M417.33,442.41c-.15-.21-.3-.43-.44-.65.14.22.29.44.44.65Z" style="stroke-width: 0px;"/>
    <path d="M440.69,447.76c-.12.06-.23.12-.35.18.12-.06.24-.12.35-.18Z" style="stroke-width: 0px;"/>
    <path d="M428.42,449.64c-.06-.01-.12-.03-.18-.04.06.01.12.03.18.04Z" style="stroke-width: 0px;"/>
    <path d="M430.29,449.91c-.08,0-.16-.01-.24-.02.08,0,.16.02.24.02Z" style="stroke-width: 0px;"/>
    <path d="M426.88,449.25c-.13-.04-.25-.07-.38-.11.13.04.25.08.38.11Z" style="stroke-width: 0px;"/>
    <path d="M437.55,449.12c-.17.06-.35.1-.52.15.17-.05.35-.1.52-.15Z" style="stroke-width: 0px;"/>
    <path d="M434.01,449.88c-.12.01-.24.02-.36.04.12-.01.24-.02.36-.04Z" style="stroke-width: 0px;"/>
    <path d="M439.29,448.45c-.14.06-.28.13-.43.19.14-.06.28-.13.43-.19Z" style="stroke-width: 0px;"/>
    <path d="M435.93,449.56c-.14.03-.28.07-.42.1.14-.03.28-.06.42-.1Z" style="stroke-width: 0px;"/>
    <path d="M425.1,448.62c-.13-.06-.26-.12-.4-.18.13.06.26.12.4.18Z" style="stroke-width: 0px;"/>
    <path d="M446.96,442.01s-.06.08-.09.13c.03-.04.06-.08.09-.13Z" style="stroke-width: 0px;"/>
    <path d="M445.98,443.33c-.07.08-.14.17-.21.25.07-.08.14-.17.21-.25Z" style="stroke-width: 0px;"/>
    <path d="M442.17,446.85c-.05.04-.11.08-.16.11.05-.04.11-.07.16-.11Z" style="stroke-width: 0px;"/>
    <path d="M444.73,444.72s0,0,0,0c0,0,0,0,0,0Z" style="stroke-width: 0px;"/>
    <path d="M421.01,446.23c-.23-.18-.46-.36-.68-.55.22.19.45.37.68.55Z" style="stroke-width: 0px;"/>
    <path d="M443.5,445.84s-.1.08-.15.12c.05-.04.1-.08.15-.12Z" style="stroke-width: 0px;"/>
    <path d="M423.7,447.96c-.16-.08-.32-.17-.49-.26.16.09.32.17.49.26Z" style="stroke-width: 0px;"/>
    <path d="M422.59,447.32c-.31-.19-.61-.38-.9-.58.29.21.6.4.9.58Z" style="stroke-width: 0px;"/>
    <path d="M432,240c9.43,0,17.16-7.26,17.92-16.5-.76-9.24-8.49-16.5-17.92-16.5s-17.16,7.26-17.92,16.5c.76,9.24,8.49,16.5,17.92,16.5Z" style="stroke-width: 0px;"/>
    <path d="M446.96,442.01c.22-.33.43-.66.63-1.01l72-124.71c4.97-8.61,2.02-19.62-6.59-24.59s-19.62-2.02-24.59,6.59l-38.41,66.53v67.18c0,3.71-1.12,7.15-3.04,10.01Z" style="stroke-width: 0px;"/>
    <path d="M445.77,443.58c-.33.39-.68.78-1.04,1.14.36-.36.71-.75,1.04-1.14Z" style="stroke-width: 0px;"/>
    <path d="M442.01,446.96c-.43.29-.87.55-1.32.8.45-.25.89-.51,1.32-.8Z" style="stroke-width: 0px;"/>
    <path d="M443.36,445.96c-.38.31-.78.61-1.18.89.41-.28.8-.57,1.18-.89Z" style="stroke-width: 0px;"/>
    <path d="M419.08,444.51c-.24-.25-.47-.5-.69-.76.22.26.45.51.69.76Z" style="stroke-width: 0px;"/>
    <path d="M430.29,449.91c.56.05,1.13.09,1.69.09s1.11-.03,1.66-.09c-.54.05-1.09.08-1.64.08s-1.15-.03-1.71-.09Z" style="stroke-width: 0px;"/>
    <path d="M440.34,447.94c-.34.18-.7.35-1.05.51.36-.16.71-.33,1.05-.51Z" style="stroke-width: 0px;"/>
    <path d="M414.08,433.57c-.03-.35-.04-.71-.05-1.07.01.36.02.72.05,1.07Z" style="stroke-width: 0px;"/>
    <path d="M423,447.59c.07.04.15.08.22.12-.22-.12-.42-.25-.63-.38.14.09.27.18.41.27Z" style="stroke-width: 0px;"/>
    <path d="M415.99,440.21c-.12-.23-.23-.47-.34-.71.11.24.22.47.34.71Z" style="stroke-width: 0px;"/>
    <path d="M420.33,445.69c-.25-.21-.49-.43-.72-.66.23.22.47.44.72.66Z" style="stroke-width: 0px;"/>
    <path d="M416.89,441.76c-.16-.25-.32-.51-.47-.77.15.26.3.51.47.77Z" style="stroke-width: 0px;"/>
    <path d="M415.26,438.59c-.09-.22-.17-.45-.25-.68.08.23.16.45.25.68Z" style="stroke-width: 0px;"/>
    <path d="M437.03,449.27c-.36.1-.72.2-1.09.28.37-.08.73-.18,1.09-.28Z" style="stroke-width: 0px;"/>
    <path d="M414.31,435.27c-.05-.29-.09-.58-.13-.87.04.29.08.58.13.87Z" style="stroke-width: 0px;"/>
    <path d="M414.7,436.94c-.07-.24-.13-.48-.19-.72.06.24.12.48.19.72Z" style="stroke-width: 0px;"/>
    <path d="M421.68,446.74c-.23-.16-.45-.33-.67-.5.22.17.44.34.67.5Z" style="stroke-width: 0px;"/>
    <path d="M444.73,444.73c-.39.39-.8.76-1.22,1.11.42-.35.83-.72,1.22-1.11Z" style="stroke-width: 0px;"/>
    <path d="M417.92,443.2c-.21-.26-.4-.52-.59-.79.19.27.39.53.59.79Z" style="stroke-width: 0px;"/>
    <path d="M446.87,442.14c-.28.41-.58.8-.89,1.19.31-.38.61-.78.89-1.19Z" style="stroke-width: 0px;"/>
    <path d="M435.52,449.65c-.5.1-1,.17-1.51.23.51-.06,1.01-.13,1.51-.23Z" style="stroke-width: 0px;"/>
    <path d="M438.86,448.64c-.43.18-.87.34-1.32.48.45-.14.89-.3,1.32-.48Z" style="stroke-width: 0px;"/>
    <path d="M426.5,449.14c-.48-.15-.94-.32-1.4-.51.46.19.93.36,1.4.51Z" style="stroke-width: 0px;"/>
    <path d="M430.05,449.89c-.55-.06-1.1-.14-1.63-.25.54.11,1.09.19,1.63.25Z" style="stroke-width: 0px;"/>
    <path d="M428.24,449.6c-.46-.1-.91-.22-1.36-.35.45.13.9.25,1.36.35Z" style="stroke-width: 0px;"/>
    <path d="M424.7,448.44c-.34-.15-.67-.31-1-.48.33.17.66.33,1,.48Z" style="stroke-width: 0px;"/>
    <path d="M414.02,432.49c0,.36.02.72.05,1.07.02.28.06.56.1.83.04.29.08.58.13.87.06.32.13.63.21.95.06.24.12.48.19.72.09.33.2.65.31.97.08.23.16.45.25.68.12.31.25.61.39.91.11.24.22.48.34.71.14.26.28.53.43.78.15.26.3.52.47.77.14.22.29.43.44.65.19.27.39.54.59.79.15.19.3.37.46.55.22.26.45.51.69.76.17.18.35.35.53.52.24.22.47.44.72.66.22.19.45.37.68.55.22.17.44.34.67.5.29.2.6.4.9.58.21.13.42.26.63.38.16.09.32.17.49.26.33.17.66.33,1,.48.13.06.26.12.4.18.46.19.92.36,1.4.51.13.04.25.08.38.11.45.13.9.25,1.36.35.06.01.12.03.18.04.54.11,1.08.19,1.63.25.08,0,.16.02.24.02.56.05,1.13.09,1.71.09s1.1-.03,1.64-.08c.12-.01.24-.02.36-.04.51-.06,1.01-.13,1.51-.23.14-.03.28-.06.42-.1.37-.08.73-.18,1.09-.28.17-.05.35-.1.52-.15.45-.14.89-.3,1.32-.48.14-.06.29-.13.43-.19.36-.16.71-.33,1.05-.51.12-.06.23-.12.35-.18.45-.25.89-.51,1.32-.8.05-.04.11-.07.16-.11.41-.28.8-.57,1.18-.89.05-.04.1-.08.15-.12.42-.35.83-.72,1.22-1.11,0,0,0,0,0,0,.36-.36.71-.75,1.04-1.14.07-.08.14-.17.21-.25.31-.38.61-.78.89-1.19.03-.04.06-.08.09-.13,1.92-2.86,3.04-6.31,3.04-10.01v-67.18l-33.59,58.18c-1.73,2.99-2.48,6.27-2.39,9.49Z" style="stroke-width: 0px;"/>
  </g>
</svg>