<?xml version="1.0" encoding="UTF-8"?>
<svg id="icon" xmlns="http://www.w3.org/2000/svg" viewBox="0 0 864 864">
  <g id="other_copy" data-name="other copy">
    <path d="M432,144c-159.06,0-288,128.94-288,288s128.94,288,288,288,288-128.94,288-288-128.94-288-288-288ZM565.71,375.59l-124.71,72c-.07.04-.15.08-.22.12-.16.09-.32.17-.48.26-.33.17-.66.33-1,.48-.13.06-.26.12-.39.18-.46.19-.93.36-1.4.51-.13.04-.25.08-.38.11-.45.13-.9.25-1.36.35-.06.01-.12.03-.18.04-.54.11-1.09.19-1.63.25-.08,0-.16.02-.24.02-.56.05-1.13.09-1.69.09s-1.11-.03-1.66-.09c-.12-.01-.24-.02-.36-.03-.51-.06-1.01-.13-1.51-.23-.14-.03-.27-.06-.41-.09-.37-.08-.74-.18-1.1-.28-.17-.05-.34-.1-.51-.15-.45-.14-.89-.31-1.33-.49-.14-.06-.28-.12-.42-.18-.36-.16-.72-.33-1.07-.51-.11-.06-.23-.12-.34-.18-.45-.25-.89-.52-1.32-.8-.05-.03-.1-.07-.15-.1-.41-.28-.81-.58-1.2-.9-.05-.04-.09-.07-.14-.11-.82-.68-1.58-1.44-2.28-2.27-.07-.08-.14-.16-.2-.24-.31-.39-.61-.78-.9-1.2-.03-.04-.05-.08-.08-.11-.22-.33-.43-.67-.64-1.02-.03-.06-.06-.11-.09-.17-.19-.34-.36-.69-.53-1.04-.09-.19-.19-.38-.27-.57-.14-.33-.27-.67-.39-1.01-.08-.23-.18-.45-.25-.68-.09-.29-.16-.58-.24-.87-.08-.29-.16-.58-.23-.88-.05-.24-.08-.48-.12-.71-.06-.36-.12-.71-.16-1.07-.02-.21-.03-.42-.05-.63-.03-.39-.06-.78-.06-1.17,0-.06,0-.13,0-.19v-198c0-9.94,8.06-18,18-18s18,8.06,18,18v166.82l97.71-56.41c8.61-4.97,19.62-2.02,24.59,6.59,4.97,8.61,2.02,19.62-6.59,24.59Z" style="stroke-width: 0px;"/>
  </g>
</svg>