<?xml version="1.0" encoding="UTF-8"?>
<svg id="icon" xmlns="http://www.w3.org/2000/svg" viewBox="0 0 864 864">
  <g id="other_copy" data-name="other copy">
    <path d="M180,684h504s0-504,0-504H180v504ZM259.13,552.59c-2.83,1.64-5.93,2.41-8.98,2.41-6.22,0-12.27-3.23-15.6-9-4.97-8.61-2.02-19.62,6.59-24.59,2.83-1.64,5.93-2.41,8.98-2.41,6.22,0,12.27,3.23,15.6,9,4.97,8.61,2.02,19.62-6.59,24.59ZM342.59,622.87c-3.33,5.77-9.38,9-15.6,9-3.05,0-6.15-.78-8.98-2.41-8.61-4.97-11.56-15.98-6.59-24.59,3.33-5.77,9.38-9,15.6-9,3.05,0,6.15.78,8.98,2.41,8.61,4.97,11.56,15.98,6.59,24.59ZM660,432c0,9.94-8.06,18-18,18s-18-8.06-18-18,8.06-18,18-18,18,8.06,18,18ZM604.87,311.41c2.83-1.64,5.93-2.41,8.98-2.41,6.22,0,12.27,3.23,15.6,9,4.97,8.61,2.02,19.62-6.59,24.59-2.83,1.64-5.93,2.41-8.98,2.41-6.22,0-12.27-3.23-15.6-9-4.97-8.61-2.02-19.62,6.59-24.59ZM598.28,528c3.33-5.77,9.38-9,15.6-9,3.05,0,6.15.78,8.98,2.41,8.61,4.97,11.56,15.98,6.59,24.59-3.33,5.77-9.38,9-15.6,9-3.05,0-6.15-.78-8.98-2.41-8.61-4.97-11.56-15.98-6.59-24.59ZM521.41,241.13c3.33-5.77,9.38-9,15.6-9,3.05,0,6.15.78,8.98,2.41,8.61,4.97,11.56,15.98,6.59,24.59-3.33,5.77-9.38,9-15.6,9-3.05,0-6.15-.78-8.98-2.41-8.61-4.97-11.56-15.98-6.59-24.59ZM528,598.28c2.83-1.64,5.93-2.41,8.98-2.41,6.22,0,12.27,3.23,15.61,9,4.97,8.61,2.02,19.62-6.59,24.59-2.83,1.64-5.93,2.41-8.98,2.41-6.22,0-12.27-3.23-15.6-9-4.97-8.61-2.02-19.62,6.59-24.59ZM432,204c9.94,0,18,8.06,18,18s-8.06,18-18,18-18-8.06-18-18,8.06-18,18-18ZM318,234.55c2.83-1.64,5.93-2.41,8.98-2.41,6.22,0,12.27,3.23,15.6,9,4.97,8.61,2.02,19.62-6.59,24.59-2.83,1.64-5.93,2.41-8.98,2.41-6.22,0-12.27-3.23-15.61-9-4.97-8.61-2.02-19.62,6.59-24.59ZM275.52,390.07c2.57-9.6,12.45-15.3,22.05-12.73l139.09,37.27c.09.02.18.06.27.09.36.1.72.22,1.07.35.22.08.44.15.66.24.32.13.63.27.94.41.24.11.49.23.72.35.26.13.51.28.76.43.27.16.54.31.79.48.21.14.41.28.61.43.28.2.55.4.81.61.18.15.35.3.53.46.26.23.52.45.76.69.18.17.34.36.51.54.22.23.44.47.65.71.18.22.35.44.52.67s.35.45.51.68c.18.26.35.54.52.81.13.21.26.42.39.64.17.3.32.6.47.91.1.21.21.42.3.63.14.31.26.62.38.94.09.23.18.47.26.7.1.29.18.59.26.89.08.28.15.56.22.85.06.26.1.52.15.79.06.34.12.68.16,1.02.03.23.04.46.06.69.03.38.05.76.06,1.14,0,.09.01.18.01.28v207c0,.51-.03,1-.08,1.5.04.5.08.99.08,1.5,0,9.94-8.06,18-18,18s-18-8.06-18-18c0-.51.03-1,.08-1.5-.04-.5-.08-.99-.08-1.5v-193.19l-125.75-33.7c-9.6-2.57-15.3-12.44-12.73-22.05ZM234.55,318c3.33-5.77,9.38-9,15.6-9,3.05,0,6.15.78,8.98,2.41,8.61,4.97,11.56,15.98,6.59,24.59-3.33,5.77-9.38,9-15.6,9-3.05,0-6.15-.78-8.98-2.41-8.61-4.97-11.56-15.98-6.59-24.59ZM222,414c9.94,0,18,8.06,18,18s-8.06,18-18,18-18-8.06-18-18,8.06-18,18-18Z" style="fill: none; stroke-width: 0px;"/>
    <path d="M684,144H180c-19.88,0-36,16.12-36,36v504c0,19.88,16.12,36,36,36h504c19.88,0,36-16.12,36-36V180c0-19.88-16.12-36-36-36ZM684,684H180s0-504,0-504h504v504Z" style="stroke-width: 0px;"/>
    <path d="M432,657c-9.44,0-17.16-7.26-17.92-16.5-.04.5-.08.99-.08,1.5,0,9.94,8.06,18,18,18s18-8.06,18-18c0-.51-.03-1-.08-1.5-.76,9.24-8.49,16.5-17.92,16.5Z" style="stroke-width: 0px;"/>
    <circle cx="432" cy="222" r="18" style="stroke-width: 0px;"/>
    <circle cx="642" cy="432" r="18" style="stroke-width: 0px;"/>
    <circle cx="222" cy="432" r="18" style="stroke-width: 0px;"/>
    <path d="M336,598.28c-2.83-1.64-5.93-2.41-8.98-2.41-6.22,0-12.27,3.23-15.6,9-4.97,8.61-2.02,19.62,6.59,24.59,2.83,1.64,5.93,2.41,8.98,2.41,6.22,0,12.27-3.23,15.6-9,4.97-8.61,2.02-19.62-6.59-24.59Z" style="stroke-width: 0px;"/>
    <path d="M528,265.72c2.83,1.64,5.93,2.41,8.98,2.41,6.22,0,12.27-3.23,15.6-9,4.97-8.61,2.02-19.62-6.59-24.59-2.83-1.64-5.93-2.41-8.98-2.41-6.22,0-12.27,3.23-15.6,9-4.97,8.61-2.02,19.62,6.59,24.59Z" style="stroke-width: 0px;"/>
    <path d="M604.87,552.59c2.83,1.64,5.93,2.41,8.98,2.41,6.22,0,12.27-3.23,15.6-9,4.97-8.61,2.02-19.62-6.59-24.59-2.83-1.64-5.93-2.41-8.98-2.41-6.22,0-12.27,3.23-15.6,9-4.97,8.61-2.02,19.62,6.59,24.59Z" style="stroke-width: 0px;"/>
    <path d="M241.13,342.59c2.83,1.64,5.93,2.41,8.98,2.41,6.22,0,12.27-3.23,15.6-9,4.97-8.61,2.02-19.62-6.59-24.59-2.83-1.64-5.93-2.41-8.98-2.41-6.22,0-12.27,3.23-15.6,9-4.97,8.61-2.02,19.62,6.59,24.59Z" style="stroke-width: 0px;"/>
    <path d="M250.12,519c-3.05,0-6.15.78-8.98,2.41-8.61,4.97-11.56,15.98-6.59,24.59,3.33,5.77,9.38,9,15.6,9,3.05,0,6.15-.78,8.98-2.41,8.61-4.97,11.56-15.98,6.59-24.59-3.33-5.77-9.38-9-15.6-9Z" style="stroke-width: 0px;"/>
    <path d="M613.88,345c3.05,0,6.15-.78,8.98-2.41,8.61-4.97,11.56-15.98,6.59-24.59-3.33-5.77-9.38-9-15.6-9-3.05,0-6.15.78-8.98,2.41-8.61,4.97-11.56,15.98-6.59,24.59,3.33,5.77,9.38,9,15.6,9Z" style="stroke-width: 0px;"/>
    <path d="M537.02,631.87c3.05,0,6.15-.78,8.98-2.41,8.61-4.97,11.56-15.98,6.59-24.59-3.33-5.77-9.38-9-15.61-9-3.05,0-6.15.78-8.98,2.41-8.61,4.97-11.56,15.98-6.59,24.59,3.33,5.77,9.38,9,15.6,9Z" style="stroke-width: 0px;"/>
    <path d="M327.02,268.14c3.05,0,6.15-.78,8.98-2.41,8.61-4.97,11.56-15.98,6.59-24.59-3.33-5.77-9.38-9-15.6-9-3.05,0-6.15.78-8.98,2.41-8.61,4.97-11.56,15.98-6.59,24.59,3.33,5.77,9.38,9,15.61,9Z" style="stroke-width: 0px;"/>
    <path d="M446.77,421.73c.18.26.35.54.52.81-.17-.27-.34-.55-.52-.81Z" style="stroke-width: 0px;"/>
    <path d="M449.87,429.9c.03.23.04.46.06.69-.02-.23-.04-.46-.06-.69Z" style="stroke-width: 0px;"/>
    <path d="M445.74,420.39c.18.22.35.44.52.67-.17-.22-.34-.45-.52-.67Z" style="stroke-width: 0px;"/>
    <path d="M432.01,450c-1.54,0-3.11-.2-4.67-.62l-13.34-3.57v193.19c0,.51.03,1,.08,1.5.76-9.24,8.49-16.5,17.92-16.5s17.16,7.26,17.92,16.5c.04-.5.08-.99.08-1.5v-207c0-.09-.01-.18-.01-.28.02,1.63-.16,3.29-.6,4.94-2.16,8.04-9.43,13.35-17.38,13.35Z" style="stroke-width: 0px;"/>
    <path d="M449.09,426.36c.1.29.18.59.26.89-.08-.3-.16-.6-.26-.89Z" style="stroke-width: 0px;"/>
    <path d="M449.56,428.1c.06.26.1.52.15.79-.05-.26-.09-.53-.15-.79Z" style="stroke-width: 0px;"/>
    <path d="M441.87,416.96c.21.14.41.28.61.43-.2-.15-.4-.29-.61-.43Z" style="stroke-width: 0px;"/>
    <path d="M440.32,416.05c.26.13.51.28.76.43-.25-.15-.5-.29-.76-.43Z" style="stroke-width: 0px;"/>
    <path d="M447.68,423.18c.17.3.32.6.47.91-.15-.31-.3-.61-.47-.91Z" style="stroke-width: 0px;"/>
    <path d="M448.45,424.72c.14.31.26.62.38.94-.12-.32-.24-.63-.38-.94Z" style="stroke-width: 0px;"/>
    <path d="M443.29,417.99c.18.15.35.3.53.46-.18-.15-.35-.31-.53-.46Z" style="stroke-width: 0px;"/>
    <path d="M436.93,414.7c.36.1.72.22,1.07.35-.35-.13-.71-.24-1.07-.35Z" style="stroke-width: 0px;"/>
    <path d="M444.58,419.14c.18.17.34.36.51.54-.17-.18-.34-.36-.51-.54Z" style="stroke-width: 0px;"/>
    <path d="M438.66,415.29c.32.13.63.27.94.41-.31-.14-.62-.28-.94-.41Z" style="stroke-width: 0px;"/>
    <path d="M432,624c-9.43,0-17.16,7.26-17.92,16.5.76,9.24,8.49,16.5,17.92,16.5s17.16-7.26,17.92-16.5c-.76-9.24-8.49-16.5-17.92-16.5Z" style="stroke-width: 0px;"/>
    <path d="M288.25,412.12l125.75,33.7v-13.81c0-9.94,8.06-18,18-18,1.71,0,3.36.25,4.93.7-.09-.03-.18-.06-.27-.09l-139.09-37.27c-9.6-2.57-19.47,3.12-22.05,12.73-2.57,9.6,3.13,19.47,12.73,22.05Z" style="stroke-width: 0px;"/>
    <path d="M449.93,430.59c.03.38.05.75.06,1.14,0-.38-.03-.76-.06-1.14Z" style="stroke-width: 0px;"/>
    <path d="M449.71,428.88c.06.34.12.67.16,1.02-.04-.34-.1-.68-.16-1.02Z" style="stroke-width: 0px;"/>
    <path d="M448.83,425.66c.09.23.18.47.26.7-.08-.24-.17-.47-.26-.7Z" style="stroke-width: 0px;"/>
    <path d="M449.35,427.25c.08.28.15.56.22.85-.06-.28-.14-.56-.22-.85Z" style="stroke-width: 0px;"/>
    <path d="M442.48,417.38c.28.2.55.4.81.61-.26-.21-.54-.41-.81-.61Z" style="stroke-width: 0px;"/>
    <path d="M441.07,416.47c.27.16.54.31.79.48-.26-.17-.53-.33-.79-.48Z" style="stroke-width: 0px;"/>
    <path d="M439.59,415.7c.24.11.49.23.72.35-.24-.12-.48-.24-.72-.35Z" style="stroke-width: 0px;"/>
    <path d="M443.82,418.45c.26.23.52.45.76.69-.24-.24-.5-.46-.76-.69Z" style="stroke-width: 0px;"/>
    <path d="M448.15,424.09c.1.21.21.42.3.63-.1-.21-.2-.42-.3-.63Z" style="stroke-width: 0px;"/>
    <path d="M438,415.05c.22.08.44.15.66.24-.22-.09-.44-.16-.66-.24Z" style="stroke-width: 0px;"/>
    <path d="M446.27,421.05c.17.22.35.45.51.68-.16-.23-.34-.45-.51-.68Z" style="stroke-width: 0px;"/>
    <path d="M445.1,419.68c.22.23.44.47.65.71-.21-.24-.43-.48-.65-.71Z" style="stroke-width: 0px;"/>
    <path d="M447.29,422.54c.13.21.26.42.39.64-.12-.22-.26-.42-.39-.64Z" style="stroke-width: 0px;"/>
    <path d="M414,432v13.81l13.34,3.57c1.56.42,3.13.62,4.67.62,7.95,0,15.22-5.3,17.38-13.35.44-1.65.62-3.31.6-4.94,0-.38-.03-.76-.06-1.14-.02-.23-.03-.46-.06-.69-.04-.34-.1-.68-.16-1.02-.05-.26-.09-.53-.15-.79-.06-.29-.14-.56-.22-.85-.08-.3-.16-.6-.26-.89-.08-.24-.17-.47-.26-.7-.12-.32-.24-.63-.38-.94-.1-.21-.2-.42-.3-.63-.15-.31-.3-.61-.47-.91-.12-.22-.26-.42-.39-.64-.17-.27-.34-.55-.52-.81-.16-.23-.34-.45-.51-.68-.17-.22-.34-.45-.52-.67-.21-.24-.43-.48-.65-.71-.17-.18-.34-.36-.51-.54-.24-.24-.5-.47-.76-.69-.18-.15-.35-.31-.53-.46-.26-.21-.54-.41-.81-.61-.2-.14-.4-.29-.61-.43-.26-.17-.53-.33-.79-.48-.25-.15-.5-.29-.76-.43-.24-.12-.48-.24-.72-.35-.31-.14-.62-.28-.94-.41-.22-.09-.44-.16-.66-.24-.35-.12-.71-.24-1.07-.35-1.57-.45-3.22-.7-4.93-.7-9.94,0-18,8.06-18,18Z" style="stroke-width: 0px;"/>
  </g>
</svg>