<?xml version="1.0" encoding="UTF-8"?>
<svg id="icon" xmlns="http://www.w3.org/2000/svg" viewBox="0 0 864 864">
  <g id="other_copy" data-name="other copy">
    <path d="M180,684h504s0-504,0-504H180v504ZM259.13,552.59c-2.83,1.64-5.93,2.41-8.98,2.41-6.22,0-12.27-3.23-15.61-9-4.97-8.61-2.02-19.62,6.59-24.59,2.83-1.64,5.93-2.41,8.98-2.41,6.22,0,12.27,3.23,15.61,9,4.97,8.61,2.02,19.62-6.59,24.59ZM546,629.45c-2.83,1.64-5.93,2.41-8.98,2.41-6.22,0-12.27-3.23-15.6-9-4.97-8.61-2.02-19.62,6.59-24.59,2.83-1.64,5.93-2.41,8.98-2.41,6.22,0,12.27,3.23,15.61,9,4.97,8.61,2.02,19.62-6.59,24.59ZM660,432c0,9.94-8.06,18-18,18s-18-8.06-18-18,8.06-18,18-18,18,8.06,18,18ZM604.87,311.41c2.83-1.64,5.93-2.41,8.98-2.41,6.22,0,12.27,3.23,15.61,9,4.97,8.61,2.02,19.62-6.59,24.59-2.83,1.64-5.93,2.41-8.98,2.41-6.22,0-12.27-3.23-15.61-9-4.97-8.61-2.02-19.62,6.59-24.59ZM598.28,528c3.33-5.77,9.38-9,15.61-9,3.05,0,6.15.78,8.98,2.41,8.61,4.97,11.56,15.98,6.59,24.59-3.33,5.77-9.38,9-15.6,9-3.05,0-6.15-.78-8.98-2.41-8.61-4.97-11.56-15.98-6.59-24.59ZM521.41,241.13c3.33-5.77,9.38-9,15.61-9,3.05,0,6.15.78,8.98,2.41,8.61,4.97,11.56,15.98,6.59,24.59-3.33,5.77-9.38,9-15.6,9-3.05,0-6.15-.78-8.98-2.41-8.61-4.97-11.56-15.98-6.59-24.59ZM432,204c9.94,0,18,8.06,18,18s-8.06,18-18,18-18-8.06-18-18,8.06-18,18-18ZM414,639v-207c0-.14.02-.28.02-.42,0-.36.02-.71.05-1.07.02-.29.06-.57.09-.86.04-.29.08-.57.13-.86.06-.35.14-.7.22-1.04.03-.14.05-.28.09-.41.02-.09.06-.18.09-.27.1-.36.22-.72.35-1.07.08-.22.15-.44.24-.66.13-.32.27-.62.41-.93.11-.25.23-.49.35-.73.13-.26.28-.5.42-.75.16-.27.32-.54.49-.8.14-.21.28-.4.43-.61.2-.28.4-.55.61-.82.15-.18.3-.35.45-.53.23-.26.45-.52.69-.76.17-.18.35-.34.53-.51.23-.22.47-.44.71-.65.22-.18.44-.35.67-.52.22-.17.45-.35.68-.51.26-.18.54-.35.81-.52.21-.13.42-.26.63-.38.3-.17.61-.32.92-.47.21-.1.41-.21.62-.3.31-.14.63-.26.95-.38.23-.09.46-.18.69-.25.3-.1.6-.18.9-.26.28-.08.55-.15.83-.21.26-.06.53-.1.8-.15.33-.06.67-.11,1-.15.23-.03.47-.04.7-.06.37-.03.75-.05,1.12-.06.09,0,.19-.01.28-.01.14,0,.28.02.42.02.35,0,.71.02,1.06.05.29.02.58.06.86.1.28.04.57.08.85.13.35.06.7.14,1.05.22.14.03.27.05.41.09l139.09,37.27c9.6,2.57,15.3,12.44,12.73,22.05-2.15,8.04-9.43,13.35-17.38,13.35-1.54,0-3.11-.2-4.67-.62l-116.43-31.2v183.54c0,.51-.03,1-.08,1.5.04.5.08.99.08,1.5,0,9.94-8.06,18-18,18s-18-8.06-18-18c0-.51.03-1,.08-1.5-.04-.5-.08-.99-.08-1.5ZM318,234.55c2.83-1.64,5.93-2.41,8.98-2.41,6.22,0,12.27,3.23,15.61,9,4.97,8.61,2.02,19.62-6.59,24.59-2.83,1.64-5.93,2.41-8.98,2.41-6.22,0-12.27-3.23-15.61-9-4.97-8.61-2.02-19.62,6.59-24.59ZM311.41,604.87c3.33-5.77,9.38-9,15.6-9,3.05,0,6.15.78,8.98,2.41,8.61,4.97,11.56,15.98,6.59,24.59-3.33,5.77-9.38,9-15.61,9-3.05,0-6.15-.78-8.98-2.41-8.61-4.97-11.56-15.98-6.59-24.59ZM234.55,318c3.33-5.77,9.38-9,15.61-9,3.05,0,6.15.78,8.98,2.41,8.61,4.97,11.56,15.98,6.59,24.59-3.33,5.77-9.38,9-15.61,9-3.05,0-6.15-.78-8.98-2.41-8.61-4.97-11.56-15.98-6.59-24.59ZM222,414c9.94,0,18,8.06,18,18s-8.06,18-18,18-18-8.06-18-18,8.06-18,18-18Z" style="fill: none; stroke-width: 0px;"/>
    <path d="M684,144H180c-19.88,0-36,16.12-36,36v504c0,19.88,16.12,36,36,36h504c19.88,0,36-16.12,36-36V180c0-19.88-16.12-36-36-36ZM684,684H180s0-504,0-504h504v504Z" style="stroke-width: 0px;"/>
    <path d="M432,660c9.94,0,18-8.06,18-18,0-.51-.03-1-.08-1.5-.76,9.24-8.49,16.5-17.92,16.5s-17.16-7.26-17.92-16.5c-.04.5-.08.99-.08,1.5,0,9.94,8.06,18,18,18Z" style="stroke-width: 0px;"/>
    <circle cx="432" cy="222" r="18" style="stroke-width: 0px;"/>
    <circle cx="642" cy="432" r="18" style="stroke-width: 0px;"/>
    <circle cx="222" cy="432" r="18" style="stroke-width: 0px;"/>
    <path d="M318,629.45c2.83,1.64,5.93,2.41,8.98,2.41,6.22,0,12.27-3.23,15.61-9,4.97-8.61,2.02-19.62-6.59-24.59-2.83-1.64-5.93-2.41-8.98-2.41-6.22,0-12.27,3.23-15.6,9-4.97,8.61-2.02,19.62,6.59,24.59Z" style="stroke-width: 0px;"/>
    <path d="M528,265.72c2.83,1.64,5.93,2.41,8.98,2.41,6.22,0,12.27-3.23,15.6-9,4.97-8.61,2.02-19.62-6.59-24.59-2.83-1.64-5.93-2.41-8.98-2.41-6.22,0-12.27,3.23-15.61,9-4.97,8.61-2.02,19.62,6.59,24.59Z" style="stroke-width: 0px;"/>
    <path d="M604.87,552.59c2.83,1.64,5.93,2.41,8.98,2.41,6.22,0,12.27-3.23,15.6-9,4.97-8.61,2.02-19.62-6.59-24.59-2.83-1.64-5.93-2.41-8.98-2.41-6.22,0-12.27,3.23-15.61,9-4.97,8.61-2.02,19.62,6.59,24.59Z" style="stroke-width: 0px;"/>
    <path d="M241.13,342.59c2.83,1.64,5.93,2.41,8.98,2.41,6.22,0,12.27-3.23,15.61-9,4.97-8.61,2.02-19.62-6.59-24.59-2.83-1.64-5.93-2.41-8.98-2.41-6.22,0-12.27,3.23-15.61,9-4.97,8.61-2.02,19.62,6.59,24.59Z" style="stroke-width: 0px;"/>
    <path d="M250.12,519c-3.05,0-6.15.78-8.98,2.41-8.61,4.97-11.56,15.98-6.59,24.59,3.33,5.77,9.38,9,15.61,9,3.05,0,6.15-.78,8.98-2.41,8.61-4.97,11.56-15.98,6.59-24.59-3.33-5.77-9.38-9-15.61-9Z" style="stroke-width: 0px;"/>
    <path d="M613.88,345c3.05,0,6.15-.78,8.98-2.41,8.61-4.97,11.56-15.98,6.59-24.59-3.33-5.77-9.38-9-15.61-9-3.05,0-6.15.78-8.98,2.41-8.61,4.97-11.56,15.98-6.59,24.59,3.33,5.77,9.38,9,15.61,9Z" style="stroke-width: 0px;"/>
    <path d="M536.98,595.86c-3.05,0-6.15.78-8.98,2.41-8.61,4.97-11.56,15.98-6.59,24.59,3.33,5.77,9.38,9,15.6,9,3.05,0,6.15-.78,8.98-2.41,8.61-4.97,11.56-15.98,6.59-24.59-3.33-5.77-9.38-9-15.61-9Z" style="stroke-width: 0px;"/>
    <path d="M327.02,268.14c3.05,0,6.15-.78,8.98-2.41,8.61-4.97,11.56-15.98,6.59-24.59-3.33-5.77-9.38-9-15.61-9-3.05,0-6.15.78-8.98,2.41-8.61,4.97-11.56,15.98-6.59,24.59,3.33,5.77,9.38,9,15.61,9Z" style="stroke-width: 0px;"/>
    <path d="M432,624c9.43,0,17.16,7.26,17.92,16.5.04-.5.08-.99.08-1.5v-183.54l-22.66-6.07c-8.19-2.19-13.51-9.69-13.32-17.81,0,.14-.02.28-.02.42v207c0,.51.03,1,.08,1.5.76-9.24,8.49-16.5,17.92-16.5Z" style="stroke-width: 0px;"/>
    <path d="M428.09,414.44c.26-.06.53-.1.8-.15-.27.05-.53.09-.8.15Z" style="stroke-width: 0px;"/>
    <path d="M433.49,414.08c.29.02.57.06.86.1-.29-.04-.57-.07-.86-.1Z" style="stroke-width: 0px;"/>
    <path d="M416.96,422.13c.14-.21.28-.4.43-.61-.14.2-.29.4-.43.61Z" style="stroke-width: 0px;"/>
    <path d="M424.72,415.55c.31-.14.63-.26.95-.38-.32.12-.64.24-.95.38Z" style="stroke-width: 0px;"/>
    <path d="M426.36,414.92c.3-.1.6-.18.9-.26-.3.08-.6.17-.9.26Z" style="stroke-width: 0px;"/>
    <path d="M435.2,414.3c.35.06.7.14,1.05.22-.35-.08-.69-.16-1.05-.22Z" style="stroke-width: 0px;"/>
    <path d="M432,414c-.1,0-.19.01-.28.01.23,0,.47,0,.71,0-.14,0-.28-.02-.42-.02Z" style="stroke-width: 0px;"/>
    <path d="M429.89,414.13c.23-.03.47-.04.7-.06-.23.02-.47.04-.7.06Z" style="stroke-width: 0px;"/>
    <path d="M414.7,427.07c.1-.36.22-.72.35-1.07-.13.35-.24.71-.35,1.07Z" style="stroke-width: 0px;"/>
    <path d="M414.08,430.51c.02-.29.06-.57.09-.86-.04.28-.07.57-.09.86Z" style="stroke-width: 0px;"/>
    <path d="M417.99,420.71c.15-.18.3-.35.45-.53-.15.17-.31.35-.45.53Z" style="stroke-width: 0px;"/>
    <path d="M414.3,428.8c.06-.35.14-.7.22-1.04-.08.34-.16.69-.22,1.04Z" style="stroke-width: 0px;"/>
    <path d="M415.29,425.34c.13-.32.27-.63.41-.93-.14.31-.28.62-.41.93Z" style="stroke-width: 0px;"/>
    <path d="M416.05,423.68c.13-.26.28-.5.42-.75-.15.25-.29.5-.42.75Z" style="stroke-width: 0px;"/>
    <path d="M419.14,419.42c.17-.18.35-.34.53-.51-.18.17-.36.33-.53.51Z" style="stroke-width: 0px;"/>
    <path d="M421.73,417.23c.26-.18.54-.35.81-.52-.27.17-.55.34-.81.52Z" style="stroke-width: 0px;"/>
    <path d="M420.39,418.26c.22-.18.44-.35.67-.52-.22.17-.45.34-.67.52Z" style="stroke-width: 0px;"/>
    <path d="M423.17,416.32c.3-.17.61-.32.92-.47-.31.15-.62.3-.92.47Z" style="stroke-width: 0px;"/>
    <path d="M432,657c9.43,0,17.16-7.26,17.92-16.5-.76-9.24-8.49-16.5-17.92-16.5s-17.16,7.26-17.92,16.5c.76,9.24,8.49,16.5,17.92,16.5Z" style="stroke-width: 0px;"/>
    <path d="M415.7,424.41c.11-.24.23-.49.35-.73-.12.24-.24.48-.35.73Z" style="stroke-width: 0px;"/>
    <path d="M416.47,422.93c.16-.27.31-.54.49-.8-.17.26-.33.53-.49.8Z" style="stroke-width: 0px;"/>
    <path d="M417.38,421.52c.2-.28.4-.55.61-.82-.21.26-.41.54-.61.82Z" style="stroke-width: 0px;"/>
    <path d="M418.45,420.18c.23-.26.45-.52.69-.76-.24.25-.47.5-.69.76Z" style="stroke-width: 0px;"/>
    <path d="M414.61,427.34c-.04.14-.06.27-.09.41.06-.23.11-.46.17-.68-.03.09-.06.18-.09.27Z" style="stroke-width: 0px;"/>
    <path d="M415.05,426c.08-.22.15-.44.24-.66-.09.22-.16.44-.24.66Z" style="stroke-width: 0px;"/>
    <path d="M419.67,418.91c.23-.22.47-.44.71-.65-.25.21-.48.43-.71.65Z" style="stroke-width: 0px;"/>
    <path d="M414.17,429.65c.04-.29.08-.57.13-.86-.05.29-.09.57-.13.86Z" style="stroke-width: 0px;"/>
    <path d="M414.02,431.58c0-.36.02-.72.05-1.07-.03.36-.05.71-.05,1.07Z" style="stroke-width: 0px;"/>
    <path d="M430.59,414.07c.37-.03.75-.05,1.12-.06-.38,0-.75.03-1.12.06Z" style="stroke-width: 0px;"/>
    <path d="M432.42,414.02c.36,0,.71.02,1.06.05-.36-.03-.71-.05-1.06-.05Z" style="stroke-width: 0px;"/>
    <path d="M422.54,416.71c.21-.13.42-.26.63-.38-.21.12-.42.25-.63.38Z" style="stroke-width: 0px;"/>
    <path d="M434.35,414.17c.29.04.57.08.85.13-.28-.05-.57-.09-.85-.13Z" style="stroke-width: 0px;"/>
    <path d="M428.89,414.29c.33-.06.67-.11,1-.15-.34.04-.67.09-1,.15Z" style="stroke-width: 0px;"/>
    <path d="M424.09,415.85c.21-.1.41-.21.62-.3-.21.09-.42.2-.62.3Z" style="stroke-width: 0px;"/>
    <path d="M427.26,414.65c.28-.08.55-.15.83-.21-.28.06-.56.14-.83.21Z" style="stroke-width: 0px;"/>
    <path d="M425.67,415.17c.23-.09.46-.18.69-.25-.23.08-.46.17-.69.25Z" style="stroke-width: 0px;"/>
    <path d="M450,432v23.46l116.43,31.2c1.56.42,3.13.62,4.67.62,7.95,0,15.22-5.3,17.38-13.35,2.57-9.6-3.13-19.47-12.73-22.05l-139.09-37.27c-.14-.04-.27-.06-.41-.09,7.89,1.91,13.75,9,13.75,17.48Z" style="stroke-width: 0px;"/>
    <path d="M421.05,417.73c.22-.17.45-.35.68-.51-.23.16-.45.34-.68.51Z" style="stroke-width: 0px;"/>
    <path d="M427.34,449.39l22.66,6.07v-23.46c0-8.48-5.87-15.56-13.75-17.48-.35-.08-.7-.16-1.05-.22-.28-.05-.57-.09-.85-.13-.29-.04-.57-.07-.86-.1-.35-.03-.71-.05-1.06-.05-.24,0-.47-.01-.71,0-.38,0-.75.03-1.12.06-.23.02-.47.04-.7.06-.34.04-.67.1-1,.15-.27.05-.53.09-.8.15-.28.06-.56.14-.83.21-.3.08-.6.17-.9.26-.23.08-.46.17-.69.25-.32.12-.64.24-.95.38-.21.09-.42.2-.62.3-.31.15-.62.3-.92.47-.21.12-.42.25-.63.38-.27.17-.55.34-.81.52-.23.16-.45.34-.68.51-.22.17-.45.34-.67.52-.25.21-.48.43-.71.65-.18.17-.36.33-.53.51-.24.25-.47.5-.69.76-.15.17-.31.35-.45.53-.21.26-.41.54-.61.82-.14.2-.29.4-.43.61-.17.26-.33.53-.49.8-.14.25-.29.5-.42.75-.12.24-.24.48-.35.73-.14.31-.28.62-.41.93-.09.22-.16.44-.24.66-.12.35-.24.71-.35,1.07-.06.22-.12.45-.17.68-.08.35-.16.7-.22,1.04-.05.28-.09.57-.13.86-.04.29-.07.57-.09.86-.03.35-.05.71-.05,1.07-.19,8.11,5.13,15.61,13.32,17.81Z" style="stroke-width: 0px;"/>
  </g>
</svg>