<?xml version="1.0" encoding="UTF-8"?>
<svg id="icon" xmlns="http://www.w3.org/2000/svg" viewBox="0 0 864 864">
  <path d="M432,720c76.93,0,149.25-29.96,203.65-84.35,54.4-54.4,84.35-126.72,84.35-203.65s-29.96-149.25-84.35-203.65c-54.4-54.4-126.72-84.35-203.65-84.35s-149.25,29.96-203.65,84.35c-54.4,54.4-84.35,126.72-84.35,203.65s29.96,149.25,84.35,203.65c54.4,54.4,126.72,84.35,203.65,84.35ZM180.29,444h104.85c1.48,69.46,15.78,134.51,40.67,184.29,8.4,16.79,17.73,31.28,27.79,43.33-37.21-12.13-71.31-32.95-99.79-61.43-44.76-44.76-70.6-103.39-73.52-166.19ZM402.64,181.7c5.75-.66,11.53-1.14,17.36-1.41v239.71h-110.86c1.46-65.77,14.86-127.01,38.14-173.55,15.91-31.83,34.96-53.91,55.37-64.75ZM516.73,246.45c23.27,46.54,36.68,107.79,38.14,173.55h-110.86v-239.71c5.83.27,11.61.75,17.36,1.41,20.41,10.84,39.45,32.92,55.37,64.75ZM461.36,682.3c-5.75.66-11.53,1.14-17.36,1.41v-239.71h110.86c-1.46,65.77-14.86,127.01-38.14,173.55-15.91,31.83-34.96,53.91-55.37,64.75ZM420,444v239.71c-5.83-.27-11.61-.75-17.36-1.41-20.41-10.84-39.45-32.92-55.37-64.75-23.27-46.54-36.68-107.79-38.14-173.55h110.86ZM610.19,610.19c-28.48,28.48-62.58,49.29-99.79,61.43,10.06-12.05,19.39-26.54,27.79-43.33,24.89-49.77,39.19-114.82,40.67-184.29h104.85c-2.92,62.8-28.77,121.43-73.52,166.19ZM683.71,420h-104.85c-1.48-69.46-15.78-134.51-40.67-184.29-8.4-16.79-17.73-31.28-27.79-43.33,37.21,12.13,71.31,32.95,99.79,61.43,44.76,44.76,70.6,103.39,73.52,166.19ZM253.81,253.81c28.48-28.48,62.58-49.29,99.79-61.43-10.06,12.05-19.39,26.54-27.79,43.33-24.89,49.77-39.19,114.82-40.67,184.29h-104.85c2.92-62.8,28.77-121.43,73.52-166.19Z" style="stroke-width: 0px;"/>
</svg>