<?xml version="1.0" encoding="UTF-8"?>
<svg id="icon" xmlns="http://www.w3.org/2000/svg" viewBox="0 0 864 864">
  <path d="M170.89,443.59l480,128.62c1.03.28,2.07.41,3.11.41,3.67,0,7.21-1.69,9.52-4.7,2.95-3.85,3.3-9.1.87-13.31l-70.79-122.62,43.61-75.54,27.18-47.08c2.43-4.2,2.08-9.45-.87-13.31-2.96-3.85-7.94-5.54-12.63-4.29l-480,128.62c-5.25,1.41-8.89,6.16-8.89,11.59s3.65,10.19,8.89,11.59ZM629.12,322.47l-12.69,21.99-47.08,81.54c-2.14,3.71-2.14,8.29,0,12l59.77,103.53-408.76-109.53,408.76-109.53Z" style="stroke-width: 0px;"/>
</svg>