<?xml version="1.0" encoding="UTF-8"?>
<svg id="icon" xmlns="http://www.w3.org/2000/svg" viewBox="0 0 864 864">
  <path d="M432,144c-73.71,0-147.41,28.12-203.65,84.35-112.47,112.47-112.47,294.82,0,407.29,56.24,56.24,129.94,84.35,203.65,84.35s147.41-28.12,203.65-84.35c112.47-112.47,112.47-294.82,0-407.29-56.24-56.24-129.94-84.35-203.65-84.35ZM586.64,293.75l-192.56,333.53c-2.16,3.74-6.14,6-10.39,6-.52,0-1.04-.03-1.57-.1-4.81-.63-8.77-4.1-10.02-8.79l-28-104.48-104.48-28c-4.69-1.26-8.16-5.21-8.79-10.02-.63-4.81,1.69-9.53,5.9-11.96l333.53-192.56c4.7-2.72,10.65-1.93,14.49,1.91,3.84,3.84,4.62,9.78,1.91,14.49Z" style="stroke-width: 0px;"/>
</svg>