<?xml version="1.0" encoding="UTF-8"?>
<svg id="icon" xmlns="http://www.w3.org/2000/svg" viewBox="0 0 864 864">
  <path d="M432,144c-159.06,0-288,128.94-288,288s128.94,288,288,288,288-128.94,288-288-128.94-288-288-288ZM264,543.68c-3.67,0-7.21-1.69-9.52-4.7-2.96-3.85-3.3-9.1-.87-13.31l54.08-93.68-54.08-93.68c-2.43-4.2-2.08-9.45.87-13.31,2.95-3.85,7.94-5.54,12.63-4.29l372,99.68c5.25,1.41,8.89,6.16,8.89,11.59s-3.65,10.19-8.89,11.59l-372,99.68c-1.03.28-2.07.41-3.11.41Z" style="stroke-width: 0px;"/>
</svg>