<?xml version="1.0" encoding="UTF-8"?>
<svg id="icon" xmlns="http://www.w3.org/2000/svg" viewBox="0 0 864 864">
  <path d="M576,182.58c-66.62-38.46-144.23-48.68-218.54-28.77-74.31,19.91-136.41,67.57-174.88,134.19-38.46,66.62-48.68,144.23-28.77,218.54,19.91,74.31,67.57,136.41,134.19,174.88,44.38,25.62,93.62,38.71,143.53,38.71,25.01,0,50.2-3.29,75.01-9.94,74.31-19.91,136.41-67.57,174.88-134.19,38.46-66.62,48.68-144.23,28.77-218.54-19.91-74.31-67.57-136.41-134.19-174.88ZM598.15,313.67c-3.12,51.94-22.13,111.69-53.75,169.37l-96.01-55.43,119.86-207.6c4.91,3.15,9.68,6.46,14.33,9.9,12.25,19.6,17.71,48.24,15.57,83.76ZM332.27,663.45c-5.31-2.3-10.56-4.78-15.74-7.46l119.86-207.6,96.01,55.43c-34.14,56.23-76.38,102.56-119.8,131.23-29.7,19.61-57.23,29.21-80.32,28.39ZM265.85,550.33c3.12-51.94,22.13-111.69,53.75-169.37l96.01,55.43-119.86,207.6c-4.91-3.15-9.68-6.46-14.33-9.9-12.25-19.6-17.71-48.24-15.57-83.76ZM531.75,200.55c5.3,2.3,10.54,4.78,15.71,7.46l-119.86,207.6-96.01-55.43c34.14-56.23,76.38-102.56,119.8-131.23,28.54-18.84,55.08-28.45,77.6-28.45.92,0,1.84.02,2.75.05ZM366.78,188.59c21.71-5.82,43.74-8.69,65.63-8.69,17.34,0,34.58,1.81,51.51,5.39-14.74,5.41-30.07,13.29-45.74,23.63-46.44,30.66-91.35,79.84-127.37,139.26l-90.8-52.43c33.94-52.93,85.63-90.78,146.77-107.16ZM188.59,497.22c-16.38-61.14-9.45-124.83,19.42-180.69l90.8,52.43c-33.45,60.9-53.59,124.38-56.92,179.93-1.12,18.74-.29,35.95,2.4,51.42-26.16-29.11-45.28-64.19-55.71-103.09ZM497.22,675.41c-38.9,10.42-78.83,11.4-117.12,3.3,14.74-5.41,30.06-13.29,45.72-23.63,46.44-30.66,91.35-79.84,127.37-139.26l90.8,52.43c-33.94,52.93-85.63,90.78-146.77,107.16ZM655.99,547.47l-90.8-52.43c33.45-60.9,53.59-124.38,56.92-179.93,1.12-18.74.29-35.95-2.4-51.42,26.16,29.11,45.28,64.19,55.71,103.09,16.38,61.14,9.45,124.83-19.42,180.69Z" style="stroke-width: 0px;"/>
</svg>