<?xml version="1.0" encoding="UTF-8"?>
<svg id="icon" xmlns="http://www.w3.org/2000/svg" viewBox="0 0 864 864">
  <path d="M702.92,334.29c-22.99-63.85-68.07-117.73-126.92-151.71-66.62-38.46-144.23-48.68-218.54-28.77-74.31,19.91-136.41,67.57-174.88,134.19-38.46,66.62-48.68,144.23-28.77,218.54,19.91,74.31,67.57,136.41,134.19,174.88,44.38,25.62,93.62,38.71,143.53,38.71,25.01,0,50.2-3.29,75.01-9.94,74.31-19.91,136.41-67.57,174.88-134.19,8.59-14.88,15.88-30.56,21.66-46.59,22.62-62.74,22.57-132.03-.15-195.12ZM669.05,346.49c16.72,46.43,19.42,96.69,8.09,144.13-15.93-19.7-36.79-40.67-61.59-61.84-13.5-11.52-28.09-23.02-43.51-34.33,14-31.85,25.28-62.82,33.14-91.27,4.36-15.81,7.64-30.66,9.81-44.42,23.72,25.05,42.24,54.88,54.07,87.73ZM593.36,238.46c-1.55,17.1-5.34,36.66-11.32,58.34-7.18,26.03-17.37,54.29-29.98,83.44-20.95-14.48-43.14-28.53-66.07-41.77-22.94-13.24-46.21-25.43-69.22-36.32,34.8-46.81,70.65-84.5,102.21-106.71,13.36,4.95,26.41,11.06,39,18.33,12.54,7.24,24.36,15.52,35.36,24.7ZM542.05,402.51c-11.07,23.7-23.6,47.76-37.3,71.49-13.79,23.89-28.36,46.74-43.26,68.04-23.56-11-47.6-23.5-71.49-37.3-23.89-13.79-46.74-28.35-68.04-43.25,11-23.56,23.5-47.6,37.3-71.49,13.79-23.89,28.36-46.74,43.26-68.05,23.7,11.07,47.76,23.6,71.49,37.3,23.89,13.79,46.74,28.36,68.05,43.26ZM366.78,188.59c21.71-5.82,43.74-8.7,65.63-8.7,19.65,0,39.18,2.33,58.27,6.92-19.72,15.94-40.71,36.81-61.9,61.64-11.52,13.5-23.02,28.09-34.33,43.51-31.85-14-62.82-25.28-91.27-33.14-15.87-4.38-30.76-7.66-44.57-9.83,30.08-28.57,66.97-49.37,108.17-60.4ZM238.37,270.63c17.12,1.54,36.72,5.34,58.43,11.33,26.03,7.18,54.29,17.37,83.44,29.98-14.48,20.95-28.53,43.14-41.77,66.07-13.24,22.93-25.43,46.19-36.33,69.21-46.81-34.8-84.49-70.65-106.71-102.21,4.95-13.36,11.06-26.41,18.33-39,7.27-12.59,15.51-24.41,24.61-35.37ZM188.59,497.22c-11.04-41.2-11.48-83.55-1.77-123.89,15.94,19.72,36.81,40.7,61.64,61.89,13.49,11.51,28.07,23.01,43.48,34.31-7.69,17.5-14.57,34.74-20.5,51.46-10.91,30.76-18.49,59.37-22.43,84.41-28.58-30.08-49.38-66.98-60.42-108.18ZM270.63,625.63c3.46-38.44,18.17-88.33,41.31-141.87,20.95,14.48,43.14,28.53,66.06,41.77,22.93,13.24,46.19,25.43,69.21,36.33-34.8,46.81-70.65,84.49-102.21,106.71-13.36-4.95-26.41-11.06-39-18.33-12.59-7.27-24.4-15.51-35.37-24.61ZM497.22,675.41c-41.2,11.04-83.55,11.48-123.89,1.77,19.72-15.94,40.7-36.81,61.89-61.64,11.51-13.49,23.01-28.07,34.31-43.48,17.5,7.69,34.74,14.57,51.46,20.5,30.76,10.91,59.37,18.49,84.41,22.43-30.08,28.58-66.98,49.38-108.18,60.42ZM625.63,593.37c-38.44-3.46-88.33-18.17-141.87-41.31,14.48-20.95,28.53-43.14,41.77-66.06,13.24-22.94,25.43-46.21,36.32-69.22,46.8,34.79,84.48,70.64,106.7,102.19-4.95,13.42-11.1,26.54-18.31,39.03-7.27,12.59-15.51,24.4-24.61,35.37Z" style="stroke-width: 0px;"/>
</svg>