<?xml version="1.0" encoding="UTF-8"?>
<svg id="icon" xmlns="http://www.w3.org/2000/svg" viewBox="0 0 864 864">
  <path d="M432,144c-73.71,0-147.41,28.12-203.65,84.35-112.47,112.47-112.47,294.82,0,407.29,56.24,56.24,129.94,84.35,203.65,84.35s147.41-28.12,203.65-84.35c112.47-112.47,112.47-294.82,0-407.29-56.24-56.24-129.94-84.35-203.65-84.35ZM684,432c0,32.75-6.21,64.66-18.45,94.85-12.67,31.24-31.29,59.28-55.36,83.35-24.07,24.07-52.11,42.69-83.34,55.36-30.19,12.24-62.1,18.45-94.85,18.45s-64.66-6.21-94.85-18.45c-31.24-12.67-59.28-31.29-83.34-55.36-24.07-24.07-42.69-52.11-55.36-83.35-12.24-30.19-18.45-62.1-18.45-94.85s6.21-64.66,18.45-94.85c12.67-31.24,31.29-59.28,55.36-83.35,24.07-24.07,52.11-42.69,83.34-55.36,30.19-12.24,62.1-18.45,94.85-18.45s64.66,6.21,94.85,18.45c31.24,12.67,59.28,31.29,83.34,55.36,24.07,24.07,42.69,52.11,55.36,83.35,12.24,30.19,18.45,62.1,18.45,94.85Z" style="stroke-width: 0px;"/>
  <path d="M570.25,277.36l-333.53,192.56c-4.2,2.43-6.53,7.15-5.9,11.96.63,4.81,4.1,8.77,8.79,10.02l104.48,28,28,104.48c1.26,4.69,5.21,8.16,10.02,8.79.53.07,1.05.1,1.57.1,4.25,0,8.23-2.26,10.39-6l192.56-333.53c2.72-4.7,1.93-10.64-1.91-14.49-3.84-3.84-9.78-4.62-14.49-1.91Z" style="stroke-width: 0px;"/>
</svg>