<?xml version="1.0" encoding="UTF-8"?>
<svg id="icon" xmlns="http://www.w3.org/2000/svg" viewBox="0 0 864 864">
  <path d="M432,720c73.71,0,147.41-28.12,203.65-84.35,112.47-112.47,112.47-294.82,0-407.29-56.24-56.24-129.94-84.35-203.65-84.35s-147.41,28.12-203.65,84.35c-112.47,112.47-112.47,294.82,0,407.29,56.24,56.24,129.94,84.35,203.65,84.35ZM279.26,279.26c3.84-3.84,9.78-4.62,14.49-1.91l333.53,192.56c4.2,2.43,6.53,7.15,5.9,11.96s-4.1,8.77-8.79,10.02l-104.48,28-28,104.48c-1.26,4.69-5.21,8.16-10.02,8.79-.53.07-1.05.1-1.57.1-4.25,0-8.23-2.26-10.39-6l-192.56-333.53c-2.72-4.7-1.93-10.65,1.91-14.49Z" style="stroke-width: 0px;"/>
</svg>