<?xml version="1.0" encoding="UTF-8"?>
<svg id="icon" xmlns="http://www.w3.org/2000/svg" viewBox="0 0 864 864">
  <path d="M683.01,435.77c6.65-11.91,11.7-24.86,14.81-38.12,8.78-36.27,3.03-75.56-15.77-107.79-12.55-22.15-31.3-40.8-54.24-53.92-21.42-12.25-45.12-18.92-68.88-19.41-.32-.55-.65-1.1-.96-1.65l-2.63-4.13-.04-.06c-11.54-17.56-27.01-32.74-44.73-43.91-1.19-.79-2.99-1.92-4.25-2.61-2.49-1.46-6.06-3.44-8.5-4.61l-2.02-1.03-6.62-2.99-.2-.09c-.79-.32-2.31-.91-3.79-1.48-1.14-.44-2.21-.86-2.77-1.08l-.25-.09c-1.08-.37-2.23-.75-3.39-1.13-1.11-.37-2.22-.73-3.26-1.09l-4.78-1.37h-.05c-15.84-4.36-32.19-5.99-48.59-4.86-15.98,1.1-31.61,4.78-46.45,10.95-14.85,6.17-28.48,14.64-40.52,25.18-11.15,9.76-20.66,21.09-28.34,33.7-2.26.05-4.53.15-6.81.3h-.15c-.97.1-2.09.21-3.21.32-1.11.11-2.21.22-3.18.31h-.08c-1.05.12-2.6.36-4.1.58-1.09.16-2.21.33-2.92.42l-.29.05c-2.24.4-4.7.89-6.87,1.32l-.21.04c-1.01.22-2.57.61-4.08.98-1.05.26-2.06.51-2.77.68l-.33.09c-.54.16-1.41.41-2.36.69-1.75.5-3.55,1.02-4.48,1.32l-.1.03c-.55.19-1.11.38-1.69.58-1.68.58-3.43,1.17-5.03,1.76l-.28.11c-.46.2-1.41.57-2.34.94-1.97.77-3.34,1.32-4.24,1.74-1.02.45-2.19.99-3.33,1.51-.88.41-1.73.8-2.47,1.13l-.19.09c-11.14,5.49-21.49,12.27-30.75,20.14-1.04.86-2.35,2.02-3.51,3.05-.35.31-.69.61-.98.87l-.12.11c-1.15,1.08-3.96,3.81-5.14,4.99l-.1.1c-4.01,4.23-8.22,8.82-11.83,13.75l-.04.06c-.26.37-.68.92-1.09,1.45-.63.82-1.28,1.68-1.76,2.38l-.03.04c-.39.58-.84,1.24-1.32,1.94-1.36,1.98-2.89,4.23-3.94,6.06-13.98,22.12-21.53,48.21-21.83,75.45-.28,25.39,5.75,49.94,17.49,71.35-6.34,11.59-11.16,24.14-14.18,36.98-8.78,36.28-3.03,75.56,15.77,107.79,12.55,22.15,31.3,40.79,54.24,53.92,21.36,12.22,45,18.88,68.7,19.4,3.29,5.45,7.3,11.08,12.41,17.44l.17.2c.7.79,1.48,1.69,2.27,2.59.81.93,1.61,1.85,2.34,2.67l.11.12c.22.23.73.76,1.32,1.38.9.93,2.26,2.34,2.61,2.73.75.83,1.58,1.61,2.39,2.36.43.4.85.78,1.18,1.11l.03.03c2.14,2.1,4.99,4.54,7.28,6.51l.37.32.18.15c.77.6,1.65,1.29,2.53,1.98.87.68,1.75,1.36,2.51,1.96l.14.1c1.44,1.06,4.33,3.1,5.8,4.13l.14.1c2.18,1.43,4.19,2.71,5.98,3.83l.22.13c.7.39,1.72.98,2.77,1.59,1.2.69,2.44,1.41,3.3,1.89l.28.14c.58.28,1.89.96,3.04,1.56,1.29.67,2.51,1.3,3.17,1.62l.25.11c.68.29,1.91.85,3.09,1.39,1.26.57,2.44,1.11,3.25,1.45l.22.09c.51.19,1.49.59,2.53,1,1.94.78,3.27,1.31,4.06,1.58,16.1,5.86,33.12,8.75,50.12,8.75,25.57,0,51.07-6.54,73.27-19.35,21.08-12.12,38.79-29.2,51.45-49.58,18.24-.32,36.86-4.24,54.01-11.38,17.95-7.48,34.5-18.57,47.81-32.05,11.47-11.47,20.88-24.77,27.97-39.5,6.89-14.34,11.4-29.67,13.4-45.55,2-15.9,1.43-31.86-1.7-47.44-2.78-13.84-7.53-27.06-14.13-39.38h0ZM658.51,309.68l.73,1.77c1.15,2.77,2.06,5.18,2.7,7.15v.05c.17.46.3.84.42,1.19.28.81.46,1.35.76,2.4l1.2,3.94.08.25c.03.1.04.19.07.29l.76,3.04.06.22c.33,1.14.75,3.27,1.09,4.98.18.92.35,1.77.5,2.43l.08.34.18,1.2c.09.66.2,1.34.3,2.04.19,1.22.38,2.48.46,3.54.06.82.16,1.65.25,2.45.13,1.15.25,2.23.29,3.24l.22,3.9v1.82l.07,3.92c-.01.42-.02.85-.03,1.28-.05,2.08-.11,4.23-.27,6.18-.1,1.25-.21,2.54-.29,3.85-.13.93-.25,1.96-.37,2.96-.1.9-.21,1.83-.32,2.62-.12.7-.24,1.41-.35,2.12-.18,1.14-.38,2.32-.58,3.41-.18.81-.36,1.69-.55,2.59-.14.7-.29,1.41-.45,2.13-4.01,16.93-11.54,32.9-21.78,46.18l-.03.04c-7.51,9.92-16.81,18.77-27.67,26.32l-.06.04c-1.49.96-3.34,2.15-4.83,3.16-.54.33-1.47.88-2.37,1.41-.96.56-1.86,1.09-2.48,1.47-.12.07-.26.14-.39.21-.09.05-.18.1-.23.13-.94.46-1.87.96-2.77,1.44-.85.46-1.66.89-2.41,1.26-.7.33-1.9.89-3.04,1.42-.83.39-1.62.75-2.15,1-1.44.56-2.93,1.19-4.38,1.79l-.97.41c-.44.16-1.11.39-1.83.65-1.34.47-2.72.96-3.56,1.27-1.02.3-2.07.63-3.1.94-.81.25-1.61.5-2.37.73-.49.13-1.25.32-2.08.53-1.29.33-2.62.67-3.44.89-.84.15-1.99.4-3.21.66-.92.2-1.87.4-2.42.5-.55.09-1.44.23-2.38.38-1.31.2-2.67.42-3.46.55-.68.09-1.85.22-2.99.34-1.03.11-2,.22-2.71.31-.51.03-1.19.09-1.96.15-1.13.09-3.01.24-3.59.24s-1.34.02-2.16.04c-.71.02-1.45.03-1.9.03h-.1c-9.75.17-19.97-.89-30.36-3.15l-2.93-.74-.2-.05c-1.74-.37-3.51-.9-5.39-1.46-.89-.26-1.81-.54-2.74-.8-.67-.22-1.42-.48-2.18-.75-1.04-.36-2.12-.73-3.07-1.04-2.18-.83-6.18-2.39-9.4-3.84l-.22-.09c-.97-.39-2.52-1.1-3.32-1.53l-3.88-1.92-5.45-3.02-5.39-3.27-3.51-2.37-.12-.08c-1.19-.76-2.64-1.85-4.04-2.9-.92-.69-1.88-1.41-2.79-2.05-.53-.41-1.71-1.39-2.67-2.18-.93-.77-1.74-1.44-2.26-1.85-.57-.48-1.48-1.3-2.37-2.1-.91-.81-1.77-1.58-2.41-2.14-.63-.63-1.37-1.34-2.15-2.08-1.41-1.35-3-2.88-3.93-3.91l-.02-.02c1.67-.16,3.45-.37,5-.56.61-.07,1.18-.14,1.69-.2.45-.04.98-.09,1.57-.2l1.11-.18c.83-.14,1.84-.32,2.84-.49,1.02-.18,2.04-.35,2.89-.5l.33-.07c.72-.17,2.05-.46,3.33-.75,1.39-.31,2.69-.59,3.5-.79l.15-.04c1.04-.28,2.23-.61,3.42-.95,1.15-.32,2.29-.65,3.29-.91l.35-.11c.73-.25,1.98-.66,3.24-1.07,1.35-.44,2.62-.86,3.41-1.12l1.41-.53c1.75-.67,3.73-1.42,5.39-2.08l.21-.09c.5-.22,1.25-.55,2.06-.91,1.6-.7,3.41-1.5,4.46-2l1.06-.51,2.11-1.07c2.13-1.01,4.97-2.62,7.25-3.92.43-.24.83-.47,1.2-.68.81-.45,1.8-1.09,2.76-1.71.53-.34,1.03-.67,1.35-.87l.2-.12c.39-.26.71-.46,1.02-.65.54-.34,1.16-.72,2-1.32,2.53-1.77,5.99-4.19,8.69-6.37,1.45-1.08,3.16-2.55,4.81-3.98.91-.79,1.77-1.54,2.47-2.1l.21-.17.19-.19c.51-.51,1.35-1.29,2.15-2.04,1.07-1,2.19-2.03,2.98-2.84l.07-.08c.66-.71,1.36-1.42,2.09-2.18.93-.96,1.9-1.95,2.82-2.96,7.57-8.36,14.22-17.59,19.78-27.44.45-.76.93-1.69,1.39-2.59.3-.59.62-1.21.83-1.59l.19-.37c.18-.38.44-.88.72-1.41.48-.91,1.01-1.93,1.42-2.91,7.16-15.11,11.78-31.99,13.37-48.84v-.16c.11-1.56.29-4.03.44-5.73l.02-.35c.02-.83.05-1.73.08-2.66.09-2.62.2-5.59.06-8.14,0-3.67-.34-7.81-.63-11.47l-.04-.5-.04-.34c-.11-.74-.28-2.14-.44-3.5-.16-1.36-.32-2.65-.43-3.46v-.05c-.2-1.25-.68-3.96-1.12-6.4l-.12-.66-.08-.36c-.16-.66-.41-1.8-.66-2.91-.33-1.47-.66-3-.93-4.04-.44-1.66-.94-3.39-1.42-5.07-.17-.6-.34-1.19-.5-1.76l-.03-.09c-.35-1.15-1.01-3.08-1.59-4.79-.26-.77-.51-1.48-.68-2.01l-.07-.21c-.8-2.11-1.72-4.44-2.53-6.48l-.1-.25c-.16-.37-.37-.85-.6-1.38,41.01,11.13,74.22,38.41,90.4,74.98l.83,1.8h0ZM205.49,555.86l-.73-1.77c-1.15-2.77-2.06-5.18-2.7-7.15v-.05c-.17-.46-.3-.84-.42-1.2-.28-.81-.46-1.35-.76-2.4l-1.2-3.94-.08-.25c-.03-.1-.04-.19-.07-.29l-.76-3.04-.06-.22c-.33-1.14-.75-3.27-1.09-4.98-.18-.92-.35-1.77-.5-2.44l-.08-.34-.18-1.19c-.09-.66-.2-1.35-.3-2.04-.19-1.22-.38-2.48-.46-3.54-.06-.82-.16-1.65-.25-2.45-.13-1.15-.25-2.23-.29-3.24l-.22-3.9v-1.82l-.07-3.92c.01-.42.02-.84.03-1.27.05-2.08.11-4.23.28-6.21.1-1.24.21-2.53.29-3.83.13-.93.25-1.96.37-2.96.1-.9.21-1.83.32-2.62.12-.7.24-1.41.35-2.13.18-1.14.38-2.32.58-3.4.18-.81.36-1.69.55-2.59.14-.7.29-1.41.45-2.13,4.01-16.93,11.54-32.9,21.78-46.18l.03-.04c7.51-9.92,16.82-18.77,27.67-26.32l.12-.08c1.47-.95,3.3-2.12,4.77-3.12.54-.33,1.46-.87,2.36-1.39.96-.56,1.87-1.1,2.49-1.47.12-.07.26-.14.39-.22.09-.05.18-.1.22-.12.94-.46,1.87-.96,2.77-1.44.85-.46,1.66-.89,2.41-1.26.7-.33,1.91-.89,3.04-1.42.83-.39,1.62-.75,2.15-1,1.44-.56,2.94-1.19,4.38-1.79l.96-.4c.44-.16,1.11-.39,1.84-.65,1.34-.47,2.72-.96,3.55-1.27,1.02-.3,2.07-.63,3.1-.95.81-.25,1.61-.5,2.37-.73.49-.13,1.25-.32,2.07-.53,1.29-.33,2.63-.67,3.45-.89.84-.15,1.99-.4,3.21-.66.92-.2,1.87-.4,2.42-.5.55-.09,1.44-.23,2.38-.38,1.31-.2,2.67-.42,3.46-.55.68-.09,1.85-.22,2.99-.34,1.03-.11,2-.22,2.71-.31.52-.03,1.2-.09,1.97-.15,1.12-.09,3-.24,3.59-.24s1.34-.02,2.16-.04c.71-.02,1.45-.03,1.9-.03h.1c9.75-.17,19.97.89,30.36,3.15l2.93.74.2.05c1.75.37,3.52.9,5.39,1.46.89.26,1.81.54,2.74.8.67.22,1.42.48,2.18.75,1.04.36,2.12.73,3.08,1.04,2.18.83,6.19,2.4,9.4,3.84l.22.09c.96.39,2.52,1.1,3.32,1.53l3.88,1.92,5.45,3.02,5.39,3.27,3.51,2.37.12.08c1.19.76,2.64,1.85,4.04,2.9.9.67,1.83,1.37,2.71,2,.41.34,1.05.86,1.75,1.42,1.19.96,2.67,2.17,3.18,2.59.56.48,1.52,1.34,2.45,2.17.91.81,1.77,1.58,2.41,2.14.63.63,1.37,1.33,2.14,2.08.88.84,1.82,1.75,2.64,2.57-11.23,1.02-22.11,3.28-32.52,6.77l-3.29,1.09-.3.11c-.72.29-1.96.77-3.19,1.24-1.27.49-2.53.98-3.27,1.28l-.11.05c-.78.33-1.78.78-2.74,1.21-.92.41-1.87.84-2.55,1.13l-.15.07c-21.62,9.99-40.84,25.55-55.57,45.02l-.11.15c-.54.76-1.1,1.53-1.66,2.3-.81,1.12-1.65,2.27-2.44,3.42l-2.54,3.94c-.71,1.02-1.52,2.42-2.18,3.55-.14.24-.27.46-.38.66-1.4,2.26-3.11,5.52-4.61,8.42-.92,1.7-1.77,3.58-2.59,5.4-.34.75-.67,1.48-.99,2.17-.25.54-1.02,2.45-2.27,5.67l-.11.25c-.27.64-.6,1.42-.87,2.28-.27.79-.59,1.74-.91,2.69-.33.97-.65,1.94-.92,2.74l-.03.07c-.35,1.08-.92,3.08-1.42,4.85-.22.79-.43,1.51-.57,1.99l-.04.14c-.11.43-.27,1.13-.44,1.87-.13.56-.29,1.26-.36,1.54-.92,3.55-1.64,7.66-2.27,11.29l-.1.55-.04.24c-.06.45-.14,1.14-.24,1.94-.2,1.65-.48,3.91-.62,4.85l-.41,5.06c-1.74,24.05,2.61,48.58,12.33,70.49-40.82-11.2-73.85-38.42-89.98-74.86l-.83-1.8h0ZM672.83,522.6c-4.5,16.85-12.09,32.3-22.56,45.92-20.22,26.32-49.45,43.12-82.32,47.31-14.76,1.9-29.71.98-44.43-2.74-14.6-3.69-28.24-9.94-40.55-18.6-14.6-10.16-27.19-23.96-36.41-39.92-9.11-15.76-14.95-33.61-16.89-51.63v-.04c-2.04-17.62-.51-35.79,4.53-54.18,6.22,8.87,13.38,16.99,21.43,24.27l3.47,3.1.3.25c.7.54,1.7,1.36,2.68,2.16.97.79,1.97,1.61,2.75,2.21l.11.08c.42.31,1.32.96,2.3,1.67,1.26.91,2.82,2.04,3.31,2.41l.19.14.2.13c.74.47,1.66,1.08,2.64,1.73,1.1.74,2.24,1.5,3.23,2.11l.11.07c.49.29.99.59,1.49.89,1.51.9,3.08,1.83,4.64,2.71l.24.13c.63.32,1.44.75,2.29,1.2,1.4.75,2.84,1.52,4.08,2.09l.07.03c.73.32,1.64.75,2.53,1.17.9.42,1.83.86,2.65,1.22l.6.3.73.29c3.97,1.64,7.7,3.05,11.09,4.21,1.47.55,3.44,1.12,5.35,1.68,1.01.29,1.97.57,2.65.79l3.81.96c.4.1.82.2,1.26.32,1.1.29,2.35.61,3.56.8h.03c2.74.56,6.47,1.32,9.36,1.67,3.62.6,7.2.9,10.67,1.2l.34.02c1.64.07,4.12.18,5.69.29h.25c1.49.04,3.15.07,4.87.07,2.4,0,4.9-.05,7.2-.21,1.99-.06,4.55-.31,6.82-.53.97-.1,1.89-.18,2.68-.25l7.28-1.06.17-.03c.73-.13,1.99-.39,3.33-.66,1.32-.27,2.82-.57,3.51-.69l4.83-1.19c1.99-.43,4.5-1.21,6.71-1.89.93-.29,1.8-.56,2.55-.77l.4-.13c.62-.23,1.77-.64,2.89-1.03,1.43-.51,2.92-1.03,3.76-1.36l.07-.03c.97-.39,2.73-1.13,4.28-1.79.88-.37,1.7-.72,2.25-.94l.09-.04c1.41-.62,2.83-1.3,4.19-1.97.97-.47,1.89-.92,2.77-1.32l.25-.12c1.33-.69,3.57-1.92,5.37-2.9l1.4-.76,3.23-1.96c.19-.12.48-.29.81-.49,1.02-.62,1.84-1.11,2.31-1.41l.13-.08c.72-.49,1.44-.98,2.16-1.47,2.23-1.51,4.54-3.06,6.76-4.82.43-.34.95-.74,1.49-1.14.79-.6,1.61-1.22,2.27-1.76l3.6-3.01c1.07-.88,2.59-2.24,3.73-3.34l2.45-2.27c.55-.48,1.32-1.27,2.79-2.81.52-.54,1.22-1.28,1.41-1.46l.11-.1c1.32-1.32,2.72-2.91,3.96-4.32.32-.36.63-.72.93-1.05,1.23-1.32,2.75-3.26,4.1-4.96.48-.6.92-1.17,1.3-1.63l.05-.06c.38-.48.78-1.02,1.18-1.57,1.53,6.04,2.68,12.02,3.43,17.88,2.42,17.91,1.3,35.76-3.31,53.04h0ZM403.3,174.85c17.29-2.54,34.54-1.64,51.27,2.68,1.13.35,2.51.74,3.85,1.13.63.18,1.24.35,1.8.52l5.43,1.81c.6.24,1.26.5,1.94.76,1.69.65,3.61,1.4,4.97,2.04l3.66,1.61,3.41,1.72,1.69.83,1.56.9,3.42,1.91,3.25,2.02.17.1c.88.5,2.1,1.35,3.17,2.09.49.34.96.67,1.4.96,4.18,2.89,8.62,6.47,13.19,10.65l.12.1c.65.56,1.48,1.4,2.28,2.21.57.58,1.16,1.17,1.72,1.7l.54.54c.64.71,1.29,1.41,1.94,2.12.62.67,1.24,1.34,1.85,2.02l.53.65,1.37,1.61.11.12c1.09,1.21,2.13,2.56,3.22,3.99.45.59.9,1.18,1.36,1.77.33.45.79,1.12,1.24,1.75.36.52.71,1.01.94,1.34l.11.15c.75.98,1.81,2.65,2.74,4.12.46.72.89,1.4,1.27,1.98.42.72.87,1.51,1.33,2.34.47.84.96,1.71,1.44,2.52l.58,1.13c.71,1.37,1.58,3.07,2.02,3.91.78,1.66,1.81,3.88,2.27,4.94.47,1.22,1.7,4.25,2.14,5.32l1.23,3.54.08.21c.29.74.74,2.19,1.04,3.23l1.11,3.69c.14.6.35,1.37.56,2.18.3,1.15.63,2.45.79,3.16.22,1.15.83,4.33,1.11,5.68.1.68.2,1.39.31,2.1.17,1.18.34,2.38.54,3.55.08.66.2,1.91.32,3.02.1.96.19,1.88.26,2.49.04.97.1,1.92.16,2.84.1,1.59.19,3.1.2,4.56-.02.67-.02,1.96,0,4.15,0,.26,0,.49,0,.66-.04.53-.07,1.2-.1,2.09-.01.33-.02.62-.03.82-.03.52-.1,2.1-.12,3-.07.7-.13,1.52-.2,2.38-.11,1.45-.24,3.08-.37,4.06v.07c-.51,3.97-1.18,8.64-2.27,13.12l-.04.17c-.54,2.57-1.6,6.27-1.91,7.34l-.03.12c-.32,1.22-.77,2.52-1.24,3.91-.27.78-.54,1.59-.8,2.4-.24.63-.62,1.64-1.01,2.64-.4,1.05-.8,2.1-1.05,2.76l-1.93,4.46c-3.13,6.88-6.64,13.17-10.43,18.7l-.46.69c-.52.79-1.24,1.88-1.66,2.41l-.18.24c-1.32,1.87-3.36,4.54-4.76,6.21l-.17.22c-.82,1.08-2.04,2.47-3.23,3.81-.67.76-1.31,1.48-1.89,2.16-5.16,5.51-9.96,9.99-14.67,13.69l-.08.07c-3.43,2.81-7.33,5.64-11.6,8.41l-.08.05c-.86.58-2.32,1.43-3.6,2.19-.92.54-1.79,1.05-2.53,1.51-.81.43-1.75.95-2.66,1.45-.69.38-1.37.75-1.95,1.07l-.05.03c-1.17.64-3.2,1.62-4.82,2.4-.6.29-1.16.56-1.64.79-.91.38-1.85.79-2.76,1.2-.73.32-1.46.65-2.16.94l-.09.04c-1.16.52-3.08,1.24-4.78,1.87-.75.28-1.46.55-2.06.78-1.82.59-4.03,1.33-6.17,2.06-.2.06-.48.14-.83.24-.97.29-3.56,1.04-4.1,1.17l-.23.05-.23.07c-.21.07-.43.13-.65.19,4.23-9.29,7.47-18.88,9.63-28.64,2.99-13.45,4.09-27.14,3.27-40.67-.03-.86-.14-1.98-.25-3.06-.06-.63-.13-1.28-.15-1.65-.12-2.15-.52-4.97-.87-7.46-.11-.79-.21-1.52-.3-2.15l-.03-.19c-.2-1.2-.45-2.47-.69-3.7-.22-1.13-.43-2.2-.59-3.18l-.04-.21c-.17-.82-.52-2.27-.9-3.81-.29-1.2-.59-2.45-.72-3.02l-.1-.37c-.18-.6-.4-1.38-.63-2.2-.45-1.56-.95-3.34-1.32-4.55l-.5-1.5c-.6-1.77-1.22-3.59-1.84-5.35l-.1-.25c-.27-.65-.63-1.58-1.01-2.56-.57-1.45-1.15-2.96-1.62-4.03l-.22-.49c-.47-1.01-1.34-2.88-1.7-3.72l-.09-.2c-.11-.22-.19-.43-.28-.62-.19-.44-.43-.98-.78-1.65-6.03-12.35-13.7-23.72-22.78-33.79-.68-.82-1.72-1.89-3.2-3.4-.68-.69-1.38-1.41-1.71-1.77l-.04-.04c-.73-.79-1.71-1.7-2.57-2.49-.37-.34-.73-.67-1.03-.96-3.84-3.67-8.27-7.36-13.95-11.6l-.07-.05c-1.87-1.36-5.21-3.63-6.89-4.76l-.16-.1c-1.25-.77-4.65-2.86-5.98-3.67l-4.27-2.33c-2.07-1.2-4.72-2.45-7.05-3.56-.75-.35-1.46-.69-2.11-1.01l-.33-.15c-.39-.16-.91-.38-1.46-.61-.79-.33-1.6-.68-2.24-.94-2.42-1.08-4.85-1.95-7.21-2.79-.59-.21-1.18-.42-1.76-.63-1.23-.46-2.81-.93-4.08-1.32l-.76-.23c-.31-.09-.81-.24-1.33-.41-.98-.31-1.67-.52-2.15-.65-1.45-.38-5.28-1.36-6.91-1.75l-.24-.05c-.92-.18-2.6-.51-3.24-.65l-.11-.02c-4.54-.94-9.16-1.64-13.85-2.13,9.11-9.05,18.78-16.56,29.31-22.75,15.04-8.95,31.41-14.77,48.66-17.31h0ZM210.04,300.24l.12-.17c.79-1.17,2.1-2.84,3.25-4.31.58-.74,1.13-1.44,1.62-2.08l2.23-2.59.07-.08c1.28-1.55,2.67-3.02,4.15-4.57.33-.35.66-.69.98-1.04.9-.92,1.98-1.95,3.02-2.95.58-.56,1.16-1.11,1.7-1.64.59-.5,1.39-1.21,2.22-1.95.76-.68,1.61-1.44,2.07-1.82l2.26-1.8.04-.03c13.44-10.83,29.61-18.85,46.77-23.21,1.88-.39,3.73-.82,5.54-1.24.97-.15,1.93-.33,2.86-.51.92-.17,1.79-.34,2.62-.47.6-.07,1.38-.18,2.21-.3,1.18-.17,2.51-.35,3.32-.43.73-.06,1.6-.14,2.47-.22.82-.08,1.63-.16,2.31-.21,22.86-1.6,45.77,3.4,66.24,14.44,20.33,10.97,37.2,27.32,48.81,47.28.29.53.62,1.12.96,1.73.57,1.03,1.17,2.1,1.65,2.99l2.65,5.31c.93,2.08,1.71,3.83,2.36,5.36.18.46.43,1.1.71,1.8.51,1.27,1.13,2.85,1.45,3.71l1.29,3.86.03.07c1.6,4.58,2.78,9.35,3.72,13.42.19.97.42,2.12.64,3.23.16.82.33,1.62.46,2.31,1.05,6.3,1.67,11.76,1.89,16.68v.21c.07.67.08,1.58.08,2.47,0,.54,0,1.06.02,1.53v.19c.03.37.07,2.23.07,2.84-.02.73-.04,1.92-.07,3.12s-.05,2.42-.07,3.17c-.04.6-.1,1.26-.15,1.92-.12,1.51-.24,3.07-.32,4.46-.07.76-.22,2.04-.37,3.28-.13,1.15-.26,2.28-.34,3.01-.06.4-.13.84-.2,1.28-.2,1.3-.43,2.77-.63,3.91l-.06.4c-.03.24-.13.96-.18,1.26l-.08.34c-.18.85-.36,1.71-.53,2.57-.41,2.04-.81,3.97-1.32,5.84l-.05.19c-.2.85-.67,2.7-.9,3.63-.01.03-.02.07-.03.11-6.17-8.76-13.28-16.8-21.24-24l-3.47-3.1-.3-.25c-.7-.54-1.71-1.37-2.69-2.16-.97-.79-1.97-1.6-2.74-2.21l-.11-.08c-.42-.31-1.32-.96-2.3-1.67-1.26-.91-2.83-2.05-3.31-2.42l-.19-.14-.2-.13c-.74-.47-1.66-1.08-2.64-1.73-1.1-.74-2.24-1.5-3.23-2.11l-.11-.07c-.49-.29-.99-.59-1.49-.89-1.51-.9-3.08-1.83-4.64-2.72l-.24-.13c-.63-.32-1.44-.75-2.29-1.2-1.4-.75-2.84-1.52-4.08-2.09l-.07-.03c-.73-.32-1.64-.75-2.53-1.17-.9-.42-1.83-.86-2.65-1.22l-.6-.3-.73-.29c-4.03-1.66-7.66-3.04-11.09-4.21-1.47-.55-3.44-1.13-5.35-1.68-1.01-.29-1.96-.57-2.65-.79l-3.81-.96c-.4-.1-.82-.2-1.26-.32-1.1-.29-2.35-.61-3.56-.8h-.03c-2.74-.56-6.47-1.32-9.36-1.67-3.62-.6-7.2-.9-10.67-1.2l-.35-.02c-1.64-.07-4.12-.18-5.69-.29h-.26c-3.56-.08-8.13-.13-12.07.14-1.99.06-4.55.31-6.81.53-.97.1-1.89.18-2.68.25l-7.28,1.06-.17.03c-.73.13-1.99.39-3.33.66-1.32.27-2.82.57-3.51.69l-4.83,1.19c-1.99.43-4.5,1.21-6.71,1.89-.93.29-1.8.56-2.55.77l-.4.13c-.62.23-1.77.64-2.89,1.03-1.43.51-2.92,1.03-3.76,1.35l-.07.03c-.97.39-2.74,1.13-4.29,1.79-.88.37-1.69.71-2.23.94l-.09.04c-1.41.62-2.83,1.3-4.19,1.97-.97.47-1.89.92-2.77,1.32l-.25.12c-1.33.69-3.56,1.91-5.36,2.89l-1.41.77-3.23,1.96c-.19.12-.48.29-.81.49-1.02.62-1.84,1.11-2.3,1.41l-.13.08c-.72.49-1.44.98-2.15,1.47-2.23,1.51-4.54,3.07-6.77,4.82-.43.34-.95.74-1.49,1.14-.79.6-1.61,1.22-2.27,1.77l-3.6,3.01c-1.07.88-2.59,2.24-3.74,3.34l-2.45,2.27c-.55.48-1.32,1.27-2.79,2.81-.52.54-1.22,1.28-1.41,1.46l-.11.1c-1.32,1.32-2.72,2.91-3.96,4.32-.32.36-.63.72-.93,1.05-1.22,1.32-2.75,3.25-4.09,4.96-.48.6-.92,1.17-1.3,1.63l-.05.07c-.66.85-1.38,1.84-2.09,2.83-1.7-6.51-2.96-12.93-3.76-19.23-4.49-34.21,4.05-69.08,23.43-95.65h0ZM415.77,688.17l-.22-.04c-1.15-.18-3.18-.67-4.81-1.07-.9-.22-1.76-.43-2.48-.58-.59-.17-1.25-.36-1.95-.55-1.2-.34-2.43-.69-3.44-.99l-1.73-.61-3.75-1.24c-1.32-.5-3.62-1.39-5.19-2.03l-5.27-2.35c-24.99-11.88-45.44-31.99-57.6-56.61l-.05-.1c-.23-.45-.56-1.19-.86-1.85-.25-.56-.5-1.11-.7-1.53-.67-1.4-1.45-3.34-2.15-5.05-.32-.78-.62-1.54-.91-2.22-.14-.38-.32-.9-.5-1.42-.22-.63-.44-1.26-.59-1.67l-.03-.07c-.57-1.51-1.05-3.12-1.55-4.82-.22-.76-.45-1.51-.68-2.27l-.05-.17c-.16-.45-.36-1.31-.53-2-.12-.5-.23-.97-.34-1.39l-.03-.09c-.44-1.56-.84-3.6-1.22-5.58-.16-.85-.32-1.67-.48-2.44-.24-1.72-.56-3.85-.84-5.58-.07-.69-.15-1.44-.23-2.21-.22-2-.47-4.28-.49-5.96v-.28c-.03-.28-.05-.59-.07-.92-.06-.9-.14-2.02-.14-2.67v-.15c-.03-1.23-.04-4.29-.04-5.62.07-1.26.11-2.57.15-3.84.02-.64.04-1.27.06-1.88.03-.3.06-.71.11-1.16.18-1.91.33-3.58.39-4.53l.14-1.06c.38-2.85.73-5.55,1.25-8.25l.37-1.94.07-.46.27-1.19c.19-.76.35-1.52.52-2.25.26-1.17.51-2.28.8-3.31l.55-1.9.07-.26c.38-1.6.92-3.22,1.5-4.94.28-.84.57-1.7.85-2.59.62-1.54,1.35-3.48,1.92-5.03.37-.93.78-1.87,1.22-2.87.34-.78.7-1.58,1.04-2.41.77-1.61,1.66-3.46,2.51-5.18.45-.85.91-1.68,1.37-2.53.47-.86.94-1.72,1.4-2.59.89-1.46,1.9-3.14,3-5,.53-.79,1.34-2.01,2.09-3.14.43-.65.84-1.26,1.15-1.74.42-.56,1.05-1.42,1.71-2.33.67-.92,1.42-1.95,1.78-2.42.61-.76,1.26-1.57,1.91-2.38.64-.8,1.28-1.6,1.88-2.34,15.5-18.39,35.98-32.52,59.25-40.87,4.82-1.68,9.57-3.12,14.17-4.3-6.42,13.42-10.82,28.06-12.87,42.98-2.64,19.14-1.43,38.93,3.48,57.21,7.91,30.96,26.55,58.99,52.51,78.92,21.54,16.55,47.21,26.84,73.62,29.75-14.44,14-31.28,24.86-49.36,31.75-23.15,8.82-48.03,10.96-71.97,6.16h0Z" style="stroke-width: 0px;"/>
</svg>