<?xml version="1.0" encoding="UTF-8"?>
<svg id="icon" xmlns="http://www.w3.org/2000/svg" viewBox="0 0 864 864">
  <path d="M250.92,596.65c.48-.72.6-1.35.36-1.89-.24-.54-.84-.81-1.8-.81h-23.76c-1.08,0-1.98.42-2.7,1.26l-41.58,51.66c-.24.24-.48.33-.72.27-.24-.06-.36-.27-.36-.63v-50.4c0-.6-.21-1.11-.63-1.53-.42-.42-.93-.63-1.53-.63h-21.06c-.6,0-1.11.21-1.53.63s-.63.93-.63,1.53v121.68c0,.6.21,1.11.63,1.53.42.42.93.63,1.53.63h21.06c.6,0,1.11-.21,1.53-.63.42-.42.63-.93.63-1.53v-35.82c0-.24.12-.6.36-1.08l11.34-14.22c.24-.24.48-.36.72-.36s.42.12.54.36l32.04,51.84c.48.96,1.32,1.44,2.52,1.44h23.76c1.2,0,1.8-.42,1.8-1.26,0-.12-.12-.54-.36-1.26l-42.48-68.22c-.24-.36-.18-.78.18-1.26l40.14-51.3Z" style="stroke-width: 0px;"/>
  <path d="M293.94,615.73h59.04c.6,0,1.11-.21,1.53-.63.42-.42.63-.93.63-1.53v-17.46c0-.6-.21-1.11-.63-1.53-.42-.42-.93-.63-1.53-.63h-83.16c-.6,0-1.11.21-1.53.63s-.63.93-.63,1.53v121.68c0,.6.21,1.11.63,1.53.42.42.93.63,1.53.63h83.16c.6,0,1.11-.21,1.53-.63s.63-.93.63-1.53v-17.46c0-.6-.21-1.11-.63-1.53-.42-.42-.93-.63-1.53-.63h-59.04c-.6,0-.9-.3-.9-.9v-29.16c0-.6.3-.9.9-.9h38.7c.6,0,1.11-.21,1.53-.63s.63-.93.63-1.53v-17.46c0-.6-.21-1.11-.63-1.53-.42-.42-.93-.63-1.53-.63h-38.7c-.6,0-.9-.3-.9-.9v-27.9c0-.6.3-.9.9-.9Z" style="stroke-width: 0px;"/>
  <path d="M405.27,719.14c.42.42.93.63,1.53.63h20.88c.6,0,1.11-.21,1.53-.63.42-.42.63-.93.63-1.53v-45.54c0-.48.06-.84.18-1.08l37.44-74.52c.36-.84.39-1.47.09-1.89-.3-.42-.87-.63-1.71-.63h-23.04c-1.2,0-2.04.54-2.52,1.62l-22.5,47.88c-.36.72-.72.72-1.08,0l-22.5-47.88c-.48-1.08-1.32-1.62-2.52-1.62h-22.68c-1.32,0-1.98.48-1.98,1.44,0,.24.12.6.36,1.08l37.08,74.52c.12.24.18.6.18,1.08v45.54c0,.6.21,1.11.63,1.53Z" style="stroke-width: 0px;"/>
  <path d="M647.95,262.99c0-.11-.02-.21-.03-.31-.03-.31-.08-.62-.14-.92,0-.04-.01-.09-.02-.13-.07-.34-.16-.68-.26-1.02-.03-.09-.06-.19-.09-.28-.08-.25-.17-.5-.27-.75-.04-.1-.07-.19-.12-.29-.13-.3-.27-.6-.42-.89-.01-.02-.02-.04-.03-.06-.17-.31-.35-.62-.55-.92-.05-.08-.11-.16-.16-.24-.15-.22-.31-.43-.48-.64-.07-.09-.14-.17-.21-.26-.19-.23-.39-.45-.6-.66-.04-.04-.07-.08-.1-.11l-108-108c-2.25-2.25-5.3-3.51-8.49-3.51H228c-6.63,0-12,5.37-12,12v420h24V168h274.55v96c0,6.63,5.37,12,12,12h97.45v300h24v-312c0-.06,0-.12,0-.18,0-.28-.02-.55-.04-.82ZM538.55,252v-67.3l68.2,67.3h-68.2Z" style="stroke-width: 0px;"/>
</svg>