<?xml version="1.0" encoding="UTF-8"?>
<svg id="icon" xmlns="http://www.w3.org/2000/svg" viewBox="0 0 864 864">
  <path d="M157.14,719.95h21.06c.6,0,1.11-.21,1.53-.63.42-.42.63-.93.63-1.53v-49.14c0-.6.3-.9.9-.9h16.74c.48,0,.84.24,1.08.72l22.5,49.86c.48,1.08,1.32,1.62,2.52,1.62h22.14c1.32,0,1.98-.48,1.98-1.44,0-.24-.12-.6-.36-1.08l-24.48-50.94c-.24-.6-.06-1.02.54-1.26,7.32-2.4,13.02-6.51,17.1-12.33,4.08-5.82,6.12-12.81,6.12-20.97,0-7.56-1.59-14.22-4.77-19.98-3.18-5.76-7.68-10.2-13.5-13.32-5.82-3.12-12.57-4.68-20.25-4.68h-51.48c-.6,0-1.11.21-1.53.63s-.63.93-.63,1.53v121.68c0,.6.21,1.11.63,1.53.42.42.93.63,1.53.63ZM180.36,616.63c0-.6.3-.9.9-.9h23.58c5.04,0,9.15,1.53,12.33,4.59,3.18,3.06,4.77,6.99,4.77,11.79s-1.59,8.7-4.77,11.7c-3.18,3-7.29,4.5-12.33,4.5h-23.58c-.6,0-.9-.3-.9-.9v-30.78Z" style="stroke-width: 0px;"/>
  <path d="M340.2,654.25c10.2-5.16,15.3-13.74,15.3-25.74,0-23.04-14.22-34.56-42.66-34.56h-45.18c-.6,0-1.11.21-1.53.63s-.63.93-.63,1.53v121.68c0,.6.21,1.11.63,1.53.42.42.93.63,1.53.63h46.62c12.84,0,23.22-2.97,31.14-8.91s11.88-14.73,11.88-26.37c0-13.68-5.7-23.46-17.1-29.34-.72-.36-.72-.72,0-1.08ZM290.88,616.63c0-.6.3-.9.9-.9h21.06c5.64,0,10.02,1.35,13.14,4.05,3.12,2.7,4.68,6.39,4.68,11.07s-1.56,8.16-4.68,10.8c-3.12,2.64-7.5,3.96-13.14,3.96h-21.06c-.6,0-.9-.3-.9-.9v-28.08ZM327.24,693.76c-3.12,2.82-7.44,4.23-12.96,4.23h-22.5c-.6,0-.9-.3-.9-.9v-29.88c0-.6.3-.9.9-.9h22.32c5.64,0,10.02,1.41,13.14,4.23,3.12,2.82,4.68,6.69,4.68,11.61s-1.56,8.79-4.68,11.61Z" style="stroke-width: 0px;"/>
  <path d="M647.95,262.99c0-.11-.02-.21-.03-.31-.03-.31-.08-.62-.14-.92,0-.04-.01-.09-.02-.13-.07-.34-.16-.68-.26-1.02-.03-.09-.06-.19-.09-.28-.08-.25-.17-.5-.27-.75-.04-.1-.07-.19-.12-.29-.13-.3-.27-.6-.42-.89-.01-.02-.02-.04-.03-.06-.17-.31-.35-.62-.55-.92-.05-.08-.11-.16-.16-.24-.15-.22-.31-.43-.48-.64-.07-.09-.14-.17-.21-.25-.19-.23-.39-.45-.6-.66-.04-.04-.07-.08-.1-.11l-108-108c-2.25-2.25-5.3-3.51-8.49-3.51H228c-6.63,0-12,5.37-12,12v420h24V168h274.55v96c0,6.63,5.37,12,12,12h97.45v300h24v-312c0-.06,0-.12,0-.18,0-.28-.02-.55-.04-.82ZM538.55,252v-67.3l68.2,67.3h-68.2Z" style="stroke-width: 0px;"/>
</svg>