<?xml version="1.0" encoding="UTF-8"?>
<svg id="icon" xmlns="http://www.w3.org/2000/svg" viewBox="0 0 864 864">
  <path d="M241.56,701.77c3.72-5.76,5.58-12.42,5.58-19.98v-49.68c0-7.56-1.86-14.22-5.58-19.98-3.72-5.76-8.97-10.23-15.75-13.41-6.78-3.18-14.67-4.77-23.67-4.77h-45c-.6,0-1.11.21-1.53.63s-.63.93-.63,1.53v121.68c0,.6.21,1.11.63,1.53.42.42.93.63,1.53.63h45c9,0,16.89-1.59,23.67-4.77,6.78-3.18,12.03-7.65,15.75-13.41ZM221.76,677.65c-.12,6.24-1.89,11.22-5.31,14.94-3.42,3.72-7.89,5.58-13.41,5.58h-21.78c-.6,0-.9-.3-.9-.9v-80.64c0-.6.3-.9.9-.9h21.6c5.76,0,10.35,1.86,13.77,5.58,3.42,3.72,5.13,8.7,5.13,14.94v41.4Z" style="stroke-width: 0px;"/>
  <path d="M289.44,719.95h19.98c1.32,0,2.1-.66,2.34-1.98l17.1-77.76c.12-.48.3-.72.54-.72s.42.24.54.72l18.36,77.94c.36,1.2,1.14,1.8,2.34,1.8h21.42c1.32,0,2.16-.6,2.52-1.8l29.52-121.86c.36-1.56-.3-2.34-1.98-2.34h-21.24c-1.2,0-1.98.66-2.34,1.98l-16.56,73.08c-.12.48-.3.69-.54.63-.24-.06-.42-.27-.54-.63l-18-73.26c-.36-1.2-1.2-1.8-2.52-1.8h-21.78c-1.2,0-1.98.66-2.34,1.98l-16.56,73.08c-.12.48-.3.72-.54.72s-.42-.24-.54-.72l-17.1-73.26c-.36-1.2-1.14-1.8-2.34-1.8h-22.32c-1.32,0-1.98.54-1.98,1.62l.18.72,31.86,121.86c.36,1.2,1.2,1.8,2.52,1.8Z" style="stroke-width: 0px;"/>
  <path d="M479.43,635.98c.42.42.93.63,1.53.63h21.06c.6,0,1.11-.21,1.53-.63.42-.42.63-.93.63-1.53v-1.26c0-7.56-1.95-14.43-5.85-20.61-3.9-6.18-9.36-11.07-16.38-14.67s-15.09-5.4-24.21-5.4-17.4,1.83-24.48,5.49c-7.08,3.66-12.57,8.85-16.47,15.57-3.9,6.72-5.85,14.46-5.85,23.22v40.32c0,8.76,1.95,16.47,5.85,23.13,3.9,6.66,9.39,11.85,16.47,15.57,7.08,3.72,15.24,5.58,24.48,5.58s17.37-1.77,24.39-5.31c7.02-3.54,12.45-8.67,16.29-15.39,3.84-6.72,5.76-14.64,5.76-23.76v-23.76c0-.6-.21-1.11-.63-1.53-.42-.42-.93-.63-1.53-.63h-43.92c-.6,0-1.11.21-1.53.63-.42.42-.63.93-.63,1.53v16.56c0,.6.21,1.11.63,1.53.42.42.93.63,1.53.63h20.16c.6,0,.9.3.9.9v8.1c0,5.88-1.86,10.47-5.58,13.77-3.72,3.3-8.7,4.95-14.94,4.95s-11.82-2.01-16.02-6.03c-4.2-4.02-6.3-9.27-6.3-15.75v-41.76c0-6.48,1.95-11.73,5.85-15.75,3.9-4.02,9.09-6.03,15.57-6.03s11.46,1.89,15.3,5.67c3.84,3.78,5.76,8.43,5.76,13.95v.54c0,.6.21,1.11.63,1.53Z" style="stroke-width: 0px;"/>
  <path d="M647.95,262.99c0-.11-.02-.21-.03-.32-.03-.31-.08-.62-.14-.92,0-.04-.01-.09-.02-.13-.07-.34-.16-.68-.26-1.02-.03-.1-.06-.19-.09-.28-.08-.25-.17-.5-.27-.75-.04-.1-.07-.19-.12-.29-.13-.3-.27-.6-.42-.9,0-.02-.02-.04-.03-.06-.17-.31-.35-.62-.55-.92-.05-.08-.11-.15-.16-.23-.15-.22-.31-.44-.48-.65-.07-.08-.13-.17-.2-.25-.2-.23-.4-.46-.62-.68-.03-.03-.06-.07-.09-.1l-108-108c-2.25-2.25-5.3-3.51-8.49-3.51H228c-6.63,0-12,5.37-12,12v420h24V168h274.55v96c0,6.63,5.37,12,12,12h97.45v300h24v-312c0-.06,0-.12,0-.18,0-.27-.02-.55-.04-.82ZM538.55,252v-67.3l68.2,67.3h-68.2Z" style="stroke-width: 0px;"/>
</svg>