<?xml version="1.0" encoding="UTF-8"?>
<svg id="icon" xmlns="http://www.w3.org/2000/svg" viewBox="0 0 864 864">
  <path d="M168.75,716.26c6.78,3.42,14.73,5.13,23.85,5.13s16.74-1.71,23.58-5.13,12.18-8.22,16.02-14.4c3.84-6.18,5.76-13.35,5.76-21.51v-84.24c0-.6-.21-1.11-.63-1.53-.42-.42-.93-.63-1.53-.63h-20.88c-.6,0-1.11.21-1.53.63s-.63.93-.63,1.53v84.24c0,5.76-1.89,10.41-5.67,13.95-3.78,3.54-8.61,5.31-14.49,5.31s-10.95-1.77-14.49-5.31c-3.54-3.54-5.31-8.19-5.31-13.95v-11.34c0-.6-.21-1.11-.63-1.53-.42-.42-.93-.63-1.53-.63h-21.06c-.6,0-1.11.21-1.53.63s-.63.93-.63,1.53v11.34c0,8.16,1.86,15.33,5.58,21.51,3.72,6.18,8.97,10.98,15.75,14.4Z" style="stroke-width: 0px;"/>
  <path d="M279.63,678.28c-.42-.42-.93-.63-1.53-.63h-20.52c-.6,0-1.11.21-1.53.63s-.63.93-.63,1.53v3.96c0,7.56,1.95,14.19,5.85,19.89,3.9,5.7,9.45,10.08,16.65,13.14s15.6,4.59,25.2,4.59c14.16,0,25.38-3.27,33.66-9.81,8.28-6.54,12.42-15.45,12.42-26.73,0-7.56-1.95-13.71-5.85-18.45-3.9-4.74-8.28-8.31-13.14-10.71-4.86-2.4-11.55-5.16-20.07-8.28-7.68-2.76-13.35-4.95-17.01-6.57-3.66-1.62-6.42-3.45-8.28-5.49-1.86-2.04-2.79-4.56-2.79-7.56,0-4.2,1.59-7.5,4.77-9.9,3.18-2.4,7.59-3.6,13.23-3.6,7.2,0,12.87,1.77,17.01,5.31,4.14,3.54,6.21,7.83,6.21,12.87v1.44c0,.6.21,1.11.63,1.53.42.42.93.63,1.53.63h20.7c.6,0,1.11-.21,1.53-.63.42-.42.63-.93.63-1.53v-2.7c0-7.68-2.01-14.43-6.03-20.25-4.02-5.82-9.6-10.35-16.74-13.59-7.14-3.24-15.27-4.86-24.39-4.86-8.64,0-16.26,1.44-22.86,4.32-6.6,2.88-11.76,7.02-15.48,12.42-3.72,5.4-5.58,11.7-5.58,18.9s1.89,13.47,5.67,18.45c3.78,4.98,8.46,8.91,14.04,11.79s12.39,5.7,20.43,8.46c7.2,2.64,12.45,4.71,15.75,6.21,3.3,1.5,5.91,3.24,7.83,5.22,1.92,1.98,2.88,4.41,2.88,7.29,0,3.96-1.56,7.29-4.68,9.99-3.12,2.7-7.86,4.05-14.22,4.05-7.56,0-13.56-1.65-18-4.95-4.44-3.3-6.66-7.35-6.66-12.15v-2.7c0-.6-.21-1.11-.63-1.53Z" style="stroke-width: 0px;"/>
  <path d="M387.09,716.17c7.14,3.84,15.39,5.76,24.75,5.76s17.79-1.89,24.93-5.67c7.14-3.78,12.69-9.15,16.65-16.11,3.96-6.96,5.94-14.94,5.94-23.94v-38.52c0-8.88-1.98-16.74-5.94-23.58-3.96-6.84-9.51-12.15-16.65-15.93-7.14-3.78-15.45-5.67-24.93-5.67s-17.61,1.89-24.75,5.67c-7.14,3.78-12.69,9.09-16.65,15.93-3.96,6.84-5.94,14.7-5.94,23.58v38.52c0,9,1.98,16.95,5.94,23.85,3.96,6.9,9.51,12.27,16.65,16.11ZM389.88,637.51c0-6.96,2.01-12.57,6.03-16.83,4.02-4.26,9.33-6.39,15.93-6.39s12.09,2.13,16.11,6.39c4.02,4.26,6.03,9.87,6.03,16.83v39.6c0,6.96-2.04,12.54-6.12,16.74-4.08,4.2-9.42,6.3-16.02,6.3s-11.91-2.1-15.93-6.3c-4.02-4.2-6.03-9.78-6.03-16.74v-39.6Z" style="stroke-width: 0px;"/>
  <path d="M550.97,672.52c-.24.06-.48-.09-.72-.45l-46.44-76.68c-.48-.96-1.32-1.44-2.52-1.44h-20.34c-.6,0-1.11.21-1.53.63-.42.42-.63.93-.63,1.53v121.68c0,.6.21,1.11.63,1.53.42.42.93.63,1.53.63h21.06c.6,0,1.11-.21,1.53-.63s.63-.93.63-1.53l-.36-75.96c0-.48.12-.75.36-.81.24-.06.48.09.72.45l46.62,77.04c.48.96,1.32,1.44,2.52,1.44h20.34c.6,0,1.11-.21,1.53-.63s.63-.93.63-1.53v-121.68c0-.6-.21-1.11-.63-1.53-.42-.42-.93-.63-1.53-.63h-21.06c-.6,0-1.11.21-1.53.63s-.63.93-.63,1.53l.18,75.6c0,.48-.12.75-.36.81Z" style="stroke-width: 0px;"/>
  <path d="M647.95,262.99c0-.1-.02-.21-.03-.31-.03-.32-.08-.63-.14-.94,0-.04-.01-.08-.02-.11-.07-.35-.16-.69-.26-1.02-.03-.09-.06-.18-.09-.27-.08-.26-.17-.51-.27-.76-.04-.09-.07-.18-.11-.28-.13-.31-.27-.61-.43-.91,0-.02-.01-.03-.02-.05-.17-.31-.35-.62-.55-.92-.05-.08-.1-.15-.16-.23-.15-.22-.31-.44-.48-.65-.07-.08-.13-.17-.2-.25-.19-.23-.4-.46-.61-.67-.03-.03-.06-.07-.1-.11l-108-108c-2.25-2.25-5.3-3.51-8.49-3.51H228c-6.63,0-12,5.37-12,12v420h24V168h274.55v96c0,6.63,5.37,12,12,12h97.45v300h24v-312c0-.06,0-.12,0-.18,0-.28-.02-.56-.04-.83ZM538.55,252v-67.3l68.2,67.3h-68.2Z" style="stroke-width: 0px;"/>
</svg>