<?xml version="1.0" encoding="UTF-8"?>
<svg id="icon" xmlns="http://www.w3.org/2000/svg" viewBox="0 0 864 864">
  <path d="M236.97,719.32c.42.42.93.63,1.53.63h21.06c.6,0,1.11-.21,1.53-.63s.63-.93.63-1.53v-121.68c0-.6-.21-1.11-.63-1.53-.42-.42-.93-.63-1.53-.63h-21.06c-1.08,0-1.92.48-2.52,1.44l-27.18,41.94c-.36.72-.72.72-1.08,0l-27-41.94c-.6-.96-1.44-1.44-2.52-1.44h-21.06c-.6,0-1.11.21-1.53.63s-.63.93-.63,1.53v121.68c0,.6.21,1.11.63,1.53.42.42.93.63,1.53.63h21.06c.6,0,1.11-.21,1.53-.63.42-.42.63-.93.63-1.53v-79.2c0-.48.12-.75.36-.81.24-.06.48.09.72.45l19.08,29.88c.6.96,1.44,1.44,2.52,1.44h10.62c1.08,0,1.92-.48,2.52-1.44l19.08-29.88c.24-.36.48-.54.72-.54s.36.24.36.72v79.38c0,.6.21,1.11.63,1.53Z" style="stroke-width: 0px;"/>
  <path d="M308.43,594.58c-.42-.42-.93-.63-1.53-.63h-21.06c-.6,0-1.11.21-1.53.63s-.63.93-.63,1.53v121.68c0,.6.21,1.11.63,1.53.42.42.93.63,1.53.63h21.06c.6,0,1.11-.21,1.53-.63.42-.42.63-.93.63-1.53v-35.82c0-.24.12-.6.36-1.08l11.34-14.22c.24-.24.48-.36.72-.36s.42.12.54.36l32.04,51.84c.48.96,1.32,1.44,2.52,1.44h23.76c1.2,0,1.8-.42,1.8-1.26,0-.12-.12-.54-.36-1.26l-42.48-68.22c-.24-.36-.18-.78.18-1.26l40.14-51.3c.48-.72.6-1.35.36-1.89-.24-.54-.84-.81-1.8-.81h-23.76c-1.08,0-1.98.42-2.7,1.26l-41.58,51.66c-.24.24-.48.33-.72.27-.24-.06-.36-.27-.36-.63v-50.4c0-.6-.21-1.11-.63-1.53Z" style="stroke-width: 0px;"/>
  <path d="M429.84,719.95h22.68c1.2,0,1.98-.6,2.34-1.8l37.62-121.68c.24-.72.18-1.32-.18-1.8-.36-.48-.9-.72-1.62-.72h-22.14c-1.32,0-2.16.6-2.52,1.8l-23.58,87.84c-.12.36-.3.54-.54.54s-.42-.18-.54-.54l-23.94-87.84c-.36-1.2-1.2-1.8-2.52-1.8h-22.68c-1.32,0-1.98.6-1.98,1.8l.18.72,37.08,121.68c.36,1.2,1.14,1.8,2.34,1.8Z" style="stroke-width: 0px;"/>
  <path d="M647.95,262.99c0-.11-.02-.21-.03-.32-.03-.31-.08-.62-.14-.92,0-.04-.01-.09-.02-.13-.07-.34-.16-.68-.26-1.02-.03-.1-.06-.19-.09-.28-.08-.25-.17-.5-.27-.75-.04-.1-.07-.19-.12-.29-.13-.3-.27-.6-.42-.9,0-.02-.02-.04-.03-.06-.17-.31-.35-.62-.55-.92-.05-.08-.11-.15-.16-.23-.15-.22-.31-.44-.48-.65-.07-.08-.13-.17-.2-.25-.2-.23-.4-.46-.62-.68-.03-.03-.06-.07-.09-.1l-108-108c-2.25-2.25-5.3-3.51-8.49-3.51H228c-6.63,0-12,5.37-12,12v420h24V168h274.55v96c0,6.63,5.37,12,12,12h97.45v300h24v-312c0-.06,0-.12,0-.18,0-.27-.02-.55-.04-.82ZM538.55,252v-67.3l68.2,67.3h-68.2Z" style="stroke-width: 0px;"/>
</svg>