<?xml version="1.0" encoding="UTF-8"?>
<svg id="icon" xmlns="http://www.w3.org/2000/svg" viewBox="0 0 864 864">
  <path d="M243.45,615.28c.42-.42.63-.93.63-1.53v-17.64c0-.6-.21-1.11-.63-1.53-.42-.42-.93-.63-1.53-.63h-90.72c-.6,0-1.11.21-1.53.63s-.63.93-.63,1.53v17.64c0,.6.21,1.11.63,1.53.42.42.93.63,1.53.63h31.32c.6,0,.9.3.9.9v100.98c0,.6.21,1.11.63,1.53.42.42.93.63,1.53.63h21.06c.6,0,1.11-.21,1.53-.63s.63-.93.63-1.53v-100.98c0-.6.3-.9.9-.9h32.22c.6,0,1.11-.21,1.53-.63Z" style="stroke-width: 0px;"/>
  <path d="M289.35,719.32c.42.42.93.63,1.53.63h21.06c.6,0,1.11-.21,1.53-.63s.63-.93.63-1.53v-100.98c0-.6.3-.9.9-.9h32.22c.6,0,1.11-.21,1.53-.63s.63-.93.63-1.53v-17.64c0-.6-.21-1.11-.63-1.53-.42-.42-.93-.63-1.53-.63h-90.72c-.6,0-1.11.21-1.53.63-.42.42-.63.93-.63,1.53v17.64c0,.6.21,1.11.63,1.53.42.42.93.63,1.53.63h31.32c.6,0,.9.3.9.9v100.98c0,.6.21,1.11.63,1.53Z" style="stroke-width: 0px;"/>
  <path d="M391.86,615.73h58.86c.6,0,1.11-.21,1.53-.63.42-.42.63-.93.63-1.53v-17.46c0-.6-.21-1.11-.63-1.53-.42-.42-.93-.63-1.53-.63h-82.98c-.6,0-1.11.21-1.53.63-.42.42-.63.93-.63,1.53v121.68c0,.6.21,1.11.63,1.53.42.42.93.63,1.53.63h21.06c.6,0,1.11-.21,1.53-.63s.63-.93.63-1.53v-49.68c0-.6.3-.9.9-.9h38.7c.6,0,1.11-.21,1.53-.63s.63-.93.63-1.53v-17.46c0-.6-.21-1.11-.63-1.53-.42-.42-.93-.63-1.53-.63h-38.7c-.6,0-.9-.3-.9-.9v-27.9c0-.6.3-.9.9-.9Z" style="stroke-width: 0px;"/>
  <path d="M647.95,262.99c0-.11-.02-.21-.03-.32-.03-.31-.08-.62-.14-.92,0-.04-.01-.09-.02-.13-.07-.34-.16-.68-.26-1.02-.03-.1-.06-.19-.09-.28-.08-.25-.17-.5-.27-.75-.04-.1-.08-.19-.12-.29-.13-.3-.27-.6-.42-.9,0-.02-.02-.04-.03-.06-.17-.31-.35-.62-.55-.92-.05-.08-.11-.15-.16-.23-.15-.22-.31-.44-.48-.65-.07-.08-.13-.17-.2-.25-.2-.23-.4-.46-.62-.68-.03-.03-.06-.07-.09-.1l-108-108c-2.25-2.25-5.3-3.51-8.49-3.51H228c-6.63,0-12,5.37-12,12v420h24V168h274.55v96c0,6.63,5.37,12,12,12h97.45v300h24v-312c0-.06,0-.12,0-.18,0-.27-.02-.55-.04-.82ZM538.55,252v-67.3l68.2,67.3h-68.2Z" style="stroke-width: 0px;"/>
</svg>