<?xml version="1.0" encoding="UTF-8"?>
<svg id="icon" xmlns="http://www.w3.org/2000/svg" viewBox="0 0 864 864">
  <path d="M152.46,676.21c0,9,1.98,16.95,5.94,23.85,3.96,6.9,9.51,12.27,16.65,16.11,7.14,3.84,15.39,5.76,24.75,5.76s17.79-1.89,24.93-5.67c7.14-3.78,12.69-9.15,16.65-16.11,3.96-6.96,5.94-14.94,5.94-23.94v-38.52c0-8.88-1.98-16.74-5.94-23.58-3.96-6.84-9.51-12.15-16.65-15.93-7.14-3.78-15.45-5.67-24.93-5.67s-17.61,1.89-24.75,5.67c-7.14,3.78-12.69,9.09-16.65,15.93-3.96,6.84-5.94,14.7-5.94,23.58v38.52ZM177.84,637.51c0-6.96,2.01-12.57,6.03-16.83,4.02-4.26,9.33-6.39,15.93-6.39s12.09,2.13,16.11,6.39c4.02,4.26,6.03,9.87,6.03,16.83v39.6c0,6.96-2.04,12.54-6.12,16.74-4.08,4.2-9.42,6.3-16.02,6.3s-11.91-2.1-15.93-6.3c-4.02-4.2-6.03-9.78-6.03-16.74v-39.6Z" style="stroke-width: 0px;"/>
  <path d="M341.46,654.25c10.2-5.16,15.3-13.74,15.3-25.74,0-23.04-14.22-34.56-42.66-34.56h-45.18c-.6,0-1.11.21-1.53.63s-.63.93-.63,1.53v121.68c0,.6.21,1.11.63,1.53.42.42.93.63,1.53.63h46.62c12.84,0,23.22-2.97,31.14-8.91s11.88-14.73,11.88-26.37c0-13.68-5.7-23.46-17.1-29.34-.72-.36-.72-.72,0-1.08ZM292.14,616.63c0-.6.3-.9.9-.9h21.06c5.64,0,10.02,1.35,13.14,4.05,3.12,2.7,4.68,6.39,4.68,11.07s-1.56,8.16-4.68,10.8c-3.12,2.64-7.5,3.96-13.14,3.96h-21.06c-.6,0-.9-.3-.9-.9v-28.08ZM328.5,693.76c-3.12,2.82-7.44,4.23-12.96,4.23h-22.5c-.6,0-.9-.3-.9-.9v-29.88c0-.6.3-.9.9-.9h22.32c5.64,0,10.02,1.41,13.14,4.23,3.12,2.82,4.68,6.69,4.68,11.61s-1.56,8.79-4.68,11.61Z" style="stroke-width: 0px;"/>
  <path d="M395.55,667.48c-.42-.42-.93-.63-1.53-.63h-21.06c-.6,0-1.11.21-1.53.63-.42.42-.63.93-.63,1.53v11.34c0,8.16,1.86,15.33,5.58,21.51,3.72,6.18,8.97,10.98,15.75,14.4,6.78,3.42,14.73,5.13,23.85,5.13s16.74-1.71,23.58-5.13c6.84-3.42,12.18-8.22,16.02-14.4,3.84-6.18,5.76-13.35,5.76-21.51v-84.24c0-.6-.21-1.11-.63-1.53-.42-.42-.93-.63-1.53-.63h-20.88c-.6,0-1.11.21-1.53.63s-.63.93-.63,1.53v84.24c0,5.76-1.89,10.41-5.67,13.95-3.78,3.54-8.61,5.31-14.49,5.31s-10.95-1.77-14.49-5.31c-3.54-3.54-5.31-8.19-5.31-13.95v-11.34c0-.6-.21-1.11-.63-1.53Z" style="stroke-width: 0px;"/>
  <path d="M647.95,262.99c0-.11-.02-.21-.03-.32-.03-.31-.08-.62-.14-.92,0-.04-.01-.09-.02-.13-.07-.34-.16-.68-.26-1.02-.03-.1-.06-.19-.09-.28-.08-.25-.17-.5-.27-.75-.04-.1-.07-.19-.12-.29-.13-.3-.27-.6-.42-.9,0-.02-.02-.04-.03-.06-.17-.31-.35-.62-.55-.92-.05-.08-.11-.15-.16-.23-.15-.22-.31-.44-.48-.65-.07-.08-.13-.17-.2-.25-.2-.23-.4-.46-.62-.68-.03-.03-.06-.07-.09-.1l-108-108c-2.25-2.25-5.3-3.51-8.49-3.51H228c-6.63,0-12,5.37-12,12v420h24V168h274.55v96c0,6.63,5.37,12,12,12h97.45v300h24v-312c0-.06,0-.12,0-.18,0-.27-.02-.55-.04-.82ZM538.55,252v-67.3l68.2,67.3h-68.2Z" style="stroke-width: 0px;"/>
</svg>