<?xml version="1.0" encoding="UTF-8"?>
<svg id="icon" xmlns="http://www.w3.org/2000/svg" viewBox="0 0 864 864">
  <path d="M150.84,719.95h22.86c1.2,0,1.98-.6,2.34-1.8l5.22-17.64c.24-.48.54-.72.9-.72h44.28c.36,0,.66.24.9.72l5.4,17.64c.36,1.2,1.14,1.8,2.34,1.8h22.86c1.32,0,1.98-.54,1.98-1.62,0-.36-.06-.66-.18-.9l-38.88-121.68c-.36-1.2-1.14-1.8-2.34-1.8h-28.26c-1.2,0-1.98.6-2.34,1.8l-38.88,121.68c-.24.84-.18,1.47.18,1.89.36.42.9.63,1.62.63ZM187.74,679.09l15.84-53.46c.12-.36.3-.57.54-.63.24-.06.42.15.54.63l16.2,53.46c.24.72,0,1.08-.72,1.08h-31.68c-.6,0-.84-.36-.72-1.08Z" style="stroke-width: 0px;"/>
  <path d="M287.55,678.28c-.42-.42-.93-.63-1.53-.63h-20.52c-.6,0-1.11.21-1.53.63s-.63.93-.63,1.53v3.96c0,7.56,1.95,14.19,5.85,19.89,3.9,5.7,9.45,10.08,16.65,13.14,7.2,3.06,15.6,4.59,25.2,4.59,14.16,0,25.38-3.27,33.66-9.81,8.28-6.54,12.42-15.45,12.42-26.73,0-7.56-1.95-13.71-5.85-18.45-3.9-4.74-8.28-8.31-13.14-10.71-4.86-2.4-11.55-5.16-20.07-8.28-7.68-2.76-13.35-4.95-17.01-6.57-3.66-1.62-6.42-3.45-8.28-5.49-1.86-2.04-2.79-4.56-2.79-7.56,0-4.2,1.59-7.5,4.77-9.9,3.18-2.4,7.59-3.6,13.23-3.6,7.2,0,12.87,1.77,17.01,5.31,4.14,3.54,6.21,7.83,6.21,12.87v1.44c0,.6.21,1.11.63,1.53.42.42.93.63,1.53.63h20.7c.6,0,1.11-.21,1.53-.63s.63-.93.63-1.53v-2.7c0-7.68-2.01-14.43-6.03-20.25-4.02-5.82-9.6-10.35-16.74-13.59-7.14-3.24-15.27-4.86-24.39-4.86-8.64,0-16.26,1.44-22.86,4.32-6.6,2.88-11.76,7.02-15.48,12.42-3.72,5.4-5.58,11.7-5.58,18.9s1.89,13.47,5.67,18.45c3.78,4.98,8.46,8.91,14.04,11.79,5.58,2.88,12.39,5.7,20.43,8.46,7.2,2.64,12.45,4.71,15.75,6.21,3.3,1.5,5.91,3.24,7.83,5.22,1.92,1.98,2.88,4.41,2.88,7.29,0,3.96-1.56,7.29-4.68,9.99-3.12,2.7-7.86,4.05-14.22,4.05-7.56,0-13.56-1.65-18-4.95-4.44-3.3-6.66-7.35-6.66-12.15v-2.7c0-.6-.21-1.11-.63-1.53Z" style="stroke-width: 0px;"/>
  <path d="M397.26,719.95c.6,0,1.11-.21,1.53-.63.42-.42.63-.93.63-1.53v-45.9c0-.6.3-.9.9-.9h25.56c8.04,0,15.15-1.59,21.33-4.77,6.18-3.18,10.98-7.65,14.4-13.41s5.13-12.42,5.13-19.98-1.65-14.49-4.95-20.43c-3.3-5.94-7.95-10.53-13.95-13.77-6-3.24-12.96-4.86-20.88-4.86h-50.76c-.6,0-1.11.21-1.53.63-.42.42-.63.93-.63,1.53v121.86c0,.6.21,1.11.63,1.53.42.42.93.63,1.53.63h21.06ZM399.42,616.63c0-.6.3-.9.9-.9h22.86c5.52,0,9.96,1.62,13.32,4.86,3.36,3.24,5.04,7.5,5.04,12.78s-1.68,9.33-5.04,12.51c-3.36,3.18-7.8,4.77-13.32,4.77h-22.86c-.6,0-.9-.3-.9-.9v-33.12Z" style="stroke-width: 0px;"/>
  <path d="M470.88,717.43c-.48.72-.54,1.32-.18,1.8.36.48.96.72,1.8.72h22.68c1.2,0,2.1-.48,2.7-1.44l23.58-41.04c.36-.72.72-.72,1.08,0l23.4,41.04c.6.96,1.5,1.44,2.7,1.44h22.68c1.32,0,1.98-.48,1.98-1.44l-.36-1.08-34.92-59.94c-.12-.36-.12-.72,0-1.08l34.92-59.94c.48-.72.54-1.32.18-1.8-.36-.48-.96-.72-1.8-.72h-22.68c-1.2,0-2.1.48-2.7,1.44l-23.4,41.22c-.36.72-.72.72-1.08,0l-23.4-41.22c-.6-.96-1.5-1.44-2.7-1.44h-22.86c-1.32,0-1.98.48-1.98,1.44l.36,1.08,34.92,59.94c.24.36.24.72,0,1.08l-34.92,59.94Z" style="stroke-width: 0px;"/>
  <path d="M647.95,262.99c0-.1-.02-.21-.03-.31-.03-.31-.08-.63-.14-.94,0-.04-.01-.08-.02-.12-.07-.34-.16-.69-.26-1.02-.03-.09-.06-.18-.09-.27-.08-.26-.17-.51-.27-.76-.04-.09-.07-.18-.11-.27-.13-.31-.27-.62-.43-.92,0-.01-.01-.03-.02-.04-.17-.32-.35-.62-.55-.92-.05-.08-.1-.15-.15-.22-.15-.22-.32-.44-.49-.66-.06-.08-.13-.16-.19-.24-.2-.23-.4-.46-.62-.68-.03-.03-.06-.07-.09-.1l-108-108c-2.25-2.25-5.3-3.51-8.49-3.51H228c-6.63,0-12,5.37-12,12v420h24V168h274.55v96c0,6.63,5.37,12,12,12h97.45v300h24v-312c0-.06,0-.12,0-.18,0-.28-.02-.56-.04-.83ZM538.55,252v-67.3l68.2,67.3h-68.2Z" style="stroke-width: 0px;"/>
</svg>