<?xml version="1.0" encoding="UTF-8"?>
<svg id="icon" xmlns="http://www.w3.org/2000/svg" viewBox="0 0 864 864">
  <path d="M648,576v-312c0-.06,0-.12,0-.18,0-.27-.02-.55-.04-.82,0-.11-.02-.21-.03-.32-.03-.31-.08-.62-.14-.92,0-.04-.01-.09-.02-.13-.07-.34-.16-.68-.26-1.02-.03-.1-.06-.19-.09-.28-.08-.25-.17-.5-.27-.75-.04-.1-.07-.19-.12-.29-.13-.3-.27-.6-.42-.9,0-.02-.02-.04-.03-.06-.17-.31-.35-.62-.55-.92-.05-.08-.11-.15-.16-.23-.15-.22-.31-.44-.48-.65-.07-.08-.13-.17-.2-.25-.2-.23-.4-.46-.62-.68-.03-.03-.06-.07-.09-.1l-108-108c-2.25-2.25-5.3-3.51-8.49-3.51H228c-6.63,0-12,5.37-12,12v420h24V168h274.55v96c0,6.63,5.37,12,12,12h97.45v300h24ZM538.55,252v-67.3l68.2,67.3h-68.2Z" style="stroke-width: 0px;"/>
  <path d="M246.78,684.67c0-13.68-5.7-23.46-17.1-29.34-.72-.36-.72-.72,0-1.08,10.2-5.16,15.3-13.74,15.3-25.74,0-23.04-14.22-34.56-42.66-34.56h-45.18c-.6,0-1.11.21-1.53.63s-.63.93-.63,1.53v121.68c0,.6.21,1.11.63,1.53.42.42.93.63,1.53.63h46.62c12.84,0,23.22-2.97,31.14-8.91,7.92-5.94,11.88-14.73,11.88-26.37ZM180.36,616.63c0-.6.3-.9.9-.9h21.06c5.64,0,10.02,1.35,13.14,4.05,3.12,2.7,4.68,6.39,4.68,11.07s-1.56,8.16-4.68,10.8c-3.12,2.64-7.5,3.96-13.14,3.96h-21.06c-.6,0-.9-.3-.9-.9v-28.08ZM216.72,693.76c-3.12,2.82-7.44,4.23-12.96,4.23h-22.5c-.6,0-.9-.3-.9-.9v-29.88c0-.6.3-.9.9-.9h22.32c5.64,0,10.02,1.41,13.14,4.23,3.12,2.82,4.68,6.69,4.68,11.61s-1.56,8.79-4.68,11.61Z" style="stroke-width: 0px;"/>
  <path d="M291.33,594.58c-.42-.42-.93-.63-1.53-.63h-21.06c-.6,0-1.11.21-1.53.63s-.63.93-.63,1.53v121.68c0,.6.21,1.11.63,1.53.42.42.93.63,1.53.63h82.98c.6,0,1.11-.21,1.53-.63s.63-.93.63-1.53v-17.46c0-.6-.21-1.11-.63-1.53-.42-.42-.93-.63-1.53-.63h-58.86c-.6,0-.9-.3-.9-.9v-101.16c0-.6-.21-1.11-.63-1.53Z" style="stroke-width: 0px;"/>
  <path d="M395.82,615.73h59.04c.6,0,1.11-.21,1.53-.63.42-.42.63-.93.63-1.53v-17.46c0-.6-.21-1.11-.63-1.53-.42-.42-.93-.63-1.53-.63h-83.16c-.6,0-1.11.21-1.53.63-.42.42-.63.93-.63,1.53v121.68c0,.6.21,1.11.63,1.53.42.42.93.63,1.53.63h83.16c.6,0,1.11-.21,1.53-.63s.63-.93.63-1.53v-17.46c0-.6-.21-1.11-.63-1.53-.42-.42-.93-.63-1.53-.63h-59.04c-.6,0-.9-.3-.9-.9v-29.16c0-.6.3-.9.9-.9h38.7c.6,0,1.11-.21,1.53-.63s.63-.93.63-1.53v-17.46c0-.6-.21-1.11-.63-1.53-.42-.42-.93-.63-1.53-.63h-38.7c-.6,0-.9-.3-.9-.9v-27.9c0-.6.3-.9.9-.9Z" style="stroke-width: 0px;"/>
  <path d="M500.04,641.02c.24-.06.48.09.72.45l46.62,77.04c.48.96,1.32,1.44,2.52,1.44h20.34c.6,0,1.11-.21,1.53-.63.42-.42.63-.93.63-1.53v-121.68c0-.6-.21-1.11-.63-1.53-.42-.42-.93-.63-1.53-.63h-21.06c-.6,0-1.11.21-1.53.63s-.63.93-.63,1.53l.18,75.6c0,.48-.12.75-.36.81-.24.06-.48-.09-.72-.45l-46.44-76.68c-.48-.96-1.32-1.44-2.52-1.44h-20.34c-.6,0-1.11.21-1.53.63-.42.42-.63.93-.63,1.53v121.68c0,.6.21,1.11.63,1.53.42.42.93.63,1.53.63h21.06c.6,0,1.11-.21,1.53-.63s.63-.93.63-1.53l-.36-75.96c0-.48.12-.75.36-.81Z" style="stroke-width: 0px;"/>
  <path d="M664.11,598.72c-6.78-3.18-14.67-4.77-23.67-4.77h-45c-.6,0-1.11.21-1.53.63-.42.42-.63.93-.63,1.53v121.68c0,.6.21,1.11.63,1.53.42.42.93.63,1.53.63h45c9,0,16.89-1.59,23.67-4.77,6.78-3.18,12.03-7.65,15.75-13.41,3.72-5.76,5.58-12.42,5.58-19.98v-49.68c0-7.56-1.86-14.22-5.58-19.98-3.72-5.76-8.97-10.23-15.75-13.41ZM660.06,677.65c-.12,6.24-1.89,11.22-5.31,14.94-3.42,3.72-7.89,5.58-13.41,5.58h-21.78c-.6,0-.9-.3-.9-.9v-80.64c0-.6.3-.9.9-.9h21.6c5.76,0,10.35,1.86,13.77,5.58,3.42,3.72,5.13,8.7,5.13,14.94v41.4Z" style="stroke-width: 0px;"/>
</svg>