<?xml version="1.0" encoding="UTF-8"?>
<svg id="icon" xmlns="http://www.w3.org/2000/svg" viewBox="0 0 864 864">
  <path d="M152.46,676.21c0,9,1.98,16.95,5.94,23.85,3.96,6.9,9.51,12.27,16.65,16.11,7.14,3.84,15.39,5.76,24.75,5.76s17.79-1.89,24.93-5.67c7.14-3.78,12.69-9.15,16.65-16.11,3.96-6.96,5.94-14.94,5.94-23.94v-38.52c0-8.88-1.98-16.74-5.94-23.58-3.96-6.84-9.51-12.15-16.65-15.93-7.14-3.78-15.45-5.67-24.93-5.67s-17.61,1.89-24.75,5.67c-7.14,3.78-12.69,9.09-16.65,15.93-3.96,6.84-5.94,14.7-5.94,23.58v38.52ZM177.84,637.51c0-6.96,2.01-12.57,6.03-16.83,4.02-4.26,9.33-6.39,15.93-6.39s12.09,2.13,16.11,6.39c4.02,4.26,6.03,9.87,6.03,16.83v39.6c0,6.96-2.04,12.54-6.12,16.74-4.08,4.2-9.42,6.3-16.02,6.3s-11.91-2.1-15.93-6.3c-4.02-4.2-6.03-9.78-6.03-16.74v-39.6Z" style="stroke-width: 0px;"/>
  <path d="M332.73,635.98c.42.42.93.63,1.53.63h21.06c.6,0,1.11-.21,1.53-.63.42-.42.63-.93.63-1.53v-1.26c0-7.56-1.95-14.43-5.85-20.61-3.9-6.18-9.36-11.07-16.38-14.67-7.02-3.6-15.09-5.4-24.21-5.4s-17.4,1.83-24.48,5.49c-7.08,3.66-12.57,8.85-16.47,15.57-3.9,6.72-5.85,14.46-5.85,23.22v40.32c0,8.76,1.95,16.47,5.85,23.13,3.9,6.66,9.39,11.85,16.47,15.57,7.08,3.72,15.24,5.58,24.48,5.58s17.37-1.77,24.39-5.31c7.02-3.54,12.45-8.67,16.29-15.39,3.84-6.72,5.76-14.64,5.76-23.76v-23.76c0-.6-.21-1.11-.63-1.53-.42-.42-.93-.63-1.53-.63h-43.92c-.6,0-1.11.21-1.53.63-.42.42-.63.93-.63,1.53v16.56c0,.6.21,1.11.63,1.53.42.42.93.63,1.53.63h20.16c.6,0,.9.3.9.9v8.1c0,5.88-1.86,10.47-5.58,13.77-3.72,3.3-8.7,4.95-14.94,4.95s-11.82-2.01-16.02-6.03c-4.2-4.02-6.3-9.27-6.3-15.75v-41.76c0-6.48,1.95-11.73,5.85-15.75,3.9-4.02,9.09-6.03,15.57-6.03s11.46,1.89,15.3,5.67c3.84,3.78,5.76,8.43,5.76,13.95v.54c0,.6.21,1.11.63,1.53Z" style="stroke-width: 0px;"/>
  <path d="M442.89,635.98c.42.42.93.63,1.53.63h21.06c.6,0,1.11-.21,1.53-.63.42-.42.63-.93.63-1.53v-1.26c0-7.56-1.95-14.43-5.85-20.61-3.9-6.18-9.36-11.07-16.38-14.67s-15.09-5.4-24.21-5.4-17.4,1.83-24.48,5.49c-7.08,3.66-12.57,8.85-16.47,15.57-3.9,6.72-5.85,14.46-5.85,23.22v40.32c0,8.76,1.95,16.47,5.85,23.13,3.9,6.66,9.39,11.85,16.47,15.57,7.08,3.72,15.24,5.58,24.48,5.58s17.37-1.77,24.39-5.31c7.02-3.54,12.45-8.67,16.29-15.39,3.84-6.72,5.76-14.64,5.76-23.76v-23.76c0-.6-.21-1.11-.63-1.53-.42-.42-.93-.63-1.53-.63h-43.92c-.6,0-1.11.21-1.53.63-.42.42-.63.93-.63,1.53v16.56c0,.6.21,1.11.63,1.53.42.42.93.63,1.53.63h20.16c.6,0,.9.3.9.9v8.1c0,5.88-1.86,10.47-5.58,13.77-3.72,3.3-8.7,4.95-14.94,4.95s-11.82-2.01-16.02-6.03c-4.2-4.02-6.3-9.27-6.3-15.75v-41.76c0-6.48,1.95-11.73,5.85-15.75,3.9-4.02,9.09-6.03,15.57-6.03s11.46,1.89,15.3,5.67c3.84,3.78,5.76,8.43,5.76,13.95v.54c0,.6.21,1.11.63,1.53Z" style="stroke-width: 0px;"/>
  <path d="M647.95,262.99c0-.11-.02-.21-.03-.32-.03-.31-.08-.62-.14-.92,0-.04-.01-.09-.02-.13-.07-.34-.16-.68-.26-1.02-.03-.1-.06-.19-.09-.28-.08-.25-.17-.5-.27-.75-.04-.1-.08-.19-.12-.29-.13-.3-.27-.6-.42-.9,0-.02-.02-.04-.03-.06-.17-.31-.35-.62-.55-.92-.05-.08-.11-.15-.16-.23-.15-.22-.31-.44-.48-.65-.07-.08-.13-.17-.2-.25-.2-.23-.4-.46-.62-.68-.03-.03-.06-.07-.09-.1l-108-108c-2.25-2.25-5.3-3.51-8.49-3.51H228c-6.63,0-12,5.37-12,12v420h24V168h274.55v96c0,6.63,5.37,12,12,12h97.45v300h24v-312c0-.06,0-.12,0-.18,0-.27-.02-.55-.04-.82ZM538.55,252v-67.3l68.2,67.3h-68.2Z" style="stroke-width: 0px;"/>
</svg>