<?xml version="1.0" encoding="UTF-8"?>
<svg id="icon" xmlns="http://www.w3.org/2000/svg" viewBox="0 0 864 864">
  <path d="M230.58,618.61c.84-.84,1.26-1.74,1.26-2.7v-19.8c0-.6-.21-1.11-.63-1.53-.42-.42-.93-.63-1.53-.63h-75.06c-.6,0-1.11.21-1.53.63s-.63.93-.63,1.53v17.46c0,.6.21,1.11.63,1.53.42.42.93.63,1.53.63h42.3c.36,0,.57.12.63.36.06.24-.03.48-.27.72l-28.62,25.02c-.48.48-.72,1.08-.72,1.8,0,.48.12.9.36,1.26l10.62,14.94c.36.72.9,1.08,1.62,1.08.48,0,.96-.18,1.44-.54,2.04-1.44,3.78-2.55,5.22-3.33,1.44-.78,2.82-1.17,4.14-1.17,6.48,0,11.1,2.82,13.86,8.46,1.8,3.6,2.7,8.22,2.7,13.86,0,4.8-.84,9-2.52,12.6-2.52,5.88-7.14,8.82-13.86,8.82-3.36,0-6.27-.87-8.73-2.61-2.46-1.74-4.23-4.17-5.31-7.29-.84-1.92-1.5-4.86-1.98-8.82,0-1.44-.72-2.16-2.16-2.16h-21.24c-1.44,0-2.16.72-2.16,2.16.24,5.4,1.2,10.44,2.88,15.12,3,7.8,7.95,13.98,14.85,18.54,6.9,4.56,14.91,6.84,24.03,6.84s17.25-2.16,24.03-6.48c6.78-4.32,11.61-10.32,14.49-18,2.16-5.52,3.24-11.52,3.24-18,0-7.2-1.2-13.56-3.6-19.08-4.44-10.32-11.88-16.5-22.32-18.54-.48,0-.75-.12-.81-.36-.06-.24.03-.48.27-.72l23.58-21.6Z" style="stroke-width: 0px;"/>
  <path d="M299.34,719.95c9,0,16.89-1.59,23.67-4.77,6.78-3.18,12.03-7.65,15.75-13.41,3.72-5.76,5.58-12.42,5.58-19.98v-49.68c0-7.56-1.86-14.22-5.58-19.98-3.72-5.76-8.97-10.23-15.75-13.41-6.78-3.18-14.67-4.77-23.67-4.77h-45c-.6,0-1.11.21-1.53.63s-.63.93-.63,1.53v121.68c0,.6.21,1.11.63,1.53.42.42.93.63,1.53.63h45ZM277.56,616.63c0-.6.3-.9.9-.9h21.6c5.76,0,10.35,1.86,13.77,5.58,3.42,3.72,5.13,8.7,5.13,14.94v41.4c-.12,6.24-1.89,11.22-5.31,14.94-3.42,3.72-7.89,5.58-13.41,5.58h-21.78c-.6,0-.9-.3-.9-.9v-80.64Z" style="stroke-width: 0px;"/>
  <path d="M445.41,719.32c.42.42.93.63,1.53.63h21.06c.6,0,1.11-.21,1.53-.63.42-.42.63-.93.63-1.53v-121.68c0-.6-.21-1.11-.63-1.53-.42-.42-.93-.63-1.53-.63h-21.06c-1.08,0-1.92.48-2.52,1.44l-27.18,41.94c-.36.72-.72.72-1.08,0l-27-41.94c-.6-.96-1.44-1.44-2.52-1.44h-21.06c-.6,0-1.11.21-1.53.63s-.63.93-.63,1.53v121.68c0,.6.21,1.11.63,1.53.42.42.93.63,1.53.63h21.06c.6,0,1.11-.21,1.53-.63s.63-.93.63-1.53v-79.2c0-.48.12-.75.36-.81.24-.06.48.09.72.45l19.08,29.88c.6.96,1.44,1.44,2.52,1.44h10.62c1.08,0,1.92-.48,2.52-1.44l19.08-29.88c.24-.36.48-.54.72-.54s.36.24.36.72v79.38c0,.6.21,1.11.63,1.53Z" style="stroke-width: 0px;"/>
  <path d="M647.95,262.99c0-.1-.02-.21-.03-.31-.03-.31-.08-.63-.14-.94,0-.04-.01-.08-.02-.12-.07-.34-.16-.69-.26-1.02-.03-.09-.06-.18-.09-.27-.08-.26-.17-.51-.27-.76-.04-.09-.07-.18-.11-.27-.13-.31-.27-.62-.43-.92,0-.01-.01-.03-.02-.04-.17-.32-.35-.62-.55-.92-.05-.08-.1-.15-.15-.22-.15-.22-.32-.44-.49-.66-.06-.08-.13-.16-.19-.24-.2-.23-.4-.46-.62-.68-.03-.03-.06-.07-.09-.1l-108-108c-2.25-2.25-5.3-3.51-8.49-3.51H228c-6.63,0-12,5.37-12,12v420h24V168h274.55v96c0,6.63,5.37,12,12,12h97.45v300h24v-312c0-.06,0-.12,0-.18,0-.28-.02-.56-.04-.83ZM538.55,252v-67.3l68.2,67.3h-68.2Z" style="stroke-width: 0px;"/>
</svg>