<?xml version="1.0" encoding="UTF-8"?>
<svg id="icon" xmlns="http://www.w3.org/2000/svg" viewBox="0 0 864 864">
  <path d="M243.45,615.28c.42-.42.63-.93.63-1.53v-17.64c0-.6-.21-1.11-.63-1.53-.42-.42-.93-.63-1.53-.63h-90.72c-.6,0-1.11.21-1.53.63s-.63.93-.63,1.53v17.64c0,.6.21,1.11.63,1.53.42.42.93.63,1.53.63h31.32c.6,0,.9.3.9.9v100.98c0,.6.21,1.11.63,1.53.42.42.93.63,1.53.63h21.06c.6,0,1.11-.21,1.53-.63s.63-.93.63-1.53v-100.98c0-.6.3-.9.9-.9h32.22c.6,0,1.11-.21,1.53-.63Z" style="stroke-width: 0px;"/>
  <path d="M286.56,615.73h59.04c.6,0,1.11-.21,1.53-.63s.63-.93.63-1.53v-17.46c0-.6-.21-1.11-.63-1.53-.42-.42-.93-.63-1.53-.63h-83.16c-.6,0-1.11.21-1.53.63s-.63.93-.63,1.53v121.68c0,.6.21,1.11.63,1.53.42.42.93.63,1.53.63h83.16c.6,0,1.11-.21,1.53-.63.42-.42.63-.93.63-1.53v-17.46c0-.6-.21-1.11-.63-1.53-.42-.42-.93-.63-1.53-.63h-59.04c-.6,0-.9-.3-.9-.9v-29.16c0-.6.3-.9.9-.9h38.7c.6,0,1.11-.21,1.53-.63.42-.42.63-.93.63-1.53v-17.46c0-.6-.21-1.11-.63-1.53-.42-.42-.93-.63-1.53-.63h-38.7c-.6,0-.9-.3-.9-.9v-27.9c0-.6.3-.9.9-.9Z" style="stroke-width: 0px;"/>
  <path d="M360.18,717.43c-.48.72-.54,1.32-.18,1.8.36.48.96.72,1.8.72h22.68c1.2,0,2.1-.48,2.7-1.44l23.58-41.04c.36-.72.72-.72,1.08,0l23.4,41.04c.6.96,1.5,1.44,2.7,1.44h22.68c1.32,0,1.98-.48,1.98-1.44l-.36-1.08-34.92-59.94c-.12-.36-.12-.72,0-1.08l34.92-59.94c.48-.72.54-1.32.18-1.8-.36-.48-.96-.72-1.8-.72h-22.68c-1.2,0-2.1.48-2.7,1.44l-23.4,41.22c-.36.72-.72.72-1.08,0l-23.4-41.22c-.6-.96-1.5-1.44-2.7-1.44h-22.86c-1.32,0-1.98.48-1.98,1.44l.36,1.08,34.92,59.94c.24.36.24.72,0,1.08l-34.92,59.94Z" style="stroke-width: 0px;"/>
  <path d="M647.95,262.99c0-.1-.02-.21-.03-.31-.04-.31-.08-.63-.14-.94,0-.04-.01-.08-.02-.12-.07-.34-.16-.69-.26-1.02-.03-.09-.06-.18-.09-.27-.08-.26-.17-.51-.27-.76-.04-.09-.07-.18-.11-.27-.13-.31-.27-.62-.43-.92,0-.01-.01-.03-.02-.04-.17-.32-.36-.62-.55-.92-.05-.08-.1-.15-.15-.22-.16-.22-.32-.44-.49-.66-.06-.08-.13-.16-.2-.24-.2-.23-.4-.46-.62-.68-.03-.03-.06-.07-.09-.1l-108-108c-2.25-2.25-5.3-3.51-8.49-3.51H228c-6.63,0-12,5.37-12,12v420h24V168h274.55v96c0,6.63,5.37,12,12,12h97.45v300h24v-312c0-.06,0-.12,0-.18,0-.28-.02-.56-.04-.83ZM538.55,252v-67.3l68.2,67.3h-68.2Z" style="stroke-width: 0px;"/>
</svg>