<?xml version="1.0" encoding="UTF-8"?>
<svg id="icon" xmlns="http://www.w3.org/2000/svg" viewBox="0 0 864 864">
  <path d="M648,264c0-.06,0-.12,0-.18,0-.28-.02-.55-.04-.82,0-.11-.02-.21-.03-.31-.03-.31-.08-.62-.14-.92,0-.04-.01-.09-.02-.13-.07-.34-.16-.68-.26-1.02-.03-.09-.06-.19-.09-.28-.08-.25-.17-.5-.27-.75-.04-.1-.07-.19-.12-.29-.13-.3-.27-.6-.42-.89-.01-.02-.02-.04-.03-.06-.17-.31-.35-.62-.55-.92-.05-.08-.11-.16-.16-.24-.15-.22-.31-.43-.48-.64-.07-.09-.14-.17-.21-.26-.19-.23-.39-.45-.6-.66-.04-.04-.07-.08-.1-.11l-108-108c-2.25-2.25-5.3-3.51-8.49-3.51H228c-6.63,0-12,5.37-12,12v420h24V168h274.55v96c0,6.63,5.37,12,12,12h97.45v300h24v-312ZM538.55,252v-67.3l68.2,67.3h-68.2Z" style="stroke-width: 0px;"/>
  <path d="M154.08,717.79c0,.6.21,1.11.63,1.53.42.42.93.63,1.53.63h21.06c.6,0,1.11-.21,1.53-.63s.63-.93.63-1.53v-45.9c0-.6.3-.9.9-.9h25.56c8.04,0,15.15-1.59,21.33-4.77,6.18-3.18,10.98-7.65,14.4-13.41,3.42-5.76,5.13-12.42,5.13-19.98s-1.65-14.49-4.95-20.43c-3.3-5.94-7.95-10.53-13.95-13.77-6-3.24-12.96-4.86-20.88-4.86h-50.76c-.6,0-1.11.21-1.53.63-.42.42-.63.93-.63,1.53v121.86ZM179.46,616.63c0-.6.3-.9.9-.9h22.86c5.52,0,9.96,1.62,13.32,4.86,3.36,3.24,5.04,7.5,5.04,12.78s-1.68,9.33-5.04,12.51c-3.36,3.18-7.8,4.77-13.32,4.77h-22.86c-.6,0-.9-.3-.9-.9v-33.12Z" style="stroke-width: 0px;"/>
  <path d="M284.76,719.95c.6,0,1.11-.21,1.53-.63s.63-.93.63-1.53v-45.9c0-.6.3-.9.9-.9h25.56c8.04,0,15.15-1.59,21.33-4.77,6.18-3.18,10.98-7.65,14.4-13.41s5.13-12.42,5.13-19.98-1.65-14.49-4.95-20.43c-3.3-5.94-7.95-10.53-13.95-13.77-6-3.24-12.96-4.86-20.88-4.86h-50.76c-.6,0-1.11.21-1.53.63-.42.42-.63.93-.63,1.53v121.86c0,.6.21,1.11.63,1.53.42.42.93.63,1.53.63h21.06ZM286.92,616.63c0-.6.3-.9.9-.9h22.86c5.52,0,9.96,1.62,13.32,4.86,3.36,3.24,5.04,7.5,5.04,12.78s-1.68,9.33-5.04,12.51c-3.36,3.18-7.8,4.77-13.32,4.77h-22.86c-.6,0-.9-.3-.9-.9v-33.12Z" style="stroke-width: 0px;"/>
  <path d="M398.96,719.32c.42.42.93.63,1.53.63h21.06c.6,0,1.11-.21,1.53-.63s.63-.93.63-1.53v-100.98c0-.6.3-.9.9-.9h32.22c.6,0,1.11-.21,1.53-.63s.63-.93.63-1.53v-17.64c0-.6-.21-1.11-.63-1.53-.42-.42-.93-.63-1.53-.63h-90.72c-.6,0-1.11.21-1.53.63s-.63.93-.63,1.53v17.64c0,.6.21,1.11.63,1.53.42.42.93.63,1.53.63h31.32c.6,0,.9.3.9.9v100.98c0,.6.21,1.11.63,1.53Z" style="stroke-width: 0px;"/>
</svg>