<?xml version="1.0" encoding="UTF-8"?>
<svg id="icon" xmlns="http://www.w3.org/2000/svg" viewBox="0 0 864 864">
  <path d="M168.75,716.26c6.78,3.42,14.73,5.13,23.85,5.13s16.74-1.71,23.58-5.13,12.18-8.22,16.02-14.4c3.84-6.18,5.76-13.35,5.76-21.51v-84.24c0-.6-.21-1.11-.63-1.53-.42-.42-.93-.63-1.53-.63h-20.88c-.6,0-1.11.21-1.53.63s-.63.93-.63,1.53v84.24c0,5.76-1.89,10.41-5.67,13.95-3.78,3.54-8.61,5.31-14.49,5.31s-10.95-1.77-14.49-5.31c-3.54-3.54-5.31-8.19-5.31-13.95v-11.34c0-.6-.21-1.11-.63-1.53-.42-.42-.93-.63-1.53-.63h-21.06c-.6,0-1.11.21-1.53.63s-.63.93-.63,1.53v11.34c0,8.16,1.86,15.33,5.58,21.51,3.72,6.18,8.97,10.98,15.75,14.4Z" style="stroke-width: 0px;"/>
  <path d="M275.22,719.95c1.2,0,1.98-.6,2.34-1.8l5.22-17.64c.24-.48.54-.72.9-.72h44.28c.36,0,.66.24.9.72l5.4,17.64c.36,1.2,1.14,1.8,2.34,1.8h22.86c1.32,0,1.98-.54,1.98-1.62,0-.36-.06-.66-.18-.9l-38.88-121.68c-.36-1.2-1.14-1.8-2.34-1.8h-28.26c-1.2,0-1.98.6-2.34,1.8l-38.88,121.68c-.24.84-.18,1.47.18,1.89.36.42.9.63,1.62.63h22.86ZM289.26,679.09l15.84-53.46c.12-.36.3-.57.54-.63.24-.06.42.15.54.63l16.2,53.46c.24.72,0,1.08-.72,1.08h-31.68c-.6,0-.84-.36-.72-1.08Z" style="stroke-width: 0px;"/>
  <path d="M468.18,593.95h-22.14c-1.32,0-2.16.6-2.52,1.8l-23.58,87.84c-.12.36-.3.54-.54.54s-.42-.18-.54-.54l-23.94-87.84c-.36-1.2-1.2-1.8-2.52-1.8h-22.68c-1.32,0-1.98.6-1.98,1.8l.18.72,37.08,121.68c.36,1.2,1.14,1.8,2.34,1.8h22.68c1.2,0,1.98-.6,2.34-1.8l37.62-121.68c.24-.72.18-1.32-.18-1.8-.36-.48-.9-.72-1.62-.72Z" style="stroke-width: 0px;"/>
  <path d="M461.88,719.32c.36.42.9.63,1.62.63h22.86c1.2,0,1.98-.6,2.34-1.8l5.22-17.64c.24-.48.54-.72.9-.72h44.28c.36,0,.66.24.9.72l5.4,17.64c.36,1.2,1.14,1.8,2.34,1.8h22.86c1.32,0,1.98-.54,1.98-1.62,0-.36-.06-.66-.18-.9l-38.88-121.68c-.36-1.2-1.14-1.8-2.34-1.8h-28.26c-1.2,0-1.98.6-2.34,1.8l-38.88,121.68c-.24.84-.18,1.47.18,1.89ZM500.4,679.09l15.84-53.46c.12-.36.3-.57.54-.63.24-.06.42.15.54.63l16.2,53.46c.24.72,0,1.08-.72,1.08h-31.68c-.6,0-.84-.36-.72-1.08Z" style="stroke-width: 0px;"/>
  <path d="M647.95,262.99c0-.1-.02-.21-.03-.31-.03-.32-.08-.63-.14-.94,0-.04-.01-.08-.02-.11-.07-.35-.16-.69-.26-1.02-.03-.09-.06-.18-.09-.27-.08-.26-.17-.51-.27-.76-.04-.09-.07-.18-.11-.28-.13-.31-.27-.61-.43-.91,0-.02-.01-.03-.02-.05-.17-.31-.35-.62-.55-.92-.05-.08-.1-.15-.16-.23-.15-.22-.31-.44-.48-.65-.07-.08-.13-.17-.2-.25-.19-.23-.4-.46-.61-.67-.03-.03-.06-.07-.1-.11l-108-108c-2.25-2.25-5.3-3.51-8.49-3.51H228c-6.63,0-12,5.37-12,12v420h24V168h274.55v96c0,6.63,5.37,12,12,12h97.45v300h24v-312c0-.06,0-.12,0-.18,0-.28-.02-.56-.04-.83ZM538.55,252v-67.3l68.2,67.3h-68.2Z" style="stroke-width: 0px;"/>
</svg>