<?xml version="1.0" encoding="UTF-8"?>
<svg id="icon" xmlns="http://www.w3.org/2000/svg" viewBox="0 0 864 864">
  <path d="M648,264c0-.06,0-.12,0-.18,0-.28-.02-.55-.04-.82,0-.11-.02-.21-.03-.31-.03-.31-.08-.62-.14-.92,0-.04-.01-.09-.02-.13-.07-.34-.16-.68-.26-1.02-.03-.09-.06-.19-.09-.28-.08-.25-.17-.5-.27-.75-.04-.1-.07-.19-.12-.29-.13-.3-.27-.6-.42-.89-.01-.02-.02-.04-.03-.06-.17-.31-.35-.62-.55-.92-.05-.08-.11-.16-.16-.24-.15-.22-.31-.43-.48-.64-.07-.09-.14-.17-.21-.26-.19-.23-.39-.45-.6-.66-.04-.04-.07-.08-.1-.11l-108-108c-2.25-2.25-5.3-3.51-8.49-3.51H228c-6.63,0-12,5.37-12,12v420h24V168h274.55v96c0,6.63,5.37,12,12,12h97.45v300h24v-312ZM538.55,252v-67.3l68.2,67.3h-68.2Z" style="stroke-width: 0px;"/>
  <path d="M173.7,719.95c1.2,0,1.98-.6,2.34-1.8l5.22-17.64c.24-.48.54-.72.9-.72h44.28c.36,0,.66.24.9.72l5.4,17.64c.36,1.2,1.14,1.8,2.34,1.8h22.86c1.32,0,1.98-.54,1.98-1.62,0-.36-.06-.66-.18-.9l-38.88-121.68c-.36-1.2-1.14-1.8-2.34-1.8h-28.26c-1.2,0-1.98.6-2.34,1.8l-38.88,121.68c-.24.84-.18,1.47.18,1.89.36.42.9.63,1.62.63h22.86ZM187.74,679.09l15.84-53.46c.12-.36.3-.57.54-.63.24-.06.42.15.54.63l16.2,53.46c.24.72,0,1.08-.72,1.08h-31.68c-.6,0-.84-.36-.72-1.08Z" style="stroke-width: 0px;"/>
  <path d="M298.98,719.95c.6,0,1.11-.21,1.53-.63.42-.42.63-.93.63-1.53v-121.68c0-.6-.21-1.11-.63-1.53-.42-.42-.93-.63-1.53-.63h-21.06c-.6,0-1.11.21-1.53.63s-.63.93-.63,1.53v121.68c0,.6.21,1.11.63,1.53.42.42.93.63,1.53.63h21.06Z" style="stroke-width: 0px;"/>
</svg>