<?xml version="1.0" encoding="UTF-8"?>
<svg id="icon" xmlns="http://www.w3.org/2000/svg" viewBox="0 0 864 864">
  <path d="M252.75,269.23c-24.6-14.21-56.04-5.81-70.25,18.77-2.42,4.25-4.25,8.83-5.38,13.58-6.65,27.62,10.34,55.39,37.94,62.02l-.02,136.78c-9.55,2.33-18.26,7.34-25.06,14.47-19.58,20.52-18.82,53.04,1.68,72.62,20.52,19.61,53.04,18.82,72.62-1.68l118.46,68.33c-1.42,4.78-2.11,9.7-2.11,14.62.02,28.34,23.02,51.29,51.36,51.26,5.47,0,10.87-.89,16.08-2.59,26.95-8.9,41.59-37.97,32.66-64.94l117.72-67.97c3.62,4.08,7.92,7.58,12.62,10.3,24.62,14.21,56.04,5.78,70.25-18.77,2.52-4.34,4.42-9.05,5.57-13.94,6.58-27.5-10.42-55.1-37.92-61.66v-136.78c4.73-1.15,9.22-2.95,13.39-5.35,24.67-14.14,33.24-45.6,19.1-70.27-2.47-4.22-5.5-8.09-9.05-11.45-20.62-19.58-53.18-18.77-72.77,1.85l-118.44-68.4c1.42-4.78,2.16-9.79,2.14-14.81-.02-28.32-23.02-51.24-51.36-51.22-4.94,0-9.91.7-14.64,2.11-27.12,8.04-42.65,36.58-34.58,63.77l-118.51,68.4c-3.38-3.58-7.27-6.62-11.52-9.05ZM469.99,634.1c-9.43-10.3-22.94-16.75-37.99-16.75s-27.65,5.98-36.96,15.67l-118.54-68.45.5-1.99h309.98c.26,1.15.55,2.28.91,3.41l-117.91,68.11ZM468.87,231.07l118.7,68.59c-.17.55-.31,1.15-.46,1.73-6.82,27.5,9.91,55.32,37.39,62.11v136.97c-.62.17-1.34.34-1.97.55l-155.06-268.56c.5-.46.94-.89,1.39-1.39ZM417.72,244.66c9.34,2.69,19.25,2.69,28.61,0l155.09,268.46c-7.1,6.79-12.14,15.5-14.47,25.06h-309.86c-2.35-9.5-7.34-18.19-14.4-24.98l155.04-268.54ZM395.07,231.05l1.44,1.44.05-.02-155.06,268.56-2.02-.55v-136.99c.6-.17,1.2-.31,1.82-.5,27.22-7.85,42.91-36.24,35.06-63.48l118.7-68.45Z" style="stroke-width: 0px;"/>
</svg>