<?xml version="1.0" encoding="UTF-8"?>
<svg id="icon" xmlns="http://www.w3.org/2000/svg" viewBox="0 0 864 864">
  <path d="M431.59,144c-79.01,0-148.56,29.21-202.27,83.64-55.32,56.02-85.32,128.62-85.32,204.36s29.21,147.55,84.53,202.8c55.32,55.2,127.2,85.2,203.06,85.2s149.33-30,206.23-85.99c53.74-52.87,82.18-123.12,82.18-202.01s-28.46-149.14-82.99-203.59c-55.3-55.2-126.41-84.41-205.42-84.41ZM600.67,596.93c-46.63,45.74-106.66,70.22-168.29,70.22s-120.91-24.46-165.94-69.43c-45.05-45-70.32-104.16-70.32-165.72s25.27-121.51,70.32-167.28c44.26-44.98,101.14-68.64,165.94-68.64s122.47,24.48,167.52,69.43c44.23,44.18,67.92,102.58,67.92,166.49s-22.9,121.51-67.15,164.93Z" style="stroke-width: 0px;"/>
  <path d="M524.76,483.05c-26.52,0-38.66-22.01-38.66-51.02s10.22-51.05,38.64-51.05c7.68,0,23.04,4.15,31.97,23.28l38.33-20.11c-16.32-29.66-44.09-41.47-76.34-41.47-46.97,0-84.34,33.17-84.34,89.33s35.14,89.33,85.92,89.33c32.62,0,60.38-17.86,75.72-44.98l-35.76-18.19c-7.99,19.15-20.16,24.89-35.47,24.89Z" style="stroke-width: 0px;"/>
  <path d="M358.37,483.05c-26.52,0-38.64-22.01-38.64-51.02s10.22-51.05,38.64-51.05c7.68,0,23.04,4.15,31.97,23.28l38.33-20.11c-16.32-29.66-44.09-41.47-76.34-41.47-46.97,0-84.36,33.17-84.36,89.33s35.16,89.33,85.94,89.33c32.59,0,60.38-17.86,75.72-44.98l-35.78-18.19c-7.99,19.15-20.14,24.89-35.47,24.89Z" style="stroke-width: 0px;"/>
</svg>