<?xml version="1.0" encoding="UTF-8"?>
<svg id="icon" xmlns="http://www.w3.org/2000/svg" viewBox="0 0 864 864">
  <polygon points="155.29 361.59 155.29 511.48 194.94 511.48 194.94 452 239.67 452 239.67 511.5 279.33 511.5 279.33 361.59 239.7 361.59 239.7 417.39 194.94 417.39 194.94 361.59 155.29 361.59" style="stroke-width: 0px;"/>
  <polygon points="440.76 361.59 440.76 511.48 537.15 511.48 537.15 478.27 480.41 478.27 480.41 361.59 440.76 361.59" style="stroke-width: 0px;"/>
  <path d="M708.71,361.59h-41.05l-22.59,62.27-8.3,24.45h-.91l-8.3-24.45-23.53-62.27h-41.05v149.88h36.43v-44.27c0-3.85-.19-8.06-.58-12.68-.39-4.62-.82-9.34-1.28-14.17-.46-4.84-1.01-9.58-1.61-14.17-.63-4.62-1.15-8.76-1.61-12.44h.91l11.98,35.06,20.77,50.51h14.75l20.74-50.51,12.44-35.06h.91c-.46,3.68-1.01,7.84-1.61,12.46-.63,4.62-1.15,9.34-1.61,14.17-.46,4.84-.89,9.58-1.28,14.17-.39,4.62-.58,8.83-.58,12.68v44.27h36.96v-149.91Z" style="stroke-width: 0px;"/>
  <polygon points="409.41 394.78 409.41 361.57 312.56 361.59 312.56 511.48 411.72 511.48 411.72 478.27 352.21 478.27 352.21 451.51 401.1 451.51 401.1 418.31 352.21 418.31 352.21 394.78 409.41 394.78" style="stroke-width: 0px;"/>
  <path d="M599.16,550.92l-27.07-18.77c-32.36,46.68-85.56,74.54-142.35,74.54s-109.8-27.77-142.16-74.3l-27.05,18.82c9.17,13.19,19.78,25.07,31.5,35.59-6.04,5.49-12.2,12.34-17.88,20.45-16.94,24.18-23.1,49.06-13.79,55.58s30.58-7.8,47.52-31.98c5.39-7.72,9.55-15.42,12.61-22.67,28.37,17.73,60.88,28.51,94.9,30.9-1.88,8.06-3.01,17.37-3.01,27.48,0,29.52,9.22,53.44,20.6,53.44s20.6-23.92,20.6-53.44c0-10.32-1.18-19.88-3.13-28.06,33.81-3.42,65.98-15.11,93.79-33.69,3.08,8.13,7.82,17.13,14.05,26.04,16.94,24.18,38.21,38.5,47.52,31.98,9.31-6.52,3.15-31.4-13.79-55.58-6.79-9.67-14.22-17.66-21.34-23.46,10.49-9.84,20.09-20.79,28.47-32.87Z" style="stroke-width: 0px;"/>
  <path d="M307.89,233.15c-16.92-24.18-38.19-38.48-47.5-31.95-9.31,6.52-3.15,31.4,13.79,55.58,6.38,9.1,13.38,16.8,20.12,22.52-14.32,12.51-27.05,27.02-37.68,43.48l27.67,17.88c32.05-49.62,86.43-79.24,145.48-79.24s116.34,31.14,148.01,83.28l28.15-17.11c-10.47-17.23-23.17-32.46-37.54-45.6,7.8-5.9,16.15-14.51,23.65-25.24,16.94-24.18,23.1-49.06,13.79-55.58-9.31-6.52-30.58,7.8-47.52,31.98-7.07,10.08-12.13,20.21-15.09,29.16-27.72-18.31-59.79-29.64-93.84-32.82,2.6-8.95,4.21-19.97,4.21-32.07,0-29.5-9.22-53.42-20.6-53.42s-20.6,23.92-20.6,53.44c0,11.81,1.52,22.64,4.02,31.47-34,2.17-66.34,12.63-94.56,30.01-3.08-8.08-7.77-16.96-13.96-25.77Z" style="stroke-width: 0px;"/>
</svg>