<?xml version="1.0" encoding="UTF-8"?>
<svg id="icon" xmlns="http://www.w3.org/2000/svg" viewBox="0 0 864 864">
  <path d="M360.86,483.87c2.84,2.83,7.43,2.83,10.27,0v-.02l37.73-37.73c2.83-2.84,2.83-7.43,0-10.27l-7.75-7.73c-2.84-2.82-7.41-2.82-10.25,0l-24.86,24.89-9.89-9.86c-2.84-2.82-7.41-2.82-10.25,0l-7.75,7.73s-.01.01-.02.02c-2.82,2.84-2.81,7.43.02,10.25l22.75,22.73Z" style="stroke-width: 0px;"/>
  <path d="M182.78,565.64l224,146.84c15.32,10.04,35.13,10.04,50.45,0l224-146.84c12.96-8.5,20.78-22.97,20.78-38.5v-190.28c0-15.53-7.8-30-20.78-38.5l-224-146.84c-15.32-10.04-35.13-10.04-50.45,0l-224,146.84c-12.96,8.5-20.78,22.97-20.78,38.5v190.28c-.01,15.52,7.8,29.99,20.78,38.5ZM269.99,438c0-3.31,2.69-6,6-6h12v-72c0-9.94,8.06-18,18-18h144v-18h-30c-3.31,0-6-2.69-6-6v-42c0-3.31,2.69-6,6-6h42c3.31,0,6,2.69,6,6v66h90c9.94,0,18,8.06,18,18v72h12c3.31,0,6,2.69,6,6v60c0,3.31-2.69,6-6,6h-12v36c0,9.94-8.06,18-18,18h-252.01c-9.94,0-18-8.04-18-18v-36h-12c-3.31,0-6-2.69-6-6v-60Z" style="stroke-width: 0px;"/>
  <path d="M480.87,483.87c2.84,2.83,7.43,2.83,10.27,0l37.73-37.73c2.83-2.84,2.83-7.43,0-10.27l-7.73-7.73c-2.84-2.83-7.43-2.83-10.27,0l-24.89,24.86-9.84-9.86c-2.84-2.83-7.43-2.83-10.27,0l-7.73,7.73c-2.83,2.84-2.83,7.43,0,10.27l22.73,22.73Z" style="stroke-width: 0px;"/>
</svg>