<?xml version="1.0" encoding="UTF-8"?>
<svg id="icon" xmlns="http://www.w3.org/2000/svg" viewBox="0 0 864 864">
  <path d="M698.35,337.2c-17.52-36.69-45.16-67.6-79.66-89.11-22.46-14.28-47.53-23.95-73.75-28.46-8.47-1.44-17.06-2.09-25.63-3.12-1.1-.12-2.26-.34-3.36-.5h-17.28c-5.59.58-11.18,1.13-16.8,1.78-23.61,2.78-46.56,9.67-67.8,20.35-22.02,10.97-41.98,25.67-58.99,43.44-.93.83-2.17,1.24-3.41,1.13-11.94-1.7-24.02-2.27-36.07-1.7-24.47,1.13-48.42,7.43-70.27,18.48-42.53,21.67-72.53,55.18-89.71,100.3-6.34,16.73-10.07,34.34-11.06,52.2-.07,1.06-.36,2.09-.55,3.12v18.72l1.7,14.45c2.33,19.78,8.01,39.01,16.8,56.88,19.87,40.42,50.26,69.82,90.98,87.94,18.57,8.25,38.47,13.11,58.75,14.35,1.03.1,2.04.38,3.07.58h202.34c5.21-.58,10.44-1.13,15.65-1.75,23.51-2.74,46.35-9.59,67.49-20.23,36.25-17.99,66.6-45.97,87.48-80.64,14.24-23.07,23.83-48.7,28.22-75.46,1.37-8.33,2.02-16.75,2.98-25.15.12-1.03.34-2.06.53-3.12v-19.27h0c-.58-5.5-1.1-10.99-1.73-16.49-2.67-23.87-9.41-47.1-19.92-68.69ZM383.71,606.96c-1.39.07-2.3.17-3.22.17h-55.18c-65.86-.07-122.14-45.98-136.58-111.43-15.84-71.83,24.74-144.62,94.06-166.06,51.55-15.94,98.14-4.78,137.66,32.69,20.38,19.32,39.5,40.01,59.09,60.17,5.54,5.74,6.84,12.82,4.15,20.26-2.74,7.58-8.81,11.28-16.39,12.38-5.88.84-10.78-1.15-15-5.52-18.67-19.18-37.68-37.99-56.16-57.38-15.12-15.86-33.58-24.91-54.58-28.73-46.87-8.5-94.42,19.08-111.58,64.42-21.77,57.46,12.53,122.76,71.59,136.32,11.88,2.74,23.95,2.69,36,2.4,2.93-.12,5.75,1.09,7.68,3.29,11.9,11.74,24.02,23.21,36.05,34.78.8.76,1.6,1.51,2.4,2.26h0ZM677.66,455.59c-4.07,32.33-17.18,62.87-37.82,88.08-25.25,31.01-57.31,51.07-96,59.93-20.28,4.61-40.73,5.23-61.32,2.45-26.26-3.53-50.5-12.31-72-28.18-5.74-4.25-11.14-8.93-16.18-13.97-29.42-29.47-58.63-59.14-88.08-88.56-7.42-7.39-7.85-15.55-4.44-22.75,3.6-8.01,12.04-12.7,20.74-11.52,5.06.65,8.98,3.53,12.5,7.13,26.42,27,52.97,53.88,79.32,80.95,20.54,21.1,45.34,33.7,74.06,37.54,46.68,6.22,86.35-8.47,118.03-43.99,17.33-19.46,27.55-42.74,31.92-68.66,6.5-38.64-2.5-73.44-26.06-104.16-20.81-27.17-48.05-44.18-81.53-50.21-34.15-6.17-65.95.36-95.28,19.25-.82.53-2.5.72-3.17.24-10.68-7.9-22.01-14.88-33.84-20.81-.14-.07-.24-.29-.6-.77h.02c9.27-7.88,19.37-14.72,30.12-20.4,19.58-10.67,41.17-17.13,63.38-18.96,58.1-4.39,106.94,15.38,145.78,59.69,20.33,23.26,33.02,50.57,38.88,81.05,3.58,18.67,4.11,37.8,1.56,56.64Z" style="stroke-width: 0px;"/>
</svg>