<?xml version="1.0" encoding="UTF-8"?>
<svg id="icon" xmlns="http://www.w3.org/2000/svg" viewBox="0 0 864 864">
  <path d="M247.97,331.46c-30.09,0-54.48,24.39-54.48,54.48s24.39,54.48,54.48,54.48,54.48-24.39,54.48-54.48-24.39-54.48-54.48-54.48Z" style="stroke-width: 0px;"/>
  <polygon points="544.27 391.87 535.92 363.19 534.41 363.19 526.01 391.87 526.03 391.87 544.27 391.87" style="stroke-width: 0px;"/>
  <path d="M720,431.42c0-92.69-36.22-248.21-278.74-248.21H144v497.57h297.26c179.76,0,278.74-88.56,278.74-249.36ZM167.4,206.62h273.86c157.82,0,255.36,71.76,255.36,224.81s-90,225.96-255.36,225.96H167.4V206.62Z" style="stroke-width: 0px;"/>
  <path d="M372.36,385.61c0-22.18-11.11-25.03-20.81-25.03h-15.6v50.88h15.6c10.8,0,20.81-3.12,20.81-25.85Z" style="stroke-width: 0px;"/>
  <rect x="204.14" y="464.54" width="87.67" height="156.07" style="stroke-width: 0px;"/>
  <path d="M659.76,436.7h-63.36v-101.42h25.22v76.18h37.44c-10.27-138.19-118.99-168.05-217.78-168.05h-105.31v91.92h15.6c28.39,0,46.08,19.27,46.08,50.28s-17.26,51.1-46.08,51.1h-15.6v183.96h105.31c160.61,0,216.5-74.57,218.47-183.96ZM553.1,335.28l30.58,101.45h-26.28l-5.74-19.63h-33.02l-5.76,19.63h-26.27l30.57-101.45h35.93ZM412.01,335.33h60.46v25.25h-35.21v11.76h33.29v25.2h-33.26v13.92h37.2v25.25h-62.47v-101.38Z" style="stroke-width: 0px;"/>
</svg>