<?xml version="1.0" encoding="UTF-8"?>
<svg id="icon" xmlns="http://www.w3.org/2000/svg" viewBox="0 0 864 864">
  <path d="M545.81,363.17l-109.41-63.17c-2.73-1.57-6.1-1.57-8.83,0l-109.42,63.17c-2.73,1.59-4.42,4.52-4.42,7.68v126.29c0,3.17,1.68,6.09,4.42,7.68l109.42,63.17c2.73,1.57,6.1,1.57,8.83,0l109.41-63.17c2.73-1.59,4.41-4.5,4.42-7.66v-126.31c0-3.17-1.68-6.09-4.42-7.68Z" style="stroke-width: 0px;"/>
  <path d="M716.42,420.72l-130.7-227.4c-4.75-8.23-13.54-14.3-23.04-14.3h-261.38c-9.5,0-18.29,6.07-23.04,14.3l-130.7,226.89c-4.74,8.31-4.74,18.5,0,26.81l130.73,225.55c4.73,8.21,13.51,12.41,23.02,12.41h261.43c9.48,0,18.24-4.08,23.02-12.29l130.7-225.91c4.74-8.04,4.74-18.02,0-26.06h-.02ZM603.31,538.17l-166.53,96.05c-2.92,1.67-6.49,1.67-9.41,0l-166.63-96.05c-2.95-1.65-4.82-4.73-4.92-8.11v-192.14c0-3.36,1.99-6.46,4.9-8.11l166.46-96.05c2.88-1.68,6.53-1.68,9.41,0l166.63,96.07c2.96,1.64,4.84,4.72,4.94,8.11l.05,192.12c-.09,3.38-1.95,6.46-4.9,8.11Z" style="stroke-width: 0px;"/>
</svg>