<?xml version="1.0" encoding="UTF-8"?>
<svg id="icon" xmlns="http://www.w3.org/2000/svg" viewBox="0 0 864 864">
  <path d="M308.93,144.15c-7.1-1.08-13.73,3.81-14.81,10.91l-56.76,365.1,142.16-254.72-61.03-114.51c-1.93-3.65-5.47-6.16-9.55-6.78Z" style="stroke-width: 0px;"/>
  <path d="M487.2,315.55l-43.68-83.57c-3.34-6.36-11.2-8.82-17.56-5.48-2.34,1.23-4.25,3.14-5.48,5.48l-191.77,343.64,258.49-260.07Z" style="stroke-width: 0px;"/>
  <path d="M412.13,715.02c11.83,6.64,26.26,6.64,38.09,0l190.23-106.27-54.05-335.98c-1.2-7.1-7.92-11.88-15.02-10.68-2.65.45-5.1,1.71-7.01,3.6l-340.81,343.07,188.57,106.27Z" style="stroke-width: 0px;"/>
</svg>