<?xml version="1.0" encoding="UTF-8"?>
<svg id="a" data-name="Layer 1" xmlns="http://www.w3.org/2000/svg" viewBox="0 0 20 20">
  <defs>
    <style>
      .b {
        fill-rule: evenodd;
      }
    </style>
  </defs>
  <path class="b" d="M14.58,4.26l-.38-.62c-.97-1.59-2.71-2.64-4.7-2.64-2.6,0-4.78,1.81-5.35,4.23l-.19,.82-.84-.05c-1.12-.06-2.12,.87-2.12,2s.89,2,2,2h2c0,.34,.03,.68,.1,1H3C1.34,11,0,9.66,0,8s1.48-3.09,3.17-3C3.85,2.14,6.43,0,9.5,0c2.35,0,4.41,1.25,5.55,3.11,2.46-.6,4.95,1.33,4.95,3.89,0,2.21-1.79,4-4,4h-1.1c.07-.32,.1-.66,.1-1h1c1.66,0,3-1.34,3-3,0-1.91-1.88-3.36-3.71-2.91l-.71,.17h0Zm-6.58,13.74v-4.54c-1.19-.69-2-1.98-2-3.46,0-2.21,1.79-4,4-4s4,1.79,4,4c0,1.48-.8,2.77-2,3.46v.54c0,.27-.1,.52-.29,.71l-.29,.29,.29,.29c.39,.39,.39,1.03,0,1.42l-.29,.29,.29,.29c.19,.2,.29,.45,.29,.71s-.1,.51-.29,.71l-1,1c-.39,.39-1.02,.39-1.41,0l-1-1c-.19-.19-.29-.44-.29-.71h0Zm1-5.17v5.17l1,1,1-1-1-1,1-1-1-1,1-1v-1.17c1.16-.41,2-1.52,2-2.83,0-1.66-1.34-3-3-3s-3,1.34-3,3c0,1.31,.83,2.42,2,2.83h0Zm-1-2.83c0-1.1,.89-2,2-2s2,.9,2,2-.89,2-2,2-2-.9-2-2h0Zm2-1c.55,0,1,.45,1,1s-.45,1-1,1-1-.45-1-1,.45-1,1-1h0Z"/>
</svg>