<?xml version="1.0" encoding="UTF-8"?>
<svg id="a" data-name="Layer 1" xmlns="http://www.w3.org/2000/svg" viewBox="0 0 20 20">
  <path class="b" d="M14.58,8c-.52,1.18-1.48,2.13-2.67,2.62,.41-.69,.73-1.59,.92-2.62h1.76Zm.32-1h-1.94c.03-.33,.04-.66,.04-1s-.01-.67-.04-1h1.94c.07,.32,.1,.66,.1,1s-.03,.68-.1,1h0Zm-2.94,0c.03-.32,.05-.66,.05-1s-.02-.68-.05-1h-3.91c-.03,.32-.05,.66-.05,1s.02,.68,.05,1h3.91Zm-4.91,0c-.03-.33-.04-.66-.04-1s.01-.67,.04-1h-1.94c-.07,.32-.1,.66-.1,1s.03,.68,.1,1h1.94Zm-1.62,1h1.76c.18,1.03,.5,1.94,.91,2.62-1.19-.5-2.15-1.44-2.67-2.62h0Zm2.77,0h3.62c-.14,.69-.34,1.31-.58,1.8-.49,.98-.98,1.2-1.23,1.2s-.74-.23-1.23-1.2c-.24-.49-.45-1.1-.59-1.8h0Zm6.4-4h-1.76c-.18-1.03-.5-1.94-.92-2.62,1.19,.49,2.15,1.44,2.67,2.62h0Zm-5.81-1.79c-.24,.49-.45,1.1-.59,1.79h3.62c-.14-.69-.34-1.31-.58-1.79-.49-.98-.98-1.21-1.23-1.21s-.74,.22-1.23,1.21h0Zm-.69-.83c-.41,.69-.73,1.59-.91,2.62h-1.76c.52-1.18,1.48-2.13,2.67-2.62h0Zm7.15,7.56c-1.03,1.83-2.99,3.06-5.23,3.06s-4.2-1.23-5.23-3.06l-1.77,1.77v1.29h-1v-1.5c0-.13,.05-.26,.15-.35l2.18-2.18c-.21-.61-.33-1.28-.33-1.96C4,2.69,6.69,0,10,0s6,2.69,6,6c0,.69-.12,1.35-.33,1.96l2.18,2.18c.09,.09,.15,.22,.15,.35v1.5h-1v-1.29l-1.77-1.77h0ZM5,14.5c0-.28-.22-.5-.5-.5H1.5c-.28,0-.5,.22-.5,.5v2c0,.28,.22,.5,.5,.5h3c.28,0,.5-.22,.5-.5v-2h0Zm-3.5-1.5c-.83,0-1.5,.67-1.5,1.5v2c0,.83,.67,1.5,1.5,1.5h3c.83,0,1.5-.67,1.5-1.5v-2c0-.83-.67-1.5-1.5-1.5H1.5Zm10.5,1.5c0-.28-.22-.5-.5-.5h-3c-.28,0-.5,.22-.5,.5v2c0,.28,.22,.5,.5,.5h3c.28,0,.5-.22,.5-.5v-2h0Zm-3.5-1.5c-.83,0-1.5,.67-1.5,1.5v2c0,.83,.67,1.5,1.5,1.5h3c.83,0,1.5-.67,1.5-1.5v-2c0-.83-.67-1.5-1.5-1.5h-3Zm10.5,1.5c0-.28-.22-.5-.5-.5h-3c-.28,0-.5,.22-.5,.5v2c0,.28,.22,.5,.5,.5h3c.28,0,.5-.22,.5-.5v-2h0Zm-3.5-1.5c-.83,0-1.5,.67-1.5,1.5v2c0,.83,.67,1.5,1.5,1.5h3c.83,0,1.5-.67,1.5-1.5v-2c0-.83-.67-1.5-1.5-1.5h-3ZM1.5,19c-.28,0-.5,.22-.5,.5s.22,.5,.5,.5h3c.28,0,.5-.22,.5-.5s-.22-.5-.5-.5H1.5Zm6.5,.5c0-.28,.22-.5,.5-.5h3c.28,0,.5,.22,.5,.5s-.22,.5-.5,.5h-3c-.28,0-.5-.22-.5-.5h0Zm7.5-.5c-.28,0-.5,.22-.5,.5s.22,.5,.5,.5h3c.28,0,.5-.22,.5-.5s-.22-.5-.5-.5h-3Z"/>
</svg>