<?xml version="1.0" encoding="UTF-8"?>
<svg id="icon" xmlns="http://www.w3.org/2000/svg" viewBox="0 0 864 864">
  <g id="Layer_1_copy" data-name="Layer 1 copy">
    <path d="M432,144c-159.06,0-288,128.94-288,288s128.94,288,288,288,288-128.94,288-288-128.94-288-288-288ZM550.79,491.15l-101.82,101.82s0,0,0,0c-.56.56-1.15,1.1-1.77,1.6-.05.04-.11.08-.16.12-.56.45-1.14.88-1.74,1.28-.08.06-.17.11-.25.16-.58.37-1.17.73-1.78,1.05-.09.05-.18.09-.27.14-.61.32-1.23.61-1.87.87-.08.03-.15.06-.23.09-.65.26-1.32.49-1.99.7-.06.02-.11.03-.17.05-.69.2-1.38.37-2.09.51-.05,0-.09.02-.14.02-.71.13-1.43.24-2.16.31-.04,0-.08,0-.12,0-.73.07-1.47.11-2.22.11s-1.49-.04-2.22-.11c-.04,0-.08,0-.12,0-.73-.07-1.45-.18-2.16-.31-.05,0-.09-.02-.14-.02-.71-.14-1.41-.31-2.09-.51-.06-.02-.11-.03-.17-.05-.68-.2-1.34-.44-1.99-.7-.08-.03-.15-.06-.23-.09-.64-.26-1.26-.55-1.87-.87-.09-.05-.18-.09-.27-.14-.61-.32-1.2-.68-1.78-1.05-.08-.05-.17-.11-.25-.16-.6-.4-1.18-.83-1.74-1.28-.05-.04-.11-.08-.16-.12-.62-.5-1.21-1.04-1.77-1.6,0,0,0,0,0,0l-101.82-101.82c-4.69-4.69-7.03-10.83-7.03-16.97s2.34-12.28,7.03-16.97c9.37-9.37,24.57-9.37,33.94,0l60.85,60.85v-230.06c0-13.25,10.75-24,24-24s24,10.75,24,24v230.06l60.85-60.85c9.37-9.37,24.57-9.37,33.94,0,4.69,4.69,7.03,10.83,7.03,16.97s-2.34,12.28-7.03,16.97Z" style="stroke-width: 0px;"/>
  </g>
</svg>