<?xml version="1.0" encoding="UTF-8"?>
<svg id="icon" xmlns="http://www.w3.org/2000/svg" viewBox="0 0 864 864">
  <g id="Layer_1_copy" data-name="Layer 1 copy">
    <path d="M432,720c159.06,0,288-128.94,288-288s-128.94-288-288-288S144,272.94,144,432s128.94,288,288,288ZM306.18,330.18c0-.75.04-1.48.11-2.21,0-.04,0-.08,0-.12.07-.73.18-1.45.31-2.16,0-.05.02-.09.03-.14.14-.71.31-1.41.51-2.09.02-.06.03-.12.05-.17.2-.68.44-1.34.7-1.99.03-.08.06-.16.09-.23.26-.64.55-1.26.87-1.87.05-.09.09-.18.14-.28.32-.61.67-1.2,1.05-1.77.06-.09.11-.17.17-.26.4-.6.83-1.18,1.28-1.74.04-.05.08-.11.13-.16.5-.62,1.04-1.21,1.6-1.77,0,0,0,0,0,0s0,0,0,0c.56-.56,1.15-1.1,1.77-1.6.05-.04.11-.08.16-.12.56-.45,1.14-.88,1.75-1.28.08-.05.17-.11.25-.16.58-.38,1.17-.73,1.78-1.05.09-.05.18-.09.27-.14.61-.32,1.24-.61,1.88-.87.07-.03.15-.06.22-.09.65-.26,1.32-.5,2-.7.05-.02.11-.03.16-.05.69-.2,1.39-.37,2.11-.51.04,0,.08-.01.13-.02.71-.14,1.44-.24,2.17-.31.04,0,.07,0,.11,0,.73-.07,1.47-.11,2.22-.11h144c13.25,0,24,10.75,24,24s-10.75,24-24,24h-86.06l162.68,162.68c4.69,4.69,7.03,10.83,7.03,16.97s-2.34,12.28-7.03,16.97c-4.69,4.69-10.83,7.03-16.97,7.03s-12.28-2.34-16.97-7.03l-162.68-162.68v86.06c0,13.25-10.75,24-24,24s-24-10.75-24-24v-144Z" style="stroke-width: 0px;"/>
  </g>
</svg>