<?xml version="1.0" encoding="UTF-8"?>
<svg id="icon" xmlns="http://www.w3.org/2000/svg" viewBox="0 0 864 864">
  <g id="Layer_1_copy" data-name="Layer 1 copy">
    <path d="M408,638.06l-60.85-60.85c-9.37-9.37-24.57-9.37-33.94,0-4.69,4.69-7.03,10.83-7.03,16.97s2.34,12.28,7.03,16.97l101.82,101.82c4.69,4.69,10.83,7.03,16.97,7.03s12.28-2.34,16.97-7.03l101.82-101.82c4.69-4.69,7.03-10.83,7.03-16.97s-2.34-12.28-7.03-16.97c-9.37-9.37-24.57-9.37-33.94,0l-60.85,60.85v-38.06c0-13.25-10.75-24-24-24s-24,10.75-24,24v38.06Z" style="stroke-width: 0px;"/>
    <path d="M408,504c0,13.25,10.75,24,24,24s24-10.75,24-24v-48c0-13.25-10.75-24-24-24s-24,10.75-24,24v48Z" style="stroke-width: 0px;"/>
    <path d="M408,360c0,13.25,10.75,24,24,24s24-10.75,24-24v-48c0-13.25-10.75-24-24-24s-24,10.75-24,24v48Z" style="stroke-width: 0px;"/>
    <path d="M432,240c13.25,0,24-10.75,24-24v-48c0-13.25-10.75-24-24-24s-24,10.75-24,24v48c0,13.25,10.75,24,24,24Z" style="stroke-width: 0px;"/>
  </g>
</svg>