<?xml version="1.0" encoding="UTF-8"?>
<svg id="icon" xmlns="http://www.w3.org/2000/svg" viewBox="0 0 864 864">
  <g id="Layer_1_copy" data-name="Layer 1 copy">
    <path d="M439.62,234.16l-71.25-71.25c-7.03-7.03-18.43-7.03-25.46,0-3.51,3.51-5.27,8.12-5.27,12.73s1.76,9.21,5.27,12.73l49.6,49.6c-90.32,18.36-158.51,98.38-158.51,194.04,0,109.18,88.82,198,198,198s198-88.82,198-198-84.72-193.82-190.38-197.84ZM432,594c-89.33,0-162-72.67-162-162,0-71.14,46.09-131.71,109.98-153.43l-37.07,37.07c-3.51,3.51-5.27,8.12-5.27,12.73s1.76,9.21,5.27,12.73,8.12,5.27,12.73,5.27,9.21-1.76,12.73-5.27l70.92-70.92c85.96,3.82,154.72,74.94,154.72,161.83s-72.67,162-162,162Z" style="stroke-width: 0px;"/>
  </g>
</svg>