<?xml version="1.0" encoding="UTF-8"?>
<svg id="icon" xmlns="http://www.w3.org/2000/svg" viewBox="0 0 864 864">
  <g id="Layer_1_copy" data-name="Layer 1 copy">
    <path d="M221.44,621.01c.07.73.18,1.45.31,2.16,0,.05.02.09.03.14.14.71.31,1.41.51,2.09.02.06.03.12.05.17.2.68.44,1.34.7,1.99.03.08.06.16.09.23.26.64.55,1.26.87,1.87.05.09.09.18.14.28.32.61.67,1.2,1.05,1.77.06.09.11.17.17.26.4.6.83,1.18,1.28,1.74.04.05.08.11.13.16.5.62,1.04,1.21,1.6,1.77,0,0,0,0,0,0s0,0,0,0c.56.56,1.15,1.1,1.77,1.6.05.04.11.08.16.12.56.45,1.14.88,1.74,1.28.08.06.17.11.26.16.58.37,1.17.72,1.77,1.05.09.05.18.09.27.14.61.31,1.23.61,1.87.87.08.03.15.06.23.09.65.26,1.31.49,1.99.7.06.02.12.03.17.05.69.2,1.38.37,2.09.51.05,0,.09.02.14.02.71.13,1.43.24,2.16.31.04,0,.08,0,.12,0,.73.07,1.47.11,2.21.11h144c13.25,0,24-10.75,24-24s-10.75-24-24-24h-86.06l332.38-332.38c4.69-4.69,7.03-10.83,7.03-16.97s-2.34-12.28-7.03-16.97c-9.37-9.37-24.57-9.37-33.94,0l-332.38,332.38v-86.06c0-13.25-10.75-24-24-24s-24,10.75-24,24v144c0,.75.04,1.48.11,2.21,0,.04,0,.08,0,.12Z" style="stroke-width: 0px;"/>
  </g>
</svg>