<?xml version="1.0" encoding="UTF-8"?>
<svg id="icon" xmlns="http://www.w3.org/2000/svg" viewBox="0 0 864 864">
  <g id="Layer_1_copy" data-name="Layer 1 copy">
    <path d="M719.89,429.66c-.07-.73-.18-1.45-.31-2.16,0-.05-.02-.09-.02-.14-.14-.71-.31-1.41-.51-2.1-.02-.06-.03-.11-.05-.17-.2-.68-.44-1.34-.7-2-.03-.08-.06-.15-.09-.23-.26-.64-.56-1.27-.87-1.88-.05-.09-.09-.18-.14-.26-.33-.61-.68-1.21-1.05-1.78-.05-.08-.1-.16-.16-.24-.4-.6-.83-1.19-1.29-1.75-.04-.05-.08-.1-.12-.15-.51-.62-1.05-1.22-1.61-1.78l-254.55-254.55c-9.37-9.37-24.57-9.37-33.94,0-4.69,4.69-7.03,10.83-7.03,16.97s2.34,12.28,7.03,16.97l213.59,213.59H168c-13.25,0-24,10.75-24,24s10.75,24,24,24h470.06l-213.59,213.59c-4.69,4.69-7.03,10.83-7.03,16.97s2.34,12.28,7.03,16.97c4.69,4.69,10.83,7.03,16.97,7.03s12.28-2.34,16.97-7.03l254.55-254.55c.57-.57,1.1-1.16,1.61-1.78.04-.05.08-.1.12-.15.45-.56.89-1.15,1.29-1.75.05-.08.1-.16.16-.24.38-.58.73-1.17,1.05-1.78.05-.09.09-.18.14-.26.32-.61.61-1.24.87-1.88.03-.07.06-.15.09-.23.26-.65.5-1.32.7-2,.02-.06.03-.11.05-.17.2-.69.37-1.39.51-2.1,0-.05.02-.09.02-.14.13-.71.24-1.43.31-2.16,0-.04,0-.08,0-.12.07-.73.11-1.47.11-2.22s-.04-1.49-.11-2.22c0-.04,0-.08,0-.12Z" style="stroke-width: 0px;"/>
  </g>
</svg>