<?xml version="1.0" encoding="UTF-8"?>
<svg id="icon" xmlns="http://www.w3.org/2000/svg" viewBox="0 0 864 864">
  <g id="Layer_1_copy" data-name="Layer 1 copy">
    <path d="M372.85,334.79c4.69,4.69,10.83,7.03,16.97,7.03s12.28-2.34,16.97-7.03,7.03-10.83,7.03-16.97-2.34-12.28-7.03-16.97l-101.82-101.82s0,0,0,0c0,0,0,0,0,0-.56-.56-1.15-1.09-1.76-1.59-.05-.04-.11-.09-.17-.13-.56-.45-1.14-.88-1.73-1.27-.09-.06-.18-.11-.27-.17-.57-.37-1.16-.72-1.76-1.04-.09-.05-.19-.1-.28-.15-.61-.31-1.22-.6-1.86-.86-.08-.03-.16-.06-.24-.1-.65-.26-1.31-.49-1.98-.69-.06-.02-.13-.04-.19-.05-.68-.2-1.37-.37-2.08-.51-.05-.01-.11-.02-.16-.03-.7-.13-1.41-.24-2.14-.31-.05,0-.1,0-.14-.01-.72-.07-1.44-.1-2.18-.1,0,0-.01,0-.02,0s-.01,0-.02,0c-.73,0-1.46.04-2.18.1-.05,0-.1,0-.14.01-.72.07-1.43.18-2.14.31-.05,0-.11.02-.16.03-.7.14-1.4.31-2.08.51-.06.02-.12.03-.19.05-.67.2-1.33.43-1.98.69-.05.02-.1.03-.15.05-.03.01-.06.03-.09.04-.64.26-1.26.55-1.86.87-.06.03-.12.05-.17.08-.04.02-.07.04-.11.06-.61.32-1.2.67-1.77,1.05-.09.06-.17.11-.26.17-.6.4-1.18.83-1.74,1.28-.05.04-.1.08-.16.12-.62.51-1.21,1.04-1.78,1.6h0s0,0,0,0l-101.82,101.82c-4.69,4.69-7.03,10.83-7.03,16.97s2.34,12.28,7.03,16.97c4.69,4.69,10.83,7.03,16.97,7.03s12.28-2.34,16.97-7.03l60.85-60.85v302.06s0,.01,0,.02c.01,52.93,43.07,95.98,96,95.98h312c13.25,0,24-10.75,24-24s-10.75-24-24-24h-312c-26.47,0-48-21.53-48-48,0,0,0,0,0,0v-302.05l60.85,60.85Z" style="stroke-width: 0px;"/>
  </g>
</svg>