<?xml version="1.0" encoding="UTF-8"?>
<svg id="icon" xmlns="http://www.w3.org/2000/svg" viewBox="0 0 864 864">
  <g id="Layer_1_copy" data-name="Layer 1 copy">
    <path d="M669.27,234h-294.55c-27.97,0-50.73,22.76-50.73,50.73v103.64h36v-103.64c0-8.12,6.61-14.73,14.73-14.73h294.55c8.12,0,14.73,6.61,14.73,14.73v294.54c0,8.12-6.61,14.73-14.73,14.73h-294.55c-8.12,0-14.73-6.61-14.73-14.73v-103.64h-36v103.64c0,27.97,22.76,50.73,50.73,50.73h294.55c27.97,0,50.73-22.76,50.73-50.73v-294.54c0-27.97-22.76-50.73-50.73-50.73Z" style="stroke-width: 0px;"/>
    <path d="M150.35,435.52c.06.3.14.6.22.9.07.27.13.54.21.81.09.29.2.58.3.86.1.27.18.54.29.8.11.27.24.53.37.79.13.27.25.54.39.81.14.25.29.5.44.74.15.26.3.52.47.77.18.28.39.54.59.8.15.2.29.41.46.61.38.46.78.9,1.2,1.33l101.82,101.82c3.51,3.51,8.12,5.27,12.73,5.27s9.21-1.76,12.73-5.27c3.51-3.51,5.27-8.12,5.27-12.73s-1.76-9.21-5.27-12.73l-71.1-71.1h304.54c9.94,0,18-8.06,18-18s-8.06-18-18-18H211.46l71.1-71.1c3.51-3.51,5.27-8.12,5.27-12.73s-1.76-9.21-5.27-12.73c-7.03-7.03-18.43-7.03-25.46,0l-101.82,101.82c-.42.42-.82.86-1.2,1.33-.16.2-.31.41-.46.61-.2.26-.4.52-.59.8-.17.25-.31.51-.47.77-.15.25-.3.49-.44.74-.14.26-.26.54-.39.81-.12.26-.25.52-.37.79-.11.26-.2.53-.29.8-.1.29-.21.57-.3.86-.08.27-.14.54-.21.81-.08.3-.16.59-.22.9-.06.31-.1.63-.14.95-.04.27-.09.53-.11.79-.06.59-.09,1.18-.09,1.78s.03,1.19.09,1.78c.03.27.08.53.11.79.05.32.08.63.14.95Z" style="stroke-width: 0px;"/>
  </g>
</svg>