<?xml version="1.0" encoding="UTF-8"?>
<svg id="icon" xmlns="http://www.w3.org/2000/svg" viewBox="0 0 864 864">
  <g id="Layer_1_copy" data-name="Layer 1 copy">
    <path d="M559.28,541.28h-108c-9.94,0-18,8.06-18,18s8.06,18,18,18h52.57c-22.06,10.93-46.51,16.72-71.85,16.72-89.33,0-162-72.67-162-162s72.67-162,162-162v-36c-109.18,0-198,88.82-198,198s88.82,198,198,198c39.46,0,77.15-11.47,109.28-32.82v70.1c0,9.94,8.06,18,18,18s18-8.06,18-18v-108c0-9.94-8.06-18-18-18Z" style="stroke-width: 0px;"/>
  </g>
</svg>