<?xml version="1.0" encoding="UTF-8"?>
<svg id="icon" xmlns="http://www.w3.org/2000/svg" viewBox="0 0 864 864">
  <g id="Layer_1_copy" data-name="Layer 1 copy">
    <path d="M606,408h-347.99s-.02,0-.03,0c-.73,0-1.46.04-2.18.1-.05,0-.1,0-.14.01-.72.07-1.43.18-2.14.31-.05,0-.11.02-.16.03-.7.14-1.4.31-2.08.51-.06.02-.12.03-.19.05-.67.2-1.33.43-1.98.69-.08.03-.16.06-.24.1-.64.26-1.26.55-1.86.86-.09.05-.19.09-.28.14-.61.32-1.19.67-1.77,1.04-.09.06-.17.11-.26.17-.6.4-1.18.83-1.74,1.28-.05.04-.11.08-.16.13-.62.5-1.21,1.04-1.77,1.6,0,0,0,0,0,0s0,0,0,0c-.56.56-1.1,1.15-1.6,1.77-.04.05-.08.11-.12.16-.45.56-.88,1.14-1.28,1.75-.06.08-.11.17-.16.25-.37.58-.73,1.17-1.05,1.78-.05.09-.09.18-.14.27-.32.61-.61,1.23-.87,1.87-.03.08-.06.15-.09.23-.26.65-.49,1.32-.7,1.99-.02.06-.03.11-.05.17-.2.69-.37,1.38-.51,2.09,0,.05-.02.09-.02.14-.13.71-.24,1.43-.31,2.16,0,.04,0,.08,0,.12-.07.73-.11,1.47-.11,2.22s.04,1.49.11,2.22c0,.04,0,.08,0,.12.07.73.18,1.45.31,2.16,0,.05.02.09.02.14.14.71.31,1.41.51,2.09.02.06.03.11.05.17.2.68.44,1.34.7,1.99.03.08.06.15.09.23.26.64.55,1.26.87,1.87.05.09.09.18.14.27.32.61.68,1.2,1.05,1.78.05.08.11.17.16.25.4.6.83,1.18,1.28,1.75.04.05.08.11.12.16.5.62,1.04,1.21,1.6,1.77,0,0,0,0,0,0l101.82,101.82c4.69,4.69,10.83,7.03,16.97,7.03s12.28-2.34,16.97-7.03c4.69-4.69,7.03-10.83,7.03-16.97s-2.34-12.28-7.03-16.97l-60.85-60.85h290.06c13.25,0,24-10.75,24-24s-10.75-24-24-24Z" style="stroke-width: 0px;"/>
  </g>
</svg>