<?xml version="1.0" encoding="UTF-8"?>
<svg id="icon" xmlns="http://www.w3.org/2000/svg" viewBox="0 0 864 864">
  <g id="Layer_1_copy" data-name="Layer 1 copy">
    <path d="M641.06,241.03s0,0,0,0c-.56-.56-1.15-1.09-1.76-1.59-.02-.01-.03-.03-.05-.05-.04-.03-.08-.06-.12-.09-.56-.45-1.13-.87-1.73-1.27-.03-.02-.06-.05-.09-.07-.06-.04-.12-.07-.18-.11-.57-.37-1.16-.72-1.76-1.04-.04-.02-.07-.04-.11-.06-.06-.03-.12-.06-.19-.09-.6-.31-1.22-.6-1.85-.86-.03-.01-.06-.03-.09-.04-.05-.02-.11-.04-.16-.06-.64-.26-1.3-.49-1.97-.69-.02,0-.04-.02-.07-.02-.04-.01-.09-.02-.13-.03-.68-.2-1.37-.37-2.07-.51-.02,0-.03,0-.04-.01-.04,0-.08-.01-.12-.02-.7-.13-1.41-.24-2.13-.31,0,0-.02,0-.03,0-.04,0-.08,0-.12,0-.71-.06-1.43-.1-2.16-.1,0,0-.01,0-.02,0h-.04c-.73,0-1.45.04-2.17.1-.03,0-.06,0-.09,0-.02,0-.04,0-.06,0-.72.07-1.43.18-2.13.31-.03,0-.06,0-.09.01-.02,0-.05.01-.07.02-.7.14-1.39.31-2.07.5-.04.01-.07.02-.11.03-.03,0-.06.02-.09.03-.67.2-1.33.43-1.97.69-.05.02-.1.03-.14.05-.04.01-.07.03-.11.05-.63.26-1.25.55-1.85.86-.06.03-.12.05-.17.08-.04.02-.08.05-.12.07-.6.32-1.18.67-1.75,1.04-.06.04-.12.07-.17.1-.04.02-.07.05-.1.07-.59.39-1.16.82-1.72,1.26-.04.03-.08.06-.12.09-.02.02-.04.03-.06.05-.61.5-1.19,1.02-1.74,1.57,0,0-.01.01-.02.02l-79.13,78.99-79.13-78.99s-.01-.01-.02-.02c-.55-.55-1.13-1.07-1.73-1.57-.02-.02-.04-.04-.06-.05-.04-.03-.09-.06-.13-.1-.55-.44-1.12-.86-1.71-1.26-.03-.02-.07-.05-.1-.07-.06-.04-.12-.07-.18-.11-.57-.37-1.15-.71-1.75-1.03-.04-.02-.08-.05-.12-.07-.06-.03-.12-.06-.18-.09-.6-.31-1.22-.6-1.84-.86-.03-.01-.07-.03-.1-.05-.05-.02-.1-.04-.16-.06-.64-.26-1.3-.49-1.97-.69-.02,0-.05-.02-.07-.02-.04-.01-.08-.02-.12-.03-.68-.2-1.37-.37-2.07-.5-.02,0-.04,0-.05-.01-.04,0-.07-.01-.11-.02-.7-.13-1.41-.24-2.13-.31-.01,0-.03,0-.04,0-.04,0-.07,0-.11,0-.72-.06-1.45-.1-2.19-.1,0,0-.01,0-.02,0s-.01,0-.02,0c-.74,0-1.47.04-2.19.11-.03,0-.05,0-.08,0-.01,0-.03,0-.04,0-.73.07-1.45.18-2.16.31-.03,0-.05,0-.08.01-.02,0-.04,0-.06.01-.71.14-1.41.31-2.09.51-.03,0-.06.02-.1.02-.03,0-.05.02-.08.02-.68.2-1.34.44-1.99.7-.04.02-.09.03-.13.05-.03.01-.07.03-.1.04-.64.26-1.26.55-1.87.87-.05.03-.11.05-.16.08-.04.02-.08.04-.11.06-.61.32-1.2.67-1.77,1.05-.05.03-.11.06-.16.1-.03.02-.07.05-.1.07-.6.4-1.17.82-1.73,1.27-.04.03-.08.06-.12.09-.02.02-.04.03-.06.05-.61.5-1.19,1.02-1.75,1.58,0,0,0,0-.01.01l-79,78.93-79.08-78.94s-.01-.01-.02-.02c-.55-.55-1.13-1.07-1.74-1.57-.02-.02-.04-.04-.06-.05-.04-.03-.08-.06-.12-.09-.55-.44-1.12-.87-1.72-1.26-.04-.02-.07-.05-.1-.07-.06-.04-.12-.07-.18-.1-.57-.37-1.15-.71-1.75-1.03-.04-.02-.08-.05-.12-.07-.06-.03-.12-.05-.18-.08-.6-.31-1.22-.6-1.85-.86-.04-.01-.07-.03-.1-.05-.05-.02-.1-.03-.15-.05-.64-.26-1.3-.49-1.97-.69-.03,0-.05-.02-.08-.03-.04-.01-.08-.02-.12-.03-.68-.2-1.37-.37-2.07-.51-.02,0-.04,0-.06-.01-.03,0-.07,0-.1-.02-.7-.13-1.41-.24-2.14-.31-.01,0-.03,0-.04,0-.03,0-.07,0-.1,0-.72-.06-1.45-.1-2.19-.1,0,0-.01,0-.02,0s-.01,0-.02,0c-.74,0-1.47.04-2.19.11-.03,0-.06,0-.09,0-.01,0-.02,0-.04,0-.73.07-1.45.18-2.16.31-.03,0-.06,0-.09.01-.02,0-.03,0-.05.01-.71.14-1.41.31-2.09.51-.04.01-.07.02-.11.03-.02,0-.04.02-.07.02-.68.2-1.34.44-1.99.7-.05.02-.1.03-.14.05-.03.01-.06.03-.09.04-.64.26-1.26.55-1.87.87-.06.03-.12.05-.17.08-.04.02-.07.04-.1.06-.61.32-1.2.67-1.77,1.05-.06.04-.12.07-.17.1-.03.02-.06.04-.09.06-.6.4-1.18.83-1.73,1.28-.04.03-.08.06-.12.09-.02.01-.03.03-.05.04-.61.5-1.2,1.03-1.76,1.59,0,0,0,0,0,0l-101.82,101.82c-4.69,4.69-7.03,10.83-7.03,16.97s2.34,12.28,7.03,16.97,10.83,7.03,16.97,7.03,12.29-2.34,16.97-7.03l60.85-60.85v290.06c0,13.25,10.75,24,24,24s24-10.75,24-24v-290.13l54.22,54.12c.27.3.52.6.8.89,4.69,4.69,10.83,7.04,16.98,7.04.01,0,.03,0,.04,0s.03,0,.04,0c6.15,0,12.3-2.35,16.99-7.04.29-.29.54-.59.8-.89l54.12-54.07v290.1c0,13.25,10.75,24,24,24s24-10.75,24-24v-290.13l55.13,55.03c.3.3.62.56.94.85.29.26.57.54.87.79.33.27.68.5,1.02.75.31.22.6.47.92.67.38.25.78.46,1.17.69.29.17.58.36.88.52.43.23.88.42,1.33.62.27.12.53.26.8.37.49.2.99.36,1.49.52.24.08.47.18.71.25.53.16,1.07.27,1.61.39.21.05.42.11.64.15.58.11,1.16.18,1.74.25.18.02.36.06.54.08.76.07,1.53.11,2.3.11s1.54-.04,2.3-.11c.22-.02.43-.07.65-.09.55-.07,1.09-.13,1.64-.24.2-.04.4-.1.6-.15.55-.12,1.1-.24,1.65-.4.22-.06.43-.15.65-.23.52-.17,1.04-.34,1.55-.54.23-.09.45-.21.67-.31.49-.22.98-.43,1.46-.68.25-.13.5-.3.74-.44.44-.25.88-.49,1.3-.77.27-.18.53-.39.79-.58.38-.28.78-.54,1.15-.85.28-.23.55-.49.82-.74.33-.3.67-.57.99-.89l55.13-55.03v290.13c0,13.25,10.75,24,24,24s24-10.75,24-24v-290.06l60.85,60.85c4.69,4.69,10.83,7.03,16.97,7.03s12.28-2.34,16.97-7.03,7.03-10.83,7.03-16.97-2.34-12.28-7.03-16.97l-101.82-101.82Z" style="stroke-width: 0px;"/>
  </g>
</svg>