<?xml version="1.0" encoding="UTF-8"?>
<svg id="icon" xmlns="http://www.w3.org/2000/svg" viewBox="0 0 864 864">
  <g id="Layer_1_copy" data-name="Layer 1 copy">
    <path d="M432,144c-159.06,0-288,128.94-288,288s128.94,288,288,288,288-128.94,288-288-128.94-288-288-288ZM684,432c0,34.04-6.66,67.03-19.79,98.08-12.69,30-30.87,56.96-54.02,80.11-23.15,23.16-50.11,41.33-80.11,54.02-31.04,13.13-64.04,19.79-98.08,19.79s-67.03-6.66-98.08-19.79c-30-12.69-56.96-30.87-80.11-54.02-23.15-23.15-41.33-50.11-54.02-80.11-13.13-31.04-19.79-64.04-19.79-98.08s6.66-67.03,19.79-98.08c12.69-30,30.87-56.96,54.02-80.11s50.11-41.33,80.11-54.02c31.04-13.13,64.04-19.79,98.08-19.79s67.03,6.66,98.08,19.79c30,12.69,56.96,30.87,80.11,54.02s41.33,50.11,54.02,80.11c13.13,31.04,19.79,64.04,19.79,98.08Z" style="stroke-width: 0px;"/>
    <path d="M448.97,271.03s0,0,0,0c0,0,0,0,0,0-.56-.56-1.16-1.1-1.77-1.6-.05-.04-.1-.08-.16-.12-.56-.45-1.14-.88-1.75-1.28-.03-.02-.06-.04-.09-.06-.05-.03-.11-.06-.16-.1-.58-.38-1.17-.73-1.78-1.05-.03-.02-.07-.04-.1-.06-.05-.03-.11-.05-.17-.08-.61-.32-1.24-.61-1.88-.87-.07-.03-.15-.06-.22-.09-.65-.26-1.32-.5-2-.7-.02,0-.04-.02-.06-.02-.03-.01-.07-.01-.1-.02-.69-.2-1.39-.37-2.1-.51-.01,0-.03,0-.04-.01-.03,0-.06,0-.08-.01-.71-.14-1.43-.24-2.17-.31-.04,0-.07,0-.11,0-.73-.07-1.47-.11-2.22-.11s-1.49.04-2.22.11c-.04,0-.07,0-.11,0-.73.07-1.46.18-2.17.31-.03,0-.06,0-.08.01-.01,0-.03,0-.04.01-.71.14-1.42.31-2.1.51-.03,0-.07.01-.1.02-.02,0-.04.02-.06.02-.68.2-1.35.44-2,.7-.07.03-.15.06-.22.09-.64.26-1.27.56-1.88.87-.05.03-.11.05-.17.08-.03.02-.07.04-.1.06-.61.33-1.2.68-1.78,1.05-.05.03-.11.06-.16.1-.03.02-.06.04-.09.06-.6.4-1.18.83-1.75,1.28-.05.04-.1.08-.16.12-.62.51-1.21,1.04-1.77,1.6,0,0,0,0,0,0,0,0,0,0,0,0l-101.82,101.82c-4.69,4.69-7.03,10.83-7.03,16.97s2.34,12.28,7.03,16.97c4.69,4.69,10.83,7.03,16.97,7.03s12.28-2.34,16.97-7.03l60.85-60.85v230.06c0,13.25,10.75,24,24,24s24-10.75,24-24v-230.06l60.85,60.85c4.69,4.69,10.83,7.03,16.97,7.03s12.28-2.34,16.97-7.03c4.69-4.69,7.03-10.83,7.03-16.97,0-6.14-2.34-12.28-7.03-16.97l-101.82-101.82Z" style="stroke-width: 0px;"/>
  </g>
</svg>