<?xml version="1.0" encoding="UTF-8"?>
<svg id="icon" xmlns="http://www.w3.org/2000/svg" viewBox="0 0 864 864">
  <g id="Layer_1_copy" data-name="Layer 1 copy">
    <path d="M516.85,376.79c4.69,4.69,10.83,7.03,16.97,7.03s12.28-2.34,16.97-7.03,7.03-10.83,7.03-16.97-2.34-12.28-7.03-16.97l-101.82-101.82s0,0,0,0c-.56-.56-1.16-1.1-1.77-1.6-.05-.04-.11-.08-.16-.12-.56-.45-1.14-.88-1.74-1.28-.09-.06-.17-.11-.26-.17-.57-.37-1.16-.72-1.77-1.05-.09-.05-.19-.1-.28-.14-.61-.31-1.23-.6-1.86-.86-.08-.03-.16-.06-.24-.1-.65-.26-1.31-.49-1.98-.69-.06-.02-.12-.04-.19-.05-.68-.2-1.37-.37-2.08-.51-.05-.01-.11-.02-.16-.03-.7-.13-1.41-.24-2.14-.31-.05,0-.1,0-.14-.01-.72-.06-1.44-.1-2.18-.1h-.04c-.73,0-1.46.04-2.18.1-.05,0-.1,0-.14.01-.72.07-1.43.18-2.14.31-.05,0-.11.02-.16.03-.7.14-1.4.31-2.08.51-.06.02-.12.03-.19.05-.67.2-1.33.43-1.98.69-.08.03-.16.06-.24.1-.64.26-1.26.55-1.86.86-.09.05-.19.09-.28.14-.61.32-1.2.67-1.77,1.05-.09.06-.17.11-.26.17-.6.4-1.18.83-1.74,1.28-.05.04-.11.08-.16.12-.62.51-1.21,1.04-1.77,1.6,0,0,0,0,0,0l-101.82,101.82c-4.69,4.69-7.03,10.83-7.03,16.97,0,6.14,2.34,12.28,7.03,16.97s10.83,7.03,16.97,7.03,12.28-2.34,16.97-7.03l60.85-60.85v70.12l-94.79,94.79c-4.69,4.69-7.03,10.83-7.03,16.97,0,6.14,2.34,12.28,7.03,16.97s10.83,7.03,16.97,7.03,12.28-2.34,16.97-7.03l60.85-60.85v152.06c0,13.25,10.75,24,24,24s24-10.75,24-24v-152.06l60.85,60.85c4.69,4.69,10.83,7.03,16.97,7.03s12.28-2.34,16.97-7.03,7.03-10.83,7.03-16.97-2.34-12.28-7.03-16.97l-94.79-94.79v-70.12l60.85,60.85Z" style="stroke-width: 0px;"/>
  </g>
</svg>