<?xml version="1.0" encoding="UTF-8"?>
<svg id="icon" xmlns="http://www.w3.org/2000/svg" viewBox="0 0 864 864">
  <g id="Layer_1_copy" data-name="Layer 1 copy">
    <path d="M552,576c0,26.47-21.53,48-48,48H192c-13.25,0-24,10.75-24,24s10.75,24,24,24h312c52.93,0,95.99-43.05,96-95.98,0,0,0-.01,0-.02v-302.06l60.85,60.85c4.69,4.69,10.83,7.03,16.97,7.03s12.28-2.34,16.97-7.03,7.03-10.83,7.03-16.97-2.34-12.28-7.03-16.97l-101.82-101.82s0,0,0,0h0c-.56-.56-1.16-1.1-1.78-1.61-.05-.04-.1-.08-.15-.12-.56-.45-1.14-.88-1.75-1.28-.03-.02-.06-.04-.09-.06-.05-.04-.11-.06-.17-.1-.58-.37-1.17-.73-1.78-1.05-.09-.05-.18-.09-.27-.14-.61-.31-1.23-.6-1.87-.87-.08-.03-.16-.06-.24-.09-.65-.26-1.31-.49-1.98-.69-.06-.02-.12-.03-.18-.05-.68-.2-1.38-.37-2.08-.51-.05-.01-.1-.02-.16-.03-.7-.13-1.42-.24-2.14-.31-.05,0-.09,0-.14-.01-.72-.07-1.44-.1-2.18-.1,0,0-.01,0-.02,0,0,0-.02,0-.02,0-.73,0-1.46.04-2.17.1-.05,0-.1,0-.15.01-.72.07-1.43.18-2.13.31-.05.01-.11.02-.16.03-.7.14-1.39.31-2.07.51-.06.02-.13.04-.19.06-.67.2-1.33.43-1.97.69-.08.03-.17.06-.25.1-.63.26-1.25.55-1.85.86-.1.05-.19.1-.29.15-.6.32-1.19.67-1.76,1.04-.06.04-.12.07-.17.1-.03.02-.06.05-.09.07-.6.4-1.17.82-1.73,1.27-.06.04-.11.09-.17.13-.61.5-1.2,1.03-1.76,1.59,0,0,0,0,0,0,0,0,0,0,0,0l-101.82,101.82c-4.69,4.69-7.03,10.83-7.03,16.97s2.34,12.28,7.03,16.97c4.69,4.69,10.83,7.03,16.97,7.03s12.28-2.34,16.97-7.03l60.85-60.85v302.05s0,0,0,0Z" style="stroke-width: 0px;"/>
  </g>
</svg>