<?xml version="1.0" encoding="UTF-8"?>
<svg id="icon" xmlns="http://www.w3.org/2000/svg" viewBox="0 0 864 864">
  <g id="Layer_1_copy" data-name="Layer 1 copy">
    <path d="M468.35,300.35c0-13.25-10.75-24-24-24h-143.99s-.02,0-.03,0c-.73,0-1.46.04-2.18.1-.05,0-.1,0-.14.01-.72.07-1.43.18-2.14.31-.05,0-.11.02-.16.03-.71.14-1.4.31-2.08.51-.06.02-.12.03-.19.05-.67.2-1.33.43-1.98.69-.08.03-.16.06-.24.1-.64.26-1.26.55-1.86.86-.09.05-.19.09-.28.14-.61.32-1.19.67-1.77,1.05-.09.06-.17.11-.26.17-.6.4-1.18.83-1.74,1.28-.05.04-.11.08-.16.13-.62.5-1.21,1.04-1.77,1.6,0,0,0,0,0,0s0,0,0,0c-.56.56-1.1,1.15-1.6,1.77-.04.05-.08.11-.13.16-.45.56-.88,1.14-1.28,1.74-.06.09-.11.17-.17.26-.37.57-.72,1.16-1.05,1.77-.05.09-.09.19-.14.28-.31.61-.6,1.23-.87,1.87-.03.08-.06.16-.09.24-.26.65-.49,1.31-.7,1.99-.02.06-.03.12-.05.18-.2.69-.37,1.38-.51,2.09,0,.05-.02.09-.03.14-.13.71-.24,1.43-.31,2.15,0,.04,0,.08,0,.12-.07.73-.11,1.47-.11,2.21v144c0,13.25,10.75,24,24,24s24-10.75,24-24v-86.06l162.68,162.68c4.69,4.69,10.83,7.03,16.97,7.03s12.28-2.34,16.97-7.03,7.03-10.83,7.03-16.97-2.34-12.28-7.03-16.97l-162.68-162.68h86.06c13.25,0,24-10.75,24-24Z" style="stroke-width: 0px;"/>
    <path d="M648,192c-13.25,0-24,10.75-24,24v408H216c-13.25,0-24,10.75-24,24s10.75,24,24,24h432c13.25,0,24-10.75,24-24V216c0-13.25-10.75-24-24-24Z" style="stroke-width: 0px;"/>
  </g>
</svg>