<?xml version="1.0" encoding="UTF-8"?>
<svg id="icon" xmlns="http://www.w3.org/2000/svg" viewBox="0 0 864 864">
  <g id="Layer_1_copy" data-name="Layer 1 copy">
    <path d="M630,489.27V194.73c0-27.97-22.76-50.73-50.73-50.73h-294.55c-27.97,0-50.73,22.76-50.73,50.73v294.54c0,27.97,22.76,50.73,50.73,50.73h103.64v-36h-103.64c-8.12,0-14.73-6.61-14.73-14.73V194.73c0-8.12,6.61-14.73,14.73-14.73h294.55c8.12,0,14.73,6.61,14.73,14.73v294.54c0,8.12-6.61,14.73-14.73,14.73h-103.64v36h103.64c27.97,0,50.73-22.76,50.73-50.73Z" style="stroke-width: 0px;"/>
    <path d="M432,330c-9.94,0-18,8.06-18,18v304.54l-71.1-71.1c-7.03-7.03-18.43-7.03-25.46,0-3.51,3.51-5.27,8.12-5.27,12.73s1.76,9.21,5.27,12.73l101.82,101.82c.42.42.86.82,1.33,1.2.2.17.42.31.62.47.26.2.52.4.79.58.26.17.52.32.78.48.24.14.48.3.73.43.27.14.55.27.82.4.26.12.51.25.77.36.27.11.54.2.82.3.28.1.56.21.85.3.27.08.55.14.82.21.29.07.58.16.88.22.32.06.64.1.96.15.26.04.52.09.78.11.59.06,1.18.09,1.78.09s1.19-.03,1.78-.09c.27-.03.53-.08.8-.12.31-.04.63-.08.94-.14.31-.06.6-.14.9-.22.27-.07.54-.13.8-.21.3-.09.58-.2.87-.3.26-.1.53-.18.79-.29.27-.11.53-.25.8-.37.27-.13.54-.24.8-.38.26-.14.5-.29.75-.44.25-.15.51-.3.76-.46.28-.19.54-.39.8-.59.2-.15.41-.29.61-.46.46-.38.91-.78,1.33-1.2l101.82-101.82c3.51-3.51,5.27-8.12,5.27-12.73s-1.76-9.21-5.27-12.73c-7.03-7.03-18.43-7.03-25.46,0l-71.1,71.1v-304.54c0-9.94-8.06-18-18-18Z" style="stroke-width: 0px;"/>
  </g>
</svg>