<?xml version="1.0" encoding="UTF-8"?>
<svg id="icon" xmlns="http://www.w3.org/2000/svg" viewBox="0 0 864 864">
  <g id="Layer_1_copy" data-name="Layer 1 copy">
    <path d="M330.18,383.82c6.14,0,12.28-2.34,16.97-7.03l60.85-60.85v290.06c0,13.25,10.75,24,24,24s24-10.75,24-24v-290.06l60.85,60.85c4.69,4.69,10.83,7.03,16.97,7.03s12.28-2.34,16.97-7.03c4.69-4.69,7.03-10.83,7.03-16.97s-2.34-12.28-7.03-16.97l-101.82-101.82s0,0,0,0c-.56-.56-1.15-1.1-1.77-1.6-.05-.04-.1-.08-.16-.12-.56-.45-1.14-.88-1.75-1.28-.08-.05-.17-.11-.25-.16-.58-.37-1.17-.73-1.78-1.05-.09-.05-.18-.09-.27-.14-.61-.32-1.24-.61-1.88-.87-.07-.03-.15-.06-.22-.09-.65-.26-1.32-.5-2-.7-.05-.02-.11-.03-.16-.05-.69-.2-1.39-.37-2.11-.51-.04,0-.08-.01-.13-.02-.71-.14-1.44-.24-2.17-.31-.04,0-.07,0-.11,0-.73-.07-1.47-.11-2.22-.11s-1.49.04-2.22.11c-.04,0-.07,0-.11,0-.73.07-1.46.18-2.17.31-.04,0-.08.01-.13.02-.71.14-1.42.31-2.11.51-.05.02-.11.03-.16.05-.68.2-1.35.44-2,.7-.07.03-.15.06-.22.09-.64.26-1.27.56-1.88.87-.09.05-.18.09-.27.14-.61.33-1.2.68-1.78,1.05-.08.05-.17.1-.25.16-.6.4-1.18.83-1.75,1.28-.05.04-.11.08-.16.12-.62.5-1.21,1.04-1.77,1.6,0,0,0,0,0,0l-101.82,101.82c-4.69,4.69-7.03,10.83-7.03,16.97s2.34,12.28,7.03,16.97c4.69,4.69,10.83,7.03,16.97,7.03Z" style="stroke-width: 0px;"/>
  </g>
</svg>