<?xml version="1.0" encoding="UTF-8"?>
<svg id="icon" xmlns="http://www.w3.org/2000/svg" viewBox="0 0 864 864">
  <g id="Layer_1_copy" data-name="Layer 1 copy">
    <path d="M330.18,293.82c6.14,0,12.28-2.34,16.97-7.03l60.85-60.85v470.06c0,13.25,10.75,24,24,24s24-10.75,24-24V225.94l60.85,60.85c4.69,4.69,10.83,7.03,16.97,7.03s12.28-2.34,16.97-7.03,7.03-10.83,7.03-16.97-2.34-12.28-7.03-16.97l-101.82-101.82s0,0,0,0c0,0,0,0,0,0-.56-.56-1.15-1.1-1.77-1.6-.05-.04-.11-.08-.16-.12-.56-.45-1.14-.88-1.74-1.28-.08-.06-.17-.11-.26-.16-.58-.37-1.17-.72-1.77-1.05-.09-.05-.18-.09-.27-.14-.61-.31-1.23-.61-1.87-.87-.03-.01-.06-.03-.09-.04-.05-.02-.09-.03-.14-.05-.65-.26-1.32-.49-1.99-.7-.06-.02-.11-.03-.17-.05-.69-.2-1.38-.37-2.09-.51-.05,0-.09-.02-.14-.02-.71-.13-1.43-.24-2.16-.31-.04,0-.08,0-.12,0-.73-.07-1.47-.11-2.21-.11s-1.49.04-2.22.11c-.04,0-.08,0-.12,0-.73.07-1.45.18-2.16.31-.04,0-.09.02-.13.02-.71.14-1.41.31-2.1.51-.06.02-.11.03-.17.05-.68.2-1.35.44-2,.7-.07.03-.15.06-.22.09-.64.26-1.27.56-1.88.87-.05.03-.11.05-.16.08-.03.02-.07.04-.1.06-.61.33-1.2.68-1.78,1.05-.08.05-.17.11-.25.16-.6.4-1.18.83-1.75,1.28-.05.04-.1.08-.16.12-.62.5-1.21,1.04-1.77,1.6,0,0,0,0,0,0,0,0,0,0,0,0l-101.82,101.82c-4.69,4.69-7.03,10.83-7.03,16.97s2.34,12.28,7.03,16.97,10.83,7.03,16.97,7.03Z" style="stroke-width: 0px;"/>
  </g>
</svg>