<?xml version="1.0" encoding="UTF-8"?>
<svg id="icon" xmlns="http://www.w3.org/2000/svg" viewBox="0 0 864 864">
  <g id="Layer_1_copy" data-name="Layer 1 copy">
    <path d="M684,144H180c-19.88,0-36,16.12-36,36v504c0,19.88,16.12,36,36,36h504c19.88,0,36-16.12,36-36V180c0-19.88-16.12-36-36-36ZM550.79,347.15l-162.68,162.68h86.06c13.25,0,24,10.75,24,24s-10.75,24-24,24h-144c-.75,0-1.49-.04-2.22-.11-.04,0-.08,0-.12,0-.73-.07-1.45-.18-2.16-.31-.05,0-.09-.02-.14-.02-.71-.14-1.41-.31-2.09-.51-.06-.02-.11-.03-.17-.05-.68-.2-1.34-.44-1.99-.7-.08-.03-.15-.06-.23-.09-.64-.26-1.26-.55-1.87-.87-.09-.05-.18-.09-.27-.14-.61-.32-1.2-.68-1.78-1.05-.08-.05-.17-.11-.25-.16-.6-.4-1.18-.83-1.74-1.28-.05-.04-.11-.08-.16-.12-.62-.5-1.21-1.04-1.77-1.6,0,0,0,0,0,0s0,0,0,0c-.56-.56-1.1-1.15-1.6-1.77-.04-.05-.08-.11-.13-.16-.45-.56-.88-1.14-1.28-1.74-.06-.08-.11-.17-.17-.26-.37-.57-.72-1.17-1.05-1.77-.05-.09-.09-.18-.14-.28-.31-.61-.6-1.23-.87-1.87-.03-.08-.06-.16-.09-.23-.26-.65-.49-1.31-.7-1.99-.02-.06-.03-.12-.05-.17-.2-.69-.37-1.38-.51-2.09,0-.05-.02-.09-.03-.14-.13-.71-.24-1.43-.31-2.16,0-.04,0-.08,0-.12-.07-.73-.11-1.47-.11-2.21v-144c0-13.25,10.75-24,24-24s24,10.75,24,24v86.06l162.68-162.68c9.37-9.37,24.57-9.37,33.94,0,4.69,4.69,7.03,10.83,7.03,16.97s-2.34,12.28-7.03,16.97Z" style="stroke-width: 0px;"/>
  </g>
</svg>