<?xml version="1.0" encoding="UTF-8"?>
<svg id="icon" xmlns="http://www.w3.org/2000/svg" viewBox="0 0 864 864">
  <g id="Layer_1_copy" data-name="Layer 1 copy">
    <path d="M144.11,697.98c.07.73.18,1.45.31,2.16,0,.05.02.09.02.14.14.71.31,1.41.51,2.1.02.06.03.11.05.17.2.68.44,1.34.7,1.99.03.08.06.15.09.23.26.64.55,1.26.87,1.87.05.09.09.18.14.27.32.61.68,1.2,1.05,1.78.06.08.11.17.16.25.4.6.83,1.18,1.28,1.74.04.05.08.11.12.16.5.62,1.04,1.21,1.6,1.77,0,0,0,0,0,0s0,0,0,0c.56.56,1.15,1.1,1.77,1.6.05.04.1.08.16.12.56.45,1.14.88,1.75,1.28.08.06.17.11.25.16.58.37,1.17.73,1.78,1.05.09.05.18.09.27.14.61.32,1.24.61,1.88.87.08.03.15.06.23.09.65.26,1.32.49,2,.7.06.02.11.03.17.05.69.2,1.39.37,2.1.51.05,0,.09.02.14.02.71.13,1.43.24,2.16.31.04,0,.08,0,.12,0,.73.07,1.47.11,2.22.11h144c13.25,0,24-10.75,24-24s-10.75-24-24-24h-86.06l162.68-162.68c4.69-4.69,7.03-10.83,7.03-16.97s-2.34-12.28-7.03-16.97c-9.37-9.37-24.57-9.37-33.94,0l-162.68,162.68v-86.06c0-13.25-10.75-24-24-24s-24,10.75-24,24v144c0,.75.04,1.48.11,2.21,0,.04,0,.08,0,.12Z" style="stroke-width: 0px;"/>
    <path d="M468,372c0,6.14,2.34,12.28,7.03,16.97,4.69,4.69,10.83,7.03,16.97,7.03s12.28-2.34,16.97-7.03l162.68-162.68v86.06c0,13.25,10.75,24,24,24s24-10.75,24-24v-144c0-.75-.04-1.49-.11-2.22,0-.04,0-.08,0-.12-.07-.73-.18-1.45-.31-2.16,0-.05-.02-.09-.02-.14-.14-.71-.31-1.41-.51-2.1-.02-.06-.03-.11-.05-.17-.2-.68-.44-1.34-.7-2-.03-.08-.06-.15-.09-.23-.26-.64-.56-1.27-.87-1.88-.05-.09-.09-.18-.14-.27-.33-.61-.68-1.2-1.05-1.78-.05-.08-.1-.17-.16-.25-.4-.6-.83-1.19-1.29-1.75-.04-.05-.08-.1-.12-.15-.51-.62-1.04-1.21-1.61-1.78h0c-.56-.56-1.16-1.1-1.78-1.61-.05-.04-.1-.08-.15-.12-.56-.45-1.15-.88-1.75-1.29-.08-.05-.16-.1-.25-.16-.58-.38-1.17-.73-1.78-1.05-.09-.05-.18-.09-.26-.14-.61-.32-1.24-.61-1.88-.87-.07-.03-.15-.06-.22-.09-.65-.26-1.32-.5-2-.7-.05-.02-.11-.03-.16-.05-.69-.2-1.39-.37-2.11-.51-.04,0-.08-.01-.13-.02-.71-.14-1.43-.24-2.17-.31-.04,0-.07,0-.11,0-.73-.07-1.47-.11-2.22-.11h-144c-13.25,0-24,10.75-24,24s10.75,24,24,24h86.06l-162.68,162.68c-4.69,4.69-7.03,10.83-7.03,16.97Z" style="stroke-width: 0px;"/>
    <path d="M336.18,168.18c0-13.25-10.75-24-24-24h-144c-.75,0-1.49.04-2.22.11-.04,0-.07,0-.11,0-.73.07-1.45.18-2.17.31-.04,0-.09.01-.13.02-.71.14-1.41.31-2.1.51-.05.02-.11.03-.16.05-.68.2-1.35.44-2,.7-.07.03-.15.06-.22.09-.64.26-1.27.56-1.88.87-.09.05-.18.09-.27.14-.61.32-1.2.68-1.78,1.05-.08.05-.17.11-.25.16-.6.4-1.18.83-1.74,1.28-.05.04-.11.08-.16.12-.62.5-1.21,1.04-1.77,1.6,0,0,0,0,0,0s0,0,0,0c-.56.56-1.1,1.15-1.6,1.77-.04.05-.08.11-.12.16-.45.56-.88,1.14-1.28,1.74-.06.08-.11.17-.16.25-.37.58-.73,1.17-1.05,1.78-.05.09-.09.18-.14.27-.31.61-.61,1.23-.87,1.87-.03.08-.06.15-.09.23-.26.65-.49,1.32-.7,1.99-.02.06-.03.11-.05.17-.2.69-.37,1.39-.51,2.1,0,.05-.02.09-.02.14-.13.71-.24,1.43-.31,2.16,0,.04,0,.08,0,.12-.07.73-.11,1.47-.11,2.21v144c0,13.25,10.75,24,24,24s24-10.75,24-24v-86.06l162.68,162.68c4.69,4.69,10.83,7.03,16.97,7.03s12.28-2.34,16.97-7.03c4.69-4.69,7.03-10.83,7.03-16.97s-2.34-12.28-7.03-16.97l-162.68-162.68h86.06c13.25,0,24-10.75,24-24Z" style="stroke-width: 0px;"/>
    <path d="M474.85,509.15l162.68,162.68h-86.06c-13.25,0-24,10.75-24,24s10.75,24,24,24h144c.75,0,1.49-.04,2.22-.11.04,0,.08,0,.12,0,.73-.07,1.45-.18,2.16-.31.05,0,.09-.02.14-.02.71-.14,1.41-.31,2.1-.51.06-.02.11-.03.17-.05.68-.2,1.34-.44,2-.7.08-.03.15-.06.23-.09.64-.26,1.27-.55,1.88-.87.09-.05.18-.09.27-.14.61-.32,1.2-.68,1.78-1.05.08-.05.17-.11.25-.16.6-.4,1.18-.83,1.75-1.28.05-.04.11-.08.16-.12.62-.5,1.21-1.04,1.77-1.6,0,0,0,0,0,0s0,0,0,0c.56-.56,1.1-1.15,1.6-1.77.04-.05.08-.11.12-.16.45-.56.88-1.14,1.28-1.74.06-.08.11-.17.16-.25.37-.58.73-1.17,1.05-1.78.05-.09.09-.18.14-.27.31-.61.61-1.23.87-1.87.03-.08.06-.15.09-.23.26-.65.49-1.32.7-1.99.02-.06.03-.11.05-.17.2-.69.37-1.39.51-2.1,0-.05.02-.09.02-.14.13-.71.24-1.43.31-2.16,0-.04,0-.08,0-.12.07-.73.11-1.47.11-2.21v-144c0-13.25-10.75-24-24-24s-24,10.75-24,24v86.06l-162.68-162.68c-9.37-9.37-24.57-9.37-33.94,0-4.69,4.69-7.03,10.83-7.03,16.97s2.34,12.28,7.03,16.97Z" style="stroke-width: 0px;"/>
  </g>
</svg>