<?xml version="1.0" encoding="UTF-8"?>
<svg id="icon" xmlns="http://www.w3.org/2000/svg" viewBox="0 0 864 864">
  <g id="Layer_1_copy" data-name="Layer 1 copy">
    <path d="M234,374.73v294.54c0,27.97,22.76,50.73,50.73,50.73h294.54c27.97,0,50.73-22.76,50.73-50.73v-294.54c0-27.97-22.76-50.73-50.73-50.73h-103.64v36h103.64c8.12,0,14.73,6.61,14.73,14.73v294.54c0,8.12-6.61,14.73-14.73,14.73h-294.54c-8.12,0-14.73-6.61-14.73-14.73v-294.54c0-8.12,6.61-14.73,14.73-14.73h103.64v-36h-103.64c-27.97,0-50.73,22.76-50.73,50.73Z" style="stroke-width: 0px;"/>
    <path d="M432,150c-9.94,0-18,8.06-18,18v304.54l-71.1-71.1c-7.03-7.03-18.43-7.03-25.46,0-3.51,3.51-5.27,8.12-5.27,12.73s1.76,9.21,5.27,12.73l101.81,101.81c.42.42.87.83,1.33,1.21.19.15.38.28.57.43.28.21.55.43.84.62.24.16.49.3.74.45.26.15.51.31.77.46.26.14.52.25.78.38.27.13.53.26.81.38.26.11.52.19.78.29.29.11.58.22.88.31.26.08.53.14.8.2.3.08.6.16.91.22.31.06.62.1.94.14.27.04.53.09.8.12.59.06,1.18.09,1.78.09s1.19-.03,1.78-.09c.27-.03.53-.08.8-.12.31-.05.63-.08.94-.14.31-.06.61-.15.91-.22.27-.07.53-.13.8-.21.3-.09.59-.2.88-.31.26-.09.52-.18.78-.29.28-.11.54-.25.81-.38.26-.12.53-.24.78-.38.26-.14.51-.3.77-.45.25-.15.5-.29.74-.45.29-.19.56-.41.84-.62.19-.14.39-.28.57-.43.46-.38.91-.78,1.33-1.21l101.81-101.81c3.51-3.51,5.27-8.12,5.27-12.73s-1.76-9.21-5.27-12.73c-7.03-7.03-18.43-7.03-25.46,0l-71.1,71.1V168c0-9.94-8.06-18-18-18Z" style="stroke-width: 0px;"/>
  </g>
</svg>