<?xml version="1.0" encoding="UTF-8"?>
<svg id="icon" xmlns="http://www.w3.org/2000/svg" viewBox="0 0 864 864">
  <path d="M417.6,201.6h-14.4c-142.92,0-259.2,116.28-259.2,259.2s116.27,259.2,259.2,259.2,259.2-116.27,259.2-259.2v-14.4h-244.8v-244.8ZM633.16,475.2c-7.46,120.36-107.75,216-229.96,216s-230.4-103.36-230.4-230.4,95.64-222.49,216-229.96v244.36h244.36Z" style="stroke-width: 0px;"/>
  <path d="M460.8,144h-14.4v273.6h273.6v-14.4c0-142.92-116.28-259.2-259.2-259.2ZM475.2,388.8v-215.56c115.59,7.17,208.39,99.97,215.56,215.56h-215.56Z" style="stroke-width: 0px;"/>
</svg>