<?xml version="1.0" encoding="UTF-8"?>
<svg id="icon" xmlns="http://www.w3.org/2000/svg" viewBox="0 0 864 864">
  <path d="M718.1,693.95L448.1,153.95c-3.05-6.1-9.28-9.95-16.1-9.95s-13.05,3.85-16.1,9.95L145.9,693.95c-2.79,5.58-2.49,12.21.79,17.51,3.28,5.31,9.07,8.54,15.31,8.54h540c6.24,0,12.03-3.23,15.31-8.54,3.28-5.31,3.58-11.93.79-17.51ZM528.88,396h-193.75l36-72h121.75l36,72ZM540.88,420l36,72h-289.75l36-72h217.75ZM588.88,516l36,72H239.12l36-72h313.75ZM432,202.25l48.88,97.75h-97.75l48.88-97.75ZM191.12,684l36-72h409.75l36,72H191.12Z" style="stroke-width: 0px;"/>
</svg>