<?xml version="1.0" encoding="UTF-8"?>
<svg id="icon" xmlns="http://www.w3.org/2000/svg" viewBox="0 0 864 864">
  <path d="M222.57,719.32c.42.42.93.63,1.53.63h21.06c.6,0,1.11-.21,1.53-.63.42-.42.63-.93.63-1.53v-121.68c0-.6-.21-1.11-.63-1.53-.42-.42-.93-.63-1.53-.63h-21.06c-.6,0-1.11.21-1.53.63s-.63.93-.63,1.53v48.42c0,.6-.3.9-.9.9h-39.78c-.6,0-.9-.3-.9-.9v-48.42c0-.6-.21-1.11-.63-1.53-.42-.42-.93-.63-1.53-.63h-21.06c-.6,0-1.11.21-1.53.63s-.63.93-.63,1.53v121.68c0,.6.21,1.11.63,1.53.42.42.93.63,1.53.63h21.06c.6,0,1.11-.21,1.53-.63s.63-.93.63-1.53v-49.68c0-.6.3-.9.9-.9h39.78c.6,0,.9.3.9.9v49.68c0,.6.21,1.11.63,1.53Z" style="stroke-width: 0px;"/>
  <path d="M294.3,615.73h59.04c.6,0,1.11-.21,1.53-.63s.63-.93.63-1.53v-17.46c0-.6-.21-1.11-.63-1.53-.42-.42-.93-.63-1.53-.63h-83.16c-.6,0-1.11.21-1.53.63s-.63.93-.63,1.53v121.68c0,.6.21,1.11.63,1.53.42.42.93.63,1.53.63h83.16c.6,0,1.11-.21,1.53-.63s.63-.93.63-1.53v-17.46c0-.6-.21-1.11-.63-1.53-.42-.42-.93-.63-1.53-.63h-59.04c-.6,0-.9-.3-.9-.9v-29.16c0-.6.3-.9.9-.9h38.7c.6,0,1.11-.21,1.53-.63s.63-.93.63-1.53v-17.46c0-.6-.21-1.11-.63-1.53-.42-.42-.93-.63-1.53-.63h-38.7c-.6,0-.9-.3-.9-.9v-27.9c0-.6.3-.9.9-.9Z" style="stroke-width: 0px;"/>
  <path d="M396.36,719.95c.6,0,1.11-.21,1.53-.63.42-.42.63-.93.63-1.53v-121.68c0-.6-.21-1.11-.63-1.53-.42-.42-.93-.63-1.53-.63h-21.06c-.6,0-1.11.21-1.53.63-.42.42-.63.93-.63,1.53v121.68c0,.6.21,1.11.63,1.53.42.42.93.63,1.53.63h21.06Z" style="stroke-width: 0px;"/>
  <path d="M449.19,620.05c3.9-3.84,9.09-5.76,15.57-5.76s11.49,1.92,15.39,5.76c3.9,3.84,5.85,8.94,5.85,15.3,0,1.32.6,1.98,1.8,1.98h.36l21.06-1.26c1.44-.24,2.16-.9,2.16-1.98,0-8.28-1.95-15.57-5.85-21.87-3.9-6.3-9.36-11.16-16.38-14.58s-15.15-5.13-24.39-5.13-17.58,1.8-24.66,5.4c-7.08,3.6-12.54,8.7-16.38,15.3-3.84,6.6-5.76,14.22-5.76,22.86v41.58c0,8.64,1.92,16.26,5.76,22.86,3.84,6.6,9.3,11.73,16.38,15.39,7.08,3.66,15.3,5.49,24.66,5.49s17.37-1.74,24.39-5.22c7.02-3.48,12.48-8.4,16.38-14.76,3.9-6.36,5.85-13.68,5.85-21.96,0-.48-.21-.9-.63-1.26-.42-.36-.93-.54-1.53-.54l-21.06-.9c-1.44,0-2.16.66-2.16,1.98,0,6.24-1.95,11.28-5.85,15.12-3.9,3.84-9.03,5.76-15.39,5.76s-11.67-1.92-15.57-5.76c-3.9-3.84-5.85-8.88-5.85-15.12v-43.38c0-6.36,1.95-11.46,5.85-15.3Z" style="stroke-width: 0px;"/>
  <path d="M647.95,262.99c0-.1-.02-.21-.03-.31-.03-.32-.08-.63-.14-.94,0-.04-.01-.07-.02-.11-.07-.35-.16-.69-.26-1.03-.03-.09-.06-.18-.09-.27-.08-.26-.17-.51-.27-.76-.04-.09-.07-.18-.11-.27-.13-.31-.27-.61-.43-.91,0-.01-.01-.03-.02-.04-.17-.31-.35-.62-.55-.92-.05-.08-.11-.15-.16-.23-.15-.22-.31-.44-.48-.65-.07-.08-.13-.17-.2-.25-.19-.23-.39-.45-.6-.67-.04-.04-.07-.08-.1-.11l-108-108c-2.25-2.25-5.3-3.51-8.49-3.51H228c-6.63,0-12,5.37-12,12v420h24V168h274.55v96c0,6.63,5.37,12,12,12h97.45v300h24v-312c0-.06,0-.12,0-.18,0-.28-.02-.56-.04-.83ZM538.55,252v-67.3l68.2,67.3h-68.2Z" style="stroke-width: 0px;"/>
</svg>