<?xml version="1.0" encoding="UTF-8"?>
<svg id="icon" xmlns="http://www.w3.org/2000/svg" viewBox="0 0 864 864">
  <path d="M167.67,714.55c6.9,4.56,14.91,6.84,24.03,6.84s17.25-2.16,24.03-6.48c6.78-4.32,11.61-10.32,14.49-18,2.16-5.52,3.24-11.52,3.24-18,0-7.2-1.2-13.56-3.6-19.08-4.44-10.32-11.88-16.5-22.32-18.54-.48,0-.75-.12-.81-.36-.06-.24.03-.48.27-.72l23.58-21.6c.84-.84,1.26-1.74,1.26-2.7v-19.8c0-.6-.21-1.11-.63-1.53-.42-.42-.93-.63-1.53-.63h-75.06c-.6,0-1.11.21-1.53.63s-.63.93-.63,1.53v17.46c0,.6.21,1.11.63,1.53.42.42.93.63,1.53.63h42.3c.36,0,.57.12.63.36.06.24-.03.48-.27.72l-28.62,25.02c-.48.48-.72,1.08-.72,1.8,0,.48.12.9.36,1.26l10.62,14.94c.36.72.9,1.08,1.62,1.08.48,0,.96-.18,1.44-.54,2.04-1.44,3.78-2.55,5.22-3.33,1.44-.78,2.82-1.17,4.14-1.17,6.48,0,11.1,2.82,13.86,8.46,1.8,3.6,2.7,8.22,2.7,13.86,0,4.8-.84,9-2.52,12.6-2.52,5.88-7.14,8.82-13.86,8.82-3.36,0-6.27-.87-8.73-2.61-2.46-1.74-4.23-4.17-5.31-7.29-.84-1.92-1.5-4.86-1.98-8.82,0-1.44-.72-2.16-2.16-2.16h-21.24c-1.44,0-2.16.72-2.16,2.16.24,5.4,1.2,10.44,2.88,15.12,3,7.8,7.95,13.98,14.85,18.54Z" style="stroke-width: 0px;"/>
  <path d="M318.15,635.98c.42.42.93.63,1.53.63h21.06c.6,0,1.11-.21,1.53-.63.42-.42.63-.93.63-1.53v-1.26c0-7.56-1.95-14.43-5.85-20.61-3.9-6.18-9.36-11.07-16.38-14.67s-15.09-5.4-24.21-5.4-17.4,1.83-24.48,5.49c-7.08,3.66-12.57,8.85-16.47,15.57-3.9,6.72-5.85,14.46-5.85,23.22v40.32c0,8.76,1.95,16.47,5.85,23.13,3.9,6.66,9.39,11.85,16.47,15.57,7.08,3.72,15.24,5.58,24.48,5.58s17.37-1.77,24.39-5.31c7.02-3.54,12.45-8.67,16.29-15.39,3.84-6.72,5.76-14.64,5.76-23.76v-23.76c0-.6-.21-1.11-.63-1.53-.42-.42-.93-.63-1.53-.63h-43.92c-.6,0-1.11.21-1.53.63-.42.42-.63.93-.63,1.53v16.56c0,.6.21,1.11.63,1.53.42.42.93.63,1.53.63h20.16c.6,0,.9.3.9.9v8.1c0,5.88-1.86,10.47-5.58,13.77-3.72,3.3-8.7,4.95-14.94,4.95s-11.82-2.01-16.02-6.03c-4.2-4.02-6.3-9.27-6.3-15.75v-41.76c0-6.48,1.95-11.73,5.85-15.75,3.9-4.02,9.09-6.03,15.57-6.03s11.46,1.89,15.3,5.67c3.84,3.78,5.76,8.43,5.76,13.95v.54c0,.6.21,1.11.63,1.53Z" style="stroke-width: 0px;"/>
  <path d="M384.66,719.95c.6,0,1.11-.21,1.53-.63s.63-.93.63-1.53v-45.9c0-.6.3-.9.9-.9h25.56c8.04,0,15.15-1.59,21.33-4.77,6.18-3.18,10.98-7.65,14.4-13.41s5.13-12.42,5.13-19.98-1.65-14.49-4.95-20.43c-3.3-5.94-7.95-10.53-13.95-13.77-6-3.24-12.96-4.86-20.88-4.86h-50.76c-.6,0-1.11.21-1.53.63-.42.42-.63.93-.63,1.53v121.86c0,.6.21,1.11.63,1.53.42.42.93.63,1.53.63h21.06ZM386.82,616.63c0-.6.3-.9.9-.9h22.86c5.52,0,9.96,1.62,13.32,4.86,3.36,3.24,5.04,7.5,5.04,12.78s-1.68,9.33-5.04,12.51c-3.36,3.18-7.8,4.77-13.32,4.77h-22.86c-.6,0-.9-.3-.9-.9v-33.12Z" style="stroke-width: 0px;"/>
  <path d="M647.95,262.99c0-.11-.02-.21-.03-.32-.03-.31-.08-.62-.14-.92,0-.04-.01-.09-.02-.13-.07-.34-.16-.68-.26-1.02-.03-.1-.06-.19-.09-.28-.08-.25-.17-.5-.27-.75-.04-.1-.07-.19-.12-.29-.13-.3-.27-.6-.42-.9,0-.02-.02-.04-.03-.06-.17-.31-.35-.62-.55-.92-.05-.08-.11-.15-.16-.23-.15-.22-.31-.44-.48-.65-.07-.08-.13-.17-.2-.25-.2-.23-.4-.46-.62-.68-.03-.03-.06-.07-.09-.1l-108-108c-2.25-2.25-5.3-3.51-8.49-3.51H228c-6.63,0-12,5.37-12,12v420h24V168h274.55v96c0,6.63,5.37,12,12,12h97.45v300h24v-312c0-.06,0-.12,0-.18,0-.27-.02-.55-.04-.82ZM538.55,252v-67.3l68.2,67.3h-68.2Z" style="stroke-width: 0px;"/>
</svg>