<?xml version="1.0" encoding="UTF-8"?>
<svg id="icon" xmlns="http://www.w3.org/2000/svg" viewBox="0 0 864 864">
  <path d="M180.36,718.15c.36,1.2,1.2,1.8,2.52,1.8h19.98c1.32,0,2.1-.66,2.34-1.98l17.1-77.76c.12-.48.3-.72.54-.72s.42.24.54.72l18.36,77.94c.36,1.2,1.14,1.8,2.34,1.8h21.42c1.32,0,2.16-.6,2.52-1.8l29.52-121.86c.36-1.56-.3-2.34-1.98-2.34h-21.24c-1.2,0-1.98.66-2.34,1.98l-16.56,73.08c-.12.48-.3.69-.54.63-.24-.06-.42-.27-.54-.63l-18-73.26c-.36-1.2-1.2-1.8-2.52-1.8h-21.78c-1.2,0-1.98.66-2.34,1.98l-16.56,73.08c-.12.48-.3.72-.54.72s-.42-.24-.54-.72l-17.1-73.26c-.36-1.2-1.14-1.8-2.34-1.8h-22.32c-1.32,0-1.98.54-1.98,1.62l.18.72,31.86,121.86Z" style="stroke-width: 0px;"/>
  <path d="M288.9,719.32c.36.42.9.63,1.62.63h22.86c1.2,0,1.98-.6,2.34-1.8l5.22-17.64c.24-.48.54-.72.9-.72h44.28c.36,0,.66.24.9.72l5.4,17.64c.36,1.2,1.14,1.8,2.34,1.8h22.86c1.32,0,1.98-.54,1.98-1.62,0-.36-.06-.66-.18-.9l-38.88-121.68c-.36-1.2-1.14-1.8-2.34-1.8h-28.26c-1.2,0-1.98.6-2.34,1.8l-38.88,121.68c-.24.84-.18,1.47.18,1.89ZM327.42,679.09l15.84-53.46c.12-.36.3-.57.54-.63.24-.06.42.15.54.63l16.2,53.46c.24.72,0,1.08-.72,1.08h-31.68c-.6,0-.84-.36-.72-1.08Z" style="stroke-width: 0px;"/>
  <path d="M445.5,719.95h22.68c1.2,0,1.98-.6,2.34-1.8l37.62-121.68c.24-.72.18-1.32-.18-1.8-.36-.48-.9-.72-1.62-.72h-22.14c-1.32,0-2.16.6-2.52,1.8l-23.58,87.84c-.12.36-.3.54-.54.54s-.42-.18-.54-.54l-23.94-87.84c-.36-1.2-1.2-1.8-2.52-1.8h-22.68c-1.32,0-1.98.6-1.98,1.8l.18.72,37.08,121.68c.36,1.2,1.14,1.8,2.34,1.8Z" style="stroke-width: 0px;"/>
  <path d="M647.95,262.99c0-.11-.02-.21-.03-.31-.03-.31-.08-.62-.14-.92,0-.04-.01-.09-.02-.13-.07-.34-.16-.68-.26-1.02-.03-.09-.06-.19-.09-.28-.08-.25-.17-.5-.27-.75-.04-.1-.07-.19-.12-.29-.13-.3-.27-.6-.42-.89-.01-.02-.02-.04-.03-.06-.17-.31-.35-.62-.55-.92-.05-.08-.11-.16-.16-.24-.15-.22-.31-.43-.48-.64-.07-.09-.14-.17-.21-.26-.19-.23-.39-.45-.6-.66-.04-.04-.07-.08-.1-.11l-108-108c-2.25-2.25-5.3-3.51-8.49-3.51H228c-6.63,0-12,5.37-12,12v420h24V168h274.55v96c0,6.63,5.37,12,12,12h97.45v300h24v-312c0-.06,0-.12,0-.18,0-.28-.02-.55-.04-.82ZM538.55,252v-67.3l68.2,67.3h-68.2Z" style="stroke-width: 0px;"/>
</svg>