<?xml version="1.0" encoding="UTF-8"?>
<svg id="icon" xmlns="http://www.w3.org/2000/svg" viewBox="0 0 864 864">
  <path d="M236.97,719.32c.42.42.93.63,1.53.63h21.06c.6,0,1.11-.21,1.53-.63s.63-.93.63-1.53v-121.68c0-.6-.21-1.11-.63-1.53-.42-.42-.93-.63-1.53-.63h-21.06c-1.08,0-1.92.48-2.52,1.44l-27.18,41.94c-.36.72-.72.72-1.08,0l-27-41.94c-.6-.96-1.44-1.44-2.52-1.44h-21.06c-.6,0-1.11.21-1.53.63s-.63.93-.63,1.53v121.68c0,.6.21,1.11.63,1.53.42.42.93.63,1.53.63h21.06c.6,0,1.11-.21,1.53-.63.42-.42.63-.93.63-1.53v-79.2c0-.48.12-.75.36-.81.24-.06.48.09.72.45l19.08,29.88c.6.96,1.44,1.44,2.52,1.44h10.62c1.08,0,1.92-.48,2.52-1.44l19.08-29.88c.24-.36.48-.54.72-.54s.36.24.36.72v79.38c0,.6.21,1.11.63,1.53Z" style="stroke-width: 0px;"/>
  <path d="M306,719.95c.6,0,1.11-.21,1.53-.63s.63-.93.63-1.53v-45.9c0-.6.3-.9.9-.9h25.56c8.04,0,15.15-1.59,21.33-4.77,6.18-3.18,10.98-7.65,14.4-13.41,3.42-5.76,5.13-12.42,5.13-19.98s-1.65-14.49-4.95-20.43c-3.3-5.94-7.95-10.53-13.95-13.77-6-3.24-12.96-4.86-20.88-4.86h-50.76c-.6,0-1.11.21-1.53.63-.42.42-.63.93-.63,1.53v121.86c0,.6.21,1.11.63,1.53.42.42.93.63,1.53.63h21.06ZM308.16,616.63c0-.6.3-.9.9-.9h22.86c5.52,0,9.96,1.62,13.32,4.86,3.36,3.24,5.04,7.5,5.04,12.78s-1.68,9.33-5.04,12.51c-3.36,3.18-7.8,4.77-13.32,4.77h-22.86c-.6,0-.9-.3-.9-.9v-33.12Z" style="stroke-width: 0px;"/>
  <path d="M427.68,699.61c-3.36,0-6.27-.87-8.73-2.61-2.46-1.74-4.23-4.17-5.31-7.29-.84-1.92-1.5-4.86-1.98-8.82,0-1.44-.72-2.16-2.16-2.16h-21.24c-1.44,0-2.16.72-2.16,2.16.24,5.4,1.2,10.44,2.88,15.12,3,7.8,7.95,13.98,14.85,18.54,6.9,4.56,14.91,6.84,24.03,6.84s17.25-2.16,24.03-6.48c6.78-4.32,11.61-10.32,14.49-18,2.16-5.52,3.24-11.52,3.24-18,0-7.2-1.2-13.56-3.6-19.08-4.44-10.32-11.88-16.5-22.32-18.54-.48,0-.75-.12-.81-.36-.06-.24.03-.48.27-.72l23.58-21.6c.84-.84,1.26-1.74,1.26-2.7v-19.8c0-.6-.21-1.11-.63-1.53-.42-.42-.93-.63-1.53-.63h-75.06c-.6,0-1.11.21-1.53.63-.42.42-.63.93-.63,1.53v17.46c0,.6.21,1.11.63,1.53.42.42.93.63,1.53.63h42.3c.36,0,.57.12.63.36.06.24-.03.48-.27.72l-28.62,25.02c-.48.48-.72,1.08-.72,1.8,0,.48.12.9.36,1.26l10.62,14.94c.36.72.9,1.08,1.62,1.08.48,0,.96-.18,1.44-.54,2.04-1.44,3.78-2.55,5.22-3.33,1.44-.78,2.82-1.17,4.14-1.17,6.48,0,11.1,2.82,13.86,8.46,1.8,3.6,2.7,8.22,2.7,13.86,0,4.8-.84,9-2.52,12.6-2.52,5.88-7.14,8.82-13.86,8.82Z" style="stroke-width: 0px;"/>
  <path d="M647.95,262.99c0-.11-.02-.21-.03-.31-.03-.31-.08-.62-.14-.92,0-.04-.01-.09-.02-.13-.07-.34-.16-.68-.26-1.02-.03-.09-.06-.19-.09-.28-.08-.25-.17-.5-.27-.75-.04-.1-.07-.19-.12-.29-.13-.3-.27-.6-.42-.89-.01-.02-.02-.04-.03-.06-.17-.31-.35-.62-.55-.92-.05-.08-.11-.16-.16-.24-.15-.22-.31-.43-.48-.64-.07-.09-.14-.17-.21-.26-.19-.23-.39-.45-.6-.66-.04-.04-.07-.08-.1-.11l-108-108c-2.25-2.25-5.3-3.51-8.49-3.51H228c-6.63,0-12,5.37-12,12v420h24V168h274.55v96c0,6.63,5.37,12,12,12h97.45v300h24v-312c0-.06,0-.12,0-.18,0-.28-.02-.55-.04-.82ZM538.55,252v-67.3l68.2,67.3h-68.2Z" style="stroke-width: 0px;"/>
</svg>