<?xml version="1.0" encoding="UTF-8"?>
<svg id="icon" xmlns="http://www.w3.org/2000/svg" viewBox="0 0 864 864">
  <path d="M236.97,719.32c.42.42.93.63,1.53.63h21.06c.6,0,1.11-.21,1.53-.63s.63-.93.63-1.53v-121.68c0-.6-.21-1.11-.63-1.53-.42-.42-.93-.63-1.53-.63h-21.06c-1.08,0-1.92.48-2.52,1.44l-27.18,41.94c-.36.72-.72.72-1.08,0l-27-41.94c-.6-.96-1.44-1.44-2.52-1.44h-21.06c-.6,0-1.11.21-1.53.63s-.63.93-.63,1.53v121.68c0,.6.21,1.11.63,1.53.42.42.93.63,1.53.63h21.06c.6,0,1.11-.21,1.53-.63.42-.42.63-.93.63-1.53v-79.2c0-.48.12-.75.36-.81.24-.06.48.09.72.45l19.08,29.88c.6.96,1.44,1.44,2.52,1.44h10.62c1.08,0,1.92-.48,2.52-1.44l19.08-29.88c.24-.36.48-.54.72-.54s.36.24.36.72v79.38c0,.6.21,1.11.63,1.53Z" style="stroke-width: 0px;"/>
  <path d="M338.22,596.47c.36-.84.39-1.47.09-1.89-.3-.42-.87-.63-1.71-.63h-22.5c-1.2,0-2.04.54-2.52,1.62l-32.4,72.72c-.36,1.08-.54,1.98-.54,2.7v14.4c0,.6.21,1.11.63,1.53.42.42.93.63,1.53.63h55.26c.6,0,.9.3.9.9v29.34c0,.6.21,1.11.63,1.53.42.42.93.63,1.53.63h21.06c.6,0,1.11-.21,1.53-.63.42-.42.63-.93.63-1.53v-29.34c0-.6.3-.9.9-.9h7.74c.6,0,1.11-.21,1.53-.63.42-.42.63-.93.63-1.53v-18.18c0-.6-.21-1.11-.63-1.53-.42-.42-.93-.63-1.53-.63h-7.74c-.6,0-.9-.3-.9-.9v-22.32c0-.6-.21-1.11-.63-1.53-.42-.42-.93-.63-1.53-.63h-21.06c-.6,0-1.11.21-1.53.63s-.63.93-.63,1.53v22.32c0,.6-.3.9-.9.9h-27.36c-.24,0-.42-.12-.54-.36-.12-.24-.12-.48,0-.72l30.06-67.5Z" style="stroke-width: 0px;"/>
  <path d="M414.9,719.95c.6,0,1.11-.21,1.53-.63s.63-.93.63-1.53v-45.9c0-.6.3-.9.9-.9h25.56c8.04,0,15.15-1.59,21.33-4.77,6.18-3.18,10.98-7.65,14.4-13.41,3.42-5.76,5.13-12.42,5.13-19.98s-1.65-14.49-4.95-20.43c-3.3-5.94-7.95-10.53-13.95-13.77-6-3.24-12.96-4.86-20.88-4.86h-50.76c-.6,0-1.11.21-1.53.63-.42.42-.63.93-.63,1.53v121.86c0,.6.21,1.11.63,1.53.42.42.93.63,1.53.63h21.06ZM417.06,616.63c0-.6.3-.9.9-.9h22.86c5.52,0,9.96,1.62,13.32,4.86,3.36,3.24,5.04,7.5,5.04,12.78s-1.68,9.33-5.04,12.51c-3.36,3.18-7.8,4.77-13.32,4.77h-22.86c-.6,0-.9-.3-.9-.9v-33.12Z" style="stroke-width: 0px;"/>
  <path d="M647.95,262.99c0-.1-.02-.21-.03-.31-.03-.31-.08-.62-.14-.93,0-.04-.01-.08-.02-.12-.07-.34-.16-.68-.26-1.02-.03-.09-.06-.19-.09-.28-.08-.25-.17-.5-.27-.75-.04-.09-.07-.19-.11-.28-.13-.3-.27-.6-.42-.9-.01-.02-.02-.04-.03-.06-.17-.31-.35-.62-.55-.92-.05-.08-.11-.16-.16-.24-.15-.22-.31-.43-.47-.64-.07-.09-.14-.17-.21-.26-.19-.22-.39-.44-.59-.66-.04-.04-.07-.08-.11-.12l-108-108c-2.25-2.25-5.3-3.51-8.49-3.51H228c-6.63,0-12,5.37-12,12v420h24V168h274.55v96c0,6.63,5.37,12,12,12h97.45v300h24v-312c0-.06,0-.12,0-.18,0-.28-.02-.55-.04-.83ZM538.55,252v-67.3l68.2,67.3h-68.2Z" style="stroke-width: 0px;"/>
</svg>