<?xml version="1.0" encoding="UTF-8"?>
<svg id="icon" xmlns="http://www.w3.org/2000/svg" viewBox="0 0 864 864">
  <path d="M155.61,594.58c-.42.42-.63.93-.63,1.53v121.68c0,.6.21,1.11.63,1.53.42.42.93.63,1.53.63h45c9,0,16.89-1.59,23.67-4.77,6.78-3.18,12.03-7.65,15.75-13.41,3.72-5.76,5.58-12.42,5.58-19.98v-49.68c0-7.56-1.86-14.22-5.58-19.98-3.72-5.76-8.97-10.23-15.75-13.41-6.78-3.18-14.67-4.77-23.67-4.77h-45c-.6,0-1.11.21-1.53.63ZM180.36,616.63c0-.6.3-.9.9-.9h21.6c5.76,0,10.35,1.86,13.77,5.58,3.42,3.72,5.13,8.7,5.13,14.94v41.4c-.12,6.24-1.89,11.22-5.31,14.94-3.42,3.72-7.89,5.58-13.41,5.58h-21.78c-.6,0-.9-.3-.9-.9v-80.64Z" style="stroke-width: 0px;"/>
  <path d="M290.97,594.58c-.42-.42-.93-.63-1.53-.63h-21.06c-.6,0-1.11.21-1.53.63s-.63.93-.63,1.53v121.68c0,.6.21,1.11.63,1.53.42.42.93.63,1.53.63h82.98c.6,0,1.11-.21,1.53-.63.42-.42.63-.93.63-1.53v-17.46c0-.6-.21-1.11-.63-1.53-.42-.42-.93-.63-1.53-.63h-58.86c-.6,0-.9-.3-.9-.9v-101.16c0-.6-.21-1.11-.63-1.53Z" style="stroke-width: 0px;"/>
  <path d="M393.93,594.58c-.42-.42-.93-.63-1.53-.63h-21.06c-.6,0-1.11.21-1.53.63s-.63.93-.63,1.53v121.68c0,.6.21,1.11.63,1.53.42.42.93.63,1.53.63h82.98c.6,0,1.11-.21,1.53-.63s.63-.93.63-1.53v-17.46c0-.6-.21-1.11-.63-1.53-.42-.42-.93-.63-1.53-.63h-58.86c-.6,0-.9-.3-.9-.9v-101.16c0-.6-.21-1.11-.63-1.53Z" style="stroke-width: 0px;"/>
  <path d="M647.95,262.99c0-.1-.02-.21-.03-.31-.03-.31-.08-.63-.14-.94,0-.04-.01-.08-.02-.12-.07-.34-.16-.69-.26-1.02-.03-.09-.06-.18-.09-.27-.08-.26-.17-.51-.27-.76-.04-.09-.07-.18-.11-.27-.13-.31-.27-.62-.43-.92,0-.01-.01-.03-.02-.04-.17-.32-.35-.62-.55-.92-.05-.08-.1-.15-.15-.22-.15-.22-.32-.44-.49-.66-.06-.08-.13-.16-.19-.24-.2-.23-.4-.46-.62-.68-.03-.03-.06-.07-.09-.1l-108-108c-2.25-2.25-5.3-3.51-8.49-3.51H228c-6.63,0-12,5.37-12,12v420h24V168h274.55v96c0,6.63,5.37,12,12,12h97.45v300h24v-312c0-.06,0-.12,0-.18,0-.28-.02-.56-.04-.83ZM538.55,252v-67.3l68.2,67.3h-68.2Z" style="stroke-width: 0px;"/>
</svg>