<?xml version="1.0" encoding="UTF-8"?>
<svg id="icon" xmlns="http://www.w3.org/2000/svg" viewBox="0 0 864 864">
  <circle cx="426" cy="72" r="12" style="stroke-width: 0px;"/>
  <path d="M648,576v-312c0-.06,0-.12,0-.18,0-.28-.02-.56-.04-.83,0-.1-.02-.21-.03-.31-.04-.32-.08-.63-.14-.94,0-.04-.01-.07-.02-.11-.07-.35-.16-.69-.26-1.03-.03-.09-.06-.18-.09-.27-.08-.26-.17-.51-.27-.76-.04-.09-.07-.18-.11-.27-.13-.31-.27-.61-.43-.91,0-.01-.01-.03-.02-.04-.17-.31-.35-.62-.55-.92-.05-.08-.11-.15-.16-.23-.15-.22-.31-.44-.48-.65-.07-.08-.13-.17-.2-.25-.19-.23-.39-.45-.6-.67-.04-.04-.07-.08-.1-.11l-108-108c-2.25-2.25-5.3-3.51-8.49-3.51H228c-6.63,0-12,5.37-12,12v420h24V168h274.55v96c0,6.63,5.37,12,12,12h97.45v300h24ZM538.55,252v-67.3l68.2,67.3h-68.2Z" style="stroke-width: 0px;"/>
  <path d="M182.88,719.95h19.98c1.32,0,2.1-.66,2.34-1.98l17.1-77.76c.12-.48.3-.72.54-.72s.42.24.54.72l18.36,77.94c.36,1.2,1.14,1.8,2.34,1.8h21.42c1.32,0,2.16-.6,2.52-1.8l29.52-121.86c.36-1.56-.3-2.34-1.98-2.34h-21.24c-1.2,0-1.98.66-2.34,1.98l-16.56,73.08c-.12.48-.3.69-.54.63-.24-.06-.42-.27-.54-.63l-18-73.26c-.36-1.2-1.2-1.8-2.52-1.8h-21.78c-1.2,0-1.98.66-2.34,1.98l-16.56,73.08c-.12.48-.3.72-.54.72s-.42-.24-.54-.72l-17.1-73.26c-.36-1.2-1.14-1.8-2.34-1.8h-22.32c-1.32,0-1.98.54-1.98,1.62l.18.72,31.86,121.86c.36,1.2,1.2,1.8,2.52,1.8Z" style="stroke-width: 0px;"/>
  <path d="M376.65,598.18c-7.14-3.78-15.45-5.67-24.93-5.67s-17.61,1.89-24.75,5.67c-7.14,3.78-12.69,9.09-16.65,15.93-3.96,6.84-5.94,14.7-5.94,23.58v38.52c0,9,1.98,16.95,5.94,23.85,3.96,6.9,9.51,12.27,16.65,16.11,7.14,3.84,15.39,5.76,24.75,5.76s17.79-1.89,24.93-5.67c7.14-3.78,12.69-9.15,16.65-16.11,3.96-6.96,5.94-14.94,5.94-23.94v-38.52c0-8.88-1.98-16.74-5.94-23.58-3.96-6.84-9.51-12.15-16.65-15.93ZM373.86,677.11c0,6.96-2.04,12.54-6.12,16.74-4.08,4.2-9.42,6.3-16.02,6.3s-11.91-2.1-15.93-6.3c-4.02-4.2-6.03-9.78-6.03-16.74v-39.6c0-6.96,2.01-12.57,6.03-16.83,4.02-4.26,9.33-6.39,15.93-6.39s12.09,2.13,16.11,6.39c4.02,4.26,6.03,9.87,6.03,16.83v39.6Z" style="stroke-width: 0px;"/>
  <path d="M444.96,615.73h58.86c.6,0,1.11-.21,1.53-.63.42-.42.63-.93.63-1.53v-17.46c0-.6-.21-1.11-.63-1.53-.42-.42-.93-.63-1.53-.63h-82.98c-.6,0-1.11.21-1.53.63s-.63.93-.63,1.53v121.68c0,.6.21,1.11.63,1.53.42.42.93.63,1.53.63h21.06c.6,0,1.11-.21,1.53-.63s.63-.93.63-1.53v-49.68c0-.6.3-.9.9-.9h38.7c.6,0,1.11-.21,1.53-.63.42-.42.63-.93.63-1.53v-17.46c0-.6-.21-1.11-.63-1.53-.42-.42-.93-.63-1.53-.63h-38.7c-.6,0-.9-.3-.9-.9v-27.9c0-.6.3-.9.9-.9Z" style="stroke-width: 0px;"/>
  <path d="M545.76,615.73h58.86c.6,0,1.11-.21,1.53-.63.42-.42.63-.93.63-1.53v-17.46c0-.6-.21-1.11-.63-1.53-.42-.42-.93-.63-1.53-.63h-82.98c-.6,0-1.11.21-1.53.63-.42.42-.63.93-.63,1.53v121.68c0,.6.21,1.11.63,1.53.42.42.93.63,1.53.63h21.06c.6,0,1.11-.21,1.53-.63s.63-.93.63-1.53v-49.68c0-.6.3-.9.9-.9h38.7c.6,0,1.11-.21,1.53-.63.42-.42.63-.93.63-1.53v-17.46c0-.6-.21-1.11-.63-1.53-.42-.42-.93-.63-1.53-.63h-38.7c-.6,0-.9-.3-.9-.9v-27.9c0-.6.3-.9.9-.9Z" style="stroke-width: 0px;"/>
  <path d="M702.09,698.8c-.42-.42-.93-.63-1.53-.63h-48.78c-.36,0-.6-.12-.72-.36-.12-.24-.06-.48.18-.72l2.7-2.7c8.52-8.64,14.94-15.24,19.26-19.8,4.32-4.56,8.34-9.18,12.06-13.86,5.04-6.12,8.82-11.82,11.34-17.1,2.52-5.28,3.78-10.44,3.78-15.48,0-6.6-1.71-12.6-5.13-18-3.42-5.4-8.28-9.69-14.58-12.87-6.3-3.18-13.71-4.77-22.23-4.77-7.68,0-14.61,1.32-20.79,3.96-6.18,2.64-11.13,6.45-14.85,11.43-3.72,4.98-5.76,10.71-6.12,17.19v8.46c0,.6.21,1.11.63,1.53.42.42.93.63,1.53.63h21.24c.6,0,1.11-.21,1.53-.63s.63-.93.63-1.53v-4.5c0-4.44,1.5-8.01,4.5-10.71,3-2.7,6.9-4.05,11.7-4.05s8.7,1.35,11.7,4.05c3,2.7,4.5,6.15,4.5,10.35,0,5.88-5.46,14.88-16.38,27-3.48,3.6-6.9,7.38-10.26,11.34-1.56,1.68-5.4,5.91-11.52,12.69-6.12,6.78-12.12,13.05-18,18.81-.72.72-1.08,1.62-1.08,2.7v16.56c0,.6.21,1.11.63,1.53.42.42.93.63,1.53.63h81c.6,0,1.11-.21,1.53-.63.42-.42.63-.93.63-1.53v-17.46c0-.6-.21-1.11-.63-1.53Z" style="stroke-width: 0px;"/>
</svg>