<?xml version="1.0" encoding="UTF-8"?>
<svg id="icon" xmlns="http://www.w3.org/2000/svg" viewBox="0 0 864 864">
  <path d="M244.08,613.75v-17.64c0-.6-.21-1.11-.63-1.53-.42-.42-.93-.63-1.53-.63h-90.72c-.6,0-1.11.21-1.53.63s-.63.93-.63,1.53v17.64c0,.6.21,1.11.63,1.53.42.42.93.63,1.53.63h31.32c.6,0,.9.3.9.9v100.98c0,.6.21,1.11.63,1.53.42.42.93.63,1.53.63h21.06c.6,0,1.11-.21,1.53-.63s.63-.93.63-1.53v-100.98c0-.6.3-.9.9-.9h32.22c.6,0,1.11-.21,1.53-.63s.63-.93.63-1.53Z" style="stroke-width: 0px;"/>
  <path d="M314.64,595.75c-.36-1.2-1.14-1.8-2.34-1.8h-28.26c-1.2,0-1.98.6-2.34,1.8l-38.88,121.68c-.24.84-.18,1.47.18,1.89.36.42.9.63,1.62.63h22.86c1.2,0,1.98-.6,2.34-1.8l5.22-17.64c.24-.48.54-.72.9-.72h44.28c.36,0,.66.24.9.72l5.4,17.64c.36,1.2,1.14,1.8,2.34,1.8h22.86c1.32,0,1.98-.54,1.98-1.62,0-.36-.06-.66-.18-.9l-38.88-121.68ZM313.92,680.17h-31.68c-.6,0-.84-.36-.72-1.08l15.84-53.46c.12-.36.3-.57.54-.63.24-.06.42.15.54.63l16.2,53.46c.24.72,0,1.08-.72,1.08Z" style="stroke-width: 0px;"/>
  <path d="M437.94,666.49c-.24-.6-.06-1.02.54-1.26,7.32-2.4,13.02-6.51,17.1-12.33,4.08-5.82,6.12-12.81,6.12-20.97,0-7.56-1.59-14.22-4.77-19.98-3.18-5.76-7.68-10.2-13.5-13.32-5.82-3.12-12.57-4.68-20.25-4.68h-51.48c-.6,0-1.11.21-1.53.63s-.63.93-.63,1.53v121.68c0,.6.21,1.11.63,1.53.42.42.93.63,1.53.63h21.06c.6,0,1.11-.21,1.53-.63.42-.42.63-.93.63-1.53v-49.14c0-.6.3-.9.9-.9h16.74c.48,0,.84.24,1.08.72l22.5,49.86c.48,1.08,1.32,1.62,2.52,1.62h22.14c1.32,0,1.98-.48,1.98-1.44,0-.24-.12-.6-.36-1.08l-24.48-50.94ZM431.73,643.81c-3.18,3-7.29,4.5-12.33,4.5h-23.58c-.6,0-.9-.3-.9-.9v-30.78c0-.6.3-.9.9-.9h23.58c5.04,0,9.15,1.53,12.33,4.59,3.18,3.06,4.77,6.99,4.77,11.79s-1.59,8.7-4.77,11.7Z" style="stroke-width: 0px;"/>
  <path d="M647.95,262.99c0-.1-.02-.21-.03-.31-.03-.31-.08-.63-.14-.94,0-.04-.01-.08-.02-.12-.07-.34-.16-.69-.26-1.02-.03-.09-.06-.18-.09-.27-.08-.26-.17-.51-.27-.76-.04-.09-.07-.18-.11-.27-.13-.31-.27-.62-.43-.92,0-.01-.01-.03-.02-.04-.17-.32-.35-.62-.55-.92-.05-.08-.1-.15-.15-.22-.15-.22-.32-.44-.49-.66-.06-.08-.13-.16-.19-.24-.2-.23-.4-.46-.62-.68-.03-.03-.06-.07-.09-.1l-108-108c-2.25-2.25-5.3-3.51-8.49-3.51H228c-6.63,0-12,5.37-12,12v420h24V168h274.55v96c0,6.63,5.37,12,12,12h97.45v300h24v-312c0-.06,0-.12,0-.18,0-.28-.02-.56-.04-.83ZM538.55,252v-67.3l68.2,67.3h-68.2Z" style="stroke-width: 0px;"/>
</svg>