<?xml version="1.0" encoding="UTF-8"?>
<svg id="icon" xmlns="http://www.w3.org/2000/svg" viewBox="0 0 864 864">
  <path d="M236.97,719.32c.42.42.93.63,1.53.63h21.06c.6,0,1.11-.21,1.53-.63s.63-.93.63-1.53v-121.68c0-.6-.21-1.11-.63-1.53-.42-.42-.93-.63-1.53-.63h-21.06c-1.08,0-1.92.48-2.52,1.44l-27.18,41.94c-.36.72-.72.72-1.08,0l-27-41.94c-.6-.96-1.44-1.44-2.52-1.44h-21.06c-.6,0-1.11.21-1.53.63s-.63.93-.63,1.53v121.68c0,.6.21,1.11.63,1.53.42.42.93.63,1.53.63h21.06c.6,0,1.11-.21,1.53-.63.42-.42.63-.93.63-1.53v-79.2c0-.48.12-.75.36-.81.24-.06.48.09.72.45l19.08,29.88c.6.96,1.44,1.44,2.52,1.44h10.62c1.08,0,1.92-.48,2.52-1.44l19.08-29.88c.24-.36.48-.54.72-.54s.36.24.36.72v79.38c0,.6.21,1.11.63,1.53Z" style="stroke-width: 0px;"/>
  <path d="M303.75,716.17c7.14,3.84,15.39,5.76,24.75,5.76s17.79-1.89,24.93-5.67c7.14-3.78,12.69-9.15,16.65-16.11,3.96-6.96,5.94-14.94,5.94-23.94v-38.52c0-8.88-1.98-16.74-5.94-23.58-3.96-6.84-9.51-12.15-16.65-15.93-7.14-3.78-15.45-5.67-24.93-5.67s-17.61,1.89-24.75,5.67c-7.14,3.78-12.69,9.09-16.65,15.93-3.96,6.84-5.94,14.7-5.94,23.58v38.52c0,9,1.98,16.95,5.94,23.85,3.96,6.9,9.51,12.27,16.65,16.11ZM306.54,637.51c0-6.96,2.01-12.57,6.03-16.83,4.02-4.26,9.33-6.39,15.93-6.39s12.09,2.13,16.11,6.39c4.02,4.26,6.03,9.87,6.03,16.83v39.6c0,6.96-2.04,12.54-6.12,16.74-4.08,4.2-9.42,6.3-16.02,6.3s-11.91-2.1-15.93-6.3c-4.02-4.2-6.03-9.78-6.03-16.74v-39.6Z" style="stroke-width: 0px;"/>
  <path d="M426.24,719.95h22.68c1.2,0,1.98-.6,2.34-1.8l37.62-121.68c.24-.72.18-1.32-.18-1.8-.36-.48-.9-.72-1.62-.72h-22.14c-1.32,0-2.16.6-2.52,1.8l-23.58,87.84c-.12.36-.3.54-.54.54s-.42-.18-.54-.54l-23.94-87.84c-.36-1.2-1.2-1.8-2.52-1.8h-22.68c-1.32,0-1.98.6-1.98,1.8l.18.72,37.08,121.68c.36,1.2,1.14,1.8,2.34,1.8Z" style="stroke-width: 0px;"/>
  <path d="M647.95,262.99c0-.11-.02-.21-.03-.31-.03-.31-.08-.62-.14-.92,0-.04-.01-.09-.02-.13-.07-.34-.16-.68-.26-1.02-.03-.09-.06-.19-.09-.28-.08-.25-.17-.5-.27-.75-.04-.1-.07-.19-.12-.29-.13-.3-.27-.6-.42-.89-.01-.02-.02-.04-.03-.06-.17-.31-.35-.62-.55-.92-.05-.08-.11-.16-.16-.24-.15-.22-.31-.43-.48-.64-.07-.09-.14-.17-.21-.26-.19-.23-.39-.45-.6-.66-.04-.04-.07-.08-.1-.11l-108-108c-2.25-2.25-5.3-3.51-8.49-3.51H228c-6.63,0-12,5.37-12,12v420h24V168h274.55v96c0,6.63,5.37,12,12,12h97.45v300h24v-312c0-.06,0-.12,0-.18,0-.28-.02-.55-.04-.82ZM538.55,252v-67.3l68.2,67.3h-68.2Z" style="stroke-width: 0px;"/>
</svg>