<?xml version="1.0" encoding="UTF-8"?>
<svg id="icon" xmlns="http://www.w3.org/2000/svg" viewBox="0 0 864 864">
  <path d="M229.68,654.25c10.2-5.16,15.3-13.74,15.3-25.74,0-23.04-14.22-34.56-42.66-34.56h-45.18c-.6,0-1.11.21-1.53.63s-.63.93-.63,1.53v121.68c0,.6.21,1.11.63,1.53.42.42.93.63,1.53.63h46.62c12.84,0,23.22-2.97,31.14-8.91s11.88-14.73,11.88-26.37c0-13.68-5.7-23.46-17.1-29.34-.72-.36-.72-.72,0-1.08ZM180.36,616.63c0-.6.3-.9.9-.9h21.06c5.64,0,10.02,1.35,13.14,4.05,3.12,2.7,4.68,6.39,4.68,11.07s-1.56,8.16-4.68,10.8c-3.12,2.64-7.5,3.96-13.14,3.96h-21.06c-.6,0-.9-.3-.9-.9v-28.08ZM216.72,693.76c-3.12,2.82-7.44,4.23-12.96,4.23h-22.5c-.6,0-.9-.3-.9-.9v-29.88c0-.6.3-.9.9-.9h22.32c5.64,0,10.02,1.41,13.14,4.23,3.12,2.82,4.68,6.69,4.68,11.61s-1.56,8.79-4.68,11.61Z" style="stroke-width: 0px;"/>
  <path d="M348.57,719.32c.42.42.93.63,1.53.63h21.06c.6,0,1.11-.21,1.53-.63s.63-.93.63-1.53v-121.68c0-.6-.21-1.11-.63-1.53-.42-.42-.93-.63-1.53-.63h-21.06c-1.08,0-1.92.48-2.52,1.44l-27.18,41.94c-.36.72-.72.72-1.08,0l-27-41.94c-.6-.96-1.44-1.44-2.52-1.44h-21.06c-.6,0-1.11.21-1.53.63s-.63.93-.63,1.53v121.68c0,.6.21,1.11.63,1.53.42.42.93.63,1.53.63h21.06c.6,0,1.11-.21,1.53-.63s.63-.93.63-1.53v-79.2c0-.48.12-.75.36-.81.24-.06.48.09.72.45l19.08,29.88c.6.96,1.44,1.44,2.52,1.44h10.62c1.08,0,1.92-.48,2.52-1.44l19.08-29.88c.24-.36.48-.54.72-.54s.36.24.36.72v79.38c0,.6.21,1.11.63,1.53Z" style="stroke-width: 0px;"/>
  <path d="M417.6,719.95c.6,0,1.11-.21,1.53-.63.42-.42.63-.93.63-1.53v-45.9c0-.6.3-.9.9-.9h25.56c8.04,0,15.15-1.59,21.33-4.77,6.18-3.18,10.98-7.65,14.4-13.41,3.42-5.76,5.13-12.42,5.13-19.98s-1.65-14.49-4.95-20.43c-3.3-5.94-7.95-10.53-13.95-13.77-6-3.24-12.96-4.86-20.88-4.86h-50.76c-.6,0-1.11.21-1.53.63-.42.42-.63.93-.63,1.53v121.86c0,.6.21,1.11.63,1.53.42.42.93.63,1.53.63h21.06ZM419.76,616.63c0-.6.3-.9.9-.9h22.86c5.52,0,9.96,1.62,13.32,4.86,3.36,3.24,5.04,7.5,5.04,12.78s-1.68,9.33-5.04,12.51c-3.36,3.18-7.8,4.77-13.32,4.77h-22.86c-.6,0-.9-.3-.9-.9v-33.12Z" style="stroke-width: 0px;"/>
  <path d="M647.95,262.99c0-.1-.02-.21-.03-.31-.03-.32-.08-.63-.14-.94,0-.04-.01-.07-.02-.11-.07-.35-.16-.69-.26-1.03-.03-.09-.06-.18-.09-.27-.08-.26-.17-.51-.27-.76-.04-.09-.07-.18-.11-.27-.13-.31-.27-.61-.43-.91,0-.01-.01-.03-.02-.04-.17-.31-.35-.62-.55-.92-.05-.08-.11-.15-.16-.23-.15-.22-.31-.44-.48-.65-.07-.08-.13-.17-.2-.25-.19-.23-.39-.45-.6-.67-.04-.04-.07-.08-.1-.11l-108-108c-2.25-2.25-5.3-3.51-8.49-3.51H228c-6.63,0-12,5.37-12,12v420h24V168h274.55v96c0,6.63,5.37,12,12,12h97.45v300h24v-312c0-.06,0-.12,0-.18,0-.28-.02-.56-.04-.83ZM538.55,252v-67.3l68.2,67.3h-68.2Z" style="stroke-width: 0px;"/>
</svg>