<?xml version="1.0" encoding="UTF-8"?>
<svg id="icon" xmlns="http://www.w3.org/2000/svg" viewBox="0 0 864 864">
  <path d="M176.04,718.15l5.22-17.64c.24-.48.54-.72.9-.72h44.28c.36,0,.66.24.9.72l5.4,17.64c.36,1.2,1.14,1.8,2.34,1.8h22.86c1.32,0,1.98-.54,1.98-1.62,0-.36-.06-.66-.18-.9l-38.88-121.68c-.36-1.2-1.14-1.8-2.34-1.8h-28.26c-1.2,0-1.98.6-2.34,1.8l-38.88,121.68c-.24.84-.18,1.47.18,1.89.36.42.9.63,1.62.63h22.86c1.2,0,1.98-.6,2.34-1.8ZM187.74,679.09l15.84-53.46c.12-.36.3-.57.54-.63.24-.06.42.15.54.63l16.2,53.46c.24.72,0,1.08-.72,1.08h-31.68c-.6,0-.84-.36-.72-1.08Z" style="stroke-width: 0px;"/>
  <path d="M294.48,719.95c1.2,0,1.98-.6,2.34-1.8l5.22-17.64c.24-.48.54-.72.9-.72h44.28c.36,0,.66.24.9.72l5.4,17.64c.36,1.2,1.14,1.8,2.34,1.8h22.86c1.32,0,1.98-.54,1.98-1.62,0-.36-.06-.66-.18-.9l-38.88-121.68c-.36-1.2-1.14-1.8-2.34-1.8h-28.26c-1.2,0-1.98.6-2.34,1.8l-38.88,121.68c-.24.84-.18,1.47.18,1.89.36.42.9.63,1.62.63h22.86ZM308.52,679.09l15.84-53.46c.12-.36.3-.57.54-.63.24-.06.42.15.54.63l16.2,53.46c.24.72,0,1.08-.72,1.08h-31.68c-.6,0-.84-.36-.72-1.08Z" style="stroke-width: 0px;"/>
  <path d="M421.47,620.05c3.9-3.84,9.09-5.76,15.57-5.76s11.49,1.92,15.39,5.76c3.9,3.84,5.85,8.94,5.85,15.3,0,1.32.6,1.98,1.8,1.98h.36l21.06-1.26c1.44-.24,2.16-.9,2.16-1.98,0-8.28-1.95-15.57-5.85-21.87-3.9-6.3-9.36-11.16-16.38-14.58s-15.15-5.13-24.39-5.13-17.58,1.8-24.66,5.4c-7.08,3.6-12.54,8.7-16.38,15.3-3.84,6.6-5.76,14.22-5.76,22.86v41.58c0,8.64,1.92,16.26,5.76,22.86,3.84,6.6,9.3,11.73,16.38,15.39,7.08,3.66,15.3,5.49,24.66,5.49s17.37-1.74,24.39-5.22c7.02-3.48,12.48-8.4,16.38-14.76,3.9-6.36,5.85-13.68,5.85-21.96,0-.48-.21-.9-.63-1.26-.42-.36-.93-.54-1.53-.54l-21.06-.9c-1.44,0-2.16.66-2.16,1.98,0,6.24-1.95,11.28-5.85,15.12-3.9,3.84-9.03,5.76-15.39,5.76s-11.67-1.92-15.57-5.76c-3.9-3.84-5.85-8.88-5.85-15.12v-43.38c0-6.36,1.95-11.46,5.85-15.3Z" style="stroke-width: 0px;"/>
  <path d="M647.95,262.99c0-.11-.02-.21-.03-.31-.03-.31-.08-.62-.14-.92,0-.04-.01-.09-.02-.13-.07-.34-.16-.68-.26-1.02-.03-.09-.06-.19-.09-.28-.08-.25-.17-.5-.27-.75-.04-.1-.07-.19-.12-.29-.13-.3-.27-.6-.42-.89-.01-.02-.02-.04-.03-.06-.17-.31-.35-.62-.55-.92-.05-.08-.11-.16-.16-.24-.15-.22-.31-.43-.48-.64-.07-.09-.14-.17-.21-.26-.19-.23-.39-.45-.6-.66-.04-.04-.07-.08-.1-.11l-108-108c-2.25-2.25-5.3-3.51-8.49-3.51H228c-6.63,0-12,5.37-12,12v420h24V168h274.55v96c0,6.63,5.37,12,12,12h97.45v300h24v-312c0-.06,0-.12,0-.18,0-.28-.02-.55-.04-.82ZM538.55,252v-67.3l68.2,67.3h-68.2Z" style="stroke-width: 0px;"/>
</svg>