<?xml version="1.0" encoding="UTF-8"?>
<svg id="icon" xmlns="http://www.w3.org/2000/svg" viewBox="0 0 864 864">
  <path d="M183.42,616.81v100.98c0,.6.21,1.11.63,1.53.42.42.93.63,1.53.63h21.06c.6,0,1.11-.21,1.53-.63.42-.42.63-.93.63-1.53v-100.98c0-.6.3-.9.9-.9h32.22c.6,0,1.11-.21,1.53-.63.42-.42.63-.93.63-1.53v-17.64c0-.6-.21-1.11-.63-1.53-.42-.42-.93-.63-1.53-.63h-90.72c-.6,0-1.11.21-1.53.63-.42.42-.63.93-.63,1.53v17.64c0,.6.21,1.11.63,1.53.42.42.93.63,1.53.63h31.32c.6,0,.9.3.9.9Z" style="stroke-width: 0px;"/>
  <path d="M255.06,717.43c-.48.72-.54,1.32-.18,1.8.36.48.96.72,1.8.72h22.68c1.2,0,2.1-.48,2.7-1.44l23.58-41.04c.36-.72.72-.72,1.08,0l23.4,41.04c.6.96,1.5,1.44,2.7,1.44h22.68c1.32,0,1.98-.48,1.98-1.44l-.36-1.08-34.92-59.94c-.12-.36-.12-.72,0-1.08l34.92-59.94c.48-.72.54-1.32.18-1.8-.36-.48-.96-.72-1.8-.72h-22.68c-1.2,0-2.1.48-2.7,1.44l-23.4,41.22c-.36.72-.72.72-1.08,0l-23.4-41.22c-.6-.96-1.5-1.44-2.7-1.44h-22.86c-1.32,0-1.98.48-1.98,1.44l.36,1.08,34.92,59.94c.24.36.24.72,0,1.08l-34.92,59.94Z" style="stroke-width: 0px;"/>
  <path d="M402.93,719.32c.42.42.93.63,1.53.63h21.06c.6,0,1.11-.21,1.53-.63s.63-.93.63-1.53v-100.98c0-.6.3-.9.9-.9h32.22c.6,0,1.11-.21,1.53-.63s.63-.93.63-1.53v-17.64c0-.6-.21-1.11-.63-1.53-.42-.42-.93-.63-1.53-.63h-90.72c-.6,0-1.11.21-1.53.63s-.63.93-.63,1.53v17.64c0,.6.21,1.11.63,1.53.42.42.93.63,1.53.63h31.32c.6,0,.9.3.9.9v100.98c0,.6.21,1.11.63,1.53Z" style="stroke-width: 0px;"/>
  <path d="M647.95,262.99c0-.1-.02-.21-.03-.31-.03-.31-.08-.62-.14-.93,0-.04-.01-.08-.02-.12-.07-.34-.16-.68-.26-1.02-.03-.09-.06-.19-.09-.28-.08-.25-.17-.5-.27-.75-.04-.09-.07-.19-.11-.28-.13-.3-.27-.6-.42-.9-.01-.02-.02-.04-.03-.06-.17-.31-.35-.62-.55-.92-.05-.08-.11-.16-.16-.24-.15-.22-.31-.43-.47-.64-.07-.09-.14-.17-.21-.26-.19-.22-.39-.44-.59-.66-.04-.04-.07-.08-.11-.12l-108-108c-2.25-2.25-5.3-3.51-8.49-3.51H228c-6.63,0-12,5.37-12,12v420h24V168h274.55v96c0,6.63,5.37,12,12,12h97.45v300h24v-312c0-.06,0-.12,0-.18,0-.28-.02-.55-.04-.83ZM538.55,252v-67.3l68.2,67.3h-68.2Z" style="stroke-width: 0px;"/>
</svg>