<?xml version="1.0" encoding="UTF-8"?>
<svg id="icon" xmlns="http://www.w3.org/2000/svg" viewBox="0 0 864 864">
  <path d="M178.2,719.95c.6,0,1.11-.21,1.53-.63.42-.42.63-.93.63-1.53v-121.68c0-.6-.21-1.11-.63-1.53-.42-.42-.93-.63-1.53-.63h-21.06c-.6,0-1.11.21-1.53.63s-.63.93-.63,1.53v121.68c0,.6.21,1.11.63,1.53.42.42.93.63,1.53.63h21.06Z" style="stroke-width: 0px;"/>
  <path d="M231.03,620.05c3.9-3.84,9.09-5.76,15.57-5.76s11.49,1.92,15.39,5.76c3.9,3.84,5.85,8.94,5.85,15.3,0,1.32.6,1.98,1.8,1.98h.36l21.06-1.26c1.44-.24,2.16-.9,2.16-1.98,0-8.28-1.95-15.57-5.85-21.87-3.9-6.3-9.36-11.16-16.38-14.58s-15.15-5.13-24.39-5.13-17.58,1.8-24.66,5.4c-7.08,3.6-12.54,8.7-16.38,15.3-3.84,6.6-5.76,14.22-5.76,22.86v41.58c0,8.64,1.92,16.26,5.76,22.86,3.84,6.6,9.3,11.73,16.38,15.39,7.08,3.66,15.3,5.49,24.66,5.49s17.37-1.74,24.39-5.22c7.02-3.48,12.48-8.4,16.38-14.76,3.9-6.36,5.85-13.68,5.85-21.96,0-.48-.21-.9-.63-1.26-.42-.36-.93-.54-1.53-.54l-21.06-.9c-1.44,0-2.16.66-2.16,1.98,0,6.24-1.95,11.28-5.85,15.12-3.9,3.84-9.03,5.76-15.39,5.76s-11.67-1.92-15.57-5.76c-3.9-3.84-5.85-8.88-5.85-15.12v-43.38c0-6.36,1.95-11.46,5.85-15.3Z" style="stroke-width: 0px;"/>
  <path d="M331.82,716.17c7.14,3.84,15.39,5.76,24.75,5.76s17.79-1.89,24.93-5.67c7.14-3.78,12.69-9.15,16.65-16.11,3.96-6.96,5.94-14.94,5.94-23.94v-38.52c0-8.88-1.98-16.74-5.94-23.58-3.96-6.84-9.51-12.15-16.65-15.93-7.14-3.78-15.45-5.67-24.93-5.67s-17.61,1.89-24.75,5.67c-7.14,3.78-12.69,9.09-16.65,15.93-3.96,6.84-5.94,14.7-5.94,23.58v38.52c0,9,1.98,16.95,5.94,23.85,3.96,6.9,9.51,12.27,16.65,16.11ZM334.61,637.51c0-6.96,2.01-12.57,6.03-16.83,4.02-4.26,9.33-6.39,15.93-6.39s12.09,2.13,16.11,6.39c4.02,4.26,6.03,9.87,6.03,16.83v39.6c0,6.96-2.04,12.54-6.12,16.74-4.08,4.2-9.42,6.3-16.02,6.3s-11.91-2.1-15.93-6.3c-4.02-4.2-6.03-9.78-6.03-16.74v-39.6Z" style="stroke-width: 0px;"/>
  <path d="M647.95,262.99c0-.11-.02-.21-.03-.32-.03-.31-.08-.62-.14-.92,0-.04-.01-.09-.02-.13-.07-.34-.16-.68-.26-1.02-.03-.1-.06-.19-.09-.28-.08-.25-.17-.5-.27-.75-.04-.1-.08-.19-.12-.29-.13-.3-.27-.6-.42-.9,0-.02-.02-.04-.03-.06-.17-.31-.35-.62-.55-.92-.05-.08-.11-.15-.16-.23-.15-.22-.31-.44-.48-.65-.07-.08-.13-.17-.2-.25-.2-.23-.4-.46-.62-.68-.03-.03-.06-.07-.09-.1l-108-108c-2.25-2.25-5.3-3.51-8.49-3.51H228c-6.63,0-12,5.37-12,12v420h24V168h274.55v96c0,6.63,5.37,12,12,12h97.45v300h24v-312c0-.06,0-.12,0-.18,0-.27-.02-.55-.04-.82ZM538.55,252v-67.3l68.2,67.3h-68.2Z" style="stroke-width: 0px;"/>
</svg>