<?xml version="1.0" encoding="UTF-8"?>
<svg id="icon" xmlns="http://www.w3.org/2000/svg" viewBox="0 0 864 864">
  <path d="M220.95,635.98c.42.42.93.63,1.53.63h21.06c.6,0,1.11-.21,1.53-.63s.63-.93.63-1.53v-1.26c0-7.56-1.95-14.43-5.85-20.61-3.9-6.18-9.36-11.07-16.38-14.67-7.02-3.6-15.09-5.4-24.21-5.4s-17.4,1.83-24.48,5.49c-7.08,3.66-12.57,8.85-16.47,15.57-3.9,6.72-5.85,14.46-5.85,23.22v40.32c0,8.76,1.95,16.47,5.85,23.13,3.9,6.66,9.39,11.85,16.47,15.57,7.08,3.72,15.24,5.58,24.48,5.58s17.37-1.77,24.39-5.31c7.02-3.54,12.45-8.67,16.29-15.39,3.84-6.72,5.76-14.64,5.76-23.76v-23.76c0-.6-.21-1.11-.63-1.53-.42-.42-.93-.63-1.53-.63h-43.92c-.6,0-1.11.21-1.53.63s-.63.93-.63,1.53v16.56c0,.6.21,1.11.63,1.53.42.42.93.63,1.53.63h20.16c.6,0,.9.3.9.9v8.1c0,5.88-1.86,10.47-5.58,13.77-3.72,3.3-8.7,4.95-14.94,4.95s-11.82-2.01-16.02-6.03c-4.2-4.02-6.3-9.27-6.3-15.75v-41.76c0-6.48,1.95-11.73,5.85-15.75,3.9-4.02,9.09-6.03,15.57-6.03s11.46,1.89,15.3,5.67c3.84,3.78,5.76,8.43,5.76,13.95v.54c0,.6.21,1.11.63,1.53Z" style="stroke-width: 0px;"/>
  <path d="M288.36,719.95c.6,0,1.11-.21,1.53-.63s.63-.93.63-1.53v-121.68c0-.6-.21-1.11-.63-1.53-.42-.42-.93-.63-1.53-.63h-21.06c-.6,0-1.11.21-1.53.63-.42.42-.63.93-.63,1.53v121.68c0,.6.21,1.11.63,1.53.42.42.93.63,1.53.63h21.06Z" style="stroke-width: 0px;"/>
  <path d="M338.76,615.73h58.86c.6,0,1.11-.21,1.53-.63s.63-.93.63-1.53v-17.46c0-.6-.21-1.11-.63-1.53-.42-.42-.93-.63-1.53-.63h-82.98c-.6,0-1.11.21-1.53.63s-.63.93-.63,1.53v121.68c0,.6.21,1.11.63,1.53.42.42.93.63,1.53.63h21.06c.6,0,1.11-.21,1.53-.63s.63-.93.63-1.53v-49.68c0-.6.3-.9.9-.9h38.7c.6,0,1.11-.21,1.53-.63s.63-.93.63-1.53v-17.46c0-.6-.21-1.11-.63-1.53-.42-.42-.93-.63-1.53-.63h-38.7c-.6,0-.9-.3-.9-.9v-27.9c0-.6.3-.9.9-.9Z" style="stroke-width: 0px;"/>
  <path d="M647.95,262.99c0-.1-.02-.21-.03-.31-.03-.32-.08-.63-.14-.94,0-.04-.01-.07-.02-.11-.07-.35-.16-.69-.26-1.03-.03-.09-.06-.18-.09-.27-.08-.26-.17-.51-.27-.76-.04-.09-.07-.18-.11-.27-.13-.31-.27-.61-.43-.91,0-.01-.01-.03-.02-.04-.17-.31-.35-.62-.55-.92-.05-.08-.11-.15-.16-.23-.15-.22-.31-.44-.48-.65-.07-.08-.13-.17-.2-.25-.19-.23-.39-.45-.6-.67-.04-.04-.07-.08-.1-.11l-108-108c-2.25-2.25-5.3-3.51-8.49-3.51H228c-6.63,0-12,5.37-12,12v420h24V168h274.55v96c0,6.63,5.37,12,12,12h97.45v300h24v-312c0-.06,0-.12,0-.18,0-.28-.02-.56-.04-.83ZM538.55,252v-67.3l68.2,67.3h-68.2Z" style="stroke-width: 0px;"/>
</svg>