<?xml version="1.0" encoding="UTF-8"?>
<svg id="icon" xmlns="http://www.w3.org/2000/svg" viewBox="0 0 864 864">
  <path d="M704.55,505.79l-75.77-182.93c-4.6-11.1-13.25-19.75-24.35-24.35-11.11-4.6-23.34-4.6-34.44,0l-95.07,39.38,13.78,13.78,33.85,33.86c24.56,24.56,24.56,64.53,0,89.09h0s-87.08,87.09-87.08,87.09l-13.78,13.78,16.79,40.53c7.17,17.31,23.97,27.78,41.63,27.78,5.73,0,11.55-1.1,17.16-3.43l182.93-75.77c11.1-4.6,19.75-13.25,24.35-24.35,4.6-11.1,4.6-23.34,0-34.44ZM579.48,391.99c-9.18,3.8-19.71-.56-23.52-9.74s.56-19.71,9.74-23.52c9.18-3.8,19.71.56,23.52,9.74,3.8,9.18-.56,19.71-9.74,23.52ZM634.59,525.03c-9.18,3.8-19.71-.56-23.52-9.74-3.8-9.18.56-19.71,9.74-23.52,9.18-3.8,19.71.56,23.52,9.74,3.8,9.18-.56,19.71-9.74,23.52ZM487.77,546.88c9.18-3.8,19.71.56,23.52,9.74,3.8,9.18-.56,19.71-9.74,23.52s-19.71-.56-23.52-9.74c-3.8-9.18.56-19.71,9.74-23.52Z" style="stroke-width: 0px;"/>
  <path d="M509.82,461.89c17.54-17.55,17.54-46.09,0-63.64l-39.13-39.13-13.78-13.78-87.1-87.1c-17.54-17.54-46.09-17.54-63.64,0l-140.01,140.01c-8.5,8.5-13.18,19.8-13.18,31.82s4.68,23.32,13.18,31.82l140.01,140.01c8.77,8.77,20.29,13.16,31.82,13.16s23.05-4.39,31.82-13.16l44.42-44.42,13.78-13.78,81.81-81.81ZM452.54,442.79c-7.03,7.03-18.43,7.03-25.46,0-6.09-6.09-6.89-15.45-2.43-22.42,1.91-2.82,4.63-5.14,8.01-6.54,9.18-3.8,19.71.56,23.52,9.74,2.34,5.65,1.58,11.81-1.48,16.6-.63.92-1.34,1.8-2.16,2.62ZM350.72,442.79c-7.03,7.03-18.43,7.03-25.46,0-7.03-7.03-7.03-18.43,0-25.46,7.03-7.03,18.43-7.03,25.46,0,7.03,7.03,7.03,18.43,0,25.46ZM350.72,544.62c-7.03,7.03-18.43,7.03-25.46,0-7.03-7.03-7.03-18.43,0-25.46,7.03-7.03,18.43-7.03,25.46,0,7.03,7.03,7.03,18.43,0,25.46ZM350.72,340.97c-7.03,7.03-18.43,7.03-25.46,0-7.03-7.03-7.03-18.43,0-25.46,7.03-7.03,18.43-7.03,25.46,0,7.03,7.03,7.03,18.43,0,25.46ZM248.9,442.79c-7.03,7.03-18.43,7.03-25.46,0-7.03-7.03-7.03-18.43,0-25.46,7.03-7.03,18.43-7.03,25.46,0,7.03,7.03,7.03,18.43,0,25.46Z" style="stroke-width: 0px;"/>
</svg>