<?xml version="1.0" encoding="UTF-8"?>
<svg id="a" data-name="Layer 1" xmlns="http://www.w3.org/2000/svg" viewBox="0 0 20 20">
  <path d="M13.5,0c-.28,0-.5,.22-.5,.5V2.5c0,.28,.22,.5,.5,.5s.5-.22,.5-.5V.5c0-.28-.22-.5-.5-.5h0Z"/>
  <path d="M17,6.5c0,.28,.22,.5,.5,.5h2c.28,0,.5-.22,.5-.5s-.22-.5-.5-.5h-2c-.28,0-.5,.22-.5,.5h0Z"/>
  <path d="M8.9,2.61c-.2-.19-.2-.51,0-.71,.19-.19,.51-.19,.71,0l1.41,1.41c.19,.19,.19,.51,0,.71-.2,.19-.51,.19-.71,0l-1.41-1.41h0Z"/>
  <path d="M15.97,8.98c-.2,.19-.2,.51,0,.71l1.41,1.41c.19,.19,.51,.19,.71,0,.19-.19,.19-.51,0-.71l-1.41-1.41c-.2-.19-.51-.19-.71,0h0Z"/>
  <path d="M16.68,4.02c-.19,.19-.51,.19-.71,0s-.19-.51,0-.71l1.41-1.41c.2-.19,.51-.19,.71,0,.2,.19,.2,.51,0,.71l-1.41,1.41h0Z"/>
  <path d="M16,6.5c0,.85-.43,1.61-1.08,2.06l-.73-.73c.48-.25,.81-.75,.81-1.33,0-.83-.67-1.5-1.5-1.5-.58,0-1.08,.33-1.33,.81l-.73-.73c.45-.65,1.2-1.08,2.06-1.08,1.38,0,2.5,1.12,2.5,2.5h0Z"/>
  <path class="b" d="M5,14c0-.55,.45-1,1-1h4c.55,0,1,.45,1,1v3c0,.55-.45,1-1,1h-4c-.55,0-1-.45-1-1v-3h0Zm1,0h4v3h-4v-3h0Z"/>
  <path class="b" d="M9.22,4.51l6.66,6.74c.27,.28,.08,.75-.3,.75h-.57v7c0,.55-.45,1-1,1H2c-.55,0-1-.45-1-1v-7H.43c-.38,0-.58-.47-.3-.75l.87-.88V6c0-.55,.45-1,1-1h1c.55,0,1,.45,1,1v1.33l2.78-2.82c.67-.68,1.76-.68,2.43,0h0ZM2,12v7H14v-7H2Zm0-6v3.36l1-1.01v-2.34h-1Zm6.51-.79l5.71,5.79H1.78L7.49,5.21c.28-.28,.73-.28,1.01,0h0Z"/>
</svg>