<?xml version="1.0" encoding="UTF-8"?>
<svg id="icon" xmlns="http://www.w3.org/2000/svg" viewBox="0 0 864 864">
  <path d="M178.08,376.36l430.36,248.47c1.87,1.08,3.94,1.61,6,1.61,3.11,0,6.18-1.2,8.49-3.52,3.84-3.84,4.62-9.78,1.91-14.49l-248.47-430.36c-2.43-4.2-7.14-6.53-11.96-5.9-4.81.63-8.77,4.1-10.02,8.79l-36.64,136.76-136.76,36.64c-4.69,1.26-8.16,5.21-8.79,10.02-.63,4.81,1.69,9.53,5.9,11.96ZM340.02,327.29l30.04-112.12,194.2,336.37-224.25-224.24ZM327.29,340.02l224.24,224.24-336.37-194.2,112.12-30.04Z" style="stroke-width: 0px;"/>
</svg>