<?xml version="1.0" encoding="UTF-8"?>
<svg id="icon" xmlns="http://www.w3.org/2000/svg" viewBox="0 0 864 864">
  <path d="M180.97,509.62l136.76,36.64,36.64,136.76c1.26,4.69,5.21,8.16,10.02,8.79.53.07,1.05.1,1.57.1,4.25,0,8.23-2.26,10.39-6l248.47-430.36c2.72-4.7,1.93-10.64-1.91-14.49s-9.78-4.62-14.49-1.91l-430.36,248.47c-4.2,2.43-6.53,7.15-5.9,11.96.63,4.81,4.1,8.77,8.79,10.02ZM215.17,493.94l336.37-194.2-224.24,224.25-112.12-30.04ZM564.26,312.47l-194.2,336.37-30.04-112.12,224.24-224.24Z" style="stroke-width: 0px;"/>
</svg>