<?xml version="1.0" encoding="UTF-8"?>
<svg id="icon" xmlns="http://www.w3.org/2000/svg" viewBox="0 0 864 864">
  <path d="M487.64,685.92c2.16,3.74,6.14,6,10.39,6,.52,0,1.04-.03,1.57-.1,4.81-.63,8.77-4.1,10.02-8.79l36.64-136.76,136.76-36.64c4.69-1.26,8.16-5.21,8.79-10.02s-1.69-9.53-5.9-11.96L255.57,239.17c-4.71-2.72-10.64-1.93-14.49,1.91-3.84,3.84-4.62,9.78-1.91,14.49l248.47,430.36ZM523.98,536.71l-30.04,112.12-194.2-336.37,224.24,224.24ZM536.71,523.98l-224.25-224.24,336.37,194.2-112.12,30.04Z" style="stroke-width: 0px;"/>
</svg>