<?xml version="1.0" encoding="UTF-8"?>
<svg id="icon" xmlns="http://www.w3.org/2000/svg" viewBox="0 0 864 864">
  <path d="M270.4,432l-70.79,122.62c-2.43,4.2-2.08,9.45.87,13.31,2.31,3.01,5.85,4.7,9.52,4.7,1.03,0,2.08-.13,3.11-.41l480-128.62c5.25-1.41,8.89-6.16,8.89-11.59s-3.65-10.19-8.89-11.59l-480-128.62c-4.69-1.26-9.67.44-12.63,4.29-2.95,3.85-3.3,9.1-.87,13.31l70.79,122.62ZM610.05,441l-375.17,100.53,58.04-100.53h317.13ZM610.05,423h-317.13l-58.04-100.53,375.17,100.53Z" style="stroke-width: 0px;"/>
</svg>