<?xml version="1.0" encoding="UTF-8"?>
<svg id="icon" xmlns="http://www.w3.org/2000/svg" viewBox="0 0 864 864">
  <path d="M432,144c-159.06,0-288,128.94-288,288s128.94,288,288,288,288-128.94,288-288-128.94-288-288-288ZM610.39,525.68c2.43,4.2,2.08,9.45-.87,13.31-2.31,3.01-5.85,4.7-9.52,4.7-1.03,0-2.08-.13-3.11-.41l-372-99.68c-5.25-1.41-8.89-6.16-8.89-11.59s3.65-10.19,8.89-11.59l372-99.68c4.69-1.25,9.67.44,12.63,4.29,2.95,3.85,3.3,9.1.87,13.31l-54.08,93.68,54.08,93.68Z" style="stroke-width: 0px;"/>
</svg>