<?xml version="1.0" encoding="UTF-8"?>
<svg id="icon" xmlns="http://www.w3.org/2000/svg" viewBox="0 0 864 864">
  <path d="M432,144c-159.06,0-288,128.94-288,288s128.94,288,288,288,288-128.94,288-288-128.94-288-288-288ZM538.98,609.52c-2.14,1.64-4.72,2.48-7.31,2.48-2.06,0-4.13-.53-6-1.61l-93.68-54.08-93.68,54.08c-4.2,2.43-9.46,2.08-13.31-.87-3.85-2.95-5.54-7.94-4.29-12.63l99.68-372c1.41-5.25,6.16-8.89,11.59-8.89s10.19,3.65,11.59,8.89l99.68,372c1.26,4.69-.44,9.67-4.29,12.63Z" style="stroke-width: 0px;"/>
</svg>