<?xml version="1.0" encoding="UTF-8"?>
<svg id="icon" xmlns="http://www.w3.org/2000/svg" viewBox="0 0 864 864">
  <path d="M432,144c-73.71,0-147.41,28.12-203.65,84.35-112.47,112.47-112.47,294.82,0,407.29,56.24,56.24,129.94,84.35,203.65,84.35s147.41-28.12,203.65-84.35c112.47-112.47,112.47-294.82,0-407.29-56.24-56.24-129.94-84.35-203.65-84.35ZM684,432c0,32.75-6.21,64.66-18.45,94.85-12.67,31.24-31.29,59.28-55.36,83.35-24.07,24.07-52.11,42.69-83.34,55.36-30.19,12.24-62.1,18.45-94.85,18.45s-64.66-6.21-94.85-18.45c-31.24-12.67-59.28-31.29-83.34-55.36-24.07-24.07-42.69-52.11-55.36-83.35-12.24-30.19-18.45-62.1-18.45-94.85s6.21-64.66,18.45-94.85c12.67-31.24,31.29-59.28,55.36-83.35,24.07-24.07,52.11-42.69,83.34-55.36,30.19-12.24,62.1-18.45,94.85-18.45s64.66,6.21,94.85,18.45c31.24,12.67,59.28,31.29,83.34,55.36,24.07,24.07,42.69,52.11,55.36,83.35,12.24,30.19,18.45,62.1,18.45,94.85Z" style="stroke-width: 0px;"/>
  <path d="M394.08,236.72c-2.43-4.2-7.14-6.53-11.96-5.9-4.81.63-8.77,4.1-10.02,8.79l-28,104.48-104.48,28c-4.69,1.26-8.16,5.21-8.79,10.02-.63,4.81,1.69,9.53,5.9,11.96l333.53,192.56c1.87,1.08,3.94,1.61,6,1.61,3.1,0,6.18-1.2,8.49-3.51,3.84-3.84,4.62-9.78,1.91-14.49l-192.56-333.53Z" style="stroke-width: 0px;"/>
</svg>