<?xml version="1.0" encoding="UTF-8"?>
<svg id="icon" xmlns="http://www.w3.org/2000/svg" viewBox="0 0 864 864">
  <path d="M432,144c-73.71,0-147.41,28.12-203.65,84.35-112.47,112.47-112.47,294.82,0,407.29,56.24,56.24,129.94,84.35,203.65,84.35s147.41-28.12,203.65-84.35c112.47-112.47,112.47-294.82,0-407.29-56.24-56.24-129.94-84.35-203.65-84.35ZM287.75,588.25c-3.11,0-6.18-1.2-8.49-3.52-3.84-3.84-4.62-9.78-1.91-14.49l192.56-333.53c2.43-4.2,7.14-6.53,11.96-5.9,4.81.63,8.77,4.1,10.02,8.79l28,104.48,104.48,28c4.69,1.26,8.16,5.21,8.79,10.02s-1.69,9.53-5.9,11.96l-333.53,192.56c-1.87,1.08-3.94,1.61-6,1.61Z" style="stroke-width: 0px;"/>
</svg>