<?xml version="1.0" encoding="UTF-8"?>
<svg id="icon" xmlns="http://www.w3.org/2000/svg" viewBox="0 0 864 864">
  <path d="M432,144c-73.71,0-147.41,28.12-203.65,84.35-112.47,112.47-112.47,294.82,0,407.29,56.24,56.24,129.94,84.35,203.65,84.35s147.41-28.12,203.65-84.35c112.47-112.47,112.47-294.82,0-407.29-56.24-56.24-129.94-84.35-203.65-84.35ZM584.73,584.74c-2.31,2.31-5.38,3.51-8.49,3.52-2.05,0-4.12-.53-6-1.61l-333.53-192.56c-4.2-2.43-6.53-7.15-5.9-11.96.63-4.81,4.1-8.77,8.79-10.02l104.48-28,28-104.48c1.26-4.69,5.21-8.16,10.02-8.79,4.81-.63,9.53,1.69,11.96,5.9l192.56,333.53c2.72,4.7,1.93,10.65-1.91,14.49Z" style="stroke-width: 0px;"/>
</svg>