<?xml version="1.0" encoding="UTF-8"?>
<svg id="icon" xmlns="http://www.w3.org/2000/svg" viewBox="0 0 864 864">
  <path d="M270.4,432l-70.79,122.62c-2.43,4.2-2.08,9.45.87,13.31,2.31,3.01,5.85,4.7,9.52,4.7,1.03,0,2.08-.13,3.11-.41l480-128.62c5.25-1.41,8.89-6.16,8.89-11.59s-3.65-10.19-8.89-11.59l-480-128.62c-4.69-1.25-9.67.44-12.63,4.29-2.95,3.85-3.3,9.1-.87,13.31l70.79,122.62ZM643.64,432l-408.76,109.53,59.77-103.53c2.14-3.71,2.14-8.29,0-12l-59.77-103.53,408.76,109.53Z" style="stroke-width: 0px;"/>
</svg>