<?xml version="1.0" encoding="UTF-8"?>
<svg id="icon" xmlns="http://www.w3.org/2000/svg" viewBox="0 0 864 864">
  <path d="M432,144c-159.06,0-288,128.94-288,288s128.94,288,288,288,288-128.94,288-288-128.94-288-288-288ZM684,432c0,34.04-6.66,67.03-19.79,98.08-12.69,30-30.87,56.96-54.02,80.11s-50.11,41.33-80.11,54.02c-31.04,13.13-64.04,19.79-98.08,19.79s-67.03-6.66-98.08-19.79c-30-12.69-56.96-30.87-80.11-54.02s-41.33-50.11-54.02-80.11c-13.13-31.04-19.79-64.04-19.79-98.08s6.66-67.03,19.79-98.08c12.69-30,30.87-56.96,54.02-80.11s50.11-41.33,80.11-54.02c31.04-13.13,64.04-19.79,98.08-19.79s67.03,6.66,98.08,19.79c30,12.69,56.96,30.87,80.11,54.02s41.33,50.11,54.02,80.11c13.13,31.04,19.79,64.04,19.79,98.08Z" style="stroke-width: 0px;"/>
  <path d="M609.52,325.02c-2.96-3.85-7.94-5.54-12.63-4.29l-372,99.68c-5.25,1.41-8.89,6.16-8.89,11.59s3.65,10.19,8.89,11.59l372,99.68c1.03.28,2.07.41,3.11.41,3.67,0,7.21-1.69,9.52-4.7,2.95-3.85,3.3-9.1.87-13.3l-54.08-93.68,54.08-93.68c2.43-4.2,2.08-9.45-.87-13.3Z" style="stroke-width: 0px;"/>
</svg>