<?xml version="1.0" encoding="UTF-8"?>
<svg id="icon" xmlns="http://www.w3.org/2000/svg" viewBox="0 0 864 864">
  <path d="M328.08,372h44.64c1.6,0,2.96-.56,4.08-1.68,1.12-1.12,1.68-2.47,1.68-4.08v-12.48c0-13.75,4.56-24.79,13.68-33.12,9.12-8.32,21.04-12.48,35.76-12.48s26.71,4.16,36,12.48c9.28,8.32,13.92,19.04,13.92,32.16,0,17.6-14.72,43.52-44.16,77.76l-22.56,26.4c-32,37.76-60.17,69.6-84.48,95.52-1.92,1.92-2.88,4.32-2.88,7.2v34.56c0,1.6.56,2.96,1.68,4.08,1.12,1.12,2.47,1.68,4.08,1.68h206.4c1.6,0,2.96-.56,4.08-1.68s1.68-2.47,1.68-4.08v-36.48c0-1.6-.56-2.95-1.68-4.08-1.12-1.12-2.48-1.68-4.08-1.68h-136.8c-.96,0-1.52-.31-1.68-.96-.17-.64.07-1.27.72-1.92l18.24-20.16c35.2-38.4,60.48-67.2,75.84-86.4,27.84-34.24,41.76-64.48,41.76-90.72,0-17.28-4.32-32.88-12.96-46.8-8.64-13.92-20.96-24.88-36.96-32.88-16-8-34.72-12-56.16-12-19.52,0-37.2,3.52-53.04,10.56-15.84,7.04-28.4,16.96-37.68,29.76-9.29,12.8-14.24,27.84-14.88,45.12v20.64c0,1.6.55,2.96,1.68,4.08,1.12,1.12,2.48,1.68,4.08,1.68Z" style="stroke-width: 0px;"/>
</svg>