<?xml version="1.0" encoding="UTF-8"?>
<svg id="icon" xmlns="http://www.w3.org/2000/svg" viewBox="0 0 864 864">
  <path d="M530.08,199.79c-31.04-13.13-64.04-19.79-98.08-19.79s-67.03,6.66-98.08,19.79c-30,12.69-56.96,30.87-80.11,54.02-23.15,23.15-41.33,50.11-54.02,80.11-13.13,31.04-19.79,64.04-19.79,98.08s6.66,67.03,19.79,98.08c12.69,30,30.87,56.96,54.02,80.11,23.15,23.16,50.11,41.33,80.11,54.02,31.04,13.13,64.04,19.79,98.08,19.79s67.03-6.66,98.08-19.79c30-12.69,56.96-30.87,80.11-54.02,23.15-23.15,41.33-50.11,54.02-80.11,13.13-31.04,19.79-64.04,19.79-98.08s-6.66-67.03-19.79-98.08c-12.69-30-30.87-56.96-54.02-80.11-23.15-23.16-50.11-41.33-80.11-54.02Z" style="fill: none; stroke-width: 0px;"/>
  <path d="M432,144c-159.06,0-288,128.94-288,288s128.94,288,288,288,288-128.94,288-288-128.94-288-288-288ZM684,432c0,34.04-6.66,67.03-19.79,98.08-12.69,30-30.87,56.96-54.02,80.11-23.15,23.16-50.11,41.33-80.11,54.02-31.04,13.13-64.04,19.79-98.08,19.79s-67.03-6.66-98.08-19.79c-30-12.69-56.96-30.87-80.11-54.02-23.15-23.15-41.33-50.11-54.02-80.11-13.13-31.04-19.79-64.04-19.79-98.08s6.66-67.03,19.79-98.08c12.69-30,30.87-56.96,54.02-80.11,23.15-23.16,50.11-41.33,80.11-54.02,31.04-13.13,64.04-19.79,98.08-19.79s67.03,6.66,98.08,19.79c30,12.69,56.96,30.87,80.11,54.02,23.15,23.15,41.33,50.11,54.02,80.11,13.13,31.04,19.79,64.04,19.79,98.08Z" style="stroke-width: 0px;"/>
  <path d="M258.12,387h33.48c1.2,0,2.22-.42,3.06-1.26.84-.84,1.26-1.86,1.26-3.06v-9.36c0-10.32,3.42-18.6,10.26-24.84,6.84-6.24,15.78-9.36,26.82-9.36s20.04,3.12,27,9.36c6.96,6.24,10.44,14.28,10.44,24.12,0,13.2-11.04,32.64-33.12,58.32l-16.92,19.8c-24,28.32-45.12,52.2-63.36,71.64-1.44,1.44-2.16,3.24-2.16,5.4v25.92c0,1.2.42,2.22,1.26,3.06.84.84,1.86,1.26,3.06,1.26h154.8c1.2,0,2.22-.42,3.06-1.26.84-.84,1.26-1.86,1.26-3.06v-27.36c0-1.2-.42-2.22-1.26-3.06-.84-.84-1.86-1.26-3.06-1.26h-102.6c-.72,0-1.14-.24-1.26-.72-.12-.48.06-.96.54-1.44l13.68-15.12c26.4-28.8,45.36-50.4,56.88-64.8,20.88-25.68,31.32-48.36,31.32-68.04,0-12.96-3.24-24.66-9.72-35.1-6.48-10.44-15.72-18.66-27.72-24.66-12-6-26.04-9-42.12-9-14.64,0-27.9,2.64-39.78,7.92-11.88,5.28-21.3,12.72-28.26,22.32-6.96,9.6-10.68,20.88-11.16,33.84v15.48c0,1.2.42,2.22,1.26,3.06.84.84,1.86,1.26,3.06,1.26Z" style="stroke-width: 0px;"/>
  <path d="M531.36,301.68c-13.68,0-26.04,2.58-37.08,7.74-11.04,5.16-19.8,12.42-26.28,21.78-8.88,12-13.32,25.56-13.32,40.68,0,12.24,3.12,23.4,9.36,33.48,4.8,7.68,10.2,13.68,16.2,18,.96.96.84,1.8-.36,2.52-8.88,5.04-15.72,12.48-20.52,22.32-5.52,11.52-8.28,23.76-8.28,36.72,0,14.4,3.12,27.24,9.36,38.52,6.24,12.24,15.6,21.54,28.08,27.9,12.48,6.36,26.76,9.54,42.84,9.54s30.48-3.24,42.48-9.72c12-6.48,21.12-15.36,27.36-26.64,6.24-11.76,9.36-24.84,9.36-39.24s-2.64-25.8-7.92-36.36c-5.04-10.32-12.12-18.12-21.24-23.4-.96-.72-.96-1.56,0-2.52,6-4.32,11.28-9.84,15.84-16.56,6.48-9.84,9.72-21.36,9.72-34.56,0-14.88-4.2-28.44-12.6-40.68-6.48-9.36-15.06-16.62-25.74-21.78-10.68-5.16-23.1-7.74-37.26-7.74ZM500.4,356.04c2.88-5.76,6.96-10.26,12.24-13.5,5.28-3.24,11.28-4.86,18-4.86,7.2,0,13.44,1.62,18.72,4.86,5.28,3.24,9.48,7.62,12.6,13.14,2.64,5.76,3.96,11.28,3.96,16.56,0,9.36-1.8,16.68-5.4,21.96-6.72,10.08-16.56,15.12-29.52,15.12s-23.04-4.92-28.8-14.76c-4.08-6.48-6.12-13.8-6.12-21.96,0-4.8,1.44-10.32,4.32-16.56ZM560.88,510.12c-6.24,9.84-16.08,14.76-29.52,14.76-14.16,0-24.48-5.28-30.96-15.84-4.32-6.96-6.48-15.96-6.48-27s2.04-20.52,6.12-27c6.48-10.56,16.8-15.84,30.96-15.84,15.12,0,25.68,5.52,31.68,16.56,3.84,6.24,5.76,14.88,5.76,25.92,0,12-2.52,21.48-7.56,28.44Z" style="stroke-width: 0px;"/>
</svg>