<?xml version="1.0" encoding="UTF-8"?>
<svg id="icon" xmlns="http://www.w3.org/2000/svg" viewBox="0 0 864 864">
  <path d="M684,144H180c-19.88,0-36,16.12-36,36v504c0,19.88,16.12,36,36,36h504c19.88,0,36-16.12,36-36V180c0-19.88-16.12-36-36-36ZM664.21,530.08c-12.69,30-30.87,56.96-54.02,80.11-23.15,23.15-50.11,41.33-80.11,54.02-31.04,13.13-64.04,19.79-98.08,19.79s-67.03-6.66-98.08-19.79c-30-12.69-56.96-30.87-80.11-54.02-23.16-23.15-41.33-50.11-54.02-80.11-13.13-31.04-19.79-64.04-19.79-98.08s6.66-67.03,19.79-98.08c12.69-30,30.87-56.96,54.02-80.11,23.15-23.15,50.11-41.33,80.11-54.02,31.04-13.13,64.04-19.79,98.08-19.79s67.03,6.66,98.08,19.79c30,12.69,56.96,30.87,80.11,54.02,23.16,23.15,41.33,50.11,54.02,80.11,13.13,31.04,19.79,64.04,19.79,98.08s-6.66,67.03-19.79,98.08Z" style="stroke-width: 0px;"/>
  <path d="M294.84,486.54c-.84-.84-1.86-1.26-3.06-1.26h-33.12c-1.2,0-2.22.42-3.06,1.26s-1.26,1.86-1.26,3.06v7.92c0,12.48,3.18,23.52,9.54,33.12,6.36,9.6,15.24,17.04,26.64,22.32,11.4,5.28,24.42,7.92,39.06,7.92s28.5-2.7,40.14-8.1c11.64-5.4,20.7-13.02,27.18-22.86,6.48-9.84,9.72-21.24,9.72-34.2v-109.8c0-13.44-1.92-25.2-5.76-35.28-5.52-14.88-14.7-26.46-27.54-34.74-12.84-8.28-28.26-12.42-46.26-12.42-17.04,0-31.8,3.84-44.28,11.52-12.48,7.68-21.6,18.36-27.36,32.04-4.8,11.04-7.2,23.88-7.2,38.52,0,17.76,3.36,32.64,10.08,44.64,6,11.28,14.34,19.92,25.02,25.92,10.68,6,23.1,9,37.26,9,17.76,0,31.8-5.04,42.12-15.12.48-.48.96-.6,1.44-.36.48.24.72.72.72,1.44v39.6c0,10.08-3.3,18.3-9.9,24.66-6.6,6.36-15.06,9.54-25.38,9.54s-17.88-3.06-24.12-9.18c-6.24-6.12-9.36-13.98-9.36-23.58v-2.52c0-1.2-.42-2.22-1.26-3.06ZM359.1,411.84c-6.24,12-16.8,18-31.68,18-13.92,0-24.24-5.76-30.96-17.28-4.32-7.68-6.48-16.92-6.48-27.72,0-9.12,1.8-17.64,5.4-25.56,6.24-12.96,17.04-19.44,32.4-19.44s26.64,6.6,32.4,19.8c3.12,6.96,4.68,15,4.68,24.12,0,11.04-1.92,20.4-5.76,28.08Z" style="stroke-width: 0px;"/>
  <path d="M609.3,482.76v-101.52c0-24-7.5-43.02-22.5-57.06-15-14.04-35.1-21.06-60.3-21.06s-45.18,7.02-59.94,21.06-22.14,33.06-22.14,57.06v101.52c0,24.24,7.38,43.5,22.14,57.78,14.76,14.28,34.74,21.42,59.94,21.42s45.3-7.14,60.3-21.42c15-14.28,22.5-33.54,22.5-57.78ZM567.54,484.92c0,12.48-3.72,22.38-11.16,29.7-7.44,7.32-17.4,10.98-29.88,10.98s-22.02-3.66-29.34-10.98c-7.32-7.32-10.98-17.22-10.98-29.7v-105.12c0-12.48,3.66-22.38,10.98-29.7s17.1-10.98,29.34-10.98,22.44,3.66,29.88,10.98c7.44,7.32,11.16,17.22,11.16,29.7v105.12Z" style="stroke-width: 0px;"/>
</svg>