<?xml version="1.0" encoding="UTF-8"?>
<svg id="icon" xmlns="http://www.w3.org/2000/svg" viewBox="0 0 864 864">
  <path d="M432,648c119.29,0,216-96.71,216-216s-96.71-216-216-216-216,96.71-216,216,96.71,216,216,216ZM353.52,310.32c0-1.2.42-2.22,1.26-3.06s1.86-1.26,3.06-1.26h151.56c1.2,0,2.21.42,3.06,1.26.84.84,1.26,1.86,1.26,3.06v28.8c0,1.44-.36,3.24-1.08,5.4l-79.2,209.88c-.72,2.4-2.4,3.6-5.04,3.6h-35.64c-3.6,0-4.8-1.68-3.6-5.04l79.56-208.8c.48-1.44,0-2.16-1.44-2.16h-77.4c-1.2,0-1.8.6-1.8,1.8v16.2c0,1.2-.42,2.22-1.26,3.06-.84.84-1.86,1.26-3.06,1.26h-25.92c-1.2,0-2.22-.42-3.06-1.26-.84-.84-1.26-1.86-1.26-3.06v-49.68Z" style="stroke-width: 0px;"/>
</svg>