<?xml version="1.0" encoding="UTF-8"?>
<svg id="icon" xmlns="http://www.w3.org/2000/svg" viewBox="0 0 864 864">
  <path d="M432,648c119.29,0,216-96.71,216-216s-96.71-216-216-216-216,96.71-216,216,96.71,216,216,216ZM354.78,477.36h33.48c2.88,0,4.32,1.44,4.32,4.32.48,7.68,1.68,13.8,3.6,18.36,2.16,7.68,6.18,13.74,12.06,18.18,5.88,4.44,13.02,6.66,21.42,6.66,15.84,0,26.76-7.2,32.76-21.6,3.12-6.96,4.68-15.96,4.68-27,0-12.24-1.8-22.32-5.4-30.24-6.24-13.44-17.04-20.16-32.4-20.16-4.08,0-9.6,2.4-16.56,7.2-.96.48-1.8.72-2.52.72-1.2,0-2.4-.72-3.6-2.16l-16.56-23.04c-.72-1.2-1.08-2.16-1.08-2.88,0-1.2.48-2.28,1.44-3.24l59.4-58.32c.48-.48.6-.96.36-1.44-.24-.48-.72-.72-1.44-.72h-90c-1.2,0-2.22-.42-3.06-1.26-.84-.84-1.26-1.86-1.26-3.06v-27.36c0-1.2.42-2.22,1.26-3.06s1.86-1.26,3.06-1.26h143.64c1.2,0,2.22.42,3.06,1.26.84.84,1.26,1.86,1.26,3.06v31.32c0,2.16-.72,3.96-2.16,5.4l-51.48,51.84c-.96.96-.48,1.68,1.44,2.16,22.32,3.12,38.16,15.48,47.52,37.08,4.8,11.52,7.2,24.72,7.2,39.6,0,13.44-2.04,25.32-6.12,35.64-5.52,15.12-14.64,26.82-27.36,35.1-12.72,8.28-28.08,12.42-46.08,12.42s-33.18-4.5-46.26-13.5c-13.08-9-22.38-21.18-27.9-36.54-2.88-7.44-4.56-17.16-5.04-29.16,0-2.88,1.44-4.32,4.32-4.32Z" style="stroke-width: 0px;"/>
</svg>