<?xml version="1.0" encoding="UTF-8"?>
<svg id="icon" xmlns="http://www.w3.org/2000/svg" viewBox="0 0 864 864">
  <path d="M530.08,199.79c-31.04-13.13-64.04-19.79-98.08-19.79s-67.03,6.66-98.08,19.79c-30,12.69-56.96,30.87-80.11,54.02-23.15,23.15-41.33,50.11-54.02,80.11-13.13,31.04-19.79,64.04-19.79,98.08s6.66,67.03,19.79,98.08c12.69,30,30.87,56.96,54.02,80.11,23.15,23.16,50.11,41.33,80.11,54.02,31.04,13.13,64.04,19.79,98.08,19.79s67.03-6.66,98.08-19.79c30-12.69,56.96-30.87,80.11-54.02,23.15-23.15,41.33-50.11,54.02-80.11,13.13-31.04,19.79-64.04,19.79-98.08s-6.66-67.03-19.79-98.08c-12.69-30-30.87-56.96-54.02-80.11-23.15-23.16-50.11-41.33-80.11-54.02Z" style="fill: none; stroke-width: 0px;"/>
  <path d="M432,144c-159.06,0-288,128.94-288,288s128.94,288,288,288,288-128.94,288-288-128.94-288-288-288ZM684,432c0,34.04-6.66,67.03-19.79,98.08-12.69,30-30.87,56.96-54.02,80.11-23.15,23.16-50.11,41.33-80.11,54.02-31.04,13.13-64.04,19.79-98.08,19.79s-67.03-6.66-98.08-19.79c-30-12.69-56.96-30.87-80.11-54.02-23.15-23.15-41.33-50.11-54.02-80.11-13.13-31.04-19.79-64.04-19.79-98.08s6.66-67.03,19.79-98.08c12.69-30,30.87-56.96,54.02-80.11,23.15-23.16,50.11-41.33,80.11-54.02,31.04-13.13,64.04-19.79,98.08-19.79s67.03,6.66,98.08,19.79c30,12.69,56.96,30.87,80.11,54.02,23.15,23.15,41.33,50.11,54.02,80.11,13.13,31.04,19.79,64.04,19.79,98.08Z" style="stroke-width: 0px;"/>
  <path d="M258.84,387h33.48c1.2,0,2.22-.42,3.06-1.26.84-.84,1.26-1.86,1.26-3.06v-9.36c0-10.32,3.42-18.6,10.26-24.84,6.84-6.24,15.78-9.36,26.82-9.36s20.04,3.12,27,9.36c6.96,6.24,10.44,14.28,10.44,24.12,0,13.2-11.04,32.64-33.12,58.32l-16.92,19.8c-24,28.32-45.12,52.2-63.36,71.64-1.44,1.44-2.16,3.24-2.16,5.4v25.92c0,1.2.42,2.22,1.26,3.06.84.84,1.86,1.26,3.06,1.26h154.8c1.2,0,2.22-.42,3.06-1.26.84-.84,1.26-1.86,1.26-3.06v-27.36c0-1.2-.42-2.22-1.26-3.06-.84-.84-1.86-1.26-3.06-1.26h-102.6c-.72,0-1.14-.24-1.26-.72-.12-.48.06-.96.54-1.44l13.68-15.12c26.4-28.8,45.36-50.4,56.88-64.8,20.88-25.68,31.32-48.36,31.32-68.04,0-12.96-3.24-24.66-9.72-35.1-6.48-10.44-15.72-18.66-27.72-24.66-12-6-26.04-9-42.12-9-14.64,0-27.9,2.64-39.78,7.92-11.88,5.28-21.3,12.72-28.26,22.32-6.96,9.6-10.68,20.88-11.16,33.84v15.48c0,1.2.42,2.22,1.26,3.06.84.84,1.86,1.26,3.06,1.26Z" style="stroke-width: 0px;"/>
  <path d="M531.36,303.12c-15.12,0-28.5,2.7-40.14,8.1-11.64,5.4-20.7,13.02-27.18,22.86-6.48,9.84-9.72,21.24-9.72,34.2v109.8c0,13.44,1.92,25.2,5.76,35.28,5.52,14.88,14.64,26.46,27.36,34.74,12.72,8.28,28.08,12.42,46.08,12.42s32.1-3.78,44.46-11.34c12.36-7.56,21.42-18.3,27.18-32.22,4.8-11.04,7.2-23.88,7.2-38.52,0-17.52-3.24-32.4-9.72-44.64-6.24-11.28-14.7-19.92-25.38-25.92-10.68-6-23.1-9-37.26-9-17.76,0-31.68,4.92-41.76,14.76-.48.48-.96.6-1.44.36-.48-.24-.72-.72-.72-1.44v-39.24c0-10.08,3.3-18.3,9.9-24.66,6.6-6.36,14.94-9.54,25.02-9.54s17.94,3.06,24.3,9.18c6.36,6.12,9.54,13.98,9.54,23.58v2.52c0,1.2.42,2.22,1.26,3.06.84.84,1.86,1.26,3.06,1.26h33.12c1.2,0,2.22-.42,3.06-1.26.84-.84,1.26-1.86,1.26-3.06v-7.92c0-12.48-3.18-23.52-9.54-33.12-6.36-9.6-15.24-17.04-26.64-22.32-11.4-5.28-24.42-7.92-39.06-7.92ZM501.48,452.16c6.24-12,16.8-18,31.68-18s24.6,5.76,31.32,17.28c4.08,7.68,6.12,16.92,6.12,27.72,0,9.84-1.8,18.36-5.4,25.56-6.24,12.96-16.92,19.44-32.04,19.44s-26.64-6.6-32.4-19.8c-3.12-6.24-4.68-14.28-4.68-24.12,0-11.52,1.8-20.88,5.4-28.08Z" style="stroke-width: 0px;"/>
</svg>