<?xml version="1.0" encoding="UTF-8"?>
<svg id="icon" xmlns="http://www.w3.org/2000/svg" viewBox="0 0 864 864">
  <polygon points="180 180 180 684 684 684 684 180 684 180 180 180" style="fill: none; stroke-width: 0px;"/>
  <path d="M684,144H180c-19.88,0-36,16.12-36,36v504c0,19.88,16.12,36,36,36h504c19.88,0,36-16.12,36-36V180c0-19.88-16.12-36-36-36ZM684,684H180s0-504,0-504h504v504Z" style="stroke-width: 0px;"/>
  <path d="M429.95,550.16c.79.8,1.76,1.19,2.9,1.19h31.37c1.13,0,2.1-.39,2.9-1.19.79-.79,1.19-1.76,1.19-2.9v-230.52c0-1.13-.4-2.1-1.19-2.9-.8-.79-1.76-1.19-2.9-1.19h-32.74c-1.59,0-3.3.34-5.11,1.02l-36.83,18.41c-1.82.91-2.73,2.5-2.73,4.78l1.02,22.51c0,1.14.28,2.04.85,2.73.56.68,1.31,1.02,2.22,1.02.68,0,1.25-.11,1.7-.34l34.1-10.57c.45-.22.91-.17,1.36.17.45.34.68.74.68,1.19v193.69c0,1.14.39,2.1,1.19,2.9Z" style="stroke-width: 0px;"/>
</svg>