<?xml version="1.0" encoding="UTF-8"?>
<svg id="icon" xmlns="http://www.w3.org/2000/svg" viewBox="0 0 864 864">
  <path d="M351.6,576.72c19.68,19.04,46.32,28.56,79.92,28.56s60.4-9.52,80.4-28.56c19.99-19.04,30-44.72,30-77.04v-135.36c0-31.99-10.01-57.36-30-76.08-20-18.72-46.8-28.08-80.4-28.08s-60.24,9.36-79.92,28.08c-19.68,18.72-29.52,44.08-29.52,76.08v135.36c0,32.32,9.84,58,29.52,77.04ZM377.76,362.4c0-16.63,4.88-29.83,14.64-39.6s22.8-14.64,39.12-14.64,29.92,4.88,39.84,14.64c9.92,9.77,14.88,22.97,14.88,39.6v140.16c0,16.64-4.96,29.84-14.88,39.6-9.92,9.76-23.21,14.64-39.84,14.64s-29.36-4.88-39.12-14.64c-9.77-9.76-14.64-22.96-14.64-39.6v-140.16Z" style="stroke-width: 0px;"/>
</svg>