<?xml version="1.0" encoding="UTF-8"?>
<svg id="icon" xmlns="http://www.w3.org/2000/svg" viewBox="0 0 864 864">
  <polygon points="180 180 180 684 684 684 684 180 684 180 180 180" style="fill: none; stroke-width: 0px;"/>
  <path d="M684,144H180c-19.88,0-36,16.12-36,36v504c0,19.88,16.12,36,36,36h504c19.88,0,36-16.12,36-36V180c0-19.88-16.12-36-36-36ZM684,684H180s0-504,0-504h504v504Z" style="stroke-width: 0px;"/>
  <path d="M455.94,493.56v60.12c0,1.2.42,2.22,1.26,3.06.84.84,1.86,1.26,3.06,1.26h33.12c1.2,0,2.22-.42,3.06-1.26.84-.84,1.26-1.86,1.26-3.06v-60.12c0-1.2.6-1.8,1.8-1.8h15.12c1.2,0,2.22-.42,3.06-1.26.84-.84,1.26-1.86,1.26-3.06v-28.8c0-1.2-.42-2.22-1.26-3.06-.84-.84-1.86-1.26-3.06-1.26h-15.12c-1.2,0-1.8-.6-1.8-1.8v-48.96c0-1.2-.42-2.22-1.26-3.06-.84-.84-1.86-1.26-3.06-1.26h-33.12c-1.2,0-2.22.42-3.06,1.26s-1.26,1.86-1.26,3.06v48.96c0,1.2-.6,1.8-1.8,1.8h-64.08c-.48,0-.84-.24-1.08-.72-.24-.48-.24-.96,0-1.44l64.08-141.12c.72-1.68.78-2.94.18-3.78-.6-.84-1.74-1.26-3.42-1.26h-35.28c-2.4,0-4.08,1.08-5.04,3.24l-68.04,149.76c-.72,2.16-1.08,3.96-1.08,5.4v23.04c0,1.2.42,2.22,1.26,3.06.84.84,1.86,1.26,3.06,1.26h109.44c1.2,0,1.8.6,1.8,1.8Z" style="stroke-width: 0px;"/>
</svg>