<?xml version="1.0" encoding="UTF-8"?>
<svg id="icon" xmlns="http://www.w3.org/2000/svg" viewBox="0 0 864 864">
  <rect x="180" y="180" width="504" height="504" style="fill: none; stroke-width: 0px;"/>
  <path d="M684,144H180c-19.88,0-36,16.12-36,36v504c0,19.88,16.12,36,36,36h504c19.88,0,36-16.12,36-36V180c0-19.88-16.12-36-36-36ZM684,684H180s0-504,0-504h504v504Z" style="stroke-width: 0px;"/>
  <path d="M387.36,547.38c13.2,8.76,28.68,13.14,46.44,13.14s33.71-4.5,47.16-13.5c13.44-9,22.68-21.18,27.72-36.54,3.12-10.08,4.68-20.76,4.68-32.04s-1.56-22.68-4.68-33.48c-4.56-14.88-13.02-26.58-25.38-35.1-12.36-8.52-26.94-12.78-43.74-12.78-15.84,0-29.4,4.2-40.68,12.6-.48.48-.96.66-1.44.54-.48-.12-.72-.66-.72-1.62l.36-64.8c0-1.2.6-1.8,1.8-1.8h100.8c1.2,0,2.22-.42,3.06-1.26.84-.84,1.26-1.86,1.26-3.06v-27.36c0-1.2-.42-2.22-1.26-3.06-.84-.84-1.86-1.26-3.06-1.26h-140.04c-1.2,0-2.22.42-3.06,1.26s-1.26,1.86-1.26,3.06v142.56c0,1.21.42,2.22,1.26,3.06.84.84,1.86,1.26,3.06,1.26h34.92c2.4,0,4.08-1.2,5.04-3.6,1.92-6,6.18-10.86,12.78-14.58,6.6-3.72,13.98-5.58,22.14-5.58,8.64,0,15.96,2.1,21.96,6.3,6,4.2,9.84,10.26,11.52,18.18,1.92,6.72,2.88,13.56,2.88,20.52,0,7.44-1.08,14.04-3.24,19.8-2.4,8.16-6.6,14.58-12.6,19.26-6,4.68-13.2,7.02-21.6,7.02s-15.12-2.16-20.88-6.48c-5.76-4.32-9.96-10.44-12.6-18.36-.96-2.88-1.56-5.04-1.8-6.48-.72-2.64-2.28-3.96-4.68-3.96h-34.2c-2.88,0-4.32,1.32-4.32,3.96v.72c1.2,6.72,2.76,12.72,4.68,18,5.28,14.88,14.52,26.7,27.72,35.46Z" style="stroke-width: 0px;"/>
</svg>