<?xml version="1.0" encoding="UTF-8"?>
<svg id="icon" xmlns="http://www.w3.org/2000/svg" viewBox="0 0 864 864">
  <path d="M393.45,372.86c-1.08,3.03,0,4.54,3.24,4.54h32.08c2.37,0,3.89-1.08,4.54-3.24l71.28-188.89c.65-1.94.97-3.56.97-4.86v-25.92c0-1.08-.38-2-1.13-2.75-.76-.75-1.67-1.13-2.75-1.13h-136.4c-1.08,0-2,.38-2.75,1.13-.76.76-1.13,1.68-1.13,2.75v44.71c0,1.08.38,2,1.13,2.75.75.76,1.67,1.13,2.75,1.13h23.33c1.08,0,2-.38,2.75-1.13s1.13-1.67,1.13-2.75v-14.58c0-1.08.54-1.62,1.62-1.62h69.66c1.29,0,1.73.65,1.29,1.94l-71.6,187.92Z" style="stroke-width: 0px;"/>
  <path d="M477.2,594.17c-.87-.65-.87-1.4,0-2.27,5.4-3.89,10.15-8.85,14.26-14.9,5.83-8.86,8.75-19.22,8.75-31.1,0-13.39-3.78-25.6-11.34-36.61-5.83-8.42-13.56-14.96-23.17-19.6-9.61-4.64-20.79-6.97-33.53-6.97s-23.44,2.32-33.37,6.97c-9.94,4.65-17.82,11.18-23.65,19.6-7.99,10.8-11.99,23-11.99,36.61,0,11.02,2.8,21.06,8.42,30.13,4.32,6.92,9.18,12.31,14.58,16.2.86.87.75,1.62-.32,2.27-7.99,4.54-14.15,11.23-18.47,20.09-4.97,10.37-7.45,21.38-7.45,33.05,0,12.96,2.8,24.52,8.42,34.67,5.61,11.02,14.04,19.39,25.27,25.11,11.23,5.73,24.08,8.59,38.56,8.59s27.43-2.92,38.23-8.75c10.8-5.83,19-13.82,24.62-23.98,5.61-10.58,8.42-22.36,8.42-35.32s-2.38-23.22-7.13-32.72c-4.54-9.28-10.91-16.31-19.12-21.06ZM404.3,531.63c2.59-5.18,6.26-9.23,11.02-12.15,4.75-2.92,10.15-4.37,16.2-4.37,6.48,0,12.09,1.46,16.85,4.37,4.75,2.92,8.53,6.86,11.34,11.83,2.37,5.18,3.56,10.16,3.56,14.9,0,8.42-1.62,15.02-4.86,19.76-6.05,9.07-14.9,13.61-26.57,13.61s-20.74-4.43-25.92-13.29c-3.68-5.83-5.51-12.42-5.51-19.76,0-4.32,1.3-9.28,3.89-14.9ZM458.73,670.31c-5.62,8.86-14.47,13.28-26.57,13.28-12.75,0-22.03-4.75-27.86-14.26-3.89-6.26-5.83-14.36-5.83-24.3s1.83-18.47,5.51-24.3c5.83-9.5,15.12-14.26,27.86-14.26,13.61,0,23.11,4.97,28.51,14.9,3.45,5.62,5.18,13.4,5.18,23.33,0,10.8-2.27,19.33-6.8,25.6Z" style="stroke-width: 0px;"/>
  <path d="M624,414H240c-9.94,0-18,8.06-18,18s8.06,18,18,18h384c9.94,0,18-8.06,18-18s-8.06-18-18-18Z" style="stroke-width: 0px;"/>
</svg>