<?xml version="1.0" encoding="UTF-8"?>
<svg id="icon" xmlns="http://www.w3.org/2000/svg" viewBox="0 0 864 864">
  <path d="M530.08,199.79c-31.04-13.13-64.04-19.79-98.08-19.79s-67.03,6.66-98.08,19.79c-30,12.69-56.96,30.87-80.11,54.02-23.15,23.15-41.33,50.11-54.02,80.11-13.13,31.04-19.79,64.04-19.79,98.08s6.66,67.03,19.79,98.08c12.69,30,30.87,56.96,54.02,80.11,23.15,23.16,50.11,41.33,80.11,54.02,31.04,13.13,64.04,19.79,98.08,19.79s67.03-6.66,98.08-19.79c30-12.69,56.96-30.87,80.11-54.02,23.15-23.15,41.33-50.11,54.02-80.11,13.13-31.04,19.79-64.04,19.79-98.08s-6.66-67.03-19.79-98.08c-12.69-30-30.87-56.96-54.02-80.11-23.15-23.16-50.11-41.33-80.11-54.02Z" style="fill: none; stroke-width: 0px;"/>
  <path d="M432,144c-159.06,0-288,128.94-288,288s128.94,288,288,288,288-128.94,288-288-128.94-288-288-288ZM684,432c0,34.04-6.66,67.03-19.79,98.08-12.69,30-30.87,56.96-54.02,80.11-23.15,23.16-50.11,41.33-80.11,54.02-31.04,13.13-64.04,19.79-98.08,19.79s-67.03-6.66-98.08-19.79c-30-12.69-56.96-30.87-80.11-54.02-23.15-23.15-41.33-50.11-54.02-80.11-13.13-31.04-19.79-64.04-19.79-98.08s6.66-67.03,19.79-98.08c12.69-30,30.87-56.96,54.02-80.11,23.15-23.16,50.11-41.33,80.11-54.02,31.04-13.13,64.04-19.79,98.08-19.79s67.03,6.66,98.08,19.79c30,12.69,56.96,30.87,80.11,54.02,23.15,23.15,41.33,50.11,54.02,80.11,13.13,31.04,19.79,64.04,19.79,98.08Z" style="stroke-width: 0px;"/>
  <path d="M334.26,524.88c-8.4,0-15.54-2.22-21.42-6.66-5.88-4.44-9.9-10.5-12.06-18.18-1.92-4.56-3.12-10.68-3.6-18.36,0-2.88-1.44-4.32-4.32-4.32h-33.48c-2.88,0-4.32,1.44-4.32,4.32.48,12,2.16,21.72,5.04,29.16,5.52,15.36,14.82,27.54,27.9,36.54,13.08,9,28.5,13.5,46.26,13.5s33.36-4.14,46.08-12.42c12.72-8.28,21.84-19.98,27.36-35.1,4.08-10.32,6.12-22.2,6.12-35.64,0-14.88-2.4-28.08-7.2-39.6-9.36-21.6-25.2-33.96-47.52-37.08-1.92-.48-2.4-1.2-1.44-2.16l51.48-51.84c1.44-1.44,2.16-3.24,2.16-5.4v-31.32c0-1.2-.42-2.22-1.26-3.06-.84-.84-1.86-1.26-3.06-1.26h-143.64c-1.2,0-2.22.42-3.06,1.26s-1.26,1.86-1.26,3.06v27.36c0,1.2.42,2.22,1.26,3.06.84.84,1.86,1.26,3.06,1.26h90c.72,0,1.2.24,1.44.72.24.48.12.96-.36,1.44l-59.4,58.32c-.96.96-1.44,2.04-1.44,3.24,0,.72.36,1.68,1.08,2.88l16.56,23.04c1.2,1.44,2.4,2.16,3.6,2.16.72,0,1.56-.24,2.52-.72,6.96-4.8,12.48-7.2,16.56-7.2,15.36,0,26.16,6.72,32.4,20.16,3.6,7.92,5.4,18,5.4,30.24,0,11.04-1.56,20.04-4.68,27-6,14.4-16.92,21.6-32.76,21.6Z" style="stroke-width: 0px;"/>
  <path d="M494.46,342h100.8c1.2,0,2.22-.42,3.06-1.26.84-.84,1.26-1.86,1.26-3.06v-27.36c0-1.2-.42-2.22-1.26-3.06-.84-.84-1.86-1.26-3.06-1.26h-140.04c-1.2,0-2.22.42-3.06,1.26-.84.84-1.26,1.86-1.26,3.06v142.56c0,1.2.42,2.22,1.26,3.06.84.84,1.86,1.26,3.06,1.26h34.92c2.4,0,4.08-1.2,5.04-3.6,1.92-6,6.18-10.86,12.78-14.58,6.6-3.72,13.98-5.58,22.14-5.58,8.64,0,15.96,2.1,21.96,6.3,6,4.2,9.84,10.26,11.52,18.18,1.92,6.72,2.88,13.56,2.88,20.52,0,7.44-1.08,14.04-3.24,19.8-2.4,8.16-6.6,14.58-12.6,19.26-6,4.68-13.2,7.02-21.6,7.02s-15.12-2.16-20.88-6.48-9.96-10.44-12.6-18.36c-.96-2.88-1.56-5.04-1.8-6.48-.72-2.64-2.28-3.96-4.68-3.96h-34.2c-2.88,0-4.32,1.32-4.32,3.96v.72c1.2,6.72,2.76,12.72,4.68,18,5.28,14.88,14.52,26.7,27.72,35.46,13.2,8.76,28.68,13.14,46.44,13.14s33.72-4.5,47.16-13.5c13.44-9,22.68-21.18,27.72-36.54,3.12-10.08,4.68-20.76,4.68-32.04s-1.56-22.68-4.68-33.48c-4.56-14.88-13.02-26.58-25.38-35.1-12.36-8.52-26.94-12.78-43.74-12.78-15.84,0-29.4,4.2-40.68,12.6-.48.48-.96.66-1.44.54-.48-.12-.72-.66-.72-1.62l.36-64.8c0-1.2.6-1.8,1.8-1.8Z" style="stroke-width: 0px;"/>
</svg>