<?xml version="1.0" encoding="UTF-8"?>
<svg id="icon" xmlns="http://www.w3.org/2000/svg" viewBox="0 0 864 864">
  <path d="M433.98,434.16c-14.88,0-25.44,6-31.68,18-3.6,7.2-5.4,16.56-5.4,28.08,0,9.84,1.56,17.88,4.68,24.12,5.76,13.2,16.56,19.8,32.4,19.8s25.8-6.48,32.04-19.44c3.6-7.2,5.4-15.72,5.4-25.56,0-10.8-2.04-20.04-6.12-27.72-6.72-11.52-17.16-17.28-31.32-17.28Z" style="stroke-width: 0px;"/>
  <path d="M432,144c-159.06,0-288,128.94-288,288s128.94,288,288,288,288-128.94,288-288-128.94-288-288-288ZM505.98,516.96c-5.76,13.92-14.82,24.66-27.18,32.22-12.36,7.56-27.18,11.34-44.46,11.34s-33.36-4.14-46.08-12.42c-12.72-8.28-21.84-19.86-27.36-34.74-3.84-10.08-5.76-21.84-5.76-35.28v-109.8c0-12.96,3.24-24.36,9.72-34.2,6.48-9.84,15.54-17.46,27.18-22.86,11.64-5.4,25.02-8.1,40.14-8.1s27.66,2.64,39.06,7.92c11.4,5.28,20.28,12.72,26.64,22.32,6.36,9.6,9.54,20.64,9.54,33.12v7.92c0,1.2-.42,2.22-1.26,3.06-.84.84-1.86,1.26-3.06,1.26h-33.12c-1.2,0-2.22-.42-3.06-1.26-.84-.84-1.26-1.86-1.26-3.06v-2.52c0-9.6-3.18-17.46-9.54-23.58-6.36-6.12-14.46-9.18-24.3-9.18s-18.42,3.18-25.02,9.54c-6.6,6.36-9.9,14.58-9.9,24.66v39.24c0,.72.24,1.2.72,1.44.48.24.96.12,1.44-.36,10.08-9.84,24-14.76,41.76-14.76,14.16,0,26.58,3,37.26,9,10.68,6,19.14,14.64,25.38,25.92,6.48,12.24,9.72,27.12,9.72,44.64,0,14.64-2.4,27.48-7.2,38.52Z" style="stroke-width: 0px;"/>
</svg>