<?xml version="1.0" encoding="UTF-8"?>
<svg id="icon" xmlns="http://www.w3.org/2000/svg" viewBox="0 0 864 864">
  <path d="M684,144H180c-19.88,0-36,16.12-36,36v504c0,19.88,16.12,36,36,36h504c19.88,0,36-16.12,36-36V180c0-19.88-16.12-36-36-36ZM508.86,495.72c0,12.96-3.24,24.36-9.72,34.2-6.48,9.84-15.54,17.46-27.18,22.86-11.64,5.4-25.02,8.1-40.14,8.1s-27.66-2.64-39.06-7.92c-11.4-5.28-20.28-12.72-26.64-22.32-6.36-9.6-9.54-20.64-9.54-33.12v-7.92c0-1.2.42-2.22,1.26-3.06s1.86-1.26,3.06-1.26h33.12c1.2,0,2.22.42,3.06,1.26.84.84,1.26,1.86,1.26,3.06v2.52c0,9.6,3.12,17.46,9.36,23.58,6.24,6.12,14.28,9.18,24.12,9.18s18.78-3.18,25.38-9.54c6.6-6.36,9.9-14.58,9.9-24.66v-39.6c0-.72-.24-1.2-.72-1.44-.48-.24-.96-.12-1.44.36-10.32,10.08-24.36,15.12-42.12,15.12-14.16,0-26.58-3-37.26-9-10.68-6-19.02-14.64-25.02-25.92-6.72-12-10.08-26.88-10.08-44.64,0-14.64,2.4-27.48,7.2-38.52,5.76-13.68,14.88-24.36,27.36-32.04,12.48-7.68,27.24-11.52,44.28-11.52,18,0,33.42,4.14,46.26,12.42,12.84,8.28,22.02,19.86,27.54,34.74,3.84,10.08,5.76,21.84,5.76,35.28v109.8Z" style="stroke-width: 0px;"/>
  <path d="M430.02,339.84c-15.36,0-26.16,6.48-32.4,19.44-3.6,7.92-5.4,16.44-5.4,25.56,0,10.8,2.16,20.04,6.48,27.72,6.72,11.52,17.04,17.28,30.96,17.28,14.88,0,25.44-6,31.68-18,3.84-7.68,5.76-17.04,5.76-28.08,0-9.12-1.56-17.16-4.68-24.12-5.76-13.2-16.56-19.8-32.4-19.8Z" style="stroke-width: 0px;"/>
</svg>