<?xml version="1.0" encoding="UTF-8"?>
<svg id="icon" xmlns="http://www.w3.org/2000/svg" viewBox="0 0 864 864">
  <path d="M530.08,199.79c-31.04-13.13-64.04-19.79-98.08-19.79s-67.03,6.66-98.08,19.79c-30,12.69-56.96,30.87-80.11,54.02-23.15,23.15-41.33,50.11-54.02,80.11-13.13,31.04-19.79,64.04-19.79,98.08s6.66,67.03,19.79,98.08c12.69,30,30.87,56.96,54.02,80.11,23.15,23.15,50.11,41.33,80.11,54.02,31.04,13.13,64.04,19.79,98.08,19.79s67.03-6.66,98.08-19.79c30-12.69,56.96-30.87,80.11-54.02,23.15-23.15,41.33-50.11,54.02-80.11,13.13-31.04,19.79-64.04,19.79-98.08s-6.66-67.03-19.79-98.08c-12.69-30-30.87-56.96-54.02-80.11-23.15-23.15-50.11-41.33-80.11-54.02Z" style="fill: none; stroke-width: 0px;"/>
  <path d="M432,144c-159.06,0-288,128.94-288,288s128.94,288,288,288,288-128.94,288-288-128.94-288-288-288ZM684,432c0,34.04-6.66,67.03-19.79,98.08-12.69,30-30.87,56.96-54.02,80.11-23.15,23.15-50.11,41.33-80.11,54.02-31.04,13.13-64.04,19.79-98.08,19.79s-67.03-6.66-98.08-19.79c-30-12.69-56.96-30.87-80.11-54.02-23.15-23.15-41.33-50.11-54.02-80.11-13.13-31.04-19.79-64.04-19.79-98.08s6.66-67.03,19.79-98.08c12.69-30,30.87-56.96,54.02-80.11,23.15-23.15,50.11-41.33,80.11-54.02,31.04-13.13,64.04-19.79,98.08-19.79s67.03,6.66,98.08,19.79c30,12.69,56.96,30.87,80.11,54.02,23.15,23.15,41.33,50.11,54.02,80.11,13.13,31.04,19.79,64.04,19.79,98.08Z" style="stroke-width: 0px;"/>
  <path d="M514.44,381.24c0-24-7.5-43.02-22.5-57.06-15-14.04-35.1-21.06-60.3-21.06s-45.18,7.02-59.94,21.06c-14.76,14.04-22.14,33.06-22.14,57.06v101.52c0,24.24,7.38,43.5,22.14,57.78,14.76,14.28,34.74,21.42,59.94,21.42s45.3-7.14,60.3-21.42c15-14.28,22.5-33.54,22.5-57.78v-101.52ZM472.68,484.92c0,12.48-3.72,22.38-11.16,29.7-7.44,7.32-17.4,10.98-29.88,10.98s-22.02-3.66-29.34-10.98c-7.32-7.32-10.98-17.22-10.98-29.7v-105.12c0-12.48,3.66-22.38,10.98-29.7,7.32-7.32,17.1-10.98,29.34-10.98s22.44,3.66,29.88,10.98c7.44,7.32,11.16,17.22,11.16,29.7v105.12Z" style="stroke-width: 0px;"/>
</svg>