<?xml version="1.0" encoding="UTF-8"?>
<svg id="icon" xmlns="http://www.w3.org/2000/svg" viewBox="0 0 864 864">
  <path d="M452.74,340.95c-5.4,4.21-11.88,6.32-19.44,6.32s-13.61-1.94-18.79-5.83c-5.18-3.89-8.97-9.4-11.34-16.52-.87-2.59-1.41-4.54-1.62-5.83-.65-2.38-2.06-3.56-4.21-3.56h-30.78c-2.59,0-3.89,1.19-3.89,3.56v.65c1.08,6.05,2.48,11.45,4.21,16.2,4.75,13.39,13.07,24.03,24.95,31.91,11.88,7.89,25.81,11.83,41.8,11.83s30.34-4.05,42.44-12.15c12.09-8.1,20.41-19.06,24.95-32.89,2.8-9.07,4.21-18.68,4.21-28.84s-1.41-20.41-4.21-30.13c-4.11-13.39-11.72-23.92-22.84-31.59-11.13-7.67-24.25-11.5-39.37-11.5-14.26,0-26.46,3.78-36.61,11.34-.44.43-.87.6-1.3.49-.44-.11-.65-.59-.65-1.46l.32-58.32c0-1.08.54-1.62,1.62-1.62h90.72c1.08,0,1.99-.38,2.75-1.13s1.13-1.67,1.13-2.75v-24.62c0-1.08-.38-2-1.13-2.75-.76-.75-1.68-1.13-2.75-1.13h-126.04c-1.08,0-2,.38-2.75,1.13s-1.13,1.68-1.13,2.75v128.3c0,1.08.38,2,1.13,2.75.75.76,1.67,1.13,2.75,1.13h31.43c2.16,0,3.67-1.08,4.54-3.24,1.73-5.4,5.56-9.77,11.5-13.12,5.94-3.35,12.58-5.02,19.93-5.02,7.78,0,14.36,1.89,19.76,5.67,5.4,3.78,8.85,9.23,10.37,16.36,1.73,6.05,2.59,12.21,2.59,18.47,0,6.7-.97,12.64-2.92,17.82-2.16,7.35-5.94,13.12-11.34,17.33Z" style="stroke-width: 0px;"/>
  <path d="M477.2,594.17c-.87-.65-.87-1.4,0-2.27,5.4-3.89,10.15-8.85,14.26-14.9,5.83-8.86,8.75-19.22,8.75-31.1,0-13.39-3.78-25.6-11.34-36.61-5.83-8.42-13.56-14.96-23.17-19.6-9.61-4.64-20.79-6.97-33.53-6.97s-23.44,2.32-33.37,6.97c-9.94,4.65-17.82,11.18-23.65,19.6-7.99,10.8-11.99,23-11.99,36.61,0,11.02,2.8,21.06,8.42,30.13,4.32,6.92,9.18,12.31,14.58,16.2.86.87.75,1.62-.32,2.27-7.99,4.54-14.15,11.23-18.47,20.09-4.97,10.37-7.45,21.38-7.45,33.05,0,12.96,2.8,24.52,8.42,34.67,5.61,11.02,14.04,19.39,25.27,25.11,11.23,5.73,24.08,8.59,38.56,8.59s27.43-2.92,38.23-8.75c10.8-5.83,19-13.82,24.62-23.98,5.61-10.58,8.42-22.36,8.42-35.32s-2.38-23.22-7.13-32.72c-4.54-9.28-10.91-16.31-19.12-21.06ZM404.3,531.63c2.59-5.18,6.26-9.23,11.02-12.15,4.75-2.92,10.15-4.37,16.2-4.37,6.48,0,12.09,1.46,16.85,4.37,4.75,2.92,8.53,6.86,11.34,11.83,2.37,5.18,3.56,10.16,3.56,14.9,0,8.42-1.62,15.02-4.86,19.76-6.05,9.07-14.9,13.61-26.57,13.61s-20.74-4.43-25.92-13.29c-3.68-5.83-5.51-12.42-5.51-19.76,0-4.32,1.3-9.28,3.89-14.9ZM458.73,670.31c-5.62,8.86-14.47,13.28-26.57,13.28-12.75,0-22.03-4.75-27.86-14.26-3.89-6.26-5.83-14.36-5.83-24.3s1.83-18.47,5.51-24.3c5.83-9.5,15.12-14.26,27.86-14.26,13.61,0,23.11,4.97,28.51,14.9,3.45,5.62,5.18,13.4,5.18,23.33,0,10.8-2.27,19.33-6.8,25.6Z" style="stroke-width: 0px;"/>
  <path d="M624,414H240c-9.94,0-18,8.06-18,18s8.06,18,18,18h384c9.94,0,18-8.06,18-18s-8.06-18-18-18Z" style="stroke-width: 0px;"/>
</svg>