<?xml version="1.0" encoding="UTF-8"?>
<svg id="icon" xmlns="http://www.w3.org/2000/svg" viewBox="0 0 864 864">
  <path d="M371.04,333.6c.79.96,1.84,1.44,3.12,1.44.96,0,1.76-.16,2.4-.48l48-14.88c.64-.31,1.28-.24,1.92.24.64.48.96,1.04.96,1.68v272.64c0,1.6.55,2.96,1.68,4.08,1.12,1.12,2.48,1.68,4.08,1.68h44.16c1.6,0,2.96-.56,4.08-1.68s1.68-2.47,1.68-4.08v-324.48c0-1.6-.56-2.95-1.68-4.08-1.12-1.12-2.48-1.68-4.08-1.68h-46.08c-2.24,0-4.64.48-7.2,1.44l-51.84,25.92c-2.56,1.28-3.84,3.52-3.84,6.72l1.44,31.68c0,1.61.4,2.88,1.2,3.84Z" style="stroke-width: 0px;"/>
</svg>