<?xml version="1.0" encoding="UTF-8"?>
<svg id="icon" xmlns="http://www.w3.org/2000/svg" viewBox="0 0 864 864">
  <polygon points="180 180 180 684 684 684 684 180 684 180 180 180" style="fill: none; stroke-width: 0px;"/>
  <path d="M684,144H180c-19.88,0-36,16.12-36,36v504c0,19.88,16.12,36,36,36h504c19.88,0,36-16.12,36-36V180c0-19.88-16.12-36-36-36ZM684,684H180s0-504,0-504h504v504Z" style="stroke-width: 0px;"/>
  <path d="M420.3,504.72c26.4-28.8,45.36-50.4,56.88-64.8,20.88-25.68,31.32-48.36,31.32-68.04,0-12.96-3.24-24.66-9.72-35.1-6.48-10.44-15.72-18.66-27.72-24.66-12-6-26.04-9-42.12-9-14.64,0-27.9,2.64-39.78,7.92-11.88,5.28-21.3,12.72-28.26,22.32-6.96,9.6-10.68,20.88-11.16,33.84v15.48c0,1.2.42,2.22,1.26,3.06.84.84,1.86,1.26,3.06,1.26h33.48c1.2,0,2.22-.42,3.06-1.26.84-.84,1.26-1.86,1.26-3.06v-9.36c0-10.32,3.42-18.6,10.26-24.84,6.84-6.24,15.78-9.36,26.82-9.36s20.04,3.12,27,9.36c6.96,6.24,10.44,14.28,10.44,24.12,0,13.2-11.04,32.64-33.12,58.32l-16.92,19.8c-24,28.32-45.12,52.2-63.36,71.64-1.44,1.44-2.16,3.24-2.16,5.4v25.92c0,1.2.42,2.22,1.26,3.06.84.84,1.86,1.26,3.06,1.26h154.8c1.2,0,2.22-.42,3.06-1.26.84-.84,1.26-1.86,1.26-3.06v-27.36c0-1.2-.42-2.22-1.26-3.06-.84-.84-1.86-1.26-3.06-1.26h-102.6c-.72,0-1.14-.24-1.26-.72-.12-.48.06-.96.54-1.44l13.68-15.12Z" style="stroke-width: 0px;"/>
</svg>