<?xml version="1.0" encoding="UTF-8"?>
<svg id="icon" xmlns="http://www.w3.org/2000/svg" viewBox="0 0 864 864">
  <path d="M432,648c119.29,0,216-96.71,216-216s-96.71-216-216-216-216,96.71-216,216,96.71,216,216,216ZM349.56,381.24c0-24,7.38-43.02,22.14-57.06,14.76-14.04,34.74-21.06,59.94-21.06s45.3,7.02,60.3,21.06c15,14.04,22.5,33.06,22.5,57.06v101.52c0,24.24-7.5,43.5-22.5,57.78-15,14.28-35.1,21.42-60.3,21.42s-45.18-7.14-59.94-21.42c-14.76-14.28-22.14-33.54-22.14-57.78v-101.52Z" style="stroke-width: 0px;"/>
  <path d="M431.64,525.6c12.48,0,22.44-3.66,29.88-10.98,7.44-7.32,11.16-17.22,11.16-29.7v-105.12c0-12.48-3.72-22.38-11.16-29.7-7.44-7.32-17.4-10.98-29.88-10.98s-22.02,3.66-29.34,10.98c-7.32,7.32-10.98,17.22-10.98,29.7v105.12c0,12.48,3.66,22.38,10.98,29.7,7.32,7.32,17.1,10.98,29.34,10.98Z" style="stroke-width: 0px;"/>
</svg>