<?xml version="1.0" encoding="UTF-8"?>
<svg id="icon" xmlns="http://www.w3.org/2000/svg" viewBox="0 0 864 864">
  <path d="M430.06,376.27c.75.76,1.67,1.13,2.75,1.13h29.81c1.08,0,2-.37,2.75-1.13s1.13-1.67,1.13-2.75v-219.02c0-1.08-.38-2-1.13-2.75-.76-.75-1.68-1.13-2.75-1.13h-31.1c-1.51,0-3.13.32-4.86.97l-34.99,17.5c-1.73.87-2.59,2.38-2.59,4.54l.97,21.38c0,1.08.27,1.94.81,2.59.54.65,1.24.97,2.11.97.65,0,1.18-.11,1.62-.32l32.4-10.04c.43-.21.86-.16,1.3.16.43.32.65.7.65,1.13v184.03c0,1.08.38,2,1.13,2.75Z" style="stroke-width: 0px;"/>
  <path d="M624,414H240c-9.94,0-18,8.06-18,18s8.06,18,18,18h384c9.94,0,18-8.06,18-18s-8.06-18-18-18Z" style="stroke-width: 0px;"/>
</svg>