<?xml version="1.0" encoding="UTF-8"?>
<svg id="icon" xmlns="http://www.w3.org/2000/svg" viewBox="0 0 864 864">
  <path d="M357.8,309.68c0,21.82,6.64,39.15,19.93,52,13.28,12.85,31.27,19.28,53.95,19.28s40.77-6.42,54.27-19.28c13.5-12.85,20.25-30.18,20.25-52v-91.37c0-21.6-6.75-38.72-20.25-51.35-13.5-12.64-31.59-18.95-54.27-18.95s-40.66,6.32-53.95,18.95c-13.28,12.64-19.93,29.76-19.93,51.35v91.37ZM395.39,217.02c0-11.23,3.29-20.14,9.88-26.73s15.39-9.88,26.41-9.88,20.19,3.3,26.89,9.88c6.69,6.59,10.04,15.5,10.04,26.73v94.61c0,11.23-3.35,20.14-10.04,26.73-6.7,6.59-15.66,9.88-26.89,9.88s-19.82-3.29-26.41-9.88c-6.59-6.59-9.88-15.5-9.88-26.73v-94.61Z" style="stroke-width: 0px;"/>
  <path d="M452.25,572.13c-1.73-.43-2.16-1.08-1.3-1.94l46.33-46.66c1.3-1.3,1.94-2.92,1.94-4.86v-28.19c0-1.08-.38-2-1.13-2.75-.76-.75-1.68-1.13-2.75-1.13h-129.28c-1.08,0-2,.38-2.75,1.13s-1.13,1.68-1.13,2.75v24.62c0,1.08.38,2,1.13,2.75.75.76,1.67,1.13,2.75,1.13h81c.65,0,1.08.22,1.3.65.21.44.11.87-.32,1.3l-53.46,52.49c-.87.87-1.3,1.84-1.3,2.92,0,.65.32,1.51.97,2.59l14.9,20.74c1.08,1.29,2.16,1.94,3.24,1.94.65,0,1.4-.21,2.27-.65,6.26-4.32,11.23-6.48,14.9-6.48,13.82,0,23.54,6.05,29.16,18.14,3.24,7.13,4.86,16.2,4.86,27.22,0,9.94-1.41,18.04-4.21,24.3-5.4,12.96-15.23,19.44-29.48,19.44-7.56,0-13.99-2-19.28-5.99-5.29-3.99-8.91-9.45-10.85-16.36-1.73-4.1-2.81-9.61-3.24-16.52,0-2.59-1.3-3.89-3.89-3.89h-30.13c-2.59,0-3.89,1.3-3.89,3.89.43,10.8,1.94,19.55,4.54,26.24,4.97,13.83,13.33,24.79,25.11,32.89,11.77,8.1,25.65,12.15,41.63,12.15s30.02-3.73,41.47-11.18c11.45-7.45,19.65-17.98,24.62-31.59,3.67-9.28,5.51-19.98,5.51-32.08,0-13.39-2.16-25.27-6.48-35.64-8.42-19.44-22.68-30.56-42.77-33.37Z" style="stroke-width: 0px;"/>
  <path d="M624,414H240c-9.94,0-18,8.06-18,18s8.06,18,18,18h384c9.94,0,18-8.06,18-18s-8.06-18-18-18Z" style="stroke-width: 0px;"/>
</svg>