<?xml version="1.0" encoding="UTF-8"?>
<svg id="icon" xmlns="http://www.w3.org/2000/svg" viewBox="0 0 864 864">
  <path d="M430.06,376.27c.75.76,1.67,1.13,2.75,1.13h29.81c1.08,0,2-.37,2.75-1.13.75-.75,1.13-1.67,1.13-2.75v-219.02c0-1.08-.38-2-1.13-2.75-.76-.75-1.68-1.13-2.75-1.13h-31.1c-1.51,0-3.13.32-4.86.97l-34.99,17.5c-1.73.87-2.59,2.38-2.59,4.54l.97,21.38c0,1.08.27,1.94.81,2.59.54.65,1.24.97,2.11.97.65,0,1.18-.11,1.62-.32l32.4-10.04c.43-.21.86-.16,1.3.16.43.32.65.7.65,1.13v184.03c0,1.08.37,2,1.13,2.75Z" style="stroke-width: 0px;"/>
  <path d="M492.43,688.13c5.83-8.85,8.75-19.12,8.75-30.78v-98.82c0-12.09-1.73-22.68-5.18-31.75-4.97-13.39-13.23-23.81-24.79-31.27-11.56-7.45-25.43-11.18-41.63-11.18-15.34,0-28.62,3.46-39.85,10.37-11.23,6.92-19.44,16.52-24.62,28.84-4.32,9.94-6.48,21.5-6.48,34.67,0,15.99,3.02,29.38,9.07,40.18,5.4,10.16,12.9,17.93,22.52,23.33,9.61,5.4,20.79,8.1,33.53,8.1,15.98,0,28.62-4.54,37.91-13.61.43-.43.86-.54,1.3-.32.43.22.65.65.65,1.3v35.64c0,9.07-2.97,16.47-8.91,22.19-5.94,5.72-13.56,8.59-22.84,8.59s-16.09-2.75-21.71-8.26c-5.62-5.51-8.42-12.58-8.42-21.22v-2.27c0-1.08-.38-2-1.13-2.75-.76-.75-1.68-1.13-2.75-1.13h-29.81c-1.08,0-2,.38-2.75,1.13s-1.13,1.68-1.13,2.75v7.13c0,11.23,2.86,21.17,8.59,29.81,5.72,8.64,13.71,15.34,23.98,20.09,10.26,4.75,21.98,7.13,35.15,7.13s25.65-2.43,36.13-7.29c10.47-4.86,18.63-11.71,24.46-20.57ZM458.41,581.86c-5.62,10.8-15.12,16.2-28.51,16.2-12.53,0-21.82-5.18-27.86-15.55-3.89-6.91-5.83-15.23-5.83-24.95,0-8.21,1.62-15.88,4.86-23,5.61-11.66,15.33-17.5,29.16-17.5s23.98,5.94,29.16,17.82c2.8,6.27,4.21,13.5,4.21,21.71,0,9.94-1.73,18.36-5.18,25.27Z" style="stroke-width: 0px;"/>
  <path d="M624,414H240c-9.94,0-18,8.06-18,18s8.06,18,18,18h384c9.94,0,18-8.06,18-18s-8.06-18-18-18Z" style="stroke-width: 0px;"/>
</svg>