<?xml version="1.0" encoding="UTF-8"?>
<svg id="icon" xmlns="http://www.w3.org/2000/svg" viewBox="0 0 864 864">
  <path d="M367.2,585.84c17.44,12,38,18,61.68,18s44.48-5.52,61.44-16.56c16.96-11.04,29.12-26.64,36.48-46.8,5.44-13.75,8.16-29.6,8.16-47.52,0-19.84-3.2-37.44-9.6-52.8-12.48-28.8-33.6-45.28-63.36-49.44-2.56-.64-3.2-1.6-1.92-2.88l68.64-69.12c1.92-1.92,2.88-4.32,2.88-7.2v-41.76c0-1.6-.56-2.95-1.68-4.08-1.12-1.12-2.48-1.68-4.08-1.68h-191.52c-1.6,0-2.96.56-4.08,1.68s-1.68,2.48-1.68,4.08v36.48c0,1.6.55,2.96,1.68,4.08,1.12,1.12,2.48,1.68,4.08,1.68h120c.96,0,1.6.32,1.92.96.32.65.16,1.28-.48,1.92l-79.2,77.76c-1.28,1.28-1.92,2.72-1.92,4.32,0,.96.48,2.24,1.44,3.84l22.08,30.72c1.6,1.92,3.2,2.88,4.8,2.88.96,0,2.08-.31,3.36-.96,9.28-6.4,16.63-9.6,22.08-9.6,20.47,0,34.88,8.96,43.2,26.88,4.8,10.56,7.2,24,7.2,40.32,0,14.72-2.09,26.72-6.24,36-8,19.2-22.56,28.8-43.68,28.8-11.2,0-20.72-2.96-28.56-8.88-7.84-5.92-13.2-14-16.08-24.24-2.56-6.08-4.16-14.24-4.8-24.48,0-3.84-1.92-5.76-5.76-5.76h-44.64c-3.84,0-5.76,1.92-5.76,5.76.64,16,2.88,28.96,6.72,38.88,7.36,20.48,19.76,36.72,37.2,48.72Z" style="stroke-width: 0px;"/>
</svg>