<?xml version="1.0" encoding="UTF-8"?>
<svg id="icon" xmlns="http://www.w3.org/2000/svg" viewBox="0 0 864 864">
  <path d="M338.47,220.24l52.1,37.85-19.9,61.24c-.8,2.47.08,5.18,2.18,6.71,1.05.76,2.29,1.15,3.53,1.15s2.48-.38,3.53-1.15l52.1-37.85,52.1,37.85c1.05.76,2.29,1.15,3.53,1.15,1.24,0,2.48-.38,3.53-1.15,2.1-1.53,2.98-4.24,2.18-6.71l-19.9-61.24,52.1-37.85c2.1-1.53,2.98-4.24,2.18-6.71-.8-2.47-3.11-4.15-5.71-4.15h-64.39l-19.9-61.24c-.8-2.47-3.11-4.15-5.71-4.15s-4.9,1.67-5.71,4.15l-19.9,61.24h-64.39c-2.6,0-4.9,1.67-5.71,4.15-.8,2.47.08,5.18,2.18,6.71ZM406.39,224.39h10.9l3.37-10.36,11.34-34.9,11.34,34.9,3.37,10.36h47.59l-29.69,21.57-8.82,6.41,3.37,10.36,11.34,34.9-29.69-21.57-8.82-6.41-8.82,6.41-29.69,21.57,11.34-34.9,3.37-10.36-8.82-6.41-29.69-21.57h36.69Z" style="stroke-width: 0px;"/>
  <path d="M432,360c-47.56,0-86.25,38.69-86.25,86.25,0,22.99,9.22,48.48,24.66,68.19,17.09,21.81,38.96,33.81,61.59,33.81s44.5-12.01,61.59-33.81c15.44-19.71,24.66-45.2,24.66-68.19,0-47.56-38.69-86.25-86.25-86.25ZM479.42,503.33c-13.6,17.36-30.44,26.92-47.42,26.92s-33.82-9.56-47.42-26.92c-13.04-16.65-20.83-37.99-20.83-57.08,0-37.63,30.62-68.25,68.25-68.25s68.25,30.62,68.25,68.25c0,19.1-7.79,40.44-20.83,57.08Z" style="stroke-width: 0px;"/>
  <path d="M289.5,712.5v7.5h285v-7.5c0-22.79-5.32-44.76-15.36-64.5h152.68v-14.1c0-28.29-11.02-54.88-31.02-74.88-20-20-46.6-31.02-74.88-31.02s-54.88,11.02-74.88,31.02c-9.68,9.68-17.24,20.84-22.53,33.21-22.65-14.47-48.98-22.23-76.51-22.23s-53.86,7.76-76.51,22.23c-5.29-12.37-12.84-23.53-22.53-33.21-20-20-46.6-31.02-74.88-31.02s-54.88,11.02-74.88,31.02c-20,20-31.02,46.6-31.02,74.88v14.1h152.68c-10.04,19.74-15.36,41.71-15.36,64.5ZM523.52,603.14c4.4-11.8,11.21-22.36,20.24-31.4,16.6-16.6,38.68-25.75,62.15-25.75s45.55,9.14,62.15,25.75c15.68,15.68,24.71,36.24,25.66,58.25h-145.51c-4.59-6.44-9.75-12.55-15.46-18.26-3.06-3.06-6.24-5.96-9.52-8.7l.28.1ZM520.03,624.47c21.02,21.02,33.6,48.24,36.03,77.53h-248.13c2.43-29.29,15.01-56.51,36.03-77.53,23.51-23.52,54.78-36.47,88.03-36.47s64.52,12.95,88.03,36.47ZM170.26,630c.96-22.02,9.98-42.57,25.66-58.25,16.6-16.6,38.68-25.75,62.15-25.75s45.55,9.14,62.15,25.75c9.04,9.04,15.85,19.6,20.24,31.4l.28-.1c-3.28,2.74-6.46,5.64-9.52,8.7-5.71,5.71-10.87,11.82-15.46,18.26h-145.51Z" style="stroke-width: 0px;"/>
  <path d="M606,510.6c18.1,0,35.6-9.61,49.27-27.05,12.35-15.77,19.73-36.16,19.73-54.55,0-38.05-30.95-69-69-69s-69,30.95-69,69c0,18.39,7.38,38.78,19.73,54.55,13.67,17.44,31.17,27.05,49.27,27.05ZM606,378c28.12,0,51,22.88,51,51,0,14.28-6.09,30.93-15.9,43.45-10.18,13-22.65,20.15-35.1,20.15s-24.92-7.16-35.1-20.15c-9.81-12.52-15.9-29.16-15.9-43.45,0-28.12,22.88-51,51-51Z" style="stroke-width: 0px;"/>
  <path d="M258,510.6c18.1,0,35.6-9.61,49.27-27.05,12.35-15.77,19.73-36.16,19.73-54.55,0-38.05-30.95-69-69-69s-69,30.95-69,69c0,18.39,7.38,38.78,19.73,54.55,13.67,17.44,31.17,27.05,49.27,27.05ZM258,378c28.12,0,51,22.88,51,51,0,14.28-6.09,30.93-15.9,43.45-10.18,13-22.65,20.15-35.1,20.15s-24.92-7.16-35.1-20.15c-9.81-12.52-15.9-29.16-15.9-43.45,0-28.12,22.88-51,51-51Z" style="stroke-width: 0px;"/>
</svg>