<?xml version="1.0" encoding="UTF-8"?>
<svg id="Layer_1" data-name="Layer 1" xmlns="http://www.w3.org/2000/svg" viewBox="0 0 864 864">
  <path d="M547.2,288c0,41.04-15.72,85.77-39.77,120.04-24.82,35.37-53.28,52.76-75.43,52.76s-50.6-17.4-75.43-52.76c-24.05-34.27-39.77-79-39.77-120.04,0-69.58,50.66-115.2,115.2-115.2s115.2,45.62,115.2,115.2h0ZM576,288c0,95.45-72,201.6-144,201.6s-144-106.15-144-201.6c0-86.4,64.48-144,144-144s144,57.6,144,144h0ZM372.21,525.17c-3.17-5.07-9.16-7.66-15.03-6.48l-51.41,10.28c-60.57,12.1-104.17,65.29-104.17,127.07v49.56c0,7.95,6.45,14.4,14.4,14.4h432c7.95,0,14.4-6.45,14.4-14.4v-49.56c0-61.78-43.6-114.97-104.17-127.07l-51.41-10.28c-5.88-1.18-11.87,1.41-15.03,6.48l-47.58,76.12c-5.64,9.04-18.78,9.04-24.42,0l-47.58-76.12h0ZM311.44,557.19l41.62-8.32,42.31,67.68c16.93,27.07,56.34,27.07,73.27,0l42.31-67.68,41.62,8.32c47.12,9.42,81.04,50.81,81.04,98.85v35.16H230.4v-35.16c0-48.04,33.93-89.42,81.04-98.85h0Z" style="fill-rule: evenodd; stroke-width: 0px;"/>
</svg>