<?xml version="1.0" encoding="UTF-8"?>
<svg id="icon" xmlns="http://www.w3.org/2000/svg" viewBox="0 0 864 864">
  <path d="M443.25,314.25c0,22.99,9.22,48.48,24.66,68.19,17.09,21.81,38.96,33.81,61.59,33.81s44.5-12.01,61.59-33.81c15.44-19.71,24.66-45.2,24.66-68.19,0-47.56-38.69-86.25-86.25-86.25s-86.25,38.69-86.25,86.25ZM597.75,314.25c0,19.1-7.79,40.44-20.83,57.08-13.6,17.36-30.44,26.92-47.42,26.92s-33.82-9.56-47.42-26.92c-13.04-16.65-20.83-37.99-20.83-57.08,0-37.63,30.62-68.25,68.25-68.25s68.25,30.62,68.25,68.25Z" style="stroke-width: 0px;"/>
  <path d="M248.25,314.25c0,22.99,9.22,48.48,24.66,68.19,17.09,21.81,38.96,33.81,61.59,33.81s44.5-12.01,61.59-33.81c15.44-19.71,24.66-45.2,24.66-68.19,0-47.56-38.69-86.25-86.25-86.25s-86.25,38.69-86.25,86.25ZM402.75,314.25c0,19.1-7.79,40.44-20.83,57.08-13.6,17.36-30.44,26.92-47.42,26.92s-33.82-9.56-47.42-26.92c-13.04-16.65-20.83-37.99-20.83-57.08,0-37.63,30.62-68.25,68.25-68.25s68.25,30.62,68.25,68.25Z" style="stroke-width: 0px;"/>
  <path d="M646.92,534.9c-1.44-4.97-3.17-9.87-5.18-14.64,10.95-2.08,21.3-8.85,29.72-19.59,9.27-11.83,14.8-27.12,14.8-40.91,0-28.53-23.21-51.75-51.75-51.75-26.87,0-49.02,20.59-51.51,46.83-19.82-11.03-42.13-16.83-65.19-16.83-12.54,0-24.9,1.73-36.81,5.1-6.95-20.39-26.28-35.1-48.99-35.1s-42.04,14.71-48.99,35.1c-11.91-3.38-24.27-5.1-36.81-5.1-23.06,0-45.37,5.8-65.19,16.83-2.49-26.23-24.64-46.83-51.51-46.83-28.54,0-51.75,23.22-51.75,51.75,0,13.79,5.53,29.09,14.8,40.91,8.42,10.74,18.77,17.51,29.72,19.59-2.01,4.77-3.74,9.67-5.18,14.64-18.13,2.62-34.86,10.96-48.04,24.15-16.15,16.15-25.04,37.62-25.04,60.46v4.5h171v-4.5c0-10.96-2.07-21.6-5.99-31.5h43.48c-3.92,9.9-5.99,20.54-5.99,31.5v4.5h171v-4.5c0-10.96-2.07-21.6-5.99-31.5h43.48c-3.92,9.9-5.99,20.54-5.99,31.5v4.5h171v-4.5c0-22.84-8.89-44.31-25.04-60.46-13.18-13.18-29.92-21.53-48.04-24.15ZM634.5,426c18.61,0,33.75,15.14,33.75,33.75,0,9.75-4.2,21.18-10.97,29.81-6.77,8.64-14.86,13.39-22.78,13.39s-16.02-4.76-22.78-13.39c-6.76-8.63-10.97-20.06-10.97-29.81,0-18.61,15.14-33.75,33.75-33.75ZM432,426c18.61,0,33.75,15.14,33.75,33.75,0,9.75-4.2,21.18-10.97,29.81-6.77,8.64-14.86,13.39-22.78,13.39s-16.02-4.76-22.78-13.39c-6.76-8.63-10.97-20.06-10.97-29.81,0-18.61,15.14-33.75,33.75-33.75ZM206.72,489.56c-6.76-8.63-10.97-20.06-10.97-29.81,0-18.61,15.14-33.75,33.75-33.75s33.75,15.14,33.75,33.75c0,9.75-4.2,21.18-10.97,29.81-6.77,8.64-14.86,13.39-22.78,13.39s-16.02-4.76-22.78-13.39ZM163.34,606c2.6-12.88,8.92-24.72,18.43-34.23,12.75-12.75,29.7-19.77,47.73-19.77s34.98,7.02,47.73,19.77c9.51,9.51,15.83,21.35,18.43,34.23h-132.32ZM365.84,606c2.6-12.88,8.92-24.72,18.43-34.23,12.75-12.75,29.7-19.77,47.73-19.77s34.98,7.02,47.73,19.77c9.51,9.51,15.83,21.35,18.43,34.23h-132.32ZM501.71,570c-2.75-3.86-5.83-7.54-9.25-10.96-16.15-16.15-37.62-25.04-60.46-25.04s-44.31,8.89-60.46,25.04c-3.42,3.42-6.5,7.1-9.25,10.96h-63.08c-2.75-3.86-5.83-7.54-9.25-10.96-14.57-14.57-33.47-23.21-53.8-24.76,1.68-4.87,3.69-9.63,6-14.23l.76-1.51c8.64-3.11,16.72-9.19,23.53-17.89,5.34-6.82,9.44-14.8,11.95-22.97l2.65-1.8c19.19-13.02,41.71-19.89,65.15-19.89,11.64,0,23.1,1.71,34.08,5.06.33,13.45,5.79,28.15,14.76,39.6,10.25,13.08,23.38,20.29,36.95,20.29s26.7-7.21,36.95-20.29c8.97-11.45,14.43-26.16,14.76-39.6,10.98-3.35,22.44-5.06,34.08-5.06,23.43,0,45.96,6.88,65.15,19.89l2.65,1.8c2.52,8.17,6.61,16.15,11.95,22.97,6.81,8.69,14.89,14.77,23.53,17.89l.76,1.51c2.32,4.59,4.32,9.35,6,14.23-20.33,1.56-39.23,10.19-53.8,24.76-3.42,3.42-6.5,7.1-9.25,10.96h-63.08ZM568.34,606c2.6-12.88,8.92-24.72,18.43-34.23,12.75-12.75,29.7-19.77,47.73-19.77s34.98,7.02,47.73,19.77c9.51,9.51,15.83,21.35,18.43,34.23h-132.32Z" style="stroke-width: 0px;"/>
</svg>