<?xml version="1.0" encoding="UTF-8"?>
<svg id="Layer_1" data-name="Layer 1" xmlns="http://www.w3.org/2000/svg" viewBox="0 0 864 864">
  <path d="M432,172.8c46.59,0,74.81,16.41,91.61,36.29,17.23,20.45,23.59,45.79,23.59,64.51,0,72.58-36.85,119.23-87.99,155.23,9.02,4.9,18.44,10.08,28.2,14.98,50.16-38.59,88.59-90.72,88.59-170.21,0-24.48-8.04-56.74-30.41-83.23-22.8-26.78-59.39-46.37-113.59-46.37s-90.79,19.59-113.59,46.37c-22.37,26.5-30.41,58.75-30.41,83.23,0,124.7,94.63,182.3,180.76,225.21,10.56,5.47,20.96,10.37,31.1,15.27h0c32.38,15.84,62.12,30.24,85.93,46.66,30.84,21.6,47.81,43.78,47.81,72.86v57.6H230.4v-57.6c0-29.09,16.97-51.26,47.81-72.86,23.81-16.42,53.54-30.82,85.93-46.66h0c10.14-4.89,20.54-9.79,31.1-15.27,2.23-1.15,4.46-2.3,6.69-3.17-9.47-5.76-18.9-11.81-28.16-18.14-6.87,3.17-13.78,6.63-20.68,10.08h0c-32.86,15.84-65.46,31.68-91.3,49.53-33.96,23.62-60.19,53.57-60.19,96.48v86.4h460.8v-86.4c0-42.91-26.23-72.86-60.19-96.48-25.83-17.86-58.43-33.7-91.3-49.53l-29.28-14.4c-86.66-43.49-164.84-93.89-164.84-199.59,0-18.72,6.36-44.06,23.59-64.51,16.8-19.87,45.01-36.29,91.61-36.29Z" style="fill-rule: evenodd; stroke-width: 0px;"/>
</svg>