<?xml version="1.0" encoding="UTF-8"?>
<svg id="icon" xmlns="http://www.w3.org/2000/svg" viewBox="0 0 864 864">
  <path d="M311.25,300.75c0,32.18,12.91,67.87,34.53,95.46,23.92,30.53,54.54,47.34,86.22,47.34s62.3-16.81,86.22-47.34c21.62-27.59,34.53-63.28,34.53-95.46,0-66.58-54.17-120.75-120.75-120.75s-120.75,54.17-120.75,120.75Z" style="stroke-width: 0px;"/>
  <path d="M631.5,673.5c0-53.29-20.75-103.39-58.43-141.07-37.68-37.68-87.78-58.43-141.07-58.43s-103.39,20.75-141.07,58.43c-37.68,37.68-58.43,87.78-58.43,141.07v10.5h399v-10.5Z" style="stroke-width: 0px;"/>
</svg>