<?xml version="1.0" encoding="UTF-8"?>
<svg id="icon" xmlns="http://www.w3.org/2000/svg" viewBox="0 0 864 864">
  <path d="M675.02,216.8c-29.98-31.16-69.33-46.75-108.71-46.75s-78.79,15.58-108.91,46.75l-25.4,26.45-25.4-26.45c-29.99-31.16-69.33-46.75-108.71-46.75s-78.79,15.58-108.91,46.75c-59.97,62.33-59.97,163.15,0,225.48l242.5,251.66.52-.52.52.52,242.5-251.66c59.97-62.33,59.97-163.15,0-225.48ZM326.69,550.61l-46.26-48.01c5.42-1.06,10.96-1.6,16.57-1.6,21.44,0,41.65,7.9,57.34,22.3-5.44,3.99-10.61,8.41-15.47,13.27-4.41,4.41-8.46,9.11-12.18,14.04ZM432.21,659.68l-.21-.21-.21.21-88.19-91.52c3.63-5.18,7.71-10.08,12.24-14.61,20.34-20.34,47.39-31.54,76.16-31.54s55.81,11.2,76.16,31.54c4.52,4.52,8.63,9.42,12.25,14.6l-88.2,91.53ZM525.13,536.57c-4.86-4.86-10.03-9.28-15.47-13.27,15.69-14.41,35.91-22.3,57.34-22.3,5.6,0,11.15.54,16.57,1.6l-46.25,48c-3.72-4.93-7.8-9.64-12.19-14.03ZM657.74,425.63l-55.19,57.27-1.85-.6c-10.83-3.51-22.17-5.29-33.7-5.29-29.09,0-56.44,11.33-77,31.9l-1.68,1.68c-17.38-8.23-36.52-12.57-56.32-12.57s-38.94,4.34-56.32,12.57l-1.68-1.68c-20.57-20.57-47.92-31.9-77-31.9-11.53,0-22.87,1.78-33.7,5.29l-1.85.6-55.17-57.26c-50.98-52.98-50.98-139.19-.02-192.18,24.57-25.41,57.1-39.4,91.63-39.4s66.98,13.99,91.4,39.37l25.4,26.45,17.31,18.02,17.31-18.02,25.39-26.43c24.56-25.4,57.1-39.39,91.61-39.39s66.98,13.99,91.42,39.39c50.99,52.99,50.99,139.21.01,192.18Z" style="stroke-width: 0px;"/>
  <path d="M567,312c-22.86,0-43.14,11.18-55.7,28.35-13.2-30.75-43.77-52.35-79.3-52.35s-66.1,21.6-79.3,52.35c-12.56-17.17-32.85-28.35-55.7-28.35-38.05,0-69,30.95-69,69,0,18.39,7.38,38.78,19.73,54.55,13.67,17.44,31.17,27.05,49.27,27.05s35.6-9.61,49.27-27.05c3.9-4.97,7.29-10.4,10.12-16.09,3.79,8.14,8.5,15.93,14.02,22.97,17.08,21.81,38.96,33.81,61.59,33.81s44.5-12.01,61.59-33.81c5.52-7.04,10.23-14.83,14.02-22.97,2.83,5.68,6.23,11.12,10.12,16.09,13.67,17.44,31.17,27.05,49.27,27.05s35.6-9.61,49.27-27.05c12.35-15.77,19.73-36.16,19.73-54.55,0-38.05-30.95-69-69-69ZM327.38,420.75c-9.02,11.51-19.81,17.85-30.38,17.85s-21.36-6.34-30.38-17.85c-9.02-11.51-14.62-26.74-14.62-39.75,0-24.81,20.19-45,45-45s45,20.19,45,45c0,13.01-5.6,28.24-14.62,39.75ZM474.7,427.63c-12.44,15.87-27.6,24.62-42.7,24.62s-30.26-8.74-42.7-24.62c-12.06-15.39-19.55-35.85-19.55-53.38,0-34.32,27.92-62.25,62.25-62.25s62.25,27.93,62.25,62.25c0,17.53-7.49,37.99-19.55,53.38ZM597.38,420.75c-9.02,11.51-19.81,17.85-30.38,17.85s-21.36-6.34-30.38-17.85c-9.02-11.51-14.62-26.74-14.62-39.75,0-24.81,20.19-45,45-45s45,20.19,45,45c0,13.01-5.6,28.24-14.62,39.75Z" style="stroke-width: 0px;"/>
</svg>