<?xml version="1.0" encoding="UTF-8"?>
<svg id="icon" xmlns="http://www.w3.org/2000/svg" viewBox="0 0 864 864">
  <path d="M345.75,338.25c0,22.99,9.22,48.48,24.66,68.19,17.09,21.81,38.96,33.81,61.59,33.81s44.5-12.01,61.59-33.81c15.44-19.71,24.66-45.2,24.66-68.19,0-47.56-38.69-86.25-86.25-86.25s-86.25,38.69-86.25,86.25ZM494.25,338.25c0,17.53-7.49,37.99-19.55,53.38-12.44,15.87-27.6,24.62-42.7,24.62s-30.26-8.74-42.7-24.62c-12.06-15.39-19.55-35.85-19.55-53.38,0-34.32,27.93-62.25,62.25-62.25s62.25,27.93,62.25,62.25Z" style="stroke-width: 0px;"/>
  <path d="M289.5,604.5v7.5h285v-7.5c0-9.68-.96-19.22-2.84-28.5h137.54v-16.8c0-27.57-10.73-53.48-30.23-72.97-19.49-19.49-45.41-30.23-72.97-30.23s-53.48,10.73-72.97,30.23c-3.09,3.09-5.96,6.37-8.62,9.79-25.76-22.01-58.16-34.02-92.41-34.02s-66.65,12.01-92.41,34.02c-2.66-3.42-5.53-6.7-8.62-9.79-19.49-19.49-45.41-30.23-72.97-30.23s-53.48,10.73-72.97,30.23c-19.49,19.49-30.23,45.41-30.23,72.97v16.8h137.54c-1.87,9.28-2.84,18.82-2.84,28.5ZM606,480c21.16,0,41.04,8.24,56,23.2,13.25,13.25,21.23,30.37,22.88,48.8h-120.33c-5.52-13.96-13.28-27.01-23.08-38.73,2.55-3.56,5.39-6.93,8.53-10.07,14.96-14.96,34.85-23.2,56-23.2ZM515.79,520.71c18.44,18.45,30.06,41.9,33.58,67.29h-234.74c3.52-25.4,15.13-48.85,33.58-67.29,22.38-22.38,52.14-34.71,83.79-34.71s61.41,12.33,83.79,34.71ZM179.12,552c1.65-18.44,9.63-35.55,22.88-48.8,14.96-14.96,34.85-23.2,56-23.2s41.04,8.24,56,23.2c3.14,3.14,5.98,6.51,8.53,10.07-9.8,11.72-17.55,24.78-23.08,38.73h-120.33Z" style="stroke-width: 0px;"/>
  <path d="M537,357c0,18.39,7.38,38.78,19.73,54.55,13.67,17.44,31.17,27.05,49.27,27.05s35.6-9.61,49.27-27.05c12.35-15.77,19.73-36.16,19.73-54.55,0-38.05-30.95-69-69-69s-69,30.95-69,69ZM606,312c24.81,0,45,20.19,45,45,0,13.01-5.6,28.24-14.62,39.75-9.02,11.51-19.81,17.85-30.38,17.85s-21.36-6.34-30.38-17.85c-9.02-11.51-14.62-26.74-14.62-39.75,0-24.81,20.19-45,45-45Z" style="stroke-width: 0px;"/>
  <path d="M258,438.6c18.1,0,35.6-9.61,49.27-27.05,12.35-15.77,19.73-36.16,19.73-54.55,0-38.05-30.95-69-69-69s-69,30.95-69,69c0,18.39,7.38,38.78,19.73,54.55,13.67,17.44,31.17,27.05,49.27,27.05ZM258,312c24.81,0,45,20.19,45,45,0,13.01-5.6,28.24-14.62,39.75-9.02,11.51-19.81,17.85-30.38,17.85s-21.36-6.34-30.38-17.85c-9.02-11.51-14.62-26.74-14.62-39.75,0-24.81,20.19-45,45-45Z" style="stroke-width: 0px;"/>
</svg>