<?xml version="1.0" encoding="UTF-8"?>
<svg id="icon" xmlns="http://www.w3.org/2000/svg" viewBox="0 0 864 864">
  <path d="M576,432c-42.83,0-81.28,18.7-107.66,48.38-34.94-29.37-78.66-45.38-124.84-45.38-51.93,0-100.74,20.22-137.46,56.94-36.72,36.72-56.94,85.54-56.94,137.46v21.6h303.95c25.3,41.38,70.9,69,122.95,69,79.53,0,144-64.47,144-144s-64.47-144-144-144ZM173.12,627c.61-44.62,18.27-86.47,49.89-118.09s74.98-49.91,120.49-49.91c40.92,0,79.63,14.33,110.42,40.61-13.88,22.14-21.92,48.32-21.92,76.39,0,17.96,3.3,35.15,9.3,51H173.12ZM660.85,660.85c-22.67,22.67-52.8,35.15-84.85,35.15s-62.19-12.48-84.85-35.15-35.15-52.8-35.15-84.85,12.48-62.19,35.15-84.85,52.8-35.15,84.85-35.15,62.19,12.48,84.85,35.15,35.15,52.8,35.15,84.85-12.48,62.19-35.15,84.85Z" style="stroke-width: 0px;"/>
  <path d="M343.5,144c-66.58,0-120.75,54.17-120.75,120.75,0,32.18,12.91,67.87,34.53,95.46,23.92,30.53,54.54,47.34,86.22,47.34s62.3-16.81,86.22-47.34c21.62-27.59,34.53-63.28,34.53-95.46,0-66.58-54.17-120.75-120.75-120.75ZM410.83,345.41c-19.27,24.6-43.18,38.14-67.33,38.14s-48.06-13.55-67.33-38.14c-18.42-23.51-29.42-53.66-29.42-80.66,0-53.35,43.4-96.75,96.75-96.75s96.75,43.4,96.75,96.75c0,26.99-11,57.15-29.42,80.66Z" style="stroke-width: 0px;"/>
  <path d="M581.71,480.96c-.8-2.47-3.11-4.15-5.71-4.15s-4.9,1.67-5.71,4.15l-19.9,61.24h-64.39c-2.6,0-4.9,1.67-5.71,4.15s.08,5.18,2.18,6.71l52.1,37.85-19.9,61.24c-.8,2.47.08,5.18,2.18,6.71,1.05.76,2.29,1.15,3.53,1.15s2.48-.38,3.53-1.15l52.1-37.85,52.1,37.85c1.05.76,2.29,1.15,3.53,1.15s2.48-.38,3.53-1.15c2.1-1.53,2.98-4.24,2.18-6.71l-19.9-61.24,52.1-37.85c2.1-1.53,2.98-4.24,2.18-6.71s-3.11-4.15-5.71-4.15h-64.39l-19.9-61.24ZM608.61,578.77l-8.82,6.41,3.37,10.36,11.34,34.9-29.69-21.57-8.82-6.41-8.82,6.41-29.69,21.57,11.34-34.9,3.37-10.36-8.82-6.41-29.69-21.57h47.59l3.37-10.36,11.34-34.9,11.34,34.9,3.37,10.36h47.59l-29.69,21.57Z" style="stroke-width: 0px;"/>
</svg>