<?xml version="1.0" encoding="UTF-8"?>
<svg id="icon" xmlns="http://www.w3.org/2000/svg" viewBox="0 0 864 864">
  <path d="M529.5,440.25c22.63,0,44.5-12.01,61.59-33.81,15.44-19.71,24.66-45.2,24.66-68.19,0-47.56-38.69-86.25-86.25-86.25s-86.25,38.69-86.25,86.25c0,22.99,9.22,48.48,24.66,68.19,17.09,21.81,38.96,33.81,61.59,33.81ZM467.25,338.25c0-34.32,27.93-62.25,62.25-62.25s62.25,27.93,62.25,62.25c0,17.53-7.49,37.99-19.55,53.38-12.44,15.87-27.6,24.62-42.7,24.62s-30.26-8.74-42.7-24.62c-12.06-15.39-19.55-35.85-19.55-53.38Z" style="stroke-width: 0px;"/>
  <path d="M248.25,338.25c0,22.99,9.22,48.48,24.66,68.19,17.09,21.81,38.96,33.81,61.59,33.81s44.5-12.01,61.59-33.81c15.44-19.71,24.66-45.2,24.66-68.19,0-47.56-38.69-86.25-86.25-86.25s-86.25,38.69-86.25,86.25ZM396.75,338.25c0,17.53-7.49,37.99-19.55,53.38-12.44,15.87-27.6,24.62-42.7,24.62s-30.26-8.74-42.7-24.62c-12.06-15.39-19.55-35.85-19.55-53.38,0-34.32,27.93-62.25,62.25-62.25s62.25,27.93,62.25,62.25Z" style="stroke-width: 0px;"/>
  <path d="M529.5,462c-36.55,0-70.99,13.67-97.5,38.59-26.51-24.91-60.95-38.59-97.5-38.59s-73.85,14.82-100.76,41.74c-26.91,26.91-41.74,62.7-41.74,100.76v7.5h480v-7.5c0-38.06-14.82-73.85-41.74-100.76-26.91-26.91-62.7-41.74-100.76-41.74ZM477,588H217.13c3.52-25.4,15.13-48.85,33.58-67.29,22.38-22.38,52.14-34.71,83.79-34.71s59.05,11.39,81.06,32.08l16.44,15.45,16.44-15.45c22.01-20.68,50.8-32.08,81.06-32.08s61.41,12.33,83.79,34.71c18.44,18.44,30.06,41.9,33.58,67.29h-169.87Z" style="stroke-width: 0px;"/>
</svg>