<?xml version="1.0" encoding="UTF-8"?>
<svg id="icon" xmlns="http://www.w3.org/2000/svg" viewBox="0 0 864 864">
  <path d="M432,445.2c36.21,0,71.21-19.21,98.54-54.1,24.71-31.53,39.46-72.32,39.46-109.1,0-76.09-61.91-138-138-138s-138,61.91-138,138c0,36.78,14.75,77.56,39.46,109.1,27.34,34.89,62.33,54.1,98.54,54.1ZM432,168c62.86,0,114,51.14,114,114,0,31.59-12.84,66.84-34.35,94.29-22.69,28.96-50.98,44.91-79.65,44.91s-56.96-15.95-79.65-44.91c-21.51-27.45-34.35-62.7-34.35-94.29,0-62.86,51.14-114,114-114Z" style="stroke-width: 0px;"/>
  <path d="M660,708c0-60.9-23.72-118.16-66.78-161.22-43.06-43.06-100.32-66.78-161.22-66.78s-118.16,23.72-161.22,66.78c-43.06,43.06-66.78,100.32-66.78,161.22v12h456v-12ZM228.34,696c2.88-49.98,23.72-96.56,59.41-132.25,38.53-38.53,89.76-59.75,144.25-59.75s105.72,21.22,144.25,59.75c35.69,35.69,56.53,82.27,59.41,132.25H228.34Z" style="stroke-width: 0px;"/>
</svg>