<?xml version="1.0" encoding="UTF-8"?>
<svg id="icon" xmlns="http://www.w3.org/2000/svg" viewBox="0 0 864 864">
  <path d="M294,282c0,36.78,14.75,77.56,39.46,109.1,27.34,34.89,62.33,54.1,98.54,54.1s71.21-19.21,98.54-54.1c24.71-31.53,39.46-72.32,39.46-109.1,0-76.09-61.91-138-138-138s-138,61.91-138,138Z" style="stroke-width: 0px;"/>
  <path d="M660,708c0-60.9-23.72-118.16-66.78-161.22-43.06-43.06-100.32-66.78-161.22-66.78s-118.16,23.72-161.22,66.78c-43.06,43.06-66.78,100.32-66.78,161.22v12h456v-12Z" style="stroke-width: 0px;"/>
</svg>