<?xml version="1.0" encoding="UTF-8"?>
<svg id="icon" xmlns="http://www.w3.org/2000/svg" viewBox="0 0 864 864">
  <path d="M201,507.3c9.05,0,17.8-4.8,24.64-13.53,6.18-7.88,9.86-18.08,9.86-27.27,0-19.02-15.48-34.5-34.5-34.5s-34.5,15.48-34.5,34.5c0,9.19,3.69,19.39,9.86,27.27,6.83,8.72,15.58,13.53,24.64,13.53ZM201,450c9.1,0,16.5,7.4,16.5,16.5,0,5.15-2.37,11.49-6.03,16.17-3.3,4.21-7.11,6.63-10.47,6.63s-7.17-2.42-10.47-6.63c-3.67-4.68-6.03-11.03-6.03-16.17,0-9.1,7.4-16.5,16.5-16.5Z" style="stroke-width: 0px;"/>
  <path d="M258,573c0-15.23-5.93-29.54-16.69-40.31-10.77-10.77-25.08-16.69-40.31-16.69s-29.54,5.93-40.31,16.69c-10.77,10.77-16.69,25.08-16.69,40.31v3h114v-3ZM164.98,558c1.93-4.65,4.78-8.91,8.45-12.58,7.37-7.37,17.16-11.42,27.58-11.42s20.21,4.06,27.58,11.42c3.67,3.67,6.51,7.93,8.45,12.58h-72.05Z" style="stroke-width: 0px;"/>
  <path d="M378,472.95c13.58,0,26.7-7.21,36.95-20.29,9.27-11.83,14.8-27.12,14.8-40.91,0-28.53-23.22-51.75-51.75-51.75s-51.75,23.22-51.75,51.75c0,13.79,5.53,29.09,14.8,40.91,10.25,13.08,23.37,20.29,36.95,20.29ZM378,378c18.61,0,33.75,15.14,33.75,33.75,0,9.75-4.2,21.18-10.97,29.81-6.77,8.64-14.86,13.39-22.78,13.39s-16.02-4.76-22.78-13.39c-6.76-8.63-10.97-20.06-10.97-29.81,0-18.61,15.14-33.75,33.75-33.75Z" style="stroke-width: 0px;"/>
  <path d="M463.5,571.5c0-22.84-8.89-44.31-25.04-60.46-16.15-16.15-37.62-25.04-60.46-25.04s-44.31,8.89-60.46,25.04c-16.15,16.15-25.04,37.62-25.04,60.46v4.5h171v-4.5ZM311.84,558c2.6-12.88,8.92-24.72,18.43-34.23,12.75-12.75,29.7-19.77,47.73-19.77s34.98,7.02,47.73,19.77c9.51,9.51,15.83,21.35,18.43,34.23h-132.32Z" style="stroke-width: 0px;"/>
  <path d="M537,357c0,18.39,7.38,38.78,19.73,54.55,13.67,17.44,31.17,27.05,49.27,27.05s35.6-9.61,49.27-27.05c12.35-15.77,19.73-36.16,19.73-54.55,0-38.05-30.95-69-69-69s-69,30.95-69,69ZM606,306c28.12,0,51,22.88,51,51,0,14.28-6.09,30.93-15.9,43.45-10.18,13-22.65,20.15-35.1,20.15s-24.92-7.16-35.1-20.15c-9.81-12.52-15.9-29.16-15.9-43.45,0-28.12,22.88-51,51-51Z" style="stroke-width: 0px;"/>
  <path d="M606,456c-30.45,0-59.08,11.86-80.61,33.39s-33.39,50.16-33.39,80.61v6h228v-6c0-30.45-11.86-59.08-33.39-80.61s-50.16-33.39-80.61-33.39ZM510.74,558c2.61-21.1,12.11-40.61,27.38-55.88,18.13-18.13,42.24-28.12,67.88-28.12s49.75,9.99,67.88,28.12c15.27,15.27,24.77,34.78,27.38,55.88h-190.52Z" style="stroke-width: 0px;"/>
</svg>