<?xml version="1.0" encoding="UTF-8"?>
<svg id="icon" xmlns="http://www.w3.org/2000/svg" viewBox="0 0 864 864">
  <path d="M573.53,509.53l-9.53,9.92-9.53-9.92c-11.24-11.69-26-17.53-40.77-17.53s-29.55,5.84-40.84,17.53c-22.49,23.37-22.49,61.18,0,84.55l90.94,94.37.2-.2.2.2,90.94-94.37c22.49-23.37,22.49-61.18,0-84.55-11.24-11.69-26-17.53-40.77-17.53s-29.55,5.84-40.84,17.53ZM637.85,577.43l-73.85,76.64-73.84-76.63c-13.59-14.13-13.6-37.11-.02-51.25,6.36-6.57,14.73-10.19,23.57-10.19s17.16,3.61,23.46,10.15l9.53,9.92,17.31,18.02,17.31-18.02,9.49-9.88c6.36-6.57,14.73-10.19,23.56-10.19s17.16,3.61,23.47,10.17c13.6,14.14,13.6,37.14.01,51.26Z" style="stroke-width: 0px;"/>
  <path d="M564,432c-40.12,0-76.4,16.41-102.51,42.88-33.73-25.86-74.78-39.88-117.99-39.88-51.93,0-100.74,20.22-137.46,56.94-36.72,36.72-56.94,85.54-56.94,137.46v21.6h291.95c25.3,41.38,70.9,69,122.95,69,79.53,0,144-64.47,144-144s-64.47-144-144-144ZM173.12,627c.61-44.62,18.27-86.47,49.89-118.09s74.98-49.91,120.49-49.91c37.52,0,73.19,12.06,102.59,34.32-16.44,23.4-26.09,51.91-26.09,82.68,0,17.96,3.3,35.15,9.3,51H173.12ZM648.85,660.85c-22.67,22.67-52.8,35.15-84.85,35.15s-62.19-12.48-84.85-35.15c-9.61-9.61-17.38-20.56-23.15-32.42v-1.43h-.69c-7.4-15.75-11.31-33.08-11.31-51,0-24.9,7.54-48.64,21.53-68.63l15.43-15.43c-.43-.43-.88-.85-1.31-1.28,22.61-22.35,52.53-34.66,84.35-34.66s62.19,12.48,84.85,35.15,35.15,52.8,35.15,84.85-12.48,62.19-35.15,84.85Z" style="stroke-width: 0px;"/>
  <path d="M222.75,264.75c0,32.18,12.91,67.87,34.53,95.46,23.92,30.53,54.54,47.34,86.22,47.34s62.3-16.81,86.22-47.34c21.62-27.59,34.53-63.28,34.53-95.46,0-66.58-54.17-120.75-120.75-120.75s-120.75,54.17-120.75,120.75ZM440.25,264.75c0,26.99-11,57.15-29.42,80.66-19.27,24.6-43.18,38.14-67.33,38.14s-48.06-13.55-67.33-38.14c-18.42-23.51-29.42-53.66-29.42-80.66,0-53.35,43.4-96.75,96.75-96.75s96.75,43.4,96.75,96.75Z" style="stroke-width: 0px;"/>
</svg>