<?xml version="1.0" encoding="UTF-8"?>
<svg id="icon" xmlns="http://www.w3.org/2000/svg" viewBox="0 0 864 864">
  <path d="M211.5,319.5c0,27.58,11.06,58.17,29.59,81.82,20.5,26.17,46.75,40.58,73.91,40.58s53.4-14.41,73.91-40.58c18.53-23.65,29.59-54.24,29.59-81.82,0-57.07-46.43-103.5-103.5-103.5s-103.5,46.43-103.5,103.5ZM394.5,319.5c0,22.06-9.38,47.74-24.49,67.02-15.86,20.24-35.39,31.38-55.01,31.38s-39.16-11.14-55.01-31.38c-15.1-19.28-24.49-44.96-24.49-67.02,0-43.84,35.66-79.5,79.5-79.5s79.5,35.66,79.5,79.5Z" style="stroke-width: 0px;"/>
  <path d="M486,639c0-9.13-.72-18.15-2.12-27h225.32v-18.3c0-35.18-13.7-68.25-38.57-93.13-24.88-24.88-57.95-38.57-93.13-38.57s-68.25,13.7-93.13,38.57c-12.2,12.2-21.7,26.35-28.24,41.82-5.92-8.61-12.67-16.76-20.22-24.31-32.3-32.3-75.24-50.08-120.92-50.08s-88.62,17.79-120.92,50.08c-32.3,32.3-50.08,75.24-50.08,120.92v9h342v-9ZM501.34,517.54c20.34-20.34,47.39-31.54,76.16-31.54s55.81,11.2,76.16,31.54c18.99,18.99,30.02,43.83,31.4,70.46h-206.76c-1.76-5.67-3.82-11.23-6.17-16.67,4.26-20.35,14.27-38.84,29.22-53.79ZM168.75,624c3.38-33.6,18.11-64.75,42.3-88.94,27.76-27.76,64.68-43.06,103.94-43.06s76.18,15.29,103.94,43.06c24.2,24.2,38.92,55.35,42.3,88.94H168.75Z" style="stroke-width: 0px;"/>
  <path d="M491.25,338.25c0,22.99,9.22,48.48,24.66,68.19,17.09,21.81,38.96,33.81,61.59,33.81s44.5-12.01,61.59-33.81c15.44-19.71,24.66-45.2,24.66-68.19,0-47.56-38.69-86.25-86.25-86.25s-86.25,38.69-86.25,86.25ZM639.75,338.25c0,17.53-7.49,37.99-19.55,53.38-12.44,15.87-27.6,24.62-42.7,24.62s-30.26-8.74-42.7-24.62c-12.06-15.39-19.55-35.85-19.55-53.38,0-34.32,27.93-62.25,62.25-62.25s62.25,27.93,62.25,62.25Z" style="stroke-width: 0px;"/>
</svg>