<?xml version="1.0" encoding="UTF-8"?>
<svg id="icons" xmlns="http://www.w3.org/2000/svg" viewBox="0 0 72 72">
  <path d="M61.6,61.28c6.43-6.51,10.4-15.44,10.4-25.28C72,16.15,55.85,0,36,0S0,16.15,0,36s16.15,36,36,36c9.84,0,18.78-3.98,25.28-10.4.06-.05.12-.09.17-.14.05-.05.1-.12.14-.17ZM40.35,37.8h28c-.42,7.58-3.45,14.47-8.21,19.79l-19.79-19.79ZM68.35,34.2h-30.55V3.65c16.44.9,29.64,14.11,30.55,30.55ZM3.6,36C3.6,18.74,17.17,4.59,34.2,3.65v32.35c0,.12.01.24.04.35,0,.05.03.1.04.14.02.06.03.13.06.19.02.05.05.1.08.16.03.05.05.1.08.15.05.08.12.15.18.22.02.02.03.04.04.05l22.86,22.86c-5.74,5.14-13.3,8.27-21.59,8.27-17.87,0-32.4-14.53-32.4-32.4Z" style="stroke-width: 0px;"/>
</svg>