<?xml version="1.0" encoding="UTF-8"?>
<svg id="icons" xmlns="http://www.w3.org/2000/svg" viewBox="0 0 72 72">
  <path d="M32.4,72C14.53,72,0,57.47,0,39.6S14.53,7.2,32.4,7.2h1.8v30.6h30.6v1.8c0,17.87-14.53,32.4-32.4,32.4ZM30.6,10.86c-15.04.93-27,13.47-27,28.74s12.92,28.8,28.8,28.8,27.81-11.96,28.74-27h-30.54V10.86Z" style="stroke-width: 0px;"/>
  <path d="M72,34.2h-34.2V0h1.8C57.47,0,72,14.53,72,32.4v1.8ZM41.4,30.6h26.94c-.9-14.45-12.5-26.05-26.94-26.94v26.94Z" style="stroke-width: 0px;"/>
</svg>