<?xml version="1.0" encoding="UTF-8"?>
<svg id="icons" xmlns="http://www.w3.org/2000/svg" viewBox="0 0 72 72">
  <path d="M71.95,30.6s0,0,0,0c-.04-.78-.12-1.56-.22-2.33,0,0,0,0,0,0-.09-.74-.21-1.47-.35-2.19,0,0,0,0,0,0-.14-.7-.3-1.38-.48-2.06h0c-.18-.66-.38-1.31-.59-1.95-.21-.63-.44-1.25-.69-1.86,0,0,0,0,0,0-.24-.6-.5-1.19-.78-1.77,0,0,0,0,0,0-.27-.57-.56-1.13-.87-1.68,0,0,0,0,0,0-.3-.54-.62-1.07-.95-1.6,0,0,0,0,0,0-.33-.52-.67-1.03-1.02-1.52,0,0,0,0,0,0-.35-.49-.72-.98-1.09-1.45,0,0,0,0,0,0-.38-.47-.76-.93-1.16-1.38,0,0,0,0,0,0-.4-.45-.81-.89-1.23-1.31s-.86-.83-1.31-1.23c0,0,0,0,0,0-.45-.4-.91-.79-1.38-1.16,0,0,0,0,0,0-.47-.38-.96-.74-1.45-1.09t0,0c-.5-.35-1-.7-1.52-1.02,0,0,0,0,0,0-.52-.33-1.05-.65-1.6-.95,0,0,0,0,0,0-.55-.3-1.11-.6-1.68-.87,0,0,0,0,0,0-.58-.28-1.17-.53-1.77-.78,0,0,0,0,0,0-.61-.25-1.23-.48-1.86-.69,0,0,0,0,0,0-.64-.22-1.29-.42-1.95-.59h0c-.68-.18-1.37-.34-2.06-.48,0,0,0,0,0,0-.72-.14-1.45-.26-2.19-.35h0c-.77-.1-1.54-.18-2.33-.22-.6-.03-1.2-.05-1.8-.05h-1.8v34.2h34.2v-1.8c0-.6-.02-1.2-.05-1.8ZM41.4,3.66c.46.03.92.07,1.37.12,0,0,0,0,0,0,.75.08,1.48.2,2.21.34l-3.58,3.58V3.66ZM41.4,12.78l7.6-7.6c.62.22,1.23.45,1.83.71,0,0,0,0,0,0,.59.25,1.17.52,1.74.81l-11.18,11.18v-5.09ZM41.4,25.51h0v-2.55l14.38-14.38c.5.34.99.7,1.47,1.07,0,0,0,0,0,0,.48.37.94.76,1.39,1.16l-17.24,17.24v-2.54ZM46.49,30.6h-2.55l17.24-17.24c.4.45.79.91,1.16,1.39,0,0,0,0,0,0,.37.48.73.97,1.07,1.47l-14.38,14.38h-2.54ZM56.67,30.6h-2.55l11.18-11.18c.29.57.56,1.15.81,1.74,0,0,0,0,0,0,.26.6.5,1.21.71,1.83l-7.6,7.6h-2.54ZM66.86,30.6h-2.54l3.58-3.58c.14.73.25,1.46.34,2.21,0,0,0,0,0,0,.05.45.09.91.12,1.37h-1.49Z" style="stroke-width: 0px;"/>
  <path d="M32.4,72C14.53,72,0,57.47,0,39.6S14.53,7.2,32.4,7.2h1.8v30.6h30.6v1.8c0,17.87-14.53,32.4-32.4,32.4ZM30.6,10.86c-15.04.93-27,13.47-27,28.74s12.92,28.8,28.8,28.8,27.81-11.96,28.74-27h-30.54V10.86Z" style="stroke-width: 0px;"/>
</svg>