<?xml version="1.0" encoding="UTF-8"?>
<svg id="Layer_1" data-name="Layer 1" xmlns="http://www.w3.org/2000/svg" viewBox="0 0 864 864">
  <path d="M174.32,332.93c-18.13-10.46-30.32-30.07-30.32-52.5v-121.26c0-16.73,13.58-30.32,30.32-30.32h515.37c16.73,0,30.32,13.58,30.32,30.32v121.26c0,22.43-12.19,42.05-30.32,52.5v371.92c0,16.73-13.58,30.32-30.32,30.32H204.63c-16.73,0-30.32-13.58-30.32-30.32v-371.92h0ZM659.37,704.84h-212.21v-272.84c0-16.73-13.58-30.32-30.32-30.32h-151.58c-16.73,0-30.32,13.58-30.32,30.32v272.84h-30.32v-363.79c18.1,0,34.38-7.95,45.47-20.52,11.1,12.58,27.38,20.52,45.47,20.52s34.38-7.95,45.47-20.52c11.1,12.58,27.38,20.52,45.47,20.52s34.38-7.95,45.47-20.52c11.1,12.58,27.38,20.52,45.47,20.52s34.38-7.95,45.47-20.52c11.1,12.58,27.38,20.52,45.47,20.52s34.38-7.95,45.47-20.52c11.1,12.58,27.38,20.52,45.47,20.52v363.79h0ZM416.84,704.84h-151.58v-272.84h151.58v272.84h0ZM234.95,159.16h-60.63v121.26c0,16.73,13.58,30.32,30.32,30.32s30.32-13.58,30.32-30.32v-121.26h0ZM598.74,159.16v121.26c0,16.73-13.58,30.32-30.32,30.32s-30.32-13.58-30.32-30.32v-121.26h60.63ZM629.05,280.42v-121.26h60.63v121.26c0,16.73-13.58,30.32-30.32,30.32s-30.32-13.58-30.32-30.32h0ZM416.84,159.16h-60.63v121.26c0,16.73,13.58,30.32,30.32,30.32s30.32-13.58,30.32-30.32v-121.26h0ZM447.16,159.16v121.26c0,16.73,13.58,30.32,30.32,30.32s30.32-13.58,30.32-30.32v-121.26h-60.63ZM325.89,159.16v121.26c0,16.73-13.58,30.32-30.32,30.32s-30.32-13.58-30.32-30.32v-121.26h60.63ZM507.79,432h90.95v90.95h-90.95v-90.95h0ZM477.47,432c0-16.73,13.58-30.32,30.32-30.32h90.95c16.73,0,30.32,13.58,30.32,30.32v90.95c0,16.73-13.58,30.32-30.32,30.32h-90.95c-16.73,0-30.32-13.58-30.32-30.32v-90.95h0Z" style="fill-rule: evenodd; stroke-width: 0px;"/>
</svg>