<?xml version="1.0" encoding="UTF-8"?>
<svg id="Layer_1" data-name="Layer 1" xmlns="http://www.w3.org/2000/svg" viewBox="0 0 864 864">
  <path d="M418.29,144h-41.14c-7.57,0-13.71,6.14-13.71,13.71v109.71h-27.43c-7.57,0-13.71,6.14-13.71,13.71s6.14,13.71,13.71,13.71h27.43v109.71h-27.43c-7.57,0-13.71,6.14-13.71,13.71s6.14,13.71,13.71,13.71h27.43v109.71h-27.43c-7.57,0-13.71,6.14-13.71,13.71s6.14,13.71,13.71,13.71h27.43v68.57c0,30.3-24.56,54.86-54.86,54.86s-54.86-24.56-54.86-54.86V157.71c0-7.57-6.14-13.71-13.71-13.71h-41.14c-7.57,0-13.71,6.14-13.71,13.71s6.14,13.71,13.71,13.71h27.43v466.29c0,45.45,36.84,82.29,82.29,82.29s82.29-36.84,82.29-82.29V171.43h27.43c7.57,0,13.71-6.14,13.71-13.71s-6.14-13.71-13.71-13.71Z" style="stroke-width: 0px;"/>
  <path d="M665.14,267.43h-41.14c-7.57,0-13.71,6.14-13.71,13.71v54.86h-27.43c-7.57,0-13.71,6.14-13.71,13.71s6.14,13.71,13.71,13.71h27.43v82.29h-27.43c-7.57,0-13.71,6.14-13.71,13.71s6.14,13.71,13.71,13.71h27.43v82.29h-27.43c-7.57,0-13.71,6.14-13.71,13.71s6.14,13.71,13.71,13.71h27.43v54.86c0,30.3-24.56,54.86-54.86,54.86s-54.86-24.56-54.86-54.86v-356.57c0-7.57-6.14-13.71-13.71-13.71h-41.14c-7.57,0-13.71,6.14-13.71,13.71s6.14,13.71,13.71,13.71h27.43v342.86c0,45.45,36.84,82.29,82.29,82.29s82.29-36.84,82.29-82.29v-342.86h27.43c7.57,0,13.71-6.14,13.71-13.71s-6.14-13.71-13.71-13.71Z" style="stroke-width: 0px;"/>
</svg>