<?xml version="1.0" encoding="UTF-8"?>
<svg id="Layer_1" data-name="Layer 1" xmlns="http://www.w3.org/2000/svg" viewBox="0 0 864 864">
  <path d="M710.28,248.04l-94.33-94.32c-6.26-6.26-14.6-9.72-23.48-9.72s-17.22,3.45-23.48,9.72l-1.19,1.19c-6.26,6.26-9.72,14.6-9.72,23.49s3.3,16.85,9.3,23.06l-139.44,139.44-220.71,59.14c-32.85,8.8-54.59,27.23-61.2,51.9-6.6,24.67,3,51.49,27.05,75.55l163.44,163.44c19.1,19.1,39.94,29.08,60.05,29.08,5.23,0,10.4-.67,15.49-2.04,23.03-6.17,40.62-25.53,50.02-54.8l.14.13,60.89-227.24,139.44-139.44c6.21,6,14.38,9.3,23.06,9.3s17.22-3.45,23.48-9.72l1.19-1.19c6.26-6.26,9.72-14.6,9.72-23.49s-3.45-17.22-9.72-23.48h0ZM604.9,319.64l-28.88-28.88c-4.77-4.77-12.53-4.77-17.3,0h.01c-2.31,2.32-3.59,5.4-3.59,8.66s1.27,6.34,3.59,8.65l28.88,28.88-33.42,33.42-28.3-28.3c-2.31-2.31-5.38-3.59-8.65-3.59s-6.34,1.27-8.65,3.59c-4.77,4.77-4.77,12.53,0,17.3l28.3,28.3-26.3,26.3-20.42-20.42c-4.77-4.77-12.53-4.77-17.3,0-2.31,2.31-3.59,5.38-3.59,8.65s1.27,6.34,3.59,8.65l24.96,24.96-9.99,37.27-22.33-22.33c-2.31-2.31-5.38-3.59-8.65-3.59s-6.34,1.27-8.65,3.59c-2.31,2.32-3.59,5.38-3.59,8.65s1.27,6.34,3.59,8.65l32.32,32.32-9.24,34.47-21.63-21.63c-4.77-4.77-12.53-4.77-17.3,0-2.31,2.31-3.59,5.38-3.59,8.65s1.27,6.34,3.59,8.65l31.62,31.63-9.62,35.87-21.62-21.62c-4.77-4.77-12.53-4.77-17.3,0-2.31,2.31-3.59,5.38-3.59,8.65s1.27,6.34,3.59,8.65l31.6,31.6-6.73,25.13c-.6,2.24-1.26,4.44-1.98,6.58l-23.36-23.36c-2.31-2.31-5.38-3.59-8.65-3.59s-6.34,1.27-8.65,3.59c-2.31,2.31-3.59,5.38-3.59,8.65s1.27,6.34,3.59,8.65l28.86,28.86c-5.91,7.51-12.9,12.39-20.82,14.52l-.67.18c-15.72,3.87-33.88-3.52-51.24-20.89l-163.45-163.46c-17.61-17.61-24.96-36.04-20.72-51.91,4.25-15.87,19.84-28.15,43.9-34.59l223.2-59.81.6-.15c2.1-.55,4.02-1.65,5.55-3.18l141.76-141.76,60.57,60.57-40.33,40.33ZM692.97,277.72l-1.19,1.19c-1.65,1.65-3.84,2.56-6.18,2.56s-4.53-.91-6.18-2.56l-94.33-94.33c-1.65-1.64-2.56-3.84-2.56-6.17s.91-4.54,2.55-6.19l1.19-1.19c1.65-1.65,3.84-2.56,6.18-2.56s4.53.91,6.19,2.56l94.32,94.32c1.65,1.65,2.56,3.84,2.56,6.18h0c0,2.34-.91,4.54-2.56,6.19Z" style="stroke-width: 0px;"/>
</svg>