<?xml version="1.0" encoding="UTF-8"?>
<svg id="icon" xmlns="http://www.w3.org/2000/svg" viewBox="0 0 864 864">
  <path d="M432,144c-76.93,0-149.25,29.96-203.65,84.35-54.4,54.4-84.35,126.72-84.35,203.65s29.96,149.25,84.35,203.65c54.4,54.4,126.72,84.35,203.65,84.35s149.25-29.96,203.65-84.35c54.4-54.4,84.35-126.72,84.35-203.65s-29.96-149.25-84.35-203.65c-54.4-54.4-126.72-84.35-203.65-84.35ZM432,432h-252c0-67.31,26.21-130.59,73.81-178.19,47.6-47.6,110.88-73.81,178.19-73.81s130.59,26.21,178.19,73.81c47.6,47.6,73.81,110.88,73.81,178.19h-252Z" style="stroke-width: 0px;"/>
</svg>