<?xml version="1.0" encoding="UTF-8"?>
<svg id="icon" xmlns="http://www.w3.org/2000/svg" viewBox="0 0 864 864">
  <path d="M451.09,154.54c-5.27-7.03-12.18-10.54-19.09-10.54s-13.82,3.51-19.09,10.54l-189,252c-10.54,14.06-10.54,36.85,0,50.91l189,252c5.27,7.03,12.18,10.54,19.09,10.54s13.82-3.51,19.09-10.54l189-252c10.54-14.06,10.54-36.85,0-50.91l-189-252ZM432,189.09l168.68,224.91h-337.37l168.68-224.91ZM252,431.87v.25c0-.08,0-.17,0-.25ZM432,674.91l-168.68-224.91h337.37l-168.68,224.91Z" style="stroke-width: 0px;"/>
</svg>