<?xml version="1.0" encoding="UTF-8"?>
<svg id="icon" xmlns="http://www.w3.org/2000/svg" viewBox="0 0 864 864">
  <path d="M516.07,232.96c-26.61-11.25-54.89-16.96-84.07-16.96s-57.46,5.71-84.07,16.96c-25.72,10.88-48.82,26.46-68.67,46.3s-35.43,42.95-46.31,68.67c-11.25,26.61-16.96,54.89-16.96,84.07s5.71,57.46,16.96,84.07c10.88,25.72,26.46,48.82,46.31,68.67s42.95,35.43,68.67,46.3c26.61,11.25,54.89,16.96,84.07,16.96s57.46-5.71,84.07-16.96c25.72-10.88,48.82-26.46,68.67-46.3s35.43-42.95,46.31-68.67c11.25-26.61,16.96-54.89,16.96-84.07s-5.71-57.46-16.96-84.07c-10.88-25.72-26.46-48.82-46.31-68.67s-42.95-35.43-68.67-46.3Z" style="stroke-width: 0px;"/>
  <path d="M684,144H180c-19.88,0-36,16.12-36,36v504c0,19.88,16.12,36,36,36h504c19.88,0,36-16.12,36-36V180c0-19.88-16.12-36-36-36ZM684,432.08c-.04,139.11-112.81,251.88-251.92,251.92-.03,0-.05,0-.08,0s-.05,0-.08,0c-139.11-.04-251.88-112.81-251.92-251.92,0-.03,0-.05,0-.08s0-.05,0-.08c.04-139.14,112.85-251.92,252-251.92s251.96,112.78,252,251.92c0,.03,0,.05,0,.08s0,.05,0,.08Z" style="stroke-width: 0px;"/>
</svg>