<?xml version="1.0" encoding="UTF-8"?>
<svg id="icon" xmlns="http://www.w3.org/2000/svg" viewBox="0 0 864 864">
  <path d="M432,720c159.06,0,288-128.94,288-288s-128.94-288-288-288S144,272.94,144,432s128.94,288,288,288ZM199.79,530.08c-1.97-4.65-3.77-9.35-5.44-14.08h475.31c-1.68,4.73-3.48,9.43-5.44,14.08-1.42,3.35-2.91,6.65-4.46,9.92H204.25c-1.55-3.27-3.05-6.57-4.46-9.92ZM187.18,492c-1.93-7.91-3.48-15.91-4.63-24h498.9c-1.15,8.09-2.7,16.09-4.63,24H187.18ZM646.72,564c-5.12,8.31-10.71,16.32-16.78,24H234.06c-6.07-7.68-11.66-15.69-16.78-24h429.44ZM608.34,612c-8.91,8.74-18.38,16.75-28.35,24h-295.98c-9.97-7.25-19.44-15.26-28.35-24h352.68ZM432,684c-34.04,0-67.03-6.66-98.08-19.79-3.16-1.34-6.29-2.75-9.38-4.21h214.92c-3.1,1.46-6.22,2.87-9.38,4.21-31.04,13.13-64.04,19.79-98.08,19.79ZM204.25,324h455.5c1.55,3.27,3.05,6.57,4.46,9.92,1.97,4.65,3.77,9.35,5.44,14.08H194.34c1.68-4.73,3.48-9.43,5.44-14.08,1.42-3.35,2.91-6.65,4.46-9.92ZM608.34,252H255.66c8.91-8.74,18.38-16.75,28.35-24h295.98c9.97,7.25,19.44,15.26,28.35,24ZM629.94,276c6.07,7.68,11.66,15.69,16.78,24H217.28c5.12-8.31,10.71-16.32,16.78-24h395.87ZM676.82,372c1.93,7.91,3.48,15.91,4.63,24H182.55c1.15-8.09,2.7-16.09,4.63-24h489.63ZM432,180c34.04,0,67.03,6.66,98.08,19.79,3.16,1.34,6.29,2.75,9.38,4.21h-214.92c3.1-1.46,6.22-2.87,9.38-4.21,31.04-13.13,64.04-19.79,98.08-19.79ZM180.29,420h503.43c.19,3.98.29,7.98.29,12s-.1,8.02-.29,12H180.29c-.19-3.98-.29-7.98-.29-12s.1-8.02.29-12Z" style="stroke-width: 0px;"/>
</svg>