<?xml version="1.0" encoding="UTF-8"?>
<svg id="icon" xmlns="http://www.w3.org/2000/svg" viewBox="0 0 864 864">
  <path d="M432,720c159.06,0,288-128.94,288-288s-128.94-288-288-288S144,272.94,144,432s128.94,288,288,288ZM276,234.06c7.68-6.07,15.69-11.66,24-16.78v429.44c-8.31-5.12-16.32-10.71-24-16.78V234.06ZM372,676.82V187.18c7.91-1.93,15.91-3.48,24-4.63v498.9c-8.09-1.15-16.09-2.7-24-4.63ZM468,681.45V182.55c8.09,1.15,16.09,2.7,24,4.63v489.63c-7.91,1.93-15.91,3.48-24,4.63ZM588,629.94c-7.68,6.07-15.69,11.66-24,16.78V217.28c8.31,5.12,16.32,10.71,24,16.78v395.87ZM684,432c0,34.04-6.66,67.03-19.79,98.08-1.34,3.16-2.75,6.29-4.21,9.38v-214.92c1.46,3.1,2.87,6.22,4.21,9.38,13.13,31.04,19.79,64.04,19.79,98.08ZM636,284.01v295.98c-7.25,9.97-15.26,19.44-24,28.35V255.66c8.74,8.91,16.75,18.38,24,28.35ZM540,204.25v455.5c-3.27,1.55-6.57,3.05-9.92,4.46-4.65,1.97-9.35,3.77-14.08,5.44V194.34c4.73,1.68,9.43,3.48,14.08,5.44,3.35,1.42,6.65,2.91,9.92,4.46ZM444,180.29v503.43c-3.98.19-7.98.29-12,.29s-8.02-.1-12-.29V180.29c3.98-.19,7.98-.29,12-.29s8.02.1,12,.29ZM348,194.34v475.31c-4.73-1.68-9.43-3.48-14.08-5.44-3.35-1.42-6.65-2.91-9.92-4.46V204.25c3.27-1.55,6.57-3.05,9.92-4.46,4.65-1.97,9.35-3.77,14.08-5.44ZM252,255.66v352.68c-8.74-8.91-16.75-18.38-24-28.35v-295.98c7.25-9.97,15.26-19.44,24-28.35ZM180,432c0-34.04,6.66-67.03,19.79-98.08,1.34-3.16,2.75-6.29,4.21-9.38v214.92c-1.46-3.1-2.87-6.22-4.21-9.38-13.13-31.04-19.79-64.04-19.79-98.08Z" style="stroke-width: 0px;"/>
</svg>