<?xml version="1.0" encoding="UTF-8"?>
<svg id="icon" xmlns="http://www.w3.org/2000/svg" viewBox="0 0 864 864">
  <path d="M432,252c-99.41,0-180,80.59-180,180s80.59,180,180,180,180-80.59,180-180-80.59-180-180-180ZM533.82,533.82c-27.2,27.2-63.36,42.18-101.82,42.18s-74.63-14.98-101.82-42.18c-27.2-27.2-42.18-63.36-42.18-101.82s14.98-74.63,42.18-101.82c27.2-27.2,63.36-42.18,101.82-42.18s74.63,14.98,101.82,42.18c27.2,27.2,42.18,63.36,42.18,101.82s-14.98,74.63-42.18,101.82Z" style="stroke-width: 0px;"/>
</svg>