<?xml version="1.0" encoding="UTF-8"?>
<svg id="icon" xmlns="http://www.w3.org/2000/svg" viewBox="0 0 864 864">
  <path d="M432,576c79.53,0,144-64.47,144-144s-64.47-144-144-144-144,64.47-144,144,64.47,144,144,144ZM355.63,355.63c20.4-20.4,47.52-31.63,76.37-31.63s55.97,11.23,76.37,31.63c20.4,20.4,31.63,47.52,31.63,76.37s-11.23,55.97-31.63,76.37c-20.4,20.4-47.52,31.63-76.37,31.63s-55.97-11.23-76.37-31.63c-20.4-20.4-31.63-47.52-31.63-76.37s11.23-55.97,31.63-76.37Z" style="stroke-width: 0px;"/>
</svg>