<?xml version="1.0" encoding="UTF-8"?>
<svg id="icon" xmlns="http://www.w3.org/2000/svg" viewBox="0 0 864 864">
  <path d="M684,144H180c-19.88,0-36,16.12-36,36v504c0,19.88,16.12,36,36,36h504c19.88,0,36-16.12,36-36V180c0-19.88-16.12-36-36-36ZM684,432.07c-.04,139.12-112.81,251.88-251.92,251.93-.03,0-.05,0-.08,0s-.05,0-.08,0c-139.12-.04-251.88-112.81-251.92-251.93,0-.02,0-.05,0-.07s0-.05,0-.07c.04-139.14,112.85-251.93,252-251.93s251.96,112.79,252,251.93c0,.02,0,.05,0,.07s0,.05,0,.07Z" style="stroke-width: 0px;"/>
</svg>