<?xml version="1.0" encoding="UTF-8"?>
<svg id="icon" xmlns="http://www.w3.org/2000/svg" viewBox="0 0 864 864">
  <path d="M683.12,242.02l-296.24-96.25c-3.66-1.19-7.41-1.76-11.12-1.76-11.31,0-22.23,5.34-29.13,14.84l-183.09,252c-9.17,12.62-9.17,29.7,0,42.32l183.09,252c6.9,9.5,17.82,14.84,29.13,14.84,3.71,0,7.46-.57,11.12-1.76l296.24-96.25c14.83-4.82,24.88-18.64,24.88-34.24v-311.49c0-15.6-10.04-29.42-24.88-34.24ZM672,587.74l-296.24,96.25-183.09-252,183.09-252,296.23,96.25v311.49Z" style="stroke-width: 0px;"/>
</svg>