<?xml version="1.0" encoding="UTF-8"?>
<svg id="icon" xmlns="http://www.w3.org/2000/svg" viewBox="0 0 864 864">
  <path d="M414,715.18c5.57,3.22,11.78,4.82,18,4.82s12.43-1.61,18-4.82l218.24-126c11.14-6.43,18-18.32,18-31.18v-252c0-12.86-6.86-24.75-18-31.18l-218.24-126c-5.57-3.22-11.78-4.82-18-4.82s-12.43,1.61-18,4.82l-218.24,126c-11.14,6.43-18,18.32-18,31.18v252c0,12.86,6.86,24.75,18,31.18l218.24,126ZM556.71,252h-249.42l41.57-24h166.28l41.57,24ZM598.28,276l41.57,24H224.15l41.57-24h332.56ZM650.24,324v24H213.76v-24h436.48ZM650.24,372v24H213.76v-24h436.48ZM650.24,420v24H213.76v-24h436.48ZM650.24,468v24H213.76v-24h436.48ZM650.24,516v24H213.76v-24h436.48ZM639.85,564l-41.57,24h-332.55l-41.57-24h415.69ZM307.29,612h249.41l-41.57,24h-166.27l-41.57-24ZM432,684l-41.57-24h83.13l-41.57,24ZM432,180s0,0,0,0l41.57,24h-83.15l41.57-24Z" style="stroke-width: 0px;"/>
</svg>