<?xml version="1.0" encoding="UTF-8"?>
<svg id="icon" xmlns="http://www.w3.org/2000/svg" viewBox="0 0 864 864">
  <path d="M432,648c119.29,0,216-96.71,216-216s-96.71-216-216-216-216,96.71-216,216,96.71,216,216,216ZM304.72,304.72c34-34,79.2-52.72,127.28-52.72s93.28,18.72,127.28,52.72,52.72,79.2,52.72,127.28-18.72,93.28-52.72,127.28c-34,34-79.2,52.72-127.28,52.72s-93.28-18.72-127.28-52.72c-34-34-52.72-79.2-52.72-127.28s18.72-93.28,52.72-127.28Z" style="stroke-width: 0px;"/>
  <circle cx="432" cy="432" r="72" style="stroke-width: 0px;"/>
</svg>