<?xml version="1.0" encoding="UTF-8"?>
<svg id="icon" xmlns="http://www.w3.org/2000/svg" viewBox="0 0 864 864">
  <path d="M684,144H180c-19.88,0-36,16.12-36,36v504c0,19.88,16.12,36,36,36h504c19.88,0,36-16.12,36-36V180c0-19.88-16.12-36-36-36ZM684,684H180s0-504,0-504h504v504Z" style="stroke-width: 0px;"/>
  <polygon points="684 414.5 414.5 684 448.44 684 684 448.44 684 414.5" style="fill: none; stroke-width: 0px;"/>
  <polygon points="646.97 180 180 646.97 180 680.91 680.91 180 646.97 180" style="fill: none; stroke-width: 0px;"/>
  <polygon points="618.14 684 652.09 684 684 652.09 684 618.15 618.14 684" style="fill: none; stroke-width: 0px;"/>
  <polygon points="180 180 180 205.73 205.73 180 180 180" style="fill: none; stroke-width: 0px;"/>
  <polygon points="307.56 180 180 307.56 180 341.5 341.5 180 307.56 180" style="fill: none; stroke-width: 0px;"/>
  <polygon points="684 278.74 278.73 684 312.68 684 684 312.68 684 278.74" style="fill: none; stroke-width: 0px;"/>
  <polygon points="684 210.85 210.85 684 244.79 684 684 244.79 684 210.85" style="fill: none; stroke-width: 0px;"/>
  <polygon points="684 346.62 346.62 684 380.56 684 684 380.56 684 346.62" style="fill: none; stroke-width: 0px;"/>
  <polygon points="579.09 180 180 579.09 180 613.03 613.03 180 579.09 180" style="fill: none; stroke-width: 0px;"/>
  <polygon points="443.32 180 180 443.32 180 477.26 477.26 180 443.32 180" style="fill: none; stroke-width: 0px;"/>
  <polygon points="375.44 180 180 375.44 180 409.38 409.38 180 375.44 180" style="fill: none; stroke-width: 0px;"/>
  <polygon points="239.68 180 180 239.68 180 273.62 273.62 180 239.68 180" style="fill: none; stroke-width: 0px;"/>
  <polygon points="684 482.38 482.38 684 516.32 684 684 516.32 684 482.38" style="fill: none; stroke-width: 0px;"/>
  <polygon points="684 550.27 550.26 684 584.2 684 684 584.21 684 550.27" style="fill: none; stroke-width: 0px;"/>
  <polygon points="511.2 180 180 511.21 180 545.15 545.15 180 511.2 180" style="fill: none; stroke-width: 0px;"/>
  <polygon points="613.03 180 180 613.03 180 646.97 646.97 180 613.03 180" style="stroke-width: 0px;"/>
  <polygon points="545.15 180 180 545.15 180 579.09 579.09 180 545.15 180" style="stroke-width: 0px;"/>
  <polygon points="477.26 180 180 477.26 180 511.21 511.2 180 477.26 180" style="stroke-width: 0px;"/>
  <polygon points="409.38 180 180 409.38 180 443.32 443.32 180 409.38 180" style="stroke-width: 0px;"/>
  <polygon points="341.5 180 180 341.5 180 375.44 375.44 180 341.5 180" style="stroke-width: 0px;"/>
  <polygon points="273.62 180 180 273.62 180 307.56 307.56 180 273.62 180" style="stroke-width: 0px;"/>
  <polygon points="205.73 180 180 205.73 180 239.68 239.68 180 205.73 180" style="stroke-width: 0px;"/>
  <polygon points="684 684 684 652.09 652.09 684 684 684" style="stroke-width: 0px;"/>
  <polygon points="684 584.21 584.2 684 618.14 684 684 618.15 684 584.21" style="stroke-width: 0px;"/>
  <polygon points="684 516.32 516.32 684 550.26 684 684 550.27 684 516.32" style="stroke-width: 0px;"/>
  <polygon points="684 448.44 448.44 684 482.38 684 684 482.38 684 448.44" style="stroke-width: 0px;"/>
  <polygon points="684 380.56 380.56 684 414.5 684 684 414.5 684 380.56" style="stroke-width: 0px;"/>
  <polygon points="684 312.68 312.68 684 346.62 684 684 346.62 684 312.68" style="stroke-width: 0px;"/>
  <polygon points="684 244.79 244.79 684 278.73 684 684 278.74 684 244.79" style="stroke-width: 0px;"/>
  <polygon points="684 180 680.91 180 180 680.91 180 684 210.85 684 684 210.85 684 180" style="stroke-width: 0px;"/>
  <polygon points="449.5 684 180 414.5 180 448.44 415.56 684 449.5 684" style="fill: none; stroke-width: 0px;"/>
  <polygon points="684 646.97 217.03 180 183.09 180 684 680.91 684 646.97" style="fill: none; stroke-width: 0px;"/>
  <polygon points="180 618.15 180 652.09 211.91 684 245.85 684 180 618.15" style="fill: none; stroke-width: 0px;"/>
  <polygon points="684 180 658.26 180 684 205.74 684 180" style="fill: none; stroke-width: 0px;"/>
  <polygon points="684 307.56 556.44 180 522.5 180 684 341.5 684 307.56" style="fill: none; stroke-width: 0px;"/>
  <polygon points="585.26 684 180 278.74 180 312.68 551.32 684 585.26 684" style="fill: none; stroke-width: 0px;"/>
  <polygon points="653.14 684 180 210.85 180 244.79 619.2 684 653.14 684" style="fill: none; stroke-width: 0px;"/>
  <polygon points="517.38 684 180 346.62 180 380.56 483.44 684 517.38 684" style="fill: none; stroke-width: 0px;"/>
  <polygon points="684 579.09 284.91 180 250.97 180 684 613.03 684 579.09" style="fill: none; stroke-width: 0px;"/>
  <polygon points="684 443.32 420.68 180 386.73 180 684 477.27 684 443.32" style="fill: none; stroke-width: 0px;"/>
  <polygon points="684 375.44 488.56 180 454.62 180 684 409.38 684 375.44" style="fill: none; stroke-width: 0px;"/>
  <polygon points="684 239.68 624.32 180 590.38 180 684 273.62 684 239.68" style="fill: none; stroke-width: 0px;"/>
  <polygon points="381.61 684 180 482.38 180 516.32 347.67 684 381.61 684" style="fill: none; stroke-width: 0px;"/>
  <polygon points="313.73 684 180 550.26 180 584.21 279.79 684 313.73 684" style="fill: none; stroke-width: 0px;"/>
  <polygon points="684 511.21 352.79 180 318.85 180 684 545.15 684 511.21" style="fill: none; stroke-width: 0px;"/>
  <polygon points="684 613.03 250.97 180 217.03 180 684 646.97 684 613.03" style="stroke-width: 0px;"/>
  <polygon points="684 545.15 318.85 180 284.91 180 684 579.09 684 545.15" style="stroke-width: 0px;"/>
  <polygon points="684 477.27 386.73 180 352.79 180 684 511.21 684 477.27" style="stroke-width: 0px;"/>
  <polygon points="684 409.38 454.62 180 420.68 180 684 443.32 684 409.38" style="stroke-width: 0px;"/>
  <polygon points="684 341.5 522.5 180 488.56 180 684 375.44 684 341.5" style="stroke-width: 0px;"/>
  <polygon points="684 273.62 590.38 180 556.44 180 684 307.56 684 273.62" style="stroke-width: 0px;"/>
  <polygon points="684 205.74 658.26 180 624.32 180 684 239.68 684 205.74" style="stroke-width: 0px;"/>
  <polygon points="180 684 211.91 684 180 652.09 180 684" style="stroke-width: 0px;"/>
  <polygon points="279.79 684 180 584.21 180 618.15 245.85 684 279.79 684" style="stroke-width: 0px;"/>
  <polygon points="347.67 684 180 516.32 180 550.26 313.73 684 347.67 684" style="stroke-width: 0px;"/>
  <polygon points="415.56 684 180 448.44 180 482.38 381.61 684 415.56 684" style="stroke-width: 0px;"/>
  <polygon points="483.44 684 180 380.56 180 414.5 449.5 684 483.44 684" style="stroke-width: 0px;"/>
  <polygon points="551.32 684 180 312.68 180 346.62 517.38 684 551.32 684" style="stroke-width: 0px;"/>
  <polygon points="619.2 684 180 244.79 180 278.74 585.26 684 619.2 684" style="stroke-width: 0px;"/>
  <polygon points="684 684 684 680.91 183.09 180 180 180 180 210.85 653.14 684 684 684" style="stroke-width: 0px;"/>
</svg>