<?xml version="1.0" encoding="UTF-8"?>
<svg id="icon" xmlns="http://www.w3.org/2000/svg" viewBox="0 0 864 864">
  <path d="M637.47,246.02c-3.65-8.82-10.66-15.83-19.48-19.48l-172.21-71.33c-4.41-1.83-9.09-2.74-13.78-2.74s-9.37.91-13.78,2.74l-172.21,71.33c-8.82,3.65-15.83,10.66-19.48,19.48l-71.33,172.21c-3.65,8.82-3.65,18.73,0,27.55l71.33,172.21c3.65,8.82,10.66,15.83,19.48,19.48l172.21,71.33c4.41,1.83,9.09,2.74,13.78,2.74s9.37-.91,13.78-2.74l172.21-71.33c8.82-3.65,15.83-10.66,19.48-19.48l71.33-172.21c3.65-8.82,3.65-18.73,0-27.55l-71.33-172.21Z" style="stroke-width: 0px;"/>
</svg>