<?xml version="1.0" encoding="UTF-8"?>
<svg id="icon" xmlns="http://www.w3.org/2000/svg" viewBox="0 0 864 864">
  <path d="M180,720h504c19.88,0,36-16.12,36-36V180c0-19.88-16.12-36-36-36H180c-19.88,0-36,16.12-36,36v504c0,19.88,16.12,36,36,36ZM684,180v504s-24,0-24,0V180h24ZM636,180v504h-24V180h24ZM588,180v504h-24V180h24ZM540,180v504h-24V180h24ZM492,180v504h-24V180h24ZM444,180v504h-24V180h24ZM396,180v504h-24V180h24ZM348,180v504h-24V180h24ZM300,180v504h-24V180h24ZM252,180v504h-24V180h24ZM180,180h24v504h-24s0-504,0-504Z" style="stroke-width: 0px;"/>
</svg>