<?xml version="1.0" encoding="UTF-8"?>
<svg id="icon" xmlns="http://www.w3.org/2000/svg" viewBox="0 0 864 864">
  <path d="M432,144c-159.06,0-288,128.94-288,288s128.94,288,288,288,288-128.94,288-288-128.94-288-288-288ZM684,432c0,34.04-6.66,67.03-19.79,98.08-12.69,30-30.87,56.96-54.02,80.11-23.15,23.16-50.11,41.33-80.11,54.02-31.04,13.13-64.04,19.79-98.08,19.79s-67.03-6.66-98.08-19.79c-30-12.69-56.96-30.87-80.11-54.02-23.16-23.15-41.33-50.11-54.02-80.11-13.13-31.04-19.79-64.04-19.79-98.08s6.66-67.03,19.79-98.08c12.69-30,30.87-56.96,54.02-80.11,23.15-23.15,50.11-41.33,80.11-54.02,31.04-13.13,64.04-19.79,98.08-19.79s67.03,6.66,98.08,19.79c30,12.69,56.96,30.87,80.11,54.02,23.16,23.15,41.33,50.11,54.02,80.11,13.13,31.04,19.79,64.04,19.79,98.08Z" style="stroke-width: 0px;"/>
  <path d="M432,288c-79.53,0-144,64.47-144,144s64.47,144,144,144,144-64.47,144-144-64.47-144-144-144ZM508.37,508.37c-20.4,20.4-47.52,31.63-76.37,31.63s-55.97-11.23-76.37-31.63c-20.4-20.4-31.63-47.52-31.63-76.37s11.23-55.97,31.63-76.37c20.4-20.4,47.52-31.63,76.37-31.63s55.97,11.23,76.37,31.63c20.4,20.4,31.63,47.52,31.63,76.37s-11.23,55.97-31.63,76.37Z" style="stroke-width: 0px;"/>
</svg>