<?xml version="1.0" encoding="UTF-8"?>
<svg id="icon" xmlns="http://www.w3.org/2000/svg" viewBox="0 0 864 864">
  <path d="M622.68,342.7c0-12.86-6.86-24.75-18-31.18l-154.68-89.3c-5.57-3.22-11.79-4.82-18-4.82s-12.43,1.61-18,4.82l-154.68,89.3c-11.14,6.43-18,18.32-18,31.18v178.61c0,12.86,6.86,24.75,18,31.18l154.68,89.3c5.57,3.22,11.79,4.82,18,4.82s12.43-1.61,18-4.82l154.68-89.3c11.14-6.43,18-18.32,18-31.18v-178.61ZM586.68,521.3l-154.68,89.3-154.68-89.3v-178.61l154.67-89.3s0,0,0,0l154.68,89.3v178.61Z" style="stroke-width: 0px;"/>
</svg>