<?xml version="1.0" encoding="UTF-8"?>
<svg id="icon" xmlns="http://www.w3.org/2000/svg" viewBox="0 0 864 864">
  <polygon points="451.84 224.85 451.79 224.85 393.51 224.85 393.51 282.94 451.84 282.94 451.84 224.85" style="stroke-width: 0px;"/>
  <polygon points="393.51 372.4 393.51 430.49 451.84 430.49 451.84 372.35 451.79 372.42 451.79 372.4 393.51 372.4" style="stroke-width: 0px;"/>
  <polygon points="465.13 372.4 465.13 430.49 523.22 430.49 523.22 372.35 523.05 372.42 523.08 372.4 465.13 372.4" style="stroke-width: 0px;"/>
  <path d="M644.39,396.33l-.43.05.05-.17c-3.24-23.81-18-43.21-37.44-58.09l-7.56-6-6.1,7.44c-11.86,13.44-16.56,37.28-15.12,55.09,1.44,13.49,5.76,26.88,13.3,37.3-6.1,3.12-13.63,6-19.44,9.05-13.68,4.49-26.98,6-40.33,6H146.3l-1.44,8.88c-2.88,28.37,1.44,58.09,13.49,84.97l5.86,10.44v1.44c36,59.6,100.09,86.41,169.89,86.41,134.27,0,244.4-58.09,296.61-183.22,34.2,1.49,68.75-7.44,84.97-40.23l4.32-7.44-7.2-4.49c-19.44-11.86-46.09-13.44-68.41-7.44ZM259.81,558.52l-.14.02c-16.42,0-31.3-13.44-31.3-29.76s13.44-29.84,31.32-29.84,31.44,13.44,31.44,29.81-14.93,29.76-31.32,29.76Z" style="stroke-width: 0px;"/>
  <polygon points="451.84 299.43 451.79 299.36 393.51 299.36 393.51 357.45 451.84 357.45 451.84 299.43" style="stroke-width: 0px;"/>
  <polygon points="307.19 299.43 306.81 299.36 306.74 299.36 249.27 299.36 249.27 357.45 307.19 357.45 307.19 299.43" style="stroke-width: 0px;"/>
  <polygon points="249.18 430.49 307.31 430.49 307.31 372.35 307.07 372.42 307.1 372.4 249.18 372.4 249.18 430.49" style="stroke-width: 0px;"/>
  <polygon points="177.58 372.4 177.58 430.49 235.86 430.49 235.86 372.35 235.14 372.42 235.09 372.4 177.58 372.4" style="stroke-width: 0px;"/>
  <polygon points="380.16 299.43 379.8 299.36 379.83 299.36 322.22 299.36 322.22 357.45 380.16 357.45 380.16 299.43" style="stroke-width: 0px;"/>
  <polygon points="322.22 372.4 322.22 430.49 380.16 430.49 380.16 372.35 379.8 372.42 379.83 372.4 322.22 372.4" style="stroke-width: 0px;"/>
</svg>