<?xml version="1.0" encoding="UTF-8"?>
<svg id="icon" xmlns="http://www.w3.org/2000/svg" viewBox="0 0 864 864">
  <path d="M165.79,566.06l150.48-72.14,7.37-3.53,71.26-34.46c11.18-5.28,10.32-21.79-1.46-26.21l-228.24-90.38c-1.58-.66-3.26-1.02-4.97-1.06v.02c-4.31-.15-8.48,1.5-11.52,4.56-2.64,2.66-4.7,5.88-4.7,9.72v200.52c0,10.61,12.36,17.69,21.79,12.96Z" style="stroke-width: 0px;"/>
  <path d="M677.3,286.03l-214.97-88.66c-9.66-4.08-20.04-6.18-30.53-6.17-10.42,0-20.88,2.06-30.72,6.17l-214.39,88.66c-12.07,4.99-11.76,21.79.29,26.78l215.57,85.39c18.89,7.66,40.01,7.66,58.9,0l215.57-85.39c12.07-4.7,12.07-21.79.29-26.78Z" style="stroke-width: 0px;"/>
  <path d="M700.27,338.45l-240.29,93.05c-5.5,2.25-9.1,7.59-9.12,13.54v213.5c.08,7.95,6.59,14.34,14.54,14.26,1.77-.02,3.52-.36,5.17-1.01l240.31-93.36c5.52-2.05,9.17-7.34,9.12-13.22v-213.5c-.05-7.92-6.48-14.3-14.4-14.3v-.02c-1.83.01-3.64.38-5.33,1.08Z" style="stroke-width: 0px;"/>
</svg>