<?xml version="1.0" encoding="UTF-8"?>
<svg id="icon" xmlns="http://www.w3.org/2000/svg" viewBox="0 0 864 864">
  <path d="M169,314.56l.72,1.92c8.41,20.67,18.51,40.87,30.29,60.1l1.2,1.68,1.68-1.2c13.22-9.62,27.17-18.51,41.59-26.44l1.44-.48-.48-1.68c-4.33-16.11-7.69-32.93-9.86-50l-.24-1.92-1.92.48c-21.16,3.85-42.31,9.62-62.5,16.83l-1.92.72Z" style="stroke-width: 0px;"/>
  <path d="M185.35,390.29l1.44-1.2-.96-1.44c-8.89-14.42-17.07-29.57-24.28-44.95l-2.16-4.33-1.44,4.81c-8.41,25.96-12.98,53.13-13.7,80.53l-.24,5.05,3.61-3.61c11.78-12.5,24.52-24.52,37.74-34.86Z" style="stroke-width: 0px;"/>
  <path d="M186.31,285c14.9-4.33,29.81-7.93,44.95-10.58-.96-15.39-1.2-30.77-.48-46.4-17.07,17.07-32.21,36.06-44.47,56.98Z" style="stroke-width: 0px;"/>
  <path d="M339.93,160.23c-22.36,7.69-43.51,18.03-62.98,30.77,14.66,2.64,29.33,6.01,43.51,10.34,5.77-14.18,12.26-27.65,19.47-41.11Z" style="stroke-width: 0px;"/>
  <path d="M286.56,585.74c7.45.24,15.15,0,22.84-.48l5.05-.24-3.85-3.13c-15.39-12.5-28.61-27.17-39.43-43.99v-.48l-3.12-1.44-.48,2.64c-1.92,14.42-3.13,29.33-3.37,44.71v1.92h1.92c6.73.48,13.7.48,20.43.48Z" style="stroke-width: 0px;"/>
  <path d="M336.8,234.75c-3.61,10.58-6.73,21.64-9.38,32.45,12.5-7.93,25.96-14.66,40.15-19.71-10.1-4.57-20.19-8.89-30.77-12.74Z" style="stroke-width: 0px;"/>
  <path d="M251.94,656.9l3.85,3.12-.72-4.81c-2.64-19.23-4.09-38.22-4.33-56.25v-1.68l-1.68-.24c-18.27-1.68-36.78-4.81-55.05-9.14l-4.81-1.2,2.64,4.33c16.59,25,36.78,47.12,60.1,65.87Z" style="stroke-width: 0px;"/>
  <path d="M311.32,226.34c-18.03-5.05-36.54-8.89-55.05-11.54-1.68,18.75-1.92,37.5-.72,56.01,14.66-1.68,29.57-2.4,44.23-2.64,3.12-14.18,6.97-28.13,11.54-41.83Z" style="stroke-width: 0px;"/>
  <path d="M256.27,511.69c-7.45-16.83-12.5-34.62-14.9-52.89l-.72-4.81-2.88,4.33c-7.93,11.3-15.39,22.84-22.12,34.86l-.96,1.68,1.68.96c12.02,6.73,24.76,12.98,37.5,18.51l4.57,1.92-2.16-4.57Z" style="stroke-width: 0px;"/>
  <path d="M248.57,584.29h1.92v-2.16c.48-16.59,1.68-33.18,4.09-49.28l.24-1.44-1.44-.48c-15.15-6.25-30.29-13.46-44.47-21.4l-1.68-.96-.96,1.92c-9.38,18.99-17.31,38.95-23.56,59.38l-.48,1.92,1.92.48c21.16,5.77,42.79,9.86,64.43,12.02Z" style="stroke-width: 0px;"/>
  <path d="M211.07,393.42l1.2,1.68c7.45,10.58,15.39,20.91,23.8,30.77l3.37,3.61.24-5.05c.72-17.55,3.61-34.62,8.89-51.21l1.44-4.81-4.33,2.4c-11.3,6.49-22.36,13.7-32.93,21.4l-1.68,1.2Z" style="stroke-width: 0px;"/>
  <path d="M295.21,293.17v-.48c-12.5.24-25,.96-37.26,2.4,1.44,12.74,3.85,25.24,6.49,37.5,8.65-14.42,18.99-27.65,30.77-39.43Z" style="stroke-width: 0px;"/>
  <path d="M146.16,465.54l.72,5.05c3.61,27.65,11.3,54.33,22.6,79.81l1.92,4.57,1.68-4.57c5.53-16.35,12.5-32.45,20.19-47.84l.72-2.16-1.44-.96c-14.9-9.38-29.09-19.71-42.55-30.77l-3.85-3.13Z" style="stroke-width: 0px;"/>
  <path d="M151.45,446.78l-1.44,1.44,1.44,1.2c14.9,12.98,31.01,25,47.84,35.58l1.68,1.2.96-1.68c7.45-13.46,16.11-26.68,25.24-39.43l.96-1.2-.96-1.2c-10.58-11.78-20.43-24.04-29.57-37.02,0,0-.96-1.44-.96-1.44l-1.68,1.2c-15.39,12.5-30.05,26.44-43.51,41.35Z" style="stroke-width: 0px;"/>
  <path d="M394.98,212.63c5.77-6.73,11.54-13.22,17.55-19.71-13.46-11.54-27.65-21.88-42.55-31.25-9.14,15.39-17.07,31.49-23.8,47.84,12.98,4.81,25.48,10.34,37.98,16.35,5.53-7.45,9.62-11.78,10.82-13.22Z" style="stroke-width: 0px;"/>
  <path d="M432.96,144.84c-11.06,0-21.88.72-32.69,1.92,15.15,10.58,29.81,22.12,43.51,34.86l11.54,10.58-11.3,10.82c-9.38,8.89-18.27,18.51-26.92,28.85l-.48.48s-1.68,1.92-4.33,5.05c6.73-.72,13.7-1.2,20.67-1.2,107.94,0,195.69,87.51,195.69,195.69s-87.51,195.69-195.69,195.69c-37.5,0-72.6-10.58-102.17-28.85-14.66,1.68-29.33,2.4-44.23,2.4-6.97,0-13.7-.24-20.67-.48.48,22.36,2.64,45.2,6.25,69.24,45.92,31.01,101.21,49.28,160.83,49.28,158.66,0,287.04-128.61,287.04-287.04s-128.37-287.28-287.04-287.28Z" style="stroke-width: 0px;"/>
</svg>