<?xml version="1.0" encoding="UTF-8"?>
<svg id="icon" xmlns="http://www.w3.org/2000/svg" viewBox="0 0 864 864">
  <polygon points="428.16 144 183.36 201.36 197.52 216 659.04 216 672 201.36 428.16 144" style="stroke-width: 0px;"/>
  <rect x="177.36" y="693.84" width="509.28" height="26.16" style="stroke-width: 0px;"/>
  <path d="M254.16,295.2c-6.6-1.6-13.37-2.4-20.16-2.4-6.71.04-13.39.85-19.92,2.4-1.67.47-2.9,1.88-3.12,3.6-3.84,42.24-5.76,115.68-5.76,162.24s2.16,123.12,6,164.88c7.1,2.04,14.45,3.09,21.84,3.12,8.11.14,16.2-.91,24-3.12,3.84-41.76,6-117.6,6-164.88s-2.16-120-5.76-162.24c-.22-1.72-1.45-3.13-3.12-3.6Z" style="stroke-width: 0px;"/>
  <rect x="194.4" y="231.84" width="467.52" height="50.16" style="stroke-width: 0px;"/>
  <rect x="197.52" y="643.68" width="469.92" height="36.24" style="stroke-width: 0px;"/>
  <path d="M528,295.2c-6.52-1.58-13.21-2.39-19.92-2.4-6.71.03-13.4.83-19.92,2.4-1.76.38-3.1,1.82-3.36,3.6-3.6,42.24-5.76,115.68-5.76,162.24s2.16,123.12,6.24,164.88c7.41,2.15,15.09,3.2,22.8,3.12,8.11.17,16.2-.88,24-3.12,3.84-41.76,6-117.6,6-164.88s-1.92-120-5.76-162.24c-.25-2.16-2.15-3.74-4.32-3.6Z" style="stroke-width: 0px;"/>
  <path d="M381.6,295.2c-7.07-1.72-14.33-2.53-21.6-2.4-6.79.05-13.55.85-20.16,2.4-1.67.47-2.9,1.88-3.12,3.6-3.6,42.24-5.76,115.68-5.76,162.24s2.16,123.12,6,164.88c7.49,2.15,15.25,3.2,23.04,3.12h.48c8.11.17,16.2-.88,24-3.12,3.84-41.76,6-117.6,6-164.88s-2.16-120-5.76-162.24c-.22-1.72-1.45-3.13-3.12-3.6Z" style="stroke-width: 0px;"/>
  <path d="M652.32,295.2c-6.52-1.58-13.21-2.39-19.92-2.4-6.79.05-13.55.85-20.16,2.4-1.67.47-2.9,1.88-3.12,3.6-3.6,42.24-5.76,115.68-5.76,162.24s2.16,123.12,6,164.88c7.49,2.15,15.25,3.2,23.04,3.12,7.71.05,15.39-1,22.8-3.12,3.84-41.76,6-117.6,6-164.88s-1.92-120-5.76-162.24c-.22-1.72-1.45-3.13-3.12-3.6Z" style="stroke-width: 0px;"/>
</svg>