<?xml version="1.0" encoding="UTF-8"?>
<svg id="icon" xmlns="http://www.w3.org/2000/svg" viewBox="0 0 864 864">
  <path d="M333.75,511.06l176.06-178c10.86-10.92,10.86-28.63,0-39.52-10.84-10.93-28.45-10.93-39.29,0-1.46,1.44-2.71,3.03-3.77,4.71l-172.29,173.29c-21.71,21.84-56.89,21.84-78.59,0-21.73-21.82-21.73-57.24,0-79.07l167.69-169.46c-21.69-21.84-56.9-21.84-78.61,0l-128.39,129.92c-43.41,43.68-43.41,114.47,0,158.13,43.41,43.67,113.81,43.67,157.19,0Z" style="stroke-width: 0px;"/>
  <path d="M627.71,412.12c-10.86-10.91-28.44-10.91-39.29,0-1.44,1.48-2.71,3.04-3.79,4.72l-172.27,173.29c-21.71,21.82-56.9,21.82-78.61,0l-.79-.12c-10.84-10.91-28.43-10.91-39.29,0-10.85,10.89-10.85,28.62,0,39.51,1.39,1.39,2.86,2.61,4.43,3.67,43.65,40.08,111.34,38.93,153.55-3.53l176.05-178.01c10.85-10.91,10.85-28.62,0-39.53Z" style="stroke-width: 0px;"/>
  <path d="M530.26,352.93l-172.98,174c-1.64,1.09-3.22,2.34-4.66,3.79-10.86,10.9-10.86,28.62,0,39.51,10.85,10.91,28.43,10.91,40.08.14l176.85-177.91c21.71-21.83,56.9-21.83,78.59,0,21.74,21.84,21.74,57.25,0,79.07l-167.69,169.47c21.72,21.82,56.9,21.82,78.61,0l128.39-129.94c43.39-43.66,43.39-114.45,0-158.13-43.39-43.64-113.78-43.64-157.19,0Z" style="stroke-width: 0px;"/>
  <path d="M412.36,234.35l-172.96,173.99c-1.66,1.07-3.21,2.32-4.67,3.78-10.86,10.91-10.86,28.62,0,39.53,10.85,10.91,28.43,10.91,40.08.11l176.85-177.87c20.6-20.74,53.35-21.79,75.17-3.18l2.63,3.04c10.88,10.93,28.45,10.93,39.31,0,10.69-10.76,11.18-28.47.79-39.41-43.39-43.66-113.77-43.66-157.19,0Z" style="stroke-width: 0px;"/>
</svg>