<?xml version="1.0" encoding="UTF-8"?>
<svg id="icon" xmlns="http://www.w3.org/2000/svg" viewBox="0 0 864 864">
  <path d="M687.6,169.95c-36-35.98-122.4-25.2-214.18,18h-10.8c-64.8,0-127.78,23.42-174.58,64.8-39.6,36-68.4,82.8-81,135,9-10.8,59.4-70.2,117-102.6,1.47,0,11.31-5.98,14.89-8.19-5.81,4.51-28.05,26.74-32.89,31.59-126,129.6-199.78,325.78-142.18,383.35,37.78,37.8,106.18,28.8,185.38-14.4,34.2,16.2,72,23.4,113.38,23.4,54,0,104.4-14.4,147.6-43.2,44.98-28.8,77.38-73.78,97.2-125.98h-140.4c-18,34.2-59.4,57.6-102.6,57.6-61.2,0-111.6-50.4-113.38-108v-5.4h367.15v-5.4c0-9,1.8-19.8,1.8-26.98,0-43.2-10.8-84.6-28.8-122.4,27-64.8,28.8-118.8-3.6-151.2ZM203.45,681.13c-28.8-28.8-19.78-84.58,14.4-151.18,16.2,45,43.2,84.6,77.4,113.4,10.8,9,23.4,18,36,25.2-57.6,30.58-104.4,36-127.8,12.58ZM577.82,407.58h-224.98v-1.8c3.6-55.8,55.78-104.4,116.98-104.4,57.6,0,104.4,45,108,104.4v1.8ZM640.8,256.38c-25.1-23.34-54.42-41.67-86.4-54,57.6-26.98,106.2-30.58,131.4-5.38,19.8,23.4,18,62.98-3.6,109.78-10.8-18-25.2-36-41.4-50.4Z" style="stroke-width: 0px;"/>
</svg>