<?xml version="1.0" encoding="UTF-8"?>
<svg xmlns="http://www.w3.org/2000/svg" viewBox="0 0 864 864">
  <g id="Layer_1" data-name="Layer 1">
    <polygon points="619.06 384.82 432 276.82 244.94 384.82 432 492.82 619.06 384.82" style="fill: none; stroke: #000; stroke-linecap: round; stroke-linejoin: round; stroke-width: 24px;"/>
    <polygon points="619.06 384.82 432 492.82 432 708.82 619.06 600.82 619.06 384.82" style="fill: none; stroke: #000; stroke-linecap: round; stroke-linejoin: round; stroke-width: 24px;"/>
    <polygon points="244.94 384.82 244.94 600.82 432 708.82 432 492.82 244.94 384.82" style="fill: none; stroke: #000; stroke-linecap: round; stroke-linejoin: round; stroke-width: 24px;"/>
    <path d="M432,276.45v-121.26s0,121.26,0,121.26Z" style="fill: none; stroke: #000; stroke-linecap: round; stroke-linejoin: round; stroke-width: 24px;"/>
    <path d="M389.13,198.06l42.87-42.87-42.87,42.87Z" style="fill: none; stroke: #000; stroke-linecap: round; stroke-linejoin: round; stroke-width: 24px;"/>
    <path d="M474.87,198.06l-42.87-42.87,42.87,42.87Z" style="fill: none; stroke: #000; stroke-linecap: round; stroke-linejoin: round; stroke-width: 24px;"/>
    <path d="M244.95,600.5l-105.02,60.63,105.02-60.63Z" style="fill: none; stroke: #000; stroke-linecap: round; stroke-linejoin: round; stroke-width: 24px;"/>
    <path d="M198.5,676.82l-58.57-15.69,58.57,15.69Z" style="fill: none; stroke: #000; stroke-linecap: round; stroke-linejoin: round; stroke-width: 24px;"/>
    <path d="M155.62,602.57l-15.69,58.57,15.69-58.57Z" style="fill: none; stroke: #000; stroke-linecap: round; stroke-linejoin: round; stroke-width: 24px;"/>
    <path d="M619.05,600.5l105.02,60.63-105.02-60.63Z" style="fill: none; stroke: #000; stroke-linecap: round; stroke-linejoin: round; stroke-width: 24px;"/>
    <path d="M708.38,602.57l15.69,58.57-15.69-58.57Z" style="fill: none; stroke: #000; stroke-linecap: round; stroke-linejoin: round; stroke-width: 24px;"/>
    <path d="M665.5,676.82l58.57-15.69-58.57,15.69Z" style="fill: none; stroke: #000; stroke-linecap: round; stroke-linejoin: round; stroke-width: 24px;"/>
  </g>
  <g id="Layer_1_copy" data-name="Layer 1 copy">
    <path d="M735.23,665.52c.15-.38.28-.78.4-1.18.02-.07.05-.14.06-.22.11-.43.19-.87.26-1.32.01-.1.03-.2.04-.31.05-.45.09-.91.09-1.38,0-.47-.04-.95-.09-1.43,0-.03,0-.07,0-.1-.02-.18-.07-.36-.11-.54-.06-.34-.11-.67-.2-1,0-.01,0-.02,0-.03l-15.69-58.57c-1.72-6.4-8.29-10.2-14.7-8.49-5.36,1.44-8.9,6.29-8.9,11.59,0,1.03.13,2.07.41,3.11l8.19,30.58-73.92-42.68v-208.76c0-4.29-2.29-8.25-6-10.39l-181.06-104.54v-85.73l22.39,22.39c2.34,2.34,5.41,3.51,8.49,3.51s6.14-1.17,8.49-3.51,3.51-5.41,3.51-8.49-1.17-6.14-3.51-8.49l-42.87-42.87s-.02-.01-.02-.02c-.27-.27-.56-.53-.86-.77-.14-.12-.29-.22-.44-.33-.17-.13-.33-.26-.51-.37-.17-.12-.35-.22-.53-.32-.16-.09-.31-.19-.47-.28-.18-.1-.37-.18-.56-.27-.17-.08-.34-.16-.51-.24-.18-.08-.37-.14-.55-.2-.18-.07-.37-.14-.56-.19-.19-.06-.38-.1-.56-.15-.19-.05-.38-.1-.57-.14-.22-.04-.44-.07-.66-.1-.17-.02-.33-.06-.5-.07-.79-.08-1.58-.08-2.37,0-.17.02-.33.05-.5.07-.22.03-.44.06-.66.1-.19.04-.38.09-.57.14-.19.05-.38.09-.56.15-.19.06-.37.13-.56.19-.18.07-.37.13-.55.2-.17.07-.34.16-.51.24-.19.09-.37.17-.55.27-.16.09-.32.19-.47.28-.18.11-.36.21-.53.32-.17.12-.34.25-.51.37-.15.11-.3.21-.44.33-.3.24-.58.5-.86.77,0,0-.02.01-.02.02l-42.87,42.87c-2.34,2.34-3.51,5.41-3.51,8.49s1.17,6.14,3.51,8.49,5.41,3.51,8.49,3.51,6.14-1.17,8.49-3.51l22.39-22.39v85.73l-181.06,104.54c-3.71,2.14-6,6.1-6,10.39v208.76l-73.92,42.68,8.19-30.58c.28-1.04.41-2.08.41-3.11,0-5.3-3.53-10.15-8.9-11.59-6.4-1.72-12.98,2.08-14.7,8.49l-15.69,58.57s0,.02,0,.03c-.09.33-.14.66-.2,1-.03.18-.08.36-.11.54,0,.03,0,.07,0,.1-.06.48-.09.96-.09,1.43,0,.46.04.92.09,1.38.01.1.02.2.04.31.06.44.15.88.26,1.32.02.07.04.15.06.22.11.4.24.79.4,1.18.03.08.06.16.09.24.18.43.39.85.62,1.25.02.04.04.08.06.12.02.04.06.08.08.12.24.41.51.81.8,1.19.04.06.09.11.13.16.27.34.55.66.86.96.06.06.11.12.17.17.33.32.67.61,1.03.89.08.06.16.12.24.18.74.54,1.55,1,2.42,1.37.09.04.19.08.28.12.41.16.83.31,1.27.43l58.57,15.69c1.04.28,2.09.41,3.11.41,5.3,0,10.15-3.54,11.58-8.9.28-1.04.41-2.08.41-3.11,0-5.3-3.53-10.15-8.9-11.59l-30.58-8.19,73.65-42.52,181.33,104.69c1.86,1.07,3.93,1.61,6,1.61s4.14-.54,6-1.61l181.33-104.69,73.65,42.52-30.58,8.19c-5.36,1.44-8.9,6.29-8.9,11.59,0,1.03.13,2.07.41,3.11,1.44,5.36,6.29,8.9,11.58,8.9,1.03,0,2.07-.13,3.11-.41l58.57-15.69c.44-.12.86-.27,1.28-.43.09-.04.19-.08.28-.11.87-.37,1.68-.83,2.42-1.37.08-.06.16-.12.24-.18.36-.28.71-.58,1.04-.89.06-.06.11-.12.17-.17.3-.31.59-.63.86-.97.04-.05.09-.1.13-.16.29-.38.56-.78.8-1.19.03-.04.06-.08.08-.12.02-.04.04-.08.06-.12.23-.41.44-.82.62-1.25.03-.08.06-.16.09-.24ZM420,688.03l-163.06-94.14v-188.29l163.06,94.14v188.29ZM432,290.67l163.06,94.14-163.06,94.14-163.06-94.14,163.06-94.14ZM444,499.74l163.06-94.14v188.29l-163.06,94.14v-188.29Z" style="stroke-width: 0px;"/>
  </g>
</svg>