<?xml version="1.0" encoding="UTF-8"?>
<svg id="icons" xmlns="http://www.w3.org/2000/svg" viewBox="0 0 72 72">
  <path d="M39.6,72h-3.6C16.15,72,0,55.85,0,36S16.15,0,36,0h3.6C57.47,0,72,14.53,72,32.4s-14.53,32.4-32.4,32.4h-3.6c-15.88,0-28.8-12.92-28.8-28.8S20.12,7.2,36,7.2h3.6c13.9,0,25.2,11.3,25.2,25.2s-11.3,25.2-25.2,25.2h-3.6c-11.91,0-21.6-9.69-21.6-21.6s9.69-21.6,21.6-21.6h3.6c9.93,0,18,8.07,18,18s-8.07,18-18,18h-3.6c-7.94,0-14.4-6.46-14.4-14.4s6.46-14.4,14.4-14.4h3.6c5.96,0,10.8,4.84,10.8,10.8s-4.84,10.8-10.8,10.8h-3.6c-3.97,0-7.2-3.23-7.2-7.2s3.23-7.2,7.2-7.2h1.8c2.98,0,5.4,2.42,5.4,5.4,0,.99-.81,1.8-1.8,1.8s-1.8-.81-1.8-1.8-.81-1.8-1.8-1.8h-1.8c-1.98,0-3.6,1.62-3.6,3.6s1.62,3.6,3.6,3.6h3.6c3.97,0,7.2-3.23,7.2-7.2s-3.23-7.2-7.2-7.2h-3.6c-5.96,0-10.8,4.85-10.8,10.8s4.85,10.8,10.8,10.8h3.6c7.94,0,14.4-6.46,14.4-14.4s-6.46-14.4-14.4-14.4h-3.6c-9.93,0-18,8.08-18,18s8.07,18,18,18h3.6c11.91,0,21.6-9.69,21.6-21.6s-9.69-21.6-21.6-21.6h-3.6c-13.9,0-25.2,11.3-25.2,25.2s11.3,25.2,25.2,25.2h3.6c15.88,0,28.8-12.92,28.8-28.8S55.48,3.6,39.6,3.6h-3.6C18.13,3.6,3.6,18.13,3.6,36s14.53,32.4,32.4,32.4h3.6c.99,0,1.8.81,1.8,1.8s-.81,1.8-1.8,1.8Z" style="stroke-width: 0px;"/>
</svg>