<?xml version="1.0" encoding="UTF-8"?>
<svg id="icon" xmlns="http://www.w3.org/2000/svg" viewBox="0 0 864 864">
  <path d="M151.42,385.94l156.29,113.55-59.7,183.73c-2.41,7.42.23,15.54,6.54,20.12,6.31,4.58,14.85,4.58,21.16,0l156.29-113.55,156.29,113.55c3.15,2.29,6.87,3.44,10.58,3.44,3.71,0,7.43-1.15,10.58-3.44,6.31-4.58,8.95-12.71,6.54-20.12l-59.7-183.73,156.29-113.55c6.31-4.58,8.95-12.71,6.54-20.12-2.41-7.42-9.32-12.44-17.12-12.44h-193.18l-59.7-183.73c-2.41-7.42-9.32-12.44-17.12-12.44s-14.71,5.02-17.12,12.44l-59.7,183.73h-193.18c-7.8,0-14.71,5.02-17.12,12.44-2.41,7.42.23,15.54,6.54,20.12Z" style="stroke-width: 0px;"/>
</svg>