<?xml version="1.0" encoding="UTF-8"?>
<svg id="icon" xmlns="http://www.w3.org/2000/svg" viewBox="0 0 864 864">
  <path d="M459,144h-27c-76.93,0-149.25,29.96-203.65,84.35-54.4,54.4-84.35,126.72-84.35,203.65s29.96,149.25,84.35,203.65c54.4,54.4,126.72,84.35,203.65,84.35h54c9.94,0,18-8.06,18-18s-8.06-18-18-18h-54c-67.31,0-130.59-26.21-178.19-73.81s-73.81-110.88-73.81-178.19,26.21-130.59,73.81-178.19,110.88-73.81,178.19-73.81h27c60.1,0,116.6,23.4,159.1,65.9,42.5,42.5,65.9,99,65.9,159.1s-23.4,116.6-65.9,159.1c-42.5,42.5-99,65.9-159.1,65.9h-27c-109.18,0-198-88.82-198-198s88.82-198,198-198h27c94.29,0,171,76.71,171,171s-76.71,171-171,171h-27c-79.4,0-144-64.6-144-144s64.6-144,144-144h27c64.51,0,117,52.49,117,117s-52.49,117-117,117h-27c-49.63,0-90-40.37-90-90s40.37-90,90-90h27c34.74,0,63,28.26,63,63s-28.26,63-63,63h-27c-19.85,0-36-16.15-36-36s16.15-36,36-36h27c4.96,0,9,4.04,9,9s-4.04,9-9,9c-9.94,0-18,8.06-18,18s8.06,18,18,18c24.81,0,45-20.19,45-45s-20.19-45-45-45h-27c-39.7,0-72,32.3-72,72s32.3,72,72,72h27c54.59,0,99-44.41,99-99s-44.41-99-99-99h-27c-69.48,0-126,56.52-126,126s56.52,126,126,126h27c84.36,0,153-68.64,153-153s-68.64-153-153-153h-27c-99.25,0-180,80.75-180,180s80.75,180,180,180h27c114.14,0,207-92.86,207-207s-92.86-207-207-207h-27c-62.5,0-121.27,24.34-165.46,68.54s-68.54,102.96-68.54,165.46,24.34,121.27,68.54,165.46,102.96,68.54,165.46,68.54h27c69.72,0,135.26-27.15,184.55-76.45s76.45-114.84,76.45-184.55-27.15-135.26-76.45-184.55-114.84-76.45-184.55-76.45Z" style="stroke-width: 0px;"/>
</svg>