<?xml version="1.0" encoding="UTF-8"?>
<svg id="icon" xmlns="http://www.w3.org/2000/svg" viewBox="0 0 864 864">
  <path d="M719.12,365.82c-2.41-7.42-9.32-12.44-17.12-12.44h-193.18l-59.7-183.73c-2.41-7.42-9.32-12.44-17.12-12.44s-14.71,5.02-17.12,12.44l-59.7,183.73h-193.18c-7.8,0-14.71,5.02-17.12,12.44-2.41,7.42.23,15.54,6.54,20.12l156.29,113.55-59.7,183.73c-2.41,7.42.23,15.54,6.54,20.12,3.15,2.29,6.87,3.44,10.58,3.44s7.43-1.15,10.58-3.44l156.29-113.55,156.29,113.55c3.15,2.29,6.86,3.44,10.58,3.44h0c3.71,0,7.43-1.15,10.58-3.44,6.31-4.58,8.95-12.71,6.54-20.12l-59.7-183.73,156.29-113.55c6.31-4.58,8.95-12.71,6.54-20.12ZM528.08,460.66l-28.21,20.5,10.78,33.17,31.16,95.92-81.59-59.28-28.21-20.5-28.21,20.5-81.59,59.28,31.16-95.92,10.78-33.17-28.21-20.5-81.59-59.28h135.73l10.78-33.17,31.17-95.92,31.17,95.92,10.78,33.17h135.73l-81.59,59.28Z" style="stroke-width: 0px;"/>
</svg>