<?xml version="1.0" encoding="UTF-8"?>
<svg id="icon" xmlns="http://www.w3.org/2000/svg" viewBox="0 0 864 864">
  <path d="M578.77,421.96c.05-.22.08-.44.11-.66.03-.22.06-.43.08-.65.02-.22.01-.44.01-.65,0-.22,0-.44-.01-.65-.02-.22-.05-.43-.08-.65-.03-.22-.06-.44-.11-.66-.05-.2-.11-.41-.17-.61-.07-.23-.14-.45-.22-.67-.03-.07-.04-.14-.07-.21-.05-.13-.12-.24-.18-.36-.1-.21-.2-.42-.32-.63-.11-.19-.23-.37-.35-.55-.12-.18-.25-.36-.38-.54-.14-.18-.3-.36-.45-.53-.09-.1-.17-.21-.27-.31l-46-46c-.07-.07-.15-.13-.22-.2-.08-.07-.16-.14-.24-.21-.28-.24-.57-.47-.87-.68-.02-.01-.03-.02-.04-.03-.33-.22-.68-.42-1.04-.59-.07-.03-.14-.07-.21-.1-.34-.15-.68-.29-1.03-.4-.03,0-.06-.02-.09-.03-.38-.11-.76-.2-1.15-.26-.09-.02-.18-.03-.27-.04-.39-.05-.79-.09-1.19-.09,0,0,0,0,0,0h-184s0,0,0,0c-.4,0-.79.04-1.19.09-.09.01-.18.02-.27.04-.39.06-.77.15-1.15.26-.03,0-.06.02-.09.03-.35.11-.7.25-1.03.4-.07.03-.14.06-.21.1-.35.17-.7.37-1.04.59-.02.01-.03.02-.04.03-.3.2-.59.43-.87.68-.08.07-.16.14-.24.21-.07.07-.15.13-.22.2l-46,46c-.1.1-.17.21-.27.31-.16.17-.31.34-.45.53-.14.18-.26.36-.38.54-.12.18-.24.36-.35.55-.12.21-.22.42-.32.63-.06.12-.13.23-.18.36-.03.07-.04.14-.07.21-.08.22-.15.44-.22.67-.06.2-.12.4-.17.61-.05.22-.08.44-.11.66-.03.21-.06.43-.08.64-.02.22-.01.44-.01.65s0,.44.01.65c.02.22.05.43.08.64.03.22.06.44.11.66.05.2.11.41.17.61.07.23.14.45.22.67.03.07.04.14.07.21.05.13.12.24.18.36.1.21.2.42.32.63.11.19.23.37.35.55.12.18.25.36.38.54.14.18.3.36.45.53.09.1.17.21.27.31l138,138s.09.08.14.12c.14.13.28.26.43.39.04.03.08.07.12.11.05.04.1.07.15.11.13.1.26.19.39.29.05.03.09.07.14.1.02.01.03.02.05.04.05.03.09.05.14.08.03.02.06.04.09.06.04.03.08.04.12.07.29.17.58.33.88.46.06.03.13.06.19.09.35.15.7.28,1.06.38.06.02.12.03.18.04.3.08.6.14.91.19.1.02.2.03.3.04.36.04.72.07,1.08.07,0,0,0,0,0,0,0,0,0,0,0,0s0,0,0,0,0,0,0,0,0,0,0,0c0,0,0,0,0,0,.36,0,.72-.03,1.08-.07.1-.01.2-.03.29-.04.31-.05.61-.11.91-.19.06-.02.12-.03.18-.04.36-.1.72-.23,1.06-.38.06-.03.12-.06.19-.09.3-.14.6-.29.88-.46.04-.02.08-.04.12-.07.03-.02.06-.04.09-.06.11-.07.22-.14.32-.22.13-.09.26-.19.39-.29.05-.04.1-.07.15-.11.04-.03.08-.07.12-.1.15-.12.29-.25.43-.39.04-.04.09-.08.14-.12l138-138c.1-.1.17-.21.27-.31.16-.17.31-.34.45-.53.14-.18.26-.36.38-.54.12-.18.24-.36.35-.55.12-.21.22-.42.32-.63.06-.12.13-.23.18-.36.03-.07.04-.14.07-.21.08-.22.15-.44.22-.67.06-.2.12-.4.17-.61ZM478,407.27l-24.27-24.27h48.54l-24.27,24.27ZM456.27,411h-48.54l24.27-24.27,24.27,24.27ZM386,407.27l-24.27-24.27h48.54l-24.27,24.27ZM465.51,429l-33.51,100.54-33.51-100.54h67.03ZM524,386.73l24.27,24.27h-48.54l24.27-24.27ZM340,386.73l24.27,24.27h-48.54l24.27-24.27ZM379.51,429l31.89,95.68-95.68-95.68h63.79ZM452.59,524.68l31.89-95.68h63.79l-95.68,95.68Z" style="stroke-width: 0px;"/>
  <path d="M432,345c4.97,0,9-4.03,9-9v-30c0-4.97-4.03-9-9-9s-9,4.03-9,9v30c0,4.97,4.03,9,9,9Z" style="stroke-width: 0px;"/>
  <path d="M480.21,355.79c1.42.82,2.96,1.21,4.49,1.21,3.11,0,6.14-1.61,7.8-4.5l15-25.98c2.49-4.3,1.01-9.81-3.29-12.29-4.3-2.49-9.81-1.01-12.29,3.29l-15,25.98c-2.49,4.3-1.01,9.81,3.29,12.29Z" style="stroke-width: 0px;"/>
  <path d="M371.49,352.5c1.67,2.89,4.69,4.5,7.8,4.5,1.53,0,3.07-.39,4.49-1.21,4.3-2.49,5.78-7.99,3.29-12.29l-15-25.98c-2.48-4.3-7.99-5.78-12.29-3.29-4.3,2.49-5.78,7.99-3.29,12.29l15,25.98Z" style="stroke-width: 0px;"/>
</svg>