<?xml version="1.0" encoding="UTF-8"?>
<svg id="icon" xmlns="http://www.w3.org/2000/svg" viewBox="0 0 864 864">
  <path d="M567,392.69h-96.59l-29.85-91.87c-1.2-3.71-4.66-6.22-8.56-6.22s-7.35,2.51-8.56,6.22l-29.85,91.87h-96.59c-3.9,0-7.35,2.51-8.56,6.22-1.2,3.71.12,7.77,3.27,10.06l78.14,56.78-29.85,91.86c-1.2,3.71.12,7.77,3.27,10.06,3.15,2.29,7.43,2.29,10.58,0l78.14-56.78,78.14,56.78c1.58,1.15,3.43,1.72,5.29,1.72s3.71-.57,5.29-1.72c3.15-2.29,4.47-6.35,3.27-10.06l-29.85-91.86,78.14-56.78c3.15-2.29,4.47-6.35,3.27-10.06-1.21-3.71-4.66-6.22-8.56-6.22Z" style="stroke-width: 0px;"/>
</svg>