<?xml version="1.0" encoding="UTF-8"?>
<svg id="icon" xmlns="http://www.w3.org/2000/svg" viewBox="0 0 864 864">
  <path d="M432,144h-27c-69.72,0-135.26,27.15-184.55,76.45s-76.45,114.84-76.45,184.55,27.15,135.26,76.45,184.55,114.84,76.45,184.55,76.45h27c62.5,0,121.27-24.34,165.46-68.54s68.54-102.96,68.54-165.46-24.34-121.27-68.54-165.46-102.96-68.54-165.46-68.54h-27c-114.14,0-207,92.86-207,207s92.86,207,207,207h27c99.25,0,180-80.75,180-180s-80.75-180-180-180h-27c-84.36,0-153,68.64-153,153s68.64,153,153,153h27c69.48,0,126-56.52,126-126s-56.52-126-126-126h-27c-54.59,0-99,44.41-99,99s44.41,99,99,99h27c39.7,0,72-32.3,72-72s-32.3-72-72-72h-27c-24.81,0-45,20.19-45,45s20.19,45,45,45c9.94,0,18-8.06,18-18s-8.06-18-18-18c-4.96,0-9-4.04-9-9s4.04-9,9-9h27c19.85,0,36,16.15,36,36s-16.15,36-36,36h-27c-34.74,0-63-28.26-63-63s28.26-63,63-63h27c49.63,0,90,40.37,90,90s-40.37,90-90,90h-27c-64.51,0-117-52.49-117-117s52.49-117,117-117h27c79.4,0,144,64.6,144,144s-64.6,144-144,144h-27c-94.29,0-171-76.71-171-171s76.71-171,171-171h27c109.18,0,198,88.82,198,198s-88.82,198-198,198h-27c-60.1,0-116.6-23.4-159.1-65.9-42.5-42.5-65.9-99-65.9-159.1s23.4-116.6,65.9-159.1c42.5-42.5,99-65.9,159.1-65.9h27c67.31,0,130.59,26.21,178.19,73.81s73.81,110.88,73.81,178.19-26.21,130.59-73.81,178.19-110.88,73.81-178.19,73.81h-54c-9.94,0-18,8.06-18,18s8.06,18,18,18h54c76.93,0,149.25-29.96,203.65-84.35,54.4-54.4,84.35-126.72,84.35-203.65s-29.96-149.25-84.35-203.65c-54.4-54.4-126.72-84.35-203.65-84.35Z" style="stroke-width: 0px;"/>
</svg>