<?xml version="1.0" encoding="UTF-8"?>
<svg id="icon" xmlns="http://www.w3.org/2000/svg" viewBox="0 0 864 864">
  <path d="M501.75,428.1l-25.21-14.55,7.53-28.11c.42-1.55-.03-3.21-1.16-4.35-.85-.85-2-1.32-3.18-1.32-.39,0-.78.05-1.16.15l-28.11,7.53-14.55-25.21c-.8-1.39-2.29-2.25-3.9-2.25s-3.09.86-3.9,2.25l-14.55,25.21-28.11-7.53c-.38-.1-.78-.15-1.16-.15-1.18,0-2.33.46-3.18,1.32-1.14,1.14-1.58,2.79-1.16,4.35l7.53,28.11-25.21,14.55c-1.39.8-2.25,2.29-2.25,3.9s.86,3.09,2.25,3.9l25.21,14.55-7.53,28.11c-.42,1.55.03,3.21,1.16,4.35.85.85,2,1.32,3.18,1.32.39,0,.78-.05,1.16-.15l28.11-7.53,14.55,25.21c.8,1.39,2.29,2.25,3.9,2.25s3.09-.86,3.9-2.25l14.55-25.21,28.11,7.53c.38.1.78.15,1.16.15,1.18,0,2.33-.46,3.18-1.32,1.14-1.14,1.58-2.79,1.16-4.35l-7.53-28.11,25.21-14.55c1.39-.8,2.25-2.29,2.25-3.9s-.86-3.09-2.25-3.9ZM470.54,440.06l-7.97,4.6,2.38,8.89,4.17,15.57-15.57-4.17-8.89-2.38-4.6,7.97-8.06,13.96-8.06-13.96-4.6-7.97-8.89,2.38-15.57,4.17,4.17-15.57,2.38-8.89-7.97-4.6-13.96-8.06,13.96-8.06,7.97-4.6-2.38-8.89-4.17-15.57,15.57,4.17,8.89,2.38,4.6-7.97,8.06-13.96,8.06,13.96,4.6,7.97,8.89-2.38,15.57-4.17-4.17,15.57-2.38,8.89,7.97,4.6,13.96,8.06-13.96,8.06Z" style="stroke-width: 0px;"/>
</svg>