<?xml version="1.0" encoding="UTF-8"?>
<svg id="icon" xmlns="http://www.w3.org/2000/svg" viewBox="0 0 864 864">
  <path d="M641.25,420.31l-75.62-43.66,22.6-84.34c1.25-4.66-.08-9.63-3.49-13.04-2.57-2.56-6.01-3.95-9.55-3.95-1.16,0-2.34.15-3.49.46l-84.34,22.6-43.66-75.62c-2.41-4.18-6.87-6.75-11.69-6.75s-9.28,2.57-11.69,6.75l-43.66,75.62-84.34-22.6c-1.15-.31-2.33-.46-3.49-.46-3.53,0-6.98,1.39-9.55,3.95-3.41,3.41-4.74,8.38-3.49,13.04l22.6,84.34-75.62,43.66c-4.18,2.41-6.75,6.87-6.75,11.69s2.57,9.28,6.75,11.69l75.62,43.66-22.6,84.34c-1.25,4.66.08,9.63,3.49,13.04,2.56,2.56,6.01,3.95,9.55,3.95,1.16,0,2.34-.15,3.49-.46l84.34-22.6,43.66,75.62c2.41,4.18,6.87,6.75,11.69,6.75s9.28-2.57,11.69-6.75l43.66-75.62,84.34,22.6c1.15.31,2.33.46,3.49.46,3.53,0,6.98-1.39,9.55-3.95,3.41-3.41,4.74-8.38,3.49-13.04l-22.6-84.34,75.62-43.66c4.18-2.41,6.75-6.87,6.75-11.69s-2.57-9.28-6.75-11.69ZM547.63,456.17l-23.92,13.81,7.15,26.68,12.51,46.7-46.7-12.51-26.68-7.15-13.81,23.92-24.17,41.87-24.17-41.87-13.81-23.92-26.68,7.15-46.7,12.51,12.51-46.7,7.15-26.68-23.92-13.81-41.87-24.17,41.87-24.17,23.92-13.81-7.15-26.68-12.51-46.7,46.7,12.51,26.68,7.15,13.81-23.92,24.17-41.87,24.17,41.87,13.81,23.92,26.68-7.15,46.7-12.51-12.51,46.7-7.15,26.68,23.92,13.81,41.87,24.17-41.87,24.17Z" style="stroke-width: 0px;"/>
</svg>