<?xml version="1.0" encoding="UTF-8"?>
<svg id="icon" xmlns="http://www.w3.org/2000/svg" viewBox="0 0 864 864">
  <g id="other_copy" data-name="other copy">
    <path d="M530.08,199.79c-31.04-13.13-64.04-19.79-98.08-19.79s-67.03,6.66-98.08,19.79c-30,12.69-56.96,30.87-80.11,54.02-23.15,23.15-41.33,50.11-54.02,80.11-13.13,31.04-19.79,64.04-19.79,98.08s6.66,67.03,19.79,98.08c12.69,30,30.87,56.96,54.02,80.11,23.15,23.16,50.11,41.33,80.11,54.02,31.04,13.13,64.04,19.79,98.08,19.79s67.03-6.66,98.08-19.79c30-12.69,56.96-30.87,80.11-54.02,23.15-23.15,41.33-50.11,54.02-80.11,13.13-31.04,19.79-64.04,19.79-98.08s-6.66-67.03-19.79-98.08c-12.69-30-30.87-56.96-54.02-80.11-23.15-23.16-50.11-41.33-80.11-54.02ZM575.75,412.12l-125.75,33.7v184.19c0,9.94-8.06,18-18,18s-18-8.06-18-18v-198c0-.09.01-.19.01-.28,0-.38.03-.76.06-1.13.02-.23.04-.46.06-.69.04-.34.1-.68.15-1.01.05-.26.09-.53.15-.79.06-.28.14-.56.22-.84.08-.3.16-.6.26-.89.08-.24.17-.47.26-.7.12-.32.24-.63.38-.94.09-.21.2-.42.3-.63.15-.31.3-.61.47-.91.12-.22.26-.42.39-.64.17-.27.34-.55.52-.81.16-.23.34-.46.51-.68.17-.22.34-.45.52-.66.21-.25.43-.48.65-.71.17-.18.34-.36.51-.54.24-.24.5-.47.76-.69.18-.15.35-.31.53-.46.26-.21.54-.41.81-.61.2-.14.4-.29.61-.43.26-.17.53-.33.8-.48.25-.15.5-.29.75-.43.24-.12.48-.24.73-.35.31-.14.62-.28.93-.41.22-.09.44-.16.66-.24.35-.13.71-.24,1.08-.35.09-.03.18-.06.27-.09l139.09-37.27c9.6-2.57,19.47,3.13,22.05,12.73s-3.13,19.47-12.73,22.05Z" style="fill: none; stroke-width: 0px;"/>
    <path d="M432,144c-159.06,0-288,128.94-288,288s128.94,288,288,288,288-128.94,288-288-128.94-288-288-288ZM684,432c0,34.04-6.66,67.03-19.79,98.08-12.69,30-30.87,56.96-54.02,80.11-23.15,23.16-50.11,41.33-80.11,54.02-31.04,13.13-64.04,19.79-98.08,19.79s-67.03-6.66-98.08-19.79c-30-12.69-56.96-30.87-80.11-54.02-23.15-23.15-41.33-50.11-54.02-80.11-13.13-31.04-19.79-64.04-19.79-98.08s6.66-67.03,19.79-98.08c12.69-30,30.87-56.96,54.02-80.11,23.15-23.16,50.11-41.33,80.11-54.02,31.04-13.13,64.04-19.79,98.08-19.79s67.03,6.66,98.08,19.79c30,12.69,56.96,30.87,80.11,54.02,23.15,23.15,41.33,50.11,54.02,80.11,13.13,31.04,19.79,64.04,19.79,98.08Z" style="stroke-width: 0px;"/>
    <path d="M414.65,427.25c.08-.3.16-.6.26-.89-.1.29-.18.59-.26.89Z" style="stroke-width: 0px;"/>
    <path d="M415.17,425.66c.12-.32.24-.63.38-.94-.14.31-.26.62-.38.94Z" style="stroke-width: 0px;"/>
    <path d="M414.29,428.88c.05-.26.09-.53.15-.79-.06.26-.1.53-.15.79Z" style="stroke-width: 0px;"/>
    <path d="M414.07,430.59c.02-.23.03-.46.06-.69-.03.23-.04.46-.06.69Z" style="stroke-width: 0px;"/>
    <path d="M431.99,450c-7.95,0-15.22-5.3-17.38-13.35-.44-1.65-.62-3.31-.6-4.94,0,.09-.01.19-.01.28v198c0,9.94,8.06,18,18,18s18-8.06,18-18v-184.19l-13.34,3.57c-1.56.42-3.13.62-4.67.62Z" style="stroke-width: 0px;"/>
    <path d="M418.91,419.67c.17-.18.34-.36.51-.54-.18.17-.34.36-.51.54Z" style="stroke-width: 0px;"/>
    <path d="M426,415.05c.35-.12.71-.24,1.08-.35-.36.1-.72.22-1.08.35Z" style="stroke-width: 0px;"/>
    <path d="M420.18,418.45c.18-.15.35-.31.53-.46-.18.15-.35.3-.53.46Z" style="stroke-width: 0px;"/>
    <path d="M422.93,416.47c.25-.15.5-.29.75-.43-.26.13-.51.28-.75.43Z" style="stroke-width: 0px;"/>
    <path d="M424.41,415.7c.31-.14.62-.28.93-.41-.32.13-.63.27-.93.41Z" style="stroke-width: 0px;"/>
    <path d="M421.52,417.38c.2-.14.4-.29.61-.43-.21.14-.41.28-.61.43Z" style="stroke-width: 0px;"/>
    <path d="M415.85,424.09c.15-.31.3-.61.47-.91-.17.3-.32.6-.47.91Z" style="stroke-width: 0px;"/>
    <path d="M416.71,422.54c.17-.27.34-.54.52-.81-.18.26-.35.54-.52.81Z" style="stroke-width: 0px;"/>
    <path d="M417.74,421.05c.17-.22.34-.45.52-.66-.18.22-.35.44-.52.66Z" style="stroke-width: 0px;"/>
    <path d="M417.23,421.73c.16-.23.34-.46.51-.68-.17.23-.35.45-.51.68Z" style="stroke-width: 0px;"/>
    <path d="M419.42,419.14c.25-.24.5-.47.76-.69-.26.23-.52.45-.76.69Z" style="stroke-width: 0px;"/>
    <path d="M414.44,428.09c.06-.28.14-.56.22-.84-.08.28-.15.56-.22.84Z" style="stroke-width: 0px;"/>
    <path d="M418.26,420.39c.21-.25.43-.48.65-.71-.22.23-.44.47-.65.71Z" style="stroke-width: 0px;"/>
    <path d="M414.01,431.72c0-.38.03-.76.06-1.13-.03.38-.05.75-.06,1.13Z" style="stroke-width: 0px;"/>
    <path d="M415.55,424.72c.09-.21.2-.42.3-.63-.1.21-.21.42-.3.63Z" style="stroke-width: 0px;"/>
    <path d="M414.13,429.9c.04-.34.1-.68.15-1.01-.06.34-.11.67-.15,1.01Z" style="stroke-width: 0px;"/>
    <path d="M566.43,377.34l-139.09,37.27c-.09.02-.18.06-.27.09,1.57-.45,3.22-.7,4.93-.7,9.94,0,18,8.06,18,18v13.81l125.75-33.7c9.6-2.57,15.3-12.44,12.73-22.05s-12.44-15.3-22.05-12.73Z" style="stroke-width: 0px;"/>
    <path d="M416.32,423.18c.12-.22.26-.42.39-.64-.13.21-.26.42-.39.64Z" style="stroke-width: 0px;"/>
    <path d="M414.91,426.36c.08-.24.17-.47.26-.7-.09.23-.18.46-.26.7Z" style="stroke-width: 0px;"/>
    <path d="M423.68,416.05c.24-.12.48-.24.73-.35-.24.11-.49.23-.73.35Z" style="stroke-width: 0px;"/>
    <path d="M425.34,415.29c.22-.09.44-.16.66-.24-.22.08-.44.15-.66.24Z" style="stroke-width: 0px;"/>
    <path d="M420.71,417.99c.26-.21.54-.41.81-.61-.28.2-.55.4-.81.61Z" style="stroke-width: 0px;"/>
    <path d="M422.13,416.96c.26-.17.53-.33.8-.48-.27.16-.54.31-.8.48Z" style="stroke-width: 0px;"/>
    <path d="M432,414c-1.71,0-3.36.25-4.93.7-.37.1-.72.22-1.08.35-.22.08-.44.15-.66.24-.32.13-.63.27-.93.41-.24.11-.49.23-.73.35-.26.13-.51.28-.75.43-.27.16-.54.31-.8.48-.21.14-.41.28-.61.43-.28.2-.55.4-.81.61-.18.15-.35.3-.53.46-.26.23-.52.45-.76.69-.18.17-.34.36-.51.54-.22.23-.44.47-.65.71-.18.22-.35.44-.52.66-.17.22-.35.45-.51.68-.18.26-.35.54-.52.81-.13.21-.26.42-.39.64-.17.3-.32.61-.47.91-.1.21-.21.42-.3.63-.14.31-.26.63-.38.94-.09.23-.18.46-.26.7-.1.29-.18.59-.26.89-.08.28-.15.56-.22.84-.06.26-.1.53-.15.79-.06.33-.11.67-.15,1.01-.03.23-.04.46-.06.69-.03.37-.05.75-.06,1.13-.02,1.63.16,3.29.6,4.94,2.15,8.04,9.43,13.35,17.38,13.35,1.54,0,3.11-.2,4.67-.62l13.34-3.57v-13.81c0-9.94-8.06-18-18-18Z" style="stroke-width: 0px;"/>
  </g>
</svg>