<?xml version="1.0" encoding="UTF-8"?>
<svg id="icon" xmlns="http://www.w3.org/2000/svg" viewBox="0 0 864 864">
  <g id="other_copy" data-name="other copy">
    <rect x="240" y="168" width="396" height="36" rx="6" ry="6" style="fill: none; stroke-width: 0px;"/>
    <rect x="240" y="660" width="396" height="36" rx="6" ry="6" style="fill: none; stroke-width: 0px;"/>
    <path d="M457.58,437.95c-2.11-3.69-2.11-8.22,0-11.91l113.17-198.05h-277.5l113.17,198.05c2.11,3.69,2.11,8.22,0,11.91l-113.17,198.05h277.5l-113.17-198.05Z" style="fill: none; stroke-width: 0px;"/>
    <path d="M270.05,211.58c5.75-3.29,13.08-1.29,16.37,4.46l6.83,11.95h277.5l6.83-11.95c3.29-5.75,10.62-7.75,16.37-4.46,5.75,3.29,7.75,10.62,4.46,16.37l-.03.05h31.61c16.54,0,30-13.46,30-30v-24c0-16.54-13.46-30-30-30H246c-16.54,0-30,13.46-30,30v24c0,16.54,13.46,30,30,30h19.61l-.03-.05c-3.29-5.75-1.29-13.08,4.46-16.37ZM240,198v-24c0-3.31,2.69-6,6-6h384c3.31,0,6,2.69,6,6v24c0,3.31-2.69,6-6,6H246c-3.31,0-6-2.69-6-6Z" style="stroke-width: 0px;"/>
    <path d="M593.95,652.42c-1.88,1.07-3.92,1.58-5.94,1.58-4.17,0-8.21-2.17-10.43-6.05l-6.83-11.95h-277.5l-6.83,11.95c-2.21,3.88-6.26,6.05-10.43,6.05-2.02,0-4.06-.51-5.94-1.58-5.75-3.29-7.75-10.62-4.46-16.37l.03-.05h-19.61c-16.54,0-30,13.46-30,30v24c0,16.54,13.46,30,30,30h384c16.54,0,30-13.46,30-30v-24c0-16.54-13.46-30-30-30h-31.61l.03.05c3.29,5.75,1.29,13.08-4.46,16.37ZM636,666v24c0,3.31-2.69,6-6,6H246c-3.31,0-6-2.69-6-6v-24c0-3.31,2.69-6,6-6h384c3.31,0,6,2.69,6,6Z" style="stroke-width: 0px;"/>
    <path d="M265.61,636h27.64l113.17-198.05c2.11-3.69,2.11-8.22,0-11.91l-113.17-198.05h-27.64l116.57,204-116.57,204Z" style="stroke-width: 0px;"/>
    <path d="M286.42,216.05c-3.29-5.75-10.62-7.75-16.37-4.46-5.75,3.29-7.75,10.62-4.46,16.37l.03.05h27.64l-6.83-11.95Z" style="stroke-width: 0px;"/>
    <path d="M270.05,652.42c1.88,1.07,3.92,1.58,5.94,1.58,4.17,0,8.21-2.17,10.43-6.05l6.83-11.95h-27.64l-.03.05c-3.29,5.75-1.29,13.08,4.46,16.37Z" style="stroke-width: 0px;"/>
    <path d="M457.58,426.05c-2.11,3.69-2.11,8.22,0,11.91l113.17,198.05h27.64l-116.57-204,116.57-204h-27.64l-113.17,198.05Z" style="stroke-width: 0px;"/>
    <path d="M593.95,211.58c-5.75-3.29-13.08-1.29-16.37,4.46l-6.83,11.95h27.64l.03-.05c3.29-5.75,1.29-13.08-4.46-16.37Z" style="stroke-width: 0px;"/>
    <path d="M577.58,647.95c2.21,3.88,6.26,6.05,10.43,6.05,2.02,0,4.07-.51,5.94-1.58,5.75-3.29,7.75-10.62,4.46-16.37l-.03-.05h-27.64l6.83,11.95Z" style="stroke-width: 0px;"/>
  </g>
</svg>