<?xml version="1.0" encoding="UTF-8"?>
<svg id="icon" xmlns="http://www.w3.org/2000/svg" viewBox="0 0 864 864">
  <g id="other_copy" data-name="other copy">
    <path d="M333.92,664.21c31.04,13.13,64.04,19.79,98.08,19.79s67.03-6.66,98.08-19.79c30-12.69,56.96-30.87,80.11-54.02,23.15-23.15,41.33-50.11,54.02-80.11,13.13-31.04,19.79-64.04,19.79-98.08s-6.66-67.03-19.79-98.08c-12.69-30-30.87-56.96-54.02-80.11-23.15-23.16-50.11-41.33-80.11-54.02-31.04-13.13-64.04-19.79-98.08-19.79s-67.03,6.66-98.08,19.79c-30,12.69-56.96,30.87-80.11,54.02-23.15,23.15-41.33,50.11-54.02,80.11-13.13,31.04-19.79,64.04-19.79,98.08s6.66,67.03,19.79,98.08c12.69,30,30.87,56.96,54.02,80.11,23.15,23.16,50.11,41.33,80.11,54.02ZM414,432c0-.59.03-1.19.09-1.78.03-.27.08-.53.11-.79.05-.32.08-.64.15-.95.06-.3.14-.59.22-.89.07-.27.13-.55.21-.82.09-.29.2-.57.3-.85.1-.27.19-.54.3-.81.11-.26.24-.52.36-.78.13-.27.25-.55.39-.82.13-.25.28-.48.43-.72.16-.26.31-.53.48-.79.18-.26.37-.51.56-.77.16-.22.31-.44.48-.65.37-.45.75-.87,1.16-1.28.01-.01.02-.02.03-.04l101.82-101.82c7.03-7.03,18.43-7.03,25.46,0,7.03,7.03,7.03,18.43,0,25.46l-96.55,96.55v190.54c0,9.94-8.06,18-18,18s-18-8.06-18-18v-198Z" style="fill: none; stroke-width: 0px;"/>
    <path d="M432,720c159.06,0,288-128.94,288-288s-128.94-288-288-288S144,272.94,144,432s128.94,288,288,288ZM180,432c0-34.04,6.66-67.03,19.79-98.08,12.69-30,30.87-56.96,54.02-80.11,23.15-23.16,50.11-41.33,80.11-54.02,31.04-13.13,64.04-19.79,98.08-19.79s67.03,6.66,98.08,19.79c30,12.69,56.96,30.87,80.11,54.02,23.15,23.15,41.33,50.11,54.02,80.11,13.13,31.04,19.79,64.04,19.79,98.08s-6.66,67.03-19.79,98.08c-12.69,30-30.87,56.96-54.02,80.11-23.15,23.16-50.11,41.33-80.11,54.02-31.04,13.13-64.04,19.79-98.08,19.79s-67.03-6.66-98.08-19.79c-30-12.69-56.96-30.87-80.11-54.02-23.15-23.15-41.33-50.11-54.02-80.11-13.13-31.04-19.79-64.04-19.79-98.08Z" style="stroke-width: 0px;"/>
    <path d="M414.35,428.48c.06-.3.14-.59.22-.89-.07.3-.16.59-.22.89Z" style="stroke-width: 0px;"/>
    <path d="M416.13,423.52c.13-.25.28-.48.43-.72-.14.24-.29.48-.43.72Z" style="stroke-width: 0px;"/>
    <path d="M418.08,420.59c.36-.44.75-.87,1.16-1.28-.41.41-.79.84-1.16,1.28Z" style="stroke-width: 0px;"/>
    <path d="M417.03,422c.18-.26.37-.51.56-.77-.19.25-.39.5-.56.77Z" style="stroke-width: 0px;"/>
    <path d="M415.37,425.11c.11-.26.24-.52.36-.78-.12.26-.25.51-.36.78Z" style="stroke-width: 0px;"/>
    <path d="M414.78,426.77c.09-.29.2-.57.3-.85-.1.28-.21.56-.3.85Z" style="stroke-width: 0px;"/>
    <path d="M414.09,430.22c.03-.26.08-.53.11-.79-.04.26-.09.52-.11.79Z" style="stroke-width: 0px;"/>
    <path d="M432,648c9.94,0,18-8.06,18-18v-190.54l-5.27,5.27c-3.51,3.51-8.12,5.27-12.73,5.27s-9.21-1.76-12.73-5.27c-3.51-3.51-5.27-8.12-5.27-12.73v198c0,9.94,8.06,18,18,18Z" style="stroke-width: 0px;"/>
    <path d="M415.73,424.34c.13-.27.25-.55.39-.82-.14.27-.27.55-.39.82Z" style="stroke-width: 0px;"/>
    <path d="M415.08,425.92c.1-.27.19-.55.3-.81-.11.27-.2.54-.3.81Z" style="stroke-width: 0px;"/>
    <path d="M414.57,427.59c.07-.27.13-.55.21-.82-.08.27-.14.54-.21.82Z" style="stroke-width: 0px;"/>
    <path d="M414,432c0-.6.03-1.19.09-1.78-.06.59-.09,1.18-.09,1.78Z" style="stroke-width: 0px;"/>
    <path d="M414.2,429.43c.05-.32.08-.64.15-.95-.06.31-.1.63-.15.95Z" style="stroke-width: 0px;"/>
    <path d="M416.55,422.79c.16-.26.31-.53.48-.79-.17.26-.32.52-.48.79Z" style="stroke-width: 0px;"/>
    <path d="M417.6,421.24c.16-.22.31-.44.48-.65-.17.21-.32.43-.48.65Z" style="stroke-width: 0px;"/>
    <path d="M432,414c9.94,0,18,8.06,18,18v7.46l96.55-96.55c7.03-7.03,7.03-18.43,0-25.46-7.03-7.03-18.43-7.03-25.46,0l-101.82,101.82s-.02.02-.03.04c3.26-3.28,7.77-5.31,12.76-5.31Z" style="stroke-width: 0px;"/>
    <path d="M432,450c4.61,0,9.21-1.76,12.73-5.27l5.27-5.27v-7.46c0-9.94-8.06-18-18-18-4.99,0-9.5,2.03-12.76,5.31-.41.41-.8.84-1.16,1.28-.17.21-.32.43-.48.65-.19.25-.39.5-.56.77-.17.25-.32.52-.48.79-.14.24-.3.48-.43.72-.14.27-.27.55-.39.82-.12.26-.25.51-.36.78-.11.26-.2.54-.3.81-.1.28-.21.57-.3.85-.08.27-.14.54-.21.82-.07.3-.16.59-.22.89-.06.31-.1.63-.15.95-.04.26-.09.53-.11.79-.06.58-.09,1.18-.09,1.78,0,4.61,1.76,9.21,5.27,12.73,3.51,3.51,8.12,5.27,12.73,5.27Z" style="stroke-width: 0px;"/>
  </g>
</svg>