<?xml version="1.0" encoding="UTF-8"?>
<svg id="icon" xmlns="http://www.w3.org/2000/svg" viewBox="0 0 864 864">
  <g id="other_copy" data-name="other copy">
    <path d="M432,720c159.06,0,288-128.94,288-288s-128.94-288-288-288S144,272.94,144,432s128.94,288,288,288ZM414,234c0-9.94,8.06-18,18-18s18,8.06,18,18v130.82l38.41-66.53c4.97-8.61,15.98-11.56,24.59-6.59s11.56,15.98,6.59,24.59l-72,124.71c-.2.35-.41.68-.63,1.01-.03.04-.06.08-.09.13-.28.41-.58.81-.89,1.19-.07.08-.14.17-.21.25-.33.4-.68.78-1.04,1.14,0,0,0,0,0,0-.39.39-.8.76-1.22,1.11-.05.04-.1.08-.15.12-.38.31-.78.61-1.18.89-.05.04-.11.08-.16.11-.43.29-.87.55-1.32.8-.12.06-.23.12-.35.18-.35.18-.7.35-1.05.51-.14.06-.28.13-.43.19-.43.18-.87.34-1.32.48-.17.06-.35.1-.52.15-.36.1-.73.2-1.09.28-.14.03-.28.07-.42.1-.5.1-1,.17-1.51.23-.12.01-.24.02-.36.04-.55.05-1.1.09-1.66.09s-1.13-.04-1.69-.09c-.08,0-.16-.01-.24-.02-.55-.06-1.09-.14-1.63-.25-.06-.01-.12-.03-.18-.04-.46-.1-.91-.22-1.36-.35-.13-.04-.25-.07-.38-.11-.47-.15-.94-.32-1.4-.51-.13-.06-.26-.12-.4-.18-.34-.15-.67-.31-1-.48-.16-.08-.33-.17-.49-.26-.07-.04-.15-.08-.22-.12-.14-.08-.27-.18-.41-.27-.31-.19-.61-.38-.9-.58-.23-.16-.45-.33-.67-.5-.23-.18-.46-.36-.68-.55-.25-.21-.49-.43-.72-.66-.18-.17-.36-.34-.53-.52-.24-.25-.47-.5-.69-.76-.16-.18-.31-.36-.46-.55-.21-.26-.4-.52-.59-.79-.15-.21-.3-.43-.44-.65-.16-.25-.32-.51-.47-.77-.15-.26-.29-.52-.43-.78-.12-.23-.23-.47-.34-.71-.14-.3-.27-.6-.39-.91-.09-.22-.17-.45-.25-.68-.11-.32-.22-.65-.31-.97-.07-.24-.13-.48-.19-.72-.08-.31-.15-.63-.21-.95-.05-.29-.09-.58-.13-.87-.04-.28-.07-.55-.1-.83-.03-.36-.04-.72-.05-1.07,0-.16-.02-.33-.02-.49v-198Z" style="stroke-width: 0px;"/>
  </g>
</svg>