<?xml version="1.0" encoding="UTF-8"?>
<svg id="icon" xmlns="http://www.w3.org/2000/svg" viewBox="0 0 864 864">
  <g id="other_copy" data-name="other copy">
    <path d="M347.93,262.96c-25.72,10.88-48.82,26.46-68.67,46.31-19.85,19.85-35.43,42.95-46.31,68.67-11.25,26.61-16.96,54.89-16.96,84.07s5.71,57.46,16.96,84.07c10.88,25.72,26.46,48.82,46.31,68.67,19.85,19.85,42.95,35.43,68.67,46.31,26.61,11.25,54.89,16.96,84.07,16.96s57.46-5.71,84.07-16.96c25.72-10.88,48.82-26.46,68.67-46.31,19.85-19.85,35.43-42.95,46.31-68.67,11.25-26.61,16.96-54.89,16.96-84.07s-5.71-57.46-16.96-84.07c-10.88-25.72-26.46-48.82-46.31-68.67-19.85-19.85-42.95-35.43-68.67-46.31-26.61-11.25-54.89-16.96-84.07-16.96s-57.46,5.71-84.07,16.96ZM534.73,539.27c7.03,7.03,7.03,18.43,0,25.46-3.51,3.51-8.12,5.27-12.73,5.27s-9.21-1.76-12.73-5.27l-84.73-84.73h-119.82c-9.94,0-18-8.06-18-18s8.06-18,18-18h127.28c.06,0,.12,0,.18,0,.53,0,1.06.03,1.59.08.29.03.57.08.85.12.3.04.59.08.89.14.32.06.63.15.94.23.26.07.52.12.77.2.3.09.6.21.89.31.26.09.52.18.77.28.28.12.55.25.82.38.26.12.52.24.78.38.26.14.51.3.77.45.25.15.5.29.75.45.28.19.55.4.83.61.2.15.4.28.59.44.46.38.91.78,1.33,1.2l89.99,89.99Z" style="stroke-width: 0px;"/>
    <path d="M666,462c0,62.5-24.34,121.27-68.54,165.46-44.2,44.2-102.96,68.54-165.46,68.54s-121.27-24.34-165.46-68.54c-44.2-44.2-68.54-102.96-68.54-165.46s24.34-121.27,68.54-165.46c44.2-44.2,102.96-68.54,165.46-68.54,56.47,0,109.87,19.87,152.25,56.29l12.76-12.76c-34.18-29.64-76.43-50.22-123.01-58.03v8.5h-84v-8.5c-119.18,20-210,123.63-210,248.5,0,139.18,112.82,252,252,252s252-112.82,252-252c0-63.11-23.2-120.8-61.53-165.01l-12.76,12.76c36.42,42.38,56.29,95.79,56.29,152.25Z" style="stroke-width: 0px;"/>
    <path d="M266.54,296.54c-44.2,44.2-68.54,102.96-68.54,165.46s24.34,121.27,68.54,165.46c44.2,44.2,102.96,68.54,165.46,68.54s121.27-24.34,165.46-68.54c44.2-44.2,68.54-102.96,68.54-165.46,0-56.46-19.87-109.87-56.29-152.25l-1.64,1.64-25.46-25.46,1.64-1.64c-42.38-36.42-95.79-56.29-152.25-56.29-62.5,0-121.27,24.34-165.46,68.54ZM584.74,309.27c19.85,19.85,35.43,42.95,46.31,68.67,11.25,26.61,16.96,54.89,16.96,84.07s-5.71,57.46-16.96,84.07c-10.88,25.72-26.46,48.82-46.31,68.67-19.85,19.85-42.95,35.43-68.67,46.31-26.61,11.25-54.89,16.96-84.07,16.96s-57.46-5.71-84.07-16.96c-25.72-10.88-48.82-26.46-68.67-46.31-19.85-19.85-35.43-42.95-46.31-68.67-11.25-26.61-16.96-54.89-16.96-84.07s5.71-57.46,16.96-84.07c10.88-25.72,26.46-48.82,46.31-68.67,19.85-19.85,42.95-35.43,68.67-46.31,26.61-11.25,54.89-16.96,84.07-16.96s57.46,5.71,84.07,16.96c25.72,10.88,48.82,26.46,68.67,46.31Z" style="stroke-width: 0px;"/>
    <path d="M480,186c9.94,0,18-8.06,18-18s-8.06-18-18-18h-96c-9.94,0-18,8.06-18,18s8.06,18,18,18h96Z" style="stroke-width: 0px;"/>
    <path d="M474,213.5v-27.5h-84v27.5c13.66-2.29,27.69-3.5,42-3.5s28.34,1.21,42,3.5Z" style="stroke-width: 0px;"/>
    <path d="M474,222v-8.5c-13.66-2.29-27.69-3.5-42-3.5s-28.34,1.21-42,3.5v8.5h84Z" style="stroke-width: 0px;"/>
    <path d="M618.68,207.44c-7.03-7.03-18.43-7.03-25.46,0-7.03,7.03-7.03,18.43,0,25.46l21.21,21.21,6.36-6.36,25.46,25.46-6.36,6.36,21.21,21.21c3.52,3.52,8.12,5.27,12.73,5.27s9.21-1.76,12.73-5.27c7.03-7.03,7.03-18.43,0-25.46l-67.88-67.88Z" style="stroke-width: 0px;"/>
    <path d="M597.01,271.53c9.08,7.87,17.59,16.38,25.46,25.46l17.42-17.42-25.46-25.46-17.42,17.42Z" style="stroke-width: 0px;"/>
    <path d="M597.01,271.53l-12.76,12.76c4.53,3.9,8.94,7.97,13.21,12.24,4.27,4.27,8.35,8.68,12.25,13.21l12.76-12.76c-7.87-9.08-16.38-17.58-25.46-25.46Z" style="stroke-width: 0px;"/>
    <path d="M608.07,311.39l1.64-1.64c-3.9-4.53-7.98-8.94-12.25-13.21-4.27-4.27-8.68-8.35-13.21-12.24l-1.64,1.64,25.46,25.46Z" style="stroke-width: 0px;"/>
    <rect x="625.84" y="245.66" width="9" height="36" transform="translate(-1.8 522.96) rotate(-45)" style="stroke-width: 0px;"/>
  </g>
</svg>