<?xml version="1.0" encoding="UTF-8"?>
<svg id="icon" xmlns="http://www.w3.org/2000/svg" viewBox="0 0 864 864">
  <g id="other_copy" data-name="other copy">
    <path d="M684,144H180c-19.88,0-36,16.12-36,36v504c0,19.88,16.12,36,36,36h504c19.88,0,36-16.12,36-36V180c0-19.88-16.12-36-36-36ZM265.72,336c-3.33,5.77-9.38,9-15.61,9-3.05,0-6.15-.78-8.98-2.41-8.61-4.97-11.56-15.98-6.59-24.59,3.33-5.77,9.38-9,15.61-9,3.05,0,6.15.78,8.98,2.41,8.61,4.97,11.56,15.98,6.59,24.59ZM259.13,552.59c-2.83,1.64-5.93,2.41-8.98,2.41-6.22,0-12.27-3.23-15.61-9-4.97-8.61-2.02-19.62,6.59-24.59,2.83-1.64,5.93-2.41,8.98-2.41,6.22,0,12.27,3.23,15.61,9,4.97,8.61,2.02,19.62-6.59,24.59ZM240,432c0,9.94-8.06,18-18,18s-18-8.06-18-18,8.06-18,18-18,18,8.06,18,18ZM311.41,604.87c3.33-5.77,9.38-9,15.61-9,3.05,0,6.15.78,8.98,2.41,8.61,4.97,11.56,15.98,6.59,24.59-3.33,5.77-9.38,9-15.61,9-3.05,0-6.15-.78-8.98-2.41-8.61-4.97-11.56-15.98-6.59-24.59ZM318,234.55c2.83-1.64,5.93-2.41,8.98-2.41,6.22,0,12.27,3.23,15.61,9,4.97,8.61,2.02,19.62-6.59,24.59-2.83,1.64-5.93,2.41-8.98,2.41-6.22,0-12.27-3.23-15.61-9-4.97-8.61-2.02-19.62,6.59-24.59ZM414,639v-207c0-.09.01-.19.01-.28,0-.38.03-.75.06-1.13.02-.23.04-.46.06-.69.04-.34.09-.67.15-1.01.05-.27.09-.53.15-.79.06-.28.14-.56.22-.84.08-.3.16-.6.26-.9.08-.23.17-.46.25-.69.12-.32.24-.64.38-.95.09-.21.2-.42.3-.62.15-.31.31-.62.47-.92.12-.21.25-.42.38-.63.17-.28.34-.55.53-.82.16-.23.33-.45.5-.67.17-.23.34-.45.53-.67.21-.24.42-.47.64-.71.17-.18.34-.37.52-.54.24-.24.5-.46.75-.69.18-.15.35-.31.54-.46.26-.21.53-.41.81-.6.2-.15.4-.29.61-.43.26-.17.52-.32.79-.48.25-.15.5-.29.76-.43.24-.12.48-.23.72-.35.31-.14.62-.29.94-.41.21-.08.43-.16.65-.24.36-.13.71-.24,1.08-.35.09-.03.18-.06.27-.09.14-.04.27-.05.41-.09.35-.08.7-.16,1.05-.23.28-.05.56-.09.84-.13.29-.04.58-.07.87-.1.35-.03.7-.04,1.05-.05.15,0,.29-.02.43-.02.1,0,.19.01.29.01.37,0,.74.03,1.11.06.24.02.48.04.72.06.33.04.66.09.98.15.28.05.55.1.82.16.27.06.54.13.81.21.31.08.62.17.92.27.23.07.45.16.67.24.33.12.65.25.97.39.2.09.4.19.6.29.32.16.63.31.94.48.21.12.41.25.61.37.28.17.56.35.83.53.23.16.44.33.66.5.23.18.46.35.68.54.24.2.47.42.7.64.18.17.37.34.54.52.24.24.46.5.69.76.15.18.31.35.46.53.21.26.41.54.61.81.14.2.29.4.43.61.17.26.33.53.48.8.15.25.29.5.42.75.12.24.24.48.35.73.14.31.28.61.41.93.09.22.16.44.24.66.12.35.24.71.35,1.07.03.09.06.18.09.27l37.27,139.09c2.57,9.6-3.13,19.47-12.73,22.05-1.56.42-3.13.62-4.67.62-7.95,0-15.22-5.3-17.38-13.35l-1.88-7.03v70.28c0,.51-.03,1-.08,1.5.04.5.08.99.08,1.5,0,9.94-8.06,18-18,18s-18-8.06-18-18c0-.51.03-1,.08-1.5-.04-.5-.08-.99-.08-1.5ZM414,222c0-9.94,8.06-18,18-18s18,8.06,18,18-8.06,18-18,18-18-8.06-18-18ZM528,598.28c2.83-1.64,5.93-2.41,8.98-2.41,6.22,0,12.27,3.23,15.61,9,4.97,8.61,2.02,19.62-6.59,24.59-2.83,1.64-5.93,2.41-8.98,2.41-6.22,0-12.27-3.23-15.61-9-4.97-8.61-2.02-19.62,6.59-24.59ZM521.41,241.13c3.33-5.77,9.38-9,15.61-9,3.05,0,6.15.78,8.98,2.41,8.61,4.97,11.56,15.98,6.59,24.59-3.33,5.77-9.38,9-15.61,9-3.05,0-6.15-.78-8.98-2.41-8.61-4.97-11.56-15.98-6.59-24.59ZM598.28,528c3.33-5.77,9.38-9,15.61-9,3.05,0,6.15.78,8.98,2.41,8.61,4.97,11.56,15.98,6.59,24.59-3.33,5.77-9.38,9-15.61,9-3.05,0-6.15-.78-8.98-2.41-8.61-4.97-11.56-15.98-6.59-24.59ZM604.87,311.41c2.83-1.64,5.93-2.41,8.98-2.41,6.22,0,12.27,3.23,15.61,9,4.97,8.61,2.02,19.62-6.59,24.59-2.83,1.64-5.93,2.41-8.98,2.41-6.22,0-12.27-3.23-15.61-9-4.97-8.61-2.02-19.62,6.59-24.59ZM642,450c-9.94,0-18-8.06-18-18s8.06-18,18-18,18,8.06,18,18-8.06,18-18,18Z" style="stroke-width: 0px;"/>
  </g>
</svg>