<?xml version="1.0" encoding="UTF-8"?>
<svg id="icon" xmlns="http://www.w3.org/2000/svg" viewBox="0 0 864 864">
  <g id="other_copy" data-name="other copy">
    <path d="M180,684h504s0-504,0-504H180v504ZM259.13,552.59c-2.83,1.64-5.93,2.41-8.98,2.41-6.22,0-12.27-3.23-15.61-9-4.97-8.61-2.02-19.62,6.59-24.59,2.83-1.64,5.93-2.41,8.98-2.41,6.22,0,12.27,3.23,15.61,9,4.97,8.61,2.02,19.62-6.59,24.59ZM546,629.45c-2.83,1.64-5.93,2.41-8.98,2.41-6.22,0-12.27-3.23-15.6-9-4.97-8.61-2.02-19.62,6.59-24.59,2.83-1.64,5.93-2.41,8.98-2.41,6.22,0,12.27,3.23,15.61,9,4.97,8.61,2.02,19.62-6.59,24.59ZM660,432c0,9.94-8.06,18-18,18s-18-8.06-18-18,8.06-18,18-18,18,8.06,18,18ZM604.87,311.41c2.83-1.64,5.93-2.41,8.98-2.41,6.22,0,12.27,3.23,15.61,9,4.97,8.61,2.02,19.62-6.59,24.59-2.83,1.64-5.93,2.41-8.98,2.41-6.22,0-12.27-3.23-15.61-9-4.97-8.61-2.02-19.62,6.59-24.59ZM598.28,528c3.33-5.77,9.38-9,15.61-9,3.05,0,6.15.78,8.98,2.41,8.61,4.97,11.56,15.98,6.59,24.59-3.33,5.77-9.38,9-15.6,9-3.05,0-6.15-.78-8.98-2.41-8.61-4.97-11.56-15.98-6.59-24.59ZM521.41,241.13c3.33-5.77,9.38-9,15.61-9,3.05,0,6.15.78,8.98,2.41,8.61,4.97,11.56,15.98,6.59,24.59-3.33,5.77-9.38,9-15.6,9-3.05,0-6.15-.78-8.98-2.41-8.61-4.97-11.56-15.98-6.59-24.59ZM414,225c0-.51.03-1,.08-1.5-.04-.5-.08-.99-.08-1.5,0-9.94,8.06-18,18-18s18,8.06,18,18c0,.51-.03,1-.08,1.5.04.5.08.99.08,1.5v189h126c9.94,0,18,8.06,18,18s-8.06,18-18,18h-144c-9.94,0-18-8.06-18-18v-207ZM432,624c9.94,0,18,8.06,18,18s-8.06,18-18,18-18-8.06-18-18,8.06-18,18-18ZM318,234.55c2.83-1.64,5.93-2.41,8.98-2.41,6.22,0,12.27,3.23,15.61,9,4.97,8.61,2.02,19.62-6.59,24.59-2.83,1.64-5.93,2.41-8.98,2.41-6.22,0-12.27-3.23-15.61-9-4.97-8.61-2.02-19.62,6.59-24.59ZM311.41,604.87c3.33-5.77,9.38-9,15.6-9,3.05,0,6.15.78,8.98,2.41,8.61,4.97,11.56,15.98,6.59,24.59-3.33,5.77-9.38,9-15.61,9-3.05,0-6.15-.78-8.98-2.41-8.61-4.97-11.56-15.98-6.59-24.59ZM234.55,318c3.33-5.77,9.38-9,15.61-9,3.05,0,6.15.78,8.98,2.41,8.61,4.97,11.56,15.98,6.59,24.59-3.33,5.77-9.38,9-15.61,9-3.05,0-6.15-.78-8.98-2.41-8.61-4.97-11.56-15.98-6.59-24.59ZM222,414c9.94,0,18,8.06,18,18s-8.06,18-18,18-18-8.06-18-18,8.06-18,18-18Z" style="fill: none; stroke-width: 0px;"/>
    <path d="M684,144H180c-19.88,0-36,16.12-36,36v504c0,19.88,16.12,36,36,36h504c19.88,0,36-16.12,36-36V180c0-19.88-16.12-36-36-36ZM684,684H180s0-504,0-504h504v504Z" style="stroke-width: 0px;"/>
    <circle cx="432" cy="642" r="18" style="stroke-width: 0px;"/>
    <path d="M432,207c9.43,0,17.16,7.26,17.92,16.5.04-.5.08-.99.08-1.5,0-9.94-8.06-18-18-18s-18,8.06-18,18c0,.51.03,1,.08,1.5.76-9.24,8.49-16.5,17.92-16.5Z" style="stroke-width: 0px;"/>
    <circle cx="642" cy="432" r="18" style="stroke-width: 0px;"/>
    <circle cx="222" cy="432" r="18" style="stroke-width: 0px;"/>
    <path d="M318,629.45c2.83,1.64,5.93,2.41,8.98,2.41,6.22,0,12.27-3.23,15.61-9,4.97-8.61,2.02-19.62-6.59-24.59-2.83-1.64-5.93-2.41-8.98-2.41-6.22,0-12.27,3.23-15.6,9-4.97,8.61-2.02,19.62,6.59,24.59Z" style="stroke-width: 0px;"/>
    <path d="M528,265.72c2.83,1.64,5.93,2.41,8.98,2.41,6.22,0,12.27-3.23,15.6-9,4.97-8.61,2.02-19.62-6.59-24.59-2.83-1.64-5.93-2.41-8.98-2.41-6.22,0-12.27,3.23-15.61,9-4.97,8.61-2.02,19.62,6.59,24.59Z" style="stroke-width: 0px;"/>
    <path d="M604.87,552.59c2.83,1.64,5.93,2.41,8.98,2.41,6.22,0,12.27-3.23,15.6-9,4.97-8.61,2.02-19.62-6.59-24.59-2.83-1.64-5.93-2.41-8.98-2.41-6.22,0-12.27,3.23-15.61,9-4.97,8.61-2.02,19.62,6.59,24.59Z" style="stroke-width: 0px;"/>
    <path d="M241.13,342.59c2.83,1.64,5.93,2.41,8.98,2.41,6.22,0,12.27-3.23,15.61-9,4.97-8.61,2.02-19.62-6.59-24.59-2.83-1.64-5.93-2.41-8.98-2.41-6.22,0-12.27,3.23-15.61,9-4.97,8.61-2.02,19.62,6.59,24.59Z" style="stroke-width: 0px;"/>
    <path d="M250.12,519c-3.05,0-6.15.78-8.98,2.41-8.61,4.97-11.56,15.98-6.59,24.59,3.33,5.77,9.38,9,15.61,9,3.05,0,6.15-.78,8.98-2.41,8.61-4.97,11.56-15.98,6.59-24.59-3.33-5.77-9.38-9-15.61-9Z" style="stroke-width: 0px;"/>
    <path d="M613.88,345c3.05,0,6.15-.78,8.98-2.41,8.61-4.97,11.56-15.98,6.59-24.59-3.33-5.77-9.38-9-15.61-9-3.05,0-6.15.78-8.98,2.41-8.61,4.97-11.56,15.98-6.59,24.59,3.33,5.77,9.38,9,15.61,9Z" style="stroke-width: 0px;"/>
    <path d="M536.98,595.86c-3.05,0-6.15.78-8.98,2.41-8.61,4.97-11.56,15.98-6.59,24.59,3.33,5.77,9.38,9,15.6,9,3.05,0,6.15-.78,8.98-2.41,8.61-4.97,11.56-15.98,6.59-24.59-3.33-5.77-9.38-9-15.61-9Z" style="stroke-width: 0px;"/>
    <path d="M327.02,268.14c3.05,0,6.15-.78,8.98-2.41,8.61-4.97,11.56-15.98,6.59-24.59-3.33-5.77-9.38-9-15.61-9-3.05,0-6.15.78-8.98,2.41-8.61,4.97-11.56,15.98-6.59,24.59,3.33,5.77,9.38,9,15.61,9Z" style="stroke-width: 0px;"/>
    <path d="M432,414h18v-189c0-.51-.03-1-.08-1.5-.76,9.24-8.49,16.5-17.92,16.5s-17.16-7.26-17.92-16.5c-.04.5-.08.99-.08,1.5v207c0-9.94,8.06-18,18-18Z" style="stroke-width: 0px;"/>
    <path d="M432,240c9.43,0,17.16-7.26,17.92-16.5-.76-9.24-8.49-16.5-17.92-16.5s-17.16,7.26-17.92,16.5c.76,9.24,8.49,16.5,17.92,16.5Z" style="stroke-width: 0px;"/>
    <path d="M432,450h144c9.94,0,18-8.06,18-18s-8.06-18-18-18h-126v18c0,9.94-8.06,18-18,18Z" style="stroke-width: 0px;"/>
    <path d="M432,450c9.94,0,18-8.06,18-18v-18h-18c-9.94,0-18,8.06-18,18s8.06,18,18,18Z" style="stroke-width: 0px;"/>
  </g>
</svg>