<?xml version="1.0" encoding="UTF-8"?>
<svg id="icon" xmlns="http://www.w3.org/2000/svg" viewBox="0 0 864 864">
  <g id="other_copy" data-name="other copy">
    <path d="M432,144c-159.06,0-288,128.94-288,288s128.94,288,288,288,288-128.94,288-288-128.94-288-288-288ZM450,630c0,9.94-8.06,18-18,18s-18-8.06-18-18v-190.54l-96.55-96.55c-7.03-7.03-7.03-18.43,0-25.46,7.03-7.03,18.43-7.03,25.46,0l101.82,101.82c.42.42.82.86,1.2,1.32.17.2.31.42.47.63.2.26.4.51.58.78.17.26.32.52.48.78.14.24.29.48.43.72.14.27.27.55.4.82.12.26.25.51.36.77.11.27.2.54.3.82.1.28.21.56.29.85.08.28.14.55.21.83.07.29.15.58.21.88.06.32.1.65.15.98.04.25.08.5.11.76.06.59.09,1.19.09,1.78v197.99Z" style="stroke-width: 0px;"/>
  </g>
</svg>