<?xml version="1.0" encoding="UTF-8"?>
<svg id="icon" xmlns="http://www.w3.org/2000/svg" viewBox="0 0 864 864">
  <g id="other_copy" data-name="other copy">
    <path d="M432,720c159.06,0,288-128.94,288-288s-128.94-288-288-288S144,272.94,144,432s128.94,288,288,288ZM414,432h0c0-.59.03-1.19.09-1.78.03-.27.08-.52.11-.79.05-.32.08-.64.15-.95.06-.3.14-.59.22-.89.07-.27.13-.55.21-.82.09-.29.2-.57.3-.85.1-.27.19-.55.3-.82.11-.26.24-.51.36-.77.13-.28.25-.56.4-.83.13-.24.28-.48.42-.72.16-.27.31-.54.48-.79.18-.26.37-.51.56-.76.16-.22.32-.44.49-.66.36-.44.74-.86,1.14-1.26.02-.02.03-.04.05-.06l101.82-101.82c7.03-7.03,18.43-7.03,25.46,0,7.03,7.03,7.03,18.43,0,25.46l-96.55,96.55v190.54c0,9.94-8.06,18-18,18s-18-8.06-18-18v-198Z" style="stroke-width: 0px;"/>
  </g>
</svg>