<?xml version="1.0" encoding="UTF-8"?>
<svg id="icon" xmlns="http://www.w3.org/2000/svg" viewBox="0 0 864 864">
  <g id="other_copy" data-name="other copy">
    <path d="M347.93,196.96c-25.72,10.88-48.82,26.46-68.67,46.31-19.85,19.85-35.43,42.95-46.31,68.67-11.25,26.61-16.96,54.89-16.96,84.07s5.71,57.46,16.96,84.07c10.88,25.72,26.46,48.82,46.31,68.67,19.85,19.85,42.95,35.43,68.67,46.31,26.61,11.25,54.89,16.96,84.07,16.96s57.46-5.71,84.07-16.96c25.72-10.88,48.82-26.46,68.67-46.31,19.85-19.85,35.43-42.95,46.31-68.67,11.25-26.61,16.96-54.89,16.96-84.07s-5.71-57.46-16.96-84.07c-10.88-25.72-26.46-48.82-46.31-68.67-19.85-19.85-42.95-35.43-68.67-46.31-26.61-11.25-54.89-16.96-84.07-16.96s-57.46,5.71-84.07,16.96ZM450,222.75v165.79l83.82,83.82c7.03,7.03,7.03,18.43,0,25.46-3.51,3.51-8.12,5.27-12.73,5.27s-9.21-1.76-12.73-5.27l-89.09-89.09c-.42-.42-.82-.86-1.2-1.32-.17-.2-.31-.41-.46-.62-.2-.26-.4-.52-.58-.79-.17-.25-.31-.51-.47-.77-.15-.25-.3-.49-.44-.74-.14-.27-.26-.54-.39-.81-.12-.26-.25-.52-.37-.79-.11-.26-.2-.53-.29-.8-.1-.29-.21-.57-.3-.86-.08-.27-.14-.54-.21-.81-.08-.3-.16-.59-.22-.9-.06-.31-.1-.63-.14-.95-.04-.27-.09-.53-.11-.79-.06-.59-.09-1.18-.09-1.78v-173.25c0-9.94,8.06-18,18-18s18,8.06,18,18Z" style="stroke-width: 0px;"/>
    <path d="M180,396c0,139.18,112.82,252,252,252s252-112.82,252-252-112.82-252-252-252-252,112.82-252,252ZM666,396c0,62.5-24.34,121.27-68.54,165.46-44.2,44.2-102.96,68.54-165.46,68.54s-121.27-24.34-165.46-68.54c-44.2-44.2-68.54-102.96-68.54-165.46s24.34-121.27,68.54-165.46c44.2-44.2,102.96-68.54,165.46-68.54s121.27,24.34,165.46,68.54c44.2,44.2,68.54,102.96,68.54,165.46Z" style="stroke-width: 0px;"/>
    <path d="M266.54,230.54c-44.2,44.2-68.54,102.96-68.54,165.46s24.34,121.27,68.54,165.46c44.2,44.2,102.96,68.54,165.46,68.54s121.27-24.34,165.46-68.54c44.2-44.2,68.54-102.96,68.54-165.46s-24.34-121.27-68.54-165.46c-44.2-44.2-102.96-68.54-165.46-68.54s-121.27,24.34-165.46,68.54ZM584.74,243.26c19.85,19.85,35.43,42.95,46.31,68.67,11.25,26.61,16.96,54.89,16.96,84.07s-5.71,57.46-16.96,84.07c-10.88,25.72-26.46,48.82-46.31,68.67-19.85,19.85-42.95,35.43-68.67,46.31-26.61,11.25-54.89,16.96-84.07,16.96s-57.46-5.71-84.07-16.96c-25.72-10.88-48.82-26.46-68.67-46.31-19.85-19.85-35.43-42.95-46.31-68.67-11.25-26.61-16.96-54.89-16.96-84.07s5.71-57.46,16.96-84.07c10.88-25.72,26.46-48.82,46.31-68.67,19.85-19.85,42.95-35.43,68.67-46.31,26.61-11.25,54.89-16.96,84.07-16.96s57.46,5.71,84.07,16.96c25.72,10.88,48.82,26.46,68.67,46.31Z" style="stroke-width: 0px;"/>
    <path d="M218.45,609.55c-15.3-15.3-28.78-31.99-40.35-49.92-1.39,5.28-2.1,10.77-2.1,16.37v112s178.61,0,178.61,0c-13.65-3.61-27.06-8.2-40.18-13.75-35.97-15.21-68.26-36.98-95.98-64.7Z" style="stroke-width: 0px;"/>
    <path d="M685.9,559.63c-11.57,17.93-25.05,34.62-40.35,49.92-27.72,27.72-60.01,49.49-95.98,64.7-13.13,5.55-26.54,10.14-40.18,13.75h178.62s0-112,0-112c0-5.61-.72-11.1-2.1-16.37Z" style="stroke-width: 0px;"/>
    <path d="M681.54,499.22c-.26.63-.5,1.25-.77,1.88-13.6,32.15-33.07,61.03-57.86,85.82-24.79,24.79-53.66,44.26-85.82,57.86-33.3,14.08-68.66,21.23-105.1,21.23s-71.8-7.14-105.1-21.23c-32.15-13.6-61.03-33.07-85.82-57.86-24.79-24.79-44.26-53.66-57.86-85.82-.27-.64-.52-1.28-.79-1.92-3.61,2.72-7.07,5.69-10.32,8.94-18.13,18.13-28.12,42.24-28.12,67.88v144s576,0,576,0v-144c0-31.36-15.13-59.25-38.46-76.78ZM160,704v-128c0-18.29,6.09-35.63,17.32-49.73,13.57,26.53,31.15,50.67,52.45,71.96,26.25,26.25,56.84,46.87,90.9,61.28,35.28,14.92,72.74,22.49,111.33,22.49s76.05-7.57,111.33-22.49c34.06-14.41,64.64-35.03,90.9-61.28,21.29-21.29,38.87-45.42,52.44-71.94,11.17,13.98,17.33,31.31,17.33,49.71v128s-544,0-544,0Z" style="stroke-width: 0px;"/>
    <path d="M686.67,526.29c-13.57,26.52-31.15,50.66-52.44,71.94-26.25,26.25-56.84,46.87-90.9,61.28-35.28,14.92-72.74,22.49-111.33,22.49s-76.05-7.57-111.33-22.49c-34.06-14.41-64.64-35.03-90.9-61.28-21.29-21.29-38.88-45.43-52.45-71.96-11.23,14.09-17.32,31.44-17.32,49.73v128s544,0,544,0v-128c0-18.4-6.16-35.74-17.33-49.71ZM176,688v-112c0-5.6.72-11.09,2.1-16.37,11.57,17.93,25.05,34.62,40.35,49.92,27.72,27.72,60.01,49.49,95.98,64.7,13.13,5.55,26.54,10.14,40.18,13.75h-178.61ZM509.38,688c13.65-3.61,27.06-8.2,40.18-13.75,35.97-15.21,68.26-36.98,95.98-64.7,15.3-15.3,28.78-31.99,40.35-49.92,1.39,5.27,2.1,10.76,2.1,16.37v112s-178.62,0-178.62,0Z" style="stroke-width: 0px;"/>
  </g>
</svg>