<?xml version="1.0" encoding="UTF-8"?>
<svg id="icon" xmlns="http://www.w3.org/2000/svg" viewBox="0 0 864 864">
  <g id="other_copy" data-name="other copy">
    <path d="M530.08,199.79c-31.04-13.13-64.04-19.79-98.08-19.79s-67.03,6.66-98.08,19.79c-30,12.69-56.96,30.87-80.11,54.02-23.15,23.15-41.33,50.11-54.02,80.11-13.13,31.04-19.79,64.04-19.79,98.08s6.66,67.03,19.79,98.08c12.69,30,30.87,56.96,54.02,80.11,23.15,23.16,50.11,41.33,80.11,54.02,31.04,13.13,64.04,19.79,98.08,19.79s67.03-6.66,98.08-19.79c30-12.69,56.96-30.87,80.11-54.02,23.15-23.15,41.33-50.11,54.02-80.11,13.13-31.04,19.79-64.04,19.79-98.08s-6.66-67.03-19.79-98.08c-12.69-30-30.87-56.96-54.02-80.11-23.15-23.16-50.11-41.33-80.11-54.02ZM450,630c0,9.94-8.06,18-18,18s-18-8.06-18-18v-184.19l-125.75-33.69c-9.6-2.57-15.3-12.44-12.73-22.05,2.57-9.6,12.45-15.3,22.04-12.73l139.09,37.27c.09.02.17.06.26.09.37.1.73.22,1.08.35.22.08.43.15.65.24.32.13.63.27.95.41.24.11.48.22.71.34.26.14.51.28.77.43.26.15.53.31.78.48.21.14.42.29.62.44.27.2.54.39.8.6.19.15.36.31.54.47.25.22.51.44.75.68.18.18.35.36.52.55.22.23.43.46.64.7.19.22.36.45.53.68.17.22.34.44.5.67.18.27.35.54.52.82.13.21.26.41.38.63.17.3.32.61.47.92.1.21.21.41.3.63.14.31.26.63.38.94.09.23.18.46.26.7.1.29.18.59.26.89.08.28.15.56.22.84.06.26.1.52.15.79.06.34.12.67.16,1.02.03.23.04.46.06.69.03.38.05.76.06,1.14,0,.09.01.18.01.28v198Z" style="fill: none; stroke-width: 0px;"/>
    <path d="M432,144c-159.06,0-288,128.94-288,288s128.94,288,288,288,288-128.94,288-288-128.94-288-288-288ZM684,432c0,34.04-6.66,67.03-19.79,98.08-12.69,30-30.87,56.96-54.02,80.11-23.15,23.16-50.11,41.33-80.11,54.02-31.04,13.13-64.04,19.79-98.08,19.79s-67.03-6.66-98.08-19.79c-30-12.69-56.96-30.87-80.11-54.02-23.15-23.15-41.33-50.11-54.02-80.11-13.13-31.04-19.79-64.04-19.79-98.08s6.66-67.03,19.79-98.08c12.69-30,30.87-56.96,54.02-80.11,23.15-23.16,50.11-41.33,80.11-54.02,31.04-13.13,64.04-19.79,98.08-19.79s67.03,6.66,98.08,19.79c30,12.69,56.96,30.87,80.11,54.02,23.15,23.15,41.33,50.11,54.02,80.11,13.13,31.04,19.79,64.04,19.79,98.08Z" style="stroke-width: 0px;"/>
    <path d="M445.74,420.38c.19.22.36.45.53.68-.18-.23-.35-.46-.53-.68Z" style="stroke-width: 0px;"/>
    <path d="M446.77,421.73c.18.27.35.54.52.82-.17-.28-.34-.55-.52-.82Z" style="stroke-width: 0px;"/>
    <path d="M447.68,423.17c.17.3.32.61.47.92-.15-.31-.3-.62-.47-.92Z" style="stroke-width: 0px;"/>
    <path d="M449.09,426.36c.1.29.18.59.26.89-.08-.3-.16-.6-.26-.89Z" style="stroke-width: 0px;"/>
    <path d="M449.39,436.66c-2.15,8.04-9.43,13.35-17.38,13.35-1.54,0-3.11-.2-4.67-.62l-13.34-3.57v184.19c0,9.94,8.06,18,18,18s18-8.06,18-18v-198c0-.09-.01-.18-.01-.28.02,1.63-.16,3.29-.6,4.94Z" style="stroke-width: 0px;"/>
    <path d="M449.56,428.1c.06.26.1.52.15.79-.05-.26-.09-.53-.15-.79Z" style="stroke-width: 0px;"/>
    <path d="M448.45,424.72c.14.31.26.63.38.94-.12-.32-.24-.63-.38-.94Z" style="stroke-width: 0px;"/>
    <path d="M440.31,416.04c.26.14.52.29.77.43-.25-.15-.51-.3-.77-.43Z" style="stroke-width: 0px;"/>
    <path d="M438.65,415.29c.32.13.63.27.95.41-.31-.15-.62-.29-.95-.41Z" style="stroke-width: 0px;"/>
    <path d="M444.58,419.14c.18.18.35.36.52.55-.17-.18-.34-.37-.52-.55Z" style="stroke-width: 0px;"/>
    <path d="M436.92,414.7c.37.1.73.22,1.08.35-.36-.13-.72-.25-1.08-.35Z" style="stroke-width: 0px;"/>
    <path d="M443.29,417.99c.19.15.36.31.54.47-.18-.16-.36-.32-.54-.47Z" style="stroke-width: 0px;"/>
    <path d="M441.87,416.95c.21.14.42.29.62.44-.21-.15-.41-.3-.62-.44Z" style="stroke-width: 0px;"/>
    <path d="M449.87,429.9c.03.23.04.46.06.69-.02-.23-.04-.46-.06-.69Z" style="stroke-width: 0px;"/>
    <path d="M443.83,418.46c.25.22.51.44.75.68-.24-.24-.49-.46-.75-.68Z" style="stroke-width: 0px;"/>
    <path d="M442.49,417.39c.27.2.54.39.8.6-.26-.21-.53-.4-.8-.6Z" style="stroke-width: 0px;"/>
    <path d="M441.08,416.48c.26.15.53.31.78.48-.25-.17-.52-.32-.78-.48Z" style="stroke-width: 0px;"/>
    <path d="M439.6,415.7c.24.11.48.22.71.34-.23-.12-.47-.23-.71-.34Z" style="stroke-width: 0px;"/>
    <path d="M438.01,415.05c.22.08.43.15.65.24-.21-.08-.43-.16-.65-.24Z" style="stroke-width: 0px;"/>
    <path d="M445.1,419.68c.22.23.43.46.64.7-.2-.24-.42-.47-.64-.7Z" style="stroke-width: 0px;"/>
    <path d="M448.15,424.09c.1.21.21.41.3.63-.09-.21-.2-.42-.3-.63Z" style="stroke-width: 0px;"/>
    <path d="M449.71,428.88c.06.34.12.67.16,1.02-.04-.34-.1-.68-.16-1.02Z" style="stroke-width: 0px;"/>
    <path d="M432,414c1.71,0,3.36.25,4.92.7-.09-.03-.17-.06-.26-.09l-139.09-37.27c-9.6-2.57-19.47,3.12-22.04,12.73-2.57,9.6,3.13,19.47,12.73,22.05l125.75,33.69v-13.81c0-9.94,8.06-18,18-18Z" style="stroke-width: 0px;"/>
    <path d="M449.35,427.25c.08.28.15.56.22.84-.06-.28-.14-.56-.22-.84Z" style="stroke-width: 0px;"/>
    <path d="M449.93,430.59c.03.38.05.75.06,1.14,0-.38-.03-.76-.06-1.14Z" style="stroke-width: 0px;"/>
    <path d="M447.3,422.55c.13.21.26.41.38.63-.12-.21-.25-.42-.38-.63Z" style="stroke-width: 0px;"/>
    <path d="M446.27,421.06c.17.22.34.44.5.67-.16-.23-.33-.45-.5-.67Z" style="stroke-width: 0px;"/>
    <path d="M448.83,425.66c.09.23.18.46.26.7-.08-.24-.17-.47-.26-.7Z" style="stroke-width: 0px;"/>
    <path d="M432.01,450c7.95,0,15.22-5.3,17.38-13.35.44-1.65.62-3.31.6-4.94,0-.38-.03-.76-.06-1.14-.02-.23-.03-.46-.06-.69-.04-.34-.1-.68-.16-1.02-.05-.26-.09-.53-.15-.79-.06-.28-.14-.56-.22-.84-.08-.3-.16-.6-.26-.89-.08-.24-.17-.47-.26-.7-.12-.32-.24-.63-.38-.94-.09-.21-.2-.42-.3-.63-.15-.31-.3-.62-.47-.92-.12-.21-.25-.42-.38-.63-.17-.28-.34-.55-.52-.82-.16-.23-.33-.45-.5-.67-.17-.23-.35-.46-.53-.68-.2-.24-.42-.47-.64-.7-.17-.18-.34-.37-.52-.55-.24-.24-.49-.46-.75-.68-.18-.16-.36-.32-.54-.47-.26-.21-.53-.4-.8-.6-.21-.15-.41-.3-.62-.44-.25-.17-.52-.32-.78-.48-.25-.15-.51-.3-.77-.43-.23-.12-.47-.23-.71-.34-.31-.14-.62-.29-.95-.41-.21-.08-.43-.16-.65-.24-.36-.13-.72-.25-1.08-.35-1.57-.45-3.21-.7-4.92-.7-9.94,0-18,8.06-18,18v13.81l13.34,3.57c1.56.42,3.13.62,4.67.62Z" style="stroke-width: 0px;"/>
  </g>
</svg>