<?xml version="1.0" encoding="UTF-8"?>
<svg id="icon" xmlns="http://www.w3.org/2000/svg" viewBox="0 0 864 864">
  <g id="other_copy" data-name="other copy">
    <path d="M516.07,268.96c-26.61-11.25-54.89-16.96-84.07-16.96s-57.46,5.71-84.07,16.96c-25.72,10.88-48.82,26.46-68.67,46.31-19.85,19.85-35.43,42.95-46.31,68.67-11.25,26.61-16.96,54.89-16.96,84.07s5.71,57.46,16.96,84.07c10.88,25.72,26.46,48.82,46.31,68.67,19.85,19.85,42.95,35.43,68.67,46.31,26.61,11.25,54.89,16.96,84.07,16.96s57.46-5.71,84.07-16.96c25.72-10.88,48.82-26.46,68.67-46.31,19.85-19.85,35.43-42.95,46.31-68.67,11.25-26.61,16.96-54.89,16.96-84.07s-5.71-57.46-16.96-84.07c-10.88-25.72-26.46-48.82-46.31-68.67-19.85-19.85-42.95-35.43-68.67-46.31ZM534.73,570.73c-3.51,3.51-8.12,5.27-12.73,5.27s-9.21-1.76-12.73-5.27l-84.73-84.73h-119.82c-9.94,0-18-8.06-18-18s8.06-18,18-18h127.28c.06,0,.12,0,.18,0,.53,0,1.06.03,1.59.08.29.03.57.08.85.12.3.04.59.08.89.14.32.06.63.15.94.23.26.07.52.12.77.2.3.09.6.21.89.31.26.09.52.18.77.28.28.12.55.25.82.38.26.12.52.24.78.38.26.14.51.3.77.45.25.15.5.29.75.45.28.19.55.4.83.61.2.15.4.28.59.44.46.38.91.78,1.33,1.2l89.99,89.99c7.03,7.03,7.03,18.43,0,25.46Z" style="fill: none; stroke-width: 0px;"/>
    <path d="M582.61,291.93l14.4-14.4c-34.18-29.64-76.43-50.22-123.01-58.03v8.5h-84v-8.5c-119.18,20-210,123.63-210,248.5,0,139.18,112.82,252,252,252s252-112.82,252-252c0-63.11-23.2-120.8-61.53-165.01l-14.4,14.4-25.46-25.46ZM648,468c0,29.18-5.71,57.46-16.96,84.07-10.88,25.72-26.46,48.82-46.31,68.67-19.85,19.85-42.95,35.43-68.67,46.31-26.61,11.25-54.89,16.96-84.07,16.96s-57.46-5.71-84.07-16.96c-25.72-10.88-48.82-26.46-68.67-46.31-19.85-19.85-35.43-42.95-46.31-68.67-11.25-26.61-16.96-54.89-16.96-84.07s5.71-57.46,16.96-84.07c10.88-25.72,26.46-48.82,46.31-68.67,19.85-19.85,42.95-35.43,68.67-46.31,26.61-11.25,54.89-16.96,84.07-16.96s57.46,5.71,84.07,16.96c25.72,10.88,48.82,26.46,68.67,46.31,19.85,19.85,35.43,42.95,46.31,68.67,11.25,26.61,16.96,54.89,16.96,84.07Z" style="stroke-width: 0px;"/>
    <path d="M480,192c9.94,0,18-8.06,18-18s-8.06-18-18-18h-96c-9.94,0-18,8.06-18,18s8.06,18,18,18h96Z" style="stroke-width: 0px;"/>
    <path d="M474,219.5v-27.5h-84v27.5c13.66-2.29,27.69-3.5,42-3.5s28.34,1.21,42,3.5Z" style="stroke-width: 0px;"/>
    <path d="M474,228v-8.5c-13.66-2.29-27.69-3.5-42-3.5s-28.34,1.21-42,3.5v8.5h84Z" style="stroke-width: 0px;"/>
    <path d="M618.68,213.44c-7.03-7.03-18.43-7.03-25.46,0-7.03,7.03-7.03,18.43,0,25.46l21.21,21.21,6.36-6.36,25.46,25.46-6.36,6.36,21.21,21.21c3.52,3.52,8.12,5.27,12.73,5.27s9.21-1.76,12.73-5.27c7.03-7.03,7.03-18.43,0-25.46l-67.88-67.88Z" style="stroke-width: 0px;"/>
    <path d="M597.01,277.53c9.08,7.87,17.59,16.38,25.46,25.46l17.42-17.42-25.46-25.46-17.42,17.42Z" style="stroke-width: 0px;"/>
    <path d="M597.01,277.53l-14.4,14.4,25.46,25.46,14.4-14.4c-7.87-9.08-16.38-17.58-25.46-25.46Z" style="stroke-width: 0px;"/>
    <rect x="625.84" y="251.66" width="9" height="36" transform="translate(-6.04 524.72) rotate(-45)" style="stroke-width: 0px;"/>
    <path d="M441.24,452.58c.25.15.5.29.75.45-.24-.16-.5-.3-.75-.45Z" style="stroke-width: 0px;"/>
    <path d="M444.73,455.28c3.25,3.26,5.27,7.75,5.27,12.72,0,9.94-8.06,18-18,18h-7.46l84.73,84.73c3.51,3.51,8.12,5.27,12.73,5.27s9.21-1.76,12.73-5.27c7.03-7.03,7.03-18.43,0-25.46l-89.99-89.99Z" style="stroke-width: 0px;"/>
    <path d="M442.82,453.64c.2.15.4.28.59.44-.19-.16-.39-.29-.59-.44Z" style="stroke-width: 0px;"/>
    <path d="M439.7,451.75c.26.12.53.24.78.38-.26-.14-.52-.25-.78-.38Z" style="stroke-width: 0px;"/>
    <path d="M434.62,450.21c.3.04.6.08.89.14-.29-.06-.59-.09-.89-.14Z" style="stroke-width: 0px;"/>
    <path d="M436.45,450.58c.26.07.52.12.77.2-.25-.08-.51-.13-.77-.2Z" style="stroke-width: 0px;"/>
    <path d="M438.11,451.09c.26.09.52.18.77.28-.25-.1-.51-.19-.77-.28Z" style="stroke-width: 0px;"/>
    <path d="M432.18,450.01c.54,0,1.07.03,1.59.08-.53-.05-1.06-.08-1.59-.08Z" style="stroke-width: 0px;"/>
    <path d="M437.22,450.77c.3.09.6.21.89.31-.3-.11-.59-.22-.89-.31Z" style="stroke-width: 0px;"/>
    <path d="M441.99,453.03c.28.19.55.4.83.61-.27-.21-.54-.42-.83-.61Z" style="stroke-width: 0px;"/>
    <path d="M440.48,452.12c.26.14.51.3.77.45-.25-.15-.5-.31-.77-.45Z" style="stroke-width: 0px;"/>
    <path d="M433.77,450.09c.29.03.57.08.85.12-.28-.04-.57-.1-.85-.12Z" style="stroke-width: 0px;"/>
    <path d="M438.88,451.37c.28.11.54.25.82.38-.27-.13-.54-.26-.82-.38Z" style="stroke-width: 0px;"/>
    <path d="M444.73,455.28c-.42-.42-.87-.82-1.33-1.2.46.37.9.77,1.32,1.2h0Z" style="stroke-width: 0px;"/>
    <path d="M419.27,455.27c3.56-3.56,8.24-5.31,12.9-5.26-.06,0-.12,0-.18,0h-127.28c-9.94,0-18,8.06-18,18s8.06,18,18,18h119.82l-5.27-5.27c-7.03-7.03-7.03-18.43,0-25.46Z" style="stroke-width: 0px;"/>
    <path d="M435.51,450.35c.31.06.62.15.94.23-.31-.08-.62-.17-.94-.23Z" style="stroke-width: 0px;"/>
    <path d="M450,468c0-4.97-2.01-9.46-5.27-12.72h0c-.43-.43-.87-.83-1.32-1.2-.19-.15-.39-.29-.59-.44-.27-.21-.54-.42-.83-.61-.24-.16-.5-.3-.75-.45-.25-.15-.51-.31-.77-.45-.25-.14-.52-.25-.78-.38-.27-.13-.54-.26-.82-.38-.25-.1-.51-.19-.77-.28-.3-.11-.59-.22-.89-.31-.25-.08-.51-.13-.77-.2-.31-.08-.62-.17-.94-.23-.29-.06-.59-.09-.89-.14-.28-.04-.57-.1-.85-.12-.52-.05-1.06-.08-1.59-.08-4.67-.05-9.34,1.7-12.9,5.26-7.03,7.03-7.03,18.43,0,25.46l5.27,5.27h7.46c9.94,0,18-8.06,18-18Z" style="stroke-width: 0px;"/>
  </g>
</svg>