<?xml version="1.0" encoding="UTF-8"?>
<svg id="icon" xmlns="http://www.w3.org/2000/svg" viewBox="0 0 864 864">
  <g id="other_copy" data-name="other copy">
    <path d="M180,684h504s0-504,0-504H180v504ZM259.13,552.59c-2.83,1.64-5.93,2.41-8.98,2.41-6.22,0-12.27-3.23-15.6-9-4.97-8.61-2.02-19.62,6.59-24.59,2.83-1.64,5.93-2.41,8.98-2.41,6.22,0,12.27,3.23,15.6,9,4.97,8.61,2.02,19.62-6.59,24.59ZM342.59,622.87c-3.33,5.77-9.38,9-15.6,9-3.05,0-6.15-.78-8.98-2.41-8.61-4.97-11.56-15.98-6.59-24.59,3.33-5.77,9.38-9,15.6-9,3.05,0,6.15.78,8.98,2.41,8.61,4.97,11.56,15.98,6.59,24.59ZM432,660c-9.94,0-18-8.06-18-18s8.06-18,18-18,18,8.06,18,18-8.06,18-18,18ZM660,432c0,9.94-8.06,18-18,18s-18-8.06-18-18,8.06-18,18-18,18,8.06,18,18ZM604.87,311.41c2.83-1.64,5.93-2.41,8.98-2.41,6.22,0,12.27,3.23,15.6,9,4.97,8.61,2.02,19.62-6.59,24.59-2.83,1.64-5.93,2.41-8.98,2.41-6.22,0-12.27-3.23-15.6-9-4.97-8.61-2.02-19.62,6.59-24.59ZM598.28,528c3.33-5.77,9.38-9,15.6-9,3.05,0,6.15.78,8.98,2.41,8.61,4.97,11.56,15.98,6.59,24.59-3.33,5.77-9.38,9-15.6,9-3.05,0-6.15-.78-8.98-2.41-8.61-4.97-11.56-15.98-6.59-24.59ZM521.41,241.13c3.33-5.77,9.38-9,15.6-9,3.05,0,6.15.78,8.98,2.41,8.61,4.97,11.56,15.98,6.59,24.59-3.33,5.77-9.38,9-15.6,9-3.05,0-6.15-.78-8.98-2.41-8.61-4.97-11.56-15.98-6.59-24.59ZM528,598.28c2.83-1.64,5.93-2.41,8.98-2.41,6.22,0,12.27,3.23,15.61,9,4.97,8.61,2.02,19.62-6.59,24.59-2.83,1.64-5.93,2.41-8.98,2.41-6.22,0-12.27-3.23-15.6-9-4.97-8.61-2.02-19.62,6.59-24.59ZM318,234.55c2.83-1.64,5.93-2.41,8.98-2.41,6.22,0,12.27,3.23,15.6,9,4.97,8.61,2.02,19.62-6.59,24.59-2.83,1.64-5.93,2.41-8.98,2.41-6.22,0-12.27-3.23-15.61-9-4.97-8.61-2.02-19.62,6.59-24.59ZM298.29,488.41l115.71-66.8v-196.61c0-.51.03-1,.08-1.5-.04-.5-.08-.99-.08-1.5,0-9.94,8.06-18,18-18s18,8.06,18,18c0,.51-.03,1-.08,1.5.04.5.08.99.08,1.5v207c0,.17-.02.33-.02.49-.01.36-.02.72-.05,1.07-.02.28-.06.56-.1.84-.04.29-.08.58-.13.86-.06.32-.13.64-.21.95-.06.24-.12.48-.18.72-.09.33-.2.66-.31.98-.08.23-.16.45-.25.67-.12.31-.25.61-.39.91-.11.24-.22.47-.34.71-.14.27-.28.53-.43.79-.15.26-.3.51-.46.77-.14.22-.29.43-.44.65-.19.27-.39.53-.59.79-.15.19-.3.37-.46.55-.22.26-.45.51-.69.76-.17.18-.35.35-.53.52-.24.22-.47.44-.72.66-.22.19-.45.37-.68.55-.22.17-.44.34-.67.5-.29.21-.6.4-.91.59-.14.09-.27.18-.41.27l-124.71,72c-2.83,1.64-5.93,2.41-8.98,2.41-6.22,0-12.27-3.23-15.61-9-4.97-8.61-2.02-19.62,6.59-24.59ZM234.55,318c3.33-5.77,9.38-9,15.6-9,3.05,0,6.15.78,8.98,2.41,8.61,4.97,11.56,15.98,6.59,24.59-3.33,5.77-9.38,9-15.6,9-3.05,0-6.15-.78-8.98-2.41-8.61-4.97-11.56-15.98-6.59-24.59ZM222,414c9.94,0,18,8.06,18,18s-8.06,18-18,18-18-8.06-18-18,8.06-18,18-18Z" style="fill: none; stroke-width: 0px;"/>
    <path d="M684,144H180c-19.88,0-36,16.12-36,36v504c0,19.88,16.12,36,36,36h504c19.88,0,36-16.12,36-36V180c0-19.88-16.12-36-36-36ZM684,684H180s0-504,0-504h504v504Z" style="stroke-width: 0px;"/>
    <circle cx="432" cy="642" r="18" style="stroke-width: 0px;"/>
    <path d="M432,207c9.44,0,17.16,7.26,17.92,16.5.04-.5.08-.99.08-1.5,0-9.94-8.06-18-18-18s-18,8.06-18,18c0,.51.03,1,.08,1.5.76-9.24,8.49-16.5,17.92-16.5Z" style="stroke-width: 0px;"/>
    <circle cx="642" cy="432" r="18" style="stroke-width: 0px;"/>
    <circle cx="222" cy="432" r="18" style="stroke-width: 0px;"/>
    <path d="M336,598.28c-2.83-1.64-5.93-2.41-8.98-2.41-6.22,0-12.27,3.23-15.6,9-4.97,8.61-2.02,19.62,6.59,24.59,2.83,1.64,5.93,2.41,8.98,2.41,6.22,0,12.27-3.23,15.6-9,4.97-8.61,2.02-19.62-6.59-24.59Z" style="stroke-width: 0px;"/>
    <path d="M528,265.72c2.83,1.64,5.93,2.41,8.98,2.41,6.22,0,12.27-3.23,15.6-9,4.97-8.61,2.02-19.62-6.59-24.59-2.83-1.64-5.93-2.41-8.98-2.41-6.22,0-12.27,3.23-15.6,9-4.97,8.61-2.02,19.62,6.59,24.59Z" style="stroke-width: 0px;"/>
    <path d="M604.87,552.59c2.83,1.64,5.93,2.41,8.98,2.41,6.22,0,12.27-3.23,15.6-9,4.97-8.61,2.02-19.62-6.59-24.59-2.83-1.64-5.93-2.41-8.98-2.41-6.22,0-12.27,3.23-15.6,9-4.97,8.61-2.02,19.62,6.59,24.59Z" style="stroke-width: 0px;"/>
    <path d="M241.13,342.59c2.83,1.64,5.93,2.41,8.98,2.41,6.22,0,12.27-3.23,15.6-9,4.97-8.61,2.02-19.62-6.59-24.59-2.83-1.64-5.93-2.41-8.98-2.41-6.22,0-12.27,3.23-15.6,9-4.97,8.61-2.02,19.62,6.59,24.59Z" style="stroke-width: 0px;"/>
    <path d="M250.12,519c-3.05,0-6.15.78-8.98,2.41-8.61,4.97-11.56,15.98-6.59,24.59,3.33,5.77,9.38,9,15.6,9,3.05,0,6.15-.78,8.98-2.41,8.61-4.97,11.56-15.98,6.59-24.59-3.33-5.77-9.38-9-15.6-9Z" style="stroke-width: 0px;"/>
    <path d="M613.88,345c3.05,0,6.15-.78,8.98-2.41,8.61-4.97,11.56-15.98,6.59-24.59-3.33-5.77-9.38-9-15.6-9-3.05,0-6.15.78-8.98,2.41-8.61,4.97-11.56,15.98-6.59,24.59,3.33,5.77,9.38,9,15.6,9Z" style="stroke-width: 0px;"/>
    <path d="M537.02,631.87c3.05,0,6.15-.78,8.98-2.41,8.61-4.97,11.56-15.98,6.59-24.59-3.33-5.77-9.38-9-15.61-9-3.05,0-6.15.78-8.98,2.41-8.61,4.97-11.56,15.98-6.59,24.59,3.33,5.77,9.38,9,15.6,9Z" style="stroke-width: 0px;"/>
    <path d="M327.02,268.14c3.05,0,6.15-.78,8.98-2.41,8.61-4.97,11.56-15.98,6.59-24.59-3.33-5.77-9.38-9-15.6-9-3.05,0-6.15.78-8.98,2.41-8.61,4.97-11.56,15.98-6.59,24.59,3.33,5.77,9.38,9,15.61,9Z" style="stroke-width: 0px;"/>
    <path d="M449.92,433.57c-.02.28-.06.56-.1.84.04-.28.08-.56.1-.84Z" style="stroke-width: 0px;"/>
    <path d="M443.67,445.69c-.22.19-.45.37-.68.55.23-.18.46-.36.68-.55Z" style="stroke-width: 0px;"/>
    <path d="M447.11,441.76c-.14.22-.29.43-.44.65.15-.21.3-.43.44-.65Z" style="stroke-width: 0px;"/>
    <path d="M446.08,443.2c-.15.19-.3.37-.46.55.16-.18.31-.36.46-.55Z" style="stroke-width: 0px;"/>
    <path d="M447.59,423c1.73,2.99,2.48,6.27,2.39,9.49,0-.17.02-.33.02-.49v-207c0-.51-.03-1-.08-1.5-.76,9.24-8.49,16.5-17.92,16.5s-17.16-7.26-17.92-16.5c-.04.5-.08.99-.08,1.5v196.61l9-5.2c8.61-4.97,19.62-2.02,24.59,6.59Z" style="stroke-width: 0px;"/>
    <path d="M442.32,446.74c-.29.2-.6.4-.91.59.31-.19.61-.38.91-.59Z" style="stroke-width: 0px;"/>
    <path d="M444.92,444.51c-.17.18-.35.35-.53.52.18-.17.36-.34.53-.52Z" style="stroke-width: 0px;"/>
    <path d="M449.3,436.94c-.09.33-.2.66-.31.98.11-.32.22-.65.31-.98Z" style="stroke-width: 0px;"/>
    <path d="M448.01,440.21c-.14.27-.28.53-.43.79.15-.26.29-.52.43-.79Z" style="stroke-width: 0px;"/>
    <path d="M449.69,435.27c-.06.32-.13.64-.21.95.08-.32.15-.63.21-.95Z" style="stroke-width: 0px;"/>
    <path d="M448.74,438.59c-.12.31-.25.61-.39.91.14-.3.27-.6.39-.91Z" style="stroke-width: 0px;"/>
    <path d="M432,240c9.43,0,17.16-7.26,17.92-16.5-.76-9.24-8.49-16.5-17.92-16.5s-17.16,7.26-17.92,16.5c.76,9.24,8.49,16.5,17.92,16.5Z" style="stroke-width: 0px;"/>
    <path d="M449.98,432.49c0,.36-.02.72-.05,1.07.03-.36.04-.71.05-1.07Z" style="stroke-width: 0px;"/>
    <path d="M449.82,434.4c-.04.29-.08.58-.13.86.05-.29.09-.57.13-.86Z" style="stroke-width: 0px;"/>
    <path d="M307.31,522c3.05,0,6.15-.78,8.98-2.41l124.71-72c.14-.08.27-.18.41-.27-2.74,1.69-5.96,2.68-9.41,2.68-9.94,0-18-8.06-18-18v-10.39l-115.71,66.8c-8.61,4.97-11.56,15.98-6.59,24.59,3.33,5.77,9.38,9,15.61,9Z" style="stroke-width: 0px;"/>
    <path d="M448.35,439.5c-.11.24-.22.47-.34.71.12-.23.23-.47.34-.71Z" style="stroke-width: 0px;"/>
    <path d="M449.48,436.22c-.06.24-.12.48-.18.72.07-.24.13-.48.18-.72Z" style="stroke-width: 0px;"/>
    <path d="M448.98,437.92c-.08.23-.16.45-.25.67.09-.22.17-.45.25-.67Z" style="stroke-width: 0px;"/>
    <path d="M442.99,446.23c-.22.17-.44.34-.67.5.23-.16.45-.33.67-.5Z" style="stroke-width: 0px;"/>
    <path d="M446.67,442.41c-.19.27-.39.54-.59.79.21-.26.4-.53.59-.79Z" style="stroke-width: 0px;"/>
    <path d="M447.58,440.99c-.15.26-.3.51-.46.77.16-.25.32-.51.46-.77Z" style="stroke-width: 0px;"/>
    <path d="M445.62,443.75c-.22.26-.45.51-.69.76.24-.25.47-.5.69-.76Z" style="stroke-width: 0px;"/>
    <path d="M444.39,445.03c-.24.22-.47.44-.72.66.25-.21.49-.43.72-.66Z" style="stroke-width: 0px;"/>
    <path d="M432,450c3.45,0,6.67-.99,9.41-2.68.31-.19.61-.38.91-.59.23-.16.45-.33.67-.5.23-.18.46-.36.68-.55.25-.21.49-.43.72-.66.18-.17.36-.34.53-.52.24-.25.47-.5.69-.76.16-.18.31-.36.46-.55.21-.26.4-.52.59-.79.15-.21.3-.43.44-.65.16-.25.31-.51.46-.77.15-.26.29-.52.43-.79.12-.23.23-.47.34-.71.14-.3.27-.6.39-.91.09-.22.17-.45.25-.67.11-.32.22-.65.31-.98.07-.24.13-.48.18-.72.08-.32.15-.63.21-.95.05-.28.09-.57.13-.86.04-.28.08-.56.1-.84.03-.35.04-.71.05-1.07.09-3.22-.66-6.5-2.39-9.49-4.97-8.61-15.98-11.56-24.59-6.59l-9,5.2v10.39c0,9.94,8.06,18,18,18Z" style="stroke-width: 0px;"/>
  </g>
</svg>