<?xml version="1.0" encoding="UTF-8"?>
<svg id="icon" xmlns="http://www.w3.org/2000/svg" viewBox="0 0 864 864">
  <g id="other_copy" data-name="other copy">
    <path d="M180,684h504s0-504,0-504H180v504ZM259.13,552.59c-2.83,1.64-5.93,2.41-8.98,2.41-6.22,0-12.27-3.23-15.6-9-4.97-8.61-2.02-19.62,6.59-24.59,2.83-1.64,5.93-2.41,8.98-2.41,6.22,0,12.27,3.23,15.6,9,4.97,8.61,2.02,19.62-6.59,24.59ZM660,432c0,9.94-8.06,18-18,18s-18-8.06-18-18,8.06-18,18-18,18,8.06,18,18ZM604.87,311.41c2.83-1.64,5.93-2.41,8.98-2.41,6.22,0,12.27,3.23,15.6,9,4.97,8.61,2.02,19.62-6.59,24.59-2.83,1.64-5.93,2.41-8.98,2.41-6.22,0-12.27-3.23-15.6-9-4.97-8.61-2.02-19.62,6.59-24.59ZM598.28,528c3.33-5.77,9.38-9,15.6-9,3.05,0,6.15.78,8.98,2.41,8.61,4.97,11.56,15.98,6.59,24.59-3.33,5.77-9.38,9-15.6,9-3.05,0-6.15-.78-8.98-2.41-8.61-4.97-11.56-15.98-6.59-24.59ZM521.41,241.13c3.33-5.77,9.38-9,15.6-9,3.05,0,6.15.78,8.98,2.41,8.61,4.97,11.56,15.98,6.59,24.59-3.33,5.77-9.38,9-15.6,9-3.05,0-6.15-.78-8.98-2.41-8.61-4.97-11.56-15.98-6.59-24.59ZM528,598.28c2.83-1.64,5.93-2.41,8.98-2.41,6.22,0,12.27,3.23,15.61,9,4.97,8.61,2.02,19.62-6.59,24.59-2.83,1.64-5.93,2.41-8.98,2.41-6.22,0-12.27-3.23-15.6-9-4.97-8.61-2.02-19.62,6.59-24.59ZM450,639c0,.51-.03,1-.08,1.5.04.5.08.99.08,1.5,0,9.94-8.06,18-18,18s-18-8.06-18-18c0-.51.03-1,.08-1.5-.04-.5-.08-.99-.08-1.5v-163.54l-71.1,71.1c-3.51,3.51-8.12,5.27-12.73,5.27s-9.21-1.76-12.73-5.27c-7.03-7.03-7.03-18.43,0-25.46l101.82-101.82c.42-.42.86-.82,1.32-1.2.2-.17.42-.31.62-.47.26-.2.52-.4.79-.58.25-.17.51-.31.77-.47.25-.15.48-.3.74-.44.27-.14.54-.26.81-.39.26-.12.52-.25.79-.37.26-.11.53-.2.8-.29.29-.1.57-.21.86-.3.27-.08.54-.14.81-.21.3-.07.59-.16.89-.22.31-.06.63-.1.95-.15.26-.04.52-.09.79-.11.59-.06,1.18-.09,1.78-.09s1.19.03,1.78.09c.27.03.53.08.79.11.32.05.64.08.95.15.3.06.6.14.89.22.27.07.54.13.81.21.29.09.58.2.86.3.27.1.54.18.8.29.27.11.53.24.79.37.27.13.54.25.81.39.25.13.49.29.74.43.26.16.52.3.77.47.27.18.53.38.79.58.21.16.42.3.62.47.92.75,1.76,1.6,2.51,2.51.17.2.31.42.47.63.19.26.4.51.58.78.17.26.32.52.48.78.14.24.3.48.43.72.14.27.27.55.4.82.12.26.25.51.36.77.11.27.2.54.3.82.1.28.21.56.3.84.08.28.14.55.21.83.07.29.15.58.21.88.06.32.1.65.15.98.04.25.08.5.11.76.06.59.09,1.19.09,1.78v206.99ZM432,204c9.94,0,18,8.06,18,18s-8.06,18-18,18-18-8.06-18-18,8.06-18,18-18ZM318,234.55c2.83-1.64,5.93-2.41,8.98-2.41,6.22,0,12.27,3.23,15.6,9,4.97,8.61,2.02,19.62-6.59,24.59-2.83,1.64-5.93,2.41-8.98,2.41-6.22,0-12.27-3.23-15.61-9-4.97-8.61-2.02-19.62,6.59-24.59ZM311.41,604.87c3.33-5.77,9.38-9,15.6-9,3.05,0,6.15.78,8.98,2.41,8.61,4.97,11.56,15.98,6.59,24.59-3.33,5.77-9.38,9-15.6,9-3.05,0-6.15-.78-8.98-2.41-8.61-4.97-11.56-15.98-6.59-24.59ZM234.55,318c3.33-5.77,9.38-9,15.6-9,3.05,0,6.15.78,8.98,2.41,8.61,4.97,11.56,15.98,6.59,24.59-3.33,5.77-9.38,9-15.6,9-3.05,0-6.15-.78-8.98-2.41-8.61-4.97-11.56-15.98-6.59-24.59ZM222,414c9.94,0,18,8.06,18,18s-8.06,18-18,18-18-8.06-18-18,8.06-18,18-18Z" style="fill: none; stroke-width: 0px;"/>
    <path d="M684,144H180c-19.88,0-36,16.12-36,36v504c0,19.88,16.12,36,36,36h504c19.88,0,36-16.12,36-36V180c0-19.88-16.12-36-36-36ZM684,684H180s0-504,0-504h504v504Z" style="stroke-width: 0px;"/>
    <path d="M432,657c-9.44,0-17.16-7.26-17.92-16.5-.04.5-.08.99-.08,1.5,0,9.94,8.06,18,18,18s18-8.06,18-18c0-.51-.03-1-.08-1.5-.76,9.24-8.49,16.5-17.92,16.5Z" style="stroke-width: 0px;"/>
    <circle cx="432" cy="222" r="18" style="stroke-width: 0px;"/>
    <circle cx="642" cy="432" r="18" style="stroke-width: 0px;"/>
    <circle cx="222" cy="432" r="18" style="stroke-width: 0px;"/>
    <path d="M318,629.45c2.83,1.64,5.93,2.41,8.98,2.41,6.22,0,12.27-3.23,15.6-9,4.97-8.61,2.02-19.62-6.59-24.59-2.83-1.64-5.93-2.41-8.98-2.41-6.22,0-12.27,3.23-15.6,9-4.97,8.61-2.02,19.62,6.59,24.59Z" style="stroke-width: 0px;"/>
    <path d="M528,265.72c2.83,1.64,5.93,2.41,8.98,2.41,6.22,0,12.27-3.23,15.6-9,4.97-8.61,2.02-19.62-6.59-24.59-2.83-1.64-5.93-2.41-8.98-2.41-6.22,0-12.27,3.23-15.6,9-4.97,8.61-2.02,19.62,6.59,24.59Z" style="stroke-width: 0px;"/>
    <path d="M604.87,552.59c2.83,1.64,5.93,2.41,8.98,2.41,6.22,0,12.27-3.23,15.6-9,4.97-8.61,2.02-19.62-6.59-24.59-2.83-1.64-5.93-2.41-8.98-2.41-6.22,0-12.27,3.23-15.6,9-4.97,8.61-2.02,19.62,6.59,24.59Z" style="stroke-width: 0px;"/>
    <path d="M241.13,342.59c2.83,1.64,5.93,2.41,8.98,2.41,6.22,0,12.27-3.23,15.6-9,4.97-8.61,2.02-19.62-6.59-24.59-2.83-1.64-5.93-2.41-8.98-2.41-6.22,0-12.27,3.23-15.6,9-4.97,8.61-2.02,19.62,6.59,24.59Z" style="stroke-width: 0px;"/>
    <path d="M250.12,519c-3.05,0-6.15.78-8.98,2.41-8.61,4.97-11.56,15.98-6.59,24.59,3.33,5.77,9.38,9,15.6,9,3.05,0,6.15-.78,8.98-2.41,8.61-4.97,11.56-15.98,6.59-24.59-3.33-5.77-9.38-9-15.6-9Z" style="stroke-width: 0px;"/>
    <path d="M613.88,345c3.05,0,6.15-.78,8.98-2.41,8.61-4.97,11.56-15.98,6.59-24.59-3.33-5.77-9.38-9-15.6-9-3.05,0-6.15.78-8.98,2.41-8.61,4.97-11.56,15.98-6.59,24.59,3.33,5.77,9.38,9,15.6,9Z" style="stroke-width: 0px;"/>
    <path d="M537.02,631.87c3.05,0,6.15-.78,8.98-2.41,8.61-4.97,11.56-15.98,6.59-24.59-3.33-5.77-9.38-9-15.61-9-3.05,0-6.15.78-8.98,2.41-8.61,4.97-11.56,15.98-6.59,24.59,3.33,5.77,9.38,9,15.6,9Z" style="stroke-width: 0px;"/>
    <path d="M327.02,268.14c3.05,0,6.15-.78,8.98-2.41,8.61-4.97,11.56-15.98,6.59-24.59-3.33-5.77-9.38-9-15.6-9-3.05,0-6.15.78-8.98,2.41-8.61,4.97-11.56,15.98-6.59,24.59,3.33,5.77,9.38,9,15.61,9Z" style="stroke-width: 0px;"/>
    <path d="M433.78,414.09c.26.03.53.08.79.11-.26-.04-.52-.09-.79-.11Z" style="stroke-width: 0px;"/>
    <path d="M438.89,415.37c.27.11.53.24.79.37-.26-.12-.52-.25-.79-.37Z" style="stroke-width: 0px;"/>
    <path d="M440.48,416.13c.25.13.49.29.74.43-.24-.15-.48-.3-.74-.43Z" style="stroke-width: 0px;"/>
    <path d="M437.22,414.78c.29.09.58.2.86.3-.29-.1-.57-.21-.86-.3Z" style="stroke-width: 0px;"/>
    <path d="M429.43,414.2c.26-.04.53-.09.79-.11-.27.03-.53.08-.79.11Z" style="stroke-width: 0px;"/>
    <path d="M441.99,417.03c.27.18.53.38.79.58-.26-.2-.52-.4-.79-.58Z" style="stroke-width: 0px;"/>
    <path d="M422.78,416.56c.25-.15.49-.3.74-.44-.25.14-.49.29-.74.44Z" style="stroke-width: 0px;"/>
    <path d="M424.33,415.74c.26-.12.52-.26.79-.37-.27.11-.53.24-.79.37Z" style="stroke-width: 0px;"/>
    <path d="M425.91,415.08c.29-.1.57-.21.86-.3-.29.09-.58.2-.86.3Z" style="stroke-width: 0px;"/>
    <path d="M427.59,414.57c.3-.07.59-.16.89-.22-.3.06-.6.14-.89.22Z" style="stroke-width: 0px;"/>
    <path d="M448.27,424.34c.12.26.25.51.36.77-.11-.26-.24-.52-.36-.77Z" style="stroke-width: 0px;"/>
    <path d="M446.39,421.22c.19.26.4.52.58.78-.18-.27-.38-.52-.58-.78Z" style="stroke-width: 0px;"/>
    <path d="M420.59,418.08c-.46.38-.9.78-1.32,1.2h0c.42-.43.87-.82,1.32-1.2Z" style="stroke-width: 0px;"/>
    <path d="M445.92,420.59c-.75-.92-1.6-1.76-2.51-2.51.45.37.9.77,1.32,1.19s.82.87,1.19,1.32Z" style="stroke-width: 0px;"/>
    <path d="M414,475.46v163.54c0,.51.03,1,.08,1.5.76-9.24,8.49-16.5,17.92-16.5s17.16,7.26,17.92,16.5c.04-.5.08-.99.08-1.5v-206.99c0,4.6-1.76,9.21-5.27,12.72l-30.73,30.73Z" style="stroke-width: 0px;"/>
    <path d="M449.8,429.46c.04.25.08.51.11.76-.03-.26-.07-.51-.11-.76Z" style="stroke-width: 0px;"/>
    <path d="M449.44,427.61c.07.29.16.58.21.88-.06-.3-.14-.58-.21-.88Z" style="stroke-width: 0px;"/>
    <path d="M447.44,422.79c.14.24.3.48.43.72-.13-.25-.28-.48-.43-.72Z" style="stroke-width: 0px;"/>
    <path d="M421.21,417.61c.26-.2.52-.4.79-.58-.27.18-.53.39-.79.58Z" style="stroke-width: 0px;"/>
    <path d="M448.93,425.93c.1.28.21.56.3.84-.09-.29-.19-.56-.3-.84Z" style="stroke-width: 0px;"/>
    <path d="M435.52,414.35c.3.06.6.14.89.22-.3-.07-.59-.16-.89-.22Z" style="stroke-width: 0px;"/>
    <path d="M432,624c-9.43,0-17.16,7.26-17.92,16.5.76,9.24,8.49,16.5,17.92,16.5s17.16-7.26,17.92-16.5c-.76-9.24-8.49-16.5-17.92-16.5Z" style="stroke-width: 0px;"/>
    <path d="M419.27,419.28l-101.82,101.82c-7.03,7.03-7.03,18.43,0,25.46,3.51,3.51,8.12,5.27,12.73,5.27s9.21-1.76,12.73-5.27l71.1-71.1v-43.46c0-4.97,2.01-9.47,5.27-12.72Z" style="stroke-width: 0px;"/>
    <path d="M449.91,430.22c.06.59.09,1.18.09,1.78h0c0-.59-.03-1.19-.09-1.78Z" style="stroke-width: 0px;"/>
    <path d="M439.67,415.74c.27.13.55.25.81.39-.27-.14-.54-.26-.81-.39Z" style="stroke-width: 0px;"/>
    <path d="M441.22,416.56c.26.16.52.3.77.47-.25-.17-.52-.32-.77-.47Z" style="stroke-width: 0px;"/>
    <path d="M432,414c.6,0,1.19.03,1.78.09-.59-.06-1.18-.09-1.78-.09Z" style="stroke-width: 0px;"/>
    <path d="M436.41,414.57c.27.07.55.13.81.21-.27-.08-.54-.14-.81-.21Z" style="stroke-width: 0px;"/>
    <path d="M442.78,417.61c.21.16.42.3.62.47-.2-.17-.42-.31-.62-.47Z" style="stroke-width: 0px;"/>
    <path d="M425.11,415.37c.26-.11.53-.2.8-.29-.27.1-.54.18-.8.29Z" style="stroke-width: 0px;"/>
    <path d="M426.78,414.78c.27-.08.54-.14.81-.21-.27.07-.54.13-.81.21Z" style="stroke-width: 0px;"/>
    <path d="M422.01,417.03c.25-.17.51-.31.77-.47-.26.15-.52.3-.77.47Z" style="stroke-width: 0px;"/>
    <path d="M423.52,416.13c.26-.14.54-.26.81-.39-.27.13-.54.25-.81.39Z" style="stroke-width: 0px;"/>
    <path d="M428.48,414.35c.31-.06.63-.1.95-.15-.32.05-.64.08-.95.15Z" style="stroke-width: 0px;"/>
    <path d="M449.65,428.48c.06.32.1.65.15.98-.05-.33-.08-.66-.15-.98Z" style="stroke-width: 0px;"/>
    <path d="M430.22,414.09c.58-.06,1.18-.09,1.78-.09-.59,0-1.19.03-1.78.09Z" style="stroke-width: 0px;"/>
    <path d="M447.87,423.52c.14.27.27.55.4.82-.13-.28-.25-.55-.4-.82Z" style="stroke-width: 0px;"/>
    <path d="M448.63,425.11c.11.27.2.54.3.82-.1-.27-.19-.55-.3-.82Z" style="stroke-width: 0px;"/>
    <path d="M420.59,418.08c.2-.16.42-.31.62-.47-.21.16-.42.3-.62.47Z" style="stroke-width: 0px;"/>
    <path d="M449.22,426.77c.08.27.14.55.21.83-.07-.28-.13-.56-.21-.83Z" style="stroke-width: 0px;"/>
    <path d="M446.97,422.01c.17.25.32.52.48.78-.16-.26-.31-.53-.48-.78Z" style="stroke-width: 0px;"/>
    <path d="M445.92,420.59c.17.2.31.42.47.63-.16-.21-.3-.43-.47-.63Z" style="stroke-width: 0px;"/>
    <path d="M438.09,415.08c.27.1.54.18.8.29-.26-.11-.53-.2-.8-.29Z" style="stroke-width: 0px;"/>
    <path d="M434.57,414.2c.32.05.64.08.95.15-.31-.06-.63-.1-.95-.15Z" style="stroke-width: 0px;"/>
    <path d="M449.91,430.22c-.03-.25-.07-.51-.11-.76-.05-.33-.09-.66-.15-.98-.06-.29-.14-.58-.21-.88-.07-.28-.13-.56-.21-.83-.09-.28-.19-.56-.3-.84-.1-.27-.19-.55-.3-.82-.11-.26-.24-.52-.36-.77-.13-.28-.25-.55-.4-.82-.13-.25-.28-.48-.43-.72-.16-.26-.31-.53-.48-.78-.18-.27-.38-.52-.58-.78-.16-.21-.3-.43-.47-.63-.37-.45-.77-.9-1.19-1.32s-.87-.82-1.32-1.19c-.2-.16-.42-.31-.62-.47-.26-.2-.52-.4-.79-.58-.25-.17-.52-.32-.77-.47-.24-.15-.49-.3-.74-.43-.26-.14-.54-.26-.81-.39-.26-.12-.52-.26-.79-.37-.26-.11-.53-.2-.8-.29-.29-.1-.57-.21-.86-.3-.27-.08-.54-.14-.81-.21-.3-.07-.59-.16-.89-.22-.31-.06-.63-.1-.95-.15-.26-.04-.53-.09-.79-.11-.58-.06-1.18-.09-1.78-.09s-1.19.03-1.78.09c-.26.03-.53.08-.79.11-.32.05-.64.08-.95.15-.3.06-.6.14-.89.22-.27.07-.55.13-.81.21-.29.09-.58.2-.86.3-.27.1-.54.18-.8.29-.27.11-.53.24-.79.37-.27.13-.55.25-.81.39-.25.13-.49.29-.74.44-.26.16-.52.3-.77.47-.27.18-.53.39-.79.58-.21.16-.42.3-.62.47-.45.37-.9.77-1.32,1.19h0c-3.26,3.26-5.27,7.76-5.27,12.73v43.46l30.73-30.73c3.51-3.51,5.27-8.12,5.27-12.72h0c0-.61-.03-1.2-.09-1.78Z" style="stroke-width: 0px;"/>
  </g>
</svg>