<?xml version="1.0" encoding="UTF-8"?>
<svg id="icon" xmlns="http://www.w3.org/2000/svg" viewBox="0 0 864 864">
  <g id="other_copy" data-name="other copy">
    <path d="M333.92,664.21c31.04,13.13,64.04,19.79,98.08,19.79s67.03-6.66,98.08-19.79c30-12.69,56.96-30.87,80.11-54.02,23.15-23.15,41.33-50.11,54.02-80.11,13.13-31.04,19.79-64.04,19.79-98.08s-6.66-67.03-19.79-98.08c-12.69-30-30.87-56.96-54.02-80.11-23.16-23.16-50.11-41.33-80.11-54.02-31.04-13.13-64.04-19.79-98.08-19.79s-67.03,6.66-98.08,19.79c-30,12.69-56.96,30.87-80.11,54.02-23.15,23.15-41.33,50.11-54.02,80.11-13.13,31.04-19.79,64.04-19.79,98.08s6.66,67.03,19.79,98.08c12.69,30,30.87,56.96,54.02,80.11,23.16,23.16,50.11,41.33,80.11,54.02ZM351,291.7c8.61-4.97,19.62-2.02,24.59,6.59l38.41,66.53v-130.82c0-9.94,8.06-18,18-18s18,8.06,18,18v198c0,.17-.02.33-.03.49,0,.36-.02.72-.05,1.07-.02.28-.06.56-.1.84-.04.29-.08.58-.13.86-.06.32-.13.64-.21.96-.06.24-.12.48-.18.72-.09.33-.2.66-.31.98-.08.23-.16.45-.25.67-.12.31-.25.61-.39.91-.11.24-.22.47-.34.7-.14.27-.28.53-.43.79-.15.26-.3.51-.46.76-.14.22-.29.44-.44.65-.19.27-.39.53-.59.79-.15.19-.31.37-.46.55-.22.26-.45.51-.69.76-.17.18-.35.35-.53.52-.23.22-.47.44-.72.65-.22.19-.46.37-.69.55-.22.17-.44.34-.67.5-.3.21-.6.4-.91.59-.14.09-.27.18-.41.26-.07.04-.15.08-.22.12-.16.09-.32.18-.49.26-.33.17-.66.33-1,.48-.13.06-.26.12-.4.18-.46.19-.93.36-1.4.51-.13.04-.25.08-.38.11-.45.13-.9.25-1.36.35-.06.01-.12.03-.19.04-.54.11-1.09.19-1.63.25-.08,0-.16.02-.24.02-.56.05-1.13.09-1.69.09s-1.11-.03-1.66-.09c-.12-.01-.24-.02-.36-.04-.51-.06-1.01-.13-1.51-.23-.14-.03-.28-.06-.41-.09-.37-.08-.73-.18-1.1-.28-.17-.05-.35-.1-.52-.15-.45-.14-.89-.3-1.32-.48-.14-.06-.28-.13-.43-.19-.36-.16-.71-.33-1.05-.51-.12-.06-.24-.12-.35-.18-.45-.25-.89-.51-1.32-.8-.05-.04-.11-.08-.16-.11-.41-.28-.8-.57-1.18-.88-.05-.04-.1-.08-.15-.12-.42-.35-.83-.72-1.22-1.11,0,0,0,0,0,0-.36-.36-.71-.75-1.04-1.15-.07-.08-.14-.16-.21-.25-.31-.39-.61-.78-.9-1.2-.02-.03-.05-.07-.07-.1-.22-.33-.44-.68-.64-1.03l-72-124.71c-4.97-8.61-2.02-19.62,6.59-24.59Z" style="fill: none; stroke-width: 0px;"/>
    <path d="M432,720c159.06,0,288-128.94,288-288s-128.94-288-288-288S144,272.94,144,432s128.94,288,288,288ZM180,432c0-34.04,6.66-67.03,19.79-98.08,12.69-30,30.87-56.96,54.02-80.11,23.16-23.16,50.11-41.33,80.11-54.02,31.04-13.13,64.04-19.79,98.08-19.79s67.03,6.66,98.08,19.79c30,12.69,56.96,30.87,80.11,54.02,23.15,23.15,41.33,50.11,54.02,80.11,13.13,31.04,19.79,64.04,19.79,98.08s-6.66,67.03-19.79,98.08c-12.69,30-30.87,56.96-54.02,80.11-23.16,23.16-50.11,41.33-80.11,54.02-31.04,13.13-64.04,19.79-98.08,19.79s-67.03-6.66-98.08-19.79c-30-12.69-56.96-30.87-80.11-54.02-23.15-23.15-41.33-50.11-54.02-80.11-13.13-31.04-19.79-64.04-19.79-98.08Z" style="stroke-width: 0px;"/>
    <path d="M418.23,443.58c-.07-.08-.14-.16-.21-.25.07.08.14.17.21.25Z" style="stroke-width: 0px;"/>
    <path d="M444.93,444.51c-.17.18-.35.35-.53.52.18-.17.36-.34.53-.52Z" style="stroke-width: 0px;"/>
    <path d="M433.95,449.89c-.08,0-.16.02-.24.02.08,0,.16-.01.24-.02Z" style="stroke-width: 0px;"/>
    <path d="M449.97,432.49c0-.17.03-.33.03-.49v-198c0-9.94-8.06-18-18-18s-18,8.06-18,18v130.82l33.59,58.18c1.73,2.99,2.48,6.27,2.39,9.49Z" style="stroke-width: 0px;"/>
    <path d="M446.08,443.2c-.15.19-.31.37-.46.55.16-.18.31-.37.46-.55Z" style="stroke-width: 0px;"/>
    <path d="M449.69,435.26c-.06.32-.13.64-.21.96.08-.32.15-.63.21-.96Z" style="stroke-width: 0px;"/>
    <path d="M443.67,445.69c-.22.19-.45.37-.69.55.23-.18.46-.36.69-.55Z" style="stroke-width: 0px;"/>
    <path d="M430.36,449.92c-.12-.01-.24-.02-.36-.04.12.01.24.02.36.04Z" style="stroke-width: 0px;"/>
    <path d="M440.78,447.7c-.16.09-.32.18-.49.26.16-.09.33-.17.49-.26Z" style="stroke-width: 0px;"/>
    <path d="M435.76,449.6c-.06.01-.12.03-.19.04.06-.01.12-.03.19-.04Z" style="stroke-width: 0px;"/>
    <path d="M439.3,448.45c-.13.06-.26.12-.4.18.13-.06.26-.12.4-.18Z" style="stroke-width: 0px;"/>
    <path d="M442.32,446.74c-.29.21-.6.4-.91.59.31-.19.61-.38.91-.59Z" style="stroke-width: 0px;"/>
    <path d="M449.92,433.57c-.02.28-.06.56-.1.84.04-.28.08-.56.1-.84Z" style="stroke-width: 0px;"/>
    <path d="M437.5,449.14c-.13.04-.25.08-.38.11.13-.04.25-.07.38-.11Z" style="stroke-width: 0px;"/>
    <path d="M423.66,447.94c-.12-.06-.24-.12-.35-.18.12.06.23.12.35.18Z" style="stroke-width: 0px;"/>
    <path d="M448.01,440.21c-.14.27-.28.53-.43.79.15-.26.29-.52.43-.79Z" style="stroke-width: 0px;"/>
    <path d="M426.97,449.27c-.17-.05-.35-.1-.52-.15.17.06.34.1.52.15Z" style="stroke-width: 0px;"/>
    <path d="M420.65,445.96s-.1-.08-.15-.12c.05.04.1.08.15.12Z" style="stroke-width: 0px;"/>
    <path d="M421.99,446.96c-.05-.04-.11-.08-.16-.11.05.04.11.08.16.11Z" style="stroke-width: 0px;"/>
    <path d="M425.13,448.64c-.14-.06-.28-.13-.43-.19.14.06.28.13.43.19Z" style="stroke-width: 0px;"/>
    <path d="M419.27,444.73s0,0,0,0c0,0,0,0,0,0Z" style="stroke-width: 0px;"/>
    <path d="M448.74,438.59c-.12.31-.25.61-.39.91.14-.3.27-.6.39-.91Z" style="stroke-width: 0px;"/>
    <path d="M449.3,436.94c-.09.33-.2.66-.31.98.11-.32.22-.65.31-.98Z" style="stroke-width: 0px;"/>
    <path d="M428.48,449.65c-.14-.03-.28-.06-.41-.09.14.03.27.07.41.09Z" style="stroke-width: 0px;"/>
    <path d="M447.11,441.76c-.14.22-.29.44-.44.65.15-.21.3-.43.44-.65Z" style="stroke-width: 0px;"/>
    <path d="M417.12,442.13s-.05-.07-.07-.1c.02.03.05.07.07.1Z" style="stroke-width: 0px;"/>
    <path d="M420.5,445.84c-.42-.35-.83-.72-1.22-1.11.39.39.8.76,1.22,1.11Z" style="stroke-width: 0px;"/>
    <path d="M430.36,449.92c.55.05,1.11.09,1.66.09s1.13-.04,1.69-.09c-.56.05-1.13.09-1.71.09s-1.1-.03-1.64-.08Z" style="stroke-width: 0px;"/>
    <path d="M418.02,443.33c-.31-.39-.62-.79-.9-1.2.28.42.59.81.9,1.2Z" style="stroke-width: 0px;"/>
    <path d="M448.98,437.92c-.08.23-.16.45-.25.67.09-.22.17-.45.25-.67Z" style="stroke-width: 0px;"/>
    <path d="M423.3,447.76c-.45-.25-.89-.51-1.32-.8.43.29.87.55,1.32.8Z" style="stroke-width: 0px;"/>
    <path d="M419.27,444.72c-.36-.36-.71-.75-1.04-1.15.33.4.68.78,1.04,1.15Z" style="stroke-width: 0px;"/>
    <path d="M421.83,446.85c-.41-.28-.8-.57-1.18-.88.38.31.78.61,1.18.88Z" style="stroke-width: 0px;"/>
    <path d="M435.58,449.64c-.54.11-1.08.19-1.63.25.54-.06,1.09-.14,1.63-.25Z" style="stroke-width: 0px;"/>
    <path d="M430,449.88c-.51-.06-1.01-.13-1.51-.23.5.1,1,.17,1.51.23Z" style="stroke-width: 0px;"/>
    <path d="M447.58,440.99c-.15.26-.3.51-.46.76.16-.25.31-.5.46-.76Z" style="stroke-width: 0px;"/>
    <path d="M449.97,432.49c0,.36-.02.72-.05,1.07.03-.36.04-.71.05-1.07Z" style="stroke-width: 0px;"/>
    <path d="M441,447.59c.14-.08.27-.18.41-.26-.21.13-.41.26-.63.38.07-.04.15-.07.22-.12Z" style="stroke-width: 0px;"/>
    <path d="M428.07,449.56c-.37-.08-.74-.18-1.1-.28.36.11.73.2,1.1.28Z" style="stroke-width: 0px;"/>
    <path d="M437.12,449.25c-.45.13-.9.25-1.36.35.46-.1.91-.21,1.36-.35Z" style="stroke-width: 0px;"/>
    <path d="M440.29,447.97c-.33.17-.66.33-1,.48.33-.15.67-.31,1-.48Z" style="stroke-width: 0px;"/>
    <path d="M444.39,445.03c-.23.22-.47.44-.72.65.25-.21.48-.43.72-.65Z" style="stroke-width: 0px;"/>
    <path d="M416.41,441c.2.35.42.7.64,1.03-1.93-2.87-3.05-6.32-3.05-10.03v-67.18l-38.41-66.53c-4.97-8.61-15.98-11.56-24.59-6.59-8.61,4.97-11.56,15.98-6.59,24.59l72,124.71Z" style="stroke-width: 0px;"/>
    <path d="M446.67,442.41c-.19.27-.39.53-.59.79.21-.26.4-.52.59-.79Z" style="stroke-width: 0px;"/>
    <path d="M449.82,434.4c-.04.29-.08.58-.13.86.05-.29.09-.57.13-.86Z" style="stroke-width: 0px;"/>
    <path d="M445.61,443.75c-.22.26-.45.51-.69.76.24-.25.47-.5.69-.76Z" style="stroke-width: 0px;"/>
    <path d="M438.9,448.62c-.46.19-.92.36-1.4.51.47-.15.94-.32,1.4-.51Z" style="stroke-width: 0px;"/>
    <path d="M442.99,446.24c-.22.17-.44.34-.67.5.23-.16.45-.33.67-.5Z" style="stroke-width: 0px;"/>
    <path d="M424.71,448.45c-.36-.16-.71-.33-1.05-.51.35.18.7.35,1.05.51Z" style="stroke-width: 0px;"/>
    <path d="M449.48,436.22c-.06.24-.12.48-.18.72.07-.24.13-.48.18-.72Z" style="stroke-width: 0px;"/>
    <path d="M426.46,449.12c-.45-.15-.89-.31-1.32-.48.43.18.88.34,1.32.48Z" style="stroke-width: 0px;"/>
    <path d="M448.35,439.5c-.11.24-.22.47-.34.7.12-.23.23-.47.34-.7Z" style="stroke-width: 0px;"/>
    <path d="M417.05,442.03s.05.07.07.1c.28.41.58.81.9,1.2.07.08.14.17.21.25.33.4.68.78,1.04,1.15,0,0,0,0,0,0,.39.39.8.76,1.22,1.11.05.04.1.08.15.12.38.31.78.61,1.18.88.05.04.11.08.16.11.43.29.87.55,1.32.8.12.06.23.12.35.18.34.18.7.35,1.05.51.14.06.28.13.43.19.43.18.87.34,1.32.48.17.06.34.1.52.15.36.1.73.2,1.1.28.14.03.28.07.41.09.5.1,1,.17,1.51.23.12.01.24.02.36.04.54.05,1.09.08,1.64.08s1.15-.03,1.71-.09c.08,0,.16-.01.24-.02.55-.06,1.1-.14,1.63-.25.06-.01.12-.03.19-.04.46-.1.91-.22,1.36-.35.13-.04.25-.07.38-.11.48-.15.94-.32,1.4-.51.13-.06.26-.12.4-.18.34-.15.67-.31,1-.48.16-.08.33-.17.49-.26.21-.12.42-.25.63-.38.31-.19.62-.38.91-.59.23-.16.45-.33.67-.5.23-.18.46-.36.69-.55.25-.21.48-.43.72-.65.18-.17.36-.34.53-.52.24-.24.46-.5.69-.76.16-.18.31-.37.46-.55.21-.26.4-.52.59-.79.15-.21.3-.43.44-.65.16-.25.31-.5.46-.76.15-.26.3-.52.43-.79.12-.23.23-.47.34-.7.14-.3.27-.61.39-.91.09-.22.17-.45.25-.67.11-.32.22-.65.31-.98.07-.24.13-.48.18-.72.08-.32.15-.64.21-.96.05-.28.09-.57.13-.86.04-.28.08-.56.1-.84.03-.35.04-.71.05-1.07.09-3.22-.66-6.5-2.39-9.49l-33.59-58.18v67.18c0,3.71,1.13,7.16,3.05,10.03Z" style="stroke-width: 0px;"/>
  </g>
</svg>