<?xml version="1.0" encoding="UTF-8"?>
<svg id="icon" xmlns="http://www.w3.org/2000/svg" viewBox="0 0 864 864">
  <g id="other_copy" data-name="other copy">
    <path d="M684,144H180c-19.88,0-36,16.12-36,36v504c0,19.88,16.12,36,36,36h504c19.88,0,36-16.12,36-36V180c0-19.88-16.12-36-36-36ZM265.72,336c-3.33,5.77-9.38,9-15.6,9-3.05,0-6.15-.78-8.98-2.41-8.61-4.97-11.56-15.98-6.59-24.59,3.33-5.77,9.38-9,15.6-9,3.05,0,6.15.78,8.98,2.41,8.61,4.97,11.56,15.98,6.59,24.59ZM259.13,552.59c-2.83,1.64-5.93,2.41-8.98,2.41-6.22,0-12.27-3.23-15.6-9-4.97-8.61-2.02-19.62,6.59-24.59,2.83-1.64,5.93-2.41,8.98-2.41,6.22,0,12.27,3.23,15.6,9,4.97,8.61,2.02,19.62-6.59,24.59ZM240,432c0,9.94-8.06,18-18,18s-18-8.06-18-18,8.06-18,18-18,18,8.06,18,18ZM419.26,419.28c.42-.42.87-.83,1.33-1.21.18-.15.38-.28.57-.42.28-.21.56-.43.85-.62.24-.16.49-.3.73-.44.26-.16.51-.32.78-.46.25-.14.51-.25.77-.37.27-.13.54-.27.83-.38.25-.1.51-.19.76-.28.3-.11.6-.22.9-.32.25-.08.51-.13.76-.2.31-.08.62-.17.94-.23.29-.06.59-.09.88-.13.29-.04.57-.1.86-.12.53-.05,1.06-.08,1.59-.08.06,0,.12,0,.18,0s.12,0,.18,0c.53,0,1.06.03,1.59.08.29.03.57.08.86.12.29.04.59.08.88.13.32.06.63.15.94.23.26.06.51.12.77.2.31.09.6.21.9.32.25.09.51.18.76.28.28.12.55.25.83.38.26.12.52.24.77.37.27.14.52.3.78.46.25.15.49.29.73.45.29.19.57.41.85.62.19.14.38.27.57.42.92.75,1.77,1.6,2.52,2.52.16.19.29.39.44.59.21.27.42.54.61.83.17.25.31.5.46.76.15.25.31.49.44.75.14.26.26.53.39.8.12.26.26.52.37.79.11.26.2.54.29.8.1.28.21.57.3.86.08.27.14.55.21.82.07.29.16.58.22.88.06.32.1.65.15.98.04.26.08.51.11.77.06.59.09,1.19.09,1.78v207c0,.51-.03,1-.08,1.5.04.5.08.99.08,1.5,0,9.94-8.06,18-18,18s-18-8.06-18-18c0-.51.03-1,.08-1.5-.04-.5-.08-.99-.08-1.5v-163.54l-71.1,71.1c-3.51,3.51-8.12,5.27-12.73,5.27s-9.21-1.76-12.73-5.27c-7.03-7.03-7.03-18.43,0-25.46l101.81-101.81ZM414,222c0-9.94,8.06-18,18-18s18,8.06,18,18-8.06,18-18,18-18-8.06-18-18ZM336,265.72c-2.83,1.64-5.93,2.41-8.98,2.41-6.22,0-12.27-3.23-15.61-9-4.97-8.61-2.02-19.62,6.59-24.59,2.83-1.64,5.93-2.41,8.98-2.41,6.22,0,12.27,3.23,15.6,9,4.97,8.61,2.02,19.62-6.59,24.59ZM311.41,604.87c3.33-5.77,9.38-9,15.6-9,3.05,0,6.15.78,8.98,2.41,8.61,4.97,11.56,15.98,6.59,24.59-3.33,5.77-9.38,9-15.6,9-3.05,0-6.15-.78-8.98-2.41-8.61-4.97-11.56-15.98-6.59-24.59ZM528,598.28c2.83-1.64,5.93-2.41,8.98-2.41,6.22,0,12.27,3.23,15.61,9,4.97,8.61,2.02,19.62-6.59,24.59-2.83,1.64-5.93,2.41-8.98,2.41-6.22,0-12.27-3.23-15.6-9-4.97-8.61-2.02-19.62,6.59-24.59ZM521.41,241.13c3.33-5.77,9.38-9,15.6-9,3.05,0,6.15.78,8.98,2.41,8.61,4.97,11.56,15.98,6.59,24.59-3.33,5.77-9.38,9-15.6,9-3.05,0-6.15-.78-8.98-2.41-8.61-4.97-11.56-15.98-6.59-24.59ZM598.28,528c3.33-5.77,9.38-9,15.6-9,3.05,0,6.15.78,8.98,2.41,8.61,4.97,11.56,15.98,6.59,24.59-3.33,5.77-9.38,9-15.6,9-3.05,0-6.15-.78-8.98-2.41-8.61-4.97-11.56-15.98-6.59-24.59ZM604.87,311.41c2.83-1.64,5.93-2.41,8.98-2.41,6.22,0,12.27,3.23,15.6,9,4.97,8.61,2.02,19.62-6.59,24.59-2.83,1.64-5.93,2.41-8.98,2.41-6.22,0-12.27-3.23-15.6-9-4.97-8.61-2.02-19.62,6.59-24.59ZM642,450c-9.94,0-18-8.06-18-18s8.06-18,18-18,18,8.06,18,18-8.06,18-18,18Z" style="stroke-width: 0px;"/>
  </g>
</svg>