<?xml version="1.0" encoding="UTF-8"?>
<svg id="icon" xmlns="http://www.w3.org/2000/svg" viewBox="0 0 864 864">
  <g id="other_copy" data-name="other copy">
    <path d="M432,144c-159.06,0-288,128.94-288,288s128.94,288,288,288,288-128.94,288-288-128.94-288-288-288ZM486.66,297.57l-36.66,136.8v195.63c0,9.94-8.06,18-18,18s-18-8.06-18-18v-198c0-.14.02-.28.02-.42,0-.36.02-.71.05-1.07.02-.29.06-.57.09-.85.04-.29.08-.57.13-.86.06-.35.14-.7.22-1.04.03-.14.05-.28.09-.41l37.27-139.09c2.57-9.6,12.44-15.3,22.05-12.73,9.6,2.57,15.3,12.44,12.73,22.05Z" style="stroke-width: 0px;"/>
  </g>
</svg>