<?xml version="1.0" encoding="UTF-8"?>
<svg id="icon" xmlns="http://www.w3.org/2000/svg" viewBox="0 0 864 864">
  <g id="other_copy" data-name="other copy">
    <path d="M228.35,228.35c-54.4,54.4-84.35,126.72-84.35,203.65s29.96,149.25,84.35,203.65c54.4,54.4,126.72,84.35,203.65,84.35s149.25-29.96,203.65-84.35l-25.46-25.46c-47.6,47.6-110.88,73.81-178.19,73.81s-130.59-26.21-178.19-73.81c-47.6-47.6-73.81-110.88-73.81-178.19s26.21-130.59,73.81-178.19c47.6-47.6,110.88-73.81,178.19-73.81v-36c-76.93,0-149.25,29.96-203.65,84.35Z" style="stroke-width: 0px;"/>
    <path d="M432,180c5.59,0,11.24.19,16.81.55l2.36-35.92c-6.35-.42-12.8-.63-19.17-.63v36Z" style="stroke-width: 0px;"/>
    <path d="M488.48,149.54l-7.02,35.31c10.74,2.14,21.44,5.01,31.8,8.54l11.6-34.08c-11.85-4.03-24.09-7.32-36.38-9.76Z" style="stroke-width: 0px;"/>
    <path d="M683.46,415.32c.36,5.51.54,11.12.54,16.68s-.17,10.9-.52,16.29l35.93,2.29c.39-6.15.59-12.4.59-18.58s-.21-12.74-.62-19.03l-35.92,2.35Z" style="stroke-width: 0px;"/>
    <path d="M592.2,192.64c-10.4-6.98-21.36-13.33-32.57-18.88l-15.97,32.26c9.8,4.85,19.39,10.41,28.49,16.51l20.05-29.9Z" style="stroke-width: 0px;"/>
    <path d="M714.49,375.67c-2.43-12.28-5.71-24.51-9.74-36.36l-34.09,11.58c3.52,10.36,6.38,21.05,8.51,31.78l35.31-7Z" style="stroke-width: 0px;"/>
    <path d="M622.02,215.58l-23.76,27.04c8.23,7.23,16.06,15.07,23.28,23.3l27.07-23.74c-8.24-9.4-17.19-18.35-26.58-26.61Z" style="stroke-width: 0px;"/>
    <path d="M671.71,591.68c6.95-10.42,13.28-21.39,18.8-32.61l-32.3-15.9c-4.83,9.81-10.37,19.41-16.45,28.52l29.94,19.99Z" style="stroke-width: 0px;"/>
    <path d="M641.59,292.03c6.09,9.1,11.63,18.68,16.48,28.48l32.27-15.95c-5.54-11.2-11.87-22.16-18.83-32.56l-29.92,20.02Z" style="stroke-width: 0px;"/>
    <path d="M670.79,512.75l34.1,11.53c4.01-11.85,7.26-24.09,9.68-36.38l-35.32-6.95c-2.12,10.75-4.96,21.45-8.46,31.81Z" style="stroke-width: 0px;"/>
    <path d="M648.76,621.64l-27.08-23.72c-3.68,4.2-7.54,8.33-11.48,12.27l25.46,25.46c4.5-4.5,8.91-9.22,13.11-14.01Z" style="stroke-width: 0px;"/>
    <path d="M416.57,441.23c-.15-.25-.31-.5-.44-.75.14.26.29.5.44.75Z" style="stroke-width: 0px;"/>
    <path d="M417.64,442.82c-.21-.27-.42-.54-.61-.83.19.29.4.55.61.83Z" style="stroke-width: 0px;"/>
    <path d="M444.73,419.27l5.27,5.27v-190.54c0-9.94-8.06-18-18-18s-18,8.06-18,18v198c0-4.6,1.76-9.21,5.27-12.72,7.03-7.03,18.43-7.03,25.46,0Z" style="stroke-width: 0px;"/>
    <path d="M414.56,436.4c-.07-.29-.16-.59-.22-.88.06.3.14.59.22.88Z" style="stroke-width: 0px;"/>
    <path d="M414.2,434.54c-.04-.26-.08-.51-.11-.77.03.26.07.51.11.77Z" style="stroke-width: 0px;"/>
    <path d="M418.08,443.4c.38.46.78.91,1.21,1.33h-.01c-.43-.44-.82-.88-1.2-1.33Z" style="stroke-width: 0px;"/>
    <path d="M415.74,439.68c-.12-.26-.26-.52-.37-.79.11.27.24.53.37.79Z" style="stroke-width: 0px;"/>
    <path d="M415.08,438.08c-.1-.29-.21-.57-.3-.86.09.29.2.57.3.86Z" style="stroke-width: 0px;"/>
    <path d="M416.12,440.48c-.14-.26-.26-.53-.39-.8.13.27.25.54.39.8Z" style="stroke-width: 0px;"/>
    <path d="M414.35,435.52c-.06-.32-.1-.65-.15-.97.05.33.08.65.15.97Z" style="stroke-width: 0px;"/>
    <path d="M415.37,438.89c-.11-.26-.2-.54-.29-.8.1.27.18.54.29.8Z" style="stroke-width: 0px;"/>
    <path d="M417.03,441.99c-.16-.25-.31-.5-.46-.76.15.25.29.51.46.76Z" style="stroke-width: 0px;"/>
    <path d="M414.78,437.23c-.08-.27-.14-.55-.21-.82.07.28.13.55.21.82Z" style="stroke-width: 0px;"/>
    <path d="M418.08,443.4c-.15-.19-.29-.39-.44-.59.15.19.28.4.44.59Z" style="stroke-width: 0px;"/>
    <path d="M414,432c0,.6.03,1.19.09,1.78-.06-.58-.09-1.18-.09-1.78h0Z" style="stroke-width: 0px;"/>
    <path d="M450,432c0,9.94-8.06,18-18,18-4.97,0-9.46-2.01-12.72-5.26l101.81,101.81c3.51,3.51,8.12,5.27,12.73,5.27s9.21-1.76,12.73-5.27c7.03-7.03,7.03-18.43,0-25.46l-96.55-96.55v7.46Z" style="stroke-width: 0px;"/>
    <path d="M450,432v-7.46l-5.27-5.27c-7.03-7.03-18.43-7.03-25.46,0-3.51,3.51-5.27,8.12-5.27,12.72h0c0,.61.03,1.2.09,1.78.03.26.07.51.11.77.05.33.09.65.15.97.06.3.14.59.22.88.07.28.13.55.21.82.09.29.2.57.3.86.1.27.19.54.29.8.11.27.24.53.37.79.13.27.25.54.39.8.14.26.29.5.44.75.15.25.3.51.46.76.19.28.4.55.61.83.15.19.28.4.44.59.37.46.77.9,1.2,1.32h.01c3.26,3.26,7.75,5.27,12.72,5.27,9.94,0,18-8.06,18-18Z" style="stroke-width: 0px;"/>
  </g>
</svg>