<?xml version="1.0" encoding="UTF-8"?>
<svg id="icon" xmlns="http://www.w3.org/2000/svg" viewBox="0 0 864 864">
  <g id="other_copy" data-name="other copy">
    <path d="M516.07,268.96c-26.61-11.25-54.89-16.96-84.07-16.96s-57.46,5.71-84.07,16.96c-25.72,10.88-48.82,26.46-68.67,46.3-19.85,19.85-35.43,42.95-46.31,68.67-11.25,26.61-16.96,54.89-16.96,84.07s5.71,57.46,16.96,84.07c10.88,25.72,26.46,48.82,46.31,68.67,19.85,19.85,42.95,35.43,68.67,46.3,26.61,11.25,54.89,16.96,84.07,16.96s57.46-5.71,84.07-16.96c25.72-10.88,48.82-26.46,68.67-46.3,19.85-19.85,35.43-42.95,46.31-68.67,11.25-26.61,16.96-54.89,16.96-84.07s-5.71-57.46-16.96-84.07c-10.88-25.72-26.46-48.82-46.31-68.67-19.85-19.85-42.95-35.43-68.67-46.3ZM572.01,608.01l-140.01-140.01,140.01,140.01c-35.83,35.83-85.33,57.99-140.01,57.99s-104.18-22.16-140.01-57.99l140.01-140.01-140.01,140.01c-35.83-35.83-57.99-85.33-57.99-140.01s22.16-104.18,57.99-140.01l140.01,140.01-140.01-140.01c35.83-35.83,85.33-57.99,140.01-57.99v198h0l140.01-140.01c35.83,35.83,57.99,85.33,57.99,140.01s-22.16,104.18-57.99,140.01Z" style="fill: none; stroke-width: 0px;"/>
    <path d="M582.61,291.93l14.4-14.4c-34.18-29.64-76.43-50.22-123.01-58.03v8.5h-84v-8.5c-119.18,20-210,123.63-210,248.5,0,139.18,112.82,252,252,252s252-112.82,252-252c0-63.11-23.2-120.8-61.53-165.01l-14.4,14.4-25.46-25.46ZM648,468c0,29.18-5.71,57.46-16.96,84.07-10.88,25.72-26.46,48.82-46.31,68.67-19.85,19.85-42.95,35.43-68.67,46.3-26.61,11.25-54.89,16.96-84.07,16.96s-57.46-5.71-84.07-16.96c-25.72-10.88-48.82-26.46-68.67-46.3-19.85-19.85-35.43-42.95-46.31-68.67-11.25-26.61-16.96-54.89-16.96-84.07s5.71-57.46,16.96-84.07c10.88-25.72,26.46-48.82,46.31-68.67,19.85-19.85,42.95-35.43,68.67-46.3,26.61-11.25,54.89-16.96,84.07-16.96s57.46,5.71,84.07,16.96c25.72,10.88,48.82,26.46,68.67,46.3,19.85,19.85,35.43,42.95,46.31,68.67,11.25,26.61,16.96,54.89,16.96,84.07Z" style="stroke-width: 0px;"/>
    <path d="M384,192h6v36h84v-36h6c9.94,0,18-8.06,18-18s-8.06-18-18-18h-96c-9.94,0-18,8.06-18,18s8.06,18,18,18Z" style="stroke-width: 0px;"/>
    <path d="M618.68,213.44c-7.03-7.03-18.43-7.03-25.46,0s-7.03,18.43,0,25.46l21.21,21.21-17.42,17.42-14.4,14.4,25.46,25.46,14.4-14.4,17.42-17.42,21.21,21.21c3.52,3.52,8.12,5.27,12.73,5.27s9.21-1.76,12.73-5.27c7.03-7.03,7.03-18.43,0-25.46l-67.88-67.88Z" style="stroke-width: 0px;"/>
    <path d="M432,468h0v-198c-54.68,0-104.18,22.16-140.01,57.99s-57.99,85.33-57.99,140.01,22.16,104.18,57.99,140.01c35.83,35.83,85.33,57.99,140.01,57.99s104.18-22.16,140.01-57.99c35.83-35.83,57.99-85.33,57.99-140.01s-22.16-104.18-57.99-140.01l-140.01,140.01Z" style="stroke-width: 0px;"/>
  </g>
</svg>