<?xml version="1.0" encoding="UTF-8"?>
<svg id="icon" xmlns="http://www.w3.org/2000/svg" viewBox="0 0 864 864">
  <g id="other_copy" data-name="other copy">
    <path d="M432,144c-159.06,0-288,128.94-288,288s128.94,288,288,288,288-128.94,288-288-128.94-288-288-288ZM450,432c0,.17-.02.33-.02.49-.01.36-.02.72-.05,1.07-.02.28-.06.56-.1.84-.04.29-.08.58-.13.86-.06.32-.13.64-.21.95-.06.24-.12.48-.18.72-.09.33-.2.66-.31.98-.08.23-.16.45-.25.67-.12.31-.25.61-.39.91-.11.24-.22.47-.34.71-.14.27-.28.53-.43.78-.15.26-.3.51-.46.77-.14.22-.29.43-.44.65-.19.27-.39.54-.59.8-.15.19-.3.37-.46.55-.22.26-.45.51-.69.76-.17.18-.35.35-.53.52-.24.22-.47.44-.72.66-.22.19-.45.37-.68.55-.22.17-.44.34-.67.5-.29.21-.6.4-.91.59-.14.09-.27.18-.41.27l-124.71,72c-2.83,1.64-5.93,2.41-8.98,2.41-6.22,0-12.27-3.23-15.61-9-4.97-8.61-2.02-19.62,6.59-24.59l115.71-66.8v-187.61c0-9.94,8.06-18,18-18s18,8.06,18,18v198Z" style="stroke-width: 0px;"/>
  </g>
</svg>