<?xml version="1.0" encoding="UTF-8"?>
<svg id="icon" xmlns="http://www.w3.org/2000/svg" viewBox="0 0 864 864">
  <g id="other_copy" data-name="other copy">
    <path d="M530.08,199.79c-31.04-13.13-64.04-19.79-98.08-19.79s-67.03,6.66-98.08,19.79c-30,12.69-56.96,30.87-80.11,54.02-23.15,23.15-41.33,50.11-54.02,80.11-13.13,31.04-19.79,64.04-19.79,98.08s6.66,67.03,19.79,98.08c12.69,30,30.87,56.96,54.02,80.11,23.15,23.16,50.11,41.33,80.11,54.02,31.04,13.13,64.04,19.79,98.08,19.79s67.03-6.66,98.08-19.79c30-12.69,56.96-30.87,80.11-54.02,23.15-23.15,41.33-50.11,54.02-80.11,13.13-31.04,19.79-64.04,19.79-98.08s-6.66-67.03-19.79-98.08c-12.69-30-30.87-56.96-54.02-80.11-23.15-23.16-50.11-41.33-80.11-54.02ZM450,630c0,9.94-8.06,18-18,18s-18-8.06-18-18v-61.27l-1.88,7.03c-2.15,8.04-9.43,13.35-17.38,13.35-1.54,0-3.11-.2-4.67-.62-9.6-2.57-15.3-12.44-12.73-22.05l37.27-139.09c.02-.09.06-.18.09-.27.1-.36.22-.72.35-1.08.08-.22.15-.44.24-.66.13-.32.27-.63.41-.93.11-.24.23-.49.35-.73.13-.26.28-.51.43-.76.16-.27.31-.54.48-.79.14-.21.29-.41.43-.61.2-.27.39-.55.6-.81.15-.19.31-.36.47-.54.22-.25.44-.51.68-.75.18-.18.37-.36.56-.53.23-.21.45-.43.69-.63.22-.19.46-.37.69-.55.21-.16.43-.33.65-.49.27-.19.56-.37.84-.54.2-.12.39-.25.6-.36.31-.18.63-.33.95-.49.2-.1.39-.2.59-.28.32-.14.65-.27.98-.39.22-.08.44-.17.66-.24.3-.1.62-.19.93-.27.27-.07.54-.15.81-.21.27-.06.54-.11.82-.15.33-.06.65-.11.99-.15.24-.03.48-.05.71-.06.37-.03.74-.05,1.11-.06.1,0,.19-.01.29-.01.14,0,.28.02.43.02.35,0,.7.02,1.06.05.29.02.58.06.87.1.28.04.57.08.85.13.35.06.7.14,1.05.23.14.03.27.05.41.09.09.02.17.06.26.09.37.1.73.22,1.08.35.22.08.43.15.65.24.32.13.63.27.95.41.24.11.48.22.71.34.26.14.51.28.77.43.26.15.53.31.78.48.21.14.42.29.62.44.27.2.54.39.8.6.19.15.36.31.54.47.25.22.51.44.75.68.18.18.35.36.52.55.22.23.43.46.64.7.19.22.36.45.53.68.17.22.34.44.5.67.18.27.35.54.52.82.13.21.26.41.38.63.17.3.32.61.47.92.1.21.21.41.3.63.14.31.26.63.38.94.09.23.18.46.26.7.1.29.18.59.26.89.08.28.15.56.22.84.06.26.1.52.15.79.06.34.12.67.16,1.02.03.23.04.46.06.69.03.38.05.76.06,1.14,0,.09.01.18.01.28v198Z" style="fill: none; stroke-width: 0px;"/>
    <path d="M432,144c-159.06,0-288,128.94-288,288s128.94,288,288,288,288-128.94,288-288-128.94-288-288-288ZM684,432c0,34.04-6.66,67.03-19.79,98.08-12.69,30-30.87,56.96-54.02,80.11-23.15,23.16-50.11,41.33-80.11,54.02-31.04,13.13-64.04,19.79-98.08,19.79s-67.03-6.66-98.08-19.79c-30-12.69-56.96-30.87-80.11-54.02-23.15-23.15-41.33-50.11-54.02-80.11-13.13-31.04-19.79-64.04-19.79-98.08s6.66-67.03,19.79-98.08c12.69-30,30.87-56.96,54.02-80.11,23.15-23.16,50.11-41.33,80.11-54.02,31.04-13.13,64.04-19.79,98.08-19.79s67.03,6.66,98.08,19.79c30,12.69,56.96,30.87,80.11,54.02,23.15,23.15,41.33,50.11,54.02,80.11,13.13,31.04,19.79,64.04,19.79,98.08Z" style="stroke-width: 0px;"/>
    <path d="M426.35,414.92c.31-.1.62-.19.93-.27-.31.08-.62.17-.93.27Z" style="stroke-width: 0px;"/>
    <path d="M435.2,414.3c.35.06.7.14,1.05.23-.35-.08-.7-.16-1.05-.23Z" style="stroke-width: 0px;"/>
    <path d="M424.71,415.55c.32-.14.65-.27.98-.39-.33.12-.66.25-.98.39Z" style="stroke-width: 0px;"/>
    <path d="M428.08,414.44c.27-.06.54-.11.82-.15-.27.05-.55.09-.82.15Z" style="stroke-width: 0px;"/>
    <path d="M432,414c-.1,0-.19.01-.29.01.24,0,.48,0,.71,0-.14,0-.28-.02-.43-.02Z" style="stroke-width: 0px;"/>
    <path d="M436.92,414.7c.37.1.73.22,1.08.35-.36-.13-.72-.25-1.08-.35Z" style="stroke-width: 0px;"/>
    <path d="M433.49,414.08c.29.02.58.06.87.1-.29-.04-.57-.07-.87-.1Z" style="stroke-width: 0px;"/>
    <path d="M429.89,414.13c.24-.03.48-.05.71-.06-.24.02-.48.04-.71.06Z" style="stroke-width: 0px;"/>
    <path d="M438.65,415.29c.32.13.63.27.95.41-.31-.15-.62-.29-.95-.41Z" style="stroke-width: 0px;"/>
    <path d="M449.09,426.36c.1.29.18.59.26.89-.08-.3-.16-.6-.26-.89Z" style="stroke-width: 0px;"/>
    <path d="M421.72,417.23c.27-.19.56-.37.84-.54-.29.18-.57.35-.84.54Z" style="stroke-width: 0px;"/>
    <path d="M448.45,424.72c.14.31.26.63.38.94-.12-.32-.24-.63-.38-.94Z" style="stroke-width: 0px;"/>
    <path d="M449.39,436.66l-35.39,132.07v61.27c0,9.94,8.06,18,18,18s18-8.06,18-18v-198c0-.09-.01-.18-.01-.28.02,1.63-.16,3.29-.6,4.94Z" style="stroke-width: 0px;"/>
    <path d="M447.68,423.17c.17.3.32.61.47.92-.15-.31-.3-.62-.47-.92Z" style="stroke-width: 0px;"/>
    <path d="M449.87,429.9c.03.23.04.46.06.69-.02-.23-.04-.46-.06-.69Z" style="stroke-width: 0px;"/>
    <path d="M449.56,428.1c.06.26.1.52.15.79-.05-.26-.09-.53-.15-.79Z" style="stroke-width: 0px;"/>
    <path d="M441.87,416.95c.21.14.42.29.62.44-.21-.15-.41-.3-.62-.44Z" style="stroke-width: 0px;"/>
    <path d="M443.29,417.99c.19.15.36.31.54.47-.18-.16-.36-.32-.54-.47Z" style="stroke-width: 0px;"/>
    <path d="M440.31,416.04c.26.14.52.29.77.43-.25-.15-.51-.3-.77-.43Z" style="stroke-width: 0px;"/>
    <path d="M444.58,419.14c.18.18.35.36.52.55-.17-.18-.34-.37-.52-.55Z" style="stroke-width: 0px;"/>
    <path d="M446.77,421.73c.18.27.35.54.52.82-.17-.28-.34-.55-.52-.82Z" style="stroke-width: 0px;"/>
    <path d="M445.74,420.38c.19.22.36.45.53.68-.18-.23-.35-.46-.53-.68Z" style="stroke-width: 0px;"/>
    <path d="M423.17,416.33c.31-.18.63-.33.95-.49-.32.16-.64.32-.95.49Z" style="stroke-width: 0px;"/>
    <path d="M416.05,423.68c.13-.26.28-.51.43-.76-.15.25-.29.5-.43.76Z" style="stroke-width: 0px;"/>
    <path d="M419.13,419.42c.18-.18.37-.36.56-.53-.19.18-.38.35-.56.53Z" style="stroke-width: 0px;"/>
    <path d="M417.99,420.71c.15-.19.31-.36.47-.54-.16.18-.32.36-.47.54Z" style="stroke-width: 0px;"/>
    <path d="M416.96,422.13c.14-.21.29-.41.43-.61-.15.2-.29.4-.43.61Z" style="stroke-width: 0px;"/>
    <path d="M414.7,427.07c.1-.37.22-.72.35-1.08-.13.35-.24.71-.35,1.08Z" style="stroke-width: 0px;"/>
    <path d="M415.29,425.34c.13-.32.27-.63.41-.93-.14.31-.28.62-.41.93Z" style="stroke-width: 0px;"/>
    <path d="M420.38,418.26c.23-.19.46-.37.69-.55-.23.18-.47.36-.69.55Z" style="stroke-width: 0px;"/>
    <path d="M418.46,420.17c.22-.25.44-.51.68-.75-.23.24-.46.49-.68.75Z" style="stroke-width: 0px;"/>
    <path d="M446.27,421.06c.17.22.34.44.5.67-.16-.23-.33-.45-.5-.67Z" style="stroke-width: 0px;"/>
    <path d="M443.83,418.46c.25.22.51.44.75.68-.24-.24-.49-.46-.75-.68Z" style="stroke-width: 0px;"/>
    <path d="M445.1,419.68c.22.23.43.46.64.7-.2-.24-.42-.47-.64-.7Z" style="stroke-width: 0px;"/>
    <path d="M442.49,417.39c.27.2.54.39.8.6-.26-.21-.53-.4-.8-.6Z" style="stroke-width: 0px;"/>
    <path d="M438.01,415.05c.22.08.43.15.65.24-.21-.08-.43-.16-.65-.24Z" style="stroke-width: 0px;"/>
    <path d="M439.6,415.7c.24.11.48.22.71.34-.23-.12-.47-.23-.71-.34Z" style="stroke-width: 0px;"/>
    <path d="M441.08,416.48c.26.15.53.31.78.48-.25-.17-.52-.32-.78-.48Z" style="stroke-width: 0px;"/>
    <path d="M449.71,428.88c.06.34.12.67.16,1.02-.04-.34-.1-.68-.16-1.02Z" style="stroke-width: 0px;"/>
    <path d="M449.35,427.25c.08.28.15.56.22.84-.06-.28-.14-.56-.22-.84Z" style="stroke-width: 0px;"/>
    <path d="M447.3,422.55c.13.21.26.41.38.63-.12-.21-.25-.42-.38-.63Z" style="stroke-width: 0px;"/>
    <path d="M436.66,414.61c-.14-.04-.27-.05-.41-.09.23.05.45.11.67.17-.09-.03-.17-.06-.26-.09Z" style="stroke-width: 0px;"/>
    <path d="M448.83,425.66c.09.23.18.46.26.7-.08-.24-.17-.47-.26-.7Z" style="stroke-width: 0px;"/>
    <path d="M414.7,427.07c-.03.09-.06.18-.09.27l-37.27,139.09c-2.57,9.6,3.13,19.47,12.73,22.05,1.56.42,3.13.62,4.67.62,7.95,0,15.22-5.3,17.38-13.35l1.88-7.03v-136.73c0-1.71.25-3.36.7-4.93Z" style="stroke-width: 0px;"/>
    <path d="M449.93,430.59c.03.38.05.75.06,1.14,0-.38-.03-.76-.06-1.14Z" style="stroke-width: 0px;"/>
    <path d="M425.69,415.16c.22-.08.44-.17.66-.24-.22.07-.44.16-.66.24Z" style="stroke-width: 0px;"/>
    <path d="M419.69,418.89c.23-.21.45-.43.69-.63-.24.2-.46.41-.69.63Z" style="stroke-width: 0px;"/>
    <path d="M421.08,417.72c.21-.16.43-.33.65-.49-.22.15-.43.32-.65.49Z" style="stroke-width: 0px;"/>
    <path d="M417.39,421.52c.2-.27.39-.54.6-.81-.21.26-.41.53-.6.81Z" style="stroke-width: 0px;"/>
    <path d="M415.05,426c.08-.22.15-.44.24-.66-.09.22-.16.44-.24.66Z" style="stroke-width: 0px;"/>
    <path d="M422.57,416.69c.2-.12.39-.25.6-.36-.2.11-.4.24-.6.36Z" style="stroke-width: 0px;"/>
    <path d="M416.47,422.93c.16-.27.31-.54.48-.79-.17.26-.33.53-.48.79Z" style="stroke-width: 0px;"/>
    <path d="M415.7,424.41c.11-.24.23-.49.35-.73-.12.24-.24.48-.35.73Z" style="stroke-width: 0px;"/>
    <path d="M427.28,414.65c.27-.07.54-.15.81-.21-.27.06-.54.13-.81.21Z" style="stroke-width: 0px;"/>
    <path d="M428.9,414.28c.33-.06.65-.11.99-.15-.33.04-.66.09-.99.15Z" style="stroke-width: 0px;"/>
    <path d="M430.6,414.07c.37-.03.74-.05,1.11-.06-.37,0-.74.03-1.11.06Z" style="stroke-width: 0px;"/>
    <path d="M424.12,415.84c.2-.1.39-.2.59-.28-.2.09-.39.19-.59.28Z" style="stroke-width: 0px;"/>
    <path d="M432.43,414.02c.35,0,.71.02,1.06.05-.35-.03-.71-.04-1.06-.05Z" style="stroke-width: 0px;"/>
    <path d="M434.35,414.17c.28.04.57.08.85.13-.28-.05-.57-.09-.85-.13Z" style="stroke-width: 0px;"/>
    <path d="M448.15,424.09c.1.21.21.41.3.63-.09-.21-.2-.42-.3-.63Z" style="stroke-width: 0px;"/>
    <path d="M449.99,431.72c0-.38-.03-.76-.06-1.14-.02-.23-.03-.46-.06-.69-.04-.34-.1-.68-.16-1.02-.05-.26-.09-.53-.15-.79-.06-.28-.14-.56-.22-.84-.08-.3-.16-.6-.26-.89-.08-.24-.17-.47-.26-.7-.12-.32-.24-.63-.38-.94-.09-.21-.2-.42-.3-.63-.15-.31-.3-.62-.47-.92-.12-.21-.25-.42-.38-.63-.17-.28-.34-.55-.52-.82-.16-.23-.33-.45-.5-.67-.17-.23-.35-.46-.53-.68-.2-.24-.42-.47-.64-.7-.17-.18-.34-.37-.52-.55-.24-.24-.49-.46-.75-.68-.18-.16-.36-.32-.54-.47-.26-.21-.53-.4-.8-.6-.21-.15-.41-.3-.62-.44-.25-.17-.52-.32-.78-.48-.25-.15-.51-.3-.77-.43-.23-.12-.47-.23-.71-.34-.31-.14-.62-.29-.95-.41-.21-.08-.43-.16-.65-.24-.36-.13-.72-.25-1.08-.35-.22-.06-.45-.12-.67-.17-.35-.09-.7-.16-1.05-.23-.28-.05-.56-.09-.85-.13-.29-.04-.58-.07-.87-.1-.35-.03-.7-.04-1.06-.05-.24,0-.48-.01-.71,0-.37,0-.74.03-1.11.06-.24.02-.48.04-.71.06-.33.04-.66.09-.99.15-.27.05-.55.09-.82.15-.27.06-.54.13-.81.21-.31.08-.62.17-.93.27-.22.07-.44.16-.66.24-.33.12-.66.25-.98.39-.2.09-.39.19-.59.28-.32.16-.64.32-.95.49-.2.11-.4.24-.6.36-.29.18-.57.35-.84.54-.22.15-.44.32-.65.49-.23.18-.47.36-.69.55-.24.2-.46.41-.69.63-.19.18-.38.35-.56.53-.23.24-.46.49-.68.75-.16.18-.32.36-.47.54-.21.26-.41.53-.6.81-.15.2-.29.4-.43.61-.17.26-.33.53-.48.79-.15.25-.29.5-.43.76-.12.24-.24.48-.35.73-.14.31-.28.62-.41.93-.09.22-.16.44-.24.66-.12.35-.24.71-.35,1.08-.45,1.57-.7,3.22-.7,4.93v136.73l35.39-132.07c.44-1.65.62-3.31.6-4.94Z" style="stroke-width: 0px;"/>
  </g>
</svg>