<?xml version="1.0" encoding="UTF-8"?>
<svg id="icon" xmlns="http://www.w3.org/2000/svg" viewBox="0 0 864 864">
  <g id="other_copy" data-name="other copy">
    <path d="M180,684h504s0-504,0-504H180v504ZM259.13,552.59c-2.83,1.64-5.93,2.41-8.98,2.41-6.22,0-12.27-3.23-15.61-9-4.97-8.61-2.02-19.62,6.59-24.59,2.83-1.64,5.93-2.41,8.98-2.41,6.22,0,12.27,3.23,15.6,9,4.97,8.61,2.02,19.62-6.59,24.59ZM660,432c0,9.94-8.06,18-18,18s-18-8.06-18-18,8.06-18,18-18,18,8.06,18,18ZM604.87,311.41c2.83-1.64,5.93-2.41,8.98-2.41,6.22,0,12.27,3.23,15.61,9,4.97,8.61,2.02,19.62-6.59,24.59-2.83,1.64-5.93,2.41-8.98,2.41-6.22,0-12.27-3.23-15.6-9-4.97-8.61-2.02-19.62,6.59-24.59ZM598.28,528c3.33-5.77,9.38-9,15.6-9,3.05,0,6.15.78,8.98,2.41,8.61,4.97,11.56,15.98,6.59,24.59-3.33,5.77-9.38,9-15.61,9-3.05,0-6.15-.78-8.98-2.41-8.61-4.97-11.56-15.98-6.59-24.59ZM521.41,241.13c3.33-5.77,9.38-9,15.6-9,3.05,0,6.15.78,8.98,2.41,8.61,4.97,11.56,15.98,6.59,24.59-3.33,5.77-9.38,9-15.61,9-3.05,0-6.15-.78-8.98-2.41-8.61-4.97-11.56-15.98-6.59-24.59ZM528,598.28c2.83-1.64,5.93-2.41,8.98-2.41,6.22,0,12.27,3.23,15.61,9,4.97,8.61,2.02,19.62-6.59,24.59-2.83,1.64-5.93,2.41-8.98,2.41-6.22,0-12.27-3.23-15.61-9-4.97-8.61-2.02-19.62,6.59-24.59ZM432,204c9.94,0,18,8.06,18,18s-8.06,18-18,18-18-8.06-18-18,8.06-18,18-18ZM377.34,566.43l37.27-139.09c.02-.09.06-.18.09-.27.1-.36.22-.72.35-1.08.08-.22.15-.44.24-.66.13-.32.27-.63.41-.94.11-.24.23-.49.35-.72.14-.26.28-.51.43-.76.16-.27.31-.53.48-.79.14-.21.29-.42.44-.62.19-.27.39-.54.59-.8.15-.19.32-.37.48-.56.22-.25.44-.5.67-.73.18-.19.38-.37.57-.55.22-.21.44-.42.67-.61.23-.2.48-.38.72-.57.21-.16.41-.32.62-.47.28-.2.58-.38.88-.56.19-.11.37-.23.56-.34.32-.18.66-.35.99-.51.18-.09.36-.18.55-.26.33-.15.68-.28,1.02-.41.21-.08.41-.16.62-.23.32-.11.64-.19.97-.28.25-.07.51-.14.77-.2.28-.06.57-.11.86-.16.31-.05.63-.11.95-.15.25-.03.5-.05.75-.07.36-.03.72-.05,1.08-.05.1,0,.2-.01.3-.01.15,0,.29.02.44.02.34,0,.69.02,1.04.05.3.02.59.06.88.1.28.04.56.08.84.13.36.06.71.14,1.06.23.14.03.27.05.41.09.09.02.17.06.27.09.37.1.73.22,1.08.35.22.08.44.15.65.24.32.13.63.27.94.41.24.11.48.22.72.35.26.14.51.28.76.43.27.16.53.31.79.48.21.14.41.29.61.43.27.2.55.39.81.6.18.15.36.3.53.46.26.23.51.45.76.69.18.17.35.36.52.54.22.23.44.46.64.71.18.22.35.44.53.67.17.22.35.45.51.68.18.26.35.54.52.81.13.21.26.42.39.63.17.3.32.6.47.91.1.21.21.42.3.63.14.31.26.62.38.94.09.23.18.47.26.7.1.29.18.59.26.89.08.28.15.56.22.85.06.26.1.52.15.78.06.34.11.68.16,1.02.03.23.04.46.06.69.03.38.05.76.06,1.14,0,.09.01.18.01.28v207c0,.51-.03,1-.08,1.5.04.5.08.99.08,1.5,0,9.94-8.06,18-18,18s-18-8.06-18-18c0-.51.03-1,.08-1.5-.04-.5-.08-.99-.08-1.5v-70.27l-1.88,7.03c-2.15,8.04-9.43,13.35-17.38,13.35-1.54,0-3.11-.2-4.67-.62-9.6-2.57-15.3-12.44-12.73-22.05ZM318,234.55c2.83-1.64,5.93-2.41,8.98-2.41,6.22,0,12.27,3.23,15.61,9,4.97,8.61,2.02,19.62-6.59,24.59-2.83,1.64-5.93,2.41-8.98,2.41-6.22,0-12.27-3.23-15.61-9-4.97-8.61-2.02-19.62,6.59-24.59ZM311.41,604.87c3.33-5.77,9.38-9,15.61-9,3.05,0,6.15.78,8.98,2.41,8.61,4.97,11.56,15.98,6.59,24.59-3.33,5.77-9.38,9-15.6,9-3.05,0-6.15-.78-8.98-2.41-8.61-4.97-11.56-15.98-6.59-24.59ZM234.55,318c3.33-5.77,9.38-9,15.61-9,3.05,0,6.15.78,8.98,2.41,8.61,4.97,11.56,15.98,6.59,24.59-3.33,5.77-9.38,9-15.6,9-3.05,0-6.15-.78-8.98-2.41-8.61-4.97-11.56-15.98-6.59-24.59ZM222,414c9.94,0,18,8.06,18,18s-8.06,18-18,18-18-8.06-18-18,8.06-18,18-18Z" style="fill: none; stroke-width: 0px;"/>
    <path d="M684,144H180c-19.88,0-36,16.12-36,36v504c0,19.88,16.12,36,36,36h504c19.88,0,36-16.12,36-36V180c0-19.88-16.12-36-36-36ZM684,684H180s0-504,0-504h504v504Z" style="stroke-width: 0px;"/>
    <path d="M432,657c-9.44,0-17.16-7.26-17.92-16.5-.04.5-.08.99-.08,1.5,0,9.94,8.06,18,18,18s18-8.06,18-18c0-.51-.03-1-.08-1.5-.76,9.24-8.49,16.5-17.92,16.5Z" style="stroke-width: 0px;"/>
    <circle cx="432" cy="222" r="18" style="stroke-width: 0px;"/>
    <circle cx="642" cy="432" r="18" style="stroke-width: 0px;"/>
    <circle cx="222" cy="432" r="18" style="stroke-width: 0px;"/>
    <path d="M318,629.45c2.83,1.64,5.93,2.41,8.98,2.41,6.22,0,12.27-3.23,15.6-9,4.97-8.61,2.02-19.62-6.59-24.59-2.83-1.64-5.93-2.41-8.98-2.41-6.22,0-12.27,3.23-15.61,9-4.97,8.61-2.02,19.62,6.59,24.59Z" style="stroke-width: 0px;"/>
    <path d="M528,265.72c2.83,1.64,5.93,2.41,8.98,2.41,6.22,0,12.27-3.23,15.61-9,4.97-8.61,2.02-19.62-6.59-24.59-2.83-1.64-5.93-2.41-8.98-2.41-6.22,0-12.27,3.23-15.6,9-4.97,8.61-2.02,19.62,6.59,24.59Z" style="stroke-width: 0px;"/>
    <path d="M604.87,552.59c2.83,1.64,5.93,2.41,8.98,2.41,6.22,0,12.27-3.23,15.61-9,4.97-8.61,2.02-19.62-6.59-24.59-2.83-1.64-5.93-2.41-8.98-2.41-6.22,0-12.27,3.23-15.6,9-4.97,8.61-2.02,19.62,6.59,24.59Z" style="stroke-width: 0px;"/>
    <path d="M241.13,342.59c2.83,1.64,5.93,2.41,8.98,2.41,6.22,0,12.27-3.23,15.6-9,4.97-8.61,2.02-19.62-6.59-24.59-2.83-1.64-5.93-2.41-8.98-2.41-6.22,0-12.27,3.23-15.61,9-4.97,8.61-2.02,19.62,6.59,24.59Z" style="stroke-width: 0px;"/>
    <path d="M250.12,519c-3.05,0-6.15.78-8.98,2.41-8.61,4.97-11.56,15.98-6.59,24.59,3.33,5.77,9.38,9,15.61,9,3.05,0,6.15-.78,8.98-2.41,8.61-4.97,11.56-15.98,6.59-24.59-3.33-5.77-9.38-9-15.6-9Z" style="stroke-width: 0px;"/>
    <path d="M613.88,345c3.05,0,6.15-.78,8.98-2.41,8.61-4.97,11.56-15.98,6.59-24.59-3.33-5.77-9.38-9-15.61-9-3.05,0-6.15.78-8.98,2.41-8.61,4.97-11.56,15.98-6.59,24.59,3.33,5.77,9.38,9,15.6,9Z" style="stroke-width: 0px;"/>
    <path d="M537.02,631.87c3.05,0,6.15-.78,8.98-2.41,8.61-4.97,11.56-15.98,6.59-24.59-3.33-5.77-9.38-9-15.61-9-3.05,0-6.15.78-8.98,2.41-8.61,4.97-11.56,15.98-6.59,24.59,3.33,5.77,9.38,9,15.61,9Z" style="stroke-width: 0px;"/>
    <path d="M327.02,268.14c3.05,0,6.15-.78,8.98-2.41,8.61-4.97,11.56-15.98,6.59-24.59-3.33-5.77-9.38-9-15.61-9-3.05,0-6.15.78-8.98,2.41-8.61,4.97-11.56,15.98-6.59,24.59,3.33,5.77,9.38,9,15.61,9Z" style="stroke-width: 0px;"/>
    <path d="M424.7,415.56c.33-.15.68-.28,1.02-.41-.34.13-.69.26-1.02.41Z" style="stroke-width: 0px;"/>
    <path d="M438.65,415.29c.32.13.63.27.94.41-.31-.15-.62-.29-.94-.41Z" style="stroke-width: 0px;"/>
    <path d="M440.32,416.05c.26.14.51.28.76.43-.25-.15-.5-.29-.76-.43Z" style="stroke-width: 0px;"/>
    <path d="M436.92,414.7c.37.1.73.22,1.08.35-.36-.13-.72-.25-1.08-.35Z" style="stroke-width: 0px;"/>
    <path d="M432,414c-.1,0-.2.01-.3.01.25,0,.49,0,.74,0-.15,0-.29-.02-.44-.02Z" style="stroke-width: 0px;"/>
    <path d="M433.48,414.07c.29.02.59.06.88.1-.29-.04-.58-.07-.88-.1Z" style="stroke-width: 0px;"/>
    <path d="M435.2,414.3c.35.06.7.14,1.06.23-.35-.08-.7-.16-1.06-.23Z" style="stroke-width: 0px;"/>
    <path d="M441.87,416.95c.21.14.41.29.61.43-.2-.15-.4-.29-.61-.43Z" style="stroke-width: 0px;"/>
    <path d="M443.29,417.99c.18.15.36.3.53.46-.18-.15-.35-.31-.53-.46Z" style="stroke-width: 0px;"/>
    <path d="M447.68,423.18c.17.3.32.6.47.91-.15-.31-.3-.61-.47-.91Z" style="stroke-width: 0px;"/>
    <path d="M446.77,421.73c.18.26.35.54.52.81-.17-.27-.34-.55-.52-.81Z" style="stroke-width: 0px;"/>
    <path d="M445.74,420.39c.18.22.35.44.53.67-.17-.23-.34-.45-.53-.67Z" style="stroke-width: 0px;"/>
    <path d="M444.58,419.14c.18.17.35.36.52.54-.17-.18-.34-.37-.52-.54Z" style="stroke-width: 0px;"/>
    <path d="M428.07,414.44c.28-.06.57-.11.86-.16-.29.05-.57.1-.86.16Z" style="stroke-width: 0px;"/>
    <path d="M429.88,414.14c.25-.03.5-.05.75-.07-.25.02-.5.04-.75.07Z" style="stroke-width: 0px;"/>
    <path d="M417.99,420.72c.15-.19.32-.37.48-.56-.16.18-.32.36-.48.56Z" style="stroke-width: 0px;"/>
    <path d="M416.05,423.68c.13-.26.28-.51.43-.76-.15.25-.29.5-.43.76Z" style="stroke-width: 0px;"/>
    <path d="M414.7,427.07c.1-.37.22-.72.35-1.08-.13.35-.24.71-.35,1.08Z" style="stroke-width: 0px;"/>
    <path d="M415.29,425.34c.13-.32.27-.63.41-.94-.14.31-.28.62-.41.94Z" style="stroke-width: 0px;"/>
    <path d="M416.95,422.13c.14-.21.29-.42.44-.62-.15.21-.3.41-.44.62Z" style="stroke-width: 0px;"/>
    <path d="M419.13,419.43c.19-.19.38-.37.57-.55-.19.18-.39.36-.57.55Z" style="stroke-width: 0px;"/>
    <path d="M423.16,416.33c.32-.18.66-.35.99-.51-.33.16-.67.33-.99.51Z" style="stroke-width: 0px;"/>
    <path d="M448.45,424.72c.14.31.26.62.38.94-.12-.32-.24-.63-.38-.94Z" style="stroke-width: 0px;"/>
    <path d="M421.72,417.24c.29-.2.58-.38.88-.56-.3.18-.59.36-.88.56Z" style="stroke-width: 0px;"/>
    <path d="M420.38,418.27c.23-.2.48-.38.72-.57-.24.19-.49.37-.72.57Z" style="stroke-width: 0px;"/>
    <path d="M426.34,414.92c.32-.11.64-.19.97-.28-.33.09-.65.18-.97.28Z" style="stroke-width: 0px;"/>
    <path d="M414,568.73v70.27c0,.51.03,1,.08,1.5.76-9.24,8.49-16.5,17.92-16.5s17.16,7.26,17.92,16.5c.04-.5.08-.99.08-1.5v-207c0-.09-.01-.18-.01-.28.02,1.63-.16,3.29-.6,4.94l-35.39,132.07Z" style="stroke-width: 0px;"/>
    <path d="M449.87,429.9c.03.23.04.46.06.69-.02-.23-.04-.46-.06-.69Z" style="stroke-width: 0px;"/>
    <path d="M449.56,428.1c.06.26.1.52.15.78-.05-.26-.09-.53-.15-.78Z" style="stroke-width: 0px;"/>
    <path d="M449.09,426.36c.1.29.18.59.26.89-.08-.3-.16-.6-.26-.89Z" style="stroke-width: 0px;"/>
    <path d="M432,624c-9.43,0-17.16,7.26-17.92,16.5.76,9.24,8.49,16.5,17.92,16.5s17.16-7.26,17.92-16.5c-.76-9.24-8.49-16.5-17.92-16.5Z" style="stroke-width: 0px;"/>
    <path d="M415.7,424.41c.11-.24.22-.49.35-.72-.12.24-.24.48-.35.72Z" style="stroke-width: 0px;"/>
    <path d="M432.44,414.02c.35,0,.69.02,1.04.05-.35-.03-.69-.04-1.04-.05Z" style="stroke-width: 0px;"/>
    <path d="M430.62,414.07c.36-.03.72-.05,1.08-.05-.36,0-.72.03-1.08.05Z" style="stroke-width: 0px;"/>
    <path d="M441.08,416.47c.27.16.53.31.79.48-.26-.17-.52-.32-.79-.48Z" style="stroke-width: 0px;"/>
    <path d="M427.3,414.64c.25-.07.51-.14.77-.2-.26.06-.51.13-.77.2Z" style="stroke-width: 0px;"/>
    <path d="M434.36,414.17c.28.04.56.08.84.13-.28-.05-.56-.09-.84-.13Z" style="stroke-width: 0px;"/>
    <path d="M439.6,415.7c.24.11.48.22.72.35-.23-.12-.48-.23-.72-.35Z" style="stroke-width: 0px;"/>
    <path d="M438.01,415.05c.22.08.44.15.65.24-.21-.08-.43-.16-.65-.24Z" style="stroke-width: 0px;"/>
    <path d="M425.72,415.15c.21-.08.41-.16.62-.23-.21.07-.41.15-.62.23Z" style="stroke-width: 0px;"/>
    <path d="M436.66,414.61c-.14-.04-.27-.05-.41-.09.23.05.45.11.67.17-.09-.03-.17-.06-.27-.09Z" style="stroke-width: 0px;"/>
    <path d="M428.93,414.28c.31-.05.63-.11.95-.15-.32.04-.63.09-.95.15Z" style="stroke-width: 0px;"/>
    <path d="M417.39,421.51c.19-.27.39-.54.59-.8-.21.26-.4.53-.59.8Z" style="stroke-width: 0px;"/>
    <path d="M424.15,415.82c.18-.09.36-.18.55-.26-.19.08-.37.18-.55.26Z" style="stroke-width: 0px;"/>
    <path d="M418.47,420.16c.22-.25.44-.5.67-.73-.23.24-.45.48-.67.73Z" style="stroke-width: 0px;"/>
    <path d="M415.05,426c.08-.22.15-.44.24-.66-.09.22-.16.44-.24.66Z" style="stroke-width: 0px;"/>
    <path d="M416.47,422.92c.16-.27.31-.53.48-.79-.17.26-.32.52-.48.79Z" style="stroke-width: 0px;"/>
    <path d="M422.59,416.67c.19-.12.37-.23.56-.34-.19.11-.38.23-.56.34Z" style="stroke-width: 0px;"/>
    <path d="M421.09,417.7c.21-.16.41-.32.62-.47-.21.15-.42.31-.62.47Z" style="stroke-width: 0px;"/>
    <path d="M419.7,418.88c.22-.21.44-.42.67-.61-.23.2-.45.4-.67.61Z" style="stroke-width: 0px;"/>
    <path d="M442.48,417.39c.27.2.55.39.81.6-.26-.21-.53-.41-.81-.6Z" style="stroke-width: 0px;"/>
    <path d="M449.35,427.25c.08.28.15.56.22.85-.06-.29-.14-.57-.22-.85Z" style="stroke-width: 0px;"/>
    <path d="M448.83,425.66c.09.23.18.47.26.7-.08-.24-.17-.47-.26-.7Z" style="stroke-width: 0px;"/>
    <path d="M449.71,428.88c.06.34.12.67.16,1.02-.04-.34-.1-.68-.16-1.02Z" style="stroke-width: 0px;"/>
    <path d="M449.93,430.59c.03.38.05.75.06,1.14,0-.38-.03-.76-.06-1.14Z" style="stroke-width: 0px;"/>
    <path d="M446.27,421.05c.17.22.35.45.51.68-.16-.23-.33-.45-.51-.68Z" style="stroke-width: 0px;"/>
    <path d="M448.15,424.09c.1.21.21.42.3.63-.09-.21-.2-.42-.3-.63Z" style="stroke-width: 0px;"/>
    <path d="M390.07,588.48c1.56.42,3.13.62,4.67.62,7.95,0,15.22-5.3,17.38-13.35l1.88-7.03v-136.73c0-1.71.25-3.36.7-4.93-.03.09-.06.18-.09.27l-37.27,139.09c-2.57,9.6,3.13,19.47,12.73,22.05Z" style="stroke-width: 0px;"/>
    <path d="M443.82,418.45c.26.22.51.45.76.69-.24-.24-.5-.46-.76-.69Z" style="stroke-width: 0px;"/>
    <path d="M445.1,419.68c.22.23.44.46.64.71-.21-.24-.43-.48-.64-.71Z" style="stroke-width: 0px;"/>
    <path d="M447.29,422.54c.13.21.26.42.39.63-.12-.22-.26-.42-.39-.63Z" style="stroke-width: 0px;"/>
    <path d="M414,568.73l35.39-132.07c.44-1.65.62-3.31.6-4.94,0-.38-.03-.76-.06-1.14-.02-.23-.03-.46-.06-.69-.04-.34-.1-.68-.16-1.02-.05-.26-.09-.53-.15-.78-.06-.29-.14-.57-.22-.85-.08-.3-.16-.6-.26-.89-.08-.24-.17-.47-.26-.7-.12-.32-.24-.63-.38-.94-.09-.21-.2-.42-.3-.63-.15-.31-.3-.61-.47-.91-.12-.22-.25-.42-.39-.63-.17-.27-.34-.55-.52-.81-.16-.23-.33-.45-.51-.68-.17-.23-.34-.45-.53-.67-.21-.24-.43-.48-.64-.71-.17-.18-.34-.37-.52-.54-.24-.24-.5-.46-.76-.69-.18-.15-.35-.31-.53-.46-.26-.21-.54-.41-.81-.6-.2-.15-.4-.29-.61-.43-.26-.17-.52-.32-.79-.48-.25-.15-.5-.29-.76-.43-.24-.12-.48-.23-.72-.35-.31-.14-.62-.29-.94-.41-.21-.09-.43-.16-.65-.24-.36-.13-.71-.24-1.08-.35-.22-.06-.45-.12-.67-.17-.35-.09-.7-.16-1.06-.23-.28-.05-.56-.09-.84-.13-.29-.04-.59-.07-.88-.1-.34-.03-.69-.04-1.04-.05-.25,0-.49-.01-.74,0-.36,0-.72.03-1.08.05-.25.02-.5.04-.75.07-.32.04-.63.09-.95.15-.29.05-.57.1-.86.16-.26.06-.51.13-.77.2-.32.09-.65.18-.97.28-.21.07-.41.15-.62.23-.34.13-.69.26-1.02.41-.19.08-.37.18-.55.26-.33.16-.67.33-.99.51-.19.11-.38.23-.56.34-.3.18-.59.36-.88.56-.21.15-.42.31-.62.47-.24.18-.49.37-.72.57-.23.2-.45.4-.67.61-.19.18-.39.36-.57.55-.23.24-.45.48-.67.73-.16.18-.32.36-.48.56-.21.26-.4.53-.59.8-.15.21-.3.41-.44.62-.17.26-.32.52-.48.79-.15.25-.29.5-.43.76-.12.24-.24.48-.35.72-.14.31-.28.62-.41.94-.09.22-.16.44-.24.66-.12.35-.24.71-.35,1.08-.45,1.57-.7,3.22-.7,4.93v136.73Z" style="stroke-width: 0px;"/>
  </g>
</svg>