<?xml version="1.0" encoding="UTF-8"?>
<svg id="icon" xmlns="http://www.w3.org/2000/svg" viewBox="0 0 864 864">
  <g id="other_copy" data-name="other copy">
    <path d="M684,180H180v504s504,0,504,0V180ZM604.87,311.41c2.83-1.64,5.93-2.41,8.98-2.41,6.22,0,12.27,3.23,15.61,9,4.97,8.61,2.02,19.62-6.59,24.59-2.83,1.64-5.93,2.41-8.98,2.41-6.22,0-12.27-3.23-15.61-9-4.97-8.61-2.02-19.62,6.59-24.59ZM521.41,241.13c3.33-5.77,9.38-9,15.6-9,3.05,0,6.15.78,8.98,2.41,8.61,4.97,11.56,15.98,6.59,24.59-3.33,5.77-9.38,9-15.6,9-3.05,0-6.15-.78-8.98-2.41-8.61-4.97-11.56-15.98-6.59-24.59ZM204,432c0-9.94,8.06-18,18-18s18,8.06,18,18-8.06,18-18,18-18-8.06-18-18ZM259.13,552.59c-2.83,1.64-5.93,2.41-8.98,2.41-6.22,0-12.27-3.23-15.61-9-4.97-8.61-2.02-19.62,6.59-24.59,2.83-1.64,5.93-2.41,8.98-2.41,6.22,0,12.27,3.23,15.61,9,4.97,8.61,2.02,19.62-6.59,24.59ZM265.72,336c-3.33,5.77-9.38,9-15.6,9-3.05,0-6.15-.78-8.98-2.41-8.61-4.97-11.56-15.98-6.59-24.59,3.33-5.77,9.38-9,15.6-9,3.05,0,6.15.78,8.98,2.41,8.61,4.97,11.56,15.98,6.59,24.59ZM342.59,622.87c-3.33,5.77-9.38,9-15.6,9-3.05,0-6.15-.78-8.98-2.41-8.61-4.97-11.56-15.98-6.59-24.59,3.33-5.77,9.38-9,15.6-9,3.05,0,6.15.78,8.98,2.41,8.61,4.97,11.56,15.98,6.59,24.59ZM336,265.72c-2.83,1.64-5.93,2.41-8.98,2.41-6.22,0-12.27-3.23-15.61-9-4.97-8.61-2.02-19.62,6.59-24.59,2.83-1.64,5.93-2.41,8.98-2.41,6.22,0,12.27,3.23,15.6,9,4.97,8.61,2.02,19.62-6.59,24.59ZM432,660c-9.94,0-18-8.06-18-18s8.06-18,18-18,18,8.06,18,18-8.06,18-18,18ZM546,629.45c-2.83,1.64-5.93,2.41-8.98,2.41-6.22,0-12.27-3.23-15.6-9-4.97-8.61-2.02-19.62,6.59-24.59,2.83-1.64,5.93-2.41,8.98-2.41,6.22,0,12.27,3.23,15.61,9,4.97,8.61,2.02,19.62-6.59,24.59ZM572.3,513c-3.33,5.77-9.38,9-15.6,9-3.05,0-6.15-.78-8.98-2.41l-124.71-72c-.14-.08-.27-.18-.41-.27-.31-.19-.61-.38-.9-.58-.23-.16-.45-.33-.68-.51-.23-.18-.46-.36-.68-.54-.25-.21-.49-.43-.72-.66-.18-.17-.36-.34-.53-.52-.24-.25-.47-.5-.69-.76-.16-.18-.31-.36-.46-.55-.21-.26-.4-.53-.6-.8-.15-.21-.3-.43-.44-.65-.16-.25-.32-.51-.47-.77-.15-.26-.29-.52-.43-.78-.12-.23-.23-.47-.34-.71-.14-.3-.27-.6-.39-.91-.09-.22-.17-.45-.25-.68-.11-.32-.22-.65-.31-.97-.07-.24-.13-.48-.19-.72-.08-.31-.15-.63-.21-.95-.05-.29-.09-.58-.13-.87-.04-.28-.07-.55-.1-.83-.03-.36-.04-.72-.05-1.07,0-.16-.02-.33-.02-.49v-207c0-.51.03-1,.08-1.5-.04-.5-.08-.99-.08-1.5,0-9.94,8.06-18,18-18s18,8.06,18,18c0,.51-.03,1-.08,1.5.04.5.08.99.08,1.5v196.61l115.71,66.8c8.61,4.97,11.56,15.98,6.59,24.59ZM629.45,546c-3.33,5.77-9.38,9-15.6,9-3.05,0-6.15-.78-8.98-2.41-8.61-4.97-11.56-15.98-6.59-24.59,3.33-5.77,9.38-9,15.6-9,3.05,0,6.15.78,8.98,2.41,8.61,4.97,11.56,15.98,6.59,24.59ZM642,450c-9.94,0-18-8.06-18-18s8.06-18,18-18,18,8.06,18,18-8.06,18-18,18Z" style="fill: none; stroke-width: 0px;"/>
    <path d="M180,720h504c19.88,0,36-16.12,36-36V180c0-19.88-16.12-36-36-36H180c-19.88,0-36,16.12-36,36v504c0,19.88,16.12,36,36,36ZM180,180h504v504s-504,0-504,0V180Z" style="stroke-width: 0px;"/>
    <circle cx="432" cy="642" r="18" style="stroke-width: 0px;"/>
    <path d="M432,207c9.43,0,17.16,7.26,17.92,16.5.04-.5.08-.99.08-1.5,0-9.94-8.06-18-18-18s-18,8.06-18,18c0,.51.03,1,.08,1.5.76-9.24,8.49-16.5,17.92-16.5Z" style="stroke-width: 0px;"/>
    <circle cx="642" cy="432" r="18" style="stroke-width: 0px;"/>
    <circle cx="222" cy="432" r="18" style="stroke-width: 0px;"/>
    <path d="M336,598.28c-2.83-1.64-5.93-2.41-8.98-2.41-6.22,0-12.27,3.23-15.6,9-4.97,8.61-2.02,19.62,6.59,24.59,2.83,1.64,5.93,2.41,8.98,2.41,6.22,0,12.27-3.23,15.6-9,4.97-8.61,2.02-19.62-6.59-24.59Z" style="stroke-width: 0px;"/>
    <path d="M528,265.72c2.83,1.64,5.93,2.41,8.98,2.41,6.22,0,12.27-3.23,15.6-9,4.97-8.61,2.02-19.62-6.59-24.59-2.83-1.64-5.93-2.41-8.98-2.41-6.22,0-12.27,3.23-15.6,9-4.97,8.61-2.02,19.62,6.59,24.59Z" style="stroke-width: 0px;"/>
    <path d="M622.87,521.41c-2.83-1.64-5.93-2.41-8.98-2.41-6.22,0-12.27,3.23-15.6,9-4.97,8.61-2.02,19.62,6.59,24.59,2.83,1.64,5.93,2.41,8.98,2.41,6.22,0,12.27-3.23,15.6-9,4.97-8.61,2.02-19.62-6.59-24.59Z" style="stroke-width: 0px;"/>
    <path d="M259.13,311.41c-2.83-1.64-5.93-2.41-8.98-2.41-6.22,0-12.27,3.23-15.6,9-4.97,8.61-2.02,19.62,6.59,24.59,2.83,1.64,5.93,2.41,8.98,2.41,6.22,0,12.27-3.23,15.6-9,4.97-8.61,2.02-19.62-6.59-24.59Z" style="stroke-width: 0px;"/>
    <path d="M250.12,519c-3.05,0-6.15.78-8.98,2.41-8.61,4.97-11.56,15.98-6.59,24.59,3.33,5.77,9.38,9,15.61,9,3.05,0,6.15-.78,8.98-2.41,8.61-4.97,11.56-15.98,6.59-24.59-3.33-5.77-9.38-9-15.61-9Z" style="stroke-width: 0px;"/>
    <path d="M613.88,345c3.05,0,6.15-.78,8.98-2.41,8.61-4.97,11.56-15.98,6.59-24.59-3.33-5.77-9.38-9-15.61-9-3.05,0-6.15.78-8.98,2.41-8.61,4.97-11.56,15.98-6.59,24.59,3.33,5.77,9.38,9,15.61,9Z" style="stroke-width: 0px;"/>
    <path d="M536.98,595.86c-3.05,0-6.15.78-8.98,2.41-8.61,4.97-11.56,15.98-6.59,24.59,3.33,5.77,9.38,9,15.6,9,3.05,0,6.15-.78,8.98-2.41,8.61-4.97,11.56-15.98,6.59-24.59-3.33-5.77-9.38-9-15.61-9Z" style="stroke-width: 0px;"/>
    <path d="M326.98,232.13c-3.05,0-6.15.78-8.98,2.41-8.61,4.97-11.56,15.98-6.59,24.59,3.33,5.77,9.38,9,15.61,9,3.05,0,6.15-.78,8.98-2.41,8.61-4.97,11.56-15.98,6.59-24.59-3.33-5.77-9.38-9-15.6-9Z" style="stroke-width: 0px;"/>
    <path d="M415.65,439.5c-.14-.3-.27-.6-.39-.91.12.31.25.61.39.91Z" style="stroke-width: 0px;"/>
    <path d="M414.18,434.4c-.04-.28-.07-.55-.1-.83.02.28.06.56.1.83Z" style="stroke-width: 0px;"/>
    <path d="M414.52,436.22c-.08-.31-.15-.63-.21-.95.06.32.13.63.21.95Z" style="stroke-width: 0px;"/>
    <path d="M416.42,440.99c-.15-.26-.29-.52-.43-.78.14.27.28.52.43.78Z" style="stroke-width: 0px;"/>
    <path d="M416.41,423c4.97-8.61,15.98-11.56,24.59-6.59l9,5.2v-196.61c0-.51-.03-1-.08-1.5-.76,9.24-8.49,16.5-17.92,16.5s-17.16-7.26-17.92-16.5c-.04.5-.08.99-.08,1.5v207c0,.17.02.33.02.49-.09-3.22.66-6.5,2.39-9.49Z" style="stroke-width: 0px;"/>
    <path d="M417.33,442.41c-.15-.21-.3-.43-.44-.65.14.22.29.43.44.65Z" style="stroke-width: 0px;"/>
    <path d="M415.01,437.91c-.11-.32-.22-.65-.31-.97.09.33.2.65.31.97Z" style="stroke-width: 0px;"/>
    <path d="M418.38,443.75c-.16-.18-.31-.36-.46-.55.15.19.3.37.46.55Z" style="stroke-width: 0px;"/>
    <path d="M422.59,447.32c-.31-.19-.61-.38-.9-.58.29.21.6.4.9.58Z" style="stroke-width: 0px;"/>
    <path d="M419.6,445.03c-.18-.17-.36-.34-.53-.52.17.18.35.35.53.52Z" style="stroke-width: 0px;"/>
    <path d="M421.01,446.23c-.23-.18-.46-.36-.68-.54.22.19.45.37.68.54Z" style="stroke-width: 0px;"/>
    <path d="M432,240c9.43,0,17.16-7.26,17.92-16.5-.76-9.24-8.49-16.5-17.92-16.5s-17.16,7.26-17.92,16.5c.76,9.24,8.49,16.5,17.92,16.5Z" style="stroke-width: 0px;"/>
    <path d="M414.08,433.57c-.03-.35-.04-.71-.05-1.07.01.36.02.72.05,1.07Z" style="stroke-width: 0px;"/>
    <path d="M414.31,435.27c-.05-.29-.09-.58-.13-.87.04.29.08.58.13.87Z" style="stroke-width: 0px;"/>
    <path d="M414.7,436.94c-.07-.24-.13-.48-.19-.72.06.24.12.48.19.72Z" style="stroke-width: 0px;"/>
    <path d="M420.33,445.69c-.25-.21-.49-.43-.72-.66.24.22.47.44.72.66Z" style="stroke-width: 0px;"/>
    <path d="M416.89,441.76c-.16-.25-.32-.51-.47-.77.15.26.3.52.47.77Z" style="stroke-width: 0px;"/>
    <path d="M417.92,443.2c-.21-.26-.4-.53-.6-.8.19.27.39.54.6.8Z" style="stroke-width: 0px;"/>
    <path d="M565.71,488.41l-115.71-66.8v10.39c0,9.94-8.06,18-18,18-3.46,0-6.67-.99-9.41-2.68.14.09.27.18.41.27l124.71,72c2.83,1.64,5.93,2.41,8.98,2.41,6.22,0,12.27-3.23,15.6-9,4.97-8.61,2.02-19.62-6.59-24.59Z" style="stroke-width: 0px;"/>
    <path d="M421.68,446.74c-.23-.16-.45-.33-.68-.51.22.17.44.34.68.51Z" style="stroke-width: 0px;"/>
    <path d="M415.99,440.21c-.12-.23-.23-.47-.34-.71.11.24.22.48.34.71Z" style="stroke-width: 0px;"/>
    <path d="M419.08,444.51c-.24-.25-.47-.5-.69-.76.22.26.45.51.69.76Z" style="stroke-width: 0px;"/>
    <path d="M415.26,438.59c-.09-.22-.17-.45-.25-.68.08.23.16.45.25.68Z" style="stroke-width: 0px;"/>
    <path d="M450,432v-10.39l-9-5.2c-8.61-4.97-19.62-2.02-24.59,6.59-1.73,2.99-2.48,6.27-2.39,9.49,0,.36.02.72.05,1.07.02.28.06.56.1.83.04.29.08.58.13.87.06.32.13.63.21.95.06.24.12.48.19.72.09.33.2.65.31.97.08.23.16.45.25.68.12.31.25.61.39.91.11.24.22.48.34.71.14.26.28.52.43.78.15.26.3.52.47.77.14.22.29.43.44.65.19.27.39.54.6.8.15.19.3.37.46.55.22.26.45.52.69.76.17.18.35.35.53.52.24.22.48.45.72.66.22.19.45.37.68.54.22.17.45.34.68.51.29.2.6.4.9.58,2.74,1.69,5.96,2.68,9.41,2.68,9.94,0,18-8.06,18-18Z" style="stroke-width: 0px;"/>
  </g>
</svg>