<?xml version="1.0" encoding="UTF-8"?>
<svg id="icon" xmlns="http://www.w3.org/2000/svg" viewBox="0 0 864 864">
  <g id="other_copy" data-name="other copy">
    <path d="M684,144H180c-19.88,0-36,16.12-36,36v504c0,19.88,16.12,36,36,36h504c19.88,0,36-16.12,36-36V180c0-19.88-16.12-36-36-36ZM265.72,336c-3.33,5.77-9.38,9-15.61,9-3.05,0-6.15-.78-8.98-2.41-8.61-4.97-11.56-15.98-6.59-24.59,3.33-5.77,9.38-9,15.61-9,3.05,0,6.15.78,8.98,2.41,8.61,4.97,11.56,15.98,6.59,24.59ZM259.13,552.59c-2.83,1.64-5.93,2.41-8.98,2.41-6.22,0-12.27-3.23-15.61-9-4.97-8.61-2.02-19.62,6.59-24.59,2.83-1.64,5.93-2.41,8.98-2.41,6.22,0,12.27,3.23,15.61,9,4.97,8.61,2.02,19.62-6.59,24.59ZM240,432c0,9.94-8.06,18-18,18s-18-8.06-18-18,8.06-18,18-18,18,8.06,18,18ZM311.41,604.87c3.33-5.77,9.38-9,15.61-9,3.05,0,6.15.78,8.98,2.41,8.61,4.97,11.56,15.98,6.59,24.59-3.33,5.77-9.38,9-15.61,9-3.05,0-6.15-.78-8.98-2.41-8.61-4.97-11.56-15.98-6.59-24.59ZM318,234.55c2.83-1.64,5.93-2.41,8.98-2.41,6.22,0,12.27,3.23,15.61,9,4.97,8.61,2.02,19.62-6.59,24.59-2.83,1.64-5.93,2.41-8.98,2.41-6.22,0-12.27-3.23-15.61-9-4.97-8.61-2.02-19.62,6.59-24.59ZM414,222c0-9.94,8.06-18,18-18s18,8.06,18,18c0,.51-.03,1-.08,1.5.04.5.08.99.08,1.5v202.18l69.59,120.53c4.97,8.61,2.02,19.62-6.59,24.59-2.83,1.64-5.93,2.41-8.98,2.41-6.22,0-12.27-3.23-15.6-9l-72-124.71c-.03-.06-.05-.11-.09-.17-.19-.34-.37-.69-.54-1.05-.09-.19-.19-.37-.27-.56-.15-.33-.27-.67-.4-1.01-.08-.23-.17-.45-.25-.68-.09-.29-.17-.58-.24-.88-.08-.29-.16-.58-.22-.88-.05-.24-.08-.48-.12-.72-.06-.36-.12-.71-.16-1.07-.02-.21-.03-.42-.05-.63-.03-.39-.06-.78-.06-1.17,0-.06,0-.13,0-.19v-207c0-.51.03-1,.08-1.5-.04-.5-.08-.99-.08-1.5ZM552.59,259.13c-3.33,5.77-9.38,9-15.61,9-3.05,0-6.15-.78-8.98-2.41-8.61-4.97-11.56-15.98-6.59-24.59,3.33-5.77,9.38-9,15.61-9,3.05,0,6.15.78,8.98,2.41,8.61,4.97,11.56,15.98,6.59,24.59ZM546,629.45c-2.83,1.64-5.93,2.41-8.98,2.41-6.22,0-12.27-3.23-15.61-9-4.97-8.61-2.02-19.62,6.59-24.59,2.83-1.64,5.93-2.41,8.98-2.41,6.22,0,12.27,3.23,15.61,9,4.97,8.61,2.02,19.62-6.59,24.59ZM432,624c9.94,0,18,8.06,18,18s-8.06,18-18,18-18-8.06-18-18,8.06-18,18-18ZM598.28,528c3.33-5.77,9.38-9,15.61-9,3.05,0,6.15.78,8.98,2.41,8.61,4.97,11.56,15.98,6.59,24.59-3.33,5.77-9.38,9-15.61,9-3.05,0-6.15-.78-8.98-2.41-8.61-4.97-11.56-15.98-6.59-24.59ZM604.87,311.41c2.83-1.64,5.93-2.41,8.98-2.41,6.22,0,12.27,3.23,15.61,9,4.97,8.61,2.02,19.62-6.59,24.59-2.83,1.64-5.93,2.41-8.98,2.41-6.22,0-12.27-3.23-15.61-9-4.97-8.61-2.02-19.62,6.59-24.59ZM642,450c-9.94,0-18-8.06-18-18s8.06-18,18-18,18,8.06,18,18-8.06,18-18,18Z" style="stroke-width: 0px;"/>
  </g>
</svg>