<?xml version="1.0" encoding="UTF-8"?>
<svg id="icon" xmlns="http://www.w3.org/2000/svg" viewBox="0 0 864 864">
  <g id="other_copy" data-name="other copy">
    <path d="M432,144c-159.06,0-288,128.94-288,288s128.94,288,288,288,288-128.94,288-288-128.94-288-288-288ZM575.75,412.12l-125.75,33.7v184.19c0,9.94-8.06,18-18,18s-18-8.06-18-18v-198c0-.09.01-.19.01-.28,0-.38.03-.76.06-1.13.02-.23.04-.46.06-.69.04-.34.1-.68.15-1.01.05-.26.09-.53.15-.79.06-.28.14-.56.22-.84.08-.3.16-.6.26-.89.08-.24.17-.47.26-.7.12-.32.24-.63.38-.94.1-.21.2-.42.3-.63.15-.31.3-.61.47-.91.12-.22.26-.43.39-.64.17-.27.34-.54.52-.81.16-.23.34-.46.51-.68.17-.22.34-.45.52-.66.21-.25.43-.48.65-.71.17-.18.33-.36.51-.53.25-.24.5-.47.76-.69.17-.15.35-.31.53-.45.26-.21.54-.41.82-.61.2-.14.4-.29.61-.43.26-.17.53-.33.8-.48.25-.15.5-.29.75-.43.24-.12.48-.24.73-.35.31-.14.62-.28.94-.41.21-.09.43-.16.65-.24.35-.13.71-.24,1.08-.35.09-.03.18-.06.27-.09l139.09-37.27c9.6-2.57,19.47,3.12,22.05,12.73,2.57,9.6-3.13,19.47-12.73,22.05Z" style="stroke-width: 0px;"/>
  </g>
</svg>