<?xml version="1.0" encoding="UTF-8"?>
<svg id="icon" xmlns="http://www.w3.org/2000/svg" viewBox="0 0 864 864">
  <g id="other_copy" data-name="other copy">
    <path d="M180,684h504s0-504,0-504H180v504ZM259.13,552.59c-2.83,1.64-5.93,2.41-8.98,2.41-6.22,0-12.27-3.23-15.6-9-4.97-8.61-2.02-19.62,6.59-24.59,2.83-1.64,5.93-2.41,8.98-2.41,6.22,0,12.27,3.23,15.6,9,4.97,8.61,2.02,19.62-6.59,24.59ZM342.59,622.87c-3.33,5.77-9.38,9-15.6,9-3.05,0-6.15-.78-8.98-2.41-8.61-4.97-11.56-15.98-6.59-24.59,3.33-5.77,9.38-9,15.6-9,3.05,0,6.15.78,8.98,2.41,8.61,4.97,11.56,15.98,6.59,24.59ZM660,432c0,9.94-8.06,18-18,18s-18-8.06-18-18,8.06-18,18-18,18,8.06,18,18ZM604.87,311.41c2.83-1.64,5.93-2.41,8.98-2.41,6.22,0,12.27,3.23,15.6,9,4.97,8.61,2.02,19.62-6.59,24.59-2.83,1.64-5.93,2.41-8.98,2.41-6.22,0-12.27-3.23-15.6-9-4.97-8.61-2.02-19.62,6.59-24.59ZM598.28,528c3.33-5.77,9.38-9,15.6-9,3.05,0,6.15.78,8.98,2.41,8.61,4.97,11.56,15.98,6.59,24.59-3.33,5.77-9.38,9-15.6,9-3.05,0-6.15-.78-8.98-2.41-8.61-4.97-11.56-15.98-6.59-24.59ZM521.41,241.13c3.33-5.77,9.38-9,15.6-9,3.05,0,6.15.78,8.98,2.41,8.61,4.97,11.56,15.98,6.59,24.59-3.33,5.77-9.38,9-15.6,9-3.05,0-6.15-.78-8.98-2.41-8.61-4.97-11.56-15.98-6.59-24.59ZM528,598.28c2.83-1.64,5.93-2.41,8.98-2.41,6.22,0,12.27,3.23,15.61,9,4.97,8.61,2.02,19.62-6.59,24.59-2.83,1.64-5.93,2.41-8.98,2.41-6.22,0-12.27-3.23-15.6-9-4.97-8.61-2.02-19.62,6.59-24.59ZM432,204c9.94,0,18,8.06,18,18s-8.06,18-18,18-18-8.06-18-18,8.06-18,18-18ZM318,234.55c2.83-1.64,5.93-2.41,8.98-2.41,6.22,0,12.27,3.23,15.6,9,4.97,8.61,2.02,19.62-6.59,24.59-2.83,1.64-5.93,2.41-8.98,2.41-6.22,0-12.27-3.23-15.61-9-4.97-8.61-2.02-19.62,6.59-24.59ZM288.25,451.88l139.09-37.27c.14-.04.28-.06.41-.09.34-.08.69-.16,1.04-.22.29-.05.57-.09.85-.13.29-.04.57-.07.86-.1.36-.03.71-.05,1.07-.05.14,0,.28-.02.42-.02.09,0,.19.01.28.01.38,0,.75.03,1.13.06.23.02.47.04.7.06.34.04.67.09,1.01.15.27.05.53.09.8.15.28.06.56.14.84.22.3.08.6.16.9.26.24.08.46.17.7.25.32.12.64.24.95.38.21.09.42.2.63.3.31.15.62.3.91.47.22.12.42.26.64.39.27.17.54.34.81.52.23.16.46.34.68.51.22.17.45.34.66.52.25.21.48.43.72.65.18.17.36.33.53.51.24.24.47.5.69.76.15.18.31.35.45.53.21.26.41.54.61.81.14.2.29.4.43.61.17.26.33.53.48.8.15.25.29.5.43.76.12.24.24.48.35.73.14.31.28.62.41.94.08.21.16.43.24.65.13.36.24.71.35,1.08.03.09.06.18.09.27.04.14.05.27.09.41.08.35.16.69.22,1.05.05.29.09.57.13.86.04.28.07.57.09.85.03.36.05.72.05,1.08,0,.14.02.28.02.42v207c0,.51-.03,1-.08,1.5.04.5.08.99.08,1.5,0,9.94-8.06,18-18,18s-18-8.06-18-18c0-.51.03-1,.08-1.5-.04-.5-.08-.99-.08-1.5v-183.54l-116.43,31.2c-1.56.42-3.13.62-4.67.62-7.95,0-15.22-5.3-17.38-13.35-2.57-9.6,3.13-19.47,12.73-22.05ZM234.55,318c3.33-5.77,9.38-9,15.6-9,3.05,0,6.15.78,8.98,2.41,8.61,4.97,11.56,15.98,6.59,24.59-3.33,5.77-9.38,9-15.6,9-3.05,0-6.15-.78-8.98-2.41-8.61-4.97-11.56-15.98-6.59-24.59ZM222,414c9.94,0,18,8.06,18,18s-8.06,18-18,18-18-8.06-18-18,8.06-18,18-18Z" style="fill: none; stroke-width: 0px;"/>
    <path d="M684,144H180c-19.88,0-36,16.12-36,36v504c0,19.88,16.12,36,36,36h504c19.88,0,36-16.12,36-36V180c0-19.88-16.12-36-36-36ZM684,684H180s0-504,0-504h504v504Z" style="stroke-width: 0px;"/>
    <path d="M432,657c-9.44,0-17.16-7.26-17.92-16.5-.04.5-.08.99-.08,1.5,0,9.94,8.06,18,18,18s18-8.06,18-18c0-.51-.03-1-.08-1.5-.76,9.24-8.49,16.5-17.92,16.5Z" style="stroke-width: 0px;"/>
    <circle cx="432" cy="222" r="18" style="stroke-width: 0px;"/>
    <circle cx="642" cy="432" r="18" style="stroke-width: 0px;"/>
    <circle cx="222" cy="432" r="18" style="stroke-width: 0px;"/>
    <path d="M336,598.28c-2.83-1.64-5.93-2.41-8.98-2.41-6.22,0-12.27,3.23-15.6,9-4.97,8.61-2.02,19.62,6.59,24.59,2.83,1.64,5.93,2.41,8.98,2.41,6.22,0,12.27-3.23,15.6-9,4.97-8.61,2.02-19.62-6.59-24.59Z" style="stroke-width: 0px;"/>
    <path d="M528,265.72c2.83,1.64,5.93,2.41,8.98,2.41,6.22,0,12.27-3.23,15.6-9,4.97-8.61,2.02-19.62-6.59-24.59-2.83-1.64-5.93-2.41-8.98-2.41-6.22,0-12.27,3.23-15.6,9-4.97,8.61-2.02,19.62,6.59,24.59Z" style="stroke-width: 0px;"/>
    <path d="M604.87,552.59c2.83,1.64,5.93,2.41,8.98,2.41,6.22,0,12.27-3.23,15.6-9,4.97-8.61,2.02-19.62-6.59-24.59-2.83-1.64-5.93-2.41-8.98-2.41-6.22,0-12.27,3.23-15.6,9-4.97,8.61-2.02,19.62,6.59,24.59Z" style="stroke-width: 0px;"/>
    <path d="M241.13,342.59c2.83,1.64,5.93,2.41,8.98,2.41,6.22,0,12.27-3.23,15.6-9,4.97-8.61,2.02-19.62-6.59-24.59-2.83-1.64-5.93-2.41-8.98-2.41-6.22,0-12.27,3.23-15.6,9-4.97,8.61-2.02,19.62,6.59,24.59Z" style="stroke-width: 0px;"/>
    <path d="M250.12,519c-3.05,0-6.15.78-8.98,2.41-8.61,4.97-11.56,15.98-6.59,24.59,3.33,5.77,9.38,9,15.6,9,3.05,0,6.15-.78,8.98-2.41,8.61-4.97,11.56-15.98,6.59-24.59-3.33-5.77-9.38-9-15.6-9Z" style="stroke-width: 0px;"/>
    <path d="M613.88,345c3.05,0,6.15-.78,8.98-2.41,8.61-4.97,11.56-15.98,6.59-24.59-3.33-5.77-9.38-9-15.6-9-3.05,0-6.15.78-8.98,2.41-8.61,4.97-11.56,15.98-6.59,24.59,3.33,5.77,9.38,9,15.6,9Z" style="stroke-width: 0px;"/>
    <path d="M537.02,631.87c3.05,0,6.15-.78,8.98-2.41,8.61-4.97,11.56-15.98,6.59-24.59-3.33-5.77-9.38-9-15.61-9-3.05,0-6.15.78-8.98,2.41-8.61,4.97-11.56,15.98-6.59,24.59,3.33,5.77,9.38,9,15.6,9Z" style="stroke-width: 0px;"/>
    <path d="M327.02,268.14c3.05,0,6.15-.78,8.98-2.41,8.61-4.97,11.56-15.98,6.59-24.59-3.33-5.77-9.38-9-15.6-9-3.05,0-6.15.78-8.98,2.41-8.61,4.97-11.56,15.98-6.59,24.59,3.33,5.77,9.38,9,15.61,9Z" style="stroke-width: 0px;"/>
    <path d="M427.75,414.52c.35-.08.7-.16,1.04-.22-.35.06-.7.14-1.04.22Z" style="stroke-width: 0px;"/>
    <path d="M436.74,414.65c.3.08.6.16.9.26-.29-.1-.6-.18-.9-.26Z" style="stroke-width: 0px;"/>
    <path d="M439.91,415.85c.31.15.61.3.91.47-.3-.17-.6-.32-.91-.47Z" style="stroke-width: 0px;"/>
    <path d="M449.83,429.66c.04.28.07.57.09.85-.02-.29-.06-.57-.09-.85Z" style="stroke-width: 0px;"/>
    <path d="M433.41,414.07c.23.02.47.04.7.06-.23-.03-.46-.04-.7-.06Z" style="stroke-width: 0px;"/>
    <path d="M436.66,449.39l-22.66,6.07v183.54c0,.51.03,1,.08,1.5.76-9.24,8.49-16.5,17.92-16.5s17.16,7.26,17.92,16.5c.04-.5.08-.99.08-1.5v-207c0-.14-.02-.28-.02-.42.19,8.11-5.14,15.61-13.32,17.8Z" style="stroke-width: 0px;"/>
    <path d="M435.11,414.29c.27.05.53.09.8.15-.26-.06-.53-.1-.8-.15Z" style="stroke-width: 0px;"/>
    <path d="M429.65,414.17c.29-.04.57-.07.86-.1-.29.02-.57.06-.86.1Z" style="stroke-width: 0px;"/>
    <path d="M449.48,427.75c.08.35.16.7.22,1.05-.06-.35-.14-.7-.22-1.05Z" style="stroke-width: 0px;"/>
    <path d="M438.34,415.17c.32.12.64.24.95.38-.31-.14-.63-.26-.95-.38Z" style="stroke-width: 0px;"/>
    <path d="M432,414c-.14,0-.28.02-.42.02.23,0,.47-.01.7,0-.09,0-.19-.01-.28-.01Z" style="stroke-width: 0px;"/>
    <path d="M445.55,420.18c.15.17.31.35.45.53-.15-.18-.3-.35-.45-.53Z" style="stroke-width: 0px;"/>
    <path d="M444.33,418.91c.18.17.36.33.53.51-.17-.18-.35-.34-.53-.51Z" style="stroke-width: 0px;"/>
    <path d="M442.95,417.74c.22.17.45.34.66.52-.21-.18-.44-.35-.66-.52Z" style="stroke-width: 0px;"/>
    <path d="M446.62,421.52c.14.2.29.4.43.61-.14-.21-.28-.41-.43-.61Z" style="stroke-width: 0px;"/>
    <path d="M447.53,422.93c.15.25.29.5.43.76-.13-.26-.28-.51-.43-.76Z" style="stroke-width: 0px;"/>
    <path d="M448.3,424.41c.14.31.28.62.41.94-.13-.32-.27-.63-.41-.94Z" style="stroke-width: 0px;"/>
    <path d="M441.46,416.71c.27.17.54.34.81.52-.26-.18-.53-.35-.81-.52Z" style="stroke-width: 0px;"/>
    <path d="M448.95,426c.12.35.24.71.35,1.08-.1-.37-.22-.72-.35-1.08Z" style="stroke-width: 0px;"/>
    <path d="M432,624c-9.43,0-17.16,7.26-17.92,16.5.76,9.24,8.49,16.5,17.92,16.5s17.16-7.26,17.92-16.5c-.76-9.24-8.49-16.5-17.92-16.5Z" style="stroke-width: 0px;"/>
    <path d="M430.51,414.08c.35-.03.71-.05,1.07-.05-.35,0-.71.02-1.07.05Z" style="stroke-width: 0px;"/>
    <path d="M439.28,415.55c.21.09.42.2.63.3-.21-.1-.42-.21-.63-.3Z" style="stroke-width: 0px;"/>
    <path d="M428.8,414.3c.28-.05.57-.09.85-.13-.29.04-.57.08-.85.13Z" style="stroke-width: 0px;"/>
    <path d="M440.82,416.32c.22.12.42.26.64.39-.21-.13-.42-.26-.64-.39Z" style="stroke-width: 0px;"/>
    <path d="M432.28,414.01c.38,0,.75.03,1.13.06-.37-.03-.75-.05-1.13-.06Z" style="stroke-width: 0px;"/>
    <path d="M434.11,414.13c.34.04.67.1,1.01.15-.33-.06-.67-.11-1.01-.15Z" style="stroke-width: 0px;"/>
    <path d="M437.64,414.91c.24.08.47.17.7.25-.23-.09-.46-.18-.7-.25Z" style="stroke-width: 0px;"/>
    <path d="M435.91,414.44c.28.06.56.14.84.22-.28-.08-.55-.15-.84-.22Z" style="stroke-width: 0px;"/>
    <path d="M442.27,417.23c.23.16.46.34.68.51-.23-.17-.45-.35-.68-.51Z" style="stroke-width: 0px;"/>
    <path d="M448.71,425.34c.09.21.16.43.24.65-.08-.22-.15-.44-.24-.65Z" style="stroke-width: 0px;"/>
    <path d="M449.39,427.34c-.02-.09-.06-.18-.09-.27.06.22.12.45.17.68-.03-.14-.05-.27-.09-.41Z" style="stroke-width: 0px;"/>
    <path d="M449.7,428.8c.05.28.09.57.13.86-.04-.29-.08-.57-.13-.86Z" style="stroke-width: 0px;"/>
    <path d="M449.92,430.51c.03.36.05.71.05,1.08,0-.36-.02-.72-.05-1.08Z" style="stroke-width: 0px;"/>
    <path d="M292.89,487.27c1.54,0,3.11-.2,4.67-.62l116.43-31.2v-23.46c0-8.48,5.87-15.56,13.75-17.48-.14.03-.28.05-.41.09l-139.09,37.27c-9.6,2.57-15.3,12.44-12.73,22.05,2.16,8.04,9.43,13.35,17.38,13.35Z" style="stroke-width: 0px;"/>
    <path d="M447.95,423.68c.12.24.24.48.35.73-.11-.24-.23-.49-.35-.73Z" style="stroke-width: 0px;"/>
    <path d="M446.01,420.71c.21.26.41.54.61.81-.2-.28-.4-.55-.61-.81Z" style="stroke-width: 0px;"/>
    <path d="M443.61,418.26c.25.21.48.43.72.65-.24-.22-.47-.44-.72-.65Z" style="stroke-width: 0px;"/>
    <path d="M444.86,419.42c.24.25.47.5.69.76-.23-.26-.45-.52-.69-.76Z" style="stroke-width: 0px;"/>
    <path d="M447.04,422.13c.17.26.33.53.48.8-.16-.27-.31-.54-.48-.8Z" style="stroke-width: 0px;"/>
    <path d="M414,432v23.46l22.66-6.07c8.18-2.19,13.51-9.69,13.32-17.8,0-.36-.02-.72-.05-1.08-.02-.28-.06-.57-.09-.85-.04-.29-.08-.57-.13-.86-.06-.35-.14-.7-.22-1.05-.06-.23-.11-.45-.17-.68-.1-.37-.22-.72-.35-1.08-.08-.22-.15-.44-.24-.65-.13-.32-.27-.63-.41-.94-.11-.24-.23-.49-.35-.73-.13-.26-.28-.51-.43-.76-.16-.27-.31-.54-.48-.8-.14-.21-.28-.41-.43-.61-.2-.28-.4-.55-.61-.81-.15-.18-.3-.35-.45-.53-.23-.26-.45-.52-.69-.76-.17-.18-.35-.34-.53-.51-.23-.22-.47-.44-.72-.65-.21-.18-.44-.35-.66-.52-.23-.17-.45-.35-.68-.51-.26-.18-.53-.35-.81-.52-.21-.13-.42-.26-.64-.39-.3-.17-.61-.32-.91-.47-.21-.1-.42-.21-.63-.3-.31-.14-.63-.26-.95-.38-.23-.09-.46-.18-.7-.25-.3-.1-.6-.18-.9-.26-.28-.08-.55-.15-.84-.22-.26-.06-.53-.1-.8-.15-.33-.06-.67-.11-1.01-.15-.23-.03-.47-.04-.7-.06-.37-.03-.75-.05-1.13-.06-.23,0-.47,0-.7,0-.36,0-.71.03-1.07.05-.29.02-.57.06-.86.1-.29.04-.57.08-.85.13-.35.06-.7.14-1.04.22-7.89,1.91-13.75,9-13.75,17.48Z" style="stroke-width: 0px;"/>
  </g>
</svg>