<?xml version="1.0" encoding="UTF-8"?>
<svg id="icon" xmlns="http://www.w3.org/2000/svg" viewBox="0 0 864 864">
  <g id="other_copy" data-name="other copy">
    <path d="M530.08,199.79c-31.04-13.13-64.04-19.79-98.08-19.79s-67.03,6.66-98.08,19.79c-30,12.69-56.96,30.87-80.11,54.02s-41.33,50.11-54.02,80.11c-13.13,31.04-19.79,64.04-19.79,98.08s6.66,67.03,19.79,98.08c12.69,30,30.87,56.96,54.02,80.11s50.11,41.33,80.11,54.02c31.04,13.13,64.04,19.79,98.08,19.79s67.03-6.66,98.08-19.79c30-12.69,56.96-30.87,80.11-54.02s41.33-50.11,54.02-80.11c13.13-31.04,19.79-64.04,19.79-98.08s-6.66-67.03-19.79-98.08c-12.69-30-30.87-56.96-54.02-80.11s-50.11-41.33-80.11-54.02ZM546.55,546.55c-3.51,3.51-8.12,5.27-12.73,5.27s-9.21-1.76-12.73-5.27l-101.82-101.82c-.42-.42-.82-.86-1.2-1.33-.16-.2-.3-.41-.46-.61-.2-.27-.4-.53-.59-.8-.17-.25-.31-.51-.47-.77-.15-.25-.3-.49-.44-.74-.14-.26-.26-.54-.39-.81-.12-.26-.25-.52-.37-.79-.11-.26-.2-.53-.29-.8-.1-.29-.21-.57-.3-.86-.08-.27-.14-.54-.21-.81-.08-.3-.16-.59-.22-.9-.06-.31-.1-.63-.14-.95-.04-.27-.09-.53-.11-.79-.06-.59-.09-1.18-.09-1.78v-198c0-9.94,8.06-18,18-18s18,8.06,18,18v190.54l96.55,96.55c7.03,7.03,7.03,18.43,0,25.46Z" style="fill: none; stroke-width: 0px;"/>
    <path d="M432,144c-159.06,0-288,128.94-288,288s128.94,288,288,288,288-128.94,288-288-128.94-288-288-288ZM684,432c0,34.04-6.66,67.03-19.79,98.08-12.69,30-30.87,56.96-54.02,80.11s-50.11,41.33-80.11,54.02c-31.04,13.13-64.04,19.79-98.08,19.79s-67.03-6.66-98.08-19.79c-30-12.69-56.96-30.87-80.11-54.02s-41.33-50.11-54.02-80.11c-13.13-31.04-19.79-64.04-19.79-98.08s6.66-67.03,19.79-98.08c12.69-30,30.87-56.96,54.02-80.11s50.11-41.33,80.11-54.02c31.04-13.13,64.04-19.79,98.08-19.79s67.03,6.66,98.08,19.79c30,12.69,56.96,30.87,80.11,54.02s41.33,50.11,54.02,80.11c13.13,31.04,19.79,64.04,19.79,98.08Z" style="stroke-width: 0px;"/>
    <path d="M418.08,443.41c.38.46.78.9,1.2,1.33h0c-.42-.43-.82-.87-1.19-1.33Z" style="stroke-width: 0px;"/>
    <path d="M415.74,439.68c-.12-.26-.26-.52-.37-.79.11.27.24.53.37.79Z" style="stroke-width: 0px;"/>
    <path d="M416.56,441.23c-.15-.25-.3-.49-.44-.74.14.25.29.5.44.74Z" style="stroke-width: 0px;"/>
    <path d="M415.08,438.09c-.1-.29-.21-.57-.3-.86.09.29.2.58.3.86Z" style="stroke-width: 0px;"/>
    <path d="M444.73,419.27l5.27,5.27v-190.54c0-9.94-8.06-18-18-18s-18,8.06-18,18v198c0-4.61,1.76-9.21,5.27-12.73,7.03-7.03,18.43-7.03,25.46,0Z" style="stroke-width: 0px;"/>
    <path d="M417.62,442.79c-.2-.27-.41-.53-.59-.8.18.28.39.54.59.8Z" style="stroke-width: 0px;"/>
    <path d="M414.2,434.57c-.04-.27-.09-.53-.11-.79.03.27.08.53.11.79Z" style="stroke-width: 0px;"/>
    <path d="M414.57,436.41c-.08-.3-.16-.6-.22-.9.06.3.14.6.22.9Z" style="stroke-width: 0px;"/>
    <path d="M416.13,440.48c-.14-.26-.26-.54-.39-.81.13.27.25.54.39.81Z" style="stroke-width: 0px;"/>
    <path d="M417.03,441.99c-.17-.25-.31-.51-.47-.77.15.26.3.52.47.77Z" style="stroke-width: 0px;"/>
    <path d="M418.08,443.41c-.16-.2-.3-.41-.46-.61.15.2.29.41.46.61Z" style="stroke-width: 0px;"/>
    <path d="M414.09,433.78c-.06-.58-.09-1.18-.09-1.78,0,.59.03,1.19.09,1.78Z" style="stroke-width: 0px;"/>
    <path d="M414.35,435.52c-.06-.31-.1-.63-.14-.95.05.32.08.63.14.95Z" style="stroke-width: 0px;"/>
    <path d="M414.78,437.22c-.08-.27-.14-.54-.21-.81.07.27.13.54.21.81Z" style="stroke-width: 0px;"/>
    <path d="M415.37,438.89c-.11-.26-.2-.53-.29-.8.1.27.18.54.29.8Z" style="stroke-width: 0px;"/>
    <path d="M450,424.54v7.46c0,9.94-8.06,18-18,18-4.97,0-9.47-2.01-12.72-5.27l101.82,101.82c3.51,3.51,8.12,5.27,12.73,5.27s9.21-1.76,12.73-5.27c7.03-7.03,7.03-18.43,0-25.46l-96.55-96.55Z" style="stroke-width: 0px;"/>
    <path d="M450,432v-7.46l-5.27-5.27c-7.03-7.03-18.43-7.03-25.46,0-3.51,3.51-5.27,8.12-5.27,12.73,0,.6.03,1.19.09,1.78.03.27.08.53.11.79.05.32.08.64.14.95.06.3.14.6.22.9.07.27.13.55.21.81.09.29.2.58.3.86.1.27.18.54.29.8.11.27.24.53.37.79.13.27.25.54.39.81.13.25.29.5.44.74.15.26.3.52.47.77.18.27.39.54.59.8.15.2.3.42.46.61.37.45.77.9,1.19,1.32h0c3.26,3.26,7.76,5.27,12.72,5.27,9.94,0,18-8.06,18-18Z" style="stroke-width: 0px;"/>
  </g>
</svg>