<?xml version="1.0" encoding="UTF-8"?>
<svg id="icon" xmlns="http://www.w3.org/2000/svg" viewBox="0 0 864 864">
  <g id="other_copy" data-name="other copy">
    <path d="M180,684h504s0-504,0-504H180v504ZM259.13,552.59c-2.83,1.64-5.93,2.41-8.98,2.41-6.22,0-12.27-3.23-15.61-9-4.97-8.61-2.02-19.62,6.59-24.59,2.83-1.64,5.93-2.41,8.98-2.41,6.22,0,12.27,3.23,15.6,9,4.97,8.61,2.02,19.62-6.59,24.59ZM660,432c0,9.94-8.06,18-18,18s-18-8.06-18-18,8.06-18,18-18,18,8.06,18,18ZM604.87,311.41c2.83-1.64,5.93-2.41,8.98-2.41,6.22,0,12.27,3.23,15.61,9,4.97,8.61,2.02,19.62-6.59,24.59-2.83,1.64-5.93,2.41-8.98,2.41-6.22,0-12.27-3.23-15.6-9-4.97-8.61-2.02-19.62,6.59-24.59ZM598.28,528c3.33-5.77,9.38-9,15.61-9,3.05,0,6.15.78,8.98,2.41,8.61,4.97,11.56,15.98,6.59,24.59-3.33,5.77-9.38,9-15.61,9-3.05,0-6.15-.78-8.98-2.41-8.61-4.97-11.56-15.98-6.59-24.59ZM521.41,241.13c3.33-5.77,9.38-9,15.61-9,3.05,0,6.15.78,8.98,2.41,8.61,4.97,11.56,15.98,6.59,24.59-3.33,5.77-9.38,9-15.61,9-3.05,0-6.15-.78-8.98-2.41-8.61-4.97-11.56-15.98-6.59-24.59ZM528,598.28c2.83-1.64,5.93-2.41,8.98-2.41,6.22,0,12.27,3.23,15.61,9,4.97,8.61,2.02,19.62-6.59,24.59-2.83,1.64-5.93,2.41-8.98,2.41-6.22,0-12.27-3.23-15.61-9-4.97-8.61-2.02-19.62,6.59-24.59ZM432,204c9.94,0,18,8.06,18,18s-8.06,18-18,18-18-8.06-18-18,8.06-18,18-18ZM390.07,275.52c9.6-2.57,19.47,3.12,22.04,12.73l37.27,139.09c.04.14.05.27.09.41.08.35.16.69.22,1.05.05.29.09.57.13.86.04.28.07.57.09.85.03.36.05.72.05,1.08,0,.14.02.28.02.42v207c0,.51-.04,1-.08,1.5.04.5.08.99.08,1.5,0,9.94-8.06,18-18,18s-18-8.06-18-18c0-.51.04-1,.08-1.5-.04-.5-.08-.99-.08-1.5v-204.63l-36.66-136.8c-2.57-9.6,3.13-19.47,12.73-22.05ZM318,234.55c2.83-1.64,5.93-2.41,8.98-2.41,6.22,0,12.27,3.23,15.61,9,4.97,8.61,2.02,19.62-6.59,24.59-2.83,1.64-5.93,2.41-8.98,2.41-6.22,0-12.27-3.23-15.61-9-4.97-8.61-2.02-19.62,6.59-24.59ZM311.41,604.87c3.33-5.77,9.38-9,15.61-9,3.05,0,6.15.78,8.98,2.41,8.61,4.97,11.56,15.98,6.59,24.59-3.33,5.77-9.38,9-15.61,9-3.05,0-6.15-.78-8.98-2.41-8.61-4.97-11.56-15.98-6.59-24.59ZM234.55,318c3.33-5.77,9.38-9,15.61-9,3.05,0,6.15.78,8.98,2.41,8.61,4.97,11.56,15.98,6.59,24.59-3.33,5.77-9.38,9-15.61,9-3.05,0-6.15-.78-8.98-2.41-8.61-4.97-11.56-15.98-6.59-24.59ZM222,414c9.94,0,18,8.06,18,18s-8.06,18-18,18-18-8.06-18-18,8.06-18,18-18Z" style="fill: none; stroke-width: 0px;"/>
    <path d="M684,144H180c-19.88,0-36,16.12-36,36v504c0,19.88,16.12,36,36,36h504c19.88,0,36-16.12,36-36V180c0-19.88-16.12-36-36-36ZM684,684H180s0-504,0-504h504v504Z" style="stroke-width: 0px;"/>
    <path d="M432,657c-9.43,0-17.16-7.26-17.92-16.5-.04.5-.08.99-.08,1.5,0,9.94,8.06,18,18,18s18-8.06,18-18c0-.51-.04-1-.08-1.5-.76,9.24-8.49,16.5-17.92,16.5Z" style="stroke-width: 0px;"/>
    <circle cx="432" cy="222" r="18" style="stroke-width: 0px;"/>
    <circle cx="642" cy="432" r="18" style="stroke-width: 0px;"/>
    <circle cx="222" cy="432" r="18" style="stroke-width: 0px;"/>
    <path d="M318,629.45c2.83,1.64,5.93,2.41,8.98,2.41,6.22,0,12.27-3.23,15.61-9,4.97-8.61,2.02-19.62-6.59-24.59-2.83-1.64-5.93-2.41-8.98-2.41-6.22,0-12.27,3.23-15.61,9-4.97,8.61-2.02,19.62,6.59,24.59Z" style="stroke-width: 0px;"/>
    <path d="M528,265.72c2.83,1.64,5.93,2.41,8.98,2.41,6.22,0,12.27-3.23,15.61-9,4.97-8.61,2.02-19.62-6.59-24.59-2.83-1.64-5.93-2.41-8.98-2.41-6.22,0-12.27,3.23-15.61,9-4.97,8.61-2.02,19.62,6.59,24.59Z" style="stroke-width: 0px;"/>
    <path d="M604.87,552.59c2.83,1.64,5.93,2.41,8.98,2.41,6.22,0,12.27-3.23,15.61-9,4.97-8.61,2.02-19.62-6.59-24.59-2.83-1.64-5.93-2.41-8.98-2.41-6.22,0-12.27,3.23-15.61,9-4.97,8.61-2.02,19.62,6.59,24.59Z" style="stroke-width: 0px;"/>
    <path d="M241.13,342.59c2.83,1.64,5.93,2.41,8.98,2.41,6.22,0,12.27-3.23,15.61-9,4.97-8.61,2.02-19.62-6.59-24.59-2.83-1.64-5.93-2.41-8.98-2.41-6.22,0-12.27,3.23-15.61,9-4.97,8.61-2.02,19.62,6.59,24.59Z" style="stroke-width: 0px;"/>
    <path d="M250.12,519c-3.05,0-6.15.78-8.98,2.41-8.61,4.97-11.56,15.98-6.59,24.59,3.33,5.77,9.38,9,15.61,9,3.05,0,6.15-.78,8.98-2.41,8.61-4.97,11.56-15.98,6.59-24.59-3.33-5.77-9.38-9-15.6-9Z" style="stroke-width: 0px;"/>
    <path d="M613.88,345c3.05,0,6.15-.78,8.98-2.41,8.61-4.97,11.56-15.98,6.59-24.59-3.33-5.77-9.38-9-15.61-9-3.05,0-6.15.78-8.98,2.41-8.61,4.97-11.56,15.98-6.59,24.59,3.33,5.77,9.38,9,15.6,9Z" style="stroke-width: 0px;"/>
    <path d="M537.02,631.87c3.05,0,6.15-.78,8.98-2.41,8.61-4.97,11.56-15.98,6.59-24.59-3.33-5.77-9.38-9-15.61-9-3.05,0-6.15.78-8.98,2.41-8.61,4.97-11.56,15.98-6.59,24.59,3.33,5.77,9.38,9,15.61,9Z" style="stroke-width: 0px;"/>
    <path d="M327.02,268.14c3.05,0,6.15-.78,8.98-2.41,8.61-4.97,11.56-15.98,6.59-24.59-3.33-5.77-9.38-9-15.61-9-3.05,0-6.15.78-8.98,2.41-8.61,4.97-11.56,15.98-6.59,24.59,3.33,5.77,9.38,9,15.61,9Z" style="stroke-width: 0px;"/>
    <path d="M436.66,449.39c-1.56.42-3.13.62-4.67.62-7.95,0-15.22-5.3-17.38-13.35l-.61-2.29v204.63c0,.51.04,1,.08,1.5.76-9.24,8.49-16.5,17.92-16.5s17.16,7.26,17.92,16.5c.04-.5.08-.99.08-1.5v-207c0-.14-.02-.28-.02-.42.19,8.11-5.13,15.61-13.32,17.8Z" style="stroke-width: 0px;"/>
    <path d="M449.83,429.66c.04.28.07.57.09.85-.02-.29-.06-.57-.09-.85Z" style="stroke-width: 0px;"/>
    <path d="M449.47,427.75c.08.35.16.7.22,1.05-.06-.35-.14-.7-.22-1.05Z" style="stroke-width: 0px;"/>
    <path d="M432,624c-9.43,0-17.16,7.26-17.92,16.5.76,9.24,8.49,16.5,17.92,16.5s17.16-7.26,17.92-16.5c-.76-9.24-8.49-16.5-17.92-16.5Z" style="stroke-width: 0px;"/>
    <path d="M414,434.37v-2.37c0-9.94,8.06-18,18-18,8.48,0,15.56,5.87,17.47,13.75-.03-.14-.05-.27-.09-.41l-37.27-139.09c-2.57-9.6-12.45-15.3-22.04-12.73-9.6,2.57-15.3,12.44-12.73,22.05l36.66,136.8Z" style="stroke-width: 0px;"/>
    <path d="M449.92,430.51c.03.36.05.71.05,1.08,0-.36-.02-.72-.05-1.08Z" style="stroke-width: 0px;"/>
    <path d="M449.7,428.8c.05.28.09.57.13.86-.04-.29-.08-.57-.13-.86Z" style="stroke-width: 0px;"/>
    <path d="M432,414c-9.94,0-18,8.06-18,18v2.37l.61,2.29c2.16,8.04,9.43,13.35,17.38,13.35,1.54,0,3.11-.2,4.67-.62,8.19-2.19,13.51-9.69,13.32-17.8,0-.36-.02-.72-.05-1.08-.02-.28-.06-.57-.09-.85-.04-.29-.08-.57-.13-.86-.06-.35-.14-.7-.22-1.05-1.91-7.89-9-13.75-17.47-13.75Z" style="stroke-width: 0px;"/>
  </g>
</svg>