<?xml version="1.0" encoding="UTF-8"?>
<svg id="icon" xmlns="http://www.w3.org/2000/svg" viewBox="0 0 864 864">
  <g id="other_copy" data-name="other copy">
    <path d="M684,180H180v504s504,0,504,0V180ZM604.87,311.41c2.83-1.64,5.93-2.41,8.98-2.41,6.22,0,12.27,3.23,15.61,9,4.97,8.61,2.02,19.62-6.59,24.59-2.83,1.64-5.93,2.41-8.98,2.41-6.22,0-12.27-3.23-15.61-9-4.97-8.61-2.02-19.62,6.59-24.59ZM432,204c9.94,0,18,8.06,18,18s-8.06,18-18,18-18-8.06-18-18,8.06-18,18-18ZM204,432c0-9.94,8.06-18,18-18s18,8.06,18,18-8.06,18-18,18-18-8.06-18-18ZM259.13,552.59c-2.83,1.64-5.93,2.41-8.98,2.41-6.22,0-12.27-3.23-15.61-9-4.97-8.61-2.02-19.62,6.59-24.59,2.83-1.64,5.93-2.41,8.98-2.41,6.22,0,12.27,3.23,15.61,9,4.97,8.61,2.02,19.62-6.59,24.59ZM265.72,336c-3.33,5.77-9.38,9-15.6,9-3.05,0-6.15-.78-8.98-2.41-8.61-4.97-11.56-15.98-6.59-24.59,3.33-5.77,9.38-9,15.6-9,3.05,0,6.15.78,8.98,2.41,8.61,4.97,11.56,15.98,6.59,24.59ZM342.59,622.87c-3.33,5.77-9.38,9-15.6,9-3.05,0-6.15-.78-8.98-2.41-8.61-4.97-11.56-15.98-6.59-24.59,3.33-5.77,9.38-9,15.6-9,3.05,0,6.15.78,8.98,2.41,8.61,4.97,11.56,15.98,6.59,24.59ZM336,265.72c-2.83,1.64-5.93,2.41-8.98,2.41-6.22,0-12.27-3.23-15.61-9-4.97-8.61-2.02-19.62,6.59-24.59,2.83-1.64,5.93-2.41,8.98-2.41,6.22,0,12.27,3.23,15.6,9,4.97,8.61,2.02,19.62-6.59,24.59ZM450,642c0,9.94-8.06,18-18,18s-18-8.06-18-18c0-.51.03-1,.08-1.5-.04-.5-.08-.99-.08-1.5v-207c0-.59.03-1.19.09-1.78.03-.27.08-.53.11-.79.05-.32.08-.64.15-.95.06-.3.14-.59.22-.89.07-.27.13-.55.21-.82.09-.29.2-.57.3-.85.1-.27.19-.55.3-.81.11-.26.24-.51.36-.77.13-.28.25-.56.4-.83.13-.24.28-.48.42-.71.16-.27.31-.54.48-.8.17-.26.37-.5.55-.75.17-.22.32-.45.5-.66.36-.43.73-.85,1.13-1.25.02-.02.04-.05.06-.07s.05-.04.07-.06c.4-.39.81-.77,1.25-1.13.22-.18.44-.33.67-.5.25-.19.49-.38.75-.55.26-.17.53-.33.8-.49.24-.14.47-.29.71-.42.27-.15.55-.27.83-.4.26-.12.51-.25.77-.36.27-.11.54-.2.81-.3.28-.1.56-.21.85-.3.27-.08.55-.14.82-.21.29-.07.59-.16.89-.22.32-.06.64-.1.96-.15.26-.04.52-.09.79-.11.59-.06,1.18-.09,1.78-.09s1.19.03,1.78.09c.27.03.52.08.79.11.32.05.64.08.96.15.3.06.59.14.89.22.27.07.55.13.82.21.29.09.57.2.85.3.27.1.55.19.81.3.26.11.51.24.77.36.28.13.56.25.83.4.24.13.47.28.71.42.27.16.54.31.8.49.26.17.5.37.75.55.22.17.45.32.67.5.43.36.85.73,1.25,1.13.02.02.05.04.07.06l101.82,101.82c7.03,7.03,7.03,18.43,0,25.46-3.51,3.51-8.12,5.27-12.73,5.27s-9.21-1.76-12.73-5.27l-71.1-71.1v163.54c0,.51-.03,1-.08,1.5.04.5.08.99.08,1.5ZM546,629.45c-2.83,1.64-5.93,2.41-8.98,2.41-6.22,0-12.27-3.23-15.6-9-4.97-8.61-2.02-19.62,6.59-24.59,2.83-1.64,5.93-2.41,8.98-2.41,6.22,0,12.27,3.23,15.61,9,4.97,8.61,2.02,19.62-6.59,24.59ZM552.59,259.13c-3.33,5.77-9.38,9-15.6,9-3.05,0-6.15-.78-8.98-2.41-8.61-4.97-11.56-15.98-6.59-24.59,3.33-5.77,9.38-9,15.6-9,3.05,0,6.15.78,8.98,2.41,8.61,4.97,11.56,15.98,6.59,24.59ZM629.45,546c-3.33,5.77-9.38,9-15.6,9-3.05,0-6.15-.78-8.98-2.41-8.61-4.97-11.56-15.98-6.59-24.59,3.33-5.77,9.38-9,15.6-9,3.05,0,6.15.78,8.98,2.41,8.61,4.97,11.56,15.98,6.59,24.59ZM642,450c-9.94,0-18-8.06-18-18s8.06-18,18-18,18,8.06,18,18-8.06,18-18,18Z" style="fill: none; stroke-width: 0px;"/>
    <path d="M180,720h504c19.88,0,36-16.12,36-36V180c0-19.88-16.12-36-36-36H180c-19.88,0-36,16.12-36,36v504c0,19.88,16.12,36,36,36ZM180,180h504v504s-504,0-504,0V180Z" style="stroke-width: 0px;"/>
    <path d="M432,657c-9.43,0-17.16-7.26-17.92-16.5-.04.5-.08.99-.08,1.5,0,9.94,8.06,18,18,18s18-8.06,18-18c0-.51-.03-1-.08-1.5-.76,9.24-8.49,16.5-17.92,16.5Z" style="stroke-width: 0px;"/>
    <circle cx="432" cy="222" r="18" style="stroke-width: 0px;"/>
    <circle cx="642" cy="432" r="18" style="stroke-width: 0px;"/>
    <circle cx="222" cy="432" r="18" style="stroke-width: 0px;"/>
    <path d="M336,598.28c-2.83-1.64-5.93-2.41-8.98-2.41-6.22,0-12.27,3.23-15.6,9-4.97,8.61-2.02,19.62,6.59,24.59,2.83,1.64,5.93,2.41,8.98,2.41,6.22,0,12.27-3.23,15.6-9,4.97-8.61,2.02-19.62-6.59-24.59Z" style="stroke-width: 0px;"/>
    <path d="M546,234.55c-2.83-1.64-5.93-2.41-8.98-2.41-6.22,0-12.27,3.23-15.6,9-4.97,8.61-2.02,19.62,6.59,24.59,2.83,1.64,5.93,2.41,8.98,2.41,6.22,0,12.27-3.23,15.6-9,4.97-8.61,2.02-19.62-6.59-24.59Z" style="stroke-width: 0px;"/>
    <path d="M622.87,521.41c-2.83-1.64-5.93-2.41-8.98-2.41-6.22,0-12.27,3.23-15.6,9-4.97,8.61-2.02,19.62,6.59,24.59,2.83,1.64,5.93,2.41,8.98,2.41,6.22,0,12.27-3.23,15.6-9,4.97-8.61,2.02-19.62-6.59-24.59Z" style="stroke-width: 0px;"/>
    <path d="M259.13,311.41c-2.83-1.64-5.93-2.41-8.98-2.41-6.22,0-12.27,3.23-15.6,9-4.97,8.61-2.02,19.62,6.59,24.59,2.83,1.64,5.93,2.41,8.98,2.41,6.22,0,12.27-3.23,15.6-9,4.97-8.61,2.02-19.62-6.59-24.59Z" style="stroke-width: 0px;"/>
    <path d="M250.12,519c-3.05,0-6.15.78-8.98,2.41-8.61,4.97-11.56,15.98-6.59,24.59,3.33,5.77,9.38,9,15.61,9,3.05,0,6.15-.78,8.98-2.41,8.61-4.97,11.56-15.98,6.59-24.59-3.33-5.77-9.38-9-15.61-9Z" style="stroke-width: 0px;"/>
    <path d="M613.88,345c3.05,0,6.15-.78,8.98-2.41,8.61-4.97,11.56-15.98,6.59-24.59-3.33-5.77-9.38-9-15.61-9-3.05,0-6.15.78-8.98,2.41-8.61,4.97-11.56,15.98-6.59,24.59,3.33,5.77,9.38,9,15.61,9Z" style="stroke-width: 0px;"/>
    <path d="M536.98,595.86c-3.05,0-6.15.78-8.98,2.41-8.61,4.97-11.56,15.98-6.59,24.59,3.33,5.77,9.38,9,15.6,9,3.05,0,6.15-.78,8.98-2.41,8.61-4.97,11.56-15.98,6.59-24.59-3.33-5.77-9.38-9-15.61-9Z" style="stroke-width: 0px;"/>
    <path d="M326.98,232.13c-3.05,0-6.15.78-8.98,2.41-8.61,4.97-11.56,15.98-6.59,24.59,3.33,5.77,9.38,9,15.61,9,3.05,0,6.15-.78,8.98-2.41,8.61-4.97,11.56-15.98,6.59-24.59-3.33-5.77-9.38-9-15.6-9Z" style="stroke-width: 0px;"/>
    <path d="M422.8,416.55c.24-.14.47-.29.71-.42-.24.13-.47.28-.71.42Z" style="stroke-width: 0px;"/>
    <path d="M425.92,415.07c.28-.1.56-.21.85-.3-.29.09-.57.2-.85.3Z" style="stroke-width: 0px;"/>
    <path d="M421.25,417.58c.25-.19.49-.38.75-.55-.26.17-.5.37-.75.55Z" style="stroke-width: 0px;"/>
    <path d="M424.34,415.73c.26-.12.51-.25.77-.36-.26.11-.51.24-.77.36Z" style="stroke-width: 0px;"/>
    <path d="M417.03,422c.17-.26.37-.5.55-.75-.19.25-.38.49-.55.75Z" style="stroke-width: 0px;"/>
    <path d="M415.37,425.11c.11-.26.24-.51.36-.77-.12.26-.25.51-.36.77Z" style="stroke-width: 0px;"/>
    <path d="M414.78,426.77c.09-.29.2-.57.3-.85-.1.28-.21.56-.3.85Z" style="stroke-width: 0px;"/>
    <path d="M416.13,423.51c.13-.24.28-.48.42-.71-.14.24-.29.47-.42.71Z" style="stroke-width: 0px;"/>
    <path d="M418.08,420.59c.35-.43.73-.85,1.13-1.25-.39.4-.77.81-1.13,1.25Z" style="stroke-width: 0px;"/>
    <path d="M414.35,428.48c.06-.3.14-.59.22-.89-.07.3-.16.59-.22.89Z" style="stroke-width: 0px;"/>
    <path d="M414.09,430.22c.03-.26.08-.53.11-.79-.04.26-.09.52-.11.79Z" style="stroke-width: 0px;"/>
    <path d="M419.34,419.21c.4-.4.82-.77,1.25-1.13-.43.36-.85.73-1.25,1.13Z" style="stroke-width: 0px;"/>
    <path d="M427.6,414.57c.29-.07.59-.16.89-.22-.3.06-.59.14-.89.22Z" style="stroke-width: 0px;"/>
    <path d="M433.78,414.09c.26.03.52.08.79.11-.26-.04-.52-.09-.79-.11Z" style="stroke-width: 0px;"/>
    <path d="M435.52,414.35c.3.06.59.14.89.22-.29-.07-.59-.16-.89-.22Z" style="stroke-width: 0px;"/>
    <path d="M450,475.46l-30.73-30.73c-3.51-3.51-5.27-8.12-5.27-12.73v207c0,.51.03,1,.08,1.5.76-9.24,8.49-16.5,17.92-16.5s17.16,7.26,17.92,16.5c.04-.5.08-.99.08-1.5v-163.54Z" style="stroke-width: 0px;"/>
    <path d="M438.89,415.37c.26.11.51.24.77.36-.26-.12-.51-.25-.77-.36Z" style="stroke-width: 0px;"/>
    <path d="M437.23,414.78c.29.09.57.2.85.3-.28-.1-.56-.21-.85-.3Z" style="stroke-width: 0px;"/>
    <path d="M443.41,418.08c.43.35.85.73,1.25,1.13-.4-.39-.81-.77-1.25-1.13Z" style="stroke-width: 0px;"/>
    <path d="M429.44,414.2c.26-.04.52-.09.79-.11-.27.03-.52.08-.79.11Z" style="stroke-width: 0px;"/>
    <path d="M442,417.03c.26.17.5.36.75.55-.25-.19-.49-.38-.75-.55Z" style="stroke-width: 0px;"/>
    <path d="M440.49,416.13c.24.13.47.28.71.42-.24-.14-.47-.29-.71-.42Z" style="stroke-width: 0px;"/>
    <path d="M432,624c-9.43,0-17.16,7.26-17.92,16.5.76,9.24,8.49,16.5,17.92,16.5s17.16-7.26,17.92-16.5c-.76-9.24-8.49-16.5-17.92-16.5Z" style="stroke-width: 0px;"/>
    <path d="M414.2,429.43c.05-.32.08-.64.15-.95-.06.32-.1.63-.15.95Z" style="stroke-width: 0px;"/>
    <path d="M420.59,418.08c.21-.18.44-.33.67-.5-.22.17-.45.32-.67.5Z" style="stroke-width: 0px;"/>
    <path d="M414,432c0-.6.03-1.19.09-1.78-.06.59-.09,1.18-.09,1.78Z" style="stroke-width: 0px;"/>
    <path d="M415.07,425.92c.1-.27.19-.55.3-.81-.11.27-.2.54-.3.81Z" style="stroke-width: 0px;"/>
    <path d="M415.73,424.34c.13-.28.25-.56.4-.83-.15.27-.27.55-.4.83Z" style="stroke-width: 0px;"/>
    <path d="M414.57,427.59c.07-.27.13-.55.21-.82-.08.27-.14.55-.21.82Z" style="stroke-width: 0px;"/>
    <path d="M417.59,421.25c.17-.22.32-.45.5-.66-.18.22-.33.44-.5.66Z" style="stroke-width: 0px;"/>
    <path d="M416.55,422.8c.16-.27.31-.54.48-.8-.17.26-.33.53-.48.8Z" style="stroke-width: 0px;"/>
    <path d="M419.34,419.21s-.05.04-.07.06-.04.05-.06.07c.04-.04.09-.09.13-.13Z" style="stroke-width: 0px;"/>
    <path d="M442.75,417.58c.22.17.45.32.67.5-.22-.18-.44-.33-.67-.5Z" style="stroke-width: 0px;"/>
    <path d="M432,414c.6,0,1.19.03,1.78.09-.59-.06-1.18-.09-1.78-.09Z" style="stroke-width: 0px;"/>
    <path d="M434.56,414.2c.32.05.64.08.96.15-.32-.06-.64-.1-.96-.15Z" style="stroke-width: 0px;"/>
    <path d="M450,432v43.46l71.1,71.1c3.51,3.51,8.12,5.27,12.73,5.27s9.21-1.76,12.73-5.27c7.03-7.03,7.03-18.43,0-25.46l-101.82-101.82s-.05-.04-.07-.06c3.3,3.26,5.34,7.79,5.34,12.79Z" style="stroke-width: 0px;"/>
    <path d="M430.22,414.09c.58-.06,1.18-.09,1.78-.09-.59,0-1.19.03-1.78.09Z" style="stroke-width: 0px;"/>
    <path d="M436.4,414.57c.27.07.55.13.82.21-.27-.08-.55-.14-.82-.21Z" style="stroke-width: 0px;"/>
    <path d="M422,417.03c.26-.17.53-.33.8-.49-.27.16-.54.31-.8.49Z" style="stroke-width: 0px;"/>
    <path d="M438.08,415.07c.27.1.55.19.81.3-.27-.11-.54-.2-.81-.3Z" style="stroke-width: 0px;"/>
    <path d="M441.2,416.55c.27.16.54.31.8.49-.26-.17-.53-.33-.8-.49Z" style="stroke-width: 0px;"/>
    <path d="M425.11,415.37c.27-.11.54-.2.81-.3-.27.1-.54.19-.81.3Z" style="stroke-width: 0px;"/>
    <path d="M423.51,416.13c.27-.14.55-.27.83-.4-.28.13-.56.25-.83.4Z" style="stroke-width: 0px;"/>
    <path d="M439.66,415.73c.28.13.56.25.83.4-.27-.15-.55-.27-.83-.4Z" style="stroke-width: 0px;"/>
    <path d="M426.77,414.78c.27-.08.55-.14.82-.21-.27.07-.55.13-.82.21Z" style="stroke-width: 0px;"/>
    <path d="M428.48,414.35c.31-.06.64-.1.96-.15-.32.05-.64.08-.96.15Z" style="stroke-width: 0px;"/>
    <path d="M450,475.46v-43.46c0-5-2.05-9.53-5.34-12.79-.4-.4-.82-.77-1.25-1.13-.21-.18-.44-.33-.67-.5-.25-.19-.49-.38-.75-.55-.26-.17-.53-.33-.8-.49-.24-.14-.47-.29-.71-.42-.27-.14-.55-.27-.83-.4-.26-.12-.51-.25-.77-.36-.27-.11-.54-.2-.81-.3-.28-.1-.56-.21-.85-.3-.27-.08-.55-.14-.82-.21-.29-.07-.59-.16-.89-.22-.31-.06-.64-.1-.96-.15-.26-.04-.52-.09-.79-.11-.58-.06-1.18-.09-1.78-.09s-1.19.03-1.78.09c-.26.03-.52.08-.79.11-.32.05-.64.08-.96.15-.3.06-.59.14-.89.22-.27.07-.55.13-.82.21-.29.09-.57.2-.85.3-.27.1-.55.19-.81.3-.26.11-.51.24-.77.36-.28.13-.56.25-.83.4-.24.13-.47.28-.71.42-.27.16-.54.31-.8.49-.26.17-.5.36-.75.55-.22.17-.45.32-.67.5-.43.35-.85.73-1.25,1.13-.04.04-.09.09-.13.13-.4.4-.77.82-1.13,1.25-.17.21-.33.44-.5.66-.19.25-.38.49-.55.75-.17.26-.33.53-.48.8-.14.24-.29.47-.42.71-.14.27-.27.55-.4.83-.12.26-.25.51-.36.77-.11.27-.2.54-.3.81-.1.28-.21.56-.3.85-.08.27-.14.55-.21.82-.07.3-.16.59-.22.89-.06.31-.1.63-.15.95-.04.26-.09.52-.11.79-.06.58-.09,1.18-.09,1.78,0,4.61,1.76,9.21,5.27,12.73l30.73,30.73Z" style="stroke-width: 0px;"/>
  </g>
</svg>