<?xml version="1.0" encoding="UTF-8"?>
<svg id="icon" xmlns="http://www.w3.org/2000/svg" viewBox="0 0 864 864">
  <g id="other_copy" data-name="other copy">
    <path d="M530.08,199.79c-31.04-13.13-64.04-19.79-98.08-19.79s-67.03,6.66-98.08,19.79c-30,12.69-56.96,30.87-80.11,54.02s-41.33,50.11-54.02,80.11c-13.13,31.04-19.79,64.04-19.79,98.08s6.66,67.03,19.79,98.08c12.69,30,30.87,56.96,54.02,80.11s50.11,41.33,80.11,54.02c31.04,13.13,64.04,19.79,98.08,19.79s67.03-6.66,98.08-19.79c30-12.69,56.96-30.87,80.11-54.02s41.33-50.11,54.02-80.11c13.13-31.04,19.79-64.04,19.79-98.08s-6.66-67.03-19.79-98.08c-12.69-30-30.87-56.96-54.02-80.11s-50.11-41.33-80.11-54.02ZM450,432c0,.17-.02.33-.02.49-.01.36-.02.72-.05,1.07-.02.28-.06.56-.1.84-.04.29-.08.58-.13.86-.06.32-.13.64-.21.96-.06.24-.12.48-.18.72-.09.33-.2.66-.31.98-.08.23-.16.45-.25.67-.12.31-.25.61-.39.91-.11.24-.22.47-.34.7-.14.27-.28.53-.43.79-.15.26-.3.51-.46.76-.14.22-.29.44-.44.65-.19.27-.39.53-.59.79-.15.19-.31.37-.46.55-.22.26-.45.51-.69.76-.17.18-.35.35-.53.52-.23.22-.47.44-.72.65-.22.19-.45.37-.69.55-.22.17-.44.34-.67.5-.3.21-.6.4-.91.59-.14.09-.27.18-.41.26l-124.71,72c-2.83,1.64-5.93,2.41-8.98,2.41-6.22,0-12.27-3.23-15.61-9-4.97-8.61-2.02-19.62,6.59-24.59l115.71-66.8v-187.61c0-9.94,8.06-18,18-18s18,8.06,18,18v198Z" style="fill: none; stroke-width: 0px;"/>
    <path d="M432,144c-159.06,0-288,128.94-288,288s128.94,288,288,288,288-128.94,288-288-128.94-288-288-288ZM684,432c0,34.04-6.66,67.03-19.79,98.08-12.69,30-30.87,56.96-54.02,80.11s-50.11,41.33-80.11,54.02c-31.04,13.13-64.04,19.79-98.08,19.79s-67.03-6.66-98.08-19.79c-30-12.69-56.96-30.87-80.11-54.02s-41.33-50.11-54.02-80.11c-13.13-31.04-19.79-64.04-19.79-98.08s6.66-67.03,19.79-98.08c12.69-30,30.87-56.96,54.02-80.11s50.11-41.33,80.11-54.02c31.04-13.13,64.04-19.79,98.08-19.79s67.03,6.66,98.08,19.79c30,12.69,56.96,30.87,80.11,54.02s41.33,50.11,54.02,80.11c13.13,31.04,19.79,64.04,19.79,98.08Z" style="stroke-width: 0px;"/>
    <path d="M443.67,445.69c-.22.19-.45.37-.69.55.23-.18.46-.36.69-.55Z" style="stroke-width: 0px;"/>
    <path d="M442.32,446.74c-.29.21-.6.4-.91.59.31-.19.61-.38.91-.59Z" style="stroke-width: 0px;"/>
    <path d="M446.08,443.2c-.15.19-.31.37-.46.55.16-.18.31-.37.46-.55Z" style="stroke-width: 0px;"/>
    <path d="M432,216c-9.94,0-18,8.06-18,18v187.61l9-5.2c8.61-4.97,19.62-2.02,24.59,6.59,1.73,2.99,2.48,6.27,2.39,9.49,0-.17.02-.33.02-.49v-198c0-9.94-8.06-18-18-18Z" style="stroke-width: 0px;"/>
    <path d="M447.11,441.76c-.14.22-.29.44-.44.65.15-.21.3-.43.44-.65Z" style="stroke-width: 0px;"/>
    <path d="M449.69,435.26c-.06.32-.13.64-.21.96.08-.32.15-.63.21-.96Z" style="stroke-width: 0px;"/>
    <path d="M449.3,436.94c-.09.33-.2.66-.31.98.11-.32.22-.65.31-.98Z" style="stroke-width: 0px;"/>
    <path d="M444.93,444.51c-.17.18-.35.35-.53.52.18-.17.36-.34.53-.52Z" style="stroke-width: 0px;"/>
    <path d="M449.92,433.57c-.02.28-.06.56-.1.84.04-.28.08-.56.1-.84Z" style="stroke-width: 0px;"/>
    <path d="M448.01,440.21c-.14.27-.28.53-.43.79.15-.26.29-.52.43-.79Z" style="stroke-width: 0px;"/>
    <path d="M448.74,438.59c-.12.31-.25.61-.39.91.14-.3.27-.6.39-.91Z" style="stroke-width: 0px;"/>
    <path d="M442.99,446.24c-.22.17-.44.34-.67.5.23-.16.45-.33.67-.5Z" style="stroke-width: 0px;"/>
    <path d="M445.61,443.75c-.22.26-.45.51-.69.76.24-.25.47-.5.69-.76Z" style="stroke-width: 0px;"/>
    <path d="M444.39,445.03c-.23.22-.47.44-.72.65.25-.21.48-.43.72-.65Z" style="stroke-width: 0px;"/>
    <path d="M448.35,439.5c-.11.24-.22.47-.34.7.12-.23.23-.47.34-.7Z" style="stroke-width: 0px;"/>
    <path d="M449.48,436.22c-.06.24-.12.48-.18.72.07-.24.13-.48.18-.72Z" style="stroke-width: 0px;"/>
    <path d="M448.98,437.92c-.08.23-.16.45-.25.67.09-.22.17-.45.25-.67Z" style="stroke-width: 0px;"/>
    <path d="M447.58,440.99c-.15.26-.3.51-.46.76.16-.25.31-.5.46-.76Z" style="stroke-width: 0px;"/>
    <path d="M446.67,442.41c-.19.27-.39.53-.59.79.21-.26.4-.52.59-.79Z" style="stroke-width: 0px;"/>
    <path d="M449.82,434.4c-.04.29-.08.58-.13.86.05-.29.09-.57.13-.86Z" style="stroke-width: 0px;"/>
    <path d="M449.98,432.49c0,.36-.02.72-.05,1.07.03-.36.04-.71.05-1.07Z" style="stroke-width: 0px;"/>
    <path d="M414,432v-10.39l-115.71,66.8c-8.61,4.97-11.56,15.98-6.59,24.59,3.33,5.77,9.38,9,15.61,9,3.05,0,6.15-.78,8.98-2.41l124.71-72c.14-.08.27-.18.41-.26-2.74,1.69-5.96,2.68-9.41,2.68-9.94,0-18-8.06-18-18Z" style="stroke-width: 0px;"/>
    <path d="M447.59,423c-4.97-8.61-15.98-11.56-24.59-6.59l-9,5.2v10.39c0,9.94,8.06,18,18,18,3.45,0,6.67-.99,9.41-2.68.31-.19.62-.38.91-.59.23-.16.45-.33.67-.5.23-.18.46-.36.69-.55.25-.21.48-.43.72-.65.18-.17.36-.34.53-.52.24-.24.46-.5.69-.76.16-.18.31-.37.46-.55.21-.26.4-.52.59-.79.15-.21.3-.43.44-.65.16-.25.31-.5.46-.76.15-.26.3-.52.43-.79.12-.23.23-.47.34-.7.14-.3.27-.61.39-.91.09-.22.17-.45.25-.67.11-.32.22-.65.31-.98.07-.24.13-.48.18-.72.08-.32.15-.64.21-.96.05-.28.09-.57.13-.86.04-.28.08-.56.1-.84.03-.35.04-.71.05-1.07.09-3.22-.66-6.5-2.39-9.49Z" style="stroke-width: 0px;"/>
  </g>
</svg>