<?xml version="1.0" encoding="UTF-8"?>
<svg id="icon" xmlns="http://www.w3.org/2000/svg" viewBox="0 0 864 864">
  <g id="other_copy" data-name="other copy">
    <path d="M684,144H180c-19.88,0-36,16.12-36,36v504c0,19.88,16.12,36,36,36h504c19.88,0,36-16.12,36-36V180c0-19.88-16.12-36-36-36ZM265.72,336c-3.33,5.77-9.38,9-15.6,9-3.05,0-6.15-.78-8.98-2.41-8.61-4.97-11.56-15.98-6.59-24.59,3.33-5.77,9.38-9,15.6-9,3.05,0,6.15.78,8.98,2.41,8.61,4.97,11.56,15.98,6.59,24.59ZM259.13,552.59c-2.83,1.64-5.93,2.41-8.98,2.41-6.22,0-12.27-3.23-15.6-9-4.97-8.61-2.02-19.62,6.59-24.59,2.83-1.64,5.93-2.41,8.98-2.41,6.22,0,12.27,3.23,15.6,9,4.97,8.61,2.02,19.62-6.59,24.59ZM240,432c0,9.94-8.06,18-18,18s-18-8.06-18-18,8.06-18,18-18,18,8.06,18,18ZM316.29,344.41l97.71,56.41v-175.82c0-.51.04-1,.08-1.5-.04-.5-.08-.99-.08-1.5,0-9.94,8.06-18,18-18s18,8.06,18,18c0,.51-.04,1-.08,1.5.04.5.08.99.08,1.5v207c0,.06,0,.13,0,.19,0,.39-.03.78-.06,1.17-.02.21-.02.42-.05.63-.04.36-.1.71-.16,1.07-.04.24-.07.48-.12.72-.06.29-.15.59-.23.88-.08.29-.15.58-.24.87-.08.23-.17.46-.25.69-.12.34-.25.67-.39,1-.08.19-.19.38-.28.58-.17.35-.34.7-.53,1.04-.03.06-.06.12-.09.17-.2.35-.42.7-.64,1.03-.02.03-.05.06-.07.1-.28.42-.59.82-.9,1.2-.07.08-.13.16-.2.24-.33.4-.68.79-1.04,1.15,0,0,0,0,0,0-.39.39-.8.76-1.23,1.11-.05.04-.1.08-.15.12-.38.31-.78.61-1.18.89-.05.04-.11.08-.16.11-.43.29-.87.55-1.32.8-.12.06-.23.12-.35.18-.34.18-.69.35-1.05.51-.14.06-.28.13-.43.19-.43.18-.87.34-1.32.48-.17.06-.35.1-.52.16-.36.1-.72.2-1.09.28-.14.03-.28.07-.42.1-.5.1-1,.17-1.51.23-.12.01-.24.02-.36.04-.55.05-1.11.09-1.66.09s-1.13-.04-1.69-.09c-.08,0-.16-.01-.24-.02-.55-.06-1.09-.14-1.63-.25-.06-.01-.12-.03-.18-.04-.46-.1-.91-.22-1.37-.35-.12-.04-.25-.07-.37-.11-.47-.15-.94-.32-1.41-.51-.13-.05-.26-.12-.38-.17-.34-.15-.68-.31-1.01-.49-.16-.08-.32-.17-.48-.25-.07-.04-.15-.08-.22-.12l-124.71-72c-8.61-4.97-11.56-15.98-6.59-24.59,4.97-8.61,15.98-11.56,24.59-6.59ZM318,234.55c2.83-1.64,5.93-2.41,8.98-2.41,6.22,0,12.27,3.23,15.6,9,4.97,8.61,2.02,19.62-6.59,24.59-2.83,1.64-5.93,2.41-8.98,2.41-6.22,0-12.27-3.23-15.61-9-4.97-8.61-2.02-19.62,6.59-24.59ZM450,642c0,9.94-8.06,18-18,18s-18-8.06-18-18,8.06-18,18-18,18,8.06,18,18ZM342.59,622.87c-3.33,5.77-9.38,9-15.6,9-3.05,0-6.15-.78-8.98-2.41-8.61-4.97-11.56-15.98-6.59-24.59,3.33-5.77,9.38-9,15.6-9,3.05,0,6.15.78,8.98,2.41,8.61,4.97,11.56,15.98,6.59,24.59ZM528,598.28c2.83-1.64,5.93-2.41,8.98-2.41,6.22,0,12.27,3.23,15.61,9,4.97,8.61,2.02,19.62-6.59,24.59-2.83,1.64-5.93,2.41-8.98,2.41-6.22,0-12.27-3.23-15.6-9-4.97-8.61-2.02-19.62,6.59-24.59ZM521.41,241.13c3.33-5.77,9.38-9,15.6-9,3.05,0,6.15.78,8.98,2.41,8.61,4.97,11.56,15.98,6.59,24.59-3.33,5.77-9.38,9-15.6,9-3.05,0-6.15-.78-8.98-2.41-8.61-4.97-11.56-15.98-6.59-24.59ZM598.28,528c3.33-5.77,9.38-9,15.6-9,3.05,0,6.15.78,8.98,2.41,8.61,4.97,11.56,15.98,6.59,24.59-3.33,5.77-9.38,9-15.6,9-3.05,0-6.15-.78-8.98-2.41-8.61-4.97-11.56-15.98-6.59-24.59ZM604.87,311.41c2.83-1.64,5.93-2.41,8.98-2.41,6.22,0,12.27,3.23,15.6,9,4.97,8.61,2.02,19.62-6.59,24.59-2.83,1.64-5.93,2.41-8.98,2.41-6.22,0-12.27-3.23-15.6-9-4.97-8.61-2.02-19.62,6.59-24.59ZM642,450c-9.94,0-18-8.06-18-18s8.06-18,18-18,18,8.06,18,18-8.06,18-18,18Z" style="stroke-width: 0px;"/>
  </g>
</svg>