<?xml version="1.0" encoding="UTF-8"?>
<svg id="icon" xmlns="http://www.w3.org/2000/svg" viewBox="0 0 864 864">
  <g id="other_copy" data-name="other copy">
    <path d="M684,144H180c-19.88,0-36,16.12-36,36v504c0,19.88,16.12,36,36,36h504c19.88,0,36-16.12,36-36V180c0-19.88-16.12-36-36-36ZM265.72,336c-3.33,5.77-9.38,9-15.61,9-3.05,0-6.15-.78-8.98-2.41-8.61-4.97-11.56-15.98-6.59-24.59,3.33-5.77,9.38-9,15.61-9,3.05,0,6.15.78,8.98,2.41,8.61,4.97,11.56,15.98,6.59,24.59ZM259.13,552.59c-2.83,1.64-5.93,2.41-8.98,2.41-6.22,0-12.27-3.23-15.61-9-4.97-8.61-2.02-19.62,6.59-24.59,2.83-1.64,5.93-2.41,8.98-2.41,6.22,0,12.27,3.23,15.61,9,4.97,8.61,2.02,19.62-6.59,24.59ZM240,432c0,9.94-8.06,18-18,18s-18-8.06-18-18,8.06-18,18-18,18,8.06,18,18ZM311.41,604.87c3.33-5.77,9.38-9,15.61-9,3.05,0,6.15.78,8.98,2.41,8.61,4.97,11.56,15.98,6.59,24.59-3.33,5.77-9.38,9-15.61,9-3.05,0-6.15-.78-8.98-2.41-8.61-4.97-11.56-15.98-6.59-24.59ZM318,234.55c2.83-1.64,5.93-2.41,8.98-2.41,6.22,0,12.27,3.23,15.61,9,4.97,8.61,2.02,19.62-6.59,24.59-2.83,1.64-5.93,2.41-8.98,2.41-6.22,0-12.27-3.23-15.61-9-4.97-8.61-2.02-19.62,6.59-24.59ZM414,639v-207c0-.59.03-1.19.09-1.78.03-.27.08-.53.11-.79.05-.32.08-.63.14-.95.06-.3.14-.6.22-.9.07-.27.13-.54.21-.81.09-.29.2-.58.3-.86.1-.27.18-.54.29-.8.11-.27.24-.53.37-.79.13-.27.25-.54.39-.81.14-.25.29-.5.44-.74.15-.26.3-.52.47-.77.18-.28.39-.54.59-.8.15-.2.3-.41.46-.61.38-.46.78-.9,1.2-1.33l101.82-101.82c7.03-7.03,18.43-7.03,25.46,0,7.03,7.03,7.03,18.43,0,25.46l-96.55,96.55v199.54c0,.51-.03,1-.08,1.5.04.5.08.99.08,1.5,0,9.94-8.06,18-18,18s-18-8.06-18-18c0-.51.03-1,.08-1.5-.04-.5-.08-.99-.08-1.5ZM414,222c0-9.94,8.06-18,18-18s18,8.06,18,18-8.06,18-18,18-18-8.06-18-18ZM552.59,259.13c-3.33,5.77-9.38,9-15.61,9-3.05,0-6.15-.78-8.98-2.41-8.61-4.97-11.56-15.98-6.59-24.59,3.33-5.77,9.38-9,15.61-9,3.05,0,6.15.78,8.98,2.41,8.61,4.97,11.56,15.98,6.59,24.59ZM546,629.45c-2.83,1.64-5.93,2.41-8.98,2.41-6.22,0-12.27-3.23-15.61-9-4.97-8.61-2.02-19.62,6.59-24.59,2.83-1.64,5.93-2.41,8.98-2.41,6.22,0,12.27,3.23,15.61,9,4.97,8.61,2.02,19.62-6.59,24.59ZM598.28,528c3.33-5.77,9.38-9,15.61-9,3.05,0,6.15.78,8.98,2.41,8.61,4.97,11.56,15.98,6.59,24.59-3.33,5.77-9.38,9-15.61,9-3.05,0-6.15-.78-8.98-2.41-8.61-4.97-11.56-15.98-6.59-24.59ZM604.87,311.41c2.83-1.64,5.93-2.41,8.98-2.41,6.22,0,12.27,3.23,15.61,9,4.97,8.61,2.02,19.62-6.59,24.59-2.83,1.64-5.93,2.41-8.98,2.41-6.22,0-12.27-3.23-15.61-9-4.97-8.61-2.02-19.62,6.59-24.59ZM642,450c-9.94,0-18-8.06-18-18s8.06-18,18-18,18,8.06,18,18-8.06,18-18,18Z" style="stroke-width: 0px;"/>
  </g>
</svg>