<?xml version="1.0" encoding="UTF-8"?>
<svg id="icon" xmlns="http://www.w3.org/2000/svg" viewBox="0 0 864 864">
  <g id="other_copy" data-name="other copy">
    <path d="M333.92,664.21c31.04,13.13,64.04,19.79,98.08,19.79s67.03-6.66,98.08-19.79c30-12.69,56.96-30.87,80.11-54.02,23.16-23.15,41.33-50.11,54.02-80.11,13.13-31.04,19.79-64.04,19.79-98.08s-6.66-67.03-19.79-98.08c-12.69-30-30.87-56.96-54.02-80.11-23.15-23.16-50.11-41.33-80.11-54.02-31.04-13.13-64.04-19.79-98.08-19.79s-67.03,6.66-98.08,19.79c-30,12.69-56.96,30.87-80.11,54.02-23.16,23.15-41.33,50.11-54.02,80.11-13.13,31.04-19.79,64.04-19.79,98.08s6.66,67.03,19.79,98.08c12.69,30,30.87,56.96,54.02,80.11,23.15,23.16,50.11,41.33,80.11,54.02ZM414,432c0-.09.01-.19.01-.28,0-.38.03-.76.06-1.13.02-.23.04-.46.06-.69.04-.34.09-.68.15-1.01.05-.26.09-.53.15-.79.06-.28.14-.56.22-.84.08-.3.16-.6.26-.89.08-.24.17-.47.26-.7.12-.32.24-.63.38-.94.09-.21.2-.42.3-.63.15-.31.3-.61.47-.91.12-.22.26-.42.39-.64.17-.27.34-.55.52-.81.16-.23.34-.46.51-.68.17-.22.34-.45.52-.66.21-.25.43-.48.65-.71.17-.18.34-.36.51-.54.24-.24.5-.47.76-.69.18-.15.35-.31.53-.46.26-.21.54-.41.81-.61.2-.14.4-.29.61-.43.26-.17.53-.33.8-.48.25-.15.5-.29.75-.43.24-.12.48-.24.73-.35.31-.14.62-.28.94-.41.22-.09.44-.16.66-.24.35-.13.71-.24,1.08-.35.09-.03.18-.06.27-.09.14-.04.27-.05.41-.09.35-.08.69-.16,1.05-.22.28-.05.57-.09.85-.13.29-.04.57-.07.87-.1.35-.03.71-.04,1.06-.05.14,0,.28-.02.43-.02.1,0,.19.01.29.01.37,0,.75.03,1.12.06.24.02.47.04.71.06.33.04.67.09,1,.15.27.05.54.09.81.15.28.06.55.14.83.21.3.08.61.17.91.26.23.08.46.17.69.25.32.12.64.24.96.38.21.09.41.2.62.3.31.15.62.31.92.48.21.12.42.25.63.38.28.17.55.34.82.52.23.16.45.33.67.5.23.17.45.34.67.53.24.21.48.43.71.65.18.17.36.34.54.51.24.24.47.5.69.76.15.17.31.35.45.53.21.26.41.54.61.82.14.2.29.4.43.61.17.26.33.53.49.8.15.25.29.5.42.75.12.24.24.48.35.73.14.31.28.62.41.93.09.22.16.44.24.66.13.35.24.71.35,1.07.03.09.06.18.09.27l37.27,139.09c2.57,9.6-3.13,19.47-12.73,22.05-1.56.42-3.13.62-4.67.62-7.95,0-15.22-5.3-17.38-13.35l-1.88-7.03v61.28c0,9.94-8.06,18-18,18s-18-8.06-18-18v-198Z" style="fill: none; stroke-width: 0px;"/>
    <path d="M432,720c159.06,0,288-128.94,288-288s-128.94-288-288-288S144,272.94,144,432s128.94,288,288,288ZM180,432c0-34.04,6.66-67.03,19.79-98.08,12.69-30,30.87-56.96,54.02-80.11,23.15-23.16,50.11-41.33,80.11-54.02,31.04-13.13,64.04-19.79,98.08-19.79s67.03,6.66,98.08,19.79c30,12.69,56.96,30.87,80.11,54.02,23.16,23.15,41.33,50.11,54.02,80.11,13.13,31.04,19.79,64.04,19.79,98.08s-6.66,67.03-19.79,98.08c-12.69,30-30.87,56.96-54.02,80.11-23.15,23.16-50.11,41.33-80.11,54.02-31.04,13.13-64.04,19.79-98.08,19.79s-67.03-6.66-98.08-19.79c-30-12.69-56.96-30.87-80.11-54.02-23.16-23.15-41.33-50.11-54.02-80.11-13.13-31.04-19.79-64.04-19.79-98.08Z" style="stroke-width: 0px;"/>
    <path d="M422.93,416.47c.25-.15.5-.29.75-.43-.26.13-.51.28-.75.43Z" style="stroke-width: 0px;"/>
    <path d="M441.45,416.7c.28.17.55.34.82.52-.27-.18-.54-.35-.82-.52Z" style="stroke-width: 0px;"/>
    <path d="M424.41,415.7c.31-.14.62-.28.94-.41-.32.13-.63.27-.94.41Z" style="stroke-width: 0px;"/>
    <path d="M420.18,418.45c.18-.15.35-.31.53-.46-.18.15-.35.3-.53.46Z" style="stroke-width: 0px;"/>
    <path d="M417.74,421.05c.17-.22.34-.45.52-.66-.18.22-.35.44-.52.66Z" style="stroke-width: 0px;"/>
    <path d="M418.91,419.67c.17-.18.34-.36.51-.54-.18.17-.34.36-.51.54Z" style="stroke-width: 0px;"/>
    <path d="M421.52,417.38c.2-.14.4-.29.61-.43-.21.14-.41.28-.61.43Z" style="stroke-width: 0px;"/>
    <path d="M426,415.05c.35-.12.71-.24,1.08-.35-.36.1-.72.22-1.08.35Z" style="stroke-width: 0px;"/>
    <path d="M432,414c-.14,0-.28.02-.43.02.24,0,.48-.01.71,0-.1,0-.19-.01-.29-.01Z" style="stroke-width: 0px;"/>
    <path d="M439.9,415.85c.31.15.62.31.92.48-.3-.17-.61-.32-.92-.48Z" style="stroke-width: 0px;"/>
    <path d="M438.33,415.17c.32.12.64.24.96.38-.31-.14-.63-.26-.96-.38Z" style="stroke-width: 0px;"/>
    <path d="M433.4,414.07c.24.02.47.04.71.06-.23-.03-.47-.04-.71-.06Z" style="stroke-width: 0px;"/>
    <path d="M427.75,414.53c.35-.08.7-.16,1.05-.22-.35.06-.7.14-1.05.22Z" style="stroke-width: 0px;"/>
    <path d="M429.65,414.17c.29-.04.58-.07.87-.1-.29.02-.58.06-.87.1Z" style="stroke-width: 0px;"/>
    <path d="M435.11,414.29c.27.05.54.09.81.15-.27-.06-.54-.11-.81-.15Z" style="stroke-width: 0px;"/>
    <path d="M446.62,421.52c.14.2.29.4.43.61-.14-.21-.28-.41-.43-.61Z" style="stroke-width: 0px;"/>
    <path d="M447.53,422.93c.14.25.29.5.42.75-.13-.26-.28-.5-.42-.75Z" style="stroke-width: 0px;"/>
    <path d="M436.74,414.65c.3.08.61.17.91.26-.3-.1-.6-.18-.91-.26Z" style="stroke-width: 0px;"/>
    <path d="M444.32,418.9c.18.17.36.34.54.51-.17-.18-.36-.34-.54-.51Z" style="stroke-width: 0px;"/>
    <path d="M414.29,428.88c.05-.26.09-.53.15-.79-.06.26-.1.53-.15.79Z" style="stroke-width: 0px;"/>
    <path d="M445.55,420.18c.15.17.31.35.45.53-.15-.18-.3-.35-.45-.53Z" style="stroke-width: 0px;"/>
    <path d="M448.95,426c.12.35.24.71.35,1.07-.1-.36-.22-.72-.35-1.07Z" style="stroke-width: 0px;"/>
    <path d="M448.3,424.41c.14.31.28.62.41.93-.13-.32-.27-.63-.41-.93Z" style="stroke-width: 0px;"/>
    <path d="M414.07,430.59c.02-.23.03-.46.06-.69-.03.23-.04.46-.06.69Z" style="stroke-width: 0px;"/>
    <path d="M432,648c9.94,0,18-8.06,18-18v-61.28l-35.39-132.06c-.44-1.65-.62-3.31-.6-4.94,0,.09-.01.19-.01.28v198c0,9.94,8.06,18,18,18Z" style="stroke-width: 0px;"/>
    <path d="M442.94,417.73c.23.17.45.34.67.53-.22-.18-.44-.35-.67-.53Z" style="stroke-width: 0px;"/>
    <path d="M414.65,427.25c.08-.3.16-.6.26-.89-.1.29-.18.59-.26.89Z" style="stroke-width: 0px;"/>
    <path d="M416.71,422.54c.17-.27.34-.54.52-.81-.18.26-.35.54-.52.81Z" style="stroke-width: 0px;"/>
    <path d="M415.85,424.09c.15-.31.3-.61.47-.91-.17.3-.32.6-.47.91Z" style="stroke-width: 0px;"/>
    <path d="M415.17,425.66c.12-.32.24-.63.38-.94-.14.31-.26.62-.38.94Z" style="stroke-width: 0px;"/>
    <path d="M450,568.72l1.88,7.03c2.15,8.04,9.43,13.35,17.38,13.35,1.54,0,3.11-.2,4.67-.62,9.6-2.57,15.3-12.44,12.73-22.05l-37.27-139.09c-.02-.09-.06-.18-.09-.27.45,1.57.7,3.22.7,4.93v136.72Z" style="stroke-width: 0px;"/>
    <path d="M427.34,414.61c-.09.02-.18.06-.27.09.22-.06.45-.12.68-.17-.14.03-.27.05-.41.09Z" style="stroke-width: 0px;"/>
    <path d="M437.64,414.92c.23.08.46.17.69.25-.23-.09-.45-.17-.69-.25Z" style="stroke-width: 0px;"/>
    <path d="M425.34,415.29c.22-.09.44-.16.66-.24-.22.08-.44.15-.66.24Z" style="stroke-width: 0px;"/>
    <path d="M444.86,419.42c.24.25.47.5.69.76-.23-.26-.45-.52-.69-.76Z" style="stroke-width: 0px;"/>
    <path d="M446.01,420.71c.21.26.41.54.61.82-.2-.28-.4-.55-.61-.82Z" style="stroke-width: 0px;"/>
    <path d="M423.68,416.05c.24-.12.48-.24.73-.35-.24.11-.49.23-.73.35Z" style="stroke-width: 0px;"/>
    <path d="M434.11,414.13c.34.04.67.09,1,.15-.33-.06-.66-.11-1-.15Z" style="stroke-width: 0px;"/>
    <path d="M447.04,422.13c.17.26.33.53.49.8-.16-.27-.31-.54-.49-.8Z" style="stroke-width: 0px;"/>
    <path d="M447.95,423.68c.12.24.24.48.35.73-.11-.25-.23-.49-.35-.73Z" style="stroke-width: 0px;"/>
    <path d="M448.71,425.34c.09.22.16.44.24.66-.08-.22-.15-.44-.24-.66Z" style="stroke-width: 0px;"/>
    <path d="M443.61,418.26c.24.21.48.43.71.65-.23-.22-.47-.44-.71-.65Z" style="stroke-width: 0px;"/>
    <path d="M428.8,414.3c.28-.05.56-.09.85-.13-.28.04-.56.08-.85.13Z" style="stroke-width: 0px;"/>
    <path d="M432.29,414.01c.38,0,.75.03,1.12.06-.37-.03-.74-.05-1.12-.06Z" style="stroke-width: 0px;"/>
    <path d="M435.91,414.44c.28.06.55.14.83.21-.27-.08-.55-.15-.83-.21Z" style="stroke-width: 0px;"/>
    <path d="M440.83,416.32c.21.12.42.25.63.38-.21-.13-.41-.26-.63-.38Z" style="stroke-width: 0px;"/>
    <path d="M414.01,431.72c0-.38.03-.76.06-1.13-.03.38-.05.75-.06,1.13Z" style="stroke-width: 0px;"/>
    <path d="M414.91,426.36c.08-.24.17-.47.26-.7-.09.23-.18.46-.26.7Z" style="stroke-width: 0px;"/>
    <path d="M416.32,423.18c.12-.22.26-.42.39-.64-.13.21-.26.42-.39.64Z" style="stroke-width: 0px;"/>
    <path d="M439.29,415.55c.21.09.41.2.62.3-.21-.1-.41-.2-.62-.3Z" style="stroke-width: 0px;"/>
    <path d="M417.23,421.73c.16-.23.34-.46.51-.68-.17.23-.35.45-.51.68Z" style="stroke-width: 0px;"/>
    <path d="M415.55,424.72c.09-.21.2-.42.3-.63-.1.21-.21.42-.3.63Z" style="stroke-width: 0px;"/>
    <path d="M430.52,414.08c.35-.03.7-.05,1.06-.05-.35,0-.7.02-1.06.05Z" style="stroke-width: 0px;"/>
    <path d="M414.44,428.09c.06-.28.14-.56.22-.84-.08.28-.15.56-.22.84Z" style="stroke-width: 0px;"/>
    <path d="M420.71,417.99c.26-.21.54-.41.81-.61-.28.2-.55.4-.81.61Z" style="stroke-width: 0px;"/>
    <path d="M419.42,419.14c.25-.24.5-.47.76-.69-.26.23-.52.45-.76.69Z" style="stroke-width: 0px;"/>
    <path d="M422.13,416.96c.26-.17.53-.33.8-.48-.27.16-.54.31-.8.48Z" style="stroke-width: 0px;"/>
    <path d="M442.27,417.23c.23.16.45.33.67.5-.22-.17-.44-.34-.67-.5Z" style="stroke-width: 0px;"/>
    <path d="M414.13,429.9c.04-.34.1-.68.15-1.01-.06.34-.11.67-.15,1.01Z" style="stroke-width: 0px;"/>
    <path d="M418.26,420.39c.21-.25.43-.48.65-.71-.22.23-.44.47-.65.71Z" style="stroke-width: 0px;"/>
    <path d="M450,568.72v-136.72c0-1.71-.25-3.36-.7-4.93-.1-.36-.22-.72-.35-1.07-.08-.22-.15-.44-.24-.66-.13-.32-.27-.63-.41-.93-.11-.24-.23-.49-.35-.73-.13-.26-.28-.5-.42-.75-.16-.27-.31-.54-.49-.8-.14-.21-.28-.41-.43-.61-.2-.28-.4-.55-.61-.82-.15-.18-.3-.35-.45-.53-.23-.26-.45-.52-.69-.76-.17-.18-.36-.34-.54-.51-.23-.22-.47-.44-.71-.65-.22-.18-.44-.35-.67-.53-.22-.17-.44-.34-.67-.5-.27-.18-.54-.35-.82-.52-.21-.13-.41-.26-.63-.38-.3-.17-.61-.32-.92-.48-.21-.1-.41-.2-.62-.3-.31-.14-.63-.26-.96-.38-.23-.09-.45-.17-.69-.25-.3-.1-.6-.18-.91-.26-.27-.07-.55-.15-.83-.21-.27-.06-.54-.11-.81-.15-.33-.06-.66-.11-1-.15-.23-.03-.47-.04-.71-.06-.37-.03-.74-.05-1.12-.06-.24,0-.47,0-.71,0-.35,0-.71.02-1.06.05-.29.02-.58.06-.87.1-.28.04-.57.08-.85.13-.35.06-.7.14-1.05.22-.23.06-.46.11-.68.17-.36.1-.72.22-1.08.35-.22.08-.44.15-.66.24-.32.13-.63.27-.94.41-.24.11-.49.23-.73.35-.26.13-.51.28-.75.43-.27.16-.54.31-.8.48-.21.14-.41.28-.61.43-.28.2-.55.4-.81.61-.18.15-.35.3-.53.46-.26.23-.52.45-.76.69-.18.17-.34.36-.51.54-.22.23-.44.47-.65.71-.18.22-.35.44-.52.66-.17.22-.35.45-.51.68-.18.26-.35.54-.52.81-.13.21-.26.42-.39.64-.17.3-.32.61-.47.91-.1.21-.21.42-.3.63-.14.31-.26.63-.38.94-.09.23-.18.46-.26.7-.1.29-.18.59-.26.89-.08.28-.15.56-.22.84-.06.26-.1.53-.15.79-.06.33-.11.67-.15,1.01-.03.23-.04.46-.06.69-.03.37-.05.75-.06,1.13-.02,1.63.16,3.29.6,4.94l35.39,132.06Z" style="stroke-width: 0px;"/>
  </g>
</svg>