<?xml version="1.0" encoding="UTF-8"?>
<svg id="icon" xmlns="http://www.w3.org/2000/svg" viewBox="0 0 864 864">
  <g id="other_copy" data-name="other copy">
    <path d="M530.08,199.79c-31.04-13.13-64.04-19.79-98.08-19.79s-67.03,6.66-98.08,19.79c-30,12.69-56.96,30.87-80.11,54.02-23.15,23.15-41.33,50.11-54.02,80.11-13.13,31.04-19.79,64.04-19.79,98.08s6.66,67.03,19.79,98.08c12.69,30,30.87,56.96,54.02,80.11,23.16,23.16,50.11,41.33,80.11,54.02,31.04,13.13,64.04,19.79,98.08,19.79s67.03-6.66,98.08-19.79c30-12.69,56.96-30.87,80.11-54.02,23.15-23.15,41.33-50.11,54.02-80.11,13.13-31.04,19.79-64.04,19.79-98.08s-6.66-67.03-19.79-98.08c-12.69-30-30.87-56.96-54.02-80.11-23.16-23.16-50.11-41.33-80.11-54.02ZM450,630c0,9.94-8.06,18-18,18s-18-8.06-18-18v-190.54l-96.55-96.55c-7.03-7.03-7.03-18.43,0-25.46,7.03-7.03,18.43-7.03,25.46,0l101.82,101.82c.42.42.82.86,1.2,1.33.17.2.31.41.46.62.2.26.4.52.58.79.17.25.32.52.47.78.15.24.3.48.43.73.14.27.26.54.39.82.12.26.25.51.36.78.11.27.2.54.3.81.1.28.21.56.3.85.08.27.14.55.21.83.07.29.16.58.21.88.06.32.1.65.15.98.04.25.08.5.11.76.06.59.09,1.19.09,1.78v197.99Z" style="fill: none; stroke-width: 0px;"/>
    <path d="M432,144c-159.06,0-288,128.94-288,288s128.94,288,288,288,288-128.94,288-288-128.94-288-288-288ZM684,432c0,34.04-6.66,67.03-19.79,98.08-12.69,30-30.87,56.96-54.02,80.11-23.16,23.16-50.11,41.33-80.11,54.02-31.04,13.13-64.04,19.79-98.08,19.79s-67.03-6.66-98.08-19.79c-30-12.69-56.96-30.87-80.11-54.02-23.15-23.15-41.33-50.11-54.02-80.11-13.13-31.04-19.79-64.04-19.79-98.08s6.66-67.03,19.79-98.08c12.69-30,30.87-56.96,54.02-80.11,23.16-23.16,50.11-41.33,80.11-54.02,31.04-13.13,64.04-19.79,98.08-19.79s67.03,6.66,98.08,19.79c30,12.69,56.96,30.87,80.11,54.02,23.15,23.15,41.33,50.11,54.02,80.11,13.13,31.04,19.79,64.04,19.79,98.08Z" style="stroke-width: 0px;"/>
    <path d="M445.92,420.59c-.38-.46-.78-.9-1.2-1.33h0c.42.43.82.87,1.19,1.33Z" style="stroke-width: 0px;"/>
    <path d="M432,450c-4.61,0-9.21-1.76-12.73-5.27l-5.27-5.27v190.54c0,9.94,8.06,18,18,18s18-8.06,18-18v-197.99c0,4.6-1.76,9.21-5.27,12.72-3.51,3.51-8.12,5.27-12.73,5.27Z" style="stroke-width: 0px;"/>
    <path d="M446.39,421.21c.2.26.4.52.58.79-.18-.27-.39-.53-.58-.79Z" style="stroke-width: 0px;"/>
    <path d="M447.44,422.78c.15.24.3.48.43.73-.13-.25-.29-.49-.43-.73Z" style="stroke-width: 0px;"/>
    <path d="M449.8,429.46c.04.25.08.51.11.76-.03-.26-.07-.51-.11-.76Z" style="stroke-width: 0px;"/>
    <path d="M448.27,424.33c.12.26.25.52.36.78-.11-.27-.24-.52-.36-.78Z" style="stroke-width: 0px;"/>
    <path d="M449.44,427.6c.07.29.16.58.21.88-.06-.3-.14-.59-.21-.88Z" style="stroke-width: 0px;"/>
    <path d="M448.93,425.92c.1.28.21.56.3.85-.09-.29-.2-.57-.3-.85Z" style="stroke-width: 0px;"/>
    <path d="M449.91,430.22c.06.59.09,1.18.09,1.78h0c0-.59-.03-1.19-.09-1.78Z" style="stroke-width: 0px;"/>
    <path d="M449.22,426.77c.08.27.14.55.21.83-.07-.28-.13-.56-.21-.83Z" style="stroke-width: 0px;"/>
    <path d="M449.65,428.48c.06.32.1.65.15.98-.05-.33-.08-.65-.15-.98Z" style="stroke-width: 0px;"/>
    <path d="M448.63,425.11c.11.27.2.54.3.81-.1-.27-.19-.55-.3-.81Z" style="stroke-width: 0px;"/>
    <path d="M447.87,423.52c.14.27.26.54.39.82-.13-.27-.25-.55-.39-.82Z" style="stroke-width: 0px;"/>
    <path d="M445.92,420.59c.16.2.31.41.46.62-.16-.21-.3-.42-.46-.62Z" style="stroke-width: 0px;"/>
    <path d="M432,414c4.97,0,9.47,2.01,12.72,5.27l-101.82-101.82c-7.03-7.03-18.43-7.03-25.46,0-7.03,7.03-7.03,18.43,0,25.46l96.55,96.55v-7.46c0-9.94,8.06-18,18-18Z" style="stroke-width: 0px;"/>
    <path d="M446.97,422.01c.17.25.32.52.47.78-.16-.26-.3-.52-.47-.78Z" style="stroke-width: 0px;"/>
    <path d="M449.91,430.22c-.03-.26-.07-.51-.11-.76-.05-.33-.08-.66-.15-.98-.06-.29-.14-.59-.21-.88-.07-.28-.13-.56-.21-.83-.09-.29-.2-.57-.3-.85-.1-.27-.19-.55-.3-.81-.11-.26-.24-.52-.36-.78-.13-.27-.25-.55-.39-.82-.13-.25-.29-.49-.43-.73-.16-.26-.3-.53-.47-.78-.18-.27-.38-.53-.58-.79-.16-.21-.3-.42-.46-.62-.37-.45-.77-.9-1.19-1.32h0c-3.26-3.26-7.75-5.27-12.72-5.27-9.94,0-18,8.06-18,18v7.46l5.27,5.27c3.51,3.51,8.12,5.27,12.73,5.27s9.21-1.76,12.73-5.27c3.51-3.51,5.27-8.12,5.27-12.72h0c0-.61-.03-1.2-.09-1.78Z" style="stroke-width: 0px;"/>
  </g>
</svg>