<?xml version="1.0" encoding="UTF-8"?>
<svg id="icon" xmlns="http://www.w3.org/2000/svg" viewBox="0 0 864 864">
  <g id="other_copy" data-name="other copy">
    <path d="M347.93,268.96c-25.72,10.88-48.82,26.46-68.67,46.31-19.85,19.85-35.43,42.95-46.31,68.67-11.25,26.61-16.96,54.89-16.96,84.07s5.71,57.46,16.96,84.07c10.88,25.72,26.46,48.82,46.31,68.67,19.85,19.85,42.95,35.43,68.67,46.31,26.61,11.25,54.89,16.96,84.07,16.96s57.46-5.71,84.07-16.96c25.72-10.88,48.82-26.46,68.67-46.31,19.85-19.85,35.43-42.95,46.31-68.67,11.25-26.61,16.96-54.89,16.96-84.07s-5.71-57.46-16.96-84.07c-10.88-25.72-26.46-48.82-46.31-68.67-19.85-19.85-42.95-35.43-68.67-46.31-26.61-11.25-54.89-16.96-84.07-16.96s-57.46,5.71-84.07,16.96ZM450,294.75v165.79l83.82,83.82c7.03,7.03,7.03,18.43,0,25.46-3.51,3.51-8.12,5.27-12.73,5.27s-9.21-1.76-12.73-5.27l-89.09-89.09c-.42-.42-.82-.86-1.2-1.32-.17-.2-.31-.41-.46-.62-.2-.26-.4-.52-.58-.79-.17-.25-.31-.51-.47-.77-.15-.25-.3-.49-.44-.74-.14-.27-.26-.54-.39-.81-.12-.26-.25-.52-.37-.79-.11-.26-.2-.53-.29-.8-.1-.29-.21-.57-.3-.86-.08-.27-.14-.54-.21-.81-.08-.3-.16-.59-.22-.9-.06-.31-.1-.63-.14-.95-.04-.27-.09-.53-.11-.79-.06-.59-.09-1.18-.09-1.78v-173.25c0-9.94,8.06-18,18-18s18,8.06,18,18Z" style="fill: none; stroke-width: 0px;"/>
    <path d="M390,228v-8.5c-119.18,20-210,123.63-210,248.5,0,63.14,23.22,120.85,61.59,165.07,7.07-5.95,17.64-5.61,24.3,1.05,6.66,6.66,7,17.22,1.05,24.29,44.22,38.37,101.93,61.59,165.07,61.59s120.85-23.22,165.07-61.59c-5.95-7.07-5.61-17.64,1.05-24.29,6.66-6.66,17.22-7,24.3-1.05,38.37-44.22,61.59-101.93,61.59-165.07,0-124.86-90.82-228.5-210-248.5v8.5h-84ZM584.74,315.27c19.85,19.85,35.43,42.95,46.31,68.67,11.25,26.61,16.96,54.89,16.96,84.07s-5.71,57.46-16.96,84.07c-10.88,25.72-26.46,48.82-46.31,68.67-19.85,19.85-42.95,35.43-68.67,46.31-26.61,11.25-54.89,16.96-84.07,16.96s-57.46-5.71-84.07-16.96c-25.72-10.88-48.82-26.46-68.67-46.31-19.85-19.85-35.43-42.95-46.31-68.67-11.25-26.61-16.96-54.89-16.96-84.07s5.71-57.46,16.96-84.07c10.88-25.72,26.46-48.82,46.31-68.67,19.85-19.85,42.95-35.43,68.67-46.31,26.61-11.25,54.89-16.96,84.07-16.96s57.46,5.71,84.07,16.96c25.72,10.88,48.82,26.46,68.67,46.31Z" style="stroke-width: 0px;"/>
    <path d="M267.48,231.61c5.89-4.1,11.93-7.99,18.13-11.66,5.96-3.52,12.05-6.84,18.28-9.94-16.45-11.36-36.39-18.02-57.89-18.02-56.33,0-102,45.67-102,102,0,23.93,8.25,45.94,22.05,63.33,2.68-6.43,5.58-12.74,8.7-18.92,3.24-6.42,6.71-12.71,10.41-18.84,20.97-34.8,49.09-64.79,82.32-87.96Z" style="stroke-width: 0px;"/>
    <path d="M618,192c-21.5,0-41.44,6.66-57.89,18.02,6.22,3.1,12.32,6.41,18.28,9.94,6.2,3.66,12.24,7.55,18.13,11.66,33.23,23.17,61.36,53.17,82.32,87.96,3.7,6.13,7.17,12.42,10.41,18.84,3.12,6.18,6.03,12.49,8.7,18.92,13.8-17.4,22.05-39.4,22.05-63.33,0-56.33-45.67-102-102-102Z" style="stroke-width: 0px;"/>
    <path d="M414.2,470.57c-.04-.27-.09-.53-.11-.79.03.27.08.53.11.79Z" style="stroke-width: 0px;"/>
    <path d="M416.56,477.22c-.15-.25-.3-.49-.44-.74.14.25.29.49.44.74Z" style="stroke-width: 0px;"/>
    <path d="M417.61,478.79c-.2-.26-.4-.52-.58-.79.18.27.39.53.58.79Z" style="stroke-width: 0px;"/>
    <path d="M414.57,472.41c-.08-.3-.16-.6-.22-.9.06.3.14.6.22.9Z" style="stroke-width: 0px;"/>
    <path d="M415.74,475.67c-.12-.26-.26-.52-.37-.79.11.27.24.53.37.79Z" style="stroke-width: 0px;"/>
    <path d="M418.08,479.41c.38.46.78.9,1.2,1.32h0c-.42-.43-.82-.87-1.19-1.32Z" style="stroke-width: 0px;"/>
    <path d="M414,294.75v173.25c0-4.61,1.76-9.21,5.27-12.73,7.03-7.03,18.43-7.03,25.46,0l5.27,5.27v-165.79c0-9.94-8.06-18-18-18s-18,8.06-18,18Z" style="stroke-width: 0px;"/>
    <path d="M415.08,474.09c-.1-.29-.21-.57-.3-.86.09.29.2.58.3.86Z" style="stroke-width: 0px;"/>
    <path d="M597.07,658.41c.33.4.68.79,1.05,1.16l55.15,55.15c3.51,3.51,8.12,5.27,12.73,5.27s9.21-1.76,12.73-5.27c7.03-7.03,7.03-18.43,0-25.46l-55.15-55.15c-.37-.37-.76-.72-1.16-1.05-7.84,9.03-16.31,17.51-25.34,25.34Z" style="stroke-width: 0px;"/>
    <path d="M598.12,634.12c-6.66,6.66-7,17.22-1.05,24.29,9.03-7.84,17.51-16.31,25.34-25.34-7.07-5.95-17.64-5.61-24.3,1.05Z" style="stroke-width: 0px;"/>
    <path d="M241.59,633.07c-.4.33-.79.68-1.16,1.05l-55.15,55.15c-7.03,7.03-7.03,18.43,0,25.46,3.51,3.51,8.12,5.27,12.73,5.27s9.21-1.76,12.73-5.27l55.15-55.15c.37-.37.72-.76,1.05-1.16-9.03-7.84-17.51-16.31-25.34-25.34Z" style="stroke-width: 0px;"/>
    <path d="M265.88,634.12c-6.66-6.66-17.22-7-24.3-1.05,7.84,9.03,16.31,17.51,25.34,25.34,5.95-7.07,5.61-17.64-1.05-24.29Z" style="stroke-width: 0px;"/>
    <path d="M480,192c9.94,0,18-8.06,18-18s-8.06-18-18-18h-96c-9.94,0-18,8.06-18,18s8.06,18,18,18h96Z" style="stroke-width: 0px;"/>
    <path d="M432,216c14.31,0,28.34,1.21,42,3.5v-27.5h-84v27.5c13.66-2.29,27.69-3.5,42-3.5Z" style="stroke-width: 0px;"/>
    <path d="M390,219.5v8.5h84v-8.5c-13.66-2.29-27.69-3.5-42-3.5s-28.34,1.21-42,3.5Z" style="stroke-width: 0px;"/>
    <path d="M417.03,477.99c-.17-.25-.31-.51-.47-.77.15.26.3.52.47.77Z" style="stroke-width: 0px;"/>
    <path d="M414.78,473.22c-.08-.27-.14-.54-.21-.81.07.27.13.54.21.81Z" style="stroke-width: 0px;"/>
    <path d="M416.13,476.48c-.14-.26-.26-.54-.39-.81.13.27.25.54.39.81Z" style="stroke-width: 0px;"/>
    <path d="M414.09,469.78c-.06-.58-.09-1.18-.09-1.78,0,.59.03,1.19.09,1.78Z" style="stroke-width: 0px;"/>
    <path d="M414.35,471.52c-.06-.31-.1-.63-.14-.95.05.32.08.63.14.95Z" style="stroke-width: 0px;"/>
    <path d="M432,486c-4.97,0-9.47-2.01-12.72-5.27l89.09,89.09c3.51,3.51,8.12,5.27,12.73,5.27s9.21-1.76,12.73-5.27c7.03-7.03,7.03-18.43,0-25.46l-83.82-83.82v7.46c0,9.94-8.06,18-18,18Z" style="stroke-width: 0px;"/>
    <path d="M418.08,479.41c-.16-.2-.31-.41-.46-.62.16.21.3.42.46.62Z" style="stroke-width: 0px;"/>
    <path d="M415.37,474.89c-.11-.26-.2-.53-.29-.8.1.27.18.54.29.8Z" style="stroke-width: 0px;"/>
    <path d="M419.27,455.27c-3.51,3.51-5.27,8.12-5.27,12.73,0,.6.03,1.19.09,1.78.03.27.08.53.11.79.05.32.08.64.14.95.06.3.14.6.22.9.07.27.13.55.21.81.09.29.2.58.3.86.1.27.18.54.29.8.11.27.24.53.37.79.13.27.25.55.39.81.13.25.29.49.44.74.15.26.3.52.47.77.18.27.39.53.58.79.16.21.3.42.46.62.37.45.77.9,1.19,1.32h0c3.26,3.26,7.76,5.27,12.72,5.27,9.94,0,18-8.06,18-18v-7.46l-5.27-5.27c-7.03-7.03-18.43-7.03-25.46,0Z" style="stroke-width: 0px;"/>
  </g>
</svg>