<?xml version="1.0" encoding="UTF-8"?>
<svg id="icon" xmlns="http://www.w3.org/2000/svg" viewBox="0 0 864 864">
  <path d="M226.66,529.92l9.5-30.82c.38-.77.86-1.15,1.44-1.15h76.03c.58,0,1.05.39,1.44,1.15l9.5,30.82c.58,1.92,1.82,2.88,3.74,2.88h28.8c2.11,0,3.17-.86,3.17-2.59,0-.58-.1-1.05-.29-1.44l-62.78-194.69c-.58-1.92-1.83-2.88-3.74-2.88h-36c-1.92,0-3.17.96-3.74,2.88l-62.5,194.69c-.39,1.35-.29,2.35.29,3.02.58.67,1.44,1.01,2.59,1.01h28.8c1.92,0,3.17-.96,3.74-2.88ZM245.09,470.02l29.38-96.48c.19-.76.48-1.15.86-1.15s.67.39.86,1.15l29.66,96.48c.38,1.15,0,1.73-1.15,1.73h-58.46c-.96,0-1.35-.58-1.15-1.73Z" style="stroke-width: 0px;"/>
  <path d="M419.47,332.21c-.67-.67-1.49-1.01-2.45-1.01h-26.5c-.96,0-1.78.34-2.45,1.01-.67.67-1.01,1.49-1.01,2.45v194.69c0,.96.33,1.78,1.01,2.45.67.67,1.49,1.01,2.45,1.01h26.5c.96,0,1.77-.33,2.45-1.01.67-.67,1.01-1.49,1.01-2.45v-8.93c0-.58.19-.96.58-1.15.38-.19.77,0,1.15.58,8.64,10.18,19.68,15.26,33.12,15.26s25.15-3.55,34.56-10.66c9.41-7.1,16.22-16.99,20.45-29.66,3.65-10.37,5.47-22.36,5.47-36,0-12.67-1.63-24.38-4.9-35.14-4.42-12.67-11.28-22.56-20.59-29.66-9.31-7.1-21.07-10.66-35.28-10.66s-24.58,4.9-32.83,14.69c-.39.39-.77.48-1.15.29-.39-.19-.58-.58-.58-1.15v-62.5c0-.96-.34-1.77-1.01-2.45ZM428.26,424.8c4.99-8.45,12.19-12.67,21.6-12.67,10.17,0,17.86,4.03,23.04,12.1,5.76,8.45,8.64,20.16,8.64,35.14,0,14.02-2.3,25.06-6.91,33.12-2.5,4.42-5.86,7.83-10.08,10.22-4.23,2.4-9.03,3.6-14.4,3.6-9.99,0-17.47-4.61-22.46-13.82-4.42-7.49-6.62-18.62-6.62-33.41s2.4-26.4,7.2-34.27Z" style="stroke-width: 0px;"/>
  <path d="M647.14,394.56c-11.14-7.49-24.19-11.23-39.17-11.23s-27.6,3.7-38.45,11.09c-10.85,7.39-18.29,17.42-22.32,30.1-3.07,8.83-4.61,20.16-4.61,33.98s1.53,25.92,4.61,34.56c4.22,12.87,11.71,23.09,22.46,30.67,10.75,7.59,23.52,11.38,38.3,11.38s28.03-3.6,39.17-10.8c11.13-7.2,18.53-16.94,22.18-29.23.38-1.34.86-3.55,1.44-6.62.19-1.15-.05-2.06-.72-2.74-.68-.67-1.49-1.1-2.45-1.3l-25.92-4.03c-2.12-.38-3.46.58-4.03,2.88,0,.39-.1.68-.29.86,0,.58-.1,1.06-.29,1.44-1.54,6.34-4.95,11.38-10.22,15.12-5.28,3.74-11.57,5.62-18.86,5.62s-13.73-1.97-18.72-5.9c-5-3.93-8.45-9.26-10.37-15.98-1.73-6.53-2.59-15.07-2.59-25.63s.96-19.48,2.88-25.63c1.73-6.52,5.13-11.66,10.22-15.41,5.08-3.74,11.28-5.62,18.58-5.62s13.25,1.73,18.43,5.18c5.18,3.46,8.64,7.88,10.37,13.25.38,1.15.77,2.5,1.15,4.03.19.58.29,1.35.29,2.3.58,1.92,1.73,2.88,3.46,2.88h.58l25.92-3.74c2.11-.38,3.17-1.53,3.17-3.46v-.58c-.39-3.07-1.06-6.14-2.02-9.22-3.65-11.33-11.04-20.74-22.18-28.22Z" style="stroke-width: 0px;"/>
</svg>