<?xml version="1.0" encoding="UTF-8"?>
<svg id="icon" xmlns="http://www.w3.org/2000/svg" viewBox="0 0 864 864">
  <path d="M377.75,556.54c1.05-.66,1.58-1.91,1.58-3.76v-34.45c0-2.64-1.19-4.49-3.56-5.54l-115.24-49.1c-1.58-.79-1.58-1.58,0-2.38l115.24-48.71c2.38-1.32,3.56-3.17,3.56-5.54v-34.45c0-2.9-1.06-4.36-3.17-4.36-.53,0-1.32.27-2.38.79l-159.59,72.07c-2.38,1.06-3.56,2.91-3.56,5.54v32.08c0,2.38,1.19,4.23,3.56,5.54l159.59,72.07c1.58.79,2.9.86,3.96.2Z" style="stroke-width: 0px;"/>
  <path d="M649.4,441.11l-159.59-72.07c-1.58-.79-2.91-.85-3.96-.2-1.06.66-1.58,1.92-1.58,3.76v34.45c0,2.38,1.19,4.23,3.56,5.54l115.24,48.71c1.58.79,1.58,1.58,0,2.38l-115.24,49.1c-2.38,1.06-3.56,2.91-3.56,5.54v34.45c0,2.91,1.05,4.36,3.17,4.36.53,0,1.32-.26,2.38-.79l159.59-72.07c2.38-1.32,3.56-3.17,3.56-5.54v-32.08c0-2.64-1.19-4.49-3.56-5.54Z" style="stroke-width: 0px;"/>
</svg>