<?xml version="1.0" encoding="UTF-8"?>
<svg id="icon" xmlns="http://www.w3.org/2000/svg" viewBox="0 0 864 864">
  <path d="M267.73,317.81v272.38c0,1.56.54,2.89,1.64,3.98,1.09,1.1,2.41,1.64,3.98,1.64h43.06c1.56,0,2.88-.54,3.98-1.64,1.09-1.09,1.64-2.41,1.64-3.98v-272.38c0-1.56.78-2.34,2.34-2.34h86.11c1.56,0,2.88-.54,3.98-1.64,1.09-1.09,1.64-2.41,1.64-3.98v-36.04c0-1.56-.55-2.88-1.64-3.98-1.1-1.09-2.42-1.64-3.98-1.64h-227.92c-1.56,0-2.89.55-3.98,1.64s-1.64,2.42-1.64,3.98v36.04c0,1.56.54,2.89,1.64,3.98,1.09,1.1,2.41,1.64,3.98,1.64h82.84c1.56,0,2.34.78,2.34,2.34Z" style="stroke-width: 0px;"/>
  <path d="M681.44,268.2h-227.92c-1.56,0-2.89.55-3.98,1.64s-1.64,2.42-1.64,3.98v36.04c0,1.56.54,2.89,1.64,3.98,1.09,1.1,2.41,1.64,3.98,1.64h82.84c1.56,0,2.34.78,2.34,2.34v272.38c0,1.56.54,2.89,1.64,3.98,1.09,1.1,2.41,1.64,3.98,1.64h43.06c1.56,0,2.88-.54,3.98-1.64,1.09-1.09,1.64-2.41,1.64-3.98v-272.38c0-1.56.78-2.34,2.34-2.34h86.11c1.56,0,2.88-.54,3.98-1.64,1.09-1.09,1.64-2.41,1.64-3.98v-36.04c0-1.56-.55-2.88-1.64-3.98-1.1-1.09-2.42-1.64-3.98-1.64Z" style="stroke-width: 0px;"/>
</svg>