<?xml version="1.0" encoding="UTF-8"?>
<svg id="icon" xmlns="http://www.w3.org/2000/svg" viewBox="0 0 864 864">
  <path d="M276.05,531.79c.67.67,1.48,1.01,2.45,1.01h26.5c.96,0,1.77-.33,2.45-1.01s1.01-1.49,1.01-2.45v-194.69c0-.96-.34-1.77-1.01-2.45-.67-.67-1.49-1.01-2.45-1.01h-27.65c-1.35,0-2.79.29-4.32.86l-31.1,15.55c-1.54.77-2.3,2.12-2.3,4.03l.86,19.01c0,.96.24,1.73.72,2.3.48.58,1.1.86,1.87.86.58,0,1.05-.09,1.44-.29l28.8-8.93c.38-.19.77-.14,1.15.14.38.29.58.63.58,1.01v163.58c0,.96.33,1.78,1.01,2.45Z" style="stroke-width: 0px;"/>
  <path d="M398.59,490.18c21.12-23.04,36.29-40.32,45.5-51.84,16.7-20.54,25.06-38.69,25.06-54.43,0-10.37-2.59-19.73-7.78-28.08-5.18-8.35-12.58-14.93-22.18-19.73-9.6-4.8-20.83-7.2-33.7-7.2-11.71,0-22.32,2.11-31.82,6.34-9.5,4.23-17.04,10.18-22.61,17.86-5.57,7.68-8.54,16.7-8.93,27.07v12.38c0,.96.33,1.78,1.01,2.45.67.68,1.49,1.01,2.45,1.01h26.78c.96,0,1.77-.33,2.45-1.01.67-.67,1.01-1.48,1.01-2.45v-7.49c0-8.25,2.74-14.88,8.21-19.87,5.47-4.99,12.62-7.49,21.46-7.49s16.03,2.5,21.6,7.49c5.57,5,8.35,11.43,8.35,19.3,0,10.56-8.83,26.11-26.5,46.66l-13.54,15.84c-19.2,22.66-36.1,41.76-50.69,57.31-1.15,1.15-1.73,2.59-1.73,4.32v20.74c0,.96.33,1.78,1.01,2.45.67.67,1.49,1.01,2.45,1.01h123.84c.96,0,1.77-.33,2.45-1.01.67-.67,1.01-1.49,1.01-2.45v-21.89c0-.96-.34-1.77-1.01-2.45-.68-.67-1.49-1.01-2.45-1.01h-82.08c-.58,0-.91-.19-1.01-.58-.1-.38.04-.77.43-1.15l10.94-12.1Z" style="stroke-width: 0px;"/>
  <path d="M618.63,364.03c1.15-1.15,1.73-2.59,1.73-4.32v-25.06c0-.96-.34-1.77-1.01-2.45-.67-.67-1.49-1.01-2.45-1.01h-114.91c-.96,0-1.78.34-2.45,1.01-.68.67-1.01,1.49-1.01,2.45v21.89c0,.96.33,1.78,1.01,2.45.67.68,1.48,1.01,2.45,1.01h72c.58,0,.96.19,1.15.58.19.39.09.77-.29,1.15l-47.52,46.66c-.77.77-1.15,1.63-1.15,2.59,0,.58.29,1.35.86,2.3l13.25,18.43c.96,1.15,1.92,1.73,2.88,1.73.58,0,1.25-.19,2.02-.58,5.57-3.84,9.98-5.76,13.25-5.76,12.28,0,20.92,5.38,25.92,16.13,2.88,6.34,4.32,14.4,4.32,24.19,0,8.83-1.25,16.03-3.74,21.6-4.8,11.52-13.54,17.28-26.21,17.28-6.72,0-12.43-1.77-17.14-5.33-4.71-3.55-7.92-8.4-9.65-14.54-1.54-3.65-2.5-8.54-2.88-14.69,0-2.3-1.15-3.46-3.46-3.46h-26.78c-2.3,0-3.46,1.15-3.46,3.46.38,9.6,1.73,17.38,4.03,23.33,4.41,12.29,11.85,22.03,22.32,29.23,10.46,7.2,22.8,10.8,37.01,10.8s26.69-3.31,36.86-9.94c10.17-6.62,17.47-15.98,21.89-28.08,3.26-8.25,4.9-17.76,4.9-28.51,0-11.9-1.92-22.46-5.76-31.68-7.49-17.28-20.16-27.17-38.02-29.66-1.54-.38-1.92-.96-1.15-1.73l41.18-41.47Z" style="stroke-width: 0px;"/>
</svg>