<?xml version="1.0" encoding="UTF-8"?>
<svg id="icon" xmlns="http://www.w3.org/2000/svg" viewBox="0 0 864 864">
  <path d="M316.64,317.81v272.38c0,1.56.54,2.89,1.64,3.98,1.09,1.1,2.41,1.64,3.98,1.64h43.06c1.56,0,2.88-.54,3.98-1.64,1.09-1.09,1.64-2.41,1.64-3.98v-272.38c0-1.56.77-2.34,2.34-2.34h86.11c1.56,0,2.88-.54,3.98-1.64,1.09-1.09,1.64-2.41,1.64-3.98v-36.04c0-1.56-.55-2.88-1.64-3.98-1.1-1.09-2.42-1.64-3.98-1.64h-227.92c-1.57,0-2.89.55-3.98,1.64s-1.64,2.42-1.64,3.98v36.04c0,1.56.54,2.89,1.64,3.98,1.09,1.1,2.41,1.64,3.98,1.64h82.84c1.56,0,2.34.78,2.34,2.34Z" style="stroke-width: 0px;"/>
  <path d="M633.24,358.29c-1.1-1.09-2.42-1.64-3.98-1.64h-47.74c-1.57,0-2.34-.78-2.34-2.34v-54.76c0-1.56-.55-2.88-1.64-3.98-1.1-1.09-2.42-1.64-3.98-1.64h-40.72c-1.57,0-2.89.55-3.98,1.64-1.1,1.1-1.64,2.42-1.64,3.98v54.76c0,1.56-.78,2.34-2.34,2.34h-26.68c-1.56,0-2.89.55-3.98,1.64-1.1,1.1-1.64,2.42-1.64,3.98v32.76c0,1.56.54,2.89,1.64,3.98,1.09,1.1,2.41,1.64,3.98,1.64h26.68c1.56,0,2.34.78,2.34,2.34v133.38c.31,23.4,6.55,39.31,18.72,47.74,12.17,8.42,30.57,12.64,55.22,12.64l24.34-.47c3.74-.62,5.62-2.65,5.62-6.08v-35.1c0-1.56-.55-2.88-1.64-3.98-1.1-1.09-2.42-1.64-3.98-1.64h-14.04c-11.23,0-19.42-2.65-24.57-7.96-5.15-5.3-7.72-13.88-7.72-25.74v-112.79c0-1.56.78-2.34,2.34-2.34h47.74c1.56,0,2.88-.54,3.98-1.64,1.09-1.09,1.64-2.41,1.64-3.98v-32.76c0-1.56-.55-2.88-1.64-3.98Z" style="stroke-width: 0px;"/>
</svg>