<?xml version="1.0" encoding="UTF-8"?>
<svg id="icon" xmlns="http://www.w3.org/2000/svg" viewBox="0 0 864 864">
  <path d="M232.87,594.16c1.09-1.09,1.64-2.41,1.64-3.98v-133.85c0-1.56.77-2.34,2.34-2.34h119.34c1.56,0,2.34.78,2.34,2.34v133.85c0,1.56.54,2.89,1.64,3.98,1.09,1.1,2.41,1.64,3.98,1.64h43.06c1.56,0,2.88-.54,3.98-1.64s1.64-2.41,1.64-3.98v-316.37c0-1.56-.55-2.88-1.64-3.98-1.1-1.09-2.42-1.64-3.98-1.64h-43.06c-1.56,0-2.89.55-3.98,1.64s-1.64,2.42-1.64,3.98v131.04c0,1.56-.78,2.34-2.34,2.34h-119.34c-1.56,0-2.34-.77-2.34-2.34v-131.04c0-1.56-.55-2.88-1.64-3.98-1.1-1.09-2.42-1.64-3.98-1.64h-43.06c-1.57,0-2.89.55-3.98,1.64s-1.64,2.42-1.64,3.98v316.37c0,1.56.54,2.89,1.64,3.98,1.09,1.1,2.41,1.64,3.98,1.64h43.06c1.56,0,2.88-.54,3.98-1.64Z" style="stroke-width: 0px;"/>
  <path d="M688.46,461.02h-19.66c-1.56,0-2.34-.77-2.34-2.34v-63.65c0-1.56-.55-2.88-1.64-3.98-1.1-1.09-2.42-1.64-3.98-1.64h-43.06c-1.56,0-2.89.55-3.98,1.64-1.1,1.1-1.64,2.42-1.64,3.98v63.65c0,1.56-.78,2.34-2.34,2.34h-83.3c-.63,0-1.1-.31-1.4-.94-.31-.62-.31-1.24,0-1.87l83.3-183.46c.94-2.18,1.01-3.82.23-4.91-.78-1.09-2.27-1.64-4.45-1.64h-45.86c-3.12,0-5.31,1.4-6.55,4.21l-88.45,194.69c-.94,2.81-1.4,5.15-1.4,7.02v29.95c0,1.56.54,2.89,1.64,3.98,1.09,1.1,2.41,1.64,3.98,1.64h142.27c1.56,0,2.34.78,2.34,2.34v78.16c0,1.56.54,2.89,1.64,3.98,1.09,1.1,2.41,1.64,3.98,1.64h43.06c1.56,0,2.88-.54,3.98-1.64s1.64-2.41,1.64-3.98v-78.16c0-1.56.78-2.34,2.34-2.34h19.66c1.56,0,2.88-.54,3.98-1.64,1.09-1.09,1.64-2.41,1.64-3.98v-37.44c0-1.56-.55-2.88-1.64-3.98-1.1-1.09-2.42-1.64-3.98-1.64Z" style="stroke-width: 0px;"/>
</svg>