<?xml version="1.0" encoding="UTF-8"?>
<svg id="icon" xmlns="http://www.w3.org/2000/svg" viewBox="0 0 864 864">
  <g id="Layer_1_copy" data-name="Layer 1 copy">
    <path d="M403.58,483.15c21.26,0,41.24-8.28,56.27-23.31,31.03-31.03,31.03-81.51,0-112.54-15.03-15.03-35.01-23.31-56.27-23.31s-41.24,8.28-56.27,23.31c-31.03,31.03-31.03,81.51,0,112.54,15.03,15.03,35.01,23.31,56.27,23.31Z" style="stroke-width: 0px;"/>
    <path d="M432,720c159.06,0,288-128.94,288-288s-128.94-288-288-288S144,272.94,144,432s128.94,288,288,288ZM321.85,321.85c21.83-21.83,50.85-33.85,81.72-33.85s59.9,12.02,81.72,33.85c40.73,40.73,44.64,104.56,11.74,149.73l73.69,73.69c7.03,7.03,7.03,18.43,0,25.46-3.51,3.51-8.12,5.27-12.73,5.27s-9.21-1.76-12.73-5.27l-73.68-73.68c-19.64,14.35-43.23,22.11-68.01,22.11-30.87,0-59.9-12.02-81.72-33.85-45.06-45.06-45.06-118.39,0-163.45Z" style="stroke-width: 0px;"/>
  </g>
</svg>