<?xml version="1.0" encoding="UTF-8"?>
<svg id="icon" xmlns="http://www.w3.org/2000/svg" viewBox="0 0 864 864">
  <g id="Layer_1_copy" data-name="Layer 1 copy">
    <path d="M514.17,432c0-45.38-36.79-82.17-82.17-82.17s-82.17,36.79-82.17,82.17,36.79,82.17,82.17,82.17,82.17-36.79,82.17-82.17ZM432,490.17c-32.08,0-58.17-26.1-58.17-58.17s26.1-58.17,58.17-58.17,58.17,26.1,58.17,58.17-26.1,58.17-58.17,58.17Z" style="stroke-width: 0px;"/>
    <path d="M431.91,545.74c.34,0,.67,0,1.01,0,55.38,0,116.75-34.45,187.57-105.26,4.69-4.69,4.69-12.28,0-16.97-47.73-47.73-119.15-104.73-188.39-105.25-.34,0-.67,0-1.01,0-55.38,0-116.75,34.45-187.57,105.26-4.69,4.69-4.69,12.28,0,16.97,47.73,47.73,119.15,104.73,188.39,105.25ZM431.07,342.26c.28,0,.56,0,.84,0,57.28.43,118.79,47.2,162.97,89.75-62.34,60.35-115.4,89.73-161.96,89.73-.28,0-.56,0-.84,0-57.28-.43-118.79-47.2-162.97-89.75,62.34-60.35,115.4-89.73,161.96-89.73Z" style="stroke-width: 0px;"/>
  </g>
</svg>