<?xml version="1.0" encoding="UTF-8"?>
<svg id="icon" xmlns="http://www.w3.org/2000/svg" viewBox="0 0 864 864">
  <g id="Layer_1_copy" data-name="Layer 1 copy">
    <path d="M239.1,400.34l107.45,78.07-41.04,126.31c-1.66,5.1.16,10.68,4.5,13.84,2.17,1.58,4.72,2.36,7.27,2.36s5.11-.79,7.27-2.36l107.45-78.07,107.45,78.07c2.17,1.58,4.72,2.36,7.27,2.36h0c2.55,0,5.11-.79,7.27-2.36,4.34-3.15,6.15-8.74,4.5-13.84l-41.04-126.31,107.45-78.07c4.34-3.15,6.15-8.74,4.5-13.84-1.66-5.1-6.41-8.55-11.77-8.55h-132.81l-41.04-126.31c-1.66-5.1-6.41-8.55-11.77-8.55s-10.11,3.45-11.77,8.55l-41.04,126.31h-132.81c-5.36,0-10.11,3.45-11.77,8.55-1.66,5.1.16,10.68,4.5,13.84ZM379.19,413.95h26.16l8.08-24.88,18.57-57.16,18.57,57.16,8.08,24.88h86.26l-48.62,35.33-21.16,15.37,8.08,24.88,18.57,57.16-48.62-35.33-21.16-15.37-21.16,15.37-48.62,35.33,18.57-57.16,8.08-24.88-21.16-15.37-48.62-35.33h60.1Z" style="stroke-width: 0px;"/>
  </g>
</svg>