<?xml version="1.0" encoding="UTF-8"?>
<svg id="Layer_1" data-name="Layer 1" xmlns="http://www.w3.org/2000/svg" viewBox="0 0 864 864">
  <path d="M576,288v288s-41.33,0-41.33,0v-288h41.33M576,252h-41.33c-19.88,0-36,16.12-36,36v288c0,19.88,16.12,36,36,36h41.33c19.88,0,36-16.12,36-36v-288c0-19.88-16.12-36-36-36h0Z" style="stroke-width: 0px;"/>
  <path d="M329.33,288v288s-41.33,0-41.33,0v-288h41.33M329.33,252h-41.33c-19.88,0-36,16.12-36,36v288c0,19.88,16.12,36,36,36h41.33c19.88,0,36-16.12,36-36v-288c0-19.88-16.12-36-36-36h0Z" style="stroke-width: 0px;"/>
</svg>