<?xml version="1.0" encoding="UTF-8"?>
<svg id="icon" xmlns="http://www.w3.org/2000/svg" viewBox="0 0 864 864">
  <g id="Layer_1_copy" data-name="Layer 1 copy">
    <path d="M702,198.54H162c-9.94,0-18,8.06-18,18s8.06,18,18,18h540c9.94,0,18-8.06,18-18s-8.06-18-18-18Z" style="stroke-width: 0px;"/>
    <path d="M702,341.77H162c-9.94,0-18,8.06-18,18s8.06,18,18,18h540c9.94,0,18-8.06,18-18s-8.06-18-18-18Z" style="stroke-width: 0px;"/>
    <path d="M702,486.54H162c-9.94,0-18,8.06-18,18s8.06,18,18,18h540c9.94,0,18-8.06,18-18s-8.06-18-18-18Z" style="stroke-width: 0px;"/>
    <path d="M702,629.46H162c-9.94,0-18,8.06-18,18s8.06,18,18,18h540c9.94,0,18-8.06,18-18s-8.06-18-18-18Z" style="stroke-width: 0px;"/>
  </g>
</svg>