<?xml version="1.0" encoding="UTF-8"?>
<svg xmlns="http://www.w3.org/2000/svg" viewBox="0 0 864 864">
  <g id="Layer_4" data-name="Layer 4">
    <path d="M432,180c34.04,0,67.03,6.66,98.08,19.79,30,12.69,56.96,30.87,80.11,54.02,23.15,23.15,41.33,50.11,54.02,80.11,13.13,31.04,19.79,64.04,19.79,98.08s-6.66,67.03-19.79,98.08c-12.69,30-30.87,56.96-54.02,80.11-23.15,23.16-50.11,41.33-80.11,54.02-31.04,13.13-64.04,19.79-98.08,19.79s-67.03-6.66-98.08-19.79c-30-12.69-56.96-30.87-80.11-54.02-23.15-23.15-41.33-50.11-54.02-80.11-13.13-31.04-19.79-64.04-19.79-98.08s6.66-67.03,19.79-98.08c12.69-30,30.87-56.96,54.02-80.11,23.15-23.16,50.11-41.33,80.11-54.02,31.04-13.13,64.04-19.79,98.08-19.79M432,144c-159.06,0-288,128.94-288,288s128.94,288,288,288,288-128.94,288-288-128.94-288-288-288h0Z" style="stroke-width: 0px;"/>
  </g>
  <g id="Layer_1" data-name="Layer 1">
    <g>
      <path d="M344,534c-1.1,0-2-.9-2-2v-200c0-1.1.9-2,2-2s2,.9,2,2v200c0,1.1-.9,2-2,2Z" style="stroke-width: 0px;"/>
      <path d="M344,312c-11.05,0-20,8.95-20,20v200c0,11.05,8.95,20,20,20s20-8.95,20-20v-200c0-11.05-8.95-20-20-20h0Z" style="stroke-width: 0px;"/>
    </g>
    <g>
      <path d="M515.96,533.82c-1.02,0-1.99-.28-2.97-.84l-165.54-95.78c-2.61-1.51-3-3.9-3-5.19s.39-3.69,3-5.19l165.54-95.78c.98-.57,1.95-.84,2.97-.84,2.43,0,6.04,1.92,6.04,6.04v191.57c0,1.71-.6,3.15-1.77,4.28-1.17,1.12-2.72,1.76-4.26,1.76h0Z" style="stroke-width: 0px;"/>
      <path d="M504,357.02v149.95l-129.58-74.98,129.58-74.98M515.96,312.18c-4,0-8.11,1.02-11.98,3.26l-165.54,95.78c-15.97,9.24-15.97,32.3,0,41.55l165.54,95.78c3.87,2.24,7.98,3.26,11.98,3.26,12.54,0,24.04-10.02,24.04-24.04v-191.57c0-14.01-11.5-24.04-24.04-24.04h0Z" style="stroke-width: 0px;"/>
    </g>
  </g>
</svg>