<?xml version="1.0" encoding="UTF-8"?>
<svg id="Layer_1" data-name="Layer 1" xmlns="http://www.w3.org/2000/svg" viewBox="0 0 864 864">
  <path d="M693.42,252h-6.84c-14.68,0-26.58,11.9-26.58,26.58v306.84c0,14.68,11.9,26.58,26.58,26.58h6.84c14.68,0,26.58-11.9,26.58-26.58v-306.84c0-14.68-11.9-26.58-26.58-26.58h0Z" style="stroke-width: 0px;"/>
  <path d="M180,288.35h0s248.27,143.65,248.27,143.65l-248.27,143.65h0v-287.31M180.06,252.29c-18.8,0-36.06,15.04-36.06,36.05v287.31c0,21.02,17.25,36.05,36.06,36.05,6,0,12.16-1.53,17.97-4.89l248.27-143.65c23.96-13.86,23.96-48.46,0-62.32l-248.27-143.65c-5.81-3.36-11.97-4.89-17.97-4.89h0Z" style="stroke-width: 0px;"/>
  <path d="M432,288.32h0s248.31,143.68,248.31,143.68l-248.31,143.68h0v-287.35M432.06,252.27c-18.8,0-36.06,15.04-36.06,36.05v287.35c0,21.02,17.25,36.05,36.06,36.05,6,0,12.16-1.53,17.97-4.89l248.31-143.68c23.96-13.86,23.96-48.46,0-62.32l-248.31-143.68c-5.81-3.36-11.97-4.89-17.97-4.89h0Z" style="stroke-width: 0px;"/>
</svg>