<?xml version="1.0" encoding="UTF-8"?>
<svg xmlns="http://www.w3.org/2000/svg" viewBox="0 0 864 864">
  <g id="Layer_4" data-name="Layer 4">
    <path d="M684,180v504s-504,0-504,0V180h504M684,144H180c-19.88,0-36,16.12-36,36v504c0,19.88,16.12,36,36,36h504c19.88,0,36-16.12,36-36V180c0-19.88-16.12-36-36-36h0Z" style="stroke-width: 0px;"/>
  </g>
  <g id="Layer_1" data-name="Layer 1">
    <g>
      <circle cx="432" cy="432" r="102" style="stroke-width: 0px;"/>
      <path d="M432,348c46.32,0,84,37.68,84,84s-37.68,84-84,84-84-37.68-84-84,37.68-84,84-84M432,312c-66.27,0-120,53.73-120,120s53.73,120,120,120,120-53.73,120-120-53.73-120-120-120h0Z" style="stroke-width: 0px;"/>
    </g>
  </g>
</svg>