<?xml version="1.0" encoding="UTF-8"?>
<svg id="Layer_1" data-name="Layer 1" xmlns="http://www.w3.org/2000/svg" viewBox="0 0 864 864">
  <path d="M303.42,252h-6.84c-14.68,0-26.58,11.9-26.58,26.58v306.84c0,14.68,11.9,26.58,26.58,26.58h6.84c14.68,0,26.58-11.9,26.58-26.58v-306.84c0-14.68-11.9-26.58-26.58-26.58h0Z" style="stroke-width: 0px;"/>
  <path d="M558,288.32h0v287.35l-248.31-143.68,248.31-143.68M557.94,252.27c-6,0-12.16,1.53-17.97,4.89l-248.31,143.68c-23.96,13.86-23.96,48.46,0,62.32l248.31,143.68c5.81,3.36,11.97,4.89,17.97,4.89,18.8,0,36.06-15.04,36.06-36.05v-287.35c0-21.02-17.25-36.05-36.06-36.05h0Z" style="stroke-width: 0px;"/>
</svg>