<?xml version="1.0" encoding="UTF-8"?>
<svg id="icon" xmlns="http://www.w3.org/2000/svg" viewBox="0 0 864 864">
  <g id="Layer_1_copy" data-name="Layer 1 copy">
    <path d="M216.54,144c-9.94,0-18,8.06-18,18v540c0,9.94,8.06,18,18,18s18-8.06,18-18V162c0-9.94-8.06-18-18-18Z" style="stroke-width: 0px;"/>
    <path d="M359.77,144c-9.94,0-18,8.06-18,18v540c0,9.94,8.06,18,18,18s18-8.06,18-18V162c0-9.94-8.06-18-18-18Z" style="stroke-width: 0px;"/>
    <path d="M504.54,144c-9.94,0-18,8.06-18,18v540c0,9.94,8.06,18,18,18s18-8.06,18-18V162c0-9.94-8.06-18-18-18Z" style="stroke-width: 0px;"/>
    <path d="M647.46,144c-9.94,0-18,8.06-18,18v540c0,9.94,8.06,18,18,18s18-8.06,18-18V162c0-9.94-8.06-18-18-18Z" style="stroke-width: 0px;"/>
  </g>
</svg>