<?xml version="1.0" encoding="UTF-8"?>
<svg id="icon" xmlns="http://www.w3.org/2000/svg" viewBox="0 0 864 864">
  <g id="Layer_1_copy" data-name="Layer 1 copy">
    <path d="M459.85,347.31c-15.03-15.03-35.01-23.31-56.27-23.31s-41.24,8.28-56.27,23.31c-15.03,15.03-23.31,35.01-23.31,56.27s8.28,41.24,23.31,56.27c15.03,15.03,35.01,23.31,56.27,23.31s41.24-8.28,56.27-23.31c15.03-15.03,23.31-35.01,23.31-56.27s-8.28-41.24-23.31-56.27h0Z" style="stroke-width: 0px;"/>
    <path d="M684,144H180c-19.88,0-36,16.12-36,36v504c0,19.88,16.12,36,36,36h504c19.88,0,36-16.12,36-36V180c0-19.88-16.12-36-36-36ZM570.73,570.73c-3.51,3.51-8.12,5.27-12.73,5.27s-9.21-1.76-12.73-5.27l-73.68-73.68c-19.64,14.35-43.23,22.11-68.01,22.11-30.87,0-59.9-12.02-81.73-33.85s-33.85-50.85-33.85-81.72,12.02-59.9,33.85-81.73,50.85-33.85,81.72-33.85,59.9,12.02,81.72,33.85c0,0,0,0,0,0,21.83,21.83,33.85,50.85,33.85,81.72,0,24.79-7.76,48.38-22.11,68.01l73.68,73.68c7.03,7.03,7.03,18.43,0,25.46Z" style="stroke-width: 0px;"/>
  </g>
</svg>