<?xml version="1.0" encoding="UTF-8"?>
<svg id="icon" xmlns="http://www.w3.org/2000/svg" viewBox="0 0 864 864">
  <g id="Layer_1_copy" data-name="Layer 1 copy">
    <path d="M702,198.54h-162v-18c0-9.94-8.06-18-18-18h-108c-9.94,0-18,8.06-18,18v18h-234c-9.94,0-18,8.06-18,18s8.06,18,18,18h234v18c0,9.94,8.06,18,18,18h108c9.94,0,18-8.06,18-18v-18h162c9.94,0,18-8.06,18-18s-8.06-18-18-18Z" style="stroke-width: 0px;"/>
    <path d="M702,341.77h-342v-18c0-9.94-8.06-18-18-18h-108c-9.94,0-18,8.06-18,18v18h-54c-9.94,0-18,8.06-18,18s8.06,18,18,18h54v18c0,9.94,8.06,18,18,18h108c9.94,0,18-8.06,18-18v-18h342c9.94,0,18-8.06,18-18s-8.06-18-18-18Z" style="stroke-width: 0px;"/>
    <path d="M702,486.54h-54v-18c0-9.94-8.06-18-18-18h-108c-9.94,0-18,8.06-18,18v18H162c-9.94,0-18,8.06-18,18s8.06,18,18,18h342v18c0,9.94,8.06,18,18,18h108c9.94,0,18-8.06,18-18v-18h54c9.94,0,18-8.06,18-18s-8.06-18-18-18Z" style="stroke-width: 0px;"/>
    <path d="M702,629.46h-261v-18c0-9.94-8.06-18-18-18h-108c-9.94,0-18,8.06-18,18v18h-135c-9.94,0-18,8.06-18,18s8.06,18,18,18h135v18c0,9.94,8.06,18,18,18h108c9.94,0,18-8.06,18-18v-18h261c9.94,0,18-8.06,18-18s-8.06-18-18-18Z" style="stroke-width: 0px;"/>
  </g>
</svg>