<?xml version="1.0" encoding="UTF-8"?>
<svg id="icon" xmlns="http://www.w3.org/2000/svg" viewBox="0 0 864 864">
  <g id="Layer_1_copy" data-name="Layer 1 copy">
    <path d="M317.45,546.55c30.6,30.6,71.28,47.45,114.55,47.45s83.95-16.85,114.55-47.45l-25.46-25.46c-23.8,23.8-55.44,36.9-89.1,36.9s-65.3-13.11-89.1-36.9c-23.8-23.8-36.9-55.44-36.9-89.1h30l-48-48-48,48h30c0,43.27,16.85,83.95,47.45,114.55Z" style="stroke-width: 0px;"/>
    <path d="M432,306c33.66,0,65.3,13.11,89.1,36.9,23.8,23.8,36.9,55.44,36.9,89.1h-30l48,48,48-48h-30c0-43.27-16.85-83.95-47.45-114.55-30.6-30.6-71.28-47.45-114.55-47.45s-83.95,16.85-114.55,47.45l25.46,25.46c23.8-23.8,55.44-36.9,89.1-36.9Z" style="stroke-width: 0px;"/>
  </g>
</svg>