<?xml version="1.0" encoding="UTF-8"?>
<svg xmlns="http://www.w3.org/2000/svg" viewBox="0 0 864 864">
  <path d="M720,432 C720,591.06 591.06,720 432,720 C272.94,720 144,591.06 144,432 C144,272.94 272.94,144 432,144 C591.06,144 720,272.94 720,432 Z M520.74,390.24 Q520.74,364.32 509.58,344.52 Q498.42,324.72 478.26,313.92 Q458.1,303.12 431.82,303.12 Q405.54,303.12 385.56,313.92 Q365.58,324.72 354.42,344.52 Q343.26,364.32 343.26,390.24 L343.26,476.64 Q343.26,508.68 361.26,530.64 Q379.26,552.6 409.5,558.72 Q411.3,559.44 411.3,560.88 L411.3,591.12 Q411.3,592.92 412.56,594.18 Q413.82,595.44 415.62,595.44 L448.74,595.44 Q450.54,595.44 451.8,594.18 Q453.06,592.92 453.06,591.12 L453.06,560.88 Q453.06,559.08 454.5,558.72 Q485.1,552.6 502.92,530.46 Q520.74,508.32 520.74,476.64 Z M478.98,388.08 L478.98,475.92 Q478.98,497.88 466.02,511.38 Q453.06,524.88 431.82,524.88 Q410.94,524.88 397.98,511.38 Q385.02,497.88 385.02,475.92 L385.02,388.08 Q385.02,366.12 397.98,352.62 Q410.94,339.12 431.82,339.12 Q453.06,339.12 466.02,352.62 Q478.98,366.12 478.98,388.08 Z"/>
</svg>
