<?xml version="1.0" encoding="UTF-8"?>
<svg id="icon" xmlns="http://www.w3.org/2000/svg" viewBox="0 0 864 864">
  <path d="M414,715.18c5.57,3.22,11.78,4.82,18,4.82s12.43-1.61,18-4.82l218.24-126c11.14-6.43,18-18.32,18-31.18v-252c0-12.86-6.86-24.75-18-31.18l-218.24-126c-5.57-3.22-11.78-4.82-18-4.82s-12.43,1.61-18,4.82l-218.24,126c-11.14,6.43-18,18.32-18,31.18v252c0,12.86,6.86,24.75,18,31.18l218.24,126ZM450,463.18l182.24,105.22-182.24,105.22v-210.43ZM467.71,431.83l182.52-107.64v213.02l-182.52-105.38ZM414,400.82l-182.24-105.22,182.24-105.22v210.43ZM396.29,432.17l-182.52,107.64v-213.02l182.52,105.38ZM233.98,569.68l180.02-106.16v210.1l-180.02-103.93ZM630.02,294.32l-180.02,106.16v-210.1l180.02,103.93Z" style="stroke-width: 0px;"/>
</svg>