<?xml version="1.0" encoding="UTF-8"?>
<svg id="icon" xmlns="http://www.w3.org/2000/svg" viewBox="0 0 864 864">
  <path d="M457.46,154.54c-7.03-7.03-16.24-10.54-25.46-10.54s-18.43,3.51-25.46,10.54l-252,252c-14.06,14.06-14.06,36.85,0,50.91l252,252c7.03,7.03,16.24,10.54,25.46,10.54s18.43-3.51,25.46-10.54l252-252c14.06-14.06,14.06-36.85,0-50.91l-252-252ZM432,684h0l-252-252,252-252,252,252-252,252Z" style="stroke-width: 0px;"/>
  <path d="M406.54,377.59l-28.95,28.95c-14.06,14.06-14.06,36.85,0,50.91l28.95,28.95c7.03,7.03,16.24,10.54,25.46,10.54s18.43-3.51,25.46-10.54l28.95-28.95c14.06-14.06,14.06-36.85,0-50.91l-28.95-28.95c-7.03-7.03-16.24-10.54-25.46-10.54s-18.43,3.51-25.46,10.54Z" style="stroke-width: 0px;"/>
</svg>