<?xml version="1.0" encoding="UTF-8"?>
<svg id="icon" xmlns="http://www.w3.org/2000/svg" viewBox="0 0 864 864">
  <path d="M432,792c198.82,0,360-161.18,360-360S630.82,72,432,72,72,233.18,72,432s161.18,360,360,360ZM108,432c0-43.76,8.56-86.18,25.45-126.1,16.32-38.58,39.68-73.23,69.45-103,29.77-29.77,64.42-53.13,103-69.45,39.92-16.89,82.35-25.45,126.1-25.45s86.18,8.56,126.1,25.45c38.58,16.32,73.23,39.68,103,69.45,29.77,29.77,53.13,64.42,69.45,103,16.89,39.92,25.45,82.35,25.45,126.1s-8.56,86.18-25.45,126.1c-16.32,38.58-39.68,73.23-69.45,103-29.77,29.77-64.42,53.13-103,69.45-39.92,16.89-82.35,25.45-126.1,25.45s-86.18-8.56-126.1-25.45c-38.58-16.32-73.23-39.68-103-69.45-29.77-29.77-53.13-64.42-69.45-103-16.89-39.92-25.45-82.35-25.45-126.1Z" style="stroke-width: 0px;"/>
</svg>