<?xml version="1.0" encoding="UTF-8"?>
<svg id="icon" xmlns="http://www.w3.org/2000/svg" viewBox="0 0 864 864">
  <path d="M432,144c-106.04,0-192,128.94-192,288s85.96,288,192,288,192-128.94,192-288-85.96-288-192-288ZM588,432c0,35.58-4.62,70.01-13.74,102.33-8.65,30.67-20.91,58.03-36.45,81.35-29.37,44.06-66.95,68.32-105.81,68.32s-76.44-24.26-105.81-68.32c-15.54-23.31-27.81-50.68-36.45-81.35-9.12-32.33-13.74-66.76-13.74-102.33s4.62-70.01,13.74-102.33c8.65-30.67,20.91-58.03,36.45-81.35,29.37-44.06,66.95-68.32,105.81-68.32s76.44,24.26,105.81,68.32c15.54,23.31,27.81,50.68,36.45,81.35,9.12,32.33,13.74,66.76,13.74,102.33Z" style="stroke-width: 0px;"/>
</svg>