<?xml version="1.0" encoding="UTF-8"?>
<svg id="icon" xmlns="http://www.w3.org/2000/svg" viewBox="0 0 864 864">
  <path d="M330.96,547.97c4.82,14.83,18.64,24.88,34.24,24.88h133.61c15.6,0,29.42-10.04,34.24-24.88l41.29-127.07c4.82-14.83-.46-31.08-13.08-40.25l-108.09-78.53c-6.31-4.58-13.73-6.88-21.16-6.88s-14.85,2.29-21.16,6.88l-108.09,78.53c-12.62,9.17-17.9,25.42-13.08,40.25l41.29,127.07ZM431.99,331.25s0,0,.01,0h0s108.09,78.53,108.09,78.53l-41.29,127.07h-133.61s-41.29-127.07-41.29-127.07l108.08-78.53Z" style="stroke-width: 0px;"/>
</svg>