<?xml version="1.0" encoding="UTF-8"?>
<svg id="icon" xmlns="http://www.w3.org/2000/svg" viewBox="0 0 864 864">
  <path d="M394.6,717.59c12.31,1.6,24.9,2.41,37.48,2.41h.07v-36h-.15c-10.96,0-21.98-.71-32.77-2.11l-4.63,35.7Z" style="stroke-width: 0px;"/>
  <path d="M321.93,698.21c11.59,4.8,23.6,8.86,35.71,12.09l9.27-34.79c-10.59-2.82-21.09-6.38-31.22-10.57l-13.77,33.26Z" style="stroke-width: 0px;"/>
  <path d="M542.35,698.1c11.55-4.79,22.9-10.41,33.75-16.69l-18.04-31.16c-9.48,5.49-19.41,10.4-29.51,14.59l13.8,33.25Z" style="stroke-width: 0px;"/>
  <path d="M357.01,153.86l9.35,34.76c10.56-2.84,21.43-5.01,32.31-6.45l-4.71-35.69c-12.43,1.64-24.86,4.12-36.94,7.37Z" style="stroke-width: 0px;"/>
  <path d="M496.81,188.41c10.59,2.81,21.1,6.35,31.23,10.54l13.73-33.28c-11.59-4.78-23.61-8.84-35.73-12.05l-9.23,34.8Z" style="stroke-width: 0px;"/>
  <path d="M431.51,144l.06,36h.43c10.86,0,21.79.7,32.48,2.07l4.59-35.71c-12.21-1.57-24.68-2.37-37.05-2.37h-.51Z" style="stroke-width: 0px;"/>
  <path d="M256.81,660.6c9.94,7.63,20.48,14.68,31.32,20.94l18.01-31.17c-9.48-5.48-18.7-11.64-27.41-18.32l-21.92,28.56Z" style="stroke-width: 0px;"/>
  <path d="M469.72,717.55c12.43-1.63,24.87-4.09,36.95-7.33l-9.31-34.77c-10.57,2.83-21.44,4.99-32.31,6.41l4.67,35.7Z" style="stroke-width: 0px;"/>
  <path d="M287.62,182.75l18.07,31.14c9.48-5.5,19.4-10.42,29.5-14.63l-13.84-33.23c-11.55,4.81-22.89,10.44-33.73,16.72Z" style="stroke-width: 0px;"/>
  <path d="M182.38,288.27l31.18,17.99c5.47-9.49,11.63-18.71,18.31-27.42l-28.57-21.9c-7.63,9.95-14.66,20.49-20.92,31.33Z" style="stroke-width: 0px;"/>
  <path d="M153.65,357.8l34.79,9.25c2.82-10.59,6.37-21.09,10.55-31.22l-33.27-13.75c-4.79,11.59-8.85,23.61-12.07,35.72Z" style="stroke-width: 0px;"/>
  <path d="M144,432v.33s36-.04,36-.04v-.28c0-10.91.7-21.89,2.09-32.62l-35.7-4.61c-1.58,12.26-2.39,24.79-2.39,37.24Z" style="stroke-width: 0px;"/>
  <path d="M213.82,558.18c-5.5-9.48-10.41-19.41-14.61-29.5l-33.24,13.82c4.8,11.55,10.42,22.9,16.71,33.74l31.15-18.05Z" style="stroke-width: 0px;"/>
  <path d="M146.47,469.88c1.63,12.43,4.11,24.87,7.35,36.95l34.77-9.33c-2.83-10.56-5-21.43-6.43-32.31l-35.69,4.69Z" style="stroke-width: 0px;"/>
  <path d="M253.93,610.31c-7.76-7.75-15.08-16.08-21.76-24.76l-28.53,21.96c7.63,9.92,15.99,19.43,24.85,28.28l25.44-25.47Z" style="stroke-width: 0px;"/>
  <path d="M228.1,228.61l25.49,25.42c7.74-7.76,16.07-15.09,24.75-21.78l-21.97-28.52c-9.91,7.64-19.42,16-28.26,24.87Z" style="stroke-width: 0px;"/>
  <path d="M710.26,506.51l-34.78-9.29c-2.83,10.59-6.39,21.09-10.59,31.21l33.26,13.79c4.8-11.58,8.88-23.6,12.11-35.71Z" style="stroke-width: 0px;"/>
  <path d="M710.09,356.86l-34.76,9.37c2.85,10.56,5.02,21.43,6.46,32.3l35.69-4.73c-1.65-12.43-4.14-24.86-7.39-36.94Z" style="stroke-width: 0px;"/>
  <path d="M631.96,585.39l28.55,21.93c7.64-9.94,14.69-20.47,20.95-31.31l-31.16-18.03c-5.48,9.48-11.65,18.7-18.34,27.4Z" style="stroke-width: 0px;"/>
  <path d="M684,431.43v.57c0,11.01-.71,22.08-2.13,32.91l35.7,4.65c1.61-12.37,2.43-25,2.43-37.56v-.65s-36,.08-36,.08Z" style="stroke-width: 0px;"/>
  <path d="M650.04,305.57c5.51,9.47,10.43,19.4,14.64,29.49l33.23-13.86c-4.81-11.54-10.45-22.89-16.74-33.72l-31.12,18.09Z" style="stroke-width: 0px;"/>
  <path d="M607.38,660.46c9.92-7.63,19.44-15.98,28.29-24.84l-25.46-25.45c-7.75,7.75-16.09,15.07-24.77,21.75l21.94,28.54Z" style="stroke-width: 0px;"/>
  <path d="M557.62,213.49c9.49,5.47,18.72,11.62,27.43,18.29l21.89-28.58c-9.95-7.62-20.5-14.65-31.34-20.9l-17.97,31.19Z" style="stroke-width: 0px;"/>
  <path d="M609.87,253.49c7.77,7.74,15.1,16.06,21.79,24.74l28.5-21.99c-7.64-9.91-16.02-19.41-24.88-28.25l-25.41,25.5Z" style="stroke-width: 0px;"/>
</svg>