<?xml version="1.0" encoding="UTF-8"?>
<svg id="icon" xmlns="http://www.w3.org/2000/svg" viewBox="0 0 864 864">
  <path d="M463.17,195.96c-6.93-11.99-19.05-17.99-31.17-17.99s-24.24,6-31.17,17.99l-251.95,436.05c-13.87,24,3.45,54.01,31.17,54.01h503.89c27.72,0,45.04-30.01,31.17-54.01l-251.95-436.05ZM180.05,650.03l251.95-436.05h0l251.95,436.05H180.05Z" style="stroke-width: 0px;"/>
  <path d="M400.83,359.99l-109.67,189.81c-13.87,24,3.45,54.01,31.17,54.01h219.33c27.72,0,45.04-30.01,31.17-54.01l-109.67-189.81c-6.93-11.99-19.05-17.99-31.17-17.99s-24.24,6-31.17,17.99ZM541.67,567.8h-219.33l109.67-189.8,109.67,189.8Z" style="stroke-width: 0px;"/>
</svg>