<?xml version="1.0" encoding="UTF-8"?>
<svg id="icon" xmlns="http://www.w3.org/2000/svg" viewBox="0 0 864 864">
  <path d="M286.49,615.05c4.82,14.83,18.64,24.88,34.24,24.88h222.55c15.6,0,29.42-10.04,34.24-24.88l68.77-211.65c4.82-14.83-.46-31.08-13.08-40.25l-180.04-130.81c-6.31-4.58-13.73-6.88-21.16-6.88s-14.85,2.29-21.16,6.88l-180.04,130.81c-12.62,9.17-17.9,25.42-13.08,40.25l68.77,211.65ZM431.99,261.46s0,0,.01,0l180.04,130.81-68.77,211.65h-222.55s-68.77-211.65-68.77-211.65l180.03-130.81Z" style="stroke-width: 0px;"/>
</svg>