<?xml version="1.0" encoding="UTF-8"?>
<svg id="icon" xmlns="http://www.w3.org/2000/svg" viewBox="0 0 864 864">
  <path d="M432,144c-76.93,0-149.25,29.96-203.65,84.35-54.4,54.4-84.35,126.72-84.35,203.65s29.96,149.25,84.35,203.65c54.4,54.4,126.72,84.35,203.65,84.35s149.25-29.96,203.65-84.35c54.4-54.4,84.35-126.72,84.35-203.65s-29.96-149.25-84.35-203.65c-54.4-54.4-126.72-84.35-203.65-84.35ZM683.36,414h-233.36v-233.36c60.53,4.24,116.86,29.84,160.19,73.17,43.33,43.33,68.93,99.66,73.17,160.19ZM610.19,610.19c-47.6,47.6-110.88,73.81-178.19,73.81s-130.59-26.21-178.19-73.81c-47.6-47.6-73.81-110.88-73.81-178.19s26.21-130.59,73.81-178.19c43.33-43.33,99.66-68.93,160.19-73.17v233.36c0,19.85,16.15,36,36,36h233.36c-4.24,60.53-29.84,116.86-73.17,160.19Z" style="stroke-width: 0px;"/>
</svg>