<?xml version="1.0" encoding="UTF-8"?>
<svg id="icon" xmlns="http://www.w3.org/2000/svg" viewBox="0 0 864 864">
  <path d="M561.03,378.29c0-12.86-6.86-24.75-18-31.18l-93.03-53.71c-5.57-3.22-11.78-4.82-18-4.82s-12.43,1.61-18,4.82l-93.03,53.71c-11.14,6.43-18,18.32-18,31.18v107.42c0,12.86,6.86,24.75,18,31.18l93.03,53.71c5.57,3.22,11.78,4.82,18,4.82s12.43-1.61,18-4.82l93.03-53.71c11.14-6.43,18-18.32,18-31.18v-107.42ZM525.03,485.71l-93.03,53.71-93.03-53.71v-107.42l93.03-53.71s0,0,0,0l93.03,53.71v107.42Z" style="stroke-width: 0px;"/>
</svg>