<?xml version="1.0" encoding="UTF-8"?>
<svg id="icon" xmlns="http://www.w3.org/2000/svg" viewBox="0 0 864 864">
  <path d="M450,148.82c-5.57-3.22-11.78-4.82-18-4.82s-12.43,1.61-18,4.82l-218.24,126c-11.14,6.43-18,18.32-18,31.18v252c0,12.86,6.86,24.75,18,31.18l218.24,126c5.57,3.22,11.78,4.82,18,4.82s12.43-1.61,18-4.82l218.24-126c11.14-6.43,18-18.32,18-31.18v-252c0-12.86-6.86-24.75-18-31.18l-218.24-126ZM540,242.35l24,13.86v351.58l-24,13.86V242.35ZM516,635.5l-24,13.86V214.64l24,13.86v407.01ZM588,270.07l24,13.86v296.15l-24,13.86v-323.87ZM300,256.21l24-13.86v379.29l-24-13.86v-351.58ZM276,593.93l-24-13.86v-296.15l24-13.86v323.87ZM348,228.5l24-13.86v434.72l-24-13.86V228.5ZM213.76,306l14.24-8.22v268.44l-14.24-8.22v-252ZM396,663.22V200.78l24-13.86v490.15l-24-13.86ZM444,677.07V186.93l24,13.86v462.43l-24,13.86ZM650.24,558l-14.24,8.22v-268.44l14.24,8.22v252Z" style="stroke-width: 0px;"/>
</svg>