<?xml version="1.0" encoding="UTF-8"?>
<svg id="icon" xmlns="http://www.w3.org/2000/svg" viewBox="0 0 864 864">
  <path d="M180,720h504c19.88,0,36-16.12,36-36V180c0-19.88-16.12-36-36-36H180c-19.88,0-36,16.12-36,36v504c0,19.88,16.12,36,36,36ZM684,276v24H180v-24h504ZM180,252v-24h504v24H180ZM684,324v24H180v-24h504ZM684,372v24H180v-24h504ZM684,420v24H180v-24h504ZM684,468v24H180v-24h504ZM684,516v24H180v-24h504ZM684,564v24H180v-24h504ZM684,612v24H180v-24h504ZM684,180s0,0,0,0v24H180v-24h504ZM180,660h504v24s-504,0-504,0v-24Z" style="stroke-width: 0px;"/>
</svg>