<?xml version="1.0" encoding="UTF-8"?>
<svg id="icon" xmlns="http://www.w3.org/2000/svg" viewBox="0 0 864 864">
  <path d="M432,240c-159.06,0-288,85.96-288,192s128.94,192,288,192,288-85.96,288-192-128.94-192-288-192ZM615.68,537.81c-23.31,15.54-50.68,27.81-81.35,36.45-32.33,9.12-66.76,13.74-102.33,13.74s-70.01-4.62-102.33-13.74c-30.67-8.65-58.03-20.91-81.35-36.45-44.06-29.37-68.32-66.95-68.32-105.81s24.26-76.44,68.32-105.81c23.31-15.54,50.68-27.81,81.35-36.45,32.33-9.12,66.76-13.74,102.33-13.74s70.01,4.62,102.33,13.74c30.67,8.65,58.03,20.91,81.35,36.45,44.06,29.37,68.32,66.95,68.32,105.81s-24.26,76.44-68.32,105.81Z" style="stroke-width: 0px;"/>
</svg>