<?xml version="1.0" encoding="UTF-8"?>
<svg id="icon" xmlns="http://www.w3.org/2000/svg" viewBox="0 0 864 864">
  <path d="M195.76,589.18l218.24,126c5.57,3.22,11.78,4.82,18,4.82s12.43-1.61,18-4.82l218.24-126c11.14-6.43,18-18.32,18-31.18v-252c0-12.86-6.86-24.75-18-31.18l-218.24-126c-5.57-3.22-11.78-4.82-18-4.82s-12.43,1.61-18,4.82l-218.24,126c-11.14,6.43-18,18.32-18,31.18v252c0,12.86,6.86,24.75,18,31.18ZM213.76,306l218.23-126s0,0,0,0l218.24,126v252l-218.24,126-218.24-126v-252Z" style="stroke-width: 0px;"/>
</svg>