<?xml version="1.0" encoding="UTF-8"?>
<svg id="icon" xmlns="http://www.w3.org/2000/svg" viewBox="0 0 864 864">
  <path d="M550.65,181.54c-6.75-6.75-15.91-10.54-25.46-10.54h-186.4c-9.55,0-18.7,3.79-25.46,10.54l-131.8,131.8c-6.75,6.75-10.54,15.91-10.54,25.46v186.4c0,9.55,3.79,18.7,10.54,25.46l131.8,131.8c6.75,6.75,15.91,10.54,25.46,10.54h186.4c9.55,0,18.7-3.79,25.46-10.54l131.8-131.8c6.75-6.75,10.54-15.91,10.54-25.46v-186.4c0-9.55-3.79-18.7-10.54-25.46l-131.8-131.8Z" style="stroke-width: 0px;"/>
</svg>