<?xml version="1.0" encoding="UTF-8"?>
<svg id="icon" xmlns="http://www.w3.org/2000/svg" viewBox="0 0 864 864">
  <path d="M432,36c-218.7,0-396,177.29-396,396s177.3,396,396,396,396-177.29,396-396S650.7,36,432,36ZM792,432c0,48.62-9.51,95.76-28.28,140.12-18.13,42.86-44.09,81.37-77.17,114.44-33.07,33.07-71.58,59.04-114.44,77.17-44.36,18.76-91.5,28.28-140.12,28.28s-95.76-9.51-140.12-28.28c-42.86-18.13-81.37-44.09-114.44-77.17-33.07-33.07-59.04-71.58-77.17-114.44-18.76-44.36-28.28-91.5-28.28-140.12s9.51-95.76,28.28-140.12c18.13-42.86,44.09-81.37,77.17-114.44,33.07-33.07,71.58-59.04,114.44-77.17,44.36-18.76,91.5-28.28,140.12-28.28s95.76,9.51,140.12,28.28c42.86,18.13,81.37,44.09,114.44,77.17,33.07,33.07,59.04,71.58,77.17,114.44,18.76,44.36,28.28,91.5,28.28,140.12Z" style="stroke-width: 0px;"/>
</svg>